<?xml version="1.0" standalone="no"?>
<!DOCTYPE svg PUBLIC "-//W3C//DTD SVG 20010904//EN"
 "http://www.w3.org/TR/2001/REC-SVG-20010904/DTD/svg10.dtd">
<svg version="1.0" xmlns="http://www.w3.org/2000/svg"
 width="700.000000pt" height="700.000000pt" viewBox="0 0 700.000000 700.000000"
 preserveAspectRatio="xMidYMid meet">
<metadata>
Created by potrace 1.14, written by Peter Selinger 2001-2017
</metadata>
<g transform="translate(0.000000,700.000000) scale(0.100000,-0.100000)"
fill="#000000" stroke="none">
<path d="M384 6990 c-25 -10 -253 -228 -324 -310 -27 -31 -52 -69 -56 -86 l-6
-29 30 35 c16 19 34 32 38 27 4 -4 -3 -44 -17 -90 -23 -78 -24 -93 -22 -322 3
-316 17 -482 58 -699 66 -344 106 -466 341 -1041 2 -5 -23 -44 -56 -85 -72
-90 -150 -241 -186 -365 -20 -69 -27 -120 -31 -215 l-5 -125 46 -93 45 -92
-45 -93 -46 -92 5 -125 c4 -95 11 -146 31 -215 36 -124 114 -275 186 -365 33
-41 58 -79 56 -85 -218 -524 -276 -703 -340 -1040 -42 -217 -55 -382 -59 -700
-2 -229 -1 -244 22 -322 14 -46 21 -86 17 -90 -4 -5 -21 8 -37 27 -34 40 -39
21 -8 -30 28 -45 304 -321 349 -349 51 -31 70 -26 30 8 -19 16 -32 32 -28 37
4 4 43 -3 85 -15 72 -21 96 -23 325 -22 228 1 451 12 538 27 408 68 569 114
990 283 l225 90 33 -27 c200 -161 399 -240 627 -249 l120 -5 93 46 92 45 93
-45 92 -46 120 5 c228 9 428 88 627 249 l33 27 225 -90 c384 -154 515 -194
827 -254 215 -41 390 -55 705 -56 221 -2 243 0 318 22 44 12 83 19 87 15 5 -4
-8 -21 -27 -37 -40 -34 -21 -39 30 -8 45 28 321 304 349 349 31 51 26 70 -8
30 -16 -19 -32 -32 -37 -28 -4 5 1 36 11 70 28 96 32 179 24 475 -9 295 -15
359 -60 593 -54 286 -97 424 -248 800 l-90 225 29 35 c150 179 238 401 247
625 l5 120 -46 92 -45 93 45 92 46 93 -5 120 c-9 224 -96 446 -247 625 l-29
35 90 225 c152 378 194 515 248 800 45 234 51 298 60 593 8 296 4 379 -24 475
-10 34 -15 65 -11 70 5 4 21 -9 37 -28 34 -40 39 -21 8 30 -28 45 -304 321
-349 349 -51 31 -70 26 -30 -8 19 -16 32 -32 28 -37 -4 -4 -43 3 -85 16 -73
22 -93 23 -323 22 -318 -2 -484 -16 -705 -58 -343 -65 -475 -108 -1040 -340
-5 -2 -44 23 -85 56 -90 72 -241 150 -365 186 -69 20 -120 27 -215 31 l-125 5
-92 -46 -93 -45 -92 45 -93 46 -125 -5 c-232 -9 -410 -82 -635 -259 -21 -17
-27 -15 -176 46 -399 163 -592 224 -894 280 -233 44 -377 56 -700 58 -235 1
-255 0 -328 -22 -42 -13 -81 -20 -85 -16 -4 5 9 21 28 37 33 28 27 36 -16 19z
m487 -220 c101 -6 233 -17 294 -26 200 -28 543 -103 644 -141 72 -27 541 -251
559 -268 8 -7 -43 -119 -66 -147 -61 -73 -247 -134 -662 -218 -113 -23 -232
-53 -265 -66 -33 -14 -67 -28 -76 -30 -11 -4 -36 26 -89 108 -138 211 -317
437 -517 656 -62 67 -113 127 -113 132 0 13 60 13 291 0z m5549 0 c0 -5 -51
-65 -113 -132 -200 -219 -379 -445 -517 -656 -53 -82 -78 -112 -89 -108 -9 2
-43 16 -76 30 -33 13 -152 43 -265 66 -388 78 -581 139 -652 207 -25 24 -86
149 -77 157 18 17 485 241 562 270 102 38 505 124 682 146 197 24 545 37 545
20z m-5911 -75 c86 -92 193 -228 303 -385 122 -175 238 -348 238 -356 0 -31
-582 386 -732 526 l-78 72 1 56 c0 86 17 125 59 139 19 7 60 12 91 12 l57 1
61 -65z m6191 52 c42 -14 59 -53 59 -139 l1 -56 -77 -72 c-43 -40 -145 -123
-228 -185 -171 -129 -494 -349 -502 -342 -10 10 308 469 421 607 34 41 87 103
120 137 l58 63 57 -1 c31 0 72 -5 91 -12z m-3395 -147 l50 -25 -1 -95 c-3
-181 -121 -734 -159 -747 -6 -1 -30 48 -54 110 -90 229 -222 484 -313 604 -23
30 -38 59 -35 67 9 22 118 74 201 97 103 28 243 23 311 -11z m703 10 c86 -24
190 -74 199 -96 3 -9 -7 -31 -24 -52 -81 -101 -229 -382 -314 -593 -67 -170
-63 -167 -92 -74 -64 204 -122 498 -134 675 -7 108 -6 109 74 140 67 26 196
26 291 0z m-3634 -314 c211 -195 410 -350 639 -501 87 -57 117 -82 114 -94 -3
-9 -17 -43 -31 -76 -13 -33 -43 -152 -66 -265 -79 -394 -145 -596 -216 -662
-16 -15 -54 -36 -84 -48 -52 -20 -55 -21 -67 -3 -27 36 -222 431 -256 518 -41
104 -63 190 -111 440 -43 225 -53 304 -66 529 -13 223 -13 286 0 286 5 0 70
-56 144 -124z m6406 70 c0 -91 -19 -406 -31 -496 -13 -110 -72 -418 -104 -544
-14 -54 -43 -142 -66 -195 -43 -100 -219 -454 -242 -485 -13 -18 -16 -17 -74
9 -34 15 -73 39 -87 53 -67 71 -128 265 -206 652 -23 113 -53 232 -66 265 -14
33 -28 67 -30 76 -4 11 23 34 92 80 235 154 440 314 657 513 75 69 142 126
147 126 6 0 10 -24 10 -54z m-4020 -138 c30 -51 74 -129 98 -173 89 -161 243
-533 258 -622 6 -37 4 -41 -43 -78 -120 -97 -378 -375 -507 -547 -16 -21 -33
-35 -38 -32 -14 9 -82 157 -107 234 -52 158 -79 427 -61 616 11 120 47 317 75
410 12 42 23 57 57 79 57 38 154 130 179 172 11 18 24 33 28 33 4 0 31 -42 61
-92z m1569 59 c25 -42 122 -134 179 -172 48 -32 57 -55 97 -251 36 -173 48
-311 40 -444 -8 -139 -38 -322 -67 -410 -26 -79 -92 -225 -106 -234 -5 -3 -22
11 -38 32 -129 172 -379 441 -509 548 l-50 41 17 66 c23 89 117 325 188 472
64 132 209 385 221 385 4 0 17 -15 28 -33z m-751 -454 c40 -142 72 -264 72
-272 0 -10 -8 -12 -29 -8 -17 4 -52 0 -79 -8 -43 -13 -54 -13 -91 0 -23 8 -55
12 -71 8 -22 -4 -30 -2 -30 8 0 23 144 529 150 529 4 0 39 -116 78 -257z
m-1338 96 c0 -11 -7 -75 -16 -142 -12 -94 -15 -180 -12 -370 l4 -247 -195 193
c-154 152 -216 206 -288 251 -51 32 -93 59 -93 61 0 1 91 41 203 89 111 48
243 109 292 135 50 27 93 50 98 50 4 1 7 -8 7 -20z m2621 -29 c52 -27 184 -88
293 -135 110 -47 201 -87 203 -89 2 -2 -38 -30 -89 -62 -70 -44 -136 -100
-268 -229 -96 -94 -185 -178 -196 -188 l-22 -18 5 263 c4 212 2 282 -11 360
-15 94 -20 148 -12 148 2 0 45 -22 97 -50z m-3176 -488 c39 -27 138 -110 221
-184 83 -74 204 -180 270 -235 l119 -101 73 -156 c39 -85 72 -160 72 -166 0
-20 -32 -9 -187 70 l-158 80 -86 102 c-48 57 -151 175 -229 263 -161 181 -224
265 -281 378 l-39 77 77 -39 c43 -21 110 -61 148 -89z m3816 51 c-47 -94 -117
-193 -202 -290 -78 -87 -297 -338 -359 -411 -40 -46 -64 -62 -207 -132 -89
-43 -165 -75 -168 -70 -7 11 20 77 90 222 l56 117 117 98 c64 54 183 157 263
229 80 72 176 152 213 179 62 44 211 131 229 134 4 1 -10 -34 -32 -76z m-4115
-195 c43 -70 100 -136 229 -268 94 -96 178 -185 188 -196 l18 -21 -251 5
c-206 4 -273 2 -380 -13 -72 -10 -133 -16 -135 -13 -3 2 22 56 54 119 32 63
94 196 136 297 43 100 79 182 80 182 2 0 29 -42 61 -92z m4378 -111 c42 -98
101 -227 131 -285 30 -59 50 -109 44 -110 -5 -2 -65 4 -132 13 -99 15 -168 17
-375 13 l-253 -5 18 21 c9 11 92 98 184 191 152 155 183 193 277 344 18 30 10
43 106 -182z m-2135 132 c27 -9 32 -15 27 -33 -30 -104 -113 -503 -137 -661
-13 -90 -28 -130 -29 -78 0 46 -63 385 -106 571 -46 200 -46 195 -9 203 51 11
220 10 254 -2z m-430 -96 c12 -24 68 -271 92 -405 10 -59 25 -216 34 -350 8
-134 20 -312 26 -396 7 -84 10 -155 7 -157 -6 -6 -471 438 -593 566 -130 137
-128 130 -64 225 73 110 229 312 297 385 54 59 165 149 183 149 4 0 12 -8 18
-17z m687 -26 c98 -72 238 -238 399 -470 82 -119 85 -104 -65 -261 -131 -136
-536 -523 -563 -538 -20 -10 -20 -8 -13 68 3 44 13 192 21 329 24 405 35 484
106 788 20 82 35 127 44 127 7 0 39 -19 71 -43z m-2099 -543 c51 -7 121 -21
154 -29 67 -18 223 -82 266 -110 l27 -18 -34 -26 c-182 -139 -446 -383 -561
-520 l-46 -55 -129 48 c-244 91 -428 175 -606 277 -98 56 -178 106 -178 110 0
4 15 17 33 28 42 25 134 122 172 179 22 34 37 45 79 57 81 25 287 65 383 74
107 12 313 4 440 -15z m3848 16 c113 -11 311 -48 401 -75 43 -12 56 -23 88
-69 37 -54 129 -147 176 -178 24 -16 24 -17 6 -31 -11 -8 -89 -54 -175 -103
-167 -95 -327 -168 -570 -259 l-155 -58 -45 54 c-117 139 -380 383 -555 514
-38 29 -38 29 -17 46 41 34 237 108 338 129 95 19 244 35 353 39 25 0 95 -4
155 -9z m-3158 -339 c57 -48 245 -237 496 -498 70 -73 127 -140 127 -149 0
-15 -9 -16 -72 -10 -40 3 -185 13 -323 21 -137 8 -297 20 -355 26 -162 16
-530 95 -552 117 -26 26 92 160 257 292 131 104 335 249 352 250 7 0 38 -22
70 -49z m2201 -3 c116 -78 317 -234 393 -305 83 -78 147 -169 132 -184 -23
-23 -393 -103 -553 -119 -58 -6 -220 -17 -360 -25 -140 -8 -288 -18 -329 -22
-70 -6 -73 -5 -63 13 13 24 202 225 416 443 149 151 260 251 279 251 4 0 43
-23 85 -52z m-4100 -142 c141 -98 334 -196 635 -321 38 -15 65 -31 60 -35 -25
-24 -394 -111 -599 -141 -77 -11 -165 -19 -195 -17 -54 3 -54 3 -79 53 -35 72
-40 203 -11 309 28 103 80 206 103 206 5 0 43 -24 86 -54z m5980 -13 c75 -142
93 -335 42 -452 l-24 -54 -105 6 c-172 10 -464 67 -675 134 -93 29 -98 23 77
94 185 76 411 192 522 269 55 37 107 68 115 67 8 -1 30 -30 48 -64z m-2977
-257 l41 -117 18 28 c11 19 72 58 183 121 91 50 171 92 176 92 20 0 11 -21
-81 -187 -63 -111 -102 -172 -121 -183 l-28 -18 113 -39 c62 -22 140 -48 173
-57 33 -9 67 -19 75 -22 8 -3 -17 -14 -56 -25 -39 -10 -124 -37 -188 -60
l-117 -41 28 -18 c19 -11 58 -72 121 -183 92 -166 101 -187 81 -187 -5 0 -85
42 -176 93 -111 62 -172 101 -183 120 l-18 28 -39 -113 c-22 -62 -48 -140 -57
-173 -9 -33 -19 -67 -22 -75 -3 -8 -14 17 -25 56 -10 39 -37 124 -60 188 l-41
117 -18 -28 c-11 -19 -72 -58 -183 -120 -166 -93 -187 -102 -187 -82 0 5 42
85 93 176 62 111 101 172 120 183 l28 18 -113 39 c-62 22 -140 48 -173 57 -33
9 -67 19 -75 22 -8 3 17 14 55 24 39 11 123 38 187 61 l117 43 -27 16 c-18 11
-59 75 -119 183 -51 91 -93 171 -93 176 0 20 21 11 187 -81 111 -63 172 -102
183 -121 l18 -28 39 113 c22 62 48 140 57 173 9 33 19 67 22 75 3 8 14 -17 25
-56 10 -39 37 -124 60 -188z m-1639 -276 c98 -22 256 -54 350 -70 241 -43 237
-41 133 -56 -137 -20 -393 -71 -554 -110 -97 -23 -148 -31 -155 -24 -15 15
-20 231 -6 275 10 31 16 36 34 30 11 -3 101 -24 198 -45z m3351 5 c11 -49 3
-253 -10 -266 -7 -7 -45 -1 -109 15 -121 30 -477 102 -599 120 -104 15 -108
13 133 56 188 33 531 106 540 115 16 15 37 -4 45 -40z m-3843 -12 c6 -156 0
-253 -15 -253 -21 0 -509 140 -518 149 -7 7 479 149 514 150 13 1 17 -10 19
-46z m4402 -30 c131 -37 238 -70 238 -73 0 -6 -505 -150 -526 -150 -14 0 -20
104 -14 254 l2 48 31 -6 c18 -4 139 -37 269 -73z m-5167 -234 c163 -23 359
-67 500 -110 115 -36 119 -30 -51 -97 -217 -87 -466 -217 -582 -304 -29 -22
-60 -37 -67 -34 -21 8 -72 114 -95 198 -34 122 -23 271 24 343 14 22 24 25 74
25 31 0 120 -9 197 -21z m2416 2 c-14 -25 -463 -493 -568 -591 -124 -117 -114
-115 -230 -35 -130 90 -290 214 -366 284 -64 59 -147 164 -147 186 0 9 51 26
148 49 282 67 365 78 872 107 107 6 197 13 199 15 2 2 26 4 53 4 45 0 48 -2
39 -19z m1194 -6 c347 -21 448 -31 607 -65 221 -47 308 -71 308 -85 0 -17 -55
-92 -109 -148 -78 -82 -358 -299 -469 -364 l-43 -25 -37 26 c-61 43 -630 624
-653 669 -11 20 -10 20 67 13 44 -3 192 -13 329 -21z m2305 -29 c32 -66 39
-191 16 -291 -19 -80 -80 -213 -102 -222 -8 -3 -31 8 -52 24 -102 82 -353 214
-589 311 -175 72 -170 66 -77 95 123 39 320 85 456 106 177 29 176 29 253 27
l70 -1 25 -49z m-4949 -238 c98 -121 371 -374 542 -502 28 -22 35 -32 27 -41
-20 -24 -214 -102 -305 -123 -143 -33 -234 -42 -423 -42 -181 0 -276 11 -437
51 -133 33 -141 37 -171 82 -37 56 -130 153 -171 178 -18 11 -33 24 -33 28 0
9 211 133 335 196 183 93 515 224 572 225 14 0 36 -18 64 -52z m3867 23 c115
-38 288 -109 427 -176 96 -47 358 -194 374 -211 3 -3 -5 -14 -19 -22 -46 -31
-139 -124 -176 -178 -43 -62 -57 -68 -259 -109 -156 -32 -347 -49 -460 -42
-95 7 -285 38 -371 61 -64 17 -240 94 -253 110 -8 10 4 25 50 61 208 164 389
330 496 458 37 44 72 77 83 77 10 0 58 -13 108 -29z m-2167 -128 c-6 -76 -16
-228 -22 -338 -11 -219 -29 -377 -60 -530 -26 -132 -67 -287 -79 -299 -14 -14
-86 38 -176 128 -80 81 -269 325 -333 430 l-34 56 29 41 c30 44 467 476 597
591 44 38 81 67 84 64 3 -3 1 -67 -6 -143z m555 -91 c248 -237 400 -392 429
-435 17 -27 17 -28 -16 -83 -46 -75 -226 -314 -296 -393 -68 -77 -202 -186
-214 -174 -11 11 -62 219 -88 358 -28 151 -39 258 -56 555 -8 140 -18 290 -21
334 -7 76 -7 78 13 68 11 -6 123 -110 249 -230z m-331 -767 c25 -121 54 -256
65 -300 11 -43 17 -82 13 -86 -5 -3 -42 -11 -83 -17 -101 -15 -226 4 -224 34
1 10 18 91 38 179 41 178 106 524 106 559 0 12 3 26 7 30 4 4 13 -35 21 -86 7
-51 33 -192 57 -313z m-1141 313 c-22 -74 -140 -307 -168 -333 -18 -16 -104
-92 -192 -167 -87 -76 -197 -172 -244 -213 -94 -84 -212 -166 -308 -214 l-62
-32 39 78 c54 109 131 213 279 377 70 77 172 194 226 259 88 106 106 121 165
149 176 82 257 118 264 118 5 0 5 -10 1 -22z m2314 -57 l144 -66 101 -119 c55
-66 161 -187 235 -270 74 -83 157 -182 184 -221 45 -63 134 -225 124 -225 -9
0 -175 96 -226 130 -30 20 -125 100 -210 176 -85 77 -209 185 -275 241 l-120
101 -66 144 c-37 78 -70 154 -74 166 -6 22 -5 23 17 17 12 -4 88 -37 166 -74z
m-4005 -20 c34 -15 72 -39 84 -52 65 -71 127 -270 203 -649 23 -113 53 -232
66 -265 14 -33 28 -67 30 -76 4 -11 -31 -39 -122 -100 -232 -152 -392 -279
-638 -504 -70 -63 -131 -115 -136 -115 -6 0 -10 24 -10 53 0 114 21 427 36
532 23 167 100 533 129 616 31 87 275 589 287 589 5 0 36 -13 71 -29z m5719
-228 c70 -142 139 -291 153 -332 30 -87 118 -514 134 -651 12 -103 31 -399 31
-492 0 -35 -4 -58 -11 -58 -6 0 -63 49 -127 109 -199 186 -420 360 -655 517
-84 55 -117 82 -113 93 2 9 16 43 30 76 13 33 43 152 66 265 76 379 138 578
203 649 20 22 129 80 152 81 6 0 68 -116 137 -257z m-5265 111 c87 -13 159
-15 366 -11 l258 5 -18 -22 c-10 -11 -94 -100 -188 -196 -129 -132 -185 -198
-230 -269 -40 -63 -60 -89 -66 -80 -4 8 -42 95 -84 194 -42 99 -101 227 -131
284 -30 58 -54 106 -54 108 0 6 42 3 147 -13z m4753 11 c0 -3 -18 -38 -41 -78
-23 -40 -74 -148 -114 -242 -103 -239 -115 -265 -124 -265 -5 0 -32 39 -61 88
-41 66 -95 129 -225 262 -94 96 -178 185 -188 196 l-18 22 263 -5 c195 -3 286
0 353 10 98 16 155 20 155 12z m-3251 -205 c137 -163 251 -281 350 -362 72
-60 73 -61 67 -100 -15 -90 -168 -462 -258 -623 -83 -150 -152 -265 -159 -265
-4 0 -17 15 -28 34 -26 41 -142 151 -188 178 -38 23 -50 56 -88 243 -52 256
-53 498 -4 740 19 95 90 284 126 335 l17 24 25 -34 c14 -19 77 -95 140 -170z
m1822 105 c74 -161 101 -276 119 -499 13 -160 2 -321 -35 -501 -41 -203 -47
-216 -109 -259 -54 -37 -147 -129 -178 -176 -16 -24 -17 -24 -31 -6 -37 49
-191 334 -241 444 -70 154 -153 375 -162 428 l-6 41 79 66 c106 88 231 221
382 404 69 84 129 149 134 146 5 -3 27 -43 48 -88z m-2309 -565 c-4 -209 -2
-272 13 -380 10 -71 16 -132 13 -135 -3 -3 -52 19 -109 49 -57 30 -185 89
-284 131 -99 42 -186 80 -194 84 -9 6 17 27 80 67 73 45 138 101 286 246 106
103 194 188 196 188 2 0 2 -113 -1 -250z m2788 45 c132 -129 198 -185 269
-230 63 -39 89 -60 80 -66 -8 -4 -108 -48 -224 -97 -115 -50 -243 -109 -283
-132 -41 -23 -76 -39 -80 -36 -3 3 3 67 13 141 15 112 17 177 12 381 l-5 245
21 -18 c12 -9 101 -94 197 -188z m-1387 -167 c25 1 37 -3 37 -12 0 -21 -140
-510 -149 -519 -7 -7 -151 491 -151 522 0 10 8 12 29 8 15 -3 41 -2 57 3 16 5
54 7 84 3 30 -3 72 -5 93 -5z m-389 -245 c67 -216 128 -532 130 -683 l1 -95
-49 -24 c-66 -33 -185 -40 -289 -17 -82 19 -214 78 -223 100 -3 8 18 49 49 93
99 142 197 335 321 636 16 37 30 67 32 67 2 0 14 -35 28 -77z m647 -76 c76
-185 186 -399 267 -521 40 -60 71 -115 68 -122 -13 -33 -187 -98 -304 -114
-84 -11 -166 3 -227 39 l-30 17 1 95 c3 155 62 463 131 683 29 93 23 98 94
-77z m-2496 -31 c33 -13 152 -43 265 -66 384 -76 581 -139 652 -207 25 -24 86
-149 77 -157 -18 -17 -485 -241 -560 -269 -101 -38 -444 -113 -644 -141 -98
-14 -435 -36 -544 -36 -23 0 -41 5 -41 10 0 6 49 63 108 128 209 226 369 429
517 655 57 89 81 118 93 114 10 -3 44 -17 77 -31z m4420 -83 c149 -227 327
-452 516 -655 60 -64 109 -122 109 -129 0 -15 -282 -6 -497 16 -198 21 -611
106 -731 151 -76 29 -543 253 -561 270 -9 8 52 133 77 157 70 68 264 129 650
207 187 37 283 64 322 90 8 5 20 10 27 10 6 0 46 -53 88 -117z m-4755 21 c0
-9 -103 -166 -218 -329 -129 -185 -236 -320 -319 -404 l-64 -64 -74 5 c-41 3
-81 11 -89 18 -21 17 -36 74 -36 136 0 50 1 53 63 110 130 122 278 235 562
426 152 102 175 116 175 102z m5034 -60 c254 -167 493 -346 621 -465 l65 -61
-1 -57 c0 -85 -17 -124 -59 -138 -19 -7 -60 -12 -91 -12 l-57 -1 -61 65 c-84
90 -191 226 -303 385 -105 149 -228 334 -228 344 0 12 14 5 114 -60z"/>
</g>
</svg>
