<?xml version="1.0" standalone="no"?>
<!DOCTYPE svg PUBLIC "-//W3C//DTD SVG 1.1//EN" "http://www.w3.org/Graphics/SVG/1.1/DTD/svg11.dtd" >
<svg xmlns="http://www.w3.org/2000/svg" xmlns:xlink="http://www.w3.org/1999/xlink" version="1.1">
<metadata></metadata>
<defs>
<font id="gill_sans_novabold" horiz-adv-x="1159" >
<font-face units-per-em="2048" ascent="1638" descent="-410" />
<missing-glyph horiz-adv-x="596" />
<glyph horiz-adv-x="0" />
<glyph horiz-adv-x="682" />
<glyph unicode=" "  horiz-adv-x="596" />
<glyph unicode="&#x09;" horiz-adv-x="596" />
<glyph unicode="&#xa0;" horiz-adv-x="596" />
<glyph unicode="!" horiz-adv-x="600" d="M111 170q0 78 56 133t134 55t132 -55t54 -133t-54 -133t-132 -55t-134 55t-56 133zM115 1112q0 150 54 226.5t132 76.5q80 0 131 -76.5t51 -224.5q0 -127 -33.5 -308t-72.5 -286q-17 -43 -34 -59.5t-42 -16.5q-29 0 -43 16.5t-29 57.5q-32 100 -73 282.5t-41 311.5z" />
<glyph unicode="&#x22;" horiz-adv-x="934" d="M63 1153v244h345v-244l-60 -291h-225zM526 1153v244h344v-244l-57 -291h-227z" />
<glyph unicode="#" horiz-adv-x="1366" d="M76 346v203h194l62 291h-256v202h299l80 381h209l-78 -381h340l80 381h208l-79 -381h155v-202h-196l-60 -291h256v-203h-299l-80 -377h-209l78 377h-342l-78 -377h-210l79 377h-153zM481 549h340l62 291h-340z" />
<glyph unicode="$" d="M78 975q0 94 49 176t143.5 138.5t227.5 72.5v94h170v-94q104 -16 192 -50t172 -93v-275q-80 70 -175 121t-189 74v-324q219 -70 319 -172t100 -260q0 -96 -48 -181t-142 -144.5t-229 -75.5v-226h-170v226q-99 10 -206.5 50t-201.5 99v275q92 -78 197.5 -131.5 t210.5 -69.5v370q-211 54 -315.5 153t-104.5 247zM344 1010q0 -101 154 -146v279q-72 -8 -113 -45t-41 -88zM668 205q73 14 113 53t40 98q0 60 -36.5 95.5t-116.5 70.5v-317z" />
<glyph unicode="%" horiz-adv-x="1511" d="M66 1090q0 92 45 166.5t120.5 117.5t165.5 43t167 -43t122 -118.5t45 -165.5q0 -93 -44 -169.5t-121 -121.5t-169 -45q-90 0 -166.5 45t-120.5 121.5t-44 169.5zM174 -18l977 1435h188l-974 -1435h-191zM256 1087q0 -61 41 -105t100 -44q60 0 101 44t41 105q0 62 -42 104 t-102 42q-57 0 -98 -42t-41 -104zM780 315q0 93 45 168.5t121 118.5t166 43t167 -44t122 -118.5t45 -167.5q0 -90 -44 -166.5t-121 -121.5t-169 -45q-90 0 -167 44t-121 120.5t-44 168.5zM971 313q0 -61 40 -104t101 -43q59 0 100 43t41 104q0 64 -42 106t-101 42t-99 -42 t-40 -106z" />
<glyph unicode="&#x26;" horiz-adv-x="1563" d="M84 328q0 116 70.5 203t242.5 200q-78 80 -116.5 155t-38.5 156q0 88 49 171t147.5 135.5t239.5 52.5q131 0 223 -50.5t138 -127t46 -154.5q0 -205 -264 -358l189 -207q90 86 153 207h293q-47 -101 -118.5 -204.5t-157.5 -187.5l293 -319h-406l-111 121 q-86 -62 -197.5 -100.5t-232.5 -38.5q-135 0 -235.5 47t-153.5 125.5t-53 173.5zM387 358q0 -53 47 -100t133 -47q60 0 112 22.5t114 67.5l-240 260q-84 -53 -125 -102t-41 -101zM545 1071q0 -37 29.5 -84t97.5 -117q162 82 162 191q0 53 -40 90t-108 37q-65 0 -103 -35 t-38 -82z" />
<glyph unicode="'" horiz-adv-x="514" d="M84 1153v244h346v-244l-59 -291h-228z" />
<glyph unicode="(" horiz-adv-x="750" d="M92 465q0 266 121 498.5t360 451.5h220q-195 -217 -284 -445.5t-89 -504.5q0 -277 92 -509t281 -437h-220q-225 190 -353 433t-128 513z" />
<glyph unicode=")" horiz-adv-x="750" d="M-43 -481q197 219 285 446.5t88 503.5t-91.5 507.5t-281.5 438.5h219q240 -213 360.5 -440t120.5 -504q0 -266 -120.5 -501.5t-360.5 -450.5h-219z" />
<glyph unicode="*" horiz-adv-x="1083" d="M80 762q0 29 21.5 47t84.5 33l256 59q-4 10 -4 29q0 22 4 28l-262 64q-59 16 -79.5 33.5t-20.5 44.5q0 33 21.5 71.5t50 66.5t45.5 28q34 0 92 -64l178 -196q25 24 49 26l-76 252q-16 59 -16 82q0 37 26.5 54.5t90.5 17.5q118 0 118 -70q0 -27 -16 -82l-78 -254 q31 -4 51 -26l183 198q28 33 48.5 47.5t39.5 14.5q18 0 46 -28t49.5 -66.5t21.5 -71.5q0 -31 -20.5 -47.5t-78.5 -30.5l-264 -64q4 -12 4 -26q0 -10 -4 -31l252 -55q61 -15 86 -34t25 -50q0 -33 -21.5 -71t-49.5 -65.5t-46 -27.5q-39 0 -94 64l-177 194q-24 -20 -51 -27 l76 -235q16 -66 16 -98q0 -37 -25.5 -55.5t-90.5 -18.5q-117 0 -117 74q0 24 18 94l74 239q-29 7 -49 27l-178 -192q-37 -39 -56.5 -52.5t-37.5 -13.5q-19 0 -46.5 27.5t-48 65.5t-20.5 71z" />
<glyph unicode="+" horiz-adv-x="1190" d="M90 575v256h377v390h256v-390h375v-256h-375v-389h-256v389h-377z" />
<glyph unicode="," horiz-adv-x="567" d="M74 182q0 76 55 131.5t131 55.5q102 0 161.5 -83t59.5 -196q0 -94 -46 -179t-136 -145.5t-219 -80.5v55q70 33 102.5 95.5t32.5 168.5q-70 21 -105.5 66t-35.5 112z" />
<glyph unicode="-" horiz-adv-x="901" d="M145 352v293h609v-293h-609z" />
<glyph unicode="." horiz-adv-x="537" d="M84 164q0 76 54.5 129t129.5 53q76 0 130.5 -54t54.5 -128q0 -72 -54.5 -128t-130.5 -56q-75 0 -129.5 54t-54.5 130z" />
<glyph unicode="/" horiz-adv-x="645" d="M27 -18l374 1433h217l-376 -1433h-215z" />
<glyph unicode="0" d="M66 696q0 234 69.5 395.5t187 242.5t259.5 81q145 0 262 -85t183.5 -246.5t66.5 -385.5q0 -227 -68 -389t-184.5 -244.5t-261.5 -82.5q-148 0 -264.5 84t-183 244.5t-66.5 385.5zM401 696q0 -233 41 -342.5t138 -109.5q88 0 132 105.5t44 342.5q0 230 -42 345.5 t-136 115.5q-82 0 -129.5 -109.5t-47.5 -347.5z" />
<glyph unicode="1" d="M127 1014l489 401h215v-1415h-325v958l-203 -161z" />
<glyph unicode="2" d="M80 0v23q244 247 411.5 474.5t167.5 409.5q0 111 -61 170.5t-147 59.5t-170 -46.5t-162 -136.5v308q114 81 212.5 117t203.5 36q127 0 228 -54t158.5 -151.5t57.5 -224.5q0 -166 -96.5 -329.5t-247.5 -346.5l-27 -33h473v-276h-1001z" />
<glyph unicode="3" d="M143 76v284q76 -61 157 -92.5t157 -31.5q94 0 149.5 48t55.5 130q0 198 -281 198v213q135 0 198.5 48.5t63.5 132.5q0 75 -53 123.5t-141 48.5q-125 0 -271 -86v243q162 80 346 80q203 0 326 -99t123 -274q0 -96 -50.5 -178t-134.5 -131q105 -51 156 -138t51 -202 q0 -135 -67.5 -228t-177 -138t-234.5 -45q-197 0 -373 94z" />
<glyph unicode="4" d="M39 348v213l657 842h232v-836h162v-219h-162v-348h-316v348h-573zM274 567h338v437z" />
<glyph unicode="5" d="M109 100v273q75 -54 177.5 -92.5t178.5 -38.5q104 0 160.5 57t56.5 135q0 101 -80 155t-201 54q-114 0 -196 -35v789h747v-260h-477v-273q70 4 74 4q137 0 242.5 -57t164 -156.5t58.5 -218.5q0 -127 -57.5 -230.5t-167 -163.5t-261.5 -60q-235 0 -419 118z" />
<glyph unicode="6" d="M74 520q0 242 139 468t416 429l276 -125q-270 -211 -377 -420q60 25 131 25q119 0 217.5 -54.5t157 -153.5t58.5 -230q0 -127 -63.5 -236.5t-177.5 -175t-259 -65.5q-162 0 -279.5 71.5t-178 193.5t-60.5 273zM387 473q0 -98 59.5 -157.5t137.5 -59.5q94 0 144 61.5 t50 143.5q0 94 -54 146t-142 52q-86 0 -140.5 -53t-54.5 -133z" />
<glyph unicode="7" d="M94 1124v273h1006v-31l-604 -1384l-277 94l451 1048h-576z" />
<glyph unicode="8" d="M68 379q0 102 55 193.5t160 146.5q-95 65 -133.5 136t-38.5 165t51 185t157.5 150.5t262.5 59.5q155 0 261.5 -58.5t158 -148.5t51.5 -186t-41 -170t-135 -133q102 -55 158.5 -145.5t56.5 -196.5q0 -92 -50.5 -182.5t-165 -151.5t-296.5 -61q-181 0 -295.5 60 t-165.5 150.5t-51 186.5zM377 406q0 -95 58.5 -153t146.5 -58q86 0 143 60t57 153q0 90 -59 149t-145 59q-84 0 -142.5 -60t-58.5 -150zM414 1001q0 -83 50 -138.5t118 -55.5q67 0 116.5 55.5t49.5 136.5q0 80 -44.5 137.5t-119.5 57.5q-82 0 -126 -58.5t-44 -134.5z" />
<glyph unicode="9" d="M68 940q0 127 64.5 235.5t178 174t256.5 65.5q154 0 272.5 -69.5t183 -192.5t64.5 -276q0 -238 -147 -477.5t-408 -419.5l-276 122q266 207 375 424q-60 -20 -133 -20q-68 0 -123 16q-137 35 -222 149.5t-85 268.5zM381 934q0 -86 52 -141.5t134 -55.5q90 0 148.5 50.5 t58.5 136.5q0 92 -55 154.5t-146 62.5q-86 0 -139 -58.5t-53 -148.5z" />
<glyph unicode=":" horiz-adv-x="543" d="M86 164q0 76 55.5 129t128.5 53q76 0 130.5 -54t54.5 -128t-53.5 -129t-131.5 -55q-75 0 -129.5 54t-54.5 130zM86 827q0 76 55.5 130.5t128.5 54.5q76 0 130.5 -55.5t54.5 -129.5q0 -73 -53.5 -128.5t-131.5 -55.5q-75 0 -129.5 54.5t-54.5 129.5z" />
<glyph unicode=";" horiz-adv-x="573" d="M82 182q0 76 54 131.5t130 55.5q105 0 164 -83t59 -196q0 -94 -46 -179t-136 -145.5t-219 -80.5v55q70 33 102.5 95.5t32.5 168.5q-69 21 -105 66t-36 112zM90 827q0 76 54.5 130.5t129.5 54.5q76 0 130.5 -55.5t54.5 -129.5q0 -73 -53.5 -128.5t-131.5 -55.5 q-75 0 -129.5 54.5t-54.5 129.5z" />
<glyph unicode="&#x3c;" horiz-adv-x="1190" d="M90 596v188l1008 459v-278l-645 -277q71 -37 352 -151q55 -25 153.5 -66t139.5 -61v-275z" />
<glyph unicode="=" horiz-adv-x="1190" d="M90 307v256h1008v-256h-1008zM90 840v256h1008v-256h-1008z" />
<glyph unicode="&#x3e;" horiz-adv-x="1190" d="M92 135v275l645 280q-102 53 -403 172q-215 90 -242 103v278l1006 -459v-188z" />
<glyph unicode="?" horiz-adv-x="756" d="M72 1116l92 275q90 24 166 24q153 0 247.5 -81t94.5 -216q0 -94 -46 -174t-137 -166q-71 -73 -107 -144t-36 -130q0 -39 19 -51q-172 14 -172 159q0 54 18 108t59 130q66 119 66 199q0 47 -33 79.5t-98 32.5q-70 0 -133 -45zM127 170q0 78 55.5 133t132.5 55 q76 0 130.5 -55t54.5 -133t-54.5 -133t-132.5 -55q-77 0 -131.5 55t-54.5 133z" />
<glyph unicode="@" horiz-adv-x="1935" d="M66 522q0 248 119.5 454t342 326.5t514.5 120.5q240 0 427.5 -83t294 -236.5t106.5 -355.5q0 -189 -69.5 -329t-201 -215t-309.5 -75q-90 0 -147.5 40t-69.5 110q-74 -78 -147.5 -114t-163.5 -36q-129 0 -201 95t-72 251q0 158 66 285t201 202.5t336 75.5q161 0 323 -47 l-98 -534q-8 -49 -8 -74q0 -29 11 -40t36 -11q135 0 216 119.5t81 298.5q0 225 -160 357t-451 132q-241 0 -412 -91t-259 -254t-88 -372q0 -303 161.5 -479t458.5 -176q197 0 350.5 46t274.5 140l102 -147q-131 -109 -310 -165t-429 -56q-246 0 -432.5 100t-289.5 288.5 t-103 448.5zM745 498q0 -76 31 -121t96 -45q97 0 203 137l64 348q-11 4 -39.5 7t-52.5 3q-140 0 -221 -94t-81 -235z" />
<glyph unicode="A" horiz-adv-x="1589" d="M0 0l608 1399h367l614 -1399h-360l-135 322h-600l-134 -322h-360zM586 547h415l-208 508z" />
<glyph unicode="B" horiz-adv-x="1399" d="M150 0v1397h593q222 0 349 -91.5t127 -246.5q0 -103 -54.5 -184.5t-146.5 -118.5q153 -47 228 -141.5t75 -223.5q0 -215 -151.5 -303t-413.5 -88h-606zM502 217h184q281 0 281 191q0 194 -281 194h-184v-385zM502 817h149q115 0 173.5 44t58.5 140q0 93 -52.5 136 t-164.5 43h-164v-363z" />
<glyph unicode="C" horiz-adv-x="1499" d="M88 698q0 217 100.5 380t278.5 250t401 87q258 0 521 -108v-324q-121 76 -231.5 113t-229.5 37q-152 0 -260.5 -60.5t-163.5 -161t-55 -219.5q0 -117 56 -215t162.5 -155.5t252.5 -57.5q245 0 477 154v-314q-228 -122 -535 -122q-237 0 -412.5 94t-268.5 257t-93 365z " />
<glyph unicode="D" horiz-adv-x="1620" d="M150 0v1397h589q254 0 433.5 -88t269.5 -246t90 -361q0 -333 -198.5 -517.5t-573.5 -184.5h-610zM502 256h223q223 0 334.5 111.5t111.5 328.5q0 215 -118.5 333t-339.5 118h-211v-891z" />
<glyph unicode="E" horiz-adv-x="1229" d="M150 0v1397h956v-250h-604v-307h577v-250h-577v-340h620v-250h-972z" />
<glyph unicode="F" d="M150 0v1397h917v-250h-565v-305h565v-252h-565v-590h-352z" />
<glyph unicode="G" horiz-adv-x="1597" d="M88 694q0 197 91 361t270.5 262t429.5 98q145 0 267 -23.5t275 -82.5v-291q-112 65 -227 96t-244 31q-170 0 -282.5 -66.5t-165.5 -170t-53 -214.5q0 -121 57 -220t163.5 -156.5t250.5 -57.5q59 0 103 6t110 27v203h-213v249h528v-647q-152 -61 -293 -88.5t-291 -27.5 q-235 0 -411.5 91t-270.5 252.5t-94 368.5z" />
<glyph unicode="H" horiz-adv-x="1679" d="M150 0v1397h352v-541h676v541h352v-1397h-352v563h-676v-563h-352z" />
<glyph unicode="I" horiz-adv-x="651" d="M150 0v1397h352v-1397h-352z" />
<glyph unicode="J" horiz-adv-x="672" d="M-100 -152q127 0 181 20.5t71.5 81t17.5 197.5v1250h352v-1284q0 -181 -34.5 -303.5t-132 -194.5t-275.5 -72q-55 0 -125 13z" />
<glyph unicode="K" horiz-adv-x="1520" d="M150 0v1397h352v-643l528 643h393l-544 -656l647 -741h-439l-585 678v-678h-352z" />
<glyph unicode="L" horiz-adv-x="1190" d="M150 0v1397h352v-1108h633v-289h-985z" />
<glyph unicode="M" horiz-adv-x="1817" d="M150 0v1397h321l438 -539l439 539h319v-1397h-352v893l-393 -490h-33l-395 490v-893h-344z" />
<glyph unicode="N" horiz-adv-x="1741" d="M150 0v1397h309l784 -871v871h348v-1397h-313l-782 868v-868h-346z" />
<glyph unicode="O" horiz-adv-x="1726" d="M88 696q0 185 84 348.5t259 267t435 103.5q236 0 411 -94t268 -258t93 -365q0 -198 -92 -361t-268 -259t-418 -96q-244 0 -418 97t-264 260t-90 357zM449 696q0 -118 52 -211.5t146 -144.5t213 -51q187 0 302.5 110.5t115.5 300.5q0 111 -49 204t-143.5 148.5 t-223.5 55.5q-125 0 -219 -52t-144 -145.5t-50 -214.5z" />
<glyph unicode="P" horiz-adv-x="1311" d="M150 0v1397h589q242 0 378 -111.5t136 -314.5q0 -119 -55 -214t-166.5 -151.5t-275.5 -56.5h-254v-549h-352zM502 788h176q215 0 215 183q0 98 -54.5 142t-174.5 44h-162v-369z" />
<glyph unicode="Q" horiz-adv-x="1726" d="M88 696q0 191 87 354.5t263 264t428 100.5q242 0 417 -97t265 -260t90 -358q0 -235 -128 -415.5t-353 -253.5q248 -121 438 -121q35 0 66 8l8 -16l-262 -246q-223 39 -468 149.5t-396 229.5q-221 84 -338 261t-117 400zM449 696q0 -118 51 -210.5t145 -144.5t217 -52 q125 0 219.5 51t145.5 144.5t51 213.5q0 115 -48 208t-143.5 147.5t-226.5 54.5q-127 0 -220 -53.5t-142 -146.5t-49 -212z" />
<glyph unicode="R" horiz-adv-x="1423" d="M150 0v1397h581q240 0 370 -116t130 -306q0 -117 -57.5 -206t-172.5 -140q66 -37 114 -96.5t114 -180.5l182 -352h-385l-162 315q-53 107 -97 159t-89 70.5t-113 18.5h-63v-563h-352zM502 791h147q109 0 166 39.5t57 140.5q0 186 -217 186h-153v-366z" />
<glyph unicode="S" horiz-adv-x="1141" d="M98 1028q0 109 55.5 197t162 139t255.5 51q117 0 227.5 -29.5t194.5 -80.5v-299q-198 155 -387 155q-82 0 -124 -33.5t-42 -89.5q0 -51 43 -92t168 -104q140 -72 220.5 -128.5t130 -135t49.5 -191.5q0 -121 -61.5 -213t-173 -142t-253.5 -50q-225 0 -454 116v316 q210 -168 409 -168q88 0 134 36.5t46 90.5q0 39 -17 67.5t-70.5 66.5t-164.5 91q-102 53 -173.5 103.5t-123 132t-51.5 194.5z" />
<glyph unicode="T" horiz-adv-x="1425" d="M37 1106v291h1352v-291h-502v-1106h-352v1106h-498z" />
<glyph unicode="U" horiz-adv-x="1655" d="M135 621v776h352v-758q0 -174 87.5 -266t254.5 -92q164 0 251 87t87 267v762h353v-770q0 -310 -181.5 -477.5t-509.5 -167.5q-333 0 -513.5 168.5t-180.5 470.5z" />
<glyph unicode="V" horiz-adv-x="1430" d="M0 1397h365l348 -860l352 860h365l-615 -1411h-207z" />
<glyph unicode="W" horiz-adv-x="2320" d="M0 1397h362l318 -832l348 832h266l342 -832l326 832h358l-589 -1411h-181l-391 917l-395 -917h-184z" />
<glyph unicode="X" horiz-adv-x="1659" d="M8 0l592 725l-559 672h446l70 -86q141 -176 264 -334q105 145 330 420h438l-542 -672l604 -725h-449l-381 463q-88 -117 -370 -463h-443z" />
<glyph unicode="Y" horiz-adv-x="1430" d="M0 1397h377l334 -453l338 453h381l-535 -727v-670h-352v664z" />
<glyph unicode="Z" horiz-adv-x="1438" d="M31 0l770 1108h-713v289h1305l-768 -1108h768v-289h-1362z" />
<glyph unicode="[" horiz-adv-x="846" d="M168 -463v1860h637v-215h-340v-1430h340v-215h-637z" />
<glyph unicode="\" horiz-adv-x="645" d="M27 1415h215l376 -1433h-217z" />
<glyph unicode="]" horiz-adv-x="846" d="M43 -248h338v1430h-338v215h635v-1860h-635v215z" />
<glyph unicode="^" horiz-adv-x="1190" d="M68 662l436 735h178l440 -735h-272l-256 452l-254 -452h-272z" />
<glyph unicode="_" horiz-adv-x="1024" d="M-12 -137h1048v-189h-1048v189z" />
<glyph unicode="`" horiz-adv-x="682" d="M31 1460h340l161 -336h-174z" />
<glyph unicode="a" horiz-adv-x="1077" d="M68 231q0 99 58 163.5t169 111.5t334 119v22q0 84 -41 118t-121 34q-98 0 -193.5 -46t-175.5 -132v256q170 135 426 135q199 0 305.5 -83t106.5 -231v-409q0 -39 9 -61.5t36 -22.5q35 0 92 35v-189q-80 -37 -143.5 -53t-126.5 -16q-66 0 -106 25.5t-54 78.5 q-121 -104 -293 -104q-133 0 -207.5 68.5t-74.5 180.5zM371 270q0 -51 30.5 -81.5t77.5 -30.5q66 0 150 71v252q-99 -41 -149 -66.5t-79.5 -60.5t-29.5 -84z" />
<glyph unicode="b" horiz-adv-x="1225" d="M119 68v1329h307v-465q51 41 120.5 60.5t145.5 19.5q152 0 255.5 -73t153.5 -190.5t50 -252.5q0 -260 -154.5 -387t-408.5 -127q-121 0 -231.5 22.5t-237.5 63.5zM426 240q68 -25 158 -25q100 0 173.5 63.5t73.5 215.5q0 129 -60 206.5t-159 77.5q-43 0 -91 -18.5 t-95 -54.5v-465z" />
<glyph unicode="c" horiz-adv-x="999" d="M72 496q0 118 52 237t173 199t311 80q82 0 152.5 -13.5t157.5 -46.5v-260q-136 68 -269 68q-110 0 -183 -72t-73 -188q0 -115 73 -189.5t193 -74.5q115 0 277 61v-254q-88 -33 -163 -47t-159 -14q-198 0 -320 82.5t-172 200.5t-50 231z" />
<glyph unicode="d" horiz-adv-x="1225" d="M72 510q0 137 56 250.5t164.5 182.5t256.5 69q145 0 252 -66v451h305v-1397h-451q-313 0 -448 132t-135 378zM393 512q0 -147 66.5 -210.5t226.5 -63.5h115v485q-80 55 -183 55q-100 0 -162.5 -72.5t-62.5 -193.5z" />
<glyph unicode="e" horiz-adv-x="1149" d="M72 502q0 151 64.5 267t186 179.5t285.5 63.5q133 0 240.5 -59.5t171 -177.5t63.5 -286v-57h-696q16 -106 97 -170.5t194 -64.5q184 0 381 104v-211q-187 -108 -441 -108q-163 0 -287 64.5t-191.5 182t-67.5 273.5zM381 588h412q-2 102 -54.5 161.5t-144.5 59.5 t-151.5 -61.5t-61.5 -159.5z" />
<glyph unicode="f" horiz-adv-x="688" d="M16 735v219h154v31q0 201 105.5 315.5t297.5 114.5q82 0 166 -18v-234q-65 19 -123 19q-139 0 -139 -181v-47h176v-219h-176v-735h-307v735h-154z" />
<glyph unicode="g" horiz-adv-x="1069" d="M35 -211q0 84 57.5 146.5t181.5 82.5q-41 17 -65.5 51.5t-24.5 73.5q0 58 40 103t114 61q-123 37 -190.5 121t-67.5 195q0 176 126 273t351 97h498v-194h-181q95 -80 95 -203q0 -133 -99.5 -221t-269.5 -101q-139 -14 -139 -73q0 -37 46 -52.5t173 -29.5 q346 -39 346 -287q0 -151 -128 -232t-368 -81q-241 0 -368 72.5t-127 197.5zM303 -195q0 -120 238 -120q110 0 171.5 31.5t61.5 90.5q0 58 -64.5 88.5t-179.5 30.5q-110 0 -168.5 -28.5t-58.5 -92.5zM348 618q0 -71 49 -117t123 -46q80 0 130 48t50 120q0 71 -51 120.5 t-123 49.5q-80 0 -129 -54.5t-49 -120.5z" />
<glyph unicode="h" horiz-adv-x="1221" d="M119 0v1397h307v-543q72 82 154 120t182 38q182 0 266 -106.5t84 -293.5v-612h-307v569q0 99 -40 150t-116 51q-61 0 -114.5 -36t-108.5 -116v-618h-307z" />
<glyph unicode="i" horiz-adv-x="545" d="M119 0v993h307v-993h-307zM133 1243q0 57 40 98t99 41q58 0 98 -41t40 -98t-40 -98t-98 -41q-57 0 -98 41t-41 98z" />
<glyph unicode="j" horiz-adv-x="545" d="M-29 -248q82 27 115 77t33 157v1007h307v-1059q0 -182 -88 -286.5t-242 -128.5zM133 1243q0 55 40 97t97 42q60 0 100 -41t40 -98q0 -59 -40 -99t-100 -40q-57 0 -97 42t-40 97z" />
<glyph unicode="k" horiz-adv-x="1223" d="M119 0v1397h309v-1397h-309zM434 514l383 479h367l-383 -469l442 -524h-393z" />
<glyph unicode="l" horiz-adv-x="545" d="M119 0v1397h307v-1397h-307z" />
<glyph unicode="m" horiz-adv-x="1896" d="M119 0v993h305v-139q80 82 156.5 120t177.5 38q112 0 194 -49.5t121 -141.5q90 103 176 147t191 44q172 0 260 -103.5t88 -296.5v-612h-305v557q0 102 -40 157.5t-120 55.5q-57 0 -112.5 -38t-104.5 -109v-623h-305v553q0 111 -39 164t-121 53q-55 0 -106.5 -31.5 t-110.5 -115.5v-623h-305z" />
<glyph unicode="n" horiz-adv-x="1221" d="M119 0v993h307v-137q139 156 336 156q180 0 265 -108.5t85 -297.5v-606h-307v561q0 209 -160 209q-61 0 -114.5 -37t-104.5 -115v-618h-307z" />
<glyph unicode="o" horiz-adv-x="1255" d="M72 496q0 149 65.5 266t191.5 183.5t300 66.5q172 0 297 -65.5t191.5 -182.5t66.5 -266q0 -156 -70 -272.5t-196.5 -180t-290.5 -63.5q-176 0 -301 68.5t-189.5 185t-64.5 260.5zM393 498q0 -129 63.5 -204t172.5 -75q108 0 171.5 76t63.5 203q0 131 -65.5 203.5 t-173.5 72.5q-107 0 -169.5 -73.5t-62.5 -202.5z" />
<glyph unicode="p" horiz-adv-x="1227" d="M119 -469v1462h444q275 0 432.5 -107.5t157.5 -396.5q0 -133 -54.5 -249.5t-163 -187t-261.5 -70.5q-72 0 -127 14t-121 53v-518h-307zM426 276q39 -28 87 -42.5t93 -14.5q101 0 164.5 73t63.5 187q0 135 -72 207t-195 72h-141v-482z" />
<glyph unicode="q" horiz-adv-x="1225" d="M72 475q0 250 139 384t430 134h465v-1462h-307v516q-56 -35 -115 -50t-135 -15q-146 0 -254.5 67.5t-165.5 180t-57 245.5zM393 477q0 -123 59.5 -191.5t170.5 -68.5q41 0 89 12.5t87 40.5v488h-129q-135 0 -206 -66.5t-71 -214.5z" />
<glyph unicode="r" horiz-adv-x="944" d="M115 0v993h307v-235q57 119 137 186.5t170 67.5q53 0 103.5 -19.5t111.5 -64.5l-123 -301q-86 82 -168 82q-164 0 -231 -252v-457h-307z" />
<glyph unicode="s" horiz-adv-x="930" d="M92 725q0 78 45 143.5t131 104.5t201 39q86 0 172 -20.5t158 -59.5v-232q-88 56 -156 79.5t-131 23.5q-55 0 -83 -19.5t-28 -48.5q0 -22 11.5 -38.5t49.5 -40t120 -60.5q137 -61 202.5 -134t65.5 -179q0 -131 -99.5 -216t-281.5 -85q-88 0 -172 17t-195 64v240 q172 -113 301 -113q66 0 102 20.5t36 51.5q0 27 -15.5 48.5t-55.5 45t-124 64.5q-135 63 -194.5 137t-59.5 168z" />
<glyph unicode="t" horiz-adv-x="885" d="M16 772v51l439 443h30v-273h328v-221h-328v-373q0 -84 30 -125t110 -41q96 0 221 70v-248q-64 -32 -151 -52.5t-160 -20.5q-185 0 -271 93t-86 275v422h-162z" />
<glyph unicode="u" horiz-adv-x="1221" d="M109 399v594h307v-559q0 -211 159 -211q123 0 220 152v618h307v-993h-307v137q-74 -80 -156 -117.5t-180 -37.5q-350 0 -350 417z" />
<glyph unicode="v" horiz-adv-x="1092" d="M0 993h330l223 -544l235 544h304l-447 -999h-203z" />
<glyph unicode="w" horiz-adv-x="1645" d="M0 993h313l203 -528l209 528h201l211 -528l198 528h310l-402 -999h-176l-242 586l-237 -586h-176z" />
<glyph unicode="x" horiz-adv-x="1188" d="M6 993h379l213 -288l213 288h344l-383 -477l410 -516h-381l-226 303l-219 -303h-344l391 494z" />
<glyph unicode="y" horiz-adv-x="1102" d="M6 993h334l221 -512l236 512h305l-680 -1462h-313l290 621z" />
<glyph unicode="z" horiz-adv-x="1047" d="M29 0v25l483 731h-451v237h945v-24l-486 -731h479v-238h-970z" />
<glyph unicode="{" horiz-adv-x="756" d="M53 362v242q119 6 165 72.5t46 206.5v135q0 170 35 252t134 114.5t306 32.5v-237q-86 0 -126 -16.5t-53 -58.5t-13 -130v-152q0 -133 -40 -212t-149 -128q95 -39 142 -125t47 -211v-159q0 -84 14 -126t54 -59.5t124 -17.5v-238q-190 0 -291.5 32t-142.5 108.5t-41 220.5 v168q0 147 -46 213.5t-165 72.5z" />
<glyph unicode="|" horiz-adv-x="578" d="M178 -481v1890h221v-1890h-221z" />
<glyph unicode="}" horiz-adv-x="756" d="M18 -215q84 0 124 17.5t54.5 59.5t14.5 126v159q0 259 188 336q-108 47 -148 127t-40 213v152q0 88 -14.5 130t-53.5 58.5t-125 16.5v237q207 0 305.5 -32.5t134.5 -115.5t36 -251v-135q0 -140 45 -206.5t163 -72.5v-242q-118 -6 -163 -72.5t-45 -213.5v-168 q0 -144 -42 -220.5t-142.5 -108.5t-291.5 -32v238z" />
<glyph unicode="~" horiz-adv-x="1190" d="M90 518v270q74 72 143.5 107t147.5 35q55 0 107.5 -20.5t129.5 -63.5q70 -37 117 -56.5t94 -19.5q62 0 124.5 38t146.5 126v-268q-148 -144 -285 -144q-57 0 -114.5 22.5t-129.5 63.5q-75 39 -118 56.5t-84 17.5q-131 0 -279 -164z" />
<glyph unicode="&#xa1;" horiz-adv-x="600" d="M111 823q0 78 54 133.5t132 55.5t134 -55.5t56 -133.5t-55 -133t-135 -55q-78 0 -132 55t-54 133zM115 -164q0 129 35.5 323.5t72.5 299.5q17 45 33 60.5t41 15.5q27 0 42 -16.5t32 -59.5q30 -97 71 -294.5t41 -324.5q0 -309 -186 -309q-84 0 -133 75t-49 230z" />
<glyph unicode="&#xa2;" d="M125 496q0 118 52 237t172 199t310 80q72 0 127 -8l103 319h112l-108 -344l78 -27v-260q-72 37 -152 53l-160 -503q25 -6 52 -6q116 0 276 61v-254q-88 -33 -161.5 -47t-159.5 -14q-33 0 -86 8l-117 -377h-115l127 397q-129 37 -207 119t-110.5 179.5t-32.5 187.5z M444 500q0 -74 30 -131.5t83 -92.5l154 484h-17q-106 0 -178 -73t-72 -187z" />
<glyph unicode="&#xa3;" d="M84 -18l158 612h-138v201h191q104 301 234 460.5t337 159.5q54 0 101 -14l137 -283q-74 31 -154 31q-108 0 -181 -76t-138 -278h164v-201h-228l-82 -318q62 15 109 15q49 0 92 -6t78 -13q82 -16 135 -16q49 0 84 8t74 31v-283q-47 -16 -85 -23t-98 -7q-65 0 -119.5 6 t-99.5 12q-110 16 -188 16q-184 0 -383 -34z" />
<glyph unicode="&#xa4;" horiz-adv-x="1130" d="M29 322l139 139q-31 47 -48.5 111.5t-17.5 121.5q0 60 17.5 123.5t48.5 110.5l-139 141l164 166l139 -141q47 30 111.5 47.5t121.5 17.5q66 0 128.5 -17.5t105.5 -47.5l139 141l164 -166l-139 -141q30 -49 47.5 -112.5t17.5 -123.5q0 -129 -65 -231l139 -139l-164 -168 l-137 139q-51 -29 -114.5 -46.5t-121.5 -17.5q-125 0 -233 66l-139 -141zM336 694q0 -96 66.5 -162.5t162.5 -66.5q97 0 163.5 67.5t66.5 161.5q0 99 -68 165.5t-164 66.5q-94 0 -160.5 -67.5t-66.5 -164.5z" />
<glyph unicode="&#xa5;" d="M4 1397h348l221 -447l228 447h354l-352 -621h303v-172h-365v-164h365v-172h-365v-268h-323v268h-367v172h367v164h-367v172h301z" />
<glyph unicode="&#xa6;" horiz-adv-x="578" d="M180 319h219v-800h-219v800zM180 606v803h219v-803h-219z" />
<glyph unicode="&#xa7;" horiz-adv-x="1098" d="M61 557q0 90 47.5 168t141.5 156q-47 47 -66.5 104t-19.5 131q0 123 100.5 211t321.5 88q82 0 168 -19.5t139 -45.5v-248q-59 43 -139 65.5t-148 22.5q-59 0 -98 -18.5t-39 -61.5q0 -47 42 -89t157 -122q198 -123 283 -228.5t85 -260.5q0 -211 -192 -336 q43 -56 61.5 -113t18.5 -129q0 -141 -111 -227t-311 -86q-176 0 -316 88v262q150 -125 293 -125q72 0 105.5 20.5t33.5 53.5q0 37 -15 65.5t-59 69.5t-136 108q-183 129 -265 238t-82 258zM328 629q0 -64 29.5 -115t105.5 -116.5t239 -188.5q31 27 49.5 62.5t18.5 68.5 q0 61 -24.5 111.5t-105.5 120t-247 178.5q-37 -31 -51 -57.5t-14 -63.5z" />
<glyph unicode="&#xa8;" horiz-adv-x="682" d="M-16 1286q0 57 42 98t99 41t98 -41t41 -98q0 -59 -41 -100t-98 -41t-99 42t-42 99zM418 1286q0 55 42 97t99 42t98 -42t41 -97q0 -59 -41 -100t-98 -41t-99 42t-42 99z" />
<glyph unicode="&#xa9;" horiz-adv-x="1630" d="M84 715q0 196 97.5 364t265 268.5t370.5 100.5q197 0 365 -98.5t267 -266.5t99 -368q0 -197 -96 -365t-264 -267t-371 -99q-194 0 -363 96t-269.5 264t-100.5 371zM184 715q0 -174 86 -319.5t231.5 -229.5t315.5 -84q174 0 318.5 86t228.5 232.5t84 316.5 q0 172 -85 317.5t-229.5 230.5t-314.5 85q-174 0 -319.5 -85t-230.5 -231.5t-85 -318.5zM406 707q0 114 50 211.5t152.5 158t249.5 60.5q135 0 264 -47v-191q-114 55 -217 55q-125 0 -195.5 -67.5t-70.5 -175.5q0 -111 73.5 -177.5t196.5 -66.5q49 0 99.5 12.5t119.5 42.5 v-186q-81 -29 -138.5 -41t-125.5 -12q-219 0 -338.5 116.5t-119.5 307.5z" />
<glyph unicode="&#xaa;" horiz-adv-x="725" d="M43 936q0 117 115 168q57 26 254 74q0 86 -97 86q-125 0 -252 -119v184q70 43 138.5 64.5t154.5 21.5q138 -4 203.5 -51t69.5 -162v-239q0 -25 4 -33t18 -8q13 0 68 26v-125q-55 -26 -91 -36.5t-79 -10.5q-45 0 -69.5 13.5t-53.5 41.5q-86 -55 -195 -55q-86 0 -137 45 t-51 115zM264 961q0 -27 15.5 -41.5t42.5 -14.5q40 0 90 37v127l-37 -10q-47 -17 -79 -42.5t-32 -55.5z" />
<glyph unicode="&#xab;" horiz-adv-x="1214" d="M39 489l311 486h287l-311 -486l311 -489h-287zM569 489l312 486h286l-309 -486l309 -489h-286z" />
<glyph unicode="&#xac;" horiz-adv-x="1190" d="M88 784v256h999v-669h-262v413h-737z" />
<glyph unicode="&#xad;" horiz-adv-x="901" d="M145 352v293h609v-293h-609z" />
<glyph unicode="&#xae;" horiz-adv-x="1630" d="M84 715q0 196 97.5 364t265 268.5t370.5 100.5q197 0 365 -98.5t267 -266.5t99 -368q0 -197 -96 -365t-264 -267t-371 -99q-194 0 -363 96t-269.5 264t-100.5 371zM184 715q0 -174 86 -319.5t231.5 -229.5t315.5 -84q174 0 318.5 86t228.5 232.5t84 316.5 q0 172 -85 317.5t-229.5 230.5t-314.5 85q-174 0 -319.5 -85t-230.5 -231.5t-85 -318.5zM473 311v815h395q129 0 205 -61t76 -164q0 -88 -62.5 -149.5t-164.5 -73.5q51 -19 84.5 -51.5t68.5 -91.5l142 -224h-244l-101 187q-38 75 -67 97.5t-82 22.5h-41v-307h-209zM682 762 h94q66 0 106 28.5t40 83.5q0 56 -37 82.5t-105 26.5h-98v-221z" />
<glyph unicode="&#xaf;" horiz-adv-x="1024" d="M-12 1554v189h1048v-189h-1048z" />
<glyph unicode="&#xb0;" horiz-adv-x="815" d="M125 1133q0 75 38 140.5t103.5 103.5t141.5 38q75 0 140.5 -38t103.5 -103.5t38 -140.5q0 -78 -38 -143.5t-102.5 -104.5t-141.5 -39q-78 0 -142.5 38t-102.5 103.5t-38 145.5zM285 1130q0 -51 35.5 -85.5t87.5 -34.5q49 0 84.5 34.5t35.5 85.5q0 52 -35.5 86.5 t-84.5 34.5q-52 0 -87.5 -34.5t-35.5 -86.5z" />
<glyph unicode="&#xb1;" horiz-adv-x="1190" d="M90 0v256h1008v-256h-1008zM90 729v256h377v344h256v-344h375v-256h-375v-348h-256v348h-377z" />
<glyph unicode="&#xb2;" horiz-adv-x="707" d="M45 1020v29q51 45 176 170q86 90 127 150.5t41 117.5q0 45 -30.5 72.5t-82.5 27.5q-104 0 -206 -106v190q71 43 130.5 60.5t125.5 17.5q125 0 199.5 -62.5t74.5 -164.5q0 -68 -42 -141.5t-159 -198.5h263v-162h-617z" />
<glyph unicode="&#xb3;" horiz-adv-x="707" d="M82 1061v172q55 -37 102 -55.5t97 -18.5q49 0 79.5 21.5t30.5 56.5q0 43 -40 65.5t-128 24.5v129h15q75 0 108 18.5t33 57.5q0 31 -28.5 53.5t-78.5 22.5q-77 0 -168 -53v151q121 43 215 43q130 0 203.5 -58.5t73.5 -140.5q0 -90 -94 -153q108 -58 108 -172 q0 -96 -79.5 -155.5t-204.5 -59.5q-60 0 -125.5 14t-118.5 37z" />
<glyph unicode="&#xb4;" horiz-adv-x="682" d="M178 1124l162 336h338l-326 -336h-174z" />
<glyph unicode="&#xb5;" horiz-adv-x="1231" d="M119 -473v1462h305v-633q29 -65 74 -98t94 -33q84 0 133 46t49 141v577h305v-698q0 -47 14.5 -66.5t45.5 -19.5q30 0 65 20v-198q-37 -23 -90 -34t-96 -11q-156 0 -203 131q-72 -131 -201 -131q-63 0 -107 30.5t-83 96.5v-582h-305z" />
<glyph unicode="&#xb6;" horiz-adv-x="1339" d="M47 981q0 197 127 309.5t354 112.5h764v-254h-129v-1626h-237v1626h-176v-1626h-238v1042q-219 10 -342 115.5t-123 300.5z" />
<glyph unicode="&#xb7;" horiz-adv-x="537" d="M84 707q0 75 54.5 129.5t129.5 54.5q76 0 130.5 -55.5t54.5 -128.5q0 -72 -54.5 -128.5t-130.5 -56.5q-75 0 -129.5 54.5t-54.5 130.5z" />
<glyph unicode="&#xb8;" horiz-adv-x="682" d="M80 -285q43 -6 78 -6q59 0 92 19.5t33 56.5q0 29 -19.5 46t-54.5 17l-39 -2l92 172h156l-41 -77q190 -15 190 -168q0 -95 -87 -145t-261 -50q-104 0 -139 6v131z" />
<glyph unicode="&#xb9;" horiz-adv-x="707" d="M78 1503l293 242h139v-725h-205v446l-123 -96z" />
<glyph unicode="&#xba;" horiz-adv-x="827" d="M49 1096q0 141 99.5 230t261.5 89q108 0 192 -42t130 -114.5t46 -162.5q0 -142 -102.5 -231t-265.5 -89q-164 0 -262.5 88t-98.5 232zM281 1096q0 -76 33.5 -115t97.5 -39q63 0 99 40t36 114q0 75 -36 114t-99 39q-64 0 -97.5 -37.5t-33.5 -115.5z" />
<glyph unicode="&#xbb;" horiz-adv-x="1214" d="M45 0l311 489l-311 486h287l313 -486l-313 -489h-287zM575 0l312 489l-312 486h287l312 -486l-312 -489h-287z" />
<glyph unicode="&#xbc;" horiz-adv-x="1647" d="M78 1165l293 242h139v-725h-205v446l-123 -96zM260 -51l942 1466h186l-942 -1466h-186zM965 174v123l395 426h151v-416h95v-133h-95v-174h-198v174h-348zM1141 307h172v187z" />
<glyph unicode="&#xbd;" horiz-adv-x="1647" d="M78 1165l293 242h139v-725h-205v446l-123 -96zM213 -51l942 1466h186l-942 -1466h-186zM985 0v29q35 28 80 73t59 60l37 37q88 94 128 152.5t40 115.5q0 45 -30.5 72.5t-82.5 27.5q-104 0 -206 -106v188q71 45 130.5 63.5t125.5 18.5q125 0 199.5 -62.5t74.5 -164.5 q0 -70 -42 -144.5t-159 -195.5h263v-164h-617z" />
<glyph unicode="&#xbe;" horiz-adv-x="1647" d="M82 723v172q55 -37 102 -55.5t97 -18.5q49 0 79.5 21.5t30.5 56.5q0 43 -40 65.5t-128 24.5v129h15q75 0 108 18.5t33 57.5q0 31 -28.5 53.5t-78.5 22.5q-77 0 -168 -53v151q121 43 215 43q130 0 203.5 -58.5t73.5 -140.5q0 -90 -94 -153q108 -58 108 -172 q0 -96 -79.5 -155.5t-204.5 -59.5q-60 0 -125.5 14t-118.5 37zM266 -51l942 1466h186l-942 -1466h-186zM965 174v123l395 426h151v-416h95v-133h-95v-174h-198v174h-348zM1141 307h172v187z" />
<glyph unicode="&#xbf;" horiz-adv-x="756" d="M72 -119q0 92 46 173t134 169q143 150 143 275q0 34 -16 51q170 -14 170 -162q0 -53 -19.5 -108.5t-58.5 -128.5q-63 -115 -63 -197q0 -47 31.5 -80t97.5 -33q69 0 133 43l-92 -272q-78 -25 -166 -25q-154 0 -247 80t-93 215zM242 823q0 78 54 133.5t132 55.5t133 -55.5 t55 -133.5t-56 -133t-132 -55q-78 0 -132 55t-54 133z" />
<glyph unicode="&#xc0;" horiz-adv-x="1589" d="M0 0l608 1399h367l614 -1399h-360l-135 322h-600l-134 -322h-360zM428 1845h367l195 -336h-189zM586 547h415l-208 508z" />
<glyph unicode="&#xc1;" horiz-adv-x="1589" d="M0 0l608 1399h367l614 -1399h-360l-135 322h-600l-134 -322h-360zM586 547h415l-208 508zM600 1509l195 336h367l-373 -336h-189z" />
<glyph unicode="&#xc2;" horiz-adv-x="1589" d="M0 0l608 1399h367l614 -1399h-360l-135 322h-600l-134 -322h-360zM406 1509l201 336h372l205 -336h-190l-201 185l-201 -185h-186zM586 547h415l-208 508z" />
<glyph unicode="&#xc3;" horiz-adv-x="1589" d="M0 0l608 1399h367l614 -1399h-360l-135 322h-600l-134 -322h-360zM420 1505q0 97 32 163.5t83 100t104 33.5q37 0 77 -12t118 -39q88 -35 115 -35q69 0 75 86h144q-2 -139 -61.5 -218t-159.5 -79q-62 0 -181 49q-92 35 -123 35q-67 0 -79 -84h-144zM586 547h415l-208 508 z" />
<glyph unicode="&#xc4;" horiz-adv-x="1589" d="M0 0l608 1399h367l614 -1399h-360l-135 322h-600l-134 -322h-360zM437 1679q0 58 42 100t99 42t98 -42t41 -100q0 -57 -41 -99t-98 -42t-99 42t-42 99zM586 547h415l-208 508zM871 1679q0 58 42 100t99 42t98 -42t41 -100q0 -57 -41 -99t-98 -42t-99 42t-42 99z" />
<glyph unicode="&#xc5;" horiz-adv-x="1589" d="M0 0l608 1399h367l614 -1399h-360l-135 322h-600l-134 -322h-360zM584 1506q0 86 60.5 147.5t146.5 61.5t148.5 -62.5t62.5 -146.5q0 -86 -62.5 -147.5t-148.5 -61.5t-146.5 61.5t-60.5 147.5zM586 547h415l-208 508zM684 1506q0 -45 31 -76t76 -31t77 31t32 76t-32 76.5 t-77 31.5t-76 -31.5t-31 -76.5z" />
<glyph unicode="&#xc6;" horiz-adv-x="2126" d="M-20 0l862 1397h1163v-250h-596v-305h565v-252h-565v-340h612v-250h-964v549h-393l-322 -549h-362zM795 772h262v447z" />
<glyph unicode="&#xc7;" horiz-adv-x="1499" d="M88 698q0 217 100.5 380t278.5 250t401 87q258 0 521 -108v-324q-121 76 -231.5 111.5t-229.5 35.5q-152 0 -260.5 -59t-163.5 -159.5t-55 -219.5q0 -117 56 -215t162.5 -155.5t252.5 -57.5q245 0 477 154v-314q-209 -112 -498 -122l-18 -41q188 -15 188 -168 q0 -95 -86 -145t-262 -50q-107 0 -139 6v131q43 -6 77 -6q60 0 92.5 19.5t32.5 56.5q0 29 -19.5 46t-53.5 17l-39 -2l76 142q-205 20 -353.5 118.5t-227.5 252t-79 339.5z" />
<glyph unicode="&#xc8;" horiz-adv-x="1229" d="M150 0v1397h956v-250h-604v-307h577v-250h-577v-340h620v-250h-972zM264 1845h367l195 -336h-189z" />
<glyph unicode="&#xc9;" horiz-adv-x="1229" d="M150 0v1397h956v-250h-604v-307h577v-250h-577v-340h620v-250h-972zM450 1509l195 336h367l-373 -336h-189z" />
<glyph unicode="&#xca;" horiz-adv-x="1229" d="M150 0v1397h956v-250h-604v-307h577v-250h-577v-340h620v-250h-972zM242 1509l201 336h372l205 -336h-190l-201 185l-201 -185h-186z" />
<glyph unicode="&#xcb;" horiz-adv-x="1229" d="M150 0v1397h956v-250h-604v-307h577v-250h-577v-340h620v-250h-972zM273 1679q0 58 42 100t99 42t98 -42t41 -100q0 -57 -41 -99t-98 -42t-99 42t-42 99zM707 1679q0 58 42 100t99 42t98 -42t41 -100q0 -57 -41 -99t-98 -42t-99 42t-42 99z" />
<glyph unicode="&#xcc;" horiz-adv-x="651" d="M-38 1845h367l195 -336h-189zM150 0v1397h352v-1397h-352z" />
<glyph unicode="&#xcd;" horiz-adv-x="651" d="M134 1509l195 336h367l-373 -336h-189zM150 0v1397h352v-1397h-352z" />
<glyph unicode="&#xce;" horiz-adv-x="651" d="M-60 1509l201 336h372l205 -336h-190l-201 185l-201 -185h-186zM150 0v1397h352v-1397h-352z" />
<glyph unicode="&#xcf;" horiz-adv-x="651" d="M-29 1679q0 58 42 100t99 42t98 -42t41 -100q0 -57 -41 -99t-98 -42t-99 42t-42 99zM150 0v1397h352v-1397h-352zM405 1679q0 58 42 100t99 42t98 -42t41 -100q0 -57 -41 -99t-98 -42t-99 42t-42 99z" />
<glyph unicode="&#xd0;" horiz-adv-x="1620" d="M0 602v193h150v602h589q254 0 433.5 -88t269.5 -246t90 -361q0 -333 -198.5 -517.5t-573.5 -184.5h-610v602h-150zM502 256h223q223 0 334.5 111.5t111.5 328.5q0 215 -118.5 333t-339.5 118h-211v-352h319v-193h-319v-346z" />
<glyph unicode="&#xd1;" horiz-adv-x="1741" d="M150 0v1397h309l784 -871v871h348v-1397h-313l-782 868v-868h-346zM493 1505q0 97 32 163.5t83 100t104 33.5q37 0 77 -12t118 -39q88 -35 115 -35q69 0 75 86h144q-2 -139 -61.5 -218t-159.5 -79q-62 0 -181 49q-92 35 -123 35q-67 0 -79 -84h-144z" />
<glyph unicode="&#xd2;" horiz-adv-x="1726" d="M87 696q0 185 84 348.5t259 267t435 103.5q236 0 411 -94t268 -258t93 -365q0 -198 -92 -361t-268 -259t-418 -96q-244 0 -418 97t-264 260t-90 357zM448 696q0 -118 52 -211.5t146 -144.5t213 -51q187 0 302.5 110.5t115.5 300.5q0 111 -49 204t-143.5 148.5 t-223.5 55.5q-125 0 -219 -52t-144 -145.5t-50 -214.5zM503 1845h367l195 -336h-189z" />
<glyph unicode="&#xd3;" horiz-adv-x="1726" d="M87 696q0 185 84 348.5t259 267t435 103.5q236 0 411 -94t268 -258t93 -365q0 -198 -92 -361t-268 -259t-418 -96q-244 0 -418 97t-264 260t-90 357zM448 696q0 -118 52 -211.5t146 -144.5t213 -51q187 0 302.5 110.5t115.5 300.5q0 111 -49 204t-143.5 148.5 t-223.5 55.5q-125 0 -219 -52t-144 -145.5t-50 -214.5zM669 1509l195 336h367l-373 -336h-189z" />
<glyph unicode="&#xd4;" horiz-adv-x="1726" d="M87 696q0 185 84 348.5t259 267t435 103.5q236 0 411 -94t268 -258t93 -365q0 -198 -92 -361t-268 -259t-418 -96q-244 0 -418 97t-264 260t-90 357zM448 696q0 -118 52 -211.5t146 -144.5t213 -51q187 0 302.5 110.5t115.5 300.5q0 111 -49 204t-143.5 148.5 t-223.5 55.5q-125 0 -219 -52t-144 -145.5t-50 -214.5zM475 1509l201 336h372l205 -336h-190l-201 185l-201 -185h-186z" />
<glyph unicode="&#xd5;" horiz-adv-x="1726" d="M87 696q0 185 84 348.5t259 267t435 103.5q236 0 411 -94t268 -258t93 -365q0 -198 -92 -361t-268 -259t-418 -96q-244 0 -418 97t-264 260t-90 357zM448 696q0 -118 52 -211.5t146 -144.5t213 -51q187 0 302.5 110.5t115.5 300.5q0 111 -49 204t-143.5 148.5 t-223.5 55.5q-125 0 -219 -52t-144 -145.5t-50 -214.5zM489 1505q0 97 32 163.5t83 100t104 33.5q37 0 77 -12t118 -39q88 -35 115 -35q69 0 75 86h144q-2 -139 -61.5 -218t-159.5 -79q-62 0 -181 49q-92 35 -123 35q-67 0 -79 -84h-144z" />
<glyph unicode="&#xd6;" horiz-adv-x="1726" d="M87 696q0 185 84 348.5t259 267t435 103.5q236 0 411 -94t268 -258t93 -365q0 -198 -92 -361t-268 -259t-418 -96q-244 0 -418 97t-264 260t-90 357zM448 696q0 -118 52 -211.5t146 -144.5t213 -51q187 0 302.5 110.5t115.5 300.5q0 111 -49 204t-143.5 148.5 t-223.5 55.5q-125 0 -219 -52t-144 -145.5t-50 -214.5zM506 1679q0 58 42 100t99 42t98 -42t41 -100q0 -57 -41 -99t-98 -42t-99 42t-42 99zM940 1679q0 58 42 100t99 42t98 -42t41 -100q0 -57 -41 -99t-98 -42t-99 42t-42 99z" />
<glyph unicode="&#xd7;" horiz-adv-x="1294" d="M133 369l332 342l-330 329l178 181l330 -334l340 334l178 -179l-340 -331l338 -340l-178 -178l-338 339l-332 -342z" />
<glyph unicode="&#xd8;" horiz-adv-x="1726" d="M88 696q0 185 84 348.5t259 267t435 103.5q271 0 471 -133l148 148l108 -109l-137 -141q88 -95 135 -218.5t47 -263.5q0 -198 -92 -361t-268 -259t-418 -96q-262 0 -457 118l-163 -163l-109 110l152 154q-97 96 -146 225t-49 270zM449 696q0 -143 77 -250l574 598 q-99 64 -238 64q-129 0 -222 -55.5t-142 -148.5t-49 -208zM643 342q94 -53 217 -53q135 0 230.5 57t141.5 150.5t46 203.5q0 129 -72 232z" />
<glyph unicode="&#xd9;" horiz-adv-x="1655" d="M135 621v776h352v-758q0 -174 87.5 -266t254.5 -92q164 0 251 87t87 267v762h353v-770q0 -310 -181.5 -477.5t-509.5 -167.5q-333 0 -513.5 168.5t-180.5 470.5zM462 1845h367l195 -336h-189z" />
<glyph unicode="&#xda;" horiz-adv-x="1655" d="M135 621v776h352v-758q0 -174 87.5 -266t254.5 -92q164 0 251 87t87 267v762h353v-770q0 -310 -181.5 -477.5t-509.5 -167.5q-333 0 -513.5 168.5t-180.5 470.5zM634 1509l195 336h367l-373 -336h-189z" />
<glyph unicode="&#xdb;" horiz-adv-x="1655" d="M135 621v776h352v-758q0 -174 87.5 -266t254.5 -92q164 0 251 87t87 267v762h353v-770q0 -310 -181.5 -477.5t-509.5 -167.5q-333 0 -513.5 168.5t-180.5 470.5zM440 1509l201 336h372l205 -336h-190l-201 185l-201 -185h-186z" />
<glyph unicode="&#xdc;" horiz-adv-x="1655" d="M135 621v776h352v-758q0 -174 87.5 -266t254.5 -92q164 0 251 87t87 267v762h353v-770q0 -310 -181.5 -477.5t-509.5 -167.5q-333 0 -513.5 168.5t-180.5 470.5zM471 1679q0 58 42 100t99 42t98 -42t41 -100q0 -57 -41 -99t-98 -42t-99 42t-42 99zM905 1679q0 58 42 100 t99 42t98 -42t41 -100q0 -57 -41 -99t-98 -42t-99 42t-42 99z" />
<glyph unicode="&#xdd;" horiz-adv-x="1430" d="M0 1397h377l334 -453l338 453h381l-535 -727v-670h-352v664zM540 1509l195 336h367l-373 -336h-189z" />
<glyph unicode="&#xde;" horiz-adv-x="1311" d="M150 0v1397h352v-275h237q242 0 378 -111.5t136 -312.5q0 -118 -55 -214.5t-166.5 -153t-275.5 -56.5h-254v-274h-352zM502 516h176q113 0 164 46t51 134q0 99 -54.5 143t-174.5 44h-162v-367z" />
<glyph unicode="&#xdf;" horiz-adv-x="1225" d="M119 0v918q0 251 124 374t371 123q156 0 262.5 -51t156.5 -134t50 -183q0 -191 -178 -279q121 -45 184.5 -136t63.5 -226q0 -121 -53 -218.5t-144.5 -151.5t-199.5 -54q-88 0 -174 24v221q34 -8 71 -8q80 0 129 56.5t49 156.5q0 105 -58 159t-173 56v213q84 2 130 45 t46 125q0 64 -44 106t-124 42q-94 0 -138 -55.5t-44 -176.5v-946h-307z" />
<glyph unicode="&#xe0;" horiz-adv-x="1077" d="M68 231q0 99 58 163.5t169 111.5t334 119v22q0 84 -41 118t-121 34q-98 0 -193.5 -46t-175.5 -132v256q170 135 426 135q199 0 305.5 -83t106.5 -231v-409q0 -39 9 -61.5t36 -22.5q35 0 92 35v-189q-80 -37 -143.5 -53t-126.5 -16q-66 0 -106 25.5t-54 78.5 q-121 -104 -293 -104q-133 0 -207.5 68.5t-74.5 180.5zM219 1460h340l161 -336h-174zM371 270q0 -51 30.5 -81.5t77.5 -30.5q66 0 150 71v252q-99 -41 -149 -66.5t-79.5 -60.5t-29.5 -84z" />
<glyph unicode="&#xe1;" horiz-adv-x="1077" d="M68 231q0 99 58 163.5t169 111.5t334 119v22q0 84 -41 118t-121 34q-98 0 -193.5 -46t-175.5 -132v256q170 135 426 135q199 0 305.5 -83t106.5 -231v-409q0 -39 9 -61.5t36 -22.5q35 0 92 35v-189q-80 -37 -143.5 -53t-126.5 -16q-66 0 -106 25.5t-54 78.5 q-121 -104 -293 -104q-133 0 -207.5 68.5t-74.5 180.5zM366 1124l162 336h338l-326 -336h-174zM371 270q0 -51 30.5 -81.5t77.5 -30.5q66 0 150 71v252q-99 -41 -149 -66.5t-79.5 -60.5t-29.5 -84z" />
<glyph unicode="&#xe2;" horiz-adv-x="1077" d="M68 231q0 99 58 163.5t169 111.5t334 119v22q0 84 -41 118t-121 34q-98 0 -193.5 -46t-175.5 -132v256q170 135 426 135q199 0 305.5 -83t106.5 -231v-409q0 -39 9 -61.5t36 -22.5q35 0 92 35v-189q-80 -37 -143.5 -53t-126.5 -16q-66 0 -106 25.5t-54 78.5 q-121 -104 -293 -104q-133 0 -207.5 68.5t-74.5 180.5zM154 1124l180 336h362l183 -336h-189l-176 183l-176 -183h-184zM371 270q0 -51 30.5 -81.5t77.5 -30.5q66 0 150 71v252q-99 -41 -149 -66.5t-79.5 -60.5t-29.5 -84z" />
<glyph unicode="&#xe3;" horiz-adv-x="1077" d="M68 231q0 99 58 163.5t169 111.5t334 119v22q0 84 -41 118t-121 34q-98 0 -193.5 -46t-175.5 -132v256q170 135 426 135q199 0 305.5 -83t106.5 -231v-409q0 -39 9 -61.5t36 -22.5q35 0 92 35v-189q-80 -37 -143.5 -53t-126.5 -16q-66 0 -106 25.5t-54 78.5 q-121 -104 -293 -104q-133 0 -207.5 68.5t-74.5 180.5zM155 1135q0 96 32 162.5t83 99.5t104 33q62 0 195 -52q8 -4 51 -18t64 -14q34 0 52.5 22.5t22.5 61.5h144q-2 -138 -62.5 -216.5t-158.5 -78.5q-62 0 -181 49q-92 35 -123 35q-67 0 -79 -84h-144zM371 270 q0 -51 30.5 -81.5t77.5 -30.5q66 0 150 71v252q-99 -41 -149 -66.5t-79.5 -60.5t-29.5 -84z" />
<glyph unicode="&#xe4;" horiz-adv-x="1077" d="M68 231q0 99 58 163.5t169 111.5t334 119v22q0 84 -41 118t-121 34q-98 0 -193.5 -46t-175.5 -132v256q170 135 426 135q199 0 305.5 -83t106.5 -231v-409q0 -39 9 -61.5t36 -22.5q35 0 92 35v-189q-80 -37 -143.5 -53t-126.5 -16q-66 0 -106 25.5t-54 78.5 q-121 -104 -293 -104q-133 0 -207.5 68.5t-74.5 180.5zM172 1286q0 57 42 98t99 41t98 -41t41 -98q0 -59 -41 -100t-98 -41t-99 42t-42 99zM371 270q0 -51 30.5 -81.5t77.5 -30.5q66 0 150 71v252q-99 -41 -149 -66.5t-79.5 -60.5t-29.5 -84zM606 1286q0 55 42 97t99 42 t98 -42t41 -97q0 -59 -41 -100t-98 -41t-99 42t-42 99z" />
<glyph unicode="&#xe5;" horiz-adv-x="1077" d="M68 231q0 99 58 163.5t169 111.5t334 119v22q0 84 -41 118t-121 34q-98 0 -193.5 -46t-175.5 -132v256q170 135 426 135q199 0 305.5 -83t106.5 -231v-409q0 -39 9 -61.5t36 -22.5q35 0 92 35v-189q-80 -37 -143.5 -53t-126.5 -16q-66 0 -106 25.5t-54 78.5 q-121 -104 -293 -104q-133 0 -207.5 68.5t-74.5 180.5zM321 1329q0 86 60.5 147.5t146.5 61.5t147.5 -61.5t61.5 -147.5t-61.5 -146.5t-147.5 -60.5t-146.5 60.5t-60.5 146.5zM371 270q0 -51 30.5 -81.5t77.5 -30.5q66 0 150 71v252q-99 -41 -149 -66.5t-79.5 -60.5 t-29.5 -84zM419 1329q0 -45 32 -75.5t77 -30.5t78 30.5t33 75.5t-33 78t-78 33t-77 -33t-32 -78z" />
<glyph unicode="&#xe6;" horiz-adv-x="1597" d="M68 233q0 101 61 166.5t146 102.5t219 78q108 34 124 41v18q0 82 -35.5 121t-113.5 39q-98 0 -185 -40t-186 -132v256q97 63 191 96t209 33q90 0 158.5 -21.5t146.5 -81.5q117 103 278 103q136 0 238 -62.5t158.5 -177.5t56.5 -262v-61h-629q2 -121 86 -188.5t199 -67.5 q139 0 330 106v-215q-205 -102 -408 -102q-113 0 -211 34.5t-170 104.5q-196 -139 -387 -139q-125 0 -200.5 72.5t-75.5 178.5zM371 272q0 -51 27.5 -83.5t76.5 -32.5q41 0 92 20.5t92 56.5q-41 105 -41 228v18q-141 -59 -194 -103t-53 -104zM909 606h336q-8 101 -50 152 t-116 51q-71 0 -117.5 -52t-52.5 -151z" />
<glyph unicode="&#xe7;" horiz-adv-x="999" d="M72 496q0 118 52 237t173 199t311 80q82 0 152.5 -13.5t157.5 -46.5v-260q-136 68 -269 68q-110 0 -183 -72t-73 -188q0 -115 73 -189.5t193 -74.5q115 0 277 61v-254q-82 -31 -153.5 -45t-149.5 -16l-21 -41q191 -15 191 -168q0 -95 -87 -145t-263 -50q-103 0 -138 6 v131q43 -6 78 -6q60 0 92.5 19.5t32.5 56.5q0 29 -19.5 46t-54.5 17l-41 -2l80 148q-149 26 -241 110t-131 188.5t-39 203.5z" />
<glyph unicode="&#xe8;" horiz-adv-x="1149" d="M72 502q0 151 64.5 267t186 179.5t285.5 63.5q133 0 240.5 -59.5t171 -177.5t63.5 -286v-57h-696q16 -106 97 -170.5t194 -64.5q184 0 381 104v-211q-187 -108 -441 -108q-163 0 -287 64.5t-191.5 182t-67.5 273.5zM273 1460h340l161 -336h-174zM381 588h412 q-2 102 -54.5 161.5t-144.5 59.5t-151.5 -61.5t-61.5 -159.5z" />
<glyph unicode="&#xe9;" horiz-adv-x="1149" d="M72 502q0 151 64.5 267t186 179.5t285.5 63.5q133 0 240.5 -59.5t171 -177.5t63.5 -286v-57h-696q16 -106 97 -170.5t194 -64.5q184 0 381 104v-211q-187 -108 -441 -108q-163 0 -287 64.5t-191.5 182t-67.5 273.5zM381 588h412q-2 102 -54.5 161.5t-144.5 59.5 t-151.5 -61.5t-61.5 -159.5zM420 1124l162 336h338l-326 -336h-174z" />
<glyph unicode="&#xea;" horiz-adv-x="1149" d="M72 502q0 151 64.5 267t186 179.5t285.5 63.5q133 0 240.5 -59.5t171 -177.5t63.5 -286v-57h-696q16 -106 97 -170.5t194 -64.5q184 0 381 104v-211q-187 -108 -441 -108q-163 0 -287 64.5t-191.5 182t-67.5 273.5zM218 1124l180 336h362l183 -336h-189l-176 183 l-176 -183h-184zM381 588h412q-2 102 -54.5 161.5t-144.5 59.5t-151.5 -61.5t-61.5 -159.5z" />
<glyph unicode="&#xeb;" horiz-adv-x="1149" d="M72 502q0 151 64.5 267t186 179.5t285.5 63.5q133 0 240.5 -59.5t171 -177.5t63.5 -286v-57h-696q16 -106 97 -170.5t194 -64.5q184 0 381 104v-211q-187 -108 -441 -108q-163 0 -287 64.5t-191.5 182t-67.5 273.5zM222 1286q0 57 42 98t99 41t98 -41t41 -98 q0 -59 -41 -100t-98 -41t-99 42t-42 99zM381 588h412q-2 102 -54.5 161.5t-144.5 59.5t-151.5 -61.5t-61.5 -159.5zM656 1286q0 55 42 97t99 42t98 -42t41 -97q0 -59 -41 -100t-98 -41t-99 42t-42 99z" />
<glyph unicode="&#xec;" horiz-adv-x="545" d="M-36 1460h340l161 -336h-174zM119 0v993h307v-993h-307z" />
<glyph unicode="&#xed;" horiz-adv-x="545" d="M97 1124l162 336h338l-326 -336h-174zM119 0v993h307v-993h-307z" />
<glyph unicode="&#xee;" horiz-adv-x="545" d="M-87 1124l180 336h362l183 -336h-189l-176 183l-176 -183h-184zM119 0v993h307v-993h-307z" />
<glyph unicode="&#xef;" horiz-adv-x="545" d="M-83 1286q0 57 42 98t99 41t98 -41t41 -98q0 -59 -41 -100t-98 -41t-99 42t-42 99zM119 0v993h307v-993h-307zM351 1286q0 55 42 97t99 42t98 -42t41 -97q0 -59 -41 -100t-98 -41t-99 42t-42 99z" />
<glyph unicode="&#xf0;" horiz-adv-x="1264" d="M72 487q0 152 67.5 268.5t185 180t261.5 63.5q49 0 86 -8t82 -28q-31 55 -78 109t-94 91l-316 -116l-37 108l242 88q-41 29 -160 78l172 94q125 -39 209 -88l242 88l37 -106l-162 -66q178 -137 276.5 -324.5t98.5 -396.5q0 -170 -70 -291.5t-193.5 -185t-283.5 -63.5 q-193 0 -321 73.5t-186 189t-58 242.5zM393 496q0 -127 62.5 -202t173.5 -75q108 0 171.5 74t63.5 205q0 129 -64.5 202.5t-172.5 73.5q-107 0 -170.5 -73.5t-63.5 -204.5z" />
<glyph unicode="&#xf1;" horiz-adv-x="1221" d="M119 0v993h307v-137q139 156 336 156q180 0 265 -108.5t85 -297.5v-606h-307v561q0 209 -160 209q-61 0 -114.5 -37t-104.5 -115v-618h-307zM237 1135q0 96 32 162.5t83 99.5t104 33q62 0 195 -52q8 -4 51 -18t64 -14q34 0 52.5 22.5t22.5 61.5h144q-2 -138 -62.5 -216.5 t-158.5 -78.5q-62 0 -181 49q-92 35 -123 35q-67 0 -79 -84h-144z" />
<glyph unicode="&#xf2;" horiz-adv-x="1255" d="M72 496q0 149 65.5 266t191.5 183.5t300 66.5q172 0 297 -65.5t191.5 -182.5t66.5 -266q0 -156 -70 -272.5t-196.5 -180t-290.5 -63.5q-176 0 -301 68.5t-189.5 185t-64.5 260.5zM326 1460h340l161 -336h-174zM393 498q0 -129 63.5 -204t172.5 -75q108 0 171.5 76 t63.5 203q0 131 -65.5 203.5t-173.5 72.5q-107 0 -169.5 -73.5t-62.5 -202.5z" />
<glyph unicode="&#xf3;" horiz-adv-x="1255" d="M72 496q0 149 65.5 266t191.5 183.5t300 66.5q172 0 297 -65.5t191.5 -182.5t66.5 -266q0 -156 -70 -272.5t-196.5 -180t-290.5 -63.5q-176 0 -301 68.5t-189.5 185t-64.5 260.5zM393 498q0 -129 63.5 -204t172.5 -75q108 0 171.5 76t63.5 203q0 131 -65.5 203.5 t-173.5 72.5q-107 0 -169.5 -73.5t-62.5 -202.5zM467 1124l162 336h338l-326 -336h-174z" />
<glyph unicode="&#xf4;" horiz-adv-x="1255" d="M72 496q0 149 65.5 266t191.5 183.5t300 66.5q172 0 297 -65.5t191.5 -182.5t66.5 -266q0 -156 -70 -272.5t-196.5 -180t-290.5 -63.5q-176 0 -301 68.5t-189.5 185t-64.5 260.5zM275 1124l180 336h362l183 -336h-189l-176 183l-176 -183h-184zM393 498q0 -129 63.5 -204 t172.5 -75q108 0 171.5 76t63.5 203q0 131 -65.5 203.5t-173.5 72.5q-107 0 -169.5 -73.5t-62.5 -202.5z" />
<glyph unicode="&#xf5;" horiz-adv-x="1255" d="M72 496q0 149 65.5 266t191.5 183.5t300 66.5q172 0 297 -65.5t191.5 -182.5t66.5 -266q0 -156 -70 -272.5t-196.5 -180t-290.5 -63.5q-176 0 -301 68.5t-189.5 185t-64.5 260.5zM262 1135q0 96 32 162.5t83 99.5t104 33q62 0 195 -52q8 -4 51 -18t64 -14q34 0 52.5 22.5 t22.5 61.5h144q-2 -138 -62.5 -216.5t-158.5 -78.5q-62 0 -181 49q-92 35 -123 35q-67 0 -79 -84h-144zM393 498q0 -129 63.5 -204t172.5 -75q108 0 171.5 76t63.5 203q0 131 -65.5 203.5t-173.5 72.5q-107 0 -169.5 -73.5t-62.5 -202.5z" />
<glyph unicode="&#xf6;" horiz-adv-x="1255" d="M72 496q0 149 65.5 266t191.5 183.5t300 66.5q172 0 297 -65.5t191.5 -182.5t66.5 -266q0 -156 -70 -272.5t-196.5 -180t-290.5 -63.5q-176 0 -301 68.5t-189.5 185t-64.5 260.5zM279 1286q0 57 42 98t99 41t98 -41t41 -98q0 -59 -41 -100t-98 -41t-99 42t-42 99z M393 498q0 -129 63.5 -204t172.5 -75q108 0 171.5 76t63.5 203q0 131 -65.5 203.5t-173.5 72.5q-107 0 -169.5 -73.5t-62.5 -202.5zM713 1286q0 55 42 97t99 42t98 -42t41 -97q0 -59 -41 -100t-98 -41t-99 42t-42 99z" />
<glyph unicode="&#xf7;" horiz-adv-x="1190" d="M76 573v256h1036v-256h-1036zM470 285q0 24 10 46.5t27 39.5t39.5 27.5t48.5 10.5q27 0 49.5 -10.5t39 -27.5t25.5 -40t9 -47q0 -29 -10 -52t-27 -39t-39 -25t-46 -9q-28 0 -51.5 10t-40 27.5t-25.5 40t-9 48.5zM470 1116q0 24 10 46t27 39t39.5 27t48.5 10 q27 0 49.5 -10t39 -27t25.5 -39.5t9 -47.5q0 -28 -10.5 -51.5t-28 -40.5t-40 -26.5t-47.5 -9.5q-26 0 -48.5 11t-39 29.5t-25.5 42t-9 47.5z" />
<glyph unicode="&#xf8;" horiz-adv-x="1255" d="M72 496q0 149 65.5 266t191.5 183.5t300 66.5q180 0 315 -76l129 143l80 -73l-121 -134q74 -71 113 -166.5t39 -207.5q0 -156 -70 -272.5t-196.5 -180t-290.5 -63.5q-187 0 -316 75l-133 -149l-80 72l125 143q-73 67 -112 163.5t-39 209.5zM393 498q0 -82 31 -150 l340 385q-59 41 -139 41q-107 0 -169.5 -73.5t-62.5 -202.5zM492 260q57 -41 137 -41q108 0 171.5 76t63.5 203q0 77 -35 147z" />
<glyph unicode="&#xf9;" horiz-adv-x="1221" d="M109 399v594h307v-559q0 -211 159 -211q123 0 220 152v618h307v-993h-307v137q-74 -80 -156 -117.5t-180 -37.5q-350 0 -350 417zM301 1460h340l161 -336h-174z" />
<glyph unicode="&#xfa;" horiz-adv-x="1221" d="M109 399v594h307v-559q0 -211 159 -211q123 0 220 152v618h307v-993h-307v137q-74 -80 -156 -117.5t-180 -37.5q-350 0 -350 417zM463 1124l162 336h338l-326 -336h-174z" />
<glyph unicode="&#xfb;" horiz-adv-x="1221" d="M109 399v594h307v-559q0 -211 159 -211q123 0 220 152v618h307v-993h-307v137q-74 -80 -156 -117.5t-180 -37.5q-350 0 -350 417zM250 1124l180 336h362l183 -336h-189l-176 183l-176 -183h-184z" />
<glyph unicode="&#xfc;" horiz-adv-x="1221" d="M109 399v594h307v-559q0 -211 159 -211q123 0 220 152v618h307v-993h-307v137q-74 -80 -156 -117.5t-180 -37.5q-350 0 -350 417zM254 1286q0 57 42 98t99 41t98 -41t41 -98q0 -59 -41 -100t-98 -41t-99 42t-42 99zM688 1286q0 55 42 97t99 42t98 -42t41 -97 q0 -59 -41 -100t-98 -41t-99 42t-42 99z" />
<glyph unicode="&#xfd;" horiz-adv-x="1102" d="M6 993h334l221 -512l236 512h305l-680 -1462h-313l290 621zM377 1124l162 336h338l-326 -336h-174z" />
<glyph unicode="&#xfe;" horiz-adv-x="1227" d="M119 -469v1866h307v-404h129q281 0 439.5 -107.5t158.5 -396.5q0 -133 -54.5 -249.5t-163 -187t-261.5 -70.5q-72 0 -127 14t-121 53v-518h-307zM426 274q43 -28 91 -43.5t89 -15.5q101 0 164.5 73.5t63.5 188.5q0 135 -71 205t-196 70h-141v-478z" />
<glyph unicode="&#xff;" horiz-adv-x="1102" d="M6 993h334l221 -512l236 512h305l-680 -1462h-313l290 621zM189 1286q0 57 42 98t99 41t98 -41t41 -98q0 -59 -41 -100t-98 -41t-99 42t-42 99zM623 1286q0 55 42 97t99 42t98 -42t41 -97q0 -59 -41 -100t-98 -41t-99 42t-42 99z" />
<glyph unicode="&#x152;" horiz-adv-x="2107" d="M88 705q0 333 216 512.5t609 179.5h1076v-248h-596v-307h561v-252h-561v-342h608v-248h-1094q-389 0 -604 183.5t-215 521.5zM449 698q0 -221 128 -335.5t386 -114.5h77v901h-69q-262 0 -392 -111.5t-130 -339.5z" />
<glyph unicode="&#x153;" horiz-adv-x="1866" d="M72 487q0 158 66.5 276t190.5 183.5t289 65.5q220 0 367 -123q152 123 330 123q143 0 252.5 -61.5t171 -180.5t61.5 -283v-55h-665q8 -115 92 -175t196 -60q162 0 355 102v-213q-115 -57 -213.5 -80.5t-206.5 -23.5q-109 0 -196 30.5t-161 98.5q-135 -129 -368 -129 q-172 0 -299 63.5t-194.5 178t-67.5 263.5zM393 498q0 -129 62.5 -204t169.5 -75q106 0 167.5 78t61.5 201q0 137 -67.5 206.5t-165.5 69.5q-103 0 -165.5 -73.5t-62.5 -202.5zM1133 588h389q-11 106 -62 162.5t-139 56.5q-86 0 -136 -56.5t-52 -162.5z" />
<glyph unicode="&#x178;" horiz-adv-x="1430" d="M0 1397h377l334 -453l338 453h381l-535 -727v-670h-352v664zM359 1679q0 58 42 100t99 42t98 -42t41 -100q0 -57 -41 -99t-98 -42t-99 42t-42 99zM793 1679q0 58 42 100t99 42t98 -42t41 -100q0 -57 -41 -99t-98 -42t-99 42t-42 99z" />
<glyph unicode="&#x2c6;" horiz-adv-x="682" d="M-20 1124l180 336h362l183 -336h-189l-176 183l-176 -183h-184z" />
<glyph unicode="&#x2dc;" horiz-adv-x="682" d="M-33 1135q0 96 32 162.5t83 99.5t104 33q62 0 195 -52q8 -4 51 -18t64 -14q34 0 52.5 22.5t22.5 61.5h144q-2 -138 -62.5 -216.5t-158.5 -78.5q-62 0 -181 49q-92 35 -123 35q-67 0 -79 -84h-144z" />
<glyph unicode="&#x2000;" horiz-adv-x="922" />
<glyph unicode="&#x2001;" horiz-adv-x="1845" />
<glyph unicode="&#x2002;" horiz-adv-x="922" />
<glyph unicode="&#x2003;" horiz-adv-x="1845" />
<glyph unicode="&#x2004;" horiz-adv-x="615" />
<glyph unicode="&#x2005;" horiz-adv-x="461" />
<glyph unicode="&#x2006;" horiz-adv-x="307" />
<glyph unicode="&#x2007;" horiz-adv-x="307" />
<glyph unicode="&#x2008;" horiz-adv-x="230" />
<glyph unicode="&#x2009;" horiz-adv-x="369" />
<glyph unicode="&#x200a;" horiz-adv-x="102" />
<glyph unicode="&#x2010;" horiz-adv-x="901" d="M145 352v293h609v-293h-609z" />
<glyph unicode="&#x2011;" horiz-adv-x="901" d="M145 352v293h609v-293h-609z" />
<glyph unicode="&#x2012;" horiz-adv-x="901" d="M145 352v293h609v-293h-609z" />
<glyph unicode="&#x2013;" horiz-adv-x="1024" d="M-10 385v242h1044v-242h-1044z" />
<glyph unicode="&#x2014;" horiz-adv-x="2048" d="M-10 385v244h2068v-244h-2068z" />
<glyph unicode="&#x2018;" horiz-adv-x="567" d="M86 1010q0 94 46 179t136 145.5t219 80.5v-55q-69 -33 -102 -95.5t-33 -168.5q70 -21 106 -66t36 -112q0 -78 -55.5 -133.5t-131.5 -55.5q-102 0 -161.5 83t-59.5 198z" />
<glyph unicode="&#x2019;" horiz-adv-x="567" d="M74 1227q0 78 54 133t132 55q102 0 161.5 -82t59.5 -196q0 -95 -45 -180t-136 -145t-220 -83v59q70 33 102.5 95.5t32.5 167.5q-70 20 -105.5 65t-35.5 111z" />
<glyph unicode="&#x201a;" horiz-adv-x="567" d="M74 182q0 76 55 131.5t131 55.5q102 0 161.5 -83t59.5 -196q0 -94 -46 -179t-136 -145.5t-219 -80.5v55q135 63 135 264q-70 21 -105.5 66t-35.5 112z" />
<glyph unicode="&#x201c;" horiz-adv-x="1067" d="M74 1010q0 94 45 179t136 145.5t220 80.5v-55q-69 -35 -102 -97.5t-33 -166.5q70 -21 105.5 -66t35.5 -112q0 -76 -55 -132.5t-131 -56.5q-102 0 -161.5 83t-59.5 198zM596 1010q0 92 46 177t136 146.5t219 81.5v-55q-69 -35 -102 -98.5t-33 -165.5q142 -39 142 -178 q0 -76 -54.5 -132.5t-130.5 -56.5q-104 0 -163.5 83t-59.5 198z" />
<glyph unicode="&#x201d;" horiz-adv-x="1067" d="M61 1227q0 78 54.5 133t132.5 55q102 0 161.5 -83t59.5 -195q0 -95 -45 -180t-136 -146t-220 -82v59q65 31 99 91.5t36 171.5q-70 20 -106 65t-36 111zM584 1227q0 78 54 133t132 55q104 0 163.5 -83t59.5 -195q0 -95 -46 -180t-136 -146t-219 -82v59q65 31 99 91.5 t36 171.5q-72 20 -107.5 65t-35.5 111z" />
<glyph unicode="&#x201e;" horiz-adv-x="1081" d="M68 182q0 76 55 131.5t131 55.5q104 0 162.5 -82t58.5 -197q0 -94 -46 -179t-136 -145.5t-219 -80.5v55q69 35 102 96.5t33 167.5q-70 21 -105.5 66t-35.5 112zM592 182q0 76 54 131.5t132 55.5q103 0 162 -83t59 -196q0 -94 -46 -179t-136 -145.5t-219 -80.5v55 q70 35 102.5 97.5t32.5 166.5q-69 21 -105 66t-36 112z" />
<glyph unicode="&#x2022;" horiz-adv-x="934" d="M158 698q0 84 42 156t112.5 114t154.5 42q86 0 156.5 -42t110.5 -114t40 -156t-41 -154.5t-111.5 -112.5t-154.5 -42t-154.5 42t-112.5 112.5t-42 154.5z" />
<glyph unicode="&#x2026;" horiz-adv-x="2048" d="M154 170q0 78 55 133t133 55q80 0 133 -55t53 -133q0 -80 -54 -134t-132 -54q-76 0 -132 56t-56 132zM838 170q0 78 55 133t133 55t131 -55t53 -133q0 -80 -54 -134t-130 -54q-78 0 -133 55t-55 133zM1520 170q0 78 55 133t133 55t132 -55t54 -133q0 -80 -54 -134 t-132 -54t-133 55t-55 133z" />
<glyph unicode="&#x202f;" horiz-adv-x="369" />
<glyph unicode="&#x2039;" horiz-adv-x="698" d="M43 489l311 486h289l-311 -486l311 -489h-289z" />
<glyph unicode="&#x203a;" horiz-adv-x="698" d="M57 0l312 489l-312 486h287l311 -486l-311 -489h-287z" />
<glyph unicode="&#x205f;" horiz-adv-x="461" />
<glyph unicode="&#x20ac;" horiz-adv-x="1266" d="M47 473l25 164h110q-2 22 -2 61q0 43 2 60h-135l25 164h129q55 231 218 362t400 131q205 0 393 -80l-57 -264q-82 43 -148.5 62.5t-148.5 19.5q-113 0 -190.5 -59.5t-114.5 -171.5h547l-27 -164h-555q-2 -25 -2 -62q0 -41 2 -59h545l-25 -164h-489q35 -113 112.5 -171 t184.5 -58q98 0 193.5 34.5t172.5 98.5v-293q-84 -53 -176 -77.5t-235 -24.5q-232 0 -388.5 128t-213.5 363h-152z" />
<glyph unicode="&#x2122;" horiz-adv-x="1960" d="M61 1239v158h752v-158h-281v-651h-188v651h-283zM926 588v809h274l166 -516l162 516h276v-809h-180v606l-188 -606h-146l-186 606v-606h-178z" />
<glyph unicode="&#x25fc;" horiz-adv-x="995" d="M0 0v995h995v-995h-995z" />
</font>
</defs>
</svg>
