<?xml version="1.0" standalone="no"?>
<!DOCTYPE svg PUBLIC "-//W3C//DTD SVG 1.1//EN" "http://www.w3.org/Graphics/SVG/1.1/DTD/svg11.dtd" >
<svg xmlns="http://www.w3.org/2000/svg" xmlns:xlink="http://www.w3.org/1999/xlink" version="1.1">
<metadata></metadata>
<defs>
<font id="gill_sans_novabold_italic" horiz-adv-x="1155" >
<font-face units-per-em="2048" ascent="1638" descent="-410" />
<missing-glyph horiz-adv-x="590" />
<glyph horiz-adv-x="0" />
<glyph horiz-adv-x="682" />
<glyph unicode=" "  horiz-adv-x="590" />
<glyph unicode="&#x09;" horiz-adv-x="590" />
<glyph unicode="&#xa0;" horiz-adv-x="590" />
<glyph unicode="!" horiz-adv-x="610" d="M74 154q0 71 52 122.5t124 51.5q74 0 125 -52.5t51 -121.5q0 -76 -51 -126.5t-125 -50.5t-125 52.5t-51 124.5zM207 422q26 375 33 688q4 141 47 223t145 82q57 0 101.5 -33.5t44.5 -111.5q0 -53 -14.5 -116.5t-45.5 -168.5q-8 -24 -33 -115l-43 -170q-20 -75 -69 -278 h-166z" />
<glyph unicode="&#x22;" horiz-adv-x="924" d="M160 1155l53 242h336l-51 -242l-113 -291h-221zM614 1153l52 244h335l-51 -242l-112 -291h-222z" />
<glyph unicode="#" horiz-adv-x="1313" d="M72 354v193h209l61 301h-270v192h309l82 383h192l-82 -383h357l80 383h192l-82 -383h170v-192h-209l-61 -301h270v-193h-311l-80 -383h-192l79 383h-354l-82 -383h-190l80 383h-168zM471 547h356l62 301h-354z" />
<glyph unicode="$" d="M80 94l41 215q155 -98 332 -131l55 393q-332 164 -332 406q0 86 52.5 170t152.5 139t237 57l11 74h159l-12 -86q191 -35 289 -110l-29 -199q-84 49 -149.5 77.5t-136.5 43.5l-52 -369q338 -170 338 -418q0 -94 -52 -178t-155.5 -138t-244.5 -58l-33 -228h-156l33 230 q-74 8 -179.5 40.5t-168.5 69.5zM438 997q0 -75 113 -141l39 289q-74 -15 -113 -54.5t-39 -93.5zM612 180q74 17 116 60t42 100q0 90 -115 156z" />
<glyph unicode="%" horiz-adv-x="1583" d="M123 1083q0 93 45 169.5t122 120.5t167 44t166.5 -45t122 -120.5t45.5 -168.5q0 -92 -45.5 -167.5t-122 -120.5t-166.5 -45q-95 0 -171.5 45t-119.5 121.5t-43 166.5zM233 -18l977 1435h187l-975 -1435h-189zM311 1083q0 -65 39 -109t105 -44q61 0 103 44t42 109 q0 68 -43 111t-102 43q-60 0 -102 -44t-42 -110zM842 315q0 93 45 168.5t121.5 119.5t167.5 44q90 0 166.5 -42t121.5 -117.5t45 -172.5q0 -90 -44 -166.5t-119.5 -121.5t-169.5 -45q-107 0 -182.5 48t-113.5 124.5t-38 160.5zM1032 313q0 -63 39 -107t105 -44q59 0 102 42 t43 109q0 72 -43 114t-102 42q-64 0 -104 -46t-40 -110z" />
<glyph unicode="&#x26;" horiz-adv-x="1554" d="M88 401q0 170 122 288t339 159q-29 80 -29 145q0 111 47 208t143.5 155.5t231.5 58.5q123 0 203 -45t115.5 -112.5t35.5 -139.5q0 -289 -428 -405q29 -74 64 -132.5t104 -162.5q49 49 88 107.5t76 142.5h268q-88 -228 -247 -396q36 -26 84.5 -39.5t95.5 -13.5q51 0 98 8 l-96 -235q-41 -10 -90 -10q-185 0 -326 110q-88 -51 -197.5 -80.5t-218.5 -29.5q-143 0 -252.5 56t-170 151.5t-60.5 211.5zM377 403q0 -55 29.5 -104t83 -80t120.5 -31q103 0 205 64q-63 80 -122.5 188.5t-88.5 206.5q-108 -43 -167.5 -104.5t-59.5 -139.5zM784 1042 q0 -34 8.5 -69t18.5 -64q121 33 183.5 88.5t62.5 124.5q0 52 -34 86.5t-83 34.5q-70 0 -113 -58.5t-43 -142.5z" />
<glyph unicode="'" horiz-adv-x="508" d="M178 1155l53 242h336l-51 -242l-113 -291h-219z" />
<glyph unicode="(" horiz-adv-x="641" d="M109 307q0 305 132 580.5t349 527.5h192q-184 -231 -295.5 -551.5t-111.5 -640.5q0 -203 33.5 -363.5t107.5 -340.5h-184q-223 436 -223 788z" />
<glyph unicode=")" horiz-adv-x="641" d="M-109 -481q185 235 295.5 553.5t110.5 636.5q0 198 -34 367t-105 339h182q115 -223 169 -423.5t54 -391.5q0 -281 -131 -557t-350 -524h-191z" />
<glyph unicode="*" horiz-adv-x="1047" d="M117 766q0 31 22.5 49.5t85.5 34.5l252 57q-4 11 -4 31t4 29l-258 63q-59 17 -79.5 34t-20.5 44q0 31 20.5 68.5t48 64.5t43.5 27q37 0 95 -64l176 -192q20 20 49 26l-74 248q-16 60 -16 82q0 37 25.5 55.5t86.5 18.5q115 0 115 -72q0 -35 -14 -82l-76 -250q31 -4 51 -26 l180 194q31 33 50.5 47.5t40.5 14.5q16 0 42.5 -25.5t47 -63.5t20.5 -69t-20.5 -48.5t-75.5 -31.5l-262 -63q4 -17 4 -29q0 -10 -4 -31l248 -55q61 -14 85.5 -34.5t24.5 -51.5t-20.5 -67.5t-47 -62.5t-44.5 -26q-19 0 -40.5 14.5t-54.5 49.5l-176 190q-20 -20 -49 -26 l72 -230q18 -65 18 -102t-25.5 -55.5t-89.5 -18.5q-112 0 -112 76q0 24 18 98l72 232q-25 6 -49 26l-176 -188q-35 -39 -56.5 -52.5t-40.5 -13.5q-18 0 -44.5 26t-47 62.5t-20.5 67.5z" />
<glyph unicode="+" horiz-adv-x="1147" d="M111 596v215h374v387h217v-387h377v-215h-377v-383h-217v383h-374z" />
<glyph unicode="," horiz-adv-x="561" d="M-74 -301l23 102q184 19 233 183q-145 32 -145 168q0 77 54 127.5t134 50.5q90 0 149.5 -66.5t59.5 -167.5q0 -96 -54 -183t-169 -146.5t-285 -67.5z" />
<glyph unicode="-" horiz-adv-x="819" d="M78 356l41 267h614l-39 -267h-616z" />
<glyph unicode="." horiz-adv-x="545" d="M39 158q0 75 53 127.5t127 52.5t127 -53.5t53 -124.5q0 -72 -52 -126t-128 -54q-74 0 -127 53t-53 125z" />
<glyph unicode="/" horiz-adv-x="838" d="M-92 -18l833 1433h240l-834 -1433h-239z" />
<glyph unicode="0" d="M94 535q0 229 73 431.5t210 325.5t319 123q197 0 310.5 -151.5t113.5 -407.5q0 -227 -71.5 -428t-209 -323.5t-323.5 -122.5q-199 0 -310.5 149.5t-111.5 403.5zM395 518q0 -133 39 -209t111 -76q63 0 127.5 86.5t105.5 233.5t41 324q0 149 -39 216.5t-104 67.5 q-76 0 -140.5 -91t-102.5 -239.5t-38 -312.5z" />
<glyph unicode="1" d="M283 874l47 259l49 24q121 64 202 116t152 124h178l-213 -1397h-290l153 1006q-123 -84 -278 -132z" />
<glyph unicode="2" d="M47 0v20q256 295 399.5 483.5t201 308.5t57.5 208q0 72 -41 111.5t-119 39.5q-142 0 -312 -124l39 266q162 102 338 102q181 0 286 -99t105 -261q0 -103 -32.5 -195t-122.5 -225t-275 -365h420l-41 -270h-903z" />
<glyph unicode="3" d="M78 74l35 241q100 -51 170.5 -75.5t152.5 -24.5q105 0 170.5 56.5t65.5 152.5q0 80 -57.5 133t-161.5 53q-45 0 -86 -6l28 232q41 -9 103 -9q131 7 193.5 65t62.5 136q0 76 -49.5 119t-133.5 43q-159 0 -323 -96l37 247q155 74 344 74q127 0 222 -46t146.5 -127 t51.5 -183q0 -127 -77 -219t-214 -117q102 -39 160.5 -124t58.5 -198q0 -96 -53.5 -192t-167 -161.5t-285.5 -65.5q-197 0 -393 92z" />
<glyph unicode="4" d="M68 328v198l714 877h238l-129 -856h192l-32 -219h-193l-51 -328h-281l54 328h-512zM328 547h284l64 422z" />
<glyph unicode="5" d="M61 92l86 242q60 -43 134.5 -70.5t150.5 -27.5q117 0 187.5 64.5t70.5 162.5q0 94 -68.5 152.5t-185.5 58.5q-69 0 -174 -27l127 750h668l-37 -262h-408l-43 -258q140 -3 236 -61t142 -149.5t46 -191.5q0 -125 -66.5 -238.5t-189.5 -184t-280 -70.5q-221 0 -396 110z" />
<glyph unicode="6" d="M80 428q0 131 61.5 263t198.5 321l272 385h308l-351 -533q72 31 144 31q157 0 251.5 -107.5t94.5 -279.5q0 -137 -66.5 -259t-187.5 -194.5t-277 -72.5q-135 0 -236.5 57t-156.5 159.5t-55 229.5zM367 410q0 -84 45 -135.5t118 -51.5q60 0 113 36t86 101.5t33 147.5 q0 80 -45 121t-117 41q-106 0 -169.5 -79t-63.5 -181z" />
<glyph unicode="7" d="M205 1135l45 262h895l-604 -1403h-299l489 1141h-526z" />
<glyph unicode="8" d="M63 377q0 127 72 225t225 152q-75 53 -110 118.5t-35 151.5q0 96 54.5 186t161 147.5t251.5 57.5q143 0 234.5 -52t131 -132t39.5 -164q0 -115 -63 -201t-188 -129q102 -41 155 -125t53 -190q0 -127 -69.5 -227.5t-187 -156.5t-261.5 -56q-141 0 -245.5 51t-161 141 t-56.5 203zM362 381q0 -82 46.5 -128t128.5 -46q53 0 101 28.5t77.5 84t29.5 129.5q0 75 -44 123.5t-121 48.5q-93 0 -155.5 -68t-62.5 -172zM496 997q0 -65 38.5 -107t102.5 -42q76 0 123 60.5t47 148.5q0 59 -37 102t-100 43q-74 0 -124 -57.5t-50 -147.5z" />
<glyph unicode="9" d="M98 895q0 129 62.5 249t183.5 195.5t285 75.5q133 0 234.5 -56t157.5 -158.5t56 -231.5q0 -138 -61.5 -271t-200.5 -323l-264 -375h-313l350 532q-68 -30 -142 -30q-161 0 -254.5 105.5t-93.5 287.5zM397 893q0 -76 44 -121t114 -45q68 0 122 37t84 96.5t30 126.5 q0 86 -46.5 136.5t-119.5 50.5q-101 0 -164.5 -80t-63.5 -201z" />
<glyph unicode=":" horiz-adv-x="561" d="M41 158q0 75 53 127.5t127 52.5t127 -53.5t53 -124.5q0 -72 -52 -126t-128 -54q-74 0 -127 53t-53 125zM152 831q0 74 53 126.5t127 52.5q76 0 128 -52.5t52 -126.5q0 -71 -52 -125.5t-128 -54.5t-128 53.5t-52 126.5z" />
<glyph unicode=";" horiz-adv-x="561" d="M-63 -301l22 102q92 11 149.5 56t84.5 127q-146 32 -146 168q0 77 54.5 127.5t134.5 50.5q90 0 149 -66.5t59 -167.5q0 -98 -55 -185t-170 -145.5t-282 -66.5zM152 831q0 74 53 126.5t127 52.5q76 0 128 -52.5t52 -126.5q0 -71 -52 -125.5t-128 -54.5t-128 53.5 t-52 126.5z" />
<glyph unicode="&#x3c;" horiz-adv-x="1147" d="M111 610v158l968 438v-231l-667 -287q71 -33 342 -147q250 -103 325 -140v-233z" />
<glyph unicode="=" horiz-adv-x="1147" d="M111 342v215h966v-215h-966zM111 852v215h966v-215h-966z" />
<glyph unicode="&#x3e;" horiz-adv-x="1147" d="M111 168v233l665 289q-65 31 -327 139q-261 107 -338 146v231l968 -438v-158z" />
<glyph unicode="?" horiz-adv-x="813" d="M123 154q0 71 52 122.5t124 51.5t124 -51.5t52 -122.5q0 -76 -52 -126.5t-124 -50.5t-124 51.5t-52 125.5zM158 1042l39 281q133 92 303 92q155 0 248.5 -86t93.5 -237q0 -91 -38 -162.5t-140 -167.5q-111 -103 -164.5 -177.5t-67.5 -162.5h-215q2 127 61.5 239.5 t167.5 229.5q54 57 77.5 97t23.5 77q0 51 -36 80t-87 29q-57 0 -128 -34t-138 -98z" />
<glyph unicode="@" horiz-adv-x="1901" d="M90 524q0 246 117 451t333 325.5t498 120.5q236 0 420 -83t288.5 -236.5t104.5 -358.5q0 -174 -62.5 -312t-186 -218t-302.5 -80q-98 0 -151 42t-53 114v6q-78 -84 -155 -125t-163 -41q-131 0 -203.5 94t-72.5 256q0 158 65.5 286t197.5 203.5t327 75.5q141 0 311 -51 l-103 -555q-8 -49 -8 -78q0 -32 13.5 -46.5t46.5 -14.5q92 0 164.5 58.5t112.5 161t40 229.5q0 155 -74.5 272t-217 180.5t-339.5 63.5q-237 0 -409 -94.5t-262.5 -262.5t-90.5 -383q0 -207 75 -359.5t217.5 -235.5t338.5 -83q197 0 348.5 45.5t272.5 139.5l86 -125 q-129 -105 -302 -159t-413 -54q-237 0 -420.5 98t-286 285.5t-102.5 447.5zM719 494q0 -82 30.5 -138.5t92.5 -56.5q69 0 134.5 45t121.5 119l71 391q-30 12 -114 12q-99 0 -174.5 -48t-118.5 -133t-43 -191z" />
<glyph unicode="A" horiz-adv-x="1260" d="M-59 0l675 1399h308l262 -1399h-305l-54 354h-421l-160 -354h-305zM485 535h316l-78 538z" />
<glyph unicode="B" horiz-adv-x="1266" d="M80 0l203 1397h379q227 0 346.5 -86t119.5 -248q0 -207 -196 -309q119 -47 190.5 -129t71.5 -201q0 -193 -144.5 -308.5t-449.5 -115.5h-520zM401 188h160q168 0 246 57.5t78 170.5q0 108 -76 170.5t-225 62.5h-113zM498 829h73q121 0 192 43t71 162q0 180 -211 180h-70z " />
<glyph unicode="C" horiz-adv-x="1278" d="M100 600q0 213 102.5 399.5t307.5 301t498 114.5q69 0 153 -9t154 -26l-51 -268q-136 41 -258 41q-183 0 -318 -71.5t-205.5 -193.5t-70.5 -267q0 -162 90 -270.5t258 -108.5q119 0 240.5 48t238.5 134l-49 -326q-133 -61 -239.5 -88.5t-207.5 -27.5q-204 0 -349.5 79.5 t-219.5 220t-74 318.5z" />
<glyph unicode="D" horiz-adv-x="1495" d="M80 0l201 1397h337q252 0 432.5 -82t275.5 -237.5t95 -370.5q0 -195 -66.5 -338.5t-193.5 -231.5q-110 -80 -256.5 -108.5t-372.5 -28.5h-452zM410 221h192q250 0 383 131t133 353q0 210 -130 340.5t-384 130.5h-57z" />
<glyph unicode="E" horiz-adv-x="1169" d="M78 0l203 1397h856l-29 -219h-561l-49 -353h489l-31 -219h-491l-55 -387h700l-31 -219h-1001z" />
<glyph unicode="F" horiz-adv-x="975" d="M74 0l205 1397h755l-33 -221h-456l-51 -349h399l-33 -221h-399l-88 -606h-299z" />
<glyph unicode="G" horiz-adv-x="1411" d="M98 606q0 207 94.5 390.5t307.5 301t549 117.5q215 0 381 -47l-39 -256q-179 47 -344 47q-209 0 -352.5 -75.5t-214 -196.5t-70.5 -256q0 -111 46 -199t129 -138t189 -50q119 0 242 49l33 207h-232l33 215h500l-88 -617q-285 -116 -508 -116q-191 0 -340.5 78.5 t-232.5 221t-83 324.5z" />
<glyph unicode="H" horiz-adv-x="1595" d="M78 0l203 1397h299l-80 -555h694l80 555h299l-205 -1397h-299l86 580h-692l-86 -580h-299z" />
<glyph unicode="I" horiz-adv-x="604" d="M78 0l203 1397h299l-205 -1397h-297z" />
<glyph unicode="J" horiz-adv-x="614" d="M-236 -193q64 -16 123 -16q101 0 143 47t58 158l205 1401h297l-201 -1379q-27 -176 -74 -277t-140 -151.5t-251 -50.5q-61 0 -117 12z" />
<glyph unicode="K" horiz-adv-x="1362" d="M76 0l205 1397h297l-91 -604l588 604h352l-616 -629l539 -768h-340l-529 752l-110 -752h-295z" />
<glyph unicode="L" horiz-adv-x="1096" d="M78 0l203 1397h297l-168 -1155h612l-35 -242h-909z" />
<glyph unicode="M" horiz-adv-x="1964" d="M2 0l461 1397h301l219 -912l487 912h293l56 -1397h-287l-31 952l-512 -952h-141l-236 975l-317 -975h-293z" />
<glyph unicode="N" horiz-adv-x="1579" d="M78 0l203 1397h247l600 -908l134 908h292l-204 -1397h-250l-596 903l-133 -903h-293z" />
<glyph unicode="O" horiz-adv-x="1559" d="M109 602q0 225 99 411.5t275 294t396 107.5q176 0 317 -74.5t221 -214t80 -325.5q0 -219 -93 -406.5t-266 -300t-401 -112.5q-170 0 -313 67.5t-229 206.5t-86 346zM420 600q0 -164 86 -261t237 -97q138 0 238 80.5t151.5 207.5t51.5 258q0 160 -82 263.5t-234 103.5 q-139 0 -241.5 -85t-154.5 -214t-52 -256z" />
<glyph unicode="P" horiz-adv-x="1184" d="M78 0q125 864 201 1397h378q232 0 368 -100.5t136 -309.5q0 -205 -137 -331t-414 -126h-155l-76 -530h-301zM487 750h101q125 0 194.5 59t69.5 166q0 94 -63.5 148.5t-176.5 54.5h-63z" />
<glyph unicode="Q" horiz-adv-x="1559" d="M109 606q0 223 99 408.5t275 293t398 107.5q180 0 319 -75.5t218 -216t79 -326.5q0 -193 -71.5 -362t-208 -285.5t-322.5 -153.5q66 -201 260 -201q84 0 148.5 43t101.5 123h22q-32 -190 -131.5 -300t-285.5 -110q-344 0 -527 461q-178 56 -276 207.5t-98 386.5zM422 596 q0 -170 91 -263t228 -93q138 0 238 79.5t152.5 206.5t52.5 262q0 154 -81 260.5t-235 106.5q-137 0 -238.5 -83t-154.5 -212t-53 -264z" />
<glyph unicode="R" horiz-adv-x="1284" d="M78 0l198 1397h418q236 0 367 -94.5t131 -286.5q0 -158 -89 -254t-231 -127q50 -23 87.5 -68t91.5 -155l202 -412h-325l-162 336q-53 110 -91 160.5t-74 64.5t-95 14h-49l-82 -575h-297zM487 795h121h9q121 0 191 52q73 54 73 150q0 93 -56.5 137t-173.5 44h-106z" />
<glyph unicode="S" horiz-adv-x="1012" d="M49 94l39 254q191 -133 342 -133q84 0 130 45t46 117q0 61 -38 112.5t-152 147.5q-103 88 -157 152.5t-74.5 121t-20.5 123.5q0 99 50 186t152.5 141t251.5 54q185 0 361 -84l-39 -246q-145 97 -283 97q-92 0 -139 -44t-47 -108q0 -53 34 -97t124 -118 q110 -88 170.5 -153.5t87 -132t26.5 -152.5q0 -103 -49 -193t-151.5 -146t-255.5 -56q-105 0 -211.5 28.5t-196.5 83.5z" />
<glyph unicode="T" horiz-adv-x="1243" d="M139 1151l37 246h1155l-37 -246h-428l-170 -1151h-297l168 1151h-428z" />
<glyph unicode="U" horiz-adv-x="1536" d="M145 467q0 86 21 221l104 709h299l-110 -756q-10 -66 -10 -133q0 -127 77.5 -194.5t223.5 -67.5q305 0 356 336l121 815h299l-121 -852q-39 -271 -214 -417t-476 -146q-168 0 -297 59t-201 168.5t-72 257.5z" />
<glyph unicode="V" horiz-adv-x="1186" d="M143 1397h285l158 -862l409 862h305l-702 -1411h-166z" />
<glyph unicode="W" horiz-adv-x="1995" d="M119 1397h284l170 -873l424 873h172l220 -873l407 873h301l-682 -1411h-151l-238 876l-444 -876h-154z" />
<glyph unicode="X" horiz-adv-x="1401" d="M-72 0l635 721l-416 676h332l283 -453l399 453h367l-617 -699l430 -698h-337l-291 477l-416 -477h-369z" />
<glyph unicode="Y" horiz-adv-x="1167" d="M119 1397h299l190 -533l342 533h326l-541 -803l-88 -594h-297l90 600z" />
<glyph unicode="Z" horiz-adv-x="1296" d="M-76 0l961 1161h-715l35 238l1237 -2l-961 -1159h736l-37 -238h-1256z" />
<glyph unicode="[" horiz-adv-x="741" d="M49 -463l270 1860h525l-31 -213h-264l-211 -1434h264l-33 -213h-520z" />
<glyph unicode="\" horiz-adv-x="819" d="M117 1415h213l430 -1433h-213z" />
<glyph unicode="]" horiz-adv-x="741" d="M-131 -463l33 213h264l209 1434h-264l30 213h523l-269 -1860h-526z" />
<glyph unicode="^" horiz-adv-x="1112" d="M72 678l407 719h152l411 -719h-231l-256 475l-254 -475h-229z" />
<glyph unicode="_" horiz-adv-x="1024" d="M-12 -145h1048v-146h-1048v146z" />
<glyph unicode="`" horiz-adv-x="684" d="M221 1446h266l154 -322h-172z" />
<glyph unicode="a" horiz-adv-x="1122" d="M70 406q0 153 68.5 290.5t223 225.5t396.5 88q73 0 164.5 -9.5t150.5 -21.5l-145 -979h-277l15 98q-62 -59 -123.5 -86.5t-128.5 -27.5q-99 0 -176.5 51t-122.5 147.5t-45 223.5zM354 401q0 -88 40 -140t108 -52q49 0 101 27.5t95 68.5l74 490q-37 4 -61 4 q-113 0 -194 -58.5t-122 -150.5t-41 -189z" />
<glyph unicode="b" horiz-adv-x="1149" d="M59 8l199 1389h281l-72 -500q49 57 111.5 85t130.5 28q100 0 185 -58.5t135 -164t50 -236.5q0 -174 -74.5 -303t-220 -200t-350.5 -71q-166 0 -375 31zM367 215q36 -4 90 -4q157 0 244 85t87 255q0 106 -47 161.5t-123 55.5q-49 0 -100 -28.5t-88 -86.5z" />
<glyph unicode="c" horiz-adv-x="956" d="M74 446q0 132 67.5 262t212 216t361.5 86q131 0 248 -29l-37 -258q-64 22 -109 30.5t-96 8.5q-117 0 -199 -48t-122 -122t-40 -148q0 -96 61.5 -157.5t176.5 -61.5q70 0 137.5 20.5t167.5 73.5l-45 -288q-74 -29 -136.5 -41.5t-133.5 -12.5q-264 0 -389 129.5t-125 339.5 z" />
<glyph unicode="d" horiz-adv-x="1145" d="M74 449q0 131 67.5 260t205.5 215t339 86q74 0 131 -9l55 396h277l-197 -1387q-176 -33 -321 -33q-269 0 -413 129.5t-144 342.5zM367 446q0 -108 71.5 -171.5t194.5 -63.5q33 0 69 6l82 555q-43 6 -57 6q-172 0 -266 -94t-94 -238z" />
<glyph unicode="e" horiz-adv-x="1053" d="M74 446q0 148 66.5 278t184 208t263.5 78q112 0 203.5 -51.5t144.5 -149.5t53 -236q0 -71 -12 -129h-625v-38q0 -105 56.5 -166.5t158.5 -61.5q70 0 154 23.5t205 87.5l-43 -228q-86 -45 -164 -64.5t-170 -19.5q-225 0 -350 125t-125 344zM381 604h338v14q0 89 -33 141 t-104 52q-64 0 -116 -51t-85 -156z" />
<glyph unicode="f" horiz-adv-x="762" d="M49 702l33 216h176l12 79q62 418 443 418q108 0 225 -37l-33 -217q-69 27 -147 27q-99 0 -149 -53.5t-68 -182.5l-4 -34h256l-31 -216h-256l-156 -1110h-278l155 1110h-178z" />
<glyph unicode="g" horiz-adv-x="1014" d="M-39 -231q0 73 57.5 126.5t184.5 88.5q-70 30 -105 72t-35 98q0 71 56.5 114t150.5 62q-77 30 -130.5 112t-53.5 181q0 100 47 184t140.5 133t226.5 49h555l-29 -198h-156q39 -78 39 -158q0 -148 -99 -249t-306 -110q-111 -10 -145.5 -23t-34.5 -50q0 -33 36.5 -47.5 t143.5 -38.5l82 -19q162 -37 239.5 -103.5t77.5 -174.5q0 -133 -117.5 -216t-351.5 -83q-244 0 -358.5 62.5t-114.5 187.5zM211 -217q0 -45 60.5 -68.5t168.5 -23.5q199 0 199 90q0 47 -54.5 72.5t-209.5 46.5q-90 -31 -127 -55.5t-37 -61.5zM348 604q0 -72 38 -113.5 t99 -41.5q74 0 118 61t44 145q0 74 -37 116t-98 42q-82 0 -123 -66.5t-41 -142.5z" />
<glyph unicode="h" horiz-adv-x="1139" d="M57 0l205 1397h277l-78 -541q82 74 163 114t169 40q122 0 191 -80t69 -205q0 -57 -19 -178l-78 -547h-278l84 575q2 15 5 44.5t3 46.5q0 57 -25.5 87.5t-66.5 30.5q-53 0 -107.5 -38.5t-144.5 -135.5l-90 -610h-279z" />
<glyph unicode="i" horiz-adv-x="537" d="M57 0l142 989h282l-141 -989h-283zM240 1245q0 53 39.5 93t97.5 40q55 0 94 -40t39 -93q0 -57 -39 -97t-94 -40t-96 40t-41 97z" />
<glyph unicode="j" horiz-adv-x="543" d="M-180 -463l37 230q12 -3 41 -3q77 0 113 43t52 152l144 1030h278l-151 -1093q-25 -189 -128.5 -283t-256.5 -94q-53 0 -129 18zM246 1245q0 53 40 93t95 40q57 0 96 -39t39 -94q0 -57 -39 -97t-94 -40q-57 0 -97 40t-40 97z" />
<glyph unicode="k" horiz-adv-x="1092" d="M57 0l209 1397h275l-121 -830l371 422h329l-422 -483l394 -506h-316l-370 479l-70 -479h-279z" />
<glyph unicode="l" horiz-adv-x="539" d="M57 0l205 1397h281l-203 -1397h-283z" />
<glyph unicode="m" horiz-adv-x="1698" d="M57 0l146 989h276l-20 -137q149 154 311 154q84 0 144.5 -43t89.5 -127q157 170 331 170q135 0 206 -80t71 -209q0 -31 -5 -78t-8 -57l-83 -582h-279l86 592q6 41 6 82q0 53 -20.5 83.5t-61.5 30.5q-96 0 -231 -149l-90 -639h-279l80 549q14 94 14 135q0 102 -84 102 q-47 0 -103 -39.5t-128 -119.5l-90 -627h-279z" />
<glyph unicode="n" horiz-adv-x="1139" d="M57 0l146 989h278l-20 -137q92 82 171 118t156 36q127 0 196 -79t69 -218q0 -29 -5.5 -82.5t-9.5 -75.5l-84 -551h-278l84 553q12 98 12 117q0 53 -23.5 80.5t-66.5 27.5q-59 0 -121.5 -42t-134.5 -128l-90 -608h-279z" />
<glyph unicode="o" horiz-adv-x="1128" d="M76 436q0 160 70.5 291t193.5 207t274 76q123 0 224.5 -54.5t161 -159t59.5 -249.5q0 -156 -68.5 -287t-189.5 -207t-271 -76q-208 0 -331 125t-123 334zM360 426q0 -98 46.5 -153.5t134.5 -55.5q106 0 168.5 97.5t62.5 242.5q0 102 -48 158.5t-132 56.5q-74 0 -126 -53 t-79 -134t-27 -159z" />
<glyph unicode="p" horiz-adv-x="1180" d="M4 471q0 57 58.5 155.5t170.5 198.5l56 363h276l-28 -199q67 21 151 21q125 0 220.5 -55.5t148.5 -160t53 -247.5q0 -160 -69.5 -289t-197.5 -203.5t-296 -74.5q-43 0 -76 5t-80 17l-72 -465h-276l164 1096q-41 -47 -55 -66q-105 -127 -125 -127q-11 0 -17 9.5t-6 21.5z M422 211q31 -8 74 -8q163 0 244 103.5t81 244.5q0 127 -59.5 191.5t-165.5 64.5q-57 0 -88 -14z" />
<glyph unicode="q" horiz-adv-x="1120" d="M70 414q0 157 72.5 290.5t220 213t360.5 79.5h348l-209 -1460h-280l71 502q-116 -62 -221 -62q-108 0 -191 58.5t-127 158t-44 220.5zM356 412q0 -70 28 -118t68 -71.5t80 -23.5q43 0 76 10t76 29l78 528q-191 -2 -298.5 -93t-107.5 -261z" />
<glyph unicode="r" horiz-adv-x="799" d="M59 0l146 989h276l-24 -166q135 183 248 183q47 0 84.5 -20.5t84.5 -61.5l-133 -273q-49 86 -125 86q-55 0 -102 -46t-96 -130l-82 -561h-277z" />
<glyph unicode="s" horiz-adv-x="813" d="M18 76l37 211q183 -101 297 -101q45 0 69.5 21.5t24.5 54.5q0 37 -37.5 71t-148.5 118q-166 124 -166 268q0 80 41 145.5t120 104.5t189 39q84 0 160 -22.5t162 -76.5l-27 -213q-180 105 -295 105q-84 0 -84 -66q0 -28 24 -55t91 -74q119 -88 178.5 -158.5t59.5 -171.5 q0 -79 -43 -148t-125 -110t-193 -41q-80 0 -169 27t-165 72z" />
<glyph unicode="t" horiz-adv-x="776" d="M51 778l33 211h188l37 197h281l-37 -197h248l-33 -211h-256l-61 -325q-21 -103 -21 -140q0 -84 78 -84q43 0 100.5 22.5t102.5 53.5l-39 -266q-107 -62 -258 -62q-131 0 -200 67t-69 185q0 52 17 154l69 395h-180z" />
<glyph unicode="u" horiz-adv-x="1139" d="M90 272q0 52 12 121l86 596h277l-80 -573q-12 -62 -12 -107q0 -102 92 -102q51 0 107.5 38t146.5 130l88 614h278l-145 -989h-276l18 133q-100 -84 -178 -116.5t-152 -32.5q-131 0 -196.5 81.5t-65.5 206.5z" />
<glyph unicode="v" horiz-adv-x="940" d="M63 989h256l127 -565l291 565h275l-529 -1007h-178z" />
<glyph unicode="w" horiz-adv-x="1470" d="M63 989h246l123 -575l287 575h149l111 -575l295 575h270l-538 -1007h-166l-107 538l-278 -538h-164z" />
<glyph unicode="x" horiz-adv-x="1004" d="M-98 0l452 522l-268 467h295l141 -284l226 284h323l-422 -500l283 -489h-293l-160 309l-250 -309h-327z" />
<glyph unicode="y" horiz-adv-x="961" d="M33 989h264l170 -586l283 586h274l-707 -1458h-274l264 543z" />
<glyph unicode="z" horiz-adv-x="1038" d="M6 0v16l561 764h-446l31 209h862v-20l-551 -754h465l-37 -215h-885z" />
<glyph unicode="{" horiz-adv-x="756" d="M39 367v237q119 6 163 76t44 213v141q0 129 27.5 212t102.5 130t212 47h121v-233h-39q-97 0 -129.5 -41t-32.5 -152v-166q0 -124 -42 -208t-149 -138q93 -43 142 -134t49 -212v-166q0 -73 12 -113t47 -59.5t105 -19.5h37v-234h-125q-170 0 -254 85t-84 266v170 q0 151 -43 220.5t-164 78.5z" />
<glyph unicode="|" horiz-adv-x="578" d="M211 -481v1890h217v-1890h-217z" />
<glyph unicode="}" horiz-adv-x="756" d="M45 -219h39q70 0 104.5 19.5t47 59.5t12.5 113v166q0 121 48 213t140 133q-104 54 -146 138t-42 208v166q0 111 -34 152t-128 41h-41v233h121q139 0 214 -47t102.5 -130t27.5 -212v-141q0 -145 43 -214t164 -75v-237q-121 -9 -164 -78.5t-43 -220.5v-170q0 -181 -85 -266 t-253 -85h-127v234z" />
<glyph unicode="~" horiz-adv-x="1147" d="M111 537v237q71 70 135.5 102.5t138.5 32.5q55 0 108.5 -20.5t127.5 -61.5q67 -36 112 -54.5t88 -18.5q62 0 121 36.5t137 122.5v-237q-71 -70 -135.5 -102.5t-134.5 -32.5q-57 0 -112.5 22.5t-133.5 63.5q-63 35 -106 52t-82 17q-66 0 -129.5 -40t-134.5 -119z" />
<glyph unicode="&#xa1;" horiz-adv-x="610" d="M31 -268q0 53 14 116.5t45 167.5q8 25 33 115q31 123 51 195q19 65 62 245h163l-4 -53q-20 -377 -26 -627q-4 -141 -47 -223t-146 -82q-57 0 -101 34t-44 112zM180 834q0 71 51.5 123.5t124.5 52.5q74 0 125 -52.5t51 -123.5q0 -72 -52 -123.5t-124 -51.5 q-73 0 -124.5 52.5t-51.5 122.5z" />
<glyph unicode="&#xa2;" d="M137 446q0 138 66.5 263t199 206.5t320.5 90.5q49 4 74 2l125 342l94 -33l-117 -316q70 -6 125 -20l-37 -260q-104 33 -180 39l-195 -531q35 -6 54 -6q61 0 128.5 22.5t170.5 80.5l-45 -301q-123 -45 -267 -45q-75 0 -129 12l-125 -332l-90 35l117 319q-133 43 -211 163 t-78 269zM424 444q0 -133 96 -188l178 496q-127 -25 -200.5 -112t-73.5 -196z" />
<glyph unicode="&#xa3;" d="M104 -18l183 606h-166l61 196h168q103 316 229 473.5t316 157.5q49 0 100.5 -12t122.5 -55l-37 -261q-90 56 -155 56q-95 0 -155 -82t-130 -277h217l-63 -196h-215l-105 -336q53 6 74 6q31 0 69.5 -6t51.5 -8q75 -15 118 -15q111 0 263 62l-41 -277q-115 -32 -262 -32 q-84 0 -189 14q-100 14 -188 14q-70 0 -170 -14q-86 -12 -97 -14z" />
<glyph unicode="&#xa4;" horiz-adv-x="1137" d="M74 348l131 135q-58 105 -58 219q0 113 58 218l-131 131l159 172l140 -138q104 62 221 62t219 -62l135 138l166 -168l-135 -135q57 -101 57 -220q0 -114 -57 -217l137 -135l-168 -168l-135 135q-113 -57 -219 -57q-107 0 -221 57l-129 -135zM385 702q0 -86 61.5 -147 t145.5 -61q86 0 147.5 61t61.5 147q0 84 -61.5 145.5t-147.5 61.5q-84 0 -145.5 -60.5t-61.5 -146.5z" />
<glyph unicode="&#xa5;" d="M45 295l23 147h333l23 156h-334l23 150h270l-254 649h299l180 -508l301 508h322l-426 -649h278l-22 -150h-344l-23 -156h346l-22 -147h-346l-43 -295h-295l45 295h-334z" />
<glyph unicode="&#xa6;" horiz-adv-x="578" d="M211 305h217v-801h-217v801zM211 606v801h217v-801h-217z" />
<glyph unicode="&#xa7;" horiz-adv-x="1133" d="M47 -201q0 25 4 33l236 80l-2 -35q0 -65 46 -105t113 -40q64 0 110 32.5t46 79.5q0 33 -14.5 60.5t-56.5 64.5t-130 103q-157 114 -231 217.5t-74 208.5q0 118 80 216.5t217 141.5q-49 59 -72.5 113.5t-23.5 111.5q0 76 41 152t137 129t252 53q111 0 191.5 -34.5 t122.5 -94t42 -131.5q0 -33 -4 -61l-225 -56q10 27 10 47q0 56 -39 90.5t-112 34.5q-70 0 -112 -32.5t-42 -77.5t40 -93.5t138 -117.5q166 -121 246 -216t80 -218q0 -113 -70.5 -209t-204.5 -158q103 -111 103 -242q0 -84 -52.5 -158.5t-150.5 -121.5t-233 -47 q-179 0 -292.5 74.5t-113.5 205.5zM375 530q0 -53 55 -111.5t172 -152.5l45 -37q62 33 99.5 81t37.5 100q0 51 -35.5 101t-83 90t-133.5 106q-69 -21 -113 -68t-44 -109z" />
<glyph unicode="&#xa8;" horiz-adv-x="684" d="M96 1280q0 57 41 97t99 40q55 0 96 -40t41 -97t-40 -98t-97 -41q-58 0 -99 41t-41 98zM528 1280q0 55 40 96t98 41q57 0 97 -41t40 -96q0 -57 -40 -98t-97 -41q-58 0 -98 41t-40 98z" />
<glyph unicode="&#xa9;" horiz-adv-x="1630" d="M115 713q0 194 97 362t265 268.5t369 100.5q196 0 364 -97.5t266.5 -265.5t98.5 -368q0 -195 -96.5 -363t-264 -267t-368.5 -99q-195 0 -363 96t-268 263t-100 370zM207 713q0 -174 87 -321.5t233.5 -232.5t318.5 -85q176 0 322.5 87t230.5 234.5t84 319.5 q0 174 -86 320.5t-231.5 232.5t-317.5 86q-174 0 -321.5 -86t-233.5 -233.5t-86 -321.5zM434 705q0 114 51.5 212.5t152.5 157t247 58.5q135 0 264 -48v-170q-117 56 -225 56q-131 0 -206 -74t-75 -188q0 -119 78 -191t205 -72q53 0 106 12.5t121 45.5v-168 q-78 -29 -137.5 -41t-126.5 -12q-144 0 -246 54t-155.5 149.5t-53.5 218.5z" />
<glyph unicode="&#xaa;" horiz-adv-x="756" d="M121 1020q0 100 45 189t150.5 147.5t277.5 58.5q86 0 201 -20l-97 -604h-204l10 49q-76 -64 -172 -64q-92 0 -151.5 63.5t-59.5 180.5zM330 1036q0 -108 82 -108q57 0 114 55l45 279q-4 2 -16 2q-80 0 -131 -38t-72.5 -90.5t-21.5 -99.5z" />
<glyph unicode="&#xab;" horiz-adv-x="1071" d="M41 512l334 473h254l-348 -487l215 -498h-242zM537 512l334 473h254l-348 -487l215 -498h-242z" />
<glyph unicode="&#xac;" horiz-adv-x="1147" d="M111 821v213h966v-657h-213v444h-753z" />
<glyph unicode="&#xad;" horiz-adv-x="819" d="M78 356l41 267h614l-39 -267h-616z" />
<glyph unicode="&#xae;" horiz-adv-x="1630" d="M115 713q0 194 97 362t265 268.5t369 100.5q196 0 364 -97.5t266.5 -265.5t98.5 -368q0 -195 -96.5 -363t-264 -267t-368.5 -99q-195 0 -363 96t-268 263t-100 370zM207 713q0 -174 87 -321.5t233.5 -232.5t318.5 -85q176 0 322.5 87t230.5 234.5t84 319.5 q0 174 -86 320.5t-231.5 232.5t-317.5 86q-174 0 -321.5 -86t-233.5 -233.5t-86 -321.5zM514 311v811h369q112 0 198 -50t86 -171q0 -88 -61.5 -148.5t-161.5 -74.5q51 -16 84 -50t74 -100l141 -217h-217l-111 193q-41 76 -71.5 99.5t-87.5 23.5h-56v-316h-186zM700 760h105 q76 0 119 28.5t43 90.5q0 110 -156 110h-111v-229z" />
<glyph unicode="&#xaf;" horiz-adv-x="1024" d="M-12 1526v146h1048v-146h-1048z" />
<glyph unicode="&#xb0;" horiz-adv-x="819" d="M215 1133q0 75 38 140.5t103.5 103.5t143.5 38t143.5 -39t103 -103.5t37.5 -139.5q0 -78 -37.5 -142.5t-103 -103.5t-143.5 -39t-143.5 38t-103.5 103.5t-38 143.5zM373 1130q0 -51 38 -88.5t89 -37.5q49 0 88 37.5t39 88.5q0 52 -38 89.5t-91 37.5q-49 0 -87 -36.5 t-38 -90.5z" />
<glyph unicode="&#xb1;" horiz-adv-x="1147" d="M111 2v215h968v-215h-968zM111 715v215h374v356h217v-356h377v-215h-377v-357h-217v357h-374z" />
<glyph unicode="&#xb2;" horiz-adv-x="692" d="M158 1018v24q225 215 306 323t81 167q0 33 -21.5 52.5t-64.5 19.5q-84 0 -195 -76l29 164q110 57 209 57q123 -2 182 -60.5t59 -132.5q0 -81 -51 -164t-186 -216h235l-26 -158h-557z" />
<glyph unicode="&#xb3;" horiz-adv-x="692" d="M180 1049l27 145q67 -31 112.5 -43t86.5 -12q59 0 94 26.5t35 67.5t-35 64.5t-92 23.5h-39l20 131h47q60 0 104 24.5t44 69.5q0 33 -27 51.5t-76 18.5q-84 0 -205 -55l31 151q99 41 211 41q127 0 193.5 -56.5t66.5 -135.5q0 -58 -38 -108t-103 -69q47 -22 73.5 -69 t26.5 -94q0 -97 -84 -159.5t-227 -62.5q-119 0 -246 50z" />
<glyph unicode="&#xb4;" horiz-adv-x="684" d="M201 1124l219 322h315l-362 -322h-172z" />
<glyph unicode="&#xb5;" horiz-adv-x="1227" d="M-6 -479l215 1468h280l-75 -510q-11 -71 -11 -106q0 -72 38 -116t114 -44q84 0 129 47t59 143l86 586h279l-84 -571q-14 -86 -14 -119q0 -88 77 -88q43 0 93 14l-35 -221q-82 -24 -168 -24q-183 0 -228 129q-51 -72 -107 -100.5t-120 -28.5q-51 0 -96 23.5t-72 68.5 l-82 -551h-278z" />
<glyph unicode="&#xb6;" horiz-adv-x="1044" d="M125 1083q0 146 101.5 230t277.5 84h518l-55 -131h-95v-1266h-143v1266h-117v-1266h-145v772q-164 2 -253 88t-89 223z" />
<glyph unicode="&#xb7;" horiz-adv-x="545" d="M117 674q0 74 53 126t127 52t127 -53.5t53 -124.5q0 -72 -52 -126t-128 -54q-74 0 -127 53t-53 127z" />
<glyph unicode="&#xb8;" horiz-adv-x="684" d="M25 -414l43 127q73 -26 135 -26q47 0 73.5 21.5t26.5 58.5q0 36 -25.5 57.5t-84.5 23.5l61 164h127l-29 -82q82 -12 123 -58t41 -114q0 -92 -73.5 -151.5t-209.5 -59.5q-98 0 -208 39z" />
<glyph unicode="&#xb9;" horiz-adv-x="692" d="M342 1018l127 713h199l-127 -713h-199z" />
<glyph unicode="&#xba;" horiz-adv-x="741" d="M121 1061q0 94 45 175t128 130t189 49q131 0 215 -77.5t84 -209.5q0 -98 -44 -178t-125 -127t-183 -47q-143 0 -226 83t-83 202zM328 1055q0 -51 27.5 -81t74.5 -30q66 0 104.5 51.5t38.5 134.5q0 48 -24.5 82.5t-77.5 34.5q-59 0 -101 -53t-42 -139z" />
<glyph unicode="&#xbb;" horiz-adv-x="1071" d="M-51 0l346 487l-213 498h242l213 -512l-334 -473h-254zM444 0l349 487l-215 498h241l213 -512l-334 -473h-254z" />
<glyph unicode="&#xbc;" horiz-adv-x="1681" d="M150 -51l1013 1466h183l-1010 -1466h-186zM173 1075l33 166q150 64 246 160h129l-129 -723h-195l86 475q-82 -53 -170 -78zM827 164v115l426 444h164l-76 -426h113l-23 -133h-114l-29 -164h-180l31 164h-312zM1022 297h141l33 178z" />
<glyph unicode="&#xbd;" horiz-adv-x="1681" d="M164 -51l1013 1466h183l-1010 -1466h-186zM185 1075l33 166q150 64 246 160h129l-129 -723h-195l86 475q-82 -53 -170 -78zM905 0v25q225 215 306 322.5t81 166.5q0 33 -21.5 52.5t-64.5 19.5q-84 0 -194 -76l28 164q111 57 209 57q123 -2 182.5 -60.5t59.5 -131.5 q0 -82 -51.5 -165t-186.5 -216h236l-27 -158h-557z" />
<glyph unicode="&#xbe;" horiz-adv-x="1681" d="M115 711l26 145q68 -31 113 -43t86 -12q59 0 94 26.5t35 67.5t-35 64.5t-92 23.5h-39l21 131h47q59 0 103 24.5t44 69.5q0 33 -26.5 51.5t-75.5 18.5q-84 0 -205 -55l31 151q98 41 211 41q127 0 193.5 -56t66.5 -136q0 -58 -38 -108t-104 -68q47 -23 74 -70t27 -94 q0 -97 -84 -159t-228 -62q-118 0 -245 49zM267 -51l1013 1466h183l-1010 -1466h-186zM938 164v115l426 444h164l-76 -426h113l-23 -133h-114l-29 -164h-180l31 164h-312zM1133 297h141l33 178z" />
<glyph unicode="&#xbf;" horiz-adv-x="813" d="M0 -98q0 90 39 163.5t141 167.5q111 105 163 177.5t67 160.5h215q-2 -129 -60.5 -240.5t-167.5 -226.5q-55 -59 -78.5 -99t-23.5 -75q0 -53 36 -81.5t87 -28.5q57 0 127.5 33.5t140.5 97.5l-41 -279q-137 -94 -303 -94q-156 0 -249 87t-93 237zM367 834q0 75 52 125.5 t124 50.5q71 0 123.5 -52.5t52.5 -123.5q0 -72 -52.5 -123.5t-123.5 -51.5q-72 0 -124 51.5t-52 123.5z" />
<glyph unicode="&#xc0;" horiz-adv-x="1260" d="M-59 0l675 1399h308l262 -1399h-305l-54 354h-421l-160 -354h-305zM485 535h316l-78 538zM512 1796h273l153 -305h-172z" />
<glyph unicode="&#xc1;" horiz-adv-x="1260" d="M-59 0l675 1399h308l262 -1399h-305l-54 354h-421l-160 -354h-305zM485 535h316l-78 538zM608 1491l219 305h324l-371 -305h-172z" />
<glyph unicode="&#xc2;" horiz-adv-x="1260" d="M-59 0l675 1399h308l262 -1399h-305l-54 354h-421l-160 -354h-305zM418 1487l258 309h297l148 -309h-168l-136 172l-225 -172h-174zM485 535h316l-78 538z" />
<glyph unicode="&#xc3;" horiz-adv-x="1260" d="M-59 0l675 1399h308l262 -1399h-305l-54 354h-421l-160 -354h-305zM437 1493q28 279 211 279q43 0 78.5 -15.5t78.5 -42.5q33 -20 52.5 -29.5t37.5 -9.5q35 0 55.5 30t26.5 67h144q-6 -136 -61.5 -208.5t-145.5 -72.5q-37 0 -72 14.5t-80 42.5q-6 4 -28.5 16.5t-40 18.5 t-31.5 6q-29 0 -53.5 -26.5t-26.5 -69.5h-145zM485 535h316l-78 538z" />
<glyph unicode="&#xc4;" horiz-adv-x="1260" d="M-59 0l675 1399h308l262 -1399h-305l-54 354h-421l-160 -354h-305zM447 1622q0 53 38 90t89 37q53 0 90 -37t37 -90q0 -51 -37 -89t-90 -38q-51 0 -89 38t-38 89zM485 535h316l-78 538zM875 1622q0 53 38 90t89 37q53 0 90 -37t37 -90q0 -51 -37 -89t-90 -38 q-51 0 -89 38t-38 89z" />
<glyph unicode="&#xc5;" horiz-adv-x="1260" d="M-59 0l675 1399h308l262 -1399h-305l-54 354h-421l-160 -354h-305zM485 535h316l-78 538zM565 1507q0 86 60.5 147.5t146.5 61.5q84 0 146.5 -62.5t62.5 -146.5q0 -86 -61.5 -146.5t-147.5 -60.5t-146.5 60.5t-60.5 146.5zM666 1507q0 -45 30.5 -76t75.5 -31t77 31t32 76 t-32 76.5t-77 31.5t-75.5 -31.5t-30.5 -76.5z" />
<glyph unicode="&#xc6;" horiz-adv-x="1888" d="M-98 0l852 1397h1101l-30 -219h-549l-51 -353h485l-33 -219h-485l-55 -387h690l-31 -219h-983l66 440h-379l-262 -440h-336zM604 618h299l82 564h-59z" />
<glyph unicode="&#xc7;" horiz-adv-x="1278" d="M100 600q0 213 102.5 399.5t307.5 301t498 114.5q69 0 153 -9t154 -26l-51 -268q-136 41 -258 41q-183 0 -318 -71.5t-205.5 -193.5t-70.5 -267q0 -162 90 -270.5t258 -108.5q119 0 240.5 48t238.5 134l-49 -326q-133 -61 -239.5 -88.5t-207.5 -27.5q-204 0 -349.5 79.5 t-219.5 220t-74 318.5zM424 -414l43 127q73 -26 135 -26q47 0 73.5 21.5t26.5 58.5q0 36 -25.5 57.5t-84.5 23.5l61 164h127l-29 -82q82 -12 123 -58t41 -114q0 -92 -73.5 -151.5t-209.5 -59.5q-98 0 -208 39z" />
<glyph unicode="&#xc8;" horiz-adv-x="1184" d="M94 0l203 1397h856l-29 -219h-561l-49 -353h489l-31 -219h-491l-55 -387h700l-31 -219h-1001zM456 1796h273l153 -305h-172z" />
<glyph unicode="&#xc9;" horiz-adv-x="1184" d="M94 0l203 1397h856l-29 -219h-561l-49 -353h489l-31 -219h-491l-55 -387h700l-31 -219h-1001zM561 1491l219 305h324l-371 -305h-172z" />
<glyph unicode="&#xca;" horiz-adv-x="1184" d="M94 0l203 1397h856l-29 -219h-561l-49 -353h489l-31 -219h-491l-55 -387h700l-31 -219h-1001zM375 1487l258 309h297l148 -309h-168l-136 172l-225 -172h-174z" />
<glyph unicode="&#xcb;" horiz-adv-x="1184" d="M94 0l203 1397h856l-29 -219h-561l-49 -353h489l-31 -219h-491l-55 -387h700l-31 -219h-1001zM395 1622q0 53 38 90t89 37q53 0 90 -37t37 -90q0 -51 -37 -89t-90 -38q-51 0 -89 38t-38 89zM823 1622q0 53 38 90t89 37q53 0 90 -37t37 -90q0 -51 -37 -89t-90 -38 q-51 0 -89 38t-38 89z" />
<glyph unicode="&#xcc;" horiz-adv-x="604" d="M78 0l203 1397h299l-205 -1397h-297zM171 1796h273l153 -305h-172z" />
<glyph unicode="&#xcd;" horiz-adv-x="604" d="M78 0l203 1397h299l-205 -1397h-297zM277 1491l219 305h324l-371 -305h-172z" />
<glyph unicode="&#xce;" horiz-adv-x="604" d="M78 0l203 1397h299l-205 -1397h-297zM87 1487l258 309h297l148 -309h-168l-136 172l-225 -172h-174z" />
<glyph unicode="&#xcf;" horiz-adv-x="604" d="M78 0l203 1397h299l-205 -1397h-297zM114 1622q0 53 38 90t89 37q53 0 90 -37t37 -90q0 -51 -37 -89t-90 -38q-51 0 -89 38t-38 89zM542 1622q0 53 38 90t89 37q53 0 90 -37t37 -90q0 -51 -37 -89t-90 -38q-51 0 -89 38t-38 89z" />
<glyph unicode="&#xd0;" horiz-adv-x="1495" d="M6 610l25 176h162l88 611h337q252 0 432.5 -82t275.5 -237.5t95 -370.5q0 -195 -66.5 -338.5t-193.5 -231.5q-110 -80 -256.5 -108.5t-372.5 -28.5h-452l88 610h-162zM410 221h192q250 0 383 131t133 353q0 143 -62.5 249.5t-178 164t-273.5 57.5h-57l-55 -390h301 l-25 -176h-303z" />
<glyph unicode="&#xd1;" horiz-adv-x="1612" d="M94 0l203 1397h247l600 -908l134 908h292l-204 -1397h-250l-596 903l-133 -903h-293zM613 1493q28 279 211 279q43 0 78.5 -15.5t78.5 -42.5q33 -20 52.5 -29.5t37.5 -9.5q35 0 55.5 30t26.5 67h144q-6 -136 -61.5 -208.5t-145.5 -72.5q-37 0 -72 14.5t-80 42.5 q-6 4 -28.5 16.5t-40 18.5t-31.5 6q-29 0 -53.5 -26.5t-26.5 -69.5h-145z" />
<glyph unicode="&#xd2;" horiz-adv-x="1559" d="M109 602q0 225 99 411.5t275 294t396 107.5q176 0 317 -74.5t221 -214t80 -325.5q0 -219 -93 -406.5t-266 -300t-401 -112.5q-170 0 -313 67.5t-229 206.5t-86 346zM420 600q0 -164 86 -261t237 -97q138 0 238 80.5t151.5 207.5t51.5 258q0 160 -82 263.5t-234 103.5 q-139 0 -241.5 -85t-154.5 -214t-52 -256zM645 1796h273l153 -305h-172z" />
<glyph unicode="&#xd3;" horiz-adv-x="1559" d="M109 602q0 225 99 411.5t275 294t396 107.5q176 0 317 -74.5t221 -214t80 -325.5q0 -219 -93 -406.5t-266 -300t-401 -112.5q-170 0 -313 67.5t-229 206.5t-86 346zM420 600q0 -164 86 -261t237 -97q138 0 238 80.5t151.5 207.5t51.5 258q0 160 -82 263.5t-234 103.5 q-139 0 -241.5 -85t-154.5 -214t-52 -256zM719 1491l219 305h324l-371 -305h-172z" />
<glyph unicode="&#xd4;" horiz-adv-x="1559" d="M109 602q0 225 99 411.5t275 294t396 107.5q176 0 317 -74.5t221 -214t80 -325.5q0 -219 -93 -406.5t-266 -300t-401 -112.5q-170 0 -313 67.5t-229 206.5t-86 346zM420 600q0 -164 86 -261t237 -97q138 0 238 80.5t151.5 207.5t51.5 258q0 160 -82 263.5t-234 103.5 q-139 0 -241.5 -85t-154.5 -214t-52 -256zM543 1487l258 309h297l148 -309h-168l-136 172l-225 -172h-174z" />
<glyph unicode="&#xd5;" horiz-adv-x="1559" d="M109 602q0 225 99 411.5t275 294t396 107.5q176 0 317 -74.5t221 -214t80 -325.5q0 -219 -93 -406.5t-266 -300t-401 -112.5q-170 0 -313 67.5t-229 206.5t-86 346zM420 600q0 -164 86 -261t237 -97q138 0 238 80.5t151.5 207.5t51.5 258q0 160 -82 263.5t-234 103.5 q-139 0 -241.5 -85t-154.5 -214t-52 -256zM557 1493q28 279 211 279q43 0 78.5 -15.5t78.5 -42.5q33 -20 52.5 -29.5t37.5 -9.5q35 0 55.5 30t26.5 67h144q-6 -136 -61.5 -208.5t-145.5 -72.5q-37 0 -72 14.5t-80 42.5q-6 4 -28.5 16.5t-40 18.5t-31.5 6q-29 0 -53.5 -26.5 t-26.5 -69.5h-145z" />
<glyph unicode="&#xd6;" horiz-adv-x="1559" d="M109 602q0 225 99 411.5t275 294t396 107.5q176 0 317 -74.5t221 -214t80 -325.5q0 -219 -93 -406.5t-266 -300t-401 -112.5q-170 0 -313 67.5t-229 206.5t-86 346zM420 600q0 -164 86 -261t237 -97q138 0 238 80.5t151.5 207.5t51.5 258q0 160 -82 263.5t-234 103.5 q-139 0 -241.5 -85t-154.5 -214t-52 -256zM565 1622q0 53 38 90t89 37q53 0 90 -37t37 -90q0 -51 -37 -89t-90 -38q-51 0 -89 38t-38 89zM993 1622q0 53 38 90t89 37q53 0 90 -37t37 -90q0 -51 -37 -89t-90 -38q-51 0 -89 38t-38 89z" />
<glyph unicode="&#xd7;" horiz-adv-x="1147" d="M109 369l333 342l-329 327l149 154l330 -332l342 334l149 -150l-338 -333l334 -338l-149 -152l-338 338l-334 -342z" />
<glyph unicode="&#xd8;" horiz-adv-x="1559" d="M109 602q0 225 99 411.5t275 294t396 107.5q221 0 376 -115l115 134l107 -91l-119 -135q67 -78 103 -181t36 -226q0 -219 -93 -406.5t-266 -300t-401 -112.5q-217 0 -372 102l-146 -166l-102 88l143 166q-151 162 -151 430zM420 600q0 -113 45 -197l598 682 q-80 70 -195 70q-139 0 -241.5 -85t-154.5 -214t-52 -256zM557 299q70 -57 186 -57q138 0 238 80.5t151.5 207.5t51.5 258q0 99 -35 185z" />
<glyph unicode="&#xd9;" horiz-adv-x="1536" d="M145 467q0 86 21 221l104 709h299l-110 -756q-10 -66 -10 -133q0 -127 77.5 -194.5t223.5 -67.5q305 0 356 336l121 815h299l-121 -852q-39 -271 -214 -417t-476 -146q-168 0 -297 59t-201 168.5t-72 257.5zM608 1796h273l153 -305h-172z" />
<glyph unicode="&#xda;" horiz-adv-x="1536" d="M145 467q0 86 21 221l104 709h299l-110 -756q-10 -66 -10 -133q0 -127 77.5 -194.5t223.5 -67.5q305 0 356 336l121 815h299l-121 -852q-39 -271 -214 -417t-476 -146q-168 0 -297 59t-201 168.5t-72 257.5zM751 1491l219 305h324l-371 -305h-172z" />
<glyph unicode="&#xdb;" horiz-adv-x="1536" d="M145 467q0 86 21 221l104 709h299l-110 -756q-10 -66 -10 -133q0 -127 77.5 -194.5t223.5 -67.5q305 0 356 336l121 815h299l-121 -852q-39 -271 -214 -417t-476 -146q-168 0 -297 59t-201 168.5t-72 257.5zM551 1487l258 309h297l148 -309h-168l-136 172l-225 -172h-174 z" />
<glyph unicode="&#xdc;" horiz-adv-x="1536" d="M145 467q0 86 21 221l104 709h299l-110 -756q-10 -66 -10 -133q0 -127 77.5 -194.5t223.5 -67.5q305 0 356 336l121 815h299l-121 -852q-39 -271 -214 -417t-476 -146q-168 0 -297 59t-201 168.5t-72 257.5zM580 1622q0 53 38 90t89 37q53 0 90 -37t37 -90q0 -51 -37 -89 t-90 -38q-51 0 -89 38t-38 89zM1008 1622q0 53 38 90t89 37q53 0 90 -37t37 -90q0 -51 -37 -89t-90 -38q-51 0 -89 38t-38 89z" />
<glyph unicode="&#xdd;" horiz-adv-x="1167" d="M119 1397h299l190 -533l342 533h326l-541 -803l-88 -594h-297l90 600zM573 1491l219 305h324l-371 -305h-172z" />
<glyph unicode="&#xde;" horiz-adv-x="1184" d="M78 0l178 1227l25 170h299l-39 -267h77q234 0 369 -99t135 -310q0 -203 -137 -330t-414 -127h-155l-37 -264h-301zM446 469h103q125 0 195.5 62.5t70.5 177.5q0 102 -66.5 160.5t-187.5 58.5h-47z" />
<glyph unicode="&#xdf;" horiz-adv-x="1147" d="M57 0l138 920q36 249 145 372t332 123q194 0 300.5 -93t106.5 -243q0 -110 -58 -189t-169 -116q106 -43 157.5 -131t51.5 -201q0 -114 -49 -220.5t-147.5 -173t-239.5 -66.5q-86 0 -148 18l33 215q41 -10 86 -10q80 0 129 71.5t49 192.5q0 98 -50 153.5t-142 63.5l30 201 q99 0 143 48t44 128q0 63 -38 101t-99 38q-82 0 -122 -63.5t-65 -223.5l-135 -915h-283z" />
<glyph unicode="&#xe0;" horiz-adv-x="1128" d="M70 406q0 153 68.5 290.5t223 225.5t396.5 88q73 0 164.5 -9.5t150.5 -21.5l-145 -979h-277l15 98q-62 -59 -123.5 -86.5t-128.5 -27.5q-99 0 -176.5 51t-122.5 147.5t-45 223.5zM354 401q0 -88 40 -140t108 -52q49 0 101 27.5t95 68.5l74 490q-37 4 -61 4 q-113 0 -194 -58.5t-122 -150.5t-41 -189zM457 1446h266l154 -322h-172z" />
<glyph unicode="&#xe1;" horiz-adv-x="1128" d="M70 406q0 153 68.5 290.5t223 225.5t396.5 88q73 0 164.5 -9.5t150.5 -21.5l-145 -979h-277l15 98q-62 -59 -123.5 -86.5t-128.5 -27.5q-99 0 -176.5 51t-122.5 147.5t-45 223.5zM354 401q0 -88 40 -140t108 -52q49 0 101 27.5t95 68.5l74 490q-37 4 -61 4 q-113 0 -194 -58.5t-122 -150.5t-41 -189zM549 1124l219 322h315l-362 -322h-172z" />
<glyph unicode="&#xe2;" horiz-adv-x="1128" d="M70 406q0 153 68.5 290.5t223 225.5t396.5 88q73 0 164.5 -9.5t150.5 -21.5l-145 -979h-277l15 98q-62 -59 -123.5 -86.5t-128.5 -27.5q-99 0 -176.5 51t-122.5 147.5t-45 223.5zM354 401q0 -88 40 -140t108 -52q49 0 101 27.5t95 68.5l74 490q-37 4 -61 4 q-113 0 -194 -58.5t-122 -150.5t-41 -189zM366 1124l246 322h299l135 -322h-168l-123 185l-215 -185h-174z" />
<glyph unicode="&#xe3;" horiz-adv-x="1128" d="M70 406q0 153 68.5 290.5t223 225.5t396.5 88q73 0 164.5 -9.5t150.5 -21.5l-145 -979h-277l15 98q-62 -59 -123.5 -86.5t-128.5 -27.5q-99 0 -176.5 51t-122.5 147.5t-45 223.5zM354 401q0 -88 40 -140t108 -52q49 0 101 27.5t95 68.5l74 490q-37 4 -61 4 q-113 0 -194 -58.5t-122 -150.5t-41 -189zM363 1145q28 280 209 280q43 0 77.5 -15t81.5 -44q23 -14 46.5 -26.5t41.5 -12.5q35 0 56.5 29.5t25.5 66.5h144q-7 -133 -62 -205.5t-143 -72.5q-37 0 -69 13t-85 44q-6 4 -28.5 16.5t-40 18.5t-31.5 6q-29 0 -52.5 -26.5 t-27.5 -71.5h-143z" />
<glyph unicode="&#xe4;" horiz-adv-x="1128" d="M70 406q0 153 68.5 290.5t223 225.5t396.5 88q73 0 164.5 -9.5t150.5 -21.5l-145 -979h-277l15 98q-62 -59 -123.5 -86.5t-128.5 -27.5q-99 0 -176.5 51t-122.5 147.5t-45 223.5zM354 401q0 -88 40 -140t108 -52q49 0 101 27.5t95 68.5l74 490q-37 4 -61 4 q-113 0 -194 -58.5t-122 -150.5t-41 -189zM372 1280q0 57 41 97t99 40q55 0 96 -40t41 -97t-40 -98t-97 -41q-58 0 -99 41t-41 98zM804 1280q0 55 40 96t98 41q57 0 97 -41t40 -96q0 -57 -40 -98t-97 -41q-58 0 -98 41t-40 98z" />
<glyph unicode="&#xe5;" horiz-adv-x="1128" d="M70 406q0 153 68.5 290.5t223 225.5t396.5 88q73 0 164.5 -9.5t150.5 -21.5l-145 -979h-277l15 98q-62 -59 -123.5 -86.5t-128.5 -27.5q-99 0 -176.5 51t-122.5 147.5t-45 223.5zM354 401q0 -88 40 -140t108 -52q49 0 101 27.5t95 68.5l74 490q-37 4 -61 4 q-113 0 -194 -58.5t-122 -150.5t-41 -189zM518 1327q0 86 60.5 147.5t146.5 61.5t147.5 -61.5t61.5 -147.5q0 -84 -61.5 -144.5t-147.5 -60.5t-146.5 60.5t-60.5 144.5zM616 1327q0 -45 32 -75.5t77 -30.5t77.5 30.5t32.5 75.5t-32.5 78t-77.5 33t-77 -33t-32 -78z" />
<glyph unicode="&#xe6;" horiz-adv-x="1499" d="M23 223q0 150 139 240t409 119q13 80 13 108q0 49 -28 76t-79 27q-63 0 -146 -39t-169 -107l37 254q96 57 168.5 83t152.5 26q78 0 135.5 -23.5t104.5 -77.5q110 101 274 101q115 0 206 -51.5t143.5 -151.5t52.5 -240q0 -75 -13 -137h-624v-24q0 -105 55 -166.5 t158 -61.5q69 0 154 23.5t206 87.5l-43 -228q-86 -45 -164 -64.5t-170 -19.5q-235 0 -360 144q-103 -80 -179.5 -112t-154.5 -32q-123 0 -200.5 69t-77.5 177zM295 254q0 -37 22.5 -60.5t65.5 -23.5q31 0 62.5 13.5t72.5 41.5l29 181q-109 -19 -180.5 -58t-71.5 -94z M825 590h340v22q0 93 -33.5 146t-107.5 53q-141 0 -199 -221z" />
<glyph unicode="&#xe7;" horiz-adv-x="956" d="M74 446q0 132 67.5 262t212 216t361.5 86q131 0 248 -29l-37 -258q-64 22 -109 30.5t-96 8.5q-117 0 -199 -48t-122 -122t-40 -148q0 -96 61.5 -157.5t176.5 -61.5q70 0 137.5 20.5t167.5 73.5l-45 -288q-74 -29 -136.5 -41.5t-133.5 -12.5q-264 0 -389 129.5t-125 339.5 zM218 -414l43 127q73 -26 135 -26q47 0 73.5 21.5t26.5 58.5q0 36 -25.5 57.5t-84.5 23.5l61 164h127l-29 -82q82 -12 123 -58t41 -114q0 -92 -73.5 -151.5t-209.5 -59.5q-98 0 -208 39z" />
<glyph unicode="&#xe8;" horiz-adv-x="1053" d="M74 446q0 148 66.5 278t184 208t263.5 78q112 0 203.5 -51.5t144.5 -149.5t53 -236q0 -71 -12 -129h-625v-38q0 -105 56.5 -166.5t158.5 -61.5q70 0 154 23.5t205 87.5l-43 -228q-86 -45 -164 -64.5t-170 -19.5q-225 0 -350 125t-125 344zM354 1446h266l154 -322h-172z M381 604h338v14q0 89 -33 141t-104 52q-64 0 -116 -51t-85 -156z" />
<glyph unicode="&#xe9;" horiz-adv-x="1053" d="M74 446q0 148 66.5 278t184 208t263.5 78q112 0 203.5 -51.5t144.5 -149.5t53 -236q0 -71 -12 -129h-625v-38q0 -105 56.5 -166.5t158.5 -61.5q70 0 154 23.5t205 87.5l-43 -228q-86 -45 -164 -64.5t-170 -19.5q-225 0 -350 125t-125 344zM381 604h338v14q0 89 -33 141 t-104 52q-64 0 -116 -51t-85 -156zM400 1124l219 322h315l-362 -322h-172z" />
<glyph unicode="&#xea;" horiz-adv-x="1053" d="M74 446q0 148 66.5 278t184 208t263.5 78q112 0 203.5 -51.5t144.5 -149.5t53 -236q0 -71 -12 -129h-625v-38q0 -105 56.5 -166.5t158.5 -61.5q70 0 154 23.5t205 87.5l-43 -228q-86 -45 -164 -64.5t-170 -19.5q-225 0 -350 125t-125 344zM262 1124l246 322h299l135 -322 h-168l-123 185l-215 -185h-174zM381 604h338v14q0 89 -33 141t-104 52q-64 0 -116 -51t-85 -156z" />
<glyph unicode="&#xeb;" horiz-adv-x="1053" d="M74 446q0 148 66.5 278t184 208t263.5 78q112 0 203.5 -51.5t144.5 -149.5t53 -236q0 -71 -12 -129h-625v-38q0 -105 56.5 -166.5t158.5 -61.5q70 0 154 23.5t205 87.5l-43 -228q-86 -45 -164 -64.5t-170 -19.5q-225 0 -350 125t-125 344zM260 1280q0 57 41 97t99 40 q55 0 96 -40t41 -97t-40 -98t-97 -41q-58 0 -99 41t-41 98zM381 604h338v14q0 89 -33 141t-104 52q-64 0 -116 -51t-85 -156zM692 1280q0 55 40 96t98 41q57 0 97 -41t40 -96q0 -57 -40 -98t-97 -41q-58 0 -98 41t-40 98z" />
<glyph unicode="&#xec;" horiz-adv-x="537" d="M57 0l142 989h282l-141 -989h-283zM126 1446h266l154 -322h-172z" />
<glyph unicode="&#xed;" horiz-adv-x="537" d="M57 0l142 989h282l-141 -989h-283zM145 1124l219 322h315l-362 -322h-172z" />
<glyph unicode="&#xee;" horiz-adv-x="537" d="M17 1124l246 322h299l135 -322h-168l-123 185l-215 -185h-174zM57 0l142 989h282l-141 -989h-283z" />
<glyph unicode="&#xef;" horiz-adv-x="537" d="M21 1280q0 57 41 97t99 40q55 0 96 -40t41 -97t-40 -98t-97 -41q-58 0 -99 41t-41 98zM57 0l142 989h282l-141 -989h-283zM453 1280q0 55 40 96t98 41q57 0 97 -41t40 -96q0 -57 -40 -98t-97 -41q-58 0 -98 41t-40 98z" />
<glyph unicode="&#xf0;" horiz-adv-x="1128" d="M76 436q0 154 63.5 282t177 202.5t258.5 74.5q41 0 84 -11t72 -32q-18 60 -51 120.5t-66 96.5l-260 -104l-37 94l226 90q-47 49 -97 82l168 94q72 -36 144 -98l217 86l39 -92l-176 -72q102 -108 165.5 -275t63.5 -372q0 -174 -61.5 -316.5t-182.5 -225.5t-293 -83 q-202 0 -328 121t-126 338zM360 428q0 -98 49.5 -154.5t125.5 -56.5q112 0 179.5 99.5t67.5 244.5q0 86 -45 148.5t-129 62.5q-86 0 -142 -56.5t-81 -136t-25 -151.5z" />
<glyph unicode="&#xf1;" horiz-adv-x="1139" d="M57 0l146 989h278l-20 -137q92 82 171 118t156 36q127 0 196 -79t69 -218q0 -29 -5.5 -82.5t-9.5 -75.5l-84 -551h-278l84 553q12 98 12 117q0 53 -23.5 80.5t-66.5 27.5q-59 0 -121.5 -42t-134.5 -128l-90 -608h-279zM346 1145q28 280 209 280q43 0 77.5 -15t81.5 -44 q23 -14 46.5 -26.5t41.5 -12.5q35 0 56.5 29.5t25.5 66.5h144q-7 -133 -62 -205.5t-143 -72.5q-37 0 -69 13t-85 44q-6 4 -28.5 16.5t-40 18.5t-31.5 6q-29 0 -52.5 -26.5t-27.5 -71.5h-143z" />
<glyph unicode="&#xf2;" horiz-adv-x="1128" d="M76 436q0 160 70.5 291t193.5 207t274 76q123 0 224.5 -54.5t161 -159t59.5 -249.5q0 -156 -68.5 -287t-189.5 -207t-271 -76q-208 0 -331 125t-123 334zM360 426q0 -98 46.5 -153.5t134.5 -55.5q106 0 168.5 97.5t62.5 242.5q0 102 -48 158.5t-132 56.5q-74 0 -126 -53 t-79 -134t-27 -159zM444 1446h266l154 -322h-172z" />
<glyph unicode="&#xf3;" horiz-adv-x="1128" d="M76 436q0 160 70.5 291t193.5 207t274 76q123 0 224.5 -54.5t161 -159t59.5 -249.5q0 -156 -68.5 -287t-189.5 -207t-271 -76q-208 0 -331 125t-123 334zM360 426q0 -98 46.5 -153.5t134.5 -55.5q106 0 168.5 97.5t62.5 242.5q0 102 -48 158.5t-132 56.5q-74 0 -126 -53 t-79 -134t-27 -159zM451 1124l219 322h315l-362 -322h-172z" />
<glyph unicode="&#xf4;" horiz-adv-x="1128" d="M76 436q0 160 70.5 291t193.5 207t274 76q123 0 224.5 -54.5t161 -159t59.5 -249.5q0 -156 -68.5 -287t-189.5 -207t-271 -76q-208 0 -331 125t-123 334zM315 1124l246 322h299l135 -322h-168l-123 185l-215 -185h-174zM360 426q0 -98 46.5 -153.5t134.5 -55.5 q106 0 168.5 97.5t62.5 242.5q0 102 -48 158.5t-132 56.5q-74 0 -126 -53t-79 -134t-27 -159z" />
<glyph unicode="&#xf5;" horiz-adv-x="1128" d="M76 436q0 160 70.5 291t193.5 207t274 76q123 0 224.5 -54.5t161 -159t59.5 -249.5q0 -156 -68.5 -287t-189.5 -207t-271 -76q-208 0 -331 125t-123 334zM314 1145q28 280 209 280q43 0 77.5 -15t81.5 -44q23 -14 46.5 -26.5t41.5 -12.5q35 0 56.5 29.5t25.5 66.5h144 q-7 -133 -62 -205.5t-143 -72.5q-37 0 -69 13t-85 44q-6 4 -28.5 16.5t-40 18.5t-31.5 6q-29 0 -52.5 -26.5t-27.5 -71.5h-143zM360 426q0 -98 46.5 -153.5t134.5 -55.5q106 0 168.5 97.5t62.5 242.5q0 102 -48 158.5t-132 56.5q-74 0 -126 -53t-79 -134t-27 -159z" />
<glyph unicode="&#xf6;" horiz-adv-x="1128" d="M76 436q0 160 70.5 291t193.5 207t274 76q123 0 224.5 -54.5t161 -159t59.5 -249.5q0 -156 -68.5 -287t-189.5 -207t-271 -76q-208 0 -331 125t-123 334zM307 1280q0 57 41 97t99 40q55 0 96 -40t41 -97t-40 -98t-97 -41q-58 0 -99 41t-41 98zM360 426q0 -98 46.5 -153.5 t134.5 -55.5q106 0 168.5 97.5t62.5 242.5q0 102 -48 158.5t-132 56.5q-74 0 -126 -53t-79 -134t-27 -159zM739 1280q0 55 40 96t98 41q57 0 97 -41t40 -96q0 -57 -40 -98t-97 -41q-58 0 -98 41t-40 98z" />
<glyph unicode="&#xf7;" horiz-adv-x="1147" d="M111 592v217h968v-217h-968zM463 328q0 53 40 92t91 39q55 0 95 -38t40 -93q0 -56 -39 -95.5t-96 -39.5q-55 0 -93 39.5t-38 95.5zM463 1077q0 53 39 93t92 40q55 0 95 -38.5t40 -94.5q0 -55 -39 -94t-96 -39q-53 0 -92 40t-39 93z" />
<glyph unicode="&#xf8;" horiz-adv-x="1128" d="M53 -25l127 150q-104 121 -104 311q0 160 70.5 291t193.5 207t274 76q152 0 260 -78l119 137l72 -63l-119 -140q113 -123 113 -319q0 -156 -68.5 -287t-189.5 -207t-271 -76q-163 0 -276 80l-125 -145zM360 426q0 -51 11 -82l331 387q-40 41 -104 41q-78 0 -132 -55 t-80 -136t-26 -155zM424 258q41 -41 111 -41q112 0 174.5 101.5t62.5 238.5q0 53 -12 90z" />
<glyph unicode="&#xf9;" horiz-adv-x="1139" d="M90 272q0 52 12 121l86 596h277l-80 -573q-12 -62 -12 -107q0 -102 92 -102q51 0 107.5 38t146.5 130l88 614h278l-145 -989h-276l18 133q-100 -84 -178 -116.5t-152 -32.5q-131 0 -196.5 81.5t-65.5 206.5zM434 1446h266l154 -322h-172z" />
<glyph unicode="&#xfa;" horiz-adv-x="1139" d="M90 272q0 52 12 121l86 596h277l-80 -573q-12 -62 -12 -107q0 -102 92 -102q51 0 107.5 38t146.5 130l88 614h278l-145 -989h-276l18 133q-100 -84 -178 -116.5t-152 -32.5q-131 0 -196.5 81.5t-65.5 206.5zM480 1124l219 322h315l-362 -322h-172z" />
<glyph unicode="&#xfb;" horiz-adv-x="1139" d="M90 272q0 52 12 121l86 596h277l-80 -573q-12 -62 -12 -107q0 -102 92 -102q51 0 107.5 38t146.5 130l88 614h278l-145 -989h-276l18 133q-100 -84 -178 -116.5t-152 -32.5q-131 0 -196.5 81.5t-65.5 206.5zM313 1124l246 322h299l135 -322h-168l-123 185l-215 -185h-174 z" />
<glyph unicode="&#xfc;" horiz-adv-x="1139" d="M90 272q0 52 12 121l86 596h277l-80 -573q-12 -62 -12 -107q0 -102 92 -102q51 0 107.5 38t146.5 130l88 614h278l-145 -989h-276l18 133q-100 -84 -178 -116.5t-152 -32.5q-131 0 -196.5 81.5t-65.5 206.5zM321 1280q0 57 41 97t99 40q55 0 96 -40t41 -97t-40 -98 t-97 -41q-58 0 -99 41t-41 98zM753 1280q0 55 40 96t98 41q57 0 97 -41t40 -96q0 -57 -40 -98t-97 -41q-58 0 -98 41t-40 98z" />
<glyph unicode="&#xfd;" horiz-adv-x="961" d="M33 989h264l170 -586l283 586h274l-707 -1458h-274l264 543zM357 1124l219 322h315l-362 -322h-172z" />
<glyph unicode="&#xfe;" horiz-adv-x="1124" d="M-12 -463l276 1860h277l-60 -408q68 21 152 21q125 0 220 -55.5t149.5 -160t54.5 -247.5q0 -160 -69.5 -289t-197.5 -203.5t-298 -74.5q-70 0 -156 22l-72 -465h-276zM367 211q30 -8 73 -8q164 0 245 103.5t81 244.5q0 127 -59.5 191.5t-165.5 64.5q-56 0 -88 -14z" />
<glyph unicode="&#xff;" horiz-adv-x="961" d="M33 989h264l170 -586l283 586h274l-707 -1458h-274l264 543zM231 1280q0 57 41 97t99 40q55 0 96 -40t41 -97t-40 -98t-97 -41q-58 0 -99 41t-41 98zM663 1280q0 55 40 96t98 41q57 0 97 -41t40 -96q0 -57 -40 -98t-97 -41q-58 0 -98 41t-40 98z" />
<glyph unicode="&#x152;" horiz-adv-x="2091" d="M109 610q0 238 101 416t281.5 274.5t409.5 96.5h1159l-30 -219h-549l-54 -353h484l-31 -219h-485l-56 -387h693l-33 -219h-1278q-186 0 -324.5 76t-213 214t-74.5 320zM422 610q0 -192 100.5 -291.5t274.5 -99.5h243l140 959h-238q-184 0 -301 -89.5t-168 -220.5 t-51 -258z" />
<glyph unicode="&#x153;" horiz-adv-x="1708" d="M76 418q0 172 69.5 306t188.5 210t264 76q211 0 322 -142q141 142 323 142q172 0 285.5 -109.5t113.5 -327.5q0 -65 -10 -129h-620q-4 -36 -4 -57q0 -106 64.5 -157.5t154.5 -51.5q153 0 356 109l-45 -232q-168 -78 -336 -78q-106 0 -190 34t-158 108q-86 -72 -171 -107 t-196 -35q-118 0 -211.5 55.5t-146.5 156t-53 229.5zM360 414q0 -101 44.5 -156t117.5 -55q105 0 169.5 102.5t64.5 278.5q0 94 -42 147t-120 53q-76 0 -129 -58t-79 -145t-26 -167zM1034 604h340q0 98 -33.5 152.5t-103.5 54.5t-123 -53t-80 -154z" />
<glyph unicode="&#x178;" horiz-adv-x="1167" d="M119 1397h299l190 -533l342 533h326l-541 -803l-88 -594h-297l90 600zM369 1622q0 53 38 90t89 37q53 0 90 -37t37 -90q0 -51 -37 -89t-90 -38q-51 0 -89 38t-38 89zM797 1622q0 53 38 90t89 37q53 0 90 -37t37 -90q0 -51 -37 -89t-90 -38q-51 0 -89 38t-38 89z" />
<glyph unicode="&#x2c6;" horiz-adv-x="684" d="M92 1124l246 322h299l135 -322h-168l-123 185l-215 -185h-174z" />
<glyph unicode="&#x2dc;" horiz-adv-x="684" d="M113 1145q28 280 209 280q43 0 77.5 -15t81.5 -44q23 -14 46.5 -26.5t41.5 -12.5q35 0 56.5 29.5t25.5 66.5h144q-7 -133 -62 -205.5t-143 -72.5q-37 0 -69 13t-85 44q-6 4 -28.5 16.5t-40 18.5t-31.5 6q-29 0 -52.5 -26.5t-27.5 -71.5h-143z" />
<glyph unicode="&#x2000;" horiz-adv-x="898" />
<glyph unicode="&#x2001;" horiz-adv-x="1796" />
<glyph unicode="&#x2002;" horiz-adv-x="898" />
<glyph unicode="&#x2003;" horiz-adv-x="1796" />
<glyph unicode="&#x2004;" horiz-adv-x="598" />
<glyph unicode="&#x2005;" horiz-adv-x="449" />
<glyph unicode="&#x2006;" horiz-adv-x="299" />
<glyph unicode="&#x2007;" horiz-adv-x="299" />
<glyph unicode="&#x2008;" horiz-adv-x="224" />
<glyph unicode="&#x2009;" horiz-adv-x="359" />
<glyph unicode="&#x200a;" horiz-adv-x="99" />
<glyph unicode="&#x2010;" horiz-adv-x="819" d="M78 356l41 267h614l-39 -267h-616z" />
<glyph unicode="&#x2011;" horiz-adv-x="819" d="M78 356l41 267h614l-39 -267h-616z" />
<glyph unicode="&#x2012;" horiz-adv-x="819" d="M78 356l41 267h614l-39 -267h-616z" />
<glyph unicode="&#x2013;" horiz-adv-x="1024" d="M-39 412l35 209h1065l-35 -209h-1065z" />
<glyph unicode="&#x2014;" horiz-adv-x="2048" d="M-39 412l35 209h2089l-35 -209h-2089z" />
<glyph unicode="&#x2018;" horiz-adv-x="561" d="M143 1016q0 106 60.5 194t175.5 143.5t274 61.5l-22 -102q-94 -13 -150.5 -56t-83.5 -127q146 -34 146 -167q0 -78 -54.5 -129.5t-134.5 -51.5q-88 0 -149.5 64.5t-61.5 169.5z" />
<glyph unicode="&#x2019;" horiz-adv-x="561" d="M76 782l20 103q94 12 150.5 56t83.5 128q-146 31 -146 168q0 78 54.5 128t134.5 50q88 0 149.5 -64.5t61.5 -168.5q0 -107 -60.5 -195t-175.5 -143.5t-272 -61.5z" />
<glyph unicode="&#x201a;" horiz-adv-x="561" d="M-74 -303l23 102q94 13 150.5 56t82.5 127q-145 34 -145 168q0 77 54 128.5t134 51.5q88 0 148.5 -64.5t60.5 -169.5q0 -106 -59.5 -194t-174 -143.5t-274.5 -61.5z" />
<glyph unicode="&#x201c;" horiz-adv-x="1061" d="M141 1016q0 106 60.5 194t175.5 143.5t272 61.5l-20 -102q-94 -13 -150.5 -56t-83.5 -127q146 -34 146 -167q0 -78 -54.5 -129.5t-134.5 -51.5q-88 0 -149.5 64.5t-61.5 169.5zM647 1016q0 106 60.5 194t175 143.5t274.5 61.5l-22 -102q-95 -13 -151 -56t-83 -127 q146 -34 146 -167q0 -78 -54.5 -129.5t-134.5 -51.5q-88 0 -149.5 64.5t-61.5 169.5z" />
<glyph unicode="&#x201d;" horiz-adv-x="1061" d="M76 784l20 103q189 20 234 182q-70 16 -108 58t-38 110q0 78 54.5 128t134.5 50q90 0 150.5 -66.5t60.5 -166.5q0 -97 -54.5 -184t-169 -145t-284.5 -69zM575 784l23 103q184 20 233 182q-145 33 -145 168q0 78 54.5 128t133.5 50q91 0 151 -66.5t60 -166.5 q0 -97 -55 -184t-170 -145t-285 -69z" />
<glyph unicode="&#x201e;" horiz-adv-x="1061" d="M-74 -301l23 102q184 19 233 183q-145 32 -145 168q0 77 54 127.5t134 50.5q90 0 149.5 -66.5t59.5 -167.5q0 -96 -54 -183t-169 -146.5t-285 -67.5zM428 -301l23 102q184 19 231 183q-70 16 -106.5 58t-36.5 110q0 77 54 127.5t134 50.5q90 0 149.5 -66.5t59.5 -167.5 q0 -96 -54.5 -183t-169 -146.5t-284.5 -67.5z" />
<glyph unicode="&#x2022;" horiz-adv-x="924" d="M180 700q0 82 41 153t111.5 112t152.5 41q84 0 154 -41t111 -112t41 -153q0 -84 -41 -154.5t-111 -111.5t-154 -41q-82 0 -151.5 41t-111.5 111.5t-42 154.5z" />
<glyph unicode="&#x2026;" horiz-adv-x="2048" d="M106 160q0 73 52.5 126.5t128.5 53.5q73 0 125.5 -54.5t52.5 -125.5q0 -72 -51.5 -126t-126.5 -54q-76 0 -128.5 53t-52.5 127zM793 160q0 73 52 125.5t128 52.5q74 0 127 -53.5t53 -124.5q0 -72 -52 -126t-128 -54t-128 53t-52 127zM1479 158q0 73 53 126.5t127 53.5 q76 0 128 -53.5t52 -126.5q0 -72 -52 -126.5t-128 -54.5q-74 0 -127 53.5t-53 127.5z" />
<glyph unicode="&#x202f;" horiz-adv-x="359" />
<glyph unicode="&#x2039;" horiz-adv-x="575" d="M41 512l334 473h254l-348 -487l215 -498h-242z" />
<glyph unicode="&#x203a;" horiz-adv-x="575" d="M-51 0l346 487l-213 498h242l213 -512l-334 -473h-254z" />
<glyph unicode="&#x205f;" horiz-adv-x="449" />
<glyph unicode="&#x20ac;" d="M41 496l31 151h123q0 43 10 111h-135l30 151h144q78 250 262 383t440 133q68 0 128.5 -8t154.5 -33l-47 -264q-123 45 -240 45q-129 0 -229.5 -67.5t-153.5 -188.5h549l-72 -151h-526q-10 -82 -10 -111h485l-72 -151h-403q14 -121 71.5 -189.5t151.5 -68.5q195 0 371 147 l-41 -317q-90 -45 -177 -70t-181 -25q-134 0 -242.5 61.5t-178 179.5t-85.5 282h-158z" />
<glyph unicode="&#x2122;" horiz-adv-x="1882" d="M82 1229v168h756v-168h-279v-649h-201v649h-276zM932 580v817h303l145 -520l150 520h295v-817h-191v616l-174 -616h-162l-178 620v-620h-188z" />
<glyph unicode="&#x25fc;" horiz-adv-x="990" d="M0 0v990h990v-990h-990z" />
</font>
</defs>
</svg>
