<?xml version="1.0" standalone="no"?>
<!DOCTYPE svg PUBLIC "-//W3C//DTD SVG 1.1//EN" "http://www.w3.org/Graphics/SVG/1.1/DTD/svg11.dtd" >
<svg xmlns="http://www.w3.org/2000/svg" xmlns:xlink="http://www.w3.org/1999/xlink" version="1.1">
<metadata></metadata>
<defs>
<font id="gill_sans_novaultra_bold" horiz-adv-x="1749" >
<font-face units-per-em="2048" ascent="1638" descent="-410" />
<missing-glyph horiz-adv-x="682" />
<glyph horiz-adv-x="0" />
<glyph horiz-adv-x="682" />
<glyph unicode=" "  horiz-adv-x="682" />
<glyph unicode="&#x09;" horiz-adv-x="682" />
<glyph unicode="&#xa0;" horiz-adv-x="682" />
<glyph unicode="!" horiz-adv-x="831" d="M492 438q75 -28 118 -87.5t43 -137.5q0 -98 -69.5 -168t-167.5 -70q-99 0 -169.5 71t-70.5 167q0 78 43 137.5t117 87.5q-133 221 -195.5 391t-62.5 306q0 120 44 214.5t122 147.5t174 53q94 0 170 -52t120 -143t44 -208q0 -174 -69 -342t-191 -367z" />
<glyph unicode="&#x22;" horiz-adv-x="1024" d="M391 987h-278l-64 297v242h406v-242zM911 987h-278l-64 297v242h406v-242z" />
<glyph unicode="#" horiz-adv-x="1366" d="M897 1079l74 351h276l-73 -351h129v-276h-187l-45 -217h232v-277h-289l-74 -350h-276l73 350h-266l-74 -350h-276l74 350h-129v277h186l45 217h-231v276h288l74 351h277l-74 -351h266zM795 586l45 217h-267l-45 -217h267z" />
<glyph unicode="$" horiz-adv-x="1556" d="M1452 430q0 -127 -65.5 -230.5t-197.5 -164t-325 -60.5q-139 0 -263 27t-255 84l-94 -111h-264l563 676q-168 60 -265.5 122.5t-140.5 139t-43 183.5q0 139 78 242.5t210 157.5t290 54q162 0 299 -33.5t219 -86.5l100 120h269l-559 -671q221 -70 332.5 -178.5 t111.5 -270.5zM854 1235q-59 0 -99 -38t-40 -95q0 -39 23.5 -70t78.5 -63l174 213q-63 53 -137 53zM709 291q55 0 98 42t43 99q0 76 -98 139l-187 -221q21 -20 63 -39.5t81 -19.5z" />
<glyph unicode="%" horiz-adv-x="2198" d="M991 1139q0 -113 -61.5 -207t-169 -148.5t-240.5 -54.5t-239.5 54.5t-168 149.5t-61.5 208q0 110 60.5 204.5t167 149.5t241.5 55q131 0 239.5 -54t170 -148.5t61.5 -208.5zM494 0l950 1526h248l-951 -1526h-247zM614 1161q0 35 -26.5 58.5t-67.5 23.5q-39 0 -65.5 -23.5 t-26.5 -58.5q0 -37 25.5 -60.5t66.5 -23.5t67.5 23.5t26.5 60.5zM2146 395q0 -112 -61.5 -206.5t-169 -148.5t-240.5 -54t-239.5 54t-168 149.5t-61.5 207.5q0 111 60.5 205t167 149.5t241.5 55.5q131 0 239.5 -54.5t170 -148.5t61.5 -209zM1769 418q0 35 -26.5 58.5 t-67.5 23.5q-39 0 -65.5 -23.5t-26.5 -58.5q0 -37 25.5 -60.5t66.5 -23.5t67.5 23.5t26.5 60.5z" />
<glyph unicode="&#x26;" horiz-adv-x="1921" d="M1092 834l145 -148q70 76 123 188h387q-80 -126 -152.5 -215.5t-158.5 -175.5l473 -483h-690l-154 156q-117 -88 -255 -134.5t-275 -46.5q-134 0 -233 46.5t-153.5 128t-54.5 186.5q0 141 91 250.5t284 193.5q-80 84 -117 163t-37 163q0 127 69 228.5t188.5 158.5 t269.5 57q135 0 239.5 -47t163 -130t58.5 -187q0 -99 -54.5 -189t-156.5 -163zM1077 1108q0 45 -31.5 74.5t-80.5 29.5q-47 0 -81 -29.5t-34 -76.5q0 -33 24.5 -69t69.5 -70q133 41 133 141zM872 354l-167 168q-60 -37 -79.5 -63.5t-19.5 -63.5q0 -47 34 -76.5t83 -29.5 q70 0 149 65z" />
<glyph unicode="'" horiz-adv-x="575" d="M426 987h-279l-63 297v242h405v-242z" />
<glyph unicode="(" horiz-adv-x="1153" d="M662 606q0 -260 113.5 -487.5t359.5 -456.5h-410q-274 203 -430 424t-156 520q0 268 141.5 495.5t444.5 448.5h405q-151 -153 -249.5 -284t-158.5 -295t-60 -365z" />
<glyph unicode=")" horiz-adv-x="1153" d="M492 606q0 260 -114 487.5t-360 456.5h410q274 -202 430 -423.5t156 -520.5q0 -268 -141.5 -495.5t-444.5 -448.5h-405q151 154 249.5 285t159 295t60.5 364z" />
<glyph unicode="*" horiz-adv-x="1473" d="M891 1133l270 268q94 -74 158.5 -189.5t79.5 -228.5l-367 -102v-4l367 -103q-19 -125 -81.5 -236.5t-156.5 -181.5l-270 265l-4 -5l90 -364q-129 -45 -242 -45q-117 0 -239 45l90 364l-4 5l-273 -265q-94 72 -157.5 185.5t-77.5 232.5l364 103v4l-364 102 q16 117 79.5 230.5t155.5 187.5l273 -268l4 4l-90 368q102 45 239 45q135 0 242 -45l-90 -368z" />
<glyph unicode="+" horiz-adv-x="1405" d="M496 1284h413v-391h396v-414h-396v-393h-413v393h-396v414h396v391z" />
<glyph unicode="," horiz-adv-x="831" d="M426 649q96 0 171 -47t117 -130t42 -185q0 -135 -72 -258t-195.5 -208t-273.5 -110l-18 13q67 38 109 107t48 149q-135 40 -200.5 119t-65.5 200q0 96 45 177t122 127t171 46z" />
<glyph unicode="-" horiz-adv-x="854" d="M74 389v426h704v-426h-704z" />
<glyph unicode="." horiz-adv-x="831" d="M416 -25q-90 0 -165 44t-118 119t-43 163t43 163t118 119t165 44t164.5 -44t117.5 -120t43 -162q0 -88 -44 -163t-118.5 -119t-162.5 -44z" />
<glyph unicode="/" horiz-adv-x="575" d="M-66 -178l379 1704h328l-379 -1704h-328z" />
<glyph unicode="0" d="M874 -25q-219 0 -398 104.5t-281.5 286t-102.5 400.5q0 223 106.5 402.5t286 280.5t389.5 101q209 0 389.5 -99t287 -278.5t106.5 -408.5q0 -221 -103.5 -401.5t-281.5 -284t-398 -103.5zM1030 805q0 69 -44 114.5t-114 45.5q-65 0 -109 -46.5t-44 -113.5q0 -68 44 -114 t111 -46q68 0 112 45t44 115z" />
<glyph unicode="1" d="M535 1354l679 196v-1550h-679v1354z" />
<glyph unicode="2" d="M1180 272h290v-272h-1226l82 104q206 265 274 363q68 100 103.5 177t35.5 142q0 68 -43 112t-108 44q-82 0 -158 -65.5t-178 -208.5l12 692q137 94 252 142t277 48q176 0 320 -70.5t230.5 -212t86.5 -341.5q0 -166 -60.5 -324t-189.5 -330z" />
<glyph unicode="3" d="M1495 1126q0 -122 -61.5 -201t-196.5 -141q133 -49 202.5 -143t69.5 -225q0 -207 -146 -311.5t-417 -104.5h-604v530q125 -157 311 -157q84 0 132.5 39t48.5 104q0 82 -62.5 132t-171.5 50q-104 0 -258 -55v270q96 -28 225 -28q117 0 184.5 46t67.5 124q0 67 -49 108 t-135 41q-88 0 -167 -43t-126 -121v486h594q272 0 415.5 -102.5t143.5 -297.5z" />
<glyph unicode="4" d="M1634 860v-348h-248v-512h-679v512h-609v326l609 688h679v-666h248zM707 860v371l-322 -371h322z" />
<glyph unicode="5" d="M862 -25q-162 0 -310.5 48.5t-250.5 138.5t-131 211l12 14q88 -57 169 -84t177 -27q136 0 223 59.5t87 156.5q0 96 -85 145t-243 49q-98 0 -173 -22.5t-118 -53.5l-16 13l225 903h1155v-273h-539l-53 -206q254 -17 390.5 -150t136.5 -350q0 -166 -84 -296t-233.5 -203 t-338.5 -73z" />
<glyph unicode="6" d="M870 -25q-233 0 -410 85t-273.5 235.5t-96.5 345.5q0 252 154.5 479.5t449.5 405.5h936v-27q-137 -41 -274 -128t-234 -189q256 -37 399.5 -186.5t143.5 -377.5q0 -188 -100.5 -333.5t-280.5 -227.5t-414 -82zM1004 676q0 61 -38 101t-100 40q-57 0 -97 -42t-40 -99 q0 -58 40 -96.5t97 -38.5q62 0 100 38.5t38 96.5z" />
<glyph unicode="7" d="M221 0l539 1253h-451v273h1307l-655 -1526h-740z" />
<glyph unicode="8" d="M1280 770v-4q180 -41 268 -133t88 -244q0 -215 -183 -314.5t-581 -99.5q-385 0 -571 104.5t-186 317.5q0 146 85 237t263 132v4q-336 78 -336 350q0 211 178 320.5t531 109.5q409 0 597.5 -101t188.5 -325q0 -141 -85 -228t-257 -126zM1001 1110q0 51 -36.5 88t-90.5 37 q-53 0 -89.5 -37t-36.5 -88t36.5 -89t89.5 -38q52 0 89.5 37t37.5 90zM1004 422q0 55 -37 94t-93 39q-55 0 -92 -37t-37 -92t38 -92t96 -37q53 0 89 37t36 88z" />
<glyph unicode="9" d="M1057 0h-936v27q155 49 284.5 132t223.5 185q-258 37 -400.5 188.5t-142.5 374.5q0 191 103.5 337.5t283.5 226t406 79.5q229 0 407 -83t276.5 -234.5t98.5 -347.5q0 -250 -156.5 -480.5t-447.5 -404.5zM1022 850q0 57 -40 96t-97 39q-60 0 -98.5 -39t-38.5 -96 q0 -62 38.5 -101.5t96.5 -39.5q59 0 99 42t40 99z" />
<glyph unicode=":" horiz-adv-x="831" d="M416 735q-148 0 -237 73t-89 196q0 122 89 195t237 73q147 0 236 -73t89 -195q0 -123 -89 -196t-236 -73zM416 -25q-148 0 -237 73t-89 196t89 195.5t237 72.5q147 0 236 -72.5t89 -195.5t-89 -196t-236 -73z" />
<glyph unicode=";" horiz-adv-x="831" d="M416 768q-148 0 -237 72.5t-89 195.5t89 196t237 73q147 0 236 -73t89 -196t-89 -195.5t-236 -72.5zM215 -289l-18 13q67 36 109 107t48 149q-129 38 -197.5 114t-68.5 180q0 136 95.5 218.5t242.5 82.5q149 0 238.5 -83.5t89.5 -225.5q0 -125 -73 -244.5t-196 -203.5 t-270 -107z" />
<glyph unicode="&#x3c;" horiz-adv-x="1405" d="M944 592q336 -125 356 -131v-443l-1200 517v303l1200 516v-443l-608 -225z" />
<glyph unicode="=" horiz-adv-x="1405" d="M1305 776h-1205v414h1205v-414zM1305 184h-1205v414h1205v-414z" />
<glyph unicode="&#x3e;" horiz-adv-x="1405" d="M1300 535l-1200 -517v443l611 225q-17 4 -281 105q-321 120 -330 120v443l1200 -516v-303z" />
<glyph unicode="?" horiz-adv-x="1174" d="M649 457q82 -29 126 -90.5t44 -143.5q0 -104 -71.5 -176t-176.5 -72q-106 0 -179 71t-73 173q0 70 31 123t92 131q66 78 98.5 138.5t32.5 140.5q0 122 -72.5 196t-191.5 74q-59 0 -127.5 -21.5t-169.5 -72.5q41 168 128 310t213 227t276 85q119 0 218 -56t156.5 -155.5 t57.5 -224.5q0 -172 -99.5 -327.5t-312.5 -329.5z" />
<glyph unicode="@" horiz-adv-x="2150" d="M1004 -326q-279 0 -493 108.5t-332 312.5t-118 480q0 267 134.5 490t385 354t584.5 131q267 0 476.5 -90t328.5 -254t119 -381q0 -313 -176 -487t-496 -174q-86 0 -161.5 29.5t-104.5 97.5q-70 -70 -143.5 -98.5t-171.5 -28.5q-140 0 -214.5 97t-74.5 259q0 166 70.5 301 t221 217t375.5 82q109 0 194 -14t179 -41l-98 -520q-8 -45 -8 -64q0 -37 30 -37q136 0 206.5 113t70.5 274q0 213 -159 339t-464 126q-268 0 -448 -92t-268.5 -255t-88.5 -374q0 -198 77 -345.5t225.5 -227.5t359.5 -80q418 0 682 209l141 -209q-299 -248 -841 -248z M1151 827q-115 0 -181.5 -80.5t-66.5 -193.5q0 -51 17.5 -80t74.5 -29q80 0 154 97l53 284z" />
<glyph unicode="A" horiz-adv-x="2028" d="M1350 0l-88 258h-496l-88 -258h-676l530 1526h963l530 -1526h-675zM1016 991h-4l-123 -373h250z" />
<glyph unicode="B" horiz-adv-x="1792" d="M1694 1100q0 -115 -50.5 -194t-148.5 -134q123 -65 181.5 -148t58.5 -202q0 -195 -139.5 -308.5t-374.5 -113.5h-1074v1526h961q281 0 433.5 -111.5t152.5 -314.5zM1042 1071q0 148 -178 148h-41v-297h19q110 0 155 34.5t45 114.5zM1059 494q0 172 -189 172h-47v-330h27 q111 0 160 36t49 122z" />
<glyph unicode="C" horiz-adv-x="1599" d="M1571 1389l-283 -539q-129 43 -272 43q-217 0 -217 -117q0 -57 59.5 -88t171.5 -31q148 0 258 54l283 -578q-117 -72 -289 -115t-328 -43q-260 0 -452.5 104.5t-294 282t-101.5 390.5q0 237 113 418.5t306.5 280.5t430.5 99q168 0 337 -46t278 -115z" />
<glyph unicode="D" horiz-adv-x="1812" d="M1751 760q0 -182 -86 -355.5t-277.5 -289t-490.5 -115.5h-745v1526h763q267 0 455.5 -105.5t284.5 -280.5t96 -380zM1075 766q0 86 -52 131t-155 45h-41v-358h19q121 0 175 43t54 139z" />
<glyph unicode="E" horiz-adv-x="1473" d="M825 1143v-189h412v-383h-412v-188h592v-383h-1267v1526h1267v-383h-592z" />
<glyph unicode="F" horiz-adv-x="1409" d="M825 1143v-277h430v-383h-430v-483h-675v1526h1255v-383h-580z" />
<glyph unicode="G" d="M1692 1346l-326 -459q-199 98 -377 98q-115 0 -184.5 -59.5t-69.5 -157.5q0 -94 59.5 -140t184.5 -46v239h676v-823q-168 -10 -318.5 -16.5t-238.5 -6.5q-328 0 -535 80q-135 54 -239.5 159t-162 248.5t-57.5 305.5q0 201 91.5 379t282 290.5t474.5 112.5 q183 0 375.5 -52t364.5 -152z" />
<glyph unicode="H" horiz-adv-x="1985" d="M1163 967v559h676v-1526h-676v567h-344v-567h-676v1526h676v-559h344z" />
<glyph unicode="I" horiz-adv-x="981" d="M154 0v1526h675v-1526h-675z" />
<glyph unicode="J" horiz-adv-x="1153" d="M1032 416q-4 -105 -23.5 -185.5t-72.5 -132.5q-127 -123 -342 -123q-209 0 -371 102.5t-213 276.5q62 -12 146 -12t127 14.5t60 54.5t17 119v996h676v-912q0 -112 -4 -198z" />
<glyph unicode="K" horiz-adv-x="1942" d="M1182 1526h688q0 -275 -73 -456t-228 -304q155 -119 241 -307.5t103 -458.5h-729q-13 270 -102 410.5t-253 146.5v-557h-675v1526h675v-510q166 10 259.5 141t93.5 369z" />
<glyph unicode="L" horiz-adv-x="1430" d="M1415 383v-383h-1268v1526h676v-1143h592z" />
<glyph unicode="M" horiz-adv-x="2154" d="M1354 1526h655v-1526h-676v764l-256 -295l-256 295v-764h-676v1526h656l276 -318z" />
<glyph unicode="N" horiz-adv-x="1812" d="M989 1016v510h676v-1538h-512l-324 475h-4v-463h-675v1526h483l352 -510h4z" />
<glyph unicode="O" d="M1657 764q0 -217 -103.5 -398.5t-282.5 -286t-399 -104.5q-215 0 -394 105.5t-282.5 287t-103.5 396.5t102.5 395t281.5 285.5t398 105.5q218 0 397 -105.5t282.5 -285.5t103.5 -395zM874 645q64 0 108 44t44 116q0 69 -43 114.5t-109 45.5q-65 0 -108 -45.5t-43 -114.5 q0 -72 44 -116t107 -44z" />
<glyph unicode="P" horiz-adv-x="1706" d="M1178 496q-91 0 -171.5 30.5t-177.5 102.5v-629h-675v1526h929q207 0 342.5 -75t198 -192.5t62.5 -248.5q0 -140 -68 -257.5t-184.5 -187t-255.5 -69.5zM885 856q76 0 123 47t47 127q0 78 -41 122t-113 44h-72v-332q25 -8 56 -8z" />
<glyph unicode="Q" d="M1657 764q0 -238 -127 -436l256 -328h-510l-45 59q-168 -84 -359 -84q-215 0 -394 105.5t-282.5 287t-103.5 396.5t102.5 395t281.5 285.5t398 105.5q218 0 397 -105.5t282.5 -285.5t103.5 -395zM874 645q64 0 108 44t44 116q0 69 -43 114.5t-109 45.5q-65 0 -108 -45.5 t-43 -114.5q0 -72 44 -116t107 -44z" />
<glyph unicode="R" horiz-adv-x="1835" d="M1702 1069q0 -106 -44 -192t-130 -146q123 -139 197.5 -324.5t97.5 -406.5h-701q-20 299 -89.5 432t-203.5 133h-4v-565h-675v1526h1001q172 0 297 -60.5t189.5 -165t64.5 -231.5zM1026 1061q0 69 -41 110t-117 41h-43v-294h19q92 0 137 34.5t45 108.5z" />
<glyph unicode="S" horiz-adv-x="1493" d="M1430 1448l-168 -481q-78 108 -176.5 165.5t-202.5 57.5q-60 0 -89.5 -24.5t-29.5 -65.5q0 -39 56.5 -70t180.5 -80q129 -51 216.5 -95t140.5 -101q98 -109 98 -277q0 -246 -185.5 -374t-547.5 -128q-199 0 -369 27t-329 88l165 510q70 -108 176.5 -176t204.5 -68 q50 0 82.5 25t32.5 61q0 47 -48 79t-151 71q-122 51 -202 97t-138.5 132t-58.5 217q0 252 184.5 382t544.5 130q156 0 326 -28.5t287 -73.5z" />
<glyph unicode="T" horiz-adv-x="1430" d="M1053 850v-850h-676v850h-340v676h1356v-676h-340z" />
<glyph unicode="U" horiz-adv-x="1772" d="M885 -25q-367 0 -562.5 206t-195.5 614v731h676v-719q0 -82 18.5 -122t61.5 -40q49 0 67.5 37t18.5 125v719h676v-725q0 -408 -185.5 -617t-574.5 -209z" />
<glyph unicode="V" horiz-adv-x="1729" d="M866 1020l170 506h674l-518 -1526h-655l-519 1526h674l170 -506h4z" />
<glyph unicode="W" horiz-adv-x="2517" d="M1022 1526h469l195 -498l167 498h660l-514 -1526h-498l-241 604l-224 -604h-497l-539 1526h659l177 -498z" />
<glyph unicode="X" horiz-adv-x="1985" d="M1196 1526h733l-577 -750l614 -776h-739l-242 303l-233 -303h-734l596 772l-596 754h738l225 -281z" />
<glyph unicode="Y" horiz-adv-x="1855" d="M1163 1526h684l-581 -860v-666h-676v666l-582 860h684l236 -346z" />
<glyph unicode="Z" horiz-adv-x="1686" d="M1636 383v-383h-1607l702 1143h-645v383h1585l-702 -1143h667z" />
<glyph unicode="[" horiz-adv-x="1087" d="M766 1188v-1157h291v-338h-910v1833h910v-338h-291z" />
<glyph unicode="\" horiz-adv-x="575" d="M313 -178l-379 1704h328l379 -1704h-328z" />
<glyph unicode="]" horiz-adv-x="1087" d="M31 -307v338h291v1157h-291v338h909v-1833h-909z" />
<glyph unicode="^" horiz-adv-x="1405" d="M856 729l-151 389l-156 -389h-422l418 797h334l399 -797h-422z" />
<glyph unicode="_" horiz-adv-x="1024" d="M-12 -317v204h1048v-204h-1048z" />
<glyph unicode="`" horiz-adv-x="670" d="M541 1286h-256l-387 297h508z" />
<glyph unicode="a" horiz-adv-x="1450" d="M719 90q-62 -47 -144.5 -73.5t-156.5 -26.5q-90 0 -164 40t-116 111.5t-42 163.5q0 103 52.5 182.5t145.5 123.5t214 44q106 0 211 -28q0 86 -64.5 132t-179.5 46q-90 0 -172 -22.5t-176 -73.5v362q149 72 286.5 107.5t307.5 35.5q317 0 466.5 -136t149.5 -408v-670h-618 v90zM719 266v168q-55 19 -101 19q-57 0 -90.5 -29t-33.5 -76q0 -49 36.5 -82t92.5 -33q57 0 96 33z" />
<glyph unicode="b" horiz-adv-x="1622" d="M963 1214q170 0 305 -77.5t211.5 -214t76.5 -306.5q0 -161 -74.5 -302.5t-225 -227.5t-365.5 -86h-780v1526h618v-359q66 27 119 37t115 10zM963 594q0 68 -36 106.5t-98 38.5q-49 0 -100 -28v-273h16q76 0 120 8.5t71 42t27 105.5z" />
<glyph unicode="c" horiz-adv-x="1343" d="M1233 1157v-528q-186 88 -338 88q-88 0 -138 -27.5t-50 -79.5q0 -55 55 -85.5t160 -30.5q86 0 171 17t140 46v-522q-178 -53 -387 -53q-268 0 -438 92t-245 231t-75 293q0 180 87 323.5t245 225.5t364 82q107 0 226.5 -18.5t222.5 -53.5z" />
<glyph unicode="d" horiz-adv-x="1642" d="M674 1214q67 0 136 -13t97 -30v355h619v-1526h-738q-227 0 -386.5 83t-239.5 222t-80 307q0 164 74.5 302.5t210 219t307.5 80.5zM860 438h47v271q-20 14 -48 22t-54 8q-57 0 -93 -44t-36 -109q0 -78 45 -113t139 -35z" />
<glyph unicode="e" horiz-adv-x="1430" d="M1354 563v-39h-631q33 -92 112.5 -144t186.5 -52q98 0 186 34.5t146 96.5v-211q-105 -137 -249 -201.5t-335 -64.5q-207 0 -365.5 78.5t-244.5 223t-86 332.5q0 177 78.5 316t222 218t330.5 79q188 0 335.5 -81t230.5 -231.5t83 -353.5zM825 926q-57 0 -98 -50.5 t-41 -127.5v-13h291q-4 88 -44 139.5t-108 51.5z" />
<glyph unicode="f" horiz-adv-x="1153" d="M1145 1505v-606q-90 109 -195 109q-71 0 -113 -44t-42 -124h350v-254h-350v-586h-619v586h-133v254h133v10q0 221 82 378.5t231.5 239.5t348.5 82q127 0 307 -45z" />
<glyph unicode="g" horiz-adv-x="1556" d="M803 -338q-209 0 -392.5 45t-320.5 129v547q221 -215 492 -215q120 0 186 40t66 111q0 15 -5 35q-43 -28 -113.5 -46.5t-140.5 -18.5q-225 0 -357 124t-132 332q0 121 49 220.5t123 148.5q82 53 187.5 70.5t304.5 17.5l698 2v-950q0 -303 -156.5 -447.5t-488.5 -144.5z M829 604v260h-16q-102 0 -153.5 -35.5t-51.5 -115.5q0 -62 37 -98.5t98 -36.5q50 0 86 26z" />
<glyph unicode="h" horiz-adv-x="1642" d="M1090 1214q206 0 324 -119.5t118 -328.5v-766h-584v696q0 74 -30.5 113t-86.5 39q-53 0 -106 -47v-801h-619v1526h619v-479q143 167 365 167z" />
<glyph unicode="i" horiz-adv-x="854" d="M559 1200q-72 0 -124 52.5t-52 123.5q0 72 52 123t124 51t123 -50t51 -124q0 -71 -51 -123.5t-123 -52.5zM436 1135q82 0 164 17t137 52v-1204h-618v1204q57 -33 141 -51t176 -18z" />
<glyph unicode="j" horiz-adv-x="1024" d="M696 1200q-71 0 -123.5 52.5t-52.5 123.5q0 72 52.5 123t123.5 51q72 0 123 -50t51 -124q0 -71 -51 -123.5t-123 -52.5zM575 1135q162 0 299 69v-874q0 -215 -75.5 -364.5t-211.5 -226.5t-317 -77q-141 0 -252 53v459q15 -4 41.5 -11t59.5 -7q76 0 106.5 48t30.5 150v850 q106 -41 177 -55t142 -14z" />
<glyph unicode="k" horiz-adv-x="1599" d="M944 1204h631q-16 -186 -73.5 -301t-180.5 -201q137 -106 195.5 -260.5t58.5 -384.5v-57h-612q0 268 -54.5 404.5t-179.5 187.5v-592h-618v1526h618v-721q105 43 159 137t56 262z" />
<glyph unicode="l" horiz-adv-x="854" d="M117 0v1526h618v-1526h-618z" />
<glyph unicode="m" horiz-adv-x="2454" d="M1929 1214q197 0 309.5 -120.5t112.5 -335.5v-758h-584v723q0 59 -31.5 95t-82.5 36q-27 0 -58.5 -11.5t-54.5 -27.5v-815h-584v721q0 61 -29.5 97t-84.5 36q-56 0 -113 -41v-813h-618v1204h618v-151q150 161 371 161q135 0 228 -51t161 -157q106 110 209.5 159t230.5 49 z" />
<glyph unicode="n" horiz-adv-x="1642" d="M956 705q0 147 -114 147q-25 0 -56.5 -11.5t-54.5 -27.5v-813h-618v1204h618v-151q86 86 173 123.5t200 37.5q215 0 325.5 -119.5t110.5 -340.5v-754h-584v705z" />
<glyph unicode="o" horiz-adv-x="1473" d="M1395 604q0 -182 -83 -323.5t-232.5 -220t-344.5 -78.5q-192 0 -341.5 79.5t-232.5 221t-83 321.5q0 182 83 323.5t232.5 221.5t341.5 80q193 0 342.5 -78t233.5 -220.5t84 -326.5zM872 616q0 62 -37.5 100t-99.5 38q-59 0 -97 -38t-38 -100q0 -61 38 -99t97 -38 q62 0 99.5 38t37.5 99z" />
<glyph unicode="p" horiz-adv-x="1642" d="M1565 621q0 -187 -76 -330.5t-207 -222t-295 -78.5q-127 0 -248 53v-381h-618v1542h618v-92q140 102 297 102q152 0 271.5 -77.5t188.5 -214t69 -301.5zM846 428q55 0 90 41t35 109q0 67 -35 110t-90 43q-62 0 -107 -57v-217q52 -29 107 -29z" />
<glyph unicode="q" horiz-adv-x="1642" d="M768 1204h758v-1542h-619v358q-96 -45 -237 -45q-168 0 -302.5 80t-210 218.5t-75.5 310.5q0 174 81 315t236.5 223t368.5 82zM907 479v271h-57q-90 0 -132 -37t-42 -113q0 -65 37 -109.5t92 -44.5q59 0 102 33z" />
<glyph unicode="r" horiz-adv-x="1366" d="M1075 629q-145 0 -250 110q-92 -80 -92 -280v-459h-618v1204h618v-256h4q56 129 143 197.5t195 68.5q125 0 206 -81.5t81 -208.5q0 -133 -81 -214t-206 -81z" />
<glyph unicode="s" horiz-adv-x="1260" d="M750 950q-45 0 -73 -19.5t-28 -51.5q0 -45 37 -70t117 -45q190 -47 300.5 -130t110.5 -251q0 -131 -72.5 -221t-195.5 -135t-272 -45q-154 0 -331 35.5t-331 99.5l138 338q59 -82 150 -132.5t181 -50.5q54 0 86.5 23.5t32.5 62.5q0 41 -28.5 66t-64.5 37t-128 37 q-152 41 -238 127t-86 225q0 178 153.5 278.5t434.5 100.5q313 0 537 -103l-148 -307q-67 62 -142 96.5t-140 34.5z" />
<glyph unicode="t" horiz-adv-x="1153" d="M825 866v-260q0 -61 30 -95t85 -34q88 0 150 86v-477q-70 -45 -162 -70.5t-193 -25.5q-147 0 -268 60.5t-190.5 172t-69.5 256.5v387h-252l870 682v-344h258v-338h-258z" />
<glyph unicode="u" horiz-adv-x="1642" d="M799 391q73 0 112 64v749h619v-1204h-592v211h-4q-92 -117 -187.5 -169t-224.5 -52q-192 0 -306 113.5t-114 310.5v790h584v-655q0 -158 113 -158z" />
<glyph unicode="v" horiz-adv-x="1493" d="M889 1204h608l-522 -1204h-457l-522 1204h608l144 -348z" />
<glyph unicode="w" horiz-adv-x="2028" d="M862 1204h287l123 -319l133 319h620l-534 -1204h-344l-143 330l-144 -330h-344l-514 1204h612l129 -319z" />
<glyph unicode="x" d="M1059 1204h670l-474 -610l474 -594h-713l-168 238l-168 -238h-662l474 612l-474 592h711l168 -233z" />
<glyph unicode="y" horiz-adv-x="1516" d="M907 1204h600l-651 -1542h-672l248 586l-424 956h615l145 -321z" />
<glyph unicode="z" horiz-adv-x="1343" d="M1307 403v-403h-1289l435 819h-379v385h1239l-426 -801h420z" />
<glyph unicode="{" horiz-adv-x="819" d="M39 381h-31v389h29q164 0 164 211v176q0 156 52 239t146.5 111.5t239.5 28.5h164v-377h-8q-74 0 -108 -8t-52.5 -45t-18.5 -123v-4q0 -111 -10 -184.5t-49 -132t-121 -87.5q74 -26 113 -72t53 -121t14 -204v15q0 -91 14.5 -133t49.5 -57t108 -15h15v-375h-172 q-166 0 -259 42t-132 125t-39 220v193q0 83 -43 135.5t-119 52.5z" />
<glyph unicode="|" horiz-adv-x="1366" d="M518 -178v1704h328v-1704h-328z" />
<glyph unicode="}" horiz-adv-x="819" d="M780 768h31v-389h-29q-164 0 -164 -211v-176q0 -156 -53 -239t-146 -111.5t-241 -28.5h-162v375h9q71 0 106 9t53.5 47t18.5 122v4q0 113 9 185.5t48 131t121 86.5q-74 29 -112 74t-52 120t-14 204v-15q0 88 -12.5 129t-48.5 57.5t-113 16.5h-13v377h170q166 0 260.5 -42 t133 -125t38.5 -220v-193q0 -86 42 -137t120 -51z" />
<glyph unicode="~" horiz-adv-x="1405" d="M465 1006q63 0 124.5 -21.5t145.5 -64.5q78 -39 130.5 -58.5t103.5 -19.5q65 0 146 47t188 149v-438q-193 -164 -355 -164q-65 0 -125.5 22.5t-148.5 65.5q-76 37 -127 56.5t-103 19.5q-69 0 -160 -52t-182 -142v440q101 84 186 122t177 38z" />
<glyph unicode="&#xa1;" horiz-adv-x="831" d="M340 766q-76 29 -119 88t-43 137q0 99 69.5 168.5t168.5 69.5q100 0 169.5 -69.5t69.5 -168.5q0 -78 -43 -137t-116 -88q133 -221 195.5 -391t62.5 -305q0 -121 -44 -215.5t-122 -147.5t-174 -53q-95 0 -170.5 52t-119.5 143.5t-44 207.5q0 174 68.5 342t191.5 367z" />
<glyph unicode="&#xa2;" horiz-adv-x="1343" d="M1233 1317v-520q-84 45 -174 69.5t-170 24.5q-86 0 -136.5 -31t-50.5 -84q0 -108 216 -108q169 0 315 63v-526q-119 -39 -295 -49v-156h-309v170q-170 31 -293 115t-187.5 208.5t-64.5 274.5q0 152 67.5 281t191.5 216t286 113v148h309v-142q96 -12 161.5 -27.5 t133.5 -39.5z" />
<glyph unicode="&#xa3;" horiz-adv-x="1536" d="M1231 1217q-256 0 -320 -349h187v-211h-224q-28 -172 -36 -264h587v-393h-1321q39 311 113 657h-139v211h178q49 328 226 505t460 177q152 0 279 -55t203.5 -155.5t80.5 -231.5q-61 51 -134 80t-140 29z" />
<glyph unicode="&#xa4;" horiz-adv-x="1366" d="M680 1178q53 0 113.5 -14.5t109.5 -39.5l146 146l213 -213l-148 -148q51 -98 51 -217q0 -59 -12 -107t-37 -106l146 -145l-213 -213l-142 141q-114 -55 -227 -55q-119 0 -217 51l-137 -137l-213 213l135 135q-27 59 -40 111.5t-13 111.5q0 127 55 228l-137 137l213 213 l141 -142q45 21 102.5 35.5t110.5 14.5zM858 692q0 74 -52 126t-126 52q-72 0 -124 -53t-52 -125q0 -71 52 -124.5t126 -53.5q72 0 124 52t52 126z" />
<glyph unicode="&#xa5;" d="M1192 0h-635v268h-467v205h467v143h-467v205h373l-426 705h643l194 -408l195 408h643l-426 -705h373v-205h-467v-143h467v-205h-467v-268z" />
<glyph unicode="&#xa6;" horiz-adv-x="1366" d="M518 784v742h328v-742h-328zM518 -178v739h328v-739h-328z" />
<glyph unicode="&#xa7;" horiz-adv-x="1599" d="M1329 1483v-398q-78 84 -189.5 131.5t-228.5 47.5q-96 0 -144 -25t-48 -70q0 -26 53 -48.5t191 -63.5l88 -27q266 -82 346 -162q110 -110 110 -262q0 -106 -50 -175t-171 -144q82 -60 118 -125.5t36 -149.5q0 -168 -175 -259t-497 -91q-182 0 -337 29.5t-255 83.5v385 q90 -101 237.5 -156t313.5 -55q84 0 128 21.5t44 58.5t-48 61.5t-138 54.5l-99 31q-213 64 -329 127q-101 57 -147 121.5t-46 167.5q0 119 57.5 196.5t186.5 135.5q-76 57 -111 116.5t-35 133.5q0 112 80 197t229.5 132t348.5 47q127 0 234.5 -16t246.5 -51zM1073 530 q0 56 -40 94t-119.5 69.5t-268.5 92.5q-12 7 -24.5 10t-22.5 7q-41 -43 -56.5 -74t-15.5 -63q0 -41 24.5 -66t92.5 -51.5t258 -89.5l123 -41q29 33 39 55.5t10 56.5z" />
<glyph unicode="&#xa8;" horiz-adv-x="682" d="M96 1626q74 0 124 -50t50 -124t-50 -125t-124 -51q-71 0 -123.5 52t-52.5 124q0 74 51.5 124t124.5 50zM592 1626q74 0 123 -50t49 -124t-49 -125t-123 -51q-72 0 -124 52t-52 124q0 74 51 124t125 50z" />
<glyph unicode="&#xa9;" horiz-adv-x="1743" d="M872 1550q213 0 394.5 -104.5t288 -284.5t106.5 -395q0 -207 -104.5 -388t-285.5 -289.5t-401 -108.5q-206 0 -387.5 103t-291 283.5t-109.5 399.5q0 207 103.5 388t284.5 288.5t402 107.5zM870 121q183 0 331.5 89t233.5 237.5t85 320.5q0 176 -87 323.5t-235.5 233.5 t-323.5 86q-178 0 -327.5 -87t-237.5 -235.5t-88 -322.5q0 -178 88 -325.5t237.5 -233.5t323.5 -86zM940 313q-252 0 -383 122t-131 329q0 117 54.5 221.5t168 172t281.5 67.5q139 0 282 -43v-285q-116 49 -208 49q-101 0 -158.5 -48t-57.5 -130q0 -78 61.5 -127t166.5 -49 q41 0 84 11t119 44v-280q-99 -31 -154 -42.5t-125 -11.5z" />
<glyph unicode="&#xaa;" horiz-adv-x="938" d="M463 868q-51 -32 -95 -46.5t-100 -14.5q-90 0 -149.5 54t-59.5 136q0 95 76 153t195 58q32 0 60 -4t73 -14q0 49 -41 76.5t-115 27.5q-59 0 -109.5 -13t-117.5 -44v219q110 51 193 68.5t192 17.5q211 0 307 -82t96 -246v-401h-405v55zM463 973v102q-39 10 -66 10 q-32 0 -56 -16t-24 -47q0 -29 25 -48.5t61 -19.5q25 0 40.5 8.5t19.5 10.5z" />
<glyph unicode="&#xab;" horiz-adv-x="1430" d="M698 72h-413l-267 534l267 535h413l-190 -535zM1384 72h-413l-266 534l266 535h413l-190 -535z" />
<glyph unicode="&#xac;" horiz-adv-x="1405" d="M1305 248h-414v475h-791v414h1205v-889z" />
<glyph unicode="&#xad;" horiz-adv-x="854" d="M74 389v426h704v-426h-704z" />
<glyph unicode="&#xae;" horiz-adv-x="1743" d="M1661 766q0 -207 -104.5 -388t-285.5 -289.5t-401 -108.5q-206 0 -387.5 103t-291 283.5t-109.5 399.5q0 207 103.5 388t284.5 288.5t402 107.5q213 0 394.5 -104.5t288 -284.5t106.5 -395zM1520 768q0 176 -87 323.5t-235.5 233.5t-323.5 86q-178 0 -327.5 -87 t-237.5 -235.5t-88 -322.5q0 -178 88 -325.5t237.5 -233.5t323.5 -86q183 0 331.5 89t233.5 237.5t85 320.5zM1210 547l117 -207h-375l-59 160q-35 84 -53.5 107.5t-48.5 25.5v-293h-324v870h524q133 0 215 -67.5t82 -175.5q0 -103 -68.5 -169.5t-179.5 -78.5 q56 -21 91.5 -58.5t78.5 -113.5zM940 922q0 41 -28.5 59t-65.5 18h-55v-153h55q94 0 94 76z" />
<glyph unicode="&#xaf;" horiz-adv-x="1024" d="M-12 1633v204h1048v-204h-1048z" />
<glyph unicode="&#xb0;" horiz-adv-x="811" d="M408 979q-76 0 -142.5 39t-105.5 105.5t-39 142.5q0 77 40 143t105.5 103.5t141.5 37.5q77 0 141.5 -37.5t103.5 -103.5t39 -143q0 -76 -38 -142.5t-103.5 -105.5t-142.5 -39zM510 1266q0 41 -30.5 70.5t-71.5 29.5t-71 -29.5t-30 -70.5q0 -39 30 -71t71 -32 q43 0 72.5 31t29.5 72z" />
<glyph unicode="&#xb1;" horiz-adv-x="1405" d="M496 1448h413v-270h396v-412h-396v-270h-413v270h-396v412h396v270zM1305 0h-1205v414h1205v-414z" />
<glyph unicode="&#xb2;" horiz-adv-x="1044" d="M707 1225h174v-142h-736q201 222 254 297q41 60 41 111q0 35 -26.5 57.5t-65.5 22.5q-45 0 -87 -29t-114 -112l9 360q86 51 158.5 74.5t158.5 23.5q172 0 277.5 -89t105.5 -234q0 -84 -32.5 -158t-116.5 -182z" />
<glyph unicode="&#xb3;" horiz-adv-x="1044" d="M895 1669q0 -61 -36 -102t-120 -74v-4q80 -23 122 -73t42 -118q0 -104 -88 -159.5t-260 -55.5h-352v275q47 -47 89 -64.5t97 -17.5q53 0 81 20.5t28 53.5q0 45 -38 70.5t-102 25.5q-39 0 -69.5 -6t-85.5 -23v139l41 -6q78 -8 92 -8q70 0 111.5 22.5t41.5 65.5 q0 35 -29.5 56.5t-80.5 21.5q-57 0 -94 -19.5t-82 -64.5v252h327q365 0 365 -207z" />
<glyph unicode="&#xb4;" horiz-adv-x="694" d="M369 1286h-254l135 297h508z" />
<glyph unicode="&#xb5;" horiz-adv-x="1366" d="M649 391q35 0 64.5 16.5t46.5 47.5v749h618v-1204h-592v111h-4q-18 -66 -46.5 -93.5t-71.5 -27.5q-46 0 -80.5 33.5t-44.5 87.5h-4v-543h-584v1636h584v-674q0 -65 29.5 -102t84.5 -37z" />
<glyph unicode="&#xb6;" d="M1485 1239v-1577h-297v1577h-166v-1577h-297v1012h-143q-205 0 -326 116.5t-121 317.5q0 190 122 304t329 114h1032v-287h-133z" />
<glyph unicode="&#xb7;" horiz-adv-x="831" d="M416 467q-90 0 -165 44t-118 119t-43 163t43 162.5t118 118.5t165 44t164.5 -44t117.5 -119.5t43 -161.5q0 -88 -44 -163t-118.5 -119t-162.5 -44z" />
<glyph unicode="&#xb8;" horiz-adv-x="684" d="M113 -258q55 0 91 18.5t36 55.5q0 28 -30 47.5t-87 19.5l57 68q121 39 240 39q123 0 187.5 -52.5t64.5 -138.5q0 -108 -104.5 -176.5t-282.5 -68.5q-72 0 -153 10t-130 26l21 154q32 -2 90 -2z" />
<glyph unicode="&#xb9;" horiz-adv-x="1044" d="M319 1786l408 102v-805h-408v703z" />
<glyph unicode="&#xba;" horiz-adv-x="961" d="M479 803q-125 0 -222 47t-151.5 133t-54.5 195q0 108 55.5 193t152.5 132t220 47t220.5 -47t152.5 -132t55 -193q0 -109 -54 -195t-152.5 -133t-221.5 -47zM567 1184q0 37 -23.5 59.5t-64.5 22.5q-37 0 -62.5 -22.5t-25.5 -59.5q0 -35 25.5 -58.5t64.5 -23.5 q37 0 61.5 23.5t24.5 58.5z" />
<glyph unicode="&#xbb;" horiz-adv-x="1430" d="M459 72h-414l191 534l-191 535h414l266 -535zM1145 72h-414l191 534l-191 535h414l266 -535z" />
<glyph unicode="&#xbc;" horiz-adv-x="2198" d="M319 1448l408 102v-805h-408v703zM499 0l899 1526h299l-899 -1526h-299zM2134 449v-183h-151v-266h-408v266h-364v170l364 357h408v-344h151zM1575 639l-192 -190h192v190z" />
<glyph unicode="&#xbd;" horiz-adv-x="2198" d="M319 1448l408 102v-805h-408v703zM475 0l899 1526h299l-899 -1526h-299zM1858 141h174v-141h-736q201 221 254 297q41 59 41 111q0 34 -26.5 56.5t-65.5 22.5q-45 0 -87 -28.5t-114 -112.5l9 361q86 51 158.5 74.5t158.5 23.5q172 0 277.5 -89t105.5 -235 q0 -84 -32.5 -157.5t-116.5 -182.5z" />
<glyph unicode="&#xbe;" horiz-adv-x="2198" d="M895 1331q0 -61 -36 -102t-120 -74v-4q80 -23 122 -73t42 -117q0 -105 -88 -160.5t-260 -55.5h-352v275q47 -47 89 -64.5t97 -17.5q53 0 81 20.5t28 53.5q0 45 -38 70.5t-102 25.5q-39 0 -69.5 -6t-85.5 -23v140l41 -7q78 -8 92 -8q70 0 111.5 22.5t41.5 65.5 q0 35 -29.5 56.5t-80.5 21.5q-57 0 -94 -19.5t-82 -64.5v252h327q365 0 365 -207zM499 0l899 1526h299l-899 -1526h-299zM2134 449v-183h-151v-266h-408v266h-364v170l364 357h408v-344h151zM1575 639l-192 -190h192v190z" />
<glyph unicode="&#xbf;" horiz-adv-x="1174" d="M524 748q-82 28 -126 89.5t-44 143.5q0 104 72 176t176 72q107 0 179.5 -71t72.5 -173q0 -70 -30.5 -123t-92.5 -131q-65 -78 -98 -138.5t-33 -139.5q0 -123 72.5 -197t191.5 -74q60 0 128.5 21.5t168.5 72.5q-41 -167 -128 -309.5t-213 -227.5t-275 -85 q-119 0 -218.5 56.5t-156.5 155.5t-57 224q0 172 99 327.5t312 330.5z" />
<glyph unicode="&#xc0;" horiz-adv-x="2028" d="M1350 0l-88 258h-496l-88 -258h-676l530 1526h963l530 -1526h-675zM1016 991h-4l-123 -373h250zM1215 1622h-256l-387 297h508z" />
<glyph unicode="&#xc1;" horiz-adv-x="2028" d="M1350 0l-88 258h-496l-88 -258h-676l530 1526h963l530 -1526h-675zM1016 991h-4l-123 -373h250zM1043 1622h-254l135 297h508z" />
<glyph unicode="&#xc2;" horiz-adv-x="2028" d="M1350 0l-88 258h-496l-88 -258h-676l530 1526h963l530 -1526h-675zM1016 991h-4l-123 -373h250zM1432 1622h-279l-135 111l-139 -111h-279l176 317h484z" />
<glyph unicode="&#xc3;" horiz-adv-x="2028" d="M1350 0l-88 258h-496l-88 -258h-676l530 1526h963l530 -1526h-675zM1016 991h-4l-123 -373h250zM877 1966q45 0 80.5 -11t78.5 -32q70 -35 117 -35q29 0 44.5 17.5t17.5 60.5h211q-9 -170 -76.5 -257t-188.5 -87q-30 0 -64 9t-63.5 20.5t-37.5 15.5q-35 14 -67 24.5 t-50 10.5q-58 0 -66 -80h-205q9 180 73.5 262t195.5 82z" />
<glyph unicode="&#xc4;" horiz-adv-x="2028" d="M1350 0l-88 258h-496l-88 -258h-676l530 1526h963l530 -1526h-675zM1016 991h-4l-123 -373h250zM770 1962q74 0 124 -50t50 -124t-50 -125t-124 -51q-71 0 -123.5 52t-52.5 124q0 74 51.5 124t124.5 50zM1266 1962q74 0 123 -50t49 -124t-49 -125t-123 -51q-72 0 -124 52 t-52 124q0 74 51 124t125 50z" />
<glyph unicode="&#xc5;" horiz-adv-x="2028" d="M1350 0l-88 258h-496l-88 -258h-676l530 1526h963l530 -1526h-675zM1016 991h-4l-123 -373h250zM1016 1593q-98 0 -165.5 69t-67.5 163t67.5 161.5t165.5 67.5q96 0 163.5 -66.5t67.5 -162.5t-67.5 -164t-163.5 -68zM1110 1825q0 41 -28.5 67.5t-67.5 26.5t-66.5 -26.5 t-27.5 -67.5t27.5 -68.5t66.5 -27.5t67.5 27.5t28.5 68.5z" />
<glyph unicode="&#xc6;" horiz-adv-x="2497" d="M1858 1143v-187h413v-383h-413v-190h591v-383h-1267v285h-389l-117 -285h-676l678 1526h1771v-383h-591zM1182 612v648h-4l-254 -648h258z" />
<glyph unicode="&#xc7;" horiz-adv-x="1599" d="M649 -258q56 0 91.5 18.5t35.5 55.5q0 28 -29.5 47.5t-87.5 19.5l58 68q41 14 127 31q-228 20 -394.5 127.5t-255 275.5t-88.5 367q0 237 113 418.5t306.5 280.5t430.5 99q168 0 337 -46t278 -115l-283 -539q-129 43 -272 43q-217 0 -217 -117q0 -57 59.5 -88t171.5 -31 q148 0 258 54l283 -578q-98 -59 -237.5 -100t-282.5 -53q77 -19 117 -66t40 -115q0 -108 -104.5 -176.5t-282.5 -68.5q-71 0 -152 10t-130 26l20 154q33 -2 90 -2z" />
<glyph unicode="&#xc8;" horiz-adv-x="1473" d="M825 1143v-189h412v-383h-412v-188h592v-383h-1267v1526h1267v-383h-592zM936 1622h-256l-387 297h508z" />
<glyph unicode="&#xc9;" horiz-adv-x="1473" d="M825 1143v-189h412v-383h-412v-188h592v-383h-1267v1526h1267v-383h-592zM764 1622h-254l135 297h508z" />
<glyph unicode="&#xca;" horiz-adv-x="1473" d="M825 1143v-189h412v-383h-412v-188h592v-383h-1267v1526h1267v-383h-592zM1153 1622h-279l-135 111l-139 -111h-279l176 317h484z" />
<glyph unicode="&#xcb;" horiz-adv-x="1473" d="M825 1143v-189h412v-383h-412v-188h592v-383h-1267v1526h1267v-383h-592zM532 1962q74 0 124 -50t50 -124t-50 -125t-124 -51q-71 0 -123.5 52t-52.5 124q0 74 51.5 124t124.5 50zM1028 1962q74 0 123 -50t49 -124t-49 -125t-123 -51q-72 0 -124 52t-52 124q0 74 51 124 t125 50z" />
<glyph unicode="&#xcc;" horiz-adv-x="981" d="M154 0v1526h675v-1526h-675zM691 1622h-256l-387 297h508z" />
<glyph unicode="&#xcd;" horiz-adv-x="981" d="M154 0v1526h675v-1526h-675zM519 1622h-254l135 297h508z" />
<glyph unicode="&#xce;" horiz-adv-x="981" d="M154 0v1526h675v-1526h-675zM908 1622h-279l-135 111l-139 -111h-279l176 317h484z" />
<glyph unicode="&#xcf;" horiz-adv-x="981" d="M154 0v1526h675v-1526h-675zM246 1962q74 0 124 -50t50 -124t-50 -125t-124 -51q-71 0 -123.5 52t-52.5 124q0 74 51.5 124t124.5 50zM742 1962q74 0 123 -50t49 -124t-49 -125t-123 -51q-72 0 -124 52t-52 124q0 74 51 124t125 50z" />
<glyph unicode="&#xd0;" horiz-adv-x="1812" d="M1751 760q0 -182 -86 -355.5t-277.5 -289t-490.5 -115.5h-745v618h-213v287h213v621h763q267 0 455.5 -105.5t284.5 -280.5t96 -380zM1075 766q0 86 -52 131t-155 45h-41v-358h19q121 0 175 43t54 139z" />
<glyph unicode="&#xd1;" horiz-adv-x="1812" d="M989 1016v510h676v-1538h-512l-324 475h-4v-463h-675v1526h483l352 -510h4zM768 1966q45 0 80.5 -11t78.5 -32q70 -35 117 -35q29 0 44.5 17.5t17.5 60.5h211q-9 -170 -76.5 -257t-188.5 -87q-30 0 -64 9t-63.5 20.5t-37.5 15.5q-35 14 -67 24.5t-50 10.5q-58 0 -66 -80 h-205q9 180 73.5 262t195.5 82z" />
<glyph unicode="&#xd2;" d="M1657 764q0 -217 -103.5 -398.5t-282.5 -286t-399 -104.5q-215 0 -394 105.5t-282.5 287t-103.5 396.5t102.5 395t281.5 285.5t398 105.5q218 0 397 -105.5t282.5 -285.5t103.5 -395zM874 645q64 0 108 44t44 116q0 69 -43 114.5t-109 45.5q-65 0 -108 -45.5t-43 -114.5 q0 -72 44 -116t107 -44zM1076 1622h-256l-387 297h508z" />
<glyph unicode="&#xd3;" d="M1657 764q0 -217 -103.5 -398.5t-282.5 -286t-399 -104.5q-215 0 -394 105.5t-282.5 287t-103.5 396.5t102.5 395t281.5 285.5t398 105.5q218 0 397 -105.5t282.5 -285.5t103.5 -395zM874 645q64 0 108 44t44 116q0 69 -43 114.5t-109 45.5q-65 0 -108 -45.5t-43 -114.5 q0 -72 44 -116t107 -44zM904 1622h-254l135 297h508z" />
<glyph unicode="&#xd4;" d="M1657 764q0 -217 -103.5 -398.5t-282.5 -286t-399 -104.5q-215 0 -394 105.5t-282.5 287t-103.5 396.5t102.5 395t281.5 285.5t398 105.5q218 0 397 -105.5t282.5 -285.5t103.5 -395zM874 645q64 0 108 44t44 116q0 69 -43 114.5t-109 45.5q-65 0 -108 -45.5t-43 -114.5 q0 -72 44 -116t107 -44zM1293 1622h-279l-135 111l-139 -111h-279l176 317h484z" />
<glyph unicode="&#xd5;" d="M1657 764q0 -217 -103.5 -398.5t-282.5 -286t-399 -104.5q-215 0 -394 105.5t-282.5 287t-103.5 396.5t102.5 395t281.5 285.5t398 105.5q218 0 397 -105.5t282.5 -285.5t103.5 -395zM874 645q64 0 108 44t44 116q0 69 -43 114.5t-109 45.5q-65 0 -108 -45.5t-43 -114.5 q0 -72 44 -116t107 -44zM738 1966q45 0 80.5 -11t78.5 -32q70 -35 117 -35q29 0 44.5 17.5t17.5 60.5h211q-9 -170 -76.5 -257t-188.5 -87q-30 0 -64 9t-63.5 20.5t-37.5 15.5q-35 14 -67 24.5t-50 10.5q-58 0 -66 -80h-205q9 180 73.5 262t195.5 82z" />
<glyph unicode="&#xd6;" d="M1657 764q0 -217 -103.5 -398.5t-282.5 -286t-399 -104.5q-215 0 -394 105.5t-282.5 287t-103.5 396.5t102.5 395t281.5 285.5t398 105.5q218 0 397 -105.5t282.5 -285.5t103.5 -395zM874 645q64 0 108 44t44 116q0 69 -43 114.5t-109 45.5q-65 0 -108 -45.5t-43 -114.5 q0 -72 44 -116t107 -44zM631 1962q74 0 124 -50t50 -124t-50 -125t-124 -51q-71 0 -123.5 52t-52.5 124q0 74 51.5 124t124.5 50zM1127 1962q74 0 123 -50t49 -124t-49 -125t-123 -51q-72 0 -124 52t-52 124q0 74 51 124t125 50z" />
<glyph unicode="&#xd7;" horiz-adv-x="1405" d="M379 1303l321 -316l324 316l297 -299l-322 -320l324 -319l-299 -299l-324 325l-321 -323l-297 297l321 319l-323 322z" />
<glyph unicode="&#xd8;" d="M1657 764q0 -217 -103.5 -398.5t-282.5 -286t-399 -104.5q-135 0 -255.5 42t-221.5 120l-202 -207l-152 146l207 211q-76 102 -116 223t-40 254q0 215 102.5 395t281.5 285.5t398 105.5q130 0 247.5 -38.5t215.5 -110.5l152 153l153 -143l-153 -158q80 -102 124 -227 t44 -262zM874 645q64 0 108 44t44 116q0 69 -43 114.5t-109 45.5q-65 0 -108 -45.5t-43 -114.5q0 -72 44 -116t107 -44z" />
<glyph unicode="&#xd9;" horiz-adv-x="1772" d="M885 -25q-367 0 -562.5 206t-195.5 614v731h676v-719q0 -82 18.5 -122t61.5 -40q49 0 67.5 37t18.5 125v719h676v-725q0 -408 -185.5 -617t-574.5 -209zM1086 1622h-256l-387 297h508z" />
<glyph unicode="&#xda;" horiz-adv-x="1772" d="M885 -25q-367 0 -562.5 206t-195.5 614v731h676v-719q0 -82 18.5 -122t61.5 -40q49 0 67.5 37t18.5 125v719h676v-725q0 -408 -185.5 -617t-574.5 -209zM914 1622h-254l135 297h508z" />
<glyph unicode="&#xdb;" horiz-adv-x="1772" d="M885 -25q-367 0 -562.5 206t-195.5 614v731h676v-719q0 -82 18.5 -122t61.5 -40q49 0 67.5 37t18.5 125v719h676v-725q0 -408 -185.5 -617t-574.5 -209zM1303 1622h-279l-135 111l-139 -111h-279l176 317h484z" />
<glyph unicode="&#xdc;" horiz-adv-x="1772" d="M885 -25q-367 0 -562.5 206t-195.5 614v731h676v-719q0 -82 18.5 -122t61.5 -40q49 0 67.5 37t18.5 125v719h676v-725q0 -408 -185.5 -617t-574.5 -209zM641 1962q74 0 124 -50t50 -124t-50 -125t-124 -51q-71 0 -123.5 52t-52.5 124q0 74 51.5 124t124.5 50zM1137 1962 q74 0 123 -50t49 -124t-49 -125t-123 -51q-72 0 -124 52t-52 124q0 74 51 124t125 50z" />
<glyph unicode="&#xdd;" horiz-adv-x="1855" d="M1163 1526h684l-581 -860v-666h-676v666l-582 860h684l236 -346zM957 1622h-254l135 297h508z" />
<glyph unicode="&#xde;" horiz-adv-x="1706" d="M1178 242q-91 0 -171.5 30.5t-177.5 102.5v-375h-675v1526h675v-254h254q209 0 344.5 -76t197 -193.5t61.5 -246.5q0 -140 -68 -257.5t-184.5 -187t-255.5 -69.5zM885 602q76 0 123 47t47 127q0 78 -40 122t-114 44h-72v-332q25 -8 56 -8z" />
<glyph unicode="&#xdf;" horiz-adv-x="1622" d="M1528 1077q0 -100 -47 -173t-150 -128q121 -53 179.5 -142t58.5 -220q0 -197 -124 -318t-374 -121q-129 0 -244 25v422q33 -4 35 -4q53 0 83 33.5t30 91.5q0 63 -30 96t-99 43v205q51 4 77.5 35.5t26.5 89.5q0 59 -28.5 91t-83.5 32q-66 0 -89.5 -44t-23.5 -137v-954 h-619v817q0 352 195 542.5t555 190.5q203 0 354.5 -55t234.5 -162.5t83 -255.5z" />
<glyph unicode="&#xe0;" horiz-adv-x="1450" d="M719 90q-62 -47 -144.5 -73.5t-156.5 -26.5q-90 0 -164 40t-116 111.5t-42 163.5q0 103 52.5 182.5t145.5 123.5t214 44q106 0 211 -28q0 86 -64.5 132t-179.5 46q-90 0 -172 -22.5t-176 -73.5v362q149 72 286.5 107.5t307.5 35.5q317 0 466.5 -136t149.5 -408v-670h-618 v90zM719 266v168q-55 19 -101 19q-57 0 -90.5 -29t-33.5 -76q0 -49 36.5 -82t92.5 -33q57 0 96 33zM926 1286h-256l-387 297h508z" />
<glyph unicode="&#xe1;" horiz-adv-x="1450" d="M719 90q-62 -47 -144.5 -73.5t-156.5 -26.5q-90 0 -164 40t-116 111.5t-42 163.5q0 103 52.5 182.5t145.5 123.5t214 44q106 0 211 -28q0 86 -64.5 132t-179.5 46q-90 0 -172 -22.5t-176 -73.5v362q149 72 286.5 107.5t307.5 35.5q317 0 466.5 -136t149.5 -408v-670h-618 v90zM719 266v168q-55 19 -101 19q-57 0 -90.5 -29t-33.5 -76q0 -49 36.5 -82t92.5 -33q57 0 96 33zM754 1286h-254l135 297h508z" />
<glyph unicode="&#xe2;" horiz-adv-x="1450" d="M719 90q-62 -47 -144.5 -73.5t-156.5 -26.5q-90 0 -164 40t-116 111.5t-42 163.5q0 103 52.5 182.5t145.5 123.5t214 44q106 0 211 -28q0 86 -64.5 132t-179.5 46q-90 0 -172 -22.5t-176 -73.5v362q149 72 286.5 107.5t307.5 35.5q317 0 466.5 -136t149.5 -408v-670h-618 v90zM719 266v168q-55 19 -101 19q-57 0 -90.5 -29t-33.5 -76q0 -49 36.5 -82t92.5 -33q57 0 96 33zM1143 1307h-279l-135 139l-139 -139h-279l176 346h484z" />
<glyph unicode="&#xe3;" horiz-adv-x="1450" d="M719 90q-62 -47 -144.5 -73.5t-156.5 -26.5q-90 0 -164 40t-116 111.5t-42 163.5q0 103 52.5 182.5t145.5 123.5t214 44q106 0 211 -28q0 86 -64.5 132t-179.5 46q-90 0 -172 -22.5t-176 -73.5v362q149 72 286.5 107.5t307.5 35.5q317 0 466.5 -136t149.5 -408v-670h-618 v90zM719 266v168q-55 19 -101 19q-57 0 -90.5 -29t-33.5 -76q0 -49 36.5 -82t92.5 -33q57 0 96 33zM588 1634q45 0 80.5 -11t78.5 -32q70 -35 117 -35q29 0 44.5 17.5t17.5 60.5h211q-9 -170 -76.5 -257t-188.5 -87q-30 0 -64 9.5t-63.5 20.5t-37.5 15q-35 15 -67 25t-50 10 q-58 0 -66 -80h-205q9 180 73.5 262t195.5 82z" />
<glyph unicode="&#xe4;" horiz-adv-x="1450" d="M719 90q-62 -47 -144.5 -73.5t-156.5 -26.5q-90 0 -164 40t-116 111.5t-42 163.5q0 103 52.5 182.5t145.5 123.5t214 44q106 0 211 -28q0 86 -64.5 132t-179.5 46q-90 0 -172 -22.5t-176 -73.5v362q149 72 286.5 107.5t307.5 35.5q317 0 466.5 -136t149.5 -408v-670h-618 v90zM719 266v168q-55 19 -101 19q-57 0 -90.5 -29t-33.5 -76q0 -49 36.5 -82t92.5 -33q57 0 96 33zM481 1626q74 0 124 -50t50 -124t-50 -125t-124 -51q-71 0 -123.5 52t-52.5 124q0 74 51.5 124t124.5 50zM977 1626q74 0 123 -50t49 -124t-49 -125t-123 -51q-72 0 -124 52 t-52 124q0 74 51 124t125 50z" />
<glyph unicode="&#xe5;" horiz-adv-x="1450" d="M719 90q-62 -47 -144.5 -73.5t-156.5 -26.5q-90 0 -164 40t-116 111.5t-42 163.5q0 103 52.5 182.5t145.5 123.5t214 44q106 0 211 -28q0 86 -64.5 132t-179.5 46q-90 0 -172 -22.5t-176 -73.5v362q149 72 286.5 107.5t307.5 35.5q317 0 466.5 -136t149.5 -408v-670h-618 v90zM719 266v168q-55 19 -101 19q-57 0 -90.5 -29t-33.5 -76q0 -49 36.5 -82t92.5 -33q57 0 96 33zM727 1260q-98 0 -165.5 68.5t-67.5 162.5t67.5 161.5t165.5 67.5q96 0 163.5 -66.5t67.5 -162.5t-67.5 -163.5t-163.5 -67.5zM821 1491q0 41 -28.5 67.5t-67.5 26.5 t-66.5 -26.5t-27.5 -67.5t27.5 -68.5t66.5 -27.5t67.5 27.5t28.5 68.5z" />
<glyph unicode="&#xe6;" horiz-adv-x="2068" d="M1352 1229q190 0 336.5 -81t229.5 -231.5t83 -355.5v-39h-629q35 -92 117 -143t188 -51q92 0 176 33.5t148 95.5v-205q-123 -141 -264.5 -205.5t-315.5 -64.5q-334 0 -536 178q-236 -178 -469 -178q-146 0 -236 89t-90 232q0 166 111.5 262.5t302.5 96.5q121 0 209 -35 q-8 102 -67.5 147t-184.5 45q-88 0 -170 -22.5t-174 -73.5v364q123 68 263 105t286 37q114 0 211.5 -20.5t162.5 -59.5q119 80 312 80zM1477 924q-64 0 -103 -49.5t-39 -129.5v-12h289q-6 92 -44 141.5t-103 49.5zM713 258v178q-45 23 -99 23q-57 0 -94 -31t-37 -82t36 -87 t91 -36q54 0 103 35z" />
<glyph unicode="&#xe7;" horiz-adv-x="1343" d="M496 -258q55 0 91 18.5t36 55.5q0 28 -30 47.5t-87 19.5l57 68q70 24 168 35q-227 20 -370.5 114.5t-208 225.5t-64.5 272q0 180 87 323.5t245 225.5t364 82q107 0 226.5 -18.5t222.5 -53.5v-528q-186 88 -338 88q-88 0 -138 -27.5t-50 -79.5q0 -55 55 -85.5t160 -30.5 q86 0 171 17t140 46v-522q-160 -47 -346 -53q82 -17 125 -65t43 -118q0 -108 -104.5 -176.5t-282.5 -68.5q-72 0 -153 10t-130 26l21 154q32 -2 90 -2z" />
<glyph unicode="&#xe8;" horiz-adv-x="1430" d="M1354 563v-39h-631q33 -92 112.5 -144t186.5 -52q98 0 186 34.5t146 96.5v-211q-105 -137 -249 -201.5t-335 -64.5q-207 0 -365.5 78.5t-244.5 223t-86 332.5q0 177 78.5 316t222 218t330.5 79q188 0 335.5 -81t230.5 -231.5t83 -353.5zM825 926q-57 0 -98 -50.5 t-41 -127.5v-13h291q-4 88 -44 139.5t-108 51.5zM916 1286h-256l-387 297h508z" />
<glyph unicode="&#xe9;" horiz-adv-x="1430" d="M1354 563v-39h-631q33 -92 112.5 -144t186.5 -52q98 0 186 34.5t146 96.5v-211q-105 -137 -249 -201.5t-335 -64.5q-207 0 -365.5 78.5t-244.5 223t-86 332.5q0 177 78.5 316t222 218t330.5 79q188 0 335.5 -81t230.5 -231.5t83 -353.5zM825 926q-57 0 -98 -50.5 t-41 -127.5v-13h291q-4 88 -44 139.5t-108 51.5zM744 1286h-254l135 297h508z" />
<glyph unicode="&#xea;" horiz-adv-x="1430" d="M1354 563v-39h-631q33 -92 112.5 -144t186.5 -52q98 0 186 34.5t146 96.5v-211q-105 -137 -249 -201.5t-335 -64.5q-207 0 -365.5 78.5t-244.5 223t-86 332.5q0 177 78.5 316t222 218t330.5 79q188 0 335.5 -81t230.5 -231.5t83 -353.5zM825 926q-57 0 -98 -50.5 t-41 -127.5v-13h291q-4 88 -44 139.5t-108 51.5zM1133 1307h-279l-135 139l-139 -139h-279l176 346h484z" />
<glyph unicode="&#xeb;" horiz-adv-x="1430" d="M1354 563v-39h-631q33 -92 112.5 -144t186.5 -52q98 0 186 34.5t146 96.5v-211q-105 -137 -249 -201.5t-335 -64.5q-207 0 -365.5 78.5t-244.5 223t-86 332.5q0 177 78.5 316t222 218t330.5 79q188 0 335.5 -81t230.5 -231.5t83 -353.5zM825 926q-57 0 -98 -50.5 t-41 -127.5v-13h291q-4 88 -44 139.5t-108 51.5zM471 1626q74 0 124 -50t50 -124t-50 -125t-124 -51q-71 0 -123.5 52t-52.5 124q0 74 51.5 124t124.5 50zM967 1626q74 0 123 -50t49 -124t-49 -125t-123 -51q-72 0 -124 52t-52 124q0 74 51 124t125 50z" />
<glyph unicode="&#xec;" horiz-adv-x="854" d="M436 1135q82 0 164 17t137 52v-1204h-618v1204q57 -33 141 -51t176 -18zM627 1286h-256l-387 297h508z" />
<glyph unicode="&#xed;" horiz-adv-x="854" d="M436 1135q82 0 164 17t137 52v-1204h-618v1204q57 -33 141 -51t176 -18zM455 1286h-254l135 297h508z" />
<glyph unicode="&#xee;" horiz-adv-x="854" d="M436 1135q82 0 164 17t137 52v-1204h-618v1204q57 -33 141 -51t176 -18zM844 1307h-279l-135 139l-139 -139h-279l176 346h484z" />
<glyph unicode="&#xef;" horiz-adv-x="854" d="M436 1135q82 0 164 17t137 52v-1204h-618v1204q57 -33 141 -51t176 -18zM182 1626q74 0 124 -50t50 -124t-50 -125t-124 -51q-71 0 -123.5 52t-52.5 124q0 74 51.5 124t124.5 50zM678 1626q74 0 123 -50t49 -124t-49 -125t-123 -51q-72 0 -124 52t-52 124q0 74 51 124 t125 50z" />
<glyph unicode="&#xf0;" horiz-adv-x="1483" d="M940 1606l219 82l41 -115l-160 -62q185 -196 272 -404t87 -458q0 -231 -91 -382.5t-238.5 -221.5t-321.5 -70q-220 0 -369.5 88.5t-222 232.5t-72.5 316q0 181 71.5 319t200.5 214t295 76q68 0 99.5 -5.5t72.5 -19.5q-39 82 -114 186l-320 -122l-39 122l275 103 q-68 71 -109 101t-145 85v17h444q78 -43 125 -82zM877 623q0 55 -40 95t-98 40q-51 0 -92 -40t-41 -95q0 -54 40 -95t95 -41q56 0 96 40t40 96z" />
<glyph unicode="&#xf1;" horiz-adv-x="1642" d="M956 705q0 147 -114 147q-25 0 -56.5 -11.5t-54.5 -27.5v-813h-618v1204h618v-151q86 86 173 123.5t200 37.5q215 0 325.5 -119.5t110.5 -340.5v-754h-584v705zM684 1634q45 0 80.5 -11t78.5 -32q70 -35 117 -35q29 0 44.5 17.5t17.5 60.5h211q-9 -170 -76.5 -257 t-188.5 -87q-30 0 -64 9.5t-63.5 20.5t-37.5 15q-35 15 -67 25t-50 10q-58 0 -66 -80h-205q9 180 73.5 262t195.5 82z" />
<glyph unicode="&#xf2;" horiz-adv-x="1473" d="M1395 604q0 -182 -83 -323.5t-232.5 -220t-344.5 -78.5q-192 0 -341.5 79.5t-232.5 221t-83 321.5q0 182 83 323.5t232.5 221.5t341.5 80q193 0 342.5 -78t233.5 -220.5t84 -326.5zM872 616q0 62 -37.5 100t-99.5 38q-59 0 -97 -38t-38 -100q0 -61 38 -99t97 -38 q62 0 99.5 38t37.5 99zM936 1286h-256l-387 297h508z" />
<glyph unicode="&#xf3;" horiz-adv-x="1473" d="M1395 604q0 -182 -83 -323.5t-232.5 -220t-344.5 -78.5q-192 0 -341.5 79.5t-232.5 221t-83 321.5q0 182 83 323.5t232.5 221.5t341.5 80q193 0 342.5 -78t233.5 -220.5t84 -326.5zM872 616q0 62 -37.5 100t-99.5 38q-59 0 -97 -38t-38 -100q0 -61 38 -99t97 -38 q62 0 99.5 38t37.5 99zM764 1286h-254l135 297h508z" />
<glyph unicode="&#xf4;" horiz-adv-x="1473" d="M1395 604q0 -182 -83 -323.5t-232.5 -220t-344.5 -78.5q-192 0 -341.5 79.5t-232.5 221t-83 321.5q0 182 83 323.5t232.5 221.5t341.5 80q193 0 342.5 -78t233.5 -220.5t84 -326.5zM872 616q0 62 -37.5 100t-99.5 38q-59 0 -97 -38t-38 -100q0 -61 38 -99t97 -38 q62 0 99.5 38t37.5 99zM1153 1307h-279l-135 139l-139 -139h-279l176 346h484z" />
<glyph unicode="&#xf5;" horiz-adv-x="1473" d="M1395 604q0 -182 -83 -323.5t-232.5 -220t-344.5 -78.5q-192 0 -341.5 79.5t-232.5 221t-83 321.5q0 182 83 323.5t232.5 221.5t341.5 80q193 0 342.5 -78t233.5 -220.5t84 -326.5zM872 616q0 62 -37.5 100t-99.5 38q-59 0 -97 -38t-38 -100q0 -61 38 -99t97 -38 q62 0 99.5 38t37.5 99zM598 1634q45 0 80.5 -11t78.5 -32q70 -35 117 -35q29 0 44.5 17.5t17.5 60.5h211q-9 -170 -76.5 -257t-188.5 -87q-30 0 -64 9.5t-63.5 20.5t-37.5 15q-35 15 -67 25t-50 10q-58 0 -66 -80h-205q9 180 73.5 262t195.5 82z" />
<glyph unicode="&#xf6;" horiz-adv-x="1473" d="M1395 604q0 -182 -83 -323.5t-232.5 -220t-344.5 -78.5q-192 0 -341.5 79.5t-232.5 221t-83 321.5q0 182 83 323.5t232.5 221.5t341.5 80q193 0 342.5 -78t233.5 -220.5t84 -326.5zM872 616q0 62 -37.5 100t-99.5 38q-59 0 -97 -38t-38 -100q0 -61 38 -99t97 -38 q62 0 99.5 38t37.5 99zM491 1626q74 0 124 -50t50 -124t-50 -125t-124 -51q-71 0 -123.5 52t-52.5 124q0 74 51.5 124t124.5 50zM987 1626q74 0 123 -50t49 -124t-49 -125t-123 -51q-72 0 -124 52t-52 124q0 74 51 124t125 50z" />
<glyph unicode="&#xf7;" horiz-adv-x="1405" d="M700 1434q97 0 165.5 -68t68.5 -164q0 -94 -68.5 -162.5t-165.5 -68.5q-59 0 -112 31.5t-86 85t-33 114.5q0 64 33 117t86 84t112 31zM1305 479h-1207v414h1207v-414zM700 401q97 0 165.5 -67.5t68.5 -163.5t-67.5 -163.5t-166.5 -67.5q-94 0 -162.5 68.5t-68.5 162.5 q0 63 33 116.5t86 84t112 30.5z" />
<glyph unicode="&#xf8;" horiz-adv-x="1473" d="M1098 1139l141 151l129 -119l-133 -141q76 -82 118 -190.5t42 -235.5q0 -182 -83 -323.5t-232.5 -220t-344.5 -78.5q-223 0 -391 106l-151 -160l-132 117l152 160q-135 164 -135 399q0 182 83 323.5t232.5 221.5t341.5 80q201 0 363 -90zM872 616q0 62 -37.5 100 t-99.5 38q-59 0 -97 -38t-38 -100q0 -61 38 -99t97 -38q62 0 99.5 38t37.5 99z" />
<glyph unicode="&#xf9;" horiz-adv-x="1642" d="M799 391q73 0 112 64v749h619v-1204h-592v211h-4q-92 -117 -187.5 -169t-224.5 -52q-192 0 -306 113.5t-114 310.5v790h584v-655q0 -158 113 -158zM1035 1286h-256l-387 297h508z" />
<glyph unicode="&#xfa;" horiz-adv-x="1642" d="M799 391q73 0 112 64v749h619v-1204h-592v211h-4q-92 -117 -187.5 -169t-224.5 -52q-192 0 -306 113.5t-114 310.5v790h584v-655q0 -158 113 -158zM863 1286h-254l135 297h508z" />
<glyph unicode="&#xfb;" horiz-adv-x="1642" d="M799 391q73 0 112 64v749h619v-1204h-592v211h-4q-92 -117 -187.5 -169t-224.5 -52q-192 0 -306 113.5t-114 310.5v790h584v-655q0 -158 113 -158zM1252 1307h-279l-135 139l-139 -139h-279l176 346h484z" />
<glyph unicode="&#xfc;" horiz-adv-x="1642" d="M799 391q73 0 112 64v749h619v-1204h-592v211h-4q-92 -117 -187.5 -169t-224.5 -52q-192 0 -306 113.5t-114 310.5v790h584v-655q0 -158 113 -158zM590 1626q74 0 124 -50t50 -124t-50 -125t-124 -51q-71 0 -123.5 52t-52.5 124q0 74 51.5 124t124.5 50zM1086 1626 q74 0 123 -50t49 -124t-49 -125t-123 -51q-72 0 -124 52t-52 124q0 74 51 124t125 50z" />
<glyph unicode="&#xfd;" horiz-adv-x="1516" d="M907 1204h600l-651 -1542h-672l248 586l-424 956h615l145 -321zM787 1286h-254l135 297h508z" />
<glyph unicode="&#xfe;" horiz-adv-x="1642" d="M1565 621q0 -187 -76 -330.5t-207 -222t-295 -78.5q-127 0 -248 53v-381h-618v1854h618v-404q140 102 297 102q152 0 271.5 -77.5t188.5 -214t69 -301.5zM846 428q55 0 90 41t35 109q0 67 -35 110t-90 43q-62 0 -107 -57v-217q52 -29 107 -29z" />
<glyph unicode="&#xff;" horiz-adv-x="1516" d="M907 1204h600l-651 -1542h-672l248 586l-424 956h615l145 -321zM514 1626q74 0 124 -50t50 -124t-50 -125t-124 -51q-71 0 -123.5 52t-52.5 124q0 74 51.5 124t124.5 50zM1010 1626q74 0 123 -50t49 -124t-49 -125t-123 -51q-72 0 -124 52t-52 124q0 74 51 124t125 50z " />
<glyph unicode="&#x131;" horiz-adv-x="854" d="M436 1135q82 0 164 17t137 52v-1204h-618v1204q57 -33 141 -51t176 -18z" />
<glyph unicode="&#x152;" horiz-adv-x="2347" d="M1710 1143v-185h412v-383h-412v-192h592v-383h-1358q-278 0 -470.5 108.5t-286 282.5t-93.5 367q0 186 90 362t278.5 291t469.5 115h1370v-383h-592zM1034 795q0 73 -44 120.5t-113 47.5q-70 0 -115 -47.5t-45 -116.5q0 -70 46 -115t116 -45q67 0 111 43t44 113z" />
<glyph unicode="&#x153;" horiz-adv-x="2218" d="M1133 1124q86 54 177 79.5t199 25.5q195 0 341.5 -81t226.5 -231.5t80 -351.5v-43h-629q84 -194 305 -194q86 0 172 34.5t152 96.5v-201q-78 -125 -239 -200.5t-341 -75.5q-127 0 -238.5 30.5t-189.5 87.5q-74 -57 -181.5 -87.5t-232.5 -30.5q-178 0 -326.5 75.5 t-235.5 215t-87 323.5t79 327.5t229.5 224.5t355.5 81q225 0 383 -105zM1636 928q-65 0 -104 -48.5t-41 -146.5h291q-4 92 -41 143.5t-105 51.5zM881 618q0 62 -37 100t-101 38q-57 0 -96 -39t-39 -99q0 -59 40 -97t102 -38q57 0 94 37t37 98z" />
<glyph unicode="&#x178;" horiz-adv-x="1855" d="M1163 1526h684l-581 -860v-666h-676v666l-582 860h684l236 -346zM684 1962q74 0 124 -50t50 -124t-50 -125t-124 -51q-71 0 -123.5 52t-52.5 124q0 74 51.5 124t124.5 50zM1180 1962q74 0 123 -50t49 -124t-49 -125t-123 -51q-72 0 -124 52t-52 124q0 74 51 124t125 50z " />
<glyph unicode="&#x2c6;" horiz-adv-x="684" d="M758 1307h-279l-135 139l-139 -139h-279l176 346h484z" />
<glyph unicode="&#x2dc;" horiz-adv-x="682" d="M203 1634q45 0 80.5 -11t78.5 -32q70 -35 117 -35q29 0 44.5 17.5t17.5 60.5h211q-9 -170 -76.5 -257t-188.5 -87q-30 0 -64 9.5t-63.5 20.5t-37.5 15q-35 15 -67 25t-50 10q-58 0 -66 -80h-205q9 180 73.5 262t195.5 82z" />
<glyph unicode="&#x2000;" horiz-adv-x="1027" />
<glyph unicode="&#x2001;" horiz-adv-x="2054" />
<glyph unicode="&#x2002;" horiz-adv-x="1027" />
<glyph unicode="&#x2003;" horiz-adv-x="2054" />
<glyph unicode="&#x2004;" horiz-adv-x="684" />
<glyph unicode="&#x2005;" horiz-adv-x="513" />
<glyph unicode="&#x2006;" horiz-adv-x="342" />
<glyph unicode="&#x2007;" horiz-adv-x="342" />
<glyph unicode="&#x2008;" horiz-adv-x="256" />
<glyph unicode="&#x2009;" horiz-adv-x="410" />
<glyph unicode="&#x200a;" horiz-adv-x="114" />
<glyph unicode="&#x2010;" horiz-adv-x="854" d="M74 389v426h704v-426h-704z" />
<glyph unicode="&#x2011;" horiz-adv-x="854" d="M74 389v426h704v-426h-704z" />
<glyph unicode="&#x2012;" horiz-adv-x="854" d="M74 389v426h704v-426h-704z" />
<glyph unicode="&#x2013;" horiz-adv-x="1024" d="M-12 397v406h1048v-406h-1048z" />
<glyph unicode="&#x2014;" horiz-adv-x="2048" d="M-12 397v406h2072v-406h-2072z" />
<glyph unicode="&#x2018;" horiz-adv-x="831" d="M418 612q-96 0 -171 47.5t-117 130t-42 185.5q0 135 71.5 258t195.5 208t274 109l18 -12q-67 -39 -109 -107.5t-49 -148.5q136 -41 201.5 -120t65.5 -199q0 -97 -45 -177.5t-122 -127t-171 -46.5z" />
<glyph unicode="&#x2019;" horiz-adv-x="831" d="M414 1550q96 0 170.5 -47t116.5 -130t42 -185q0 -135 -71.5 -258t-195.5 -208t-273 -110l-19 13q68 39 110 107.5t48 148.5q-135 41 -200.5 119.5t-65.5 199.5q0 150 89 250t249 100z" />
<glyph unicode="&#x201a;" horiz-adv-x="831" d="M426 649q96 0 171 -47t117 -130t42 -185q0 -135 -72 -258t-195.5 -208t-273.5 -110l-18 13q67 38 109 107t48 149q-135 40 -200.5 119t-65.5 200q0 96 45 177t122 127t171 46z" />
<glyph unicode="&#x201c;" horiz-adv-x="1686" d="M416 612q-97 0 -171.5 47.5t-116.5 130t-42 185.5q0 135 71.5 258t195.5 208t274 109l18 -12q-67 -39 -109 -107.5t-49 -148.5q136 -41 201.5 -120t65.5 -199q0 -97 -45 -177.5t-122 -127t-171 -46.5zM1272 612q-96 0 -171 47.5t-117 130t-42 185.5q0 135 71.5 258 t195.5 208t274 109l18 -12q-67 -39 -109 -107.5t-49 -148.5q136 -41 201.5 -120t65.5 -199q0 -97 -45 -177.5t-122 -127t-171 -46.5z" />
<glyph unicode="&#x201d;" horiz-adv-x="1686" d="M414 1550q96 0 170.5 -47t116.5 -130t42 -185q0 -135 -71.5 -258t-195.5 -208t-273 -110l-19 13q68 39 110 107.5t48 148.5q-135 41 -200.5 119.5t-65.5 199.5q0 96 45 177t121.5 127t171.5 46zM1270 1550q96 0 171 -47t116.5 -130t41.5 -185q0 -135 -71.5 -258 t-195.5 -208t-273 -110l-19 13q68 39 110 107.5t48 148.5q-135 41 -200.5 119.5t-65.5 199.5q0 96 45 177t122 127t171 46z" />
<glyph unicode="&#x201e;" horiz-adv-x="1686" d="M424 649q96 0 171 -47t117 -130t42 -185q0 -135 -72 -258t-196 -208t-273 -110l-18 13q67 38 109 107t48 149q-135 40 -200.5 119t-65.5 200q0 96 45 177t122 127t171 46zM1280 649q96 0 171 -47t117 -130t42 -185q0 -135 -72 -258t-195.5 -208t-273.5 -110l-18 13 q67 38 109 107t48 149q-135 40 -200.5 119t-65.5 200q0 96 45 177t122 127t171 46z" />
<glyph unicode="&#x2022;" horiz-adv-x="1024" d="M512 389q-88 0 -165 44t-122 121t-45 167q0 88 45 165t121 122t166 45q88 0 165 -44t122 -121t45 -167t-45 -166t-122 -121t-165 -45z" />
<glyph unicode="&#x2026;" horiz-adv-x="2048" d="M342 -25q-70 0 -130 35t-95 95.5t-35 130.5q0 69 35 128.5t94 95.5t131 36t131 -36t94 -95.5t35 -128.5q0 -70 -35 -129.5t-95 -95.5t-130 -36zM1024 -25q-70 0 -130 35t-95 95.5t-35 130.5q0 69 35 128.5t94 95.5t131 36t131 -36t94 -95.5t35 -128.5q0 -70 -35 -129.5 t-95 -95.5t-130 -36zM1706 -25q-70 0 -130 35t-95 95.5t-35 130.5q0 69 35 128.5t94 95.5t131 36t131 -36t94 -95.5t35 -128.5q0 -70 -35 -129.5t-95 -95.5t-130 -36z" />
<glyph unicode="&#x202f;" horiz-adv-x="410" />
<glyph unicode="&#x2039;" horiz-adv-x="748" d="M700 72h-413l-267 534l267 535h413l-190 -535z" />
<glyph unicode="&#x203a;" horiz-adv-x="748" d="M461 72h-414l191 534l-191 535h414l266 -535z" />
<glyph unicode="&#x205f;" horiz-adv-x="513" />
<glyph unicode="&#x20ac;" d="M1241 1251q-137 0 -224 -49t-157 -162h578l-43 -211h-592l-2 -61q0 -37 4 -61h567l-47 -211h-457q58 -109 152 -164.5t221 -55.5q111 0 185.5 25t160.5 86l17 -22q-82 -191 -261.5 -290.5t-437.5 -99.5q-252 0 -434 137.5t-258 383.5h-172l45 211h90l-2 63q0 33 2 59 h-135l49 211h125q74 240 259 376t431 136q262 0 441.5 -100t252.5 -297l-12 -14q-69 53 -160.5 81.5t-185.5 28.5z" />
<glyph unicode="&#x2122;" horiz-adv-x="2265" d="M41 1526h907v-240h-307v-659h-293v659h-307v240zM1571 1087l90 439h440v-899h-278v608l-142 -608h-229l-139 608v-608h-279v899h443z" />
<glyph unicode="&#x25fc;" horiz-adv-x="1205" d="M0 1205h1205v-1205h-1205v1205z" />
<glyph horiz-adv-x="682" d="M342 1260q-98 0 -165.5 68.5t-67.5 162.5t67.5 161.5t165.5 67.5q96 0 163.5 -66.5t67.5 -162.5t-67.5 -163.5t-163.5 -67.5zM436 1491q0 41 -28.5 67.5t-67.5 26.5t-66.5 -26.5t-27.5 -67.5t27.5 -68.5t66.5 -27.5t67.5 27.5t28.5 68.5z" />
<glyph horiz-adv-x="109" d="M-545 0l899 1526h299l-899 -1526h-299z" />
<glyph horiz-adv-x="1044" d="M707 141h174v-141h-736q201 221 254 297q41 59 41 111q0 34 -26.5 56.5t-65.5 22.5q-45 0 -87 -28.5t-114 -112.5l9 361q86 51 158.5 74.5t158.5 23.5q172 0 277.5 -89t105.5 -235q0 -84 -32.5 -157.5t-116.5 -182.5z" />
<glyph horiz-adv-x="1044" d="M993 449v-183h-151v-266h-408v266h-364v170l364 357h408v-344h151zM434 639l-192 -190h192v190z" />
<glyph horiz-adv-x="1044" d="M319 1448l408 102v-805h-408v703z" />
<glyph horiz-adv-x="1044" d="M895 1331q0 -61 -36 -102t-120 -74v-4q80 -23 122 -73t42 -117q0 -105 -88 -160.5t-260 -55.5h-352v275q47 -47 89 -64.5t97 -17.5q53 0 81 20.5t28 53.5q0 45 -38 70.5t-102 25.5q-39 0 -69.5 -6t-85.5 -23v140l41 -7q78 -8 92 -8q70 0 111.5 22.5t41.5 65.5 q0 35 -29.5 56.5t-80.5 21.5q-57 0 -94 -19.5t-82 -64.5v252h327q365 0 365 -207z" />
<glyph horiz-adv-x="682" d="M369 1622h-254l135 297h508z" />
<glyph horiz-adv-x="682" d="M541 1622h-256l-387 297h508z" />
<glyph horiz-adv-x="682" d="M758 1622h-279l-135 111l-139 -111h-279l176 317h484z" />
<glyph horiz-adv-x="682" d="M203 1966q45 0 80.5 -11t78.5 -32q70 -35 117 -35q29 0 44.5 17.5t17.5 60.5h211q-9 -170 -76.5 -257t-188.5 -87q-30 0 -64 9t-63.5 20.5t-37.5 15.5q-35 14 -67 24.5t-50 10.5q-58 0 -66 -80h-205q9 180 73.5 262t195.5 82z" />
<glyph horiz-adv-x="682" d="M96 1962q74 0 124 -50t50 -124t-50 -125t-124 -51q-71 0 -123.5 52t-52.5 124q0 74 51.5 124t124.5 50zM592 1962q74 0 123 -50t49 -124t-49 -125t-123 -51q-72 0 -124 52t-52 124q0 74 51 124t125 50z" />
<glyph horiz-adv-x="682" d="M342 1593q-98 0 -165.5 69t-67.5 163t67.5 161.5t165.5 67.5q96 0 163.5 -66.5t67.5 -162.5t-67.5 -164t-163.5 -68zM436 1825q0 41 -28.5 67.5t-67.5 26.5t-66.5 -26.5t-27.5 -67.5t27.5 -68.5t66.5 -27.5t67.5 27.5t28.5 68.5z" />
</font>
</defs>
</svg>
