<?xml version="1.0" standalone="no"?>
<!DOCTYPE svg PUBLIC "-//W3C//DTD SVG 1.1//EN" "http://www.w3.org/Graphics/SVG/1.1/DTD/svg11.dtd" >
<svg xmlns="http://www.w3.org/2000/svg" xmlns:xlink="http://www.w3.org/1999/xlink" version="1.1">
<metadata></metadata>
<defs>
<font id="gill_sans_novalight" horiz-adv-x="1024" >
<font-face units-per-em="2048" ascent="1638" descent="-410" />
<missing-glyph horiz-adv-x="569" />
<glyph horiz-adv-x="0" />
<glyph horiz-adv-x="682" />
<glyph unicode=" "  horiz-adv-x="569" />
<glyph unicode="&#x09;" horiz-adv-x="569" />
<glyph unicode="&#xa0;" horiz-adv-x="569" />
<glyph unicode="!" horiz-adv-x="414" d="M147 0v178h119v-178h-119zM152 1397h110l-12 -1000h-86z" />
<glyph unicode="&#x22;" horiz-adv-x="569" d="M84 1167v232h104v-232l-22 -262h-60zM381 1167v232h104v-232l-22 -262h-60z" />
<glyph unicode="#" horiz-adv-x="1329" d="M119 426v82h209l82 403h-291v80h307l90 430h84l-88 -430h426l90 430h82l-88 -430h195v-80h-211l-86 -403h297v-82h-312l-88 -424h-82l86 424h-428l-88 -424h-82l86 424h-190zM410 508h428l84 403h-428z" />
<glyph unicode="$" horiz-adv-x="987" d="M66 100v131q184 -133 385 -151v559q-199 61 -291 148t-92 225q0 86 45 158.5t132 119.5t206 58v98h94v-96q186 -13 323 -90v-121q-155 96 -323 112v-528q200 -64 290.5 -155t90.5 -226q0 -147 -101.5 -243.5t-279.5 -116.5v-222h-94v222q-191 6 -385 118zM174 1014 q0 -94 61.5 -151.5t215.5 -110.5v499q-127 -12 -202 -78.5t-75 -158.5zM545 82q131 16 201.5 81.5t70.5 168.5q0 104 -64.5 163.5t-207.5 108.5v-522z" />
<glyph unicode="%" horiz-adv-x="1473" d="M78 1094q0 88 43 161.5t116.5 116.5t161.5 43q86 0 161 -43t119 -116.5t44 -161.5t-43 -162t-118 -117t-163 -43t-161.5 43t-116.5 117t-43 162zM164 1094q0 -101 68.5 -171.5t166.5 -70.5q101 0 169.5 71.5t68.5 170.5q0 98 -68.5 168.5t-169.5 70.5q-96 0 -165.5 -69.5 t-69.5 -169.5zM205 -8q47 74 238.5 346t271.5 387q399 561 475 680h92q-35 -53 -473 -676q-82 -117 -274.5 -390t-239.5 -347h-90zM750 303q0 86 43 161t116.5 119t161.5 44q86 0 161 -43t119 -118t44 -163q0 -86 -43 -159.5t-118 -117.5t-163 -44t-161.5 43t-116.5 117.5 t-43 160.5zM834 303q0 -98 69.5 -169t167.5 -71q100 0 169 71t69 169t-70 170t-170 72q-96 0 -165.5 -71t-69.5 -171z" />
<glyph unicode="&#x26;" horiz-adv-x="1247" d="M51 317q0 129 95.5 226.5t267.5 193.5q-197 195 -209 328q-2 16 -2 47q0 78 38 142.5t110.5 103.5t170.5 39q99 0 173.5 -40t114.5 -108.5t40 -150.5q0 -103 -65.5 -191t-223.5 -186l330 -336q96 139 160 311h102q-66 -204 -199 -381l76 -79l225 -236h-135l-231 240 q-221 -258 -469 -258q-107 0 -191 43t-131 118.5t-47 173.5zM156 326q0 -93 55 -156.5t147 -79.5q54 -8 84 -8q211 14 381 229l-348 359l-110 -70q-105 -68 -157 -132.5t-52 -141.5zM301 1112q0 -76 46 -143.5t122 -145.5q23 -22 31 -32q137 79 194.5 150t57.5 153 q0 96 -62.5 154.5t-167.5 58.5q-96 0 -158.5 -54.5t-62.5 -140.5z" />
<glyph unicode="'" horiz-adv-x="369" d="M133 1167v232h105v-232l-23 -262h-59z" />
<glyph unicode="(" horiz-adv-x="635" d="M152 473q0 268 100 499.5t295 442.5h69q-178 -203 -268 -435t-90 -509q0 -268 93 -510t265 -430h-69q-182 193 -288.5 431.5t-106.5 510.5z" />
<glyph unicode=")" horiz-adv-x="635" d="M16 -469q181 205 270 436.5t89 505.5q0 268 -91 508t-268 434h72q201 -219 297 -440t96 -502q0 -268 -100 -500.5t-293 -441.5h-72z" />
<glyph unicode="*" horiz-adv-x="948" d="M41 932v82l367 -17l2 7l-279 253l59 60l256 -277l5 2l-17 373h84l-18 -373l4 -2l256 277l59 -60l-276 -253l2 -7l362 17v-82l-362 18l-2 -6l276 -256l-59 -59l-256 278l-4 -2l16 -377h-82l17 377l-5 2l-256 -278l-59 59l279 256v6z" />
<glyph unicode="+" horiz-adv-x="1065" d="M86 666v96h397v414h97v-414h399v-96h-399v-414h-97v414h-397z" />
<glyph unicode="," horiz-adv-x="344" d="M82 -197q35 29 54.5 79t19.5 118h-52v178h136v-137q-2 -119 -43 -186.5t-115 -102.5v51z" />
<glyph unicode="-" horiz-adv-x="649" d="M80 418v98h489v-98h-489z" />
<glyph unicode="." horiz-adv-x="340" d="M104 0v178h132v-178h-132z" />
<glyph unicode="/" horiz-adv-x="532" d="M12 -18l430 1433h78l-430 -1433h-78z" />
<glyph unicode="0" d="M66 698q0 222 57 383.5t158.5 247.5t234.5 86q135 0 235.5 -90t153.5 -252t53 -373q0 -217 -54 -379.5t-155.5 -250.5t-236.5 -88q-137 0 -238.5 89t-154.5 250.5t-53 376.5zM174 700q0 -292 89 -456t249 -164q158 0 248 164t90 454q0 291 -90 455t-250 164 q-156 0 -246 -163t-90 -454z" />
<glyph unicode="1" d="M182 1087l408 328h47v-1415h-107v1239l-288 -227z" />
<glyph unicode="2" d="M106 0l76 84q185 190 304.5 332.5t197.5 293t78 289.5q0 152 -89 233t-218 81q-93 0 -172.5 -38t-157.5 -114v129q158 125 338 125q121 0 213 -51t143 -143.5t51 -208.5q0 -140 -64.5 -276t-180 -277.5t-318.5 -356.5h643v-102h-844z" />
<glyph unicode="3" d="M145 59v115q162 -90 312 -90q141 0 227 80t86 215q0 143 -96 223t-268 80v96q167 0 258.5 74t91.5 205q0 112 -83 187t-220 75q-88 0 -152.5 -20.5t-134.5 -63.5v104q74 41 142.5 58.5t156.5 17.5q115 0 205 -44t141 -125t51 -183q0 -117 -63.5 -202t-180.5 -124 q127 -35 196 -129t69 -225q0 -117 -55.5 -209t-151.5 -142t-217 -50q-172 0 -314 77z" />
<glyph unicode="4" d="M39 518v60l698 837h45v-801h187v-96h-187v-518h-104v518h-639zM182 614h496v592z" />
<glyph unicode="5" d="M104 66v108q89 -47 164.5 -68.5t157.5 -21.5q160 0 258 97.5t98 250.5q0 109 -54 184.5t-141 113.5t-188 38q-110 0 -178 -20v649h588v-99h-490v-442q58 8 105 8q139 0 245.5 -54t165 -152.5t58.5 -225.5q0 -131 -57.5 -233.5t-160 -159.5t-237.5 -57q-172 0 -334 84z " />
<glyph unicode="6" d="M98 479q0 254 141.5 485.5t444.5 450.5l61 -80q-215 -153 -342 -318t-170 -347q146 106 306 106q114 0 203 -50t140.5 -139t51.5 -204t-53.5 -206t-146.5 -143t-208 -52q-118 0 -215.5 56t-155 167.5t-57.5 273.5zM207 461q0 -182 90 -281.5t229 -99.5q131 0 215 84 t84 217q0 135 -84 216t-225 81q-65 0 -136 -20.5t-122 -69.5t-51 -127z" />
<glyph unicode="7" d="M84 1294v103h909q-88 -197 -214 -462t-460 -953l-96 43l606 1269h-745z" />
<glyph unicode="8" d="M102 375q0 119 63.5 211t178.5 135q-106 53 -158.5 137t-52.5 191q0 102 52.5 186t139.5 132t191 48q105 0 192 -49t137 -133t50 -184q0 -107 -55.5 -193t-157.5 -135q113 -45 176.5 -135t63.5 -211q0 -113 -53.5 -203t-146.5 -140t-210 -50q-119 0 -213 53t-145.5 143 t-51.5 197zM213 379q0 -131 84 -214t217 -83t215 83t82 216q0 127 -83 207t-218 80q-133 0 -215 -82t-82 -207zM240 1047q0 -123 80.5 -201t195.5 -78q113 0 192.5 78t79.5 201q0 114 -77.5 191t-198.5 77q-115 0 -193.5 -75t-78.5 -193z" />
<glyph unicode="9" d="M90 1012q0 116 53.5 207.5t146.5 143.5t208 52q129 0 227 -61.5t151.5 -175t53.5 -260.5q0 -252 -152.5 -497t-433.5 -439l-63 77q223 164 349 330t161 340q-138 -106 -306 -106q-114 0 -204.5 51t-140.5 140t-50 198zM199 1016q0 -131 87 -214t218 -83q123 0 219 53 t96 166q0 172 -85 275.5t-236 103.5q-131 0 -215 -86t-84 -215z" />
<glyph unicode=":" horiz-adv-x="340" d="M104 0v178h132v-178h-132zM104 741v179h132v-179h-132z" />
<glyph unicode=";" horiz-adv-x="344" d="M82 -197q35 29 54.5 79t19.5 118h-52v178h136v-137q-2 -119 -43 -186.5t-115 -102.5v51zM104 741v179h132v-179h-132z" />
<glyph unicode="&#x3c;" horiz-adv-x="1065" d="M86 653v72l893 412v-107l-762 -340q53 -24 128 -58t161 -73q358 -160 473 -215v-106z" />
<glyph unicode="=" horiz-adv-x="1065" d="M86 418v96h893v-96h-893zM86 911v97h893v-97h-893z" />
<glyph unicode="&#x3e;" horiz-adv-x="1065" d="M86 238v106l758 342q-66 33 -357 162q-249 108 -401 182v107l893 -414v-74z" />
<glyph unicode="?" horiz-adv-x="600" d="M82 1231l47 153q55 31 133 31q107 0 180.5 -70.5t73.5 -214.5q0 -86 -36 -167.5t-105 -176.5q-72 -102 -107 -179t-35 -150q0 -43 21 -76l-14 -14q-76 59 -76 147q0 74 31.5 144.5t97.5 172.5q61 97 88 159.5t27 131.5q0 99 -48.5 149t-123.5 50q-52 0 -81.5 -19.5 t-58.5 -70.5h-14zM193 0v178h120v-178h-120z" />
<glyph unicode="@" horiz-adv-x="1802" d="M86 535q0 241 108.5 443t306 320.5t451.5 118.5q222 0 396 -82t272 -235.5t98 -360.5q0 -176 -61.5 -316t-171 -219t-248.5 -79q-80 0 -121 41t-41 110q0 17 6 66q-90 -104 -175 -160.5t-175 -56.5q-125 0 -201.5 101.5t-76.5 269.5q0 163 63.5 293.5t189 205t304.5 74.5 q143 0 276 -43l-115 -637q-8 -47 -8 -96q0 -47 19.5 -67.5t72.5 -20.5q101 0 188 66.5t138 188.5t51 281q0 185 -86 321t-240.5 208.5t-353.5 72.5q-225 0 -403 -103t-278.5 -287.5t-100.5 -417.5q0 -230 84 -400t235.5 -261t352.5 -91q196 0 343.5 44t262.5 132l41 -57 q-123 -97 -278.5 -144t-370.5 -47q-213 0 -384 95.5t-270.5 281.5t-99.5 447zM547 504q0 -135 57.5 -217t155.5 -82q84 0 164 62.5t163 170.5l95 525q-33 10 -84 18t-101 8q-137 0 -238.5 -61.5t-156.5 -172t-55 -251.5z" />
<glyph unicode="A" horiz-adv-x="1319" d="M6 0l610 1407h76l621 -1407h-113l-205 463h-678l-198 -463h-113zM360 559h592l-299 682z" />
<glyph unicode="B" horiz-adv-x="1081" d="M160 0v1397h319q189 0 310.5 -90t121.5 -263q0 -118 -64.5 -201t-182.5 -116q170 -18 267 -114.5t97 -245.5q0 -172 -129 -269.5t-334 -97.5h-405zM266 96h281q170 0 270.5 68.5t100.5 210.5q0 141 -101.5 214t-304.5 73h-246v-566zM266 758h168q180 0 272.5 71.5 t92.5 202.5q0 137 -87 202.5t-261 65.5h-185v-542z" />
<glyph unicode="C" horiz-adv-x="1366" d="M98 690q0 207 93.5 372t257 259t372.5 94q232 0 461 -106v-121q-221 127 -463 127q-178 0 -317.5 -82t-215 -224.5t-75.5 -312.5q0 -174 77 -313t215 -220t316 -81q250 0 469 133v-123q-217 -110 -469 -110q-219 0 -383 97t-251 260t-87 351z" />
<glyph unicode="D" horiz-adv-x="1507" d="M160 0v1397h497q222 0 392 -87t264 -242t94 -355q0 -215 -94 -377t-263 -249t-391 -87h-499zM266 98h398q188 0 331.5 75t222 210t78.5 311q0 185 -78.5 321t-226 209.5t-344.5 73.5h-381v-1200z" />
<glyph unicode="E" horiz-adv-x="989" d="M160 0v1397h735v-97h-629v-546h611v-99h-611v-559h647v-96h-753z" />
<glyph unicode="F" horiz-adv-x="887" d="M160 0v1397h690v-97h-584v-516h549v-98h-549v-686h-106z" />
<glyph unicode="G" horiz-adv-x="1444" d="M98 696q0 201 91.5 365t256 259t375.5 95q119 0 229.5 -26.5t233.5 -81.5v-117q-221 127 -469 127q-170 0 -308 -79t-217 -218t-79 -309q0 -189 77 -332t217 -222t326 -79q93 0 182 20.5t191 65.5v385h-301v96h408v-551q-113 -57 -228.5 -84.5t-253.5 -27.5 q-227 0 -393 95t-252 258t-86 361z" />
<glyph unicode="H" horiz-adv-x="1444" d="M160 0v1397h106v-641h912v641h106v-1397h-106v655h-912v-655h-106z" />
<glyph unicode="I" horiz-adv-x="426" d="M160 0v1397h106v-1397h-106z" />
<glyph unicode="J" horiz-adv-x="426" d="M-121 -330l51 -2q97 0 146 41t66.5 126t17.5 243v1319h106v-1422q0 -202 -78.5 -305.5t-234.5 -103.5q-27 0 -57 6z" />
<glyph unicode="K" horiz-adv-x="1122" d="M160 0v1397h106v-674l637 674h135l-643 -682l738 -715h-148l-719 696v-696h-106z" />
<glyph unicode="L" horiz-adv-x="975" d="M160 0v1397h106v-1299h686v-98h-792z" />
<glyph unicode="M" horiz-adv-x="1571" d="M160 0v1397h104l522 -654l523 654h102v-1397h-106v1227h-5l-505 -635h-17l-508 635h-4v-1227h-106z" />
<glyph unicode="N" horiz-adv-x="1554" d="M160 0v1397h92l1040 -1229v1229h103v-1397h-95l-1038 1225v-1225h-102z" />
<glyph unicode="O" horiz-adv-x="1640" d="M98 688q0 205 91.5 371t255 261t370.5 95q219 0 384 -97t254 -259t89 -352q0 -203 -92 -368t-258 -261t-379 -96q-209 0 -371.5 96t-253 258t-90.5 352zM209 696q0 -172 80 -312t218 -220t304 -80q197 0 337 89t212 230.5t72 294.5q0 166 -75 306.5t-213 224.5t-319 84 q-186 0 -325.5 -84t-215 -225.5t-75.5 -307.5z" />
<glyph unicode="P" horiz-adv-x="1034" d="M160 0v1397h370q209 0 327 -97.5t118 -275.5q0 -182 -121 -278.5t-344 -96.5h-244v-649h-106zM266 745h246q352 0 352 281q0 274 -352 274h-246v-555z" />
<glyph unicode="Q" horiz-adv-x="1640" d="M98 688q0 213 96.5 379t260 257t362.5 91q225 0 390 -100.5t250 -262t85 -345.5q0 -189 -81 -345.5t-226 -254t-328 -115.5q103 -74 235 -125t220 -51q31 0 57.5 12t61.5 39l14 -14l-135 -140q-168 21 -342 94.5t-340 196.5q-174 29 -306 126t-203 243.5t-71 314.5z M209 696q0 -170 79 -310t217 -221t310 -81q180 0 320.5 81t218.5 221t78 310q0 168 -75 309.5t-213 224.5t-321 83q-184 0 -324.5 -84t-215 -225.5t-74.5 -307.5z" />
<glyph unicode="R" horiz-adv-x="1165" d="M160 0v1397h352q205 0 315.5 -97.5t110.5 -265.5q0 -137 -77 -225t-216 -117q72 -30 117 -75.5t115 -151.5l297 -465h-130l-268 428q-86 135 -158.5 183t-181.5 48h-170v-659h-106zM266 758h162q195 0 297 60.5t102 215.5q0 146 -89 206t-253 60h-219v-542z" />
<glyph unicode="S" horiz-adv-x="905" d="M84 1071q0 98 50 177t140.5 123t202.5 44q162 0 299 -82v-121q-147 107 -301 107q-127 0 -204.5 -67.5t-77.5 -176.5q0 -63 19 -111.5t79.5 -98.5t181.5 -103q141 -64 218 -123t107.5 -129t30.5 -168q0 -104 -49 -186t-138 -128t-206 -46q-192 0 -348 114v133 q168 -151 350 -151q125 0 203 71.5t78 192.5q0 74 -24.5 125t-91 101t-197.5 112q-177 80 -249.5 168t-72.5 223z" />
<glyph unicode="T" horiz-adv-x="1180" d="M29 1300v97h1122v-97h-510v-1300h-106v1300h-506z" />
<glyph unicode="U" horiz-adv-x="1427" d="M143 596v801h107v-803q0 -236 118.5 -376t344.5 -140q227 0 347 140t120 376v803h106v-803q0 -178 -64.5 -316.5t-191.5 -217t-309 -78.5q-283 0 -430.5 164.5t-147.5 449.5z" />
<glyph unicode="V" horiz-adv-x="1210" d="M6 1397h109l493 -1188l488 1188h108l-588 -1420h-20z" />
<glyph unicode="W" horiz-adv-x="2111" d="M4 1397h111l456 -1164l443 1164h84l456 -1155l441 1155h110l-542 -1409h-23l-483 1239l-475 -1239h-21z" />
<glyph unicode="X" horiz-adv-x="1382" d="M6 0l623 719l-586 678h129l522 -604l523 604h129l-588 -678l620 -719h-129l-555 641l-334 -385l-223 -256h-131z" />
<glyph unicode="Y" horiz-adv-x="1174" d="M4 1397h129l453 -551l456 551h127l-528 -643v-754h-109v754z" />
<glyph unicode="Z" horiz-adv-x="1264" d="M16 0l60 92l960 1208h-983v97h1170l-60 -99l-956 -1202h1034v-96h-1225z" />
<glyph unicode="[" horiz-adv-x="608" d="M156 -451v1848h434v-90h-332v-1669h332v-89h-434z" />
<glyph unicode="\" horiz-adv-x="532" d="M12 1415h78l430 -1433h-78z" />
<glyph unicode="]" horiz-adv-x="608" d="M20 -362h332v1669h-332v90h435v-1848h-435v89z" />
<glyph unicode="^" horiz-adv-x="1065" d="M90 817l418 588l90 -53l375 -535l-96 -14l-347 479l-344 -479z" />
<glyph unicode="_" d="M-10 -168h1044v-76h-1044v76z" />
<glyph unicode="`" horiz-adv-x="725" d="M178 1370h119l205 -315h-74z" />
<glyph unicode="a" horiz-adv-x="854" d="M61 209q0 135 130.5 217t396.5 121v94q0 109 -45 157t-152 48q-151 0 -291 -129v106q125 115 299 115q144 0 215.5 -72.5t71.5 -210.5v-553q0 -34 23 -34q28 0 120 71v-76q-55 -43 -95 -62t-72 -19q-74 0 -74 81v48q-76 -70 -142.5 -99.5t-142.5 -29.5q-108 0 -175 64.5 t-67 162.5zM160 221q0 -74 49 -120t129 -46q63 0 121.5 29t128.5 96v305q-199 -20 -313.5 -87.5t-114.5 -176.5z" />
<glyph unicode="b" horiz-adv-x="1018" d="M137 49v1348h96v-594q129 135 312 135q119 0 208 -60.5t137 -166t48 -232.5q0 -149 -59.5 -262t-165 -174t-240.5 -61q-170 0 -336 67zM233 113q123 -45 242 -45q107 0 190 51t129 144t46 214q0 164 -86 269.5t-230 105.5q-84 0 -151.5 -34t-139.5 -111v-594z" />
<glyph unicode="c" horiz-adv-x="842" d="M78 453q0 145 58.5 254.5t161.5 170t234 60.5q119 0 246 -49v-103q-63 33 -120.5 46.5t-120.5 13.5q-107 0 -188 -50.5t-126 -138.5t-45 -196q0 -107 44 -195t128 -140t201 -52q108 0 233 49v-96q-122 -45 -243 -45q-142 0 -247.5 64.5t-160.5 172t-55 234.5z" />
<glyph unicode="d" horiz-adv-x="1018" d="M78 463q0 143 58.5 250.5t158.5 166t225 58.5q137 0 264 -74v533h99v-1397h-344q-144 0 -248.5 62.5t-158.5 168t-54 232.5zM178 461q0 -172 103.5 -273.5t271.5 -101.5h231v684q-63 43 -124.5 62.5t-135.5 19.5q-153 0 -249.5 -107.5t-96.5 -283.5z" />
<glyph unicode="e" horiz-adv-x="942" d="M78 461q0 137 51 245.5t144.5 170t213.5 61.5q175 0 277 -118t110 -333h-694q0 -2 -1 -8t-1 -20q0 -107 43 -195t124 -139t190 -51q178 0 327 112v-98q-84 -57 -166 -81.5t-172 -24.5q-127 0 -229 59t-159.5 168.5t-57.5 251.5zM184 551h592q-18 145 -92 223t-199 78 q-118 0 -202 -83t-99 -218z" />
<glyph unicode="f" horiz-adv-x="528" d="M33 834v86h141v118q0 181 81 279t224 98q72 0 139 -24v-93q-59 25 -126 25q-111 0 -165.5 -69.5t-54.5 -217.5v-116h222v-86h-222v-834h-98v834h-141z" />
<glyph unicode="g" horiz-adv-x="846" d="M23 -215q0 195 239 244q-115 32 -115 125q0 112 170 151q-108 31 -167.5 111t-59.5 186q0 143 98.5 230.5t268.5 87.5h368v-78h-227q70 -33 107.5 -98.5t37.5 -145.5q0 -115 -73.5 -200t-214.5 -113q-117 -23 -165 -48.5t-48 -72.5q0 -55 45 -73.5t164 -33.5l-2 1 l114 -17q268 -43 268 -244q0 -125 -111.5 -196.5t-295.5 -71.5q-195 0 -298 68.5t-103 187.5zM117 -211q0 -88 78.5 -134t228.5 -46q147 0 229 48t82 136t-81 134t-240 46q-138 0 -217.5 -47t-79.5 -137zM180 600q0 -102 67.5 -165.5t168.5 -63.5q100 0 168.5 65.5 t68.5 167.5q0 98 -65.5 165t-165.5 67q-105 0 -173.5 -65.5t-68.5 -170.5z" />
<glyph unicode="h" horiz-adv-x="999" d="M137 0v1397h96v-637q58 82 143 130t179 48q160 0 238.5 -99.5t78.5 -265.5v-573h-96v569q0 133 -60.5 209t-180.5 76q-179 0 -302 -186v-668h-96z" />
<glyph unicode="i" horiz-adv-x="371" d="M137 0v920h96v-920h-96zM137 1104v176h96v-176h-96z" />
<glyph unicode="j" horiz-adv-x="371" d="M-39 -397q92 16 134 87.5t42 213.5v1016h96v-1014q0 -168 -50 -257t-163 -120zM137 1104v176h96v-176h-96z" />
<glyph unicode="k" horiz-adv-x="850" d="M137 0v1397h96v-905l461 428h119l-469 -443l547 -477h-131l-527 463v-463h-96z" />
<glyph unicode="l" horiz-adv-x="371" d="M137 0v1397h96v-1397h-96z" />
<glyph unicode="m" horiz-adv-x="1569" d="M137 0v920h96v-160q64 86 144 132t170 46q102 0 173 -52t99 -153q80 109 156 157t168 48q145 0 222 -93t77 -272v-573h-96v559q0 293 -232 293q-78 0 -148.5 -47t-127.5 -139v-666h-97v580q0 139 -54 206.5t-167 67.5q-170 0 -287 -184v-670h-96z" />
<glyph unicode="n" horiz-adv-x="999" d="M137 0v920h96v-158q58 82 146 129t174 47q160 0 239.5 -100.5t79.5 -274.5v-563h-96v553q0 145 -63.5 223t-182.5 78q-90 0 -165.5 -49t-131.5 -139v-666h-96z" />
<glyph unicode="o" horiz-adv-x="1094" d="M78 451q0 139 59.5 249.5t167 174t244.5 63.5q133 0 238.5 -62.5t166 -171t60.5 -245.5q0 -144 -64.5 -252.5t-171 -166.5t-231.5 -58q-139 0 -245.5 64.5t-165 172t-58.5 232.5zM178 459q0 -115 48 -204t132 -138t189 -49q108 0 192 51t130 140t46 200q0 114 -48 203.5 t-133 139.5t-191 50q-103 0 -186 -49t-131 -139.5t-48 -204.5z" />
<glyph unicode="p" horiz-adv-x="1040" d="M137 -471v1391h352q140 0 247.5 -55.5t167 -159t59.5 -244.5q0 -135 -58.5 -245t-164 -172t-236.5 -62q-74 0 -134.5 15t-136.5 56v-524h-96zM233 141q123 -73 263 -73q163 0 264.5 108.5t101.5 284.5t-101.5 274.5t-277.5 98.5h-250v-693z" />
<glyph unicode="q" horiz-adv-x="1038" d="M78 444q0 142 58.5 249.5t164 167t242.5 59.5h360v-1391h-98v522q-68 -37 -135.5 -53t-151.5 -16q-127 0 -227.5 58t-156.5 162.5t-56 241.5zM178 446q0 -176 95.5 -277t258.5 -101q80 0 144.5 16t128.5 55v695h-250q-166 0 -271.5 -100.5t-105.5 -287.5z" />
<glyph unicode="r" horiz-adv-x="729" d="M131 0v920h98v-232q158 250 306 250q94 0 196 -96l-53 -82q-53 45 -93 64.5t-77 19.5q-70 0 -147.5 -74t-131.5 -203v-567h-98z" />
<glyph unicode="s" horiz-adv-x="719" d="M80 57v107q70 -47 139.5 -71.5t128.5 -24.5q90 0 142.5 44t52.5 113q0 45 -18.5 76t-66.5 61.5t-147 75.5q-118 54 -171.5 114t-53.5 150q0 105 76 170.5t203 65.5q118 0 241 -68v-100q-67 41 -124.5 61.5t-116.5 20.5q-86 0 -132.5 -39t-46.5 -106q0 -62 43 -104 t174 -101q123 -53 181.5 -115.5t58.5 -155.5q0 -102 -78 -175.5t-211 -73.5q-71 0 -135.5 17t-138.5 58z" />
<glyph unicode="t" horiz-adv-x="621" d="M-8 834v86h198v215l97 59v-274h274v-86h-274v-555q0 -109 27.5 -159t109.5 -50q80 0 176 51v-92q-41 -23 -91 -35t-95 -12q-123 0 -173.5 68.5t-50.5 228.5v555h-198z" />
<glyph unicode="u" horiz-adv-x="999" d="M127 369v551h96v-553q0 -146 61.5 -223.5t184.5 -77.5q92 0 167 49t130 139v666h96v-920h-96v158q-59 -80 -146.5 -128t-175.5 -48q-153 0 -235 98t-82 289z" />
<glyph unicode="v" horiz-adv-x="838" d="M2 920h107l313 -752l307 752h105l-394 -945h-37z" />
<glyph unicode="w" horiz-adv-x="1470" d="M2 920h104l310 -736l286 736h66l287 -736l309 736h104l-397 -938h-33l-303 770l-301 -770h-33z" />
<glyph unicode="x" horiz-adv-x="969" d="M12 0l406 465l-402 455h123l342 -383l340 383h123l-403 -455l415 -465h-125l-352 393l-346 -393h-121z" />
<glyph unicode="y" horiz-adv-x="860" d="M6 920h109l323 -635l314 635h102l-684 -1391h-102l319 649z" />
<glyph unicode="z" horiz-adv-x="811" d="M29 0v14l581 815h-563v91h729v-13l-586 -819h601v-88h-762z" />
<glyph unicode="{" horiz-adv-x="637" d="M109 420v86q114 16 159 82.5t45 208.5v247q0 138 26 212.5t91.5 107.5t190.5 33v-84q-93 0 -139 -23.5t-62.5 -79t-16.5 -163.5v-252q0 -148 -42 -222.5t-150 -109.5q100 -31 146 -106.5t46 -221.5v-270q0 -103 20.5 -157t66 -75.5t131.5 -21.5v-84q-117 0 -182.5 29.5 t-95.5 103.5t-30 207v266q0 141 -46 209t-158 78z" />
<glyph unicode="|" horiz-adv-x="426" d="M170 -473v1870h86v-1870h-86z" />
<glyph unicode="}" horiz-adv-x="637" d="M18 -389q84 0 130.5 21.5t65.5 75.5t19 157v270q0 146 47.5 221.5t145.5 106.5q-109 35 -151 109.5t-42 222.5v252q0 108 -16 163.5t-62 79t-137 23.5v84q127 0 192.5 -35t89.5 -108.5t24 -209.5v-247q0 -142 45 -208.5t159 -82.5v-86q-110 -10 -157 -78t-47 -209v-266 q0 -131 -28 -204t-93.5 -104.5t-184.5 -31.5v84z" />
<glyph unicode="~" d="M82 616v111q113 125 233 125q47 0 95.5 -20.5t113.5 -61.5q62 -39 106 -58.5t87 -19.5q59 0 109.5 33t115.5 106v-108q-115 -125 -231 -125q-49 0 -97.5 21.5t-115.5 62.5q-70 39 -109 56.5t-78 17.5q-61 0 -112.5 -33t-116.5 -107z" />
<glyph unicode="&#xa1;" horiz-adv-x="414" d="M147 741v179h119v-179h-119zM152 -477l12 999h86l12 -999h-110z" />
<glyph unicode="&#xa2;" d="M127 455q0 143 58.5 252.5t162 170t234.5 60.5q45 0 86 -6l127 360h63l-133 -372q68 -17 98 -31v-103q-67 37 -129 50l-260 -730q70 -34 160 -34q125 0 237 51v-94q-120 -47 -249 -47q-103 0 -181 30l-141 -399h-63l151 426q-104 59 -162.5 166.5t-58.5 249.5zM225 459 q0 -107 42 -191t116 -133l254 711l-53 2q-105 0 -187 -50t-127 -138.5t-45 -200.5z" />
<glyph unicode="&#xa3;" d="M104 -14l170 641h-159v94h184q98 342 229 518t318 176q45 0 84 -14l61 -115q-20 12 -58 20.5t-75 8.5q-131 0 -243.5 -127t-208.5 -467h227v-94h-256l-139 -521q81 19 155 19q94 0 225 -25q115 -20 162 -20q62 0 110 9t95 36v-102q-55 -23 -99 -32t-104 -9q-84 0 -211 24 q-114 21 -178 21q-67 0 -129.5 -8.5t-159.5 -32.5z" />
<glyph unicode="&#xa4;" horiz-adv-x="1110" d="M88 291l137 133q-47 57 -72.5 128t-25.5 144q0 76 25.5 146.5t72.5 128.5l-137 137l64 66l137 -140q117 99 272 99q74 0 146.5 -25t128.5 -74l137 140l63 -66l-135 -137q47 -58 71.5 -129.5t24.5 -145.5q0 -73 -24.5 -143t-71.5 -129l135 -133l-63 -66l-137 137 q-56 -49 -128.5 -73.5t-146.5 -24.5q-160 0 -272 98l-137 -137zM219 698q0 -94 46 -173t125 -125t171 -46q96 0 175 46t125 126t46 172q0 95 -46 173.5t-126 124.5t-176 46q-90 0 -169 -46t-125 -124.5t-46 -173.5z" />
<glyph unicode="&#xa5;" d="M12 1397h117l383 -555l381 555h117l-426 -621h381v-80h-400v-184h400v-82h-400v-430h-106v430h-402v82h402v184h-402v80h383z" />
<glyph unicode="&#xa6;" horiz-adv-x="426" d="M170 293h86v-766h-86v766zM170 631v766h86v-766h-86z" />
<glyph unicode="&#xa7;" horiz-adv-x="850" d="M59 598q0 90 46.5 163t138.5 142q-101 117 -101 248q0 113 77 188.5t210 75.5q80 0 136.5 -19.5t103.5 -54.5v-102q-52 43 -109 65.5t-131 22.5q-84 0 -135 -46t-51 -128q0 -86 52 -159.5t161 -164.5q110 -92 165.5 -145t98.5 -131t43 -172q0 -88 -42 -166t-134 -158 q55 -61 81.5 -122.5t26.5 -139.5q0 -123 -86 -194.5t-213 -71.5q-170 0 -260 90v102q51 -49 118 -77.5t138 -28.5q92 0 148.5 48t56.5 134q0 88 -53 162t-168 178l-37 31q-94 84 -148.5 141.5t-93.5 131t-39 157.5zM160 604q0 -94 63.5 -174t192.5 -192q100 -91 125 -117 q65 59 94 119.5t29 130.5q0 69 -34 129.5t-83 111t-137 127.5q-78 66 -115 103q-70 -60 -102.5 -113t-32.5 -125z" />
<glyph unicode="&#xa8;" horiz-adv-x="553" d="M72 1098v172h100v-172h-100zM381 1098v172h100v-172h-100z" />
<glyph unicode="&#xa9;" horiz-adv-x="1622" d="M90 702q0 195 97.5 361t263 263t362.5 97q195 0 360.5 -96t262 -262t96.5 -363q0 -194 -96.5 -359t-260 -262t-360.5 -97q-194 0 -361 95t-265.5 260t-98.5 363zM147 702q0 -180 90.5 -333.5t244 -242.5t333.5 -89t331.5 90t240 242.5t88.5 332.5q0 181 -89.5 334.5 t-242 243.5t-330.5 90q-180 0 -332.5 -90t-243 -243.5t-90.5 -334.5zM408 702q0 121 51 218.5t149.5 152.5t233.5 55q131 0 262 -57v-92q-117 68 -250 68q-164 0 -255 -94.5t-91 -247.5q0 -154 94 -247t248 -93q137 0 254 63v-88q-127 -57 -266 -57q-131 0 -228.5 54 t-149.5 149.5t-52 215.5z" />
<glyph unicode="&#xaa;" horiz-adv-x="602" d="M59 983q0 166 344 199v28q0 76 -28.5 107t-89.5 31q-52 0 -99 -18.5t-102 -63.5v80q98 69 207 69q92 0 142 -51t50 -154v-282q0 -17 3 -24t14 -7q20 0 86 59v-59q-29 -29 -59.5 -44t-55.5 -15q-55 0 -68 63q-30 -29 -78.5 -46t-99.5 -17q-73 0 -119.5 40t-46.5 105z M141 991q0 -96 111 -96q78 0 151 59v183q-124 -15 -193 -46.5t-69 -99.5z" />
<glyph unicode="&#xab;" horiz-adv-x="956" d="M49 469l354 459h101l-352 -459l352 -461h-101zM463 469l352 459h103l-353 -459l353 -461h-103z" />
<glyph unicode="&#xac;" horiz-adv-x="1065" d="M86 903v96h881v-571h-97v475h-784z" />
<glyph unicode="&#xad;" horiz-adv-x="649" d="M80 418v98h489v-98h-489z" />
<glyph unicode="&#xae;" horiz-adv-x="1622" d="M90 702q0 195 97.5 361t263 263t362.5 97q195 0 360.5 -96t262 -262t96.5 -363q0 -194 -96.5 -359t-260 -262t-360.5 -97q-194 0 -361 95t-265.5 260t-98.5 363zM147 702q0 -180 90.5 -333.5t244 -242.5t333.5 -89t331.5 90t240 242.5t88.5 332.5q0 181 -89.5 334.5 t-242 243.5t-330.5 90q-180 0 -332.5 -90t-243 -243.5t-90.5 -334.5zM539 307v805h276q135 0 208 -56.5t73 -158.5q0 -82 -58.5 -142.5t-160.5 -70.5q49 -16 82.5 -45t66.5 -78l174 -254h-104l-154 230q-47 71 -90 95.5t-117 24.5h-106v-350h-90zM629 725h147q105 0 164 43 t59 121q0 80 -51 117.5t-164 37.5h-155v-319z" />
<glyph unicode="&#xaf;" d="M-10 1579v76h1044v-76h-1044z" />
<glyph unicode="&#xb0;" horiz-adv-x="815" d="M125 1133q0 75 38 139.5t103.5 103.5t141.5 39q75 0 140.5 -38t103.5 -102.5t38 -141.5q0 -76 -38 -141.5t-103.5 -103.5t-140.5 -38q-76 0 -140.5 38t-103.5 102.5t-39 142.5zM193 1133q0 -89 63 -152t152 -63q88 0 151.5 63t63.5 152q0 88 -63.5 151.5t-151.5 63.5 q-86 0 -150.5 -63.5t-64.5 -151.5z" />
<glyph unicode="&#xb1;" horiz-adv-x="1065" d="M86 74v96h893v-96h-893zM86 713v96h397v395h97v-395h399v-96h-399v-396h-97v396h-397z" />
<glyph unicode="&#xb2;" horiz-adv-x="653" d="M74 1006v8q157 145 239 235t114 152.5t32 122.5q0 69 -46 110t-122 41q-53 0 -101.5 -22.5t-97.5 -69.5v92q94 70 205 70q109 0 178.5 -59.5t69.5 -157.5q0 -68 -28 -126t-93.5 -132t-194.5 -197h361v-67h-516z" />
<glyph unicode="&#xb3;" horiz-adv-x="653" d="M102 1036v78q101 -51 191 -51q78 0 124 39t46 104q0 144 -209 146v65q98 0 150.5 35t52.5 100q0 56 -46 91.5t-120 35.5q-53 0 -93 -12t-81 -35v70q43 22 83 32.5t99 10.5q104 0 172 -52t68 -138q0 -54 -32 -97t-91 -69q135 -43 135 -183q0 -94 -72.5 -153.5 t-183.5 -59.5q-100 0 -193 43z" />
<glyph unicode="&#xb4;" horiz-adv-x="633" d="M272 1055l205 315h117l-248 -315h-74z" />
<glyph unicode="&#xb5;" horiz-adv-x="1010" d="M137 -471v1391h96v-566q0 -133 64.5 -210.5t187.5 -77.5q179 0 291 192v662h96v-920h-96v156q-49 -82 -127 -128t-164 -46q-172 0 -252 145v-598h-96z" />
<glyph unicode="&#xb6;" horiz-adv-x="1165" d="M96 1001q0 113 53.5 203t145.5 141.5t207 51.5h641v-92h-191v-1780h-94v1780h-270v-1780h-94v1087q-113 2 -204 54.5t-142.5 140.5t-51.5 194z" />
<glyph unicode="&#xb7;" horiz-adv-x="340" d="M104 627v178h132v-178h-132z" />
<glyph unicode="&#xb8;" horiz-adv-x="674" d="M193 -365l2 68q30 -6 84 -6q75 0 107 24.5t32 71.5q0 43 -30 64.5t-77 21.5h-35l43 137h74l-24 -84q71 -4 109 -41.5t38 -97.5q0 -78 -62.5 -122t-168.5 -44q-56 0 -92 8z" />
<glyph unicode="&#xb9;" horiz-adv-x="653" d="M98 1559l252 176h58v-729h-84v618l-181 -121z" />
<glyph unicode="&#xba;" horiz-adv-x="731" d="M61 1126q0 80 39 145.5t109 104.5t156 39q88 0 157.5 -38t108.5 -104.5t39 -146.5q0 -125 -87 -206.5t-218 -81.5q-86 0 -156 37.5t-109 104.5t-39 146zM143 1126q0 -98 62.5 -158.5t161.5 -60.5q98 0 160.5 60.5t62.5 158.5q0 101 -63.5 162.5t-161.5 61.5 q-97 0 -159.5 -61.5t-62.5 -162.5z" />
<glyph unicode="&#xbb;" horiz-adv-x="956" d="M39 8l352 459l-352 461h100l355 -461l-355 -459h-100zM453 8l352 459l-352 461h100l354 -461l-354 -459h-100z" />
<glyph unicode="&#xbc;" horiz-adv-x="1759" d="M111 1208l256 193h55v-866h-84v753l-184 -135zM350 -23l993 1428h84l-993 -1428h-84zM1114 319v41l436 517h41v-492h119v-66h-119v-319h-82v319h-395zM1225 385h284v344z" />
<glyph unicode="&#xbd;" horiz-adv-x="1759" d="M111 1208l256 193h55v-866h-84v753l-184 -135zM326 -23l993 1428h86l-995 -1428h-84zM1149 0l51 59q207 213 285 334t78 225q0 82 -50.5 135.5t-134.5 53.5q-57 0 -107 -25.5t-106 -81.5v95q101 82 219 82q117 0 191 -70t74 -184q0 -82 -29 -152t-99.5 -158t-215.5 -245 h391v-68h-547z" />
<glyph unicode="&#xbe;" horiz-adv-x="1759" d="M106 571v80q113 -63 203 -63q84 0 135.5 49t51.5 131q0 88 -58.5 135t-169.5 49v66q105 0 162 44t57 126q0 67 -50 112.5t-130 45.5q-57 0 -99 -14.5t-89 -43.5v72q47 29 90 40t104 11q113 0 184.5 -61.5t71.5 -159.5q0 -66 -36.5 -120t-102.5 -81q74 -24 113 -80.5 t39 -138.5q0 -111 -77 -180.5t-196 -69.5q-106 0 -203 51zM340 -23l993 1428h86l-995 -1428h-84zM1114 319v41l436 517h41v-492h119v-66h-119v-319h-82v319h-395zM1225 385h284v344z" />
<glyph unicode="&#xbf;" horiz-adv-x="600" d="M84 -211q0 86 36 168t105 176q72 103 107 179.5t35 150.5q0 43 -21 76l14 14q76 -59 76 -147q0 -74 -31.5 -145t-97.5 -173q-61 -96 -87.5 -158.5t-26.5 -132.5q0 -98 48 -148t124 -50q51 0 80.5 19.5t58.5 70.5h14l-47 -154q-55 -31 -133 -31q-107 0 -180.5 71 t-73.5 214zM287 741v179h121v-179h-121z" />
<glyph unicode="&#xc0;" horiz-adv-x="1319" d="M6 0l610 1407h76l621 -1407h-113l-205 463h-678l-198 -463h-113zM360 559h592l-299 682zM432 1806h129l211 -315h-76z" />
<glyph unicode="&#xc1;" horiz-adv-x="1319" d="M6 0l610 1407h76l621 -1407h-113l-205 463h-678l-198 -463h-113zM360 559h592l-299 682zM553 1491l209 315h129l-264 -315h-74z" />
<glyph unicode="&#xc2;" horiz-adv-x="1319" d="M6 0l610 1407h76l621 -1407h-113l-205 463h-678l-198 -463h-113zM359 1491l227 315h144l229 -315h-74l-225 246l-227 -246h-74zM360 559h592l-299 682z" />
<glyph unicode="&#xc3;" horiz-adv-x="1319" d="M6 0l610 1407h76l621 -1407h-113l-205 463h-678l-198 -463h-113zM347 1532q0 100 46 155.5t122 55.5q43 0 79.5 -17.5t92.5 -52.5q45 -28 72.5 -41.5t54.5 -13.5q49 0 71.5 30.5t26.5 94.5h63q0 -103 -47 -157t-119 -54q-43 0 -78.5 16.5t-80.5 48.5q-43 31 -74 45.5 t-66 14.5q-92 0 -98 -125h-65zM360 559h592l-299 682z" />
<glyph unicode="&#xc4;" horiz-adv-x="1319" d="M6 0l610 1407h76l621 -1407h-113l-205 463h-678l-198 -463h-113zM360 559h592l-299 682zM453 1532v172h100v-172h-100zM770 1532v172h100v-172h-100z" />
<glyph unicode="&#xc5;" horiz-adv-x="1319" d="M6 0l610 1407h76l621 -1407h-113l-205 463h-678l-198 -463h-113zM360 559h592l-299 682zM467 1537q0 76 54 131t132 55t132 -56t54 -130q0 -78 -54 -132t-132 -54t-132 54t-54 132zM528 1537q0 -51 37 -89t88 -38t89 38t38 89t-38 89t-89 38t-88 -38t-37 -89z" />
<glyph unicode="&#xc6;" horiz-adv-x="1729" d="M16 0l846 1397h783v-97h-621v-546h604v-99h-604v-559h639v-96h-745v655h-388l-397 -655h-117zM588 754h330v540z" />
<glyph unicode="&#xc7;" horiz-adv-x="1366" d="M98 690q0 207 93.5 372t257 259t372.5 94q232 0 461 -106v-121q-221 127 -463 127q-178 0 -317.5 -82t-215 -224.5t-75.5 -312.5q0 -174 77 -313t215 -220t316 -81q250 0 469 133v-123q-203 -104 -448 -110l-15 -50q72 -4 110 -41.5t38 -97.5q0 -78 -61.5 -122 t-168.5 -44q-57 0 -94 8l2 68q31 -6 84 -6q76 0 107.5 24.5t31.5 71.5q0 43 -28.5 64.5t-77.5 21.5h-35l33 107q-203 12 -354.5 110.5t-232.5 255t-81 338.5z" />
<glyph unicode="&#xc8;" horiz-adv-x="989" d="M160 0v1397h735v-97h-629v-546h611v-99h-611v-559h647v-96h-753zM280 1806h129l211 -315h-76z" />
<glyph unicode="&#xc9;" horiz-adv-x="989" d="M160 0v1397h735v-97h-629v-546h611v-99h-611v-559h647v-96h-753zM456 1491l209 315h129l-264 -315h-74z" />
<glyph unicode="&#xca;" horiz-adv-x="989" d="M160 0v1397h735v-97h-629v-546h611v-99h-611v-559h647v-96h-753zM225 1491l227 315h144l229 -315h-74l-225 246l-227 -246h-74z" />
<glyph unicode="&#xcb;" horiz-adv-x="989" d="M160 0v1397h735v-97h-629v-546h611v-99h-611v-559h647v-96h-753zM320 1532v172h100v-172h-100zM637 1532v172h100v-172h-100z" />
<glyph unicode="&#xcc;" horiz-adv-x="426" d="M-11 1806h129l211 -315h-76zM160 0v1397h106v-1397h-106z" />
<glyph unicode="&#xcd;" horiz-adv-x="426" d="M103 1491l209 315h129l-264 -315h-74zM160 0v1397h106v-1397h-106z" />
<glyph unicode="&#xce;" horiz-adv-x="426" d="M-85 1491l227 315h144l229 -315h-74l-225 246l-227 -246h-74zM160 0v1397h106v-1397h-106z" />
<glyph unicode="&#xcf;" horiz-adv-x="426" d="M6 1532v172h100v-172h-100zM160 0v1397h106v-1397h-106zM323 1532v172h100v-172h-100z" />
<glyph unicode="&#xd0;" horiz-adv-x="1507" d="M0 666v77h160v654h497q222 0 392 -87t264 -242t94 -355q0 -215 -94 -377t-263 -249t-391 -87h-499v666h-160zM266 98h398q188 0 331.5 75t222 210t78.5 311q0 185 -78.5 321t-226 209.5t-344.5 73.5h-381v-555h396v-77h-396v-568z" />
<glyph unicode="&#xd1;" horiz-adv-x="1554" d="M160 0v1397h92l1040 -1229v1229h103v-1397h-95l-1038 1225v-1225h-102zM457 1532q0 100 46 155.5t122 55.5q43 0 79.5 -17.5t92.5 -52.5q45 -28 72.5 -41.5t54.5 -13.5q49 0 71.5 30.5t26.5 94.5h63q0 -103 -47 -157t-119 -54q-43 0 -78.5 16.5t-80.5 48.5 q-43 31 -74 45.5t-66 14.5q-92 0 -98 -125h-65z" />
<glyph unicode="&#xd2;" horiz-adv-x="1640" d="M98 688q0 205 91.5 371t255 261t370.5 95q219 0 384 -97t254 -259t89 -352q0 -203 -92 -368t-258 -261t-379 -96q-209 0 -371.5 96t-253 258t-90.5 352zM209 696q0 -172 80 -312t218 -220t304 -80q197 0 337 89t212 230.5t72 294.5q0 166 -75 306.5t-213 224.5t-319 84 q-186 0 -325.5 -84t-215 -225.5t-75.5 -307.5zM616 1806h129l211 -315h-76z" />
<glyph unicode="&#xd3;" horiz-adv-x="1640" d="M98 688q0 205 91.5 371t255 261t370.5 95q219 0 384 -97t254 -259t89 -352q0 -203 -92 -368t-258 -261t-379 -96q-209 0 -371.5 96t-253 258t-90.5 352zM209 696q0 -172 80 -312t218 -220t304 -80q197 0 337 89t212 230.5t72 294.5q0 166 -75 306.5t-213 224.5t-319 84 q-186 0 -325.5 -84t-215 -225.5t-75.5 -307.5zM708 1491l209 315h129l-264 -315h-74z" />
<glyph unicode="&#xd4;" horiz-adv-x="1640" d="M98 688q0 205 91.5 371t255 261t370.5 95q219 0 384 -97t254 -259t89 -352q0 -203 -92 -368t-258 -261t-379 -96q-209 0 -371.5 96t-253 258t-90.5 352zM209 696q0 -172 80 -312t218 -220t304 -80q197 0 337 89t212 230.5t72 294.5q0 166 -75 306.5t-213 224.5t-319 84 q-186 0 -325.5 -84t-215 -225.5t-75.5 -307.5zM522 1491l227 315h144l229 -315h-74l-225 246l-227 -246h-74z" />
<glyph unicode="&#xd5;" horiz-adv-x="1640" d="M98 688q0 205 91.5 371t255 261t370.5 95q219 0 384 -97t254 -259t89 -352q0 -203 -92 -368t-258 -261t-379 -96q-209 0 -371.5 96t-253 258t-90.5 352zM209 696q0 -172 80 -312t218 -220t304 -80q197 0 337 89t212 230.5t72 294.5q0 166 -75 306.5t-213 224.5t-319 84 q-186 0 -325.5 -84t-215 -225.5t-75.5 -307.5zM512 1532q0 100 46 155.5t122 55.5q43 0 79.5 -17.5t92.5 -52.5q45 -28 72.5 -41.5t54.5 -13.5q49 0 71.5 30.5t26.5 94.5h63q0 -103 -47 -157t-119 -54q-43 0 -78.5 16.5t-80.5 48.5q-43 31 -74 45.5t-66 14.5q-92 0 -98 -125 h-65z" />
<glyph unicode="&#xd6;" horiz-adv-x="1640" d="M98 688q0 205 91.5 371t255 261t370.5 95q219 0 384 -97t254 -259t89 -352q0 -203 -92 -368t-258 -261t-379 -96q-209 0 -371.5 96t-253 258t-90.5 352zM209 696q0 -172 80 -312t218 -220t304 -80q197 0 337 89t212 230.5t72 294.5q0 166 -75 306.5t-213 224.5t-319 84 q-186 0 -325.5 -84t-215 -225.5t-75.5 -307.5zM619 1532v172h100v-172h-100zM936 1532v172h100v-172h-100z" />
<glyph unicode="&#xd7;" horiz-adv-x="1233" d="M178 342l371 373l-359 358l66 68l360 -359l371 371l68 -68l-371 -370l358 -361l-67 -67l-359 360l-370 -373z" />
<glyph unicode="&#xd8;" horiz-adv-x="1640" d="M98 696q0 195 90.5 360t254 262t372.5 97q277 0 465 -155l143 157l60 -53l-142 -156q97 -100 149 -230t52 -280q0 -192 -91 -357t-256 -262t-374 -97q-264 0 -452 147l-138 -149l-59 51l137 149q-102 99 -156.5 231t-54.5 285zM209 696q0 -127 45 -237.5t127 -196.5 l829 918q-77 61 -175.5 97t-213.5 36q-184 0 -323.5 -85t-214 -226.5t-74.5 -305.5zM438 211q162 -127 371 -127q188 0 330.5 87t217.5 227.5t75 295.5q0 252 -162 432z" />
<glyph unicode="&#xd9;" horiz-adv-x="1427" d="M143 596v801h107v-803q0 -236 118.5 -376t344.5 -140q227 0 347 140t120 376v803h106v-803q0 -178 -64.5 -316.5t-191.5 -217t-309 -78.5q-283 0 -430.5 164.5t-147.5 449.5zM496 1806h129l211 -315h-76z" />
<glyph unicode="&#xda;" horiz-adv-x="1427" d="M143 596v801h107v-803q0 -236 118.5 -376t344.5 -140q227 0 347 140t120 376v803h106v-803q0 -178 -64.5 -316.5t-191.5 -217t-309 -78.5q-283 0 -430.5 164.5t-147.5 449.5zM614 1491l209 315h129l-264 -315h-74z" />
<glyph unicode="&#xdb;" horiz-adv-x="1427" d="M143 596v801h107v-803q0 -236 118.5 -376t344.5 -140q227 0 347 140t120 376v803h106v-803q0 -178 -64.5 -316.5t-191.5 -217t-309 -78.5q-283 0 -430.5 164.5t-147.5 449.5zM424 1491l227 315h144l229 -315h-74l-225 246l-227 -246h-74z" />
<glyph unicode="&#xdc;" horiz-adv-x="1427" d="M143 596v801h107v-803q0 -236 118.5 -376t344.5 -140q227 0 347 140t120 376v803h106v-803q0 -178 -64.5 -316.5t-191.5 -217t-309 -78.5q-283 0 -430.5 164.5t-147.5 449.5zM500 1532v172h100v-172h-100zM817 1532v172h100v-172h-100z" />
<glyph unicode="&#xdd;" horiz-adv-x="1174" d="M4 1397h129l453 -551l456 551h127l-528 -643v-754h-109v754zM502 1491l209 315h129l-264 -315h-74z" />
<glyph unicode="&#xde;" horiz-adv-x="1034" d="M160 0v1397h106v-322h258q211 0 330 -98t119 -275q0 -184 -122 -279t-341 -95h-244v-328h-106zM266 424h228q370 0 370 281q0 276 -364 276h-234v-557z" />
<glyph unicode="&#xdf;" horiz-adv-x="1032" d="M139 0v987q0 203 96.5 315.5t282.5 112.5q168 0 266.5 -93t98.5 -245q0 -114 -58.5 -193t-167.5 -116q140 -29 215.5 -127t75.5 -246q0 -114 -43 -208.5t-125 -149.5t-192 -55q-66 0 -135 16v90q59 -18 118 -18q129 0 204 90t75 235q0 152 -82 236t-242 88v88 q121 12 190.5 80.5t69.5 189.5q0 117 -71.5 183.5t-196.5 66.5q-145 0 -213.5 -90t-68.5 -252v-985h-97z" />
<glyph unicode="&#xe0;" horiz-adv-x="854" d="M61 209q0 135 130.5 217t396.5 121v94q0 109 -45 157t-152 48q-151 0 -291 -129v106q125 115 299 115q144 0 215.5 -72.5t71.5 -210.5v-553q0 -34 23 -34q28 0 120 71v-76q-55 -43 -95 -62t-72 -19q-74 0 -74 81v48q-76 -70 -142.5 -99.5t-142.5 -29.5q-108 0 -175 64.5 t-67 162.5zM160 221q0 -74 49 -120t129 -46q63 0 121.5 29t128.5 96v305q-199 -20 -313.5 -87.5t-114.5 -176.5zM171 1370h119l205 -315h-74z" />
<glyph unicode="&#xe1;" horiz-adv-x="854" d="M61 209q0 135 130.5 217t396.5 121v94q0 109 -45 157t-152 48q-151 0 -291 -129v106q125 115 299 115q144 0 215.5 -72.5t71.5 -210.5v-553q0 -34 23 -34q28 0 120 71v-76q-55 -43 -95 -62t-72 -19q-74 0 -74 81v48q-76 -70 -142.5 -99.5t-142.5 -29.5q-108 0 -175 64.5 t-67 162.5zM160 221q0 -74 49 -120t129 -46q63 0 121.5 29t128.5 96v305q-199 -20 -313.5 -87.5t-114.5 -176.5zM340 1055l205 315h117l-248 -315h-74z" />
<glyph unicode="&#xe2;" horiz-adv-x="854" d="M61 209q0 135 130.5 217t396.5 121v94q0 109 -45 157t-152 48q-151 0 -291 -129v106q125 115 299 115q144 0 215.5 -72.5t71.5 -210.5v-553q0 -34 23 -34q28 0 120 71v-76q-55 -43 -95 -62t-72 -19q-74 0 -74 81v48q-76 -70 -142.5 -99.5t-142.5 -29.5q-108 0 -175 64.5 t-67 162.5zM133 1055l220 315h114l223 -315h-73l-209 243l-203 -243h-72zM160 221q0 -74 49 -120t129 -46q63 0 121.5 29t128.5 96v305q-199 -20 -313.5 -87.5t-114.5 -176.5z" />
<glyph unicode="&#xe3;" horiz-adv-x="854" d="M61 209q0 135 130.5 217t396.5 121v94q0 109 -45 157t-152 48q-151 0 -291 -129v106q125 115 299 115q144 0 215.5 -72.5t71.5 -210.5v-553q0 -34 23 -34q28 0 120 71v-76q-55 -43 -95 -62t-72 -19q-74 0 -74 81v48q-76 -70 -142.5 -99.5t-142.5 -29.5q-108 0 -175 64.5 t-67 162.5zM88 1104q0 98 46 153.5t122 55.5q43 0 81.5 -17.5t90.5 -50.5q45 -28 72.5 -41.5t54.5 -13.5q49 0 71.5 29.5t26.5 93.5h63q0 -103 -46 -156t-120 -53q-43 0 -78.5 16.5t-80.5 48.5q-47 29 -76 43.5t-64 14.5q-92 0 -98 -123h-65zM160 221q0 -74 49 -120t129 -46 q63 0 121.5 29t128.5 96v305q-199 -20 -313.5 -87.5t-114.5 -176.5z" />
<glyph unicode="&#xe4;" horiz-adv-x="854" d="M61 209q0 135 130.5 217t396.5 121v94q0 109 -45 157t-152 48q-151 0 -291 -129v106q125 115 299 115q144 0 215.5 -72.5t71.5 -210.5v-553q0 -34 23 -34q28 0 120 71v-76q-55 -43 -95 -62t-72 -19q-74 0 -74 81v48q-76 -70 -142.5 -99.5t-142.5 -29.5q-108 0 -175 64.5 t-67 162.5zM160 221q0 -74 49 -120t129 -46q63 0 121.5 29t128.5 96v305q-199 -20 -313.5 -87.5t-114.5 -176.5zM203 1098v172h100v-172h-100zM512 1098v172h100v-172h-100z" />
<glyph unicode="&#xe5;" horiz-adv-x="854" d="M61 209q0 135 130.5 217t396.5 121v94q0 109 -45 157t-152 48q-151 0 -291 -129v106q125 115 299 115q144 0 215.5 -72.5t71.5 -210.5v-553q0 -34 23 -34q28 0 120 71v-76q-55 -43 -95 -62t-72 -19q-74 0 -74 81v48q-76 -70 -142.5 -99.5t-142.5 -29.5q-108 0 -175 64.5 t-67 162.5zM160 221q0 -74 49 -120t129 -46q63 0 121.5 29t128.5 96v305q-199 -20 -313.5 -87.5t-114.5 -176.5zM224 1217q0 73 54 126.5t130 53.5q78 0 130 -52.5t52 -127.5q0 -76 -53 -128.5t-129 -52.5q-78 0 -131 52.5t-53 128.5zM283 1217q0 -52 37 -87.5t88 -35.5 t88 36.5t37 86.5q0 49 -37 85.5t-88 36.5q-49 0 -87 -36.5t-38 -85.5z" />
<glyph unicode="&#xe6;" horiz-adv-x="1368" d="M61 213q0 135 129 213t400 127v84q0 113 -45 162t-146 49q-141 0 -290 -127v115q149 102 301 102q213 0 254 -201q45 99 122.5 150t169.5 51q162 0 249 -111.5t93 -318.5h-612q0 -225 74 -331.5t233 -106.5q78 0 156 30.5t147 85.5v-98q-145 -106 -317 -106 q-105 0 -187.5 43t-129.5 125q-95 -91 -175.5 -129.5t-179.5 -38.5q-110 0 -178 63.5t-68 167.5zM162 221q0 -76 47 -120t127 -44q72 0 142.5 35t152.5 113q-41 98 -41 260v22q-160 -36 -248 -66t-134 -77t-46 -123zM696 573h504q-26 281 -248 281q-100 0 -168.5 -74.5 t-87.5 -206.5z" />
<glyph unicode="&#xe7;" horiz-adv-x="840" d="M78 457q0 129 54 238.5t157.5 176t245.5 66.5q122 0 243 -49v-103q-121 62 -239 62q-107 0 -189 -51.5t-127 -140.5t-45 -197q0 -111 47 -200t132 -138t194 -49q115 0 235 51v-98q-65 -23 -122.5 -33t-128.5 -10l-17 -50q66 -8 102.5 -47t36.5 -92q0 -166 -243 -166 q-39 0 -78 6l2 72q41 -4 72 -4q149 0 149 94q0 45 -37 62.5t-110 21.5l39 107q-175 26 -274 157t-99 314z" />
<glyph unicode="&#xe8;" horiz-adv-x="942" d="M78 461q0 137 51 245.5t144.5 170t213.5 61.5q175 0 277 -118t110 -333h-694q0 -2 -1 -8t-1 -20q0 -107 43 -195t124 -139t190 -51q178 0 327 112v-98q-84 -57 -166 -81.5t-172 -24.5q-127 0 -229 59t-159.5 168.5t-57.5 251.5zM184 551h592q-18 145 -92 223t-199 78 q-118 0 -202 -83t-99 -218zM276 1370h119l205 -315h-74z" />
<glyph unicode="&#xe9;" horiz-adv-x="942" d="M78 461q0 137 51 245.5t144.5 170t213.5 61.5q175 0 277 -118t110 -333h-694q0 -2 -1 -8t-1 -20q0 -107 43 -195t124 -139t190 -51q178 0 327 112v-98q-84 -57 -166 -81.5t-172 -24.5q-127 0 -229 59t-159.5 168.5t-57.5 251.5zM184 551h592q-18 145 -92 223t-199 78 q-118 0 -202 -83t-99 -218zM430 1055l205 315h117l-248 -315h-74z" />
<glyph unicode="&#xea;" horiz-adv-x="942" d="M78 461q0 137 51 245.5t144.5 170t213.5 61.5q175 0 277 -118t110 -333h-694q0 -2 -1 -8t-1 -20q0 -107 43 -195t124 -139t190 -51q178 0 327 112v-98q-84 -57 -166 -81.5t-172 -24.5q-127 0 -229 59t-159.5 168.5t-57.5 251.5zM184 551h592q-18 145 -92 223t-199 78 q-118 0 -202 -83t-99 -218zM213 1055l220 315h114l223 -315h-73l-209 243l-203 -243h-72z" />
<glyph unicode="&#xeb;" horiz-adv-x="942" d="M78 461q0 137 51 245.5t144.5 170t213.5 61.5q175 0 277 -118t110 -333h-694q0 -2 -1 -8t-1 -20q0 -107 43 -195t124 -139t190 -51q178 0 327 112v-98q-84 -57 -166 -81.5t-172 -24.5q-127 0 -229 59t-159.5 168.5t-57.5 251.5zM184 551h592q-18 145 -92 223t-199 78 q-118 0 -202 -83t-99 -218zM289 1098v172h100v-172h-100zM598 1098v172h100v-172h-100z" />
<glyph unicode="&#xec;" horiz-adv-x="375" d="M-30 1370h119l205 -315h-74zM139 0v920h97v-920h-97z" />
<glyph unicode="&#xed;" horiz-adv-x="375" d="M95 1055l205 315h117l-248 -315h-74zM139 0v920h97v-920h-97z" />
<glyph unicode="&#xee;" horiz-adv-x="375" d="M-90 1055l220 315h114l223 -315h-73l-209 243l-203 -243h-72zM139 0v920h97v-920h-97z" />
<glyph unicode="&#xef;" horiz-adv-x="375" d="M-15 1098v172h100v-172h-100zM139 0v920h97v-920h-97zM294 1098v172h100v-172h-100z" />
<glyph unicode="&#xf0;" horiz-adv-x="1102" d="M78 457q0 131 57.5 241.5t164 175t247.5 64.5q184 0 307 -135q-39 110 -114.5 210.5t-172.5 174.5l-307 -144l-27 66l269 123q-82 49 -209 102l45 68q129 -45 248 -127l258 121l28 -64l-221 -104q176 -148 269.5 -341.5t93.5 -404.5q0 -157 -63.5 -271t-171 -172 t-236.5 -58q-135 0 -241.5 64.5t-165 173t-58.5 237.5zM178 457q0 -111 46 -200t130 -139t193 -50q108 0 192 50t130 140t46 203q0 112 -47 201.5t-131 139.5t-192 50q-109 0 -192 -51t-129 -141.5t-46 -202.5z" />
<glyph unicode="&#xf1;" horiz-adv-x="999" d="M137 0v920h96v-158q58 82 146 129t174 47q160 0 239.5 -100.5t79.5 -274.5v-563h-96v553q0 145 -63.5 223t-182.5 78q-90 0 -165.5 -49t-131.5 -139v-666h-96zM199 1104q0 98 46 153.5t122 55.5q43 0 81.5 -17.5t90.5 -50.5q45 -28 72.5 -41.5t54.5 -13.5q49 0 71.5 29.5 t26.5 93.5h63q0 -103 -46 -156t-120 -53q-43 0 -78.5 16.5t-80.5 48.5q-47 29 -76 43.5t-64 14.5q-92 0 -98 -123h-65z" />
<glyph unicode="&#xf2;" horiz-adv-x="1094" d="M78 451q0 139 59.5 249.5t167 174t244.5 63.5q133 0 238.5 -62.5t166 -171t60.5 -245.5q0 -144 -64.5 -252.5t-171 -166.5t-231.5 -58q-139 0 -245.5 64.5t-165 172t-58.5 232.5zM178 459q0 -115 48 -204t132 -138t189 -49q108 0 192 51t130 140t46 200q0 114 -48 203.5 t-133 139.5t-191 50q-103 0 -186 -49t-131 -139.5t-48 -204.5zM330 1370h119l205 -315h-74z" />
<glyph unicode="&#xf3;" horiz-adv-x="1094" d="M78 451q0 139 59.5 249.5t167 174t244.5 63.5q133 0 238.5 -62.5t166 -171t60.5 -245.5q0 -144 -64.5 -252.5t-171 -166.5t-231.5 -58q-139 0 -245.5 64.5t-165 172t-58.5 232.5zM178 459q0 -115 48 -204t132 -138t189 -49q108 0 192 51t130 140t46 200q0 114 -48 203.5 t-133 139.5t-191 50q-103 0 -186 -49t-131 -139.5t-48 -204.5zM454 1055l205 315h117l-248 -315h-74z" />
<glyph unicode="&#xf4;" horiz-adv-x="1094" d="M78 451q0 139 59.5 249.5t167 174t244.5 63.5q133 0 238.5 -62.5t166 -171t60.5 -245.5q0 -144 -64.5 -252.5t-171 -166.5t-231.5 -58q-139 0 -245.5 64.5t-165 172t-58.5 232.5zM178 459q0 -115 48 -204t132 -138t189 -49q108 0 192 51t130 140t46 200q0 114 -48 203.5 t-133 139.5t-191 50q-103 0 -186 -49t-131 -139.5t-48 -204.5zM280 1055l220 315h114l223 -315h-73l-209 243l-203 -243h-72z" />
<glyph unicode="&#xf5;" horiz-adv-x="1094" d="M78 451q0 139 59.5 249.5t167 174t244.5 63.5q133 0 238.5 -62.5t166 -171t60.5 -245.5q0 -144 -64.5 -252.5t-171 -166.5t-231.5 -58q-139 0 -245.5 64.5t-165 172t-58.5 232.5zM178 459q0 -115 48 -204t132 -138t189 -49q108 0 192 51t130 140t46 200q0 114 -48 203.5 t-133 139.5t-191 50q-103 0 -186 -49t-131 -139.5t-48 -204.5zM242 1104q0 98 46 153.5t122 55.5q43 0 81.5 -17.5t90.5 -50.5q45 -28 72.5 -41.5t54.5 -13.5q49 0 71.5 29.5t26.5 93.5h63q0 -103 -46 -156t-120 -53q-43 0 -78.5 16.5t-80.5 48.5q-47 29 -76 43.5t-64 14.5 q-92 0 -98 -123h-65z" />
<glyph unicode="&#xf6;" horiz-adv-x="1094" d="M78 451q0 139 59.5 249.5t167 174t244.5 63.5q133 0 238.5 -62.5t166 -171t60.5 -245.5q0 -144 -64.5 -252.5t-171 -166.5t-231.5 -58q-139 0 -245.5 64.5t-165 172t-58.5 232.5zM178 459q0 -115 48 -204t132 -138t189 -49q108 0 192 51t130 140t46 200q0 114 -48 203.5 t-133 139.5t-191 50q-103 0 -186 -49t-131 -139.5t-48 -204.5zM355 1098v172h100v-172h-100zM664 1098v172h100v-172h-100z" />
<glyph unicode="&#xf7;" horiz-adv-x="1065" d="M86 666v96h893v-96h-893zM475 246v200h113v-200h-113zM475 981v201h113v-201h-113z" />
<glyph unicode="&#xf8;" horiz-adv-x="1102" d="M82 457q0 135 59.5 245.5t167 173t244.5 62.5q158 0 287 -96l100 119l45 -41l-100 -115q63 -68 98 -156t35 -190q0 -144 -64.5 -252.5t-172 -166.5t-232.5 -58q-172 0 -291 96l-121 -139l-45 38l121 142q-63 63 -97 151t-34 187zM182 459q0 -164 92 -269l504 582 q-45 37 -105.5 58.5t-125.5 21.5q-105 0 -188 -51t-130 -140.5t-47 -201.5zM317 147q103 -79 234 -79q106 0 190 51t131.5 140t47.5 200q0 162 -97 270z" />
<glyph unicode="&#xf9;" horiz-adv-x="999" d="M127 369v551h96v-553q0 -146 61.5 -223.5t184.5 -77.5q92 0 167 49t130 139v666h96v-920h-96v158q-59 -80 -146.5 -128t-175.5 -48q-153 0 -235 98t-82 289zM260 1370h119l205 -315h-74z" />
<glyph unicode="&#xfa;" horiz-adv-x="999" d="M127 369v551h96v-553q0 -146 61.5 -223.5t184.5 -77.5q92 0 167 49t130 139v666h96v-920h-96v158q-59 -80 -146.5 -128t-175.5 -48q-153 0 -235 98t-82 289zM434 1055l205 315h117l-248 -315h-74z" />
<glyph unicode="&#xfb;" horiz-adv-x="999" d="M127 369v551h96v-553q0 -146 61.5 -223.5t184.5 -77.5q92 0 167 49t130 139v666h96v-920h-96v158q-59 -80 -146.5 -128t-175.5 -48q-153 0 -235 98t-82 289zM211 1055l220 315h114l223 -315h-73l-209 243l-203 -243h-72z" />
<glyph unicode="&#xfc;" horiz-adv-x="999" d="M127 369v551h96v-553q0 -146 61.5 -223.5t184.5 -77.5q92 0 167 49t130 139v666h96v-920h-96v158q-59 -80 -146.5 -128t-175.5 -48q-153 0 -235 98t-82 289zM295 1098v172h100v-172h-100zM604 1098v172h100v-172h-100z" />
<glyph unicode="&#xfd;" horiz-adv-x="860" d="M6 920h109l323 -635l314 635h102l-684 -1391h-102l319 649zM376 1055l205 315h117l-248 -315h-74z" />
<glyph unicode="&#xfe;" horiz-adv-x="1055" d="M152 -471v1868h96v-477h256q139 0 246.5 -55.5t167 -159t59.5 -244.5q0 -135 -58.5 -245t-164 -172t-236.5 -62q-72 0 -132 15t-138 56v-524h-96zM248 141q123 -73 262 -73q164 0 265.5 108.5t101.5 284.5t-101.5 274.5t-275.5 98.5h-252v-693z" />
<glyph unicode="&#xff;" horiz-adv-x="860" d="M6 920h109l323 -635l314 635h102l-684 -1391h-102l319 649zM232 1098v172h100v-172h-100zM541 1098v172h100v-172h-100z" />
<glyph unicode="&#x152;" horiz-adv-x="1812" d="M98 700q0 213 98.5 371t269.5 242t384 84h866v-94h-622v-549h604v-99h-604v-561h641v-94h-883q-229 0 -399 86t-262.5 244.5t-92.5 369.5zM211 698q0 -178 77 -314t225.5 -213t356.5 -77h117v1209h-119q-192 0 -340.5 -71t-232.5 -208t-84 -326z" />
<glyph unicode="&#x153;" horiz-adv-x="1763" d="M78 457q0 135 59.5 245.5t165 173t240.5 62.5q137 0 243.5 -70.5t159.5 -195.5q47 125 141.5 195.5t217.5 70.5q174 0 276 -116.5t111 -334.5h-695q-2 -6 -2 -30q0 -111 45 -198t126 -136t186 -49q176 0 327 112v-98q-84 -57 -164.5 -81.5t-173.5 -24.5 q-137 0 -239.5 70.5t-153.5 199.5q-51 -129 -161.5 -199.5t-247.5 -70.5q-133 0 -238.5 61t-164 170t-58.5 244zM178 459q0 -115 47 -204t129 -138t187 -49q106 0 188 51t128 140t46 200q0 119 -50 208t-134 137t-182 48q-101 0 -183 -49t-129 -139.5t-47 -204.5zM999 551 h594q-14 145 -88.5 224t-201.5 79q-119 0 -203 -84t-101 -219z" />
<glyph unicode="&#x178;" horiz-adv-x="1174" d="M4 1397h129l453 -551l456 551h127l-528 -643v-754h-109v754zM383 1532v172h100v-172h-100zM700 1532v172h100v-172h-100z" />
<glyph unicode="&#x2c6;" horiz-adv-x="674" d="M59 1055l220 315h114l223 -315h-73l-209 243l-203 -243h-72z" />
<glyph unicode="&#x2dc;" horiz-adv-x="678" d="M25 1104q0 98 46 153.5t122 55.5q43 0 81.5 -17.5t90.5 -50.5q45 -28 72.5 -41.5t54.5 -13.5q49 0 71.5 29.5t26.5 93.5h63q0 -103 -46 -156t-120 -53q-43 0 -78.5 16.5t-80.5 48.5q-47 29 -76 43.5t-64 14.5q-92 0 -98 -123h-65z" />
<glyph unicode="&#x2000;" horiz-adv-x="903" />
<glyph unicode="&#x2001;" horiz-adv-x="1806" />
<glyph unicode="&#x2002;" horiz-adv-x="903" />
<glyph unicode="&#x2003;" horiz-adv-x="1806" />
<glyph unicode="&#x2004;" horiz-adv-x="602" />
<glyph unicode="&#x2005;" horiz-adv-x="451" />
<glyph unicode="&#x2006;" horiz-adv-x="301" />
<glyph unicode="&#x2007;" horiz-adv-x="301" />
<glyph unicode="&#x2008;" horiz-adv-x="225" />
<glyph unicode="&#x2009;" horiz-adv-x="361" />
<glyph unicode="&#x200a;" horiz-adv-x="100" />
<glyph unicode="&#x2010;" horiz-adv-x="649" d="M80 418v98h489v-98h-489z" />
<glyph unicode="&#x2011;" horiz-adv-x="649" d="M80 418v98h489v-98h-489z" />
<glyph unicode="&#x2012;" horiz-adv-x="649" d="M80 418v98h489v-98h-489z" />
<glyph unicode="&#x2013;" d="M-12 453v73h1048v-73h-1048z" />
<glyph unicode="&#x2014;" horiz-adv-x="2048" d="M-12 455v73h2072v-73h-2072z" />
<glyph unicode="&#x2018;" horiz-adv-x="387" d="M125 979v137q2 119 43 186.5t115 102.5v-51q-74 -62 -74 -197h51v-178h-135z" />
<glyph unicode="&#x2019;" horiz-adv-x="387" d="M104 971v51q74 61 74 197h-51v178h133v-137q0 -117 -41 -185.5t-115 -103.5z" />
<glyph unicode="&#x201a;" horiz-adv-x="387" d="M104 -197q35 29 54.5 79t19.5 118h-51v178h133v-137q0 -117 -41 -185.5t-115 -103.5v51z" />
<glyph unicode="&#x201c;" horiz-adv-x="723" d="M125 979v137q2 119 43 186.5t115 102.5v-51q-74 -62 -74 -197h51v-178h-135zM461 979v137q2 119 43 186.5t114 102.5v-51q-73 -62 -73 -197h51v-178h-135z" />
<glyph unicode="&#x201d;" horiz-adv-x="723" d="M104 971v51q74 61 74 197h-51v178h133v-137q0 -117 -41 -185.5t-115 -103.5zM440 971v51q74 61 74 197h-51v178h135v-137q-2 -119 -43 -186.5t-115 -102.5z" />
<glyph unicode="&#x201e;" horiz-adv-x="723" d="M104 -197q35 29 54.5 79t19.5 118h-51v178h133v-137q0 -117 -41 -185.5t-115 -103.5v51zM440 -197q35 29 54.5 79t19.5 118h-51v178h135v-137q-2 -119 -43 -186.5t-115 -102.5v51z" />
<glyph unicode="&#x2022;" horiz-adv-x="797" d="M195 698q0 84 59 144.5t145 60.5q84 0 143.5 -60.5t59.5 -144.5q0 -86 -59.5 -145t-143.5 -59t-144 59t-60 145z" />
<glyph unicode="&#x2026;" horiz-adv-x="1923" d="M256 0v178h131v-178h-131zM897 0v178h131v-178h-131zM1538 0v178h131v-178h-131z" />
<glyph unicode="&#x202f;" horiz-adv-x="361" />
<glyph unicode="&#x2039;" horiz-adv-x="555" d="M51 469l355 459h100l-352 -459l352 -461h-100z" />
<glyph unicode="&#x203a;" horiz-adv-x="555" d="M49 8l354 459l-354 461h103l354 -461l-354 -459h-103z" />
<glyph unicode="&#x205f;" horiz-adv-x="451" />
<glyph unicode="&#x20ac;" horiz-adv-x="1118" d="M49 526l14 86h117q-4 45 -4 84t4 84h-131l14 86h127q41 256 182.5 402.5t352.5 146.5q92 0 172 -21.5t162 -64.5l-21 -102q-86 49 -158.5 69.5t-158.5 20.5q-164 0 -274.5 -119t-147.5 -332h619l-19 -86h-610q-4 -49 -4 -82q0 -41 4 -86h565l-18 -86h-537 q35 -215 145.5 -330.5t278.5 -115.5q94 0 174 29.5t160 91.5v-119q-154 -100 -338 -100q-217 0 -355.5 142t-177.5 402h-137z" />
<glyph unicode="&#x2122;" horiz-adv-x="1776" d="M70 1323v74h647v-74h-281v-709h-84v709h-282zM868 614v783h111l264 -658l262 658h111v-783h-80v666l-262 -666h-64l-262 666v-666h-80z" />
<glyph unicode="&#x25fc;" horiz-adv-x="920" d="M0 0v920h920v-920h-920z" />
</font>
</defs>
</svg>
