<?xml version="1.0" standalone="no"?>
<!DOCTYPE svg PUBLIC "-//W3C//DTD SVG 1.1//EN" "http://www.w3.org/Graphics/SVG/1.1/DTD/svg11.dtd" >
<svg xmlns="http://www.w3.org/2000/svg" xmlns:xlink="http://www.w3.org/1999/xlink" version="1.1">
<metadata></metadata>
<defs>
<font id="gill_sans_novalight_italic" horiz-adv-x="1044" >
<font-face units-per-em="2048" ascent="1638" descent="-410" />
<missing-glyph horiz-adv-x="569" />
<glyph horiz-adv-x="0" />
<glyph horiz-adv-x="682" />
<glyph unicode=" "  horiz-adv-x="569" />
<glyph unicode="&#x09;" horiz-adv-x="569" />
<glyph unicode="&#xa0;" horiz-adv-x="569" />
<glyph unicode="!" horiz-adv-x="403" d="M68 0l24 162h109l-25 -162h-108zM133 332l139 1065h121l-192 -1065h-68z" />
<glyph unicode="&#x22;" horiz-adv-x="616" d="M182 905l23 264l39 230h100l-39 -230l-65 -264h-58zM479 905l21 262l39 232h100l-39 -230l-65 -264h-56z" />
<glyph unicode="#" horiz-adv-x="1266" d="M106 412v80h209l82 405h-291v78h308l90 432h80l-90 -432h430l90 432h78l-88 -432h196v-78h-213l-84 -405h297v-80h-313l-88 -424h-78l86 424h-430l-86 -424h-80l88 424h-193zM393 492h430l84 405h-430z" />
<glyph unicode="$" d="M90 80l16 96q140 -84 302 -104l77 559q-120 67 -184.5 119.5t-92.5 106.5t-28 130q0 96 51.5 173t142.5 122t210 49l12 84h82l-12 -84q153 -12 260 -76l-15 -92q-131 68 -258 80l-75 -551q163 -86 234 -172t71 -192q0 -90 -48.5 -166t-140.5 -124t-217 -54l-26 -215h-84 l28 215q-76 6 -158.5 32.5t-146.5 63.5zM276 991q0 -71 52.5 -128.5t173.5 -125.5l69 508q-131 -6 -213 -76.5t-82 -177.5zM489 72q84 4 153 38.5t107.5 89t38.5 115.5q0 82 -51 142.5t-174 130.5z" />
<glyph unicode="%" horiz-adv-x="1446" d="M92 1092q0 90 44 163.5t119 116.5t163 43q86 0 160.5 -43t118.5 -116.5t44 -163.5q0 -88 -43 -162t-117.5 -118t-162.5 -44t-163 43t-119 116.5t-44 164.5zM174 1092q0 -68 34 -124.5t89 -89t121 -32.5q100 0 170.5 71.5t70.5 174.5q0 102 -70.5 172.5t-172.5 70.5 q-64 0 -119 -31.5t-89 -88t-34 -123.5zM223 -6l981 1407h92l-983 -1407h-90zM772 305q0 90 45 164t120 117t161 43t160.5 -43t119.5 -118t45 -163q0 -86 -44 -160.5t-118.5 -118.5t-162.5 -44t-163 44t-119 117.5t-44 161.5zM854 305q0 -102 71.5 -173t172.5 -71 q100 0 170.5 72t70.5 172q0 105 -70.5 174.5t-172.5 69.5q-62 0 -118 -32t-90 -88t-34 -124z" />
<glyph unicode="&#x26;" horiz-adv-x="1294" d="M68 350q0 127 90 235.5t260 190.5q-45 84 -72 168t-27 154q0 84 36 156.5t104.5 116.5t161.5 44q84 0 144 -38t91 -98t31 -128q0 -121 -94.5 -220.5t-255.5 -189.5q135 -249 327 -477q76 74 149.5 181.5t131.5 230.5h94q-53 -127 -133 -251t-176 -220q125 -119 260 -137 q43 -7 74 -5l-39 -77h-19q-16 0 -53 4q-139 18 -285 153q-104 -84 -200.5 -122.5t-202.5 -38.5q-113 0 -204 48t-142 133t-51 187zM166 350q0 -78 41 -144.5t112.5 -104.5t157.5 -38q160 0 324 142q-187 213 -342 493q-152 -80 -222.5 -164.5t-70.5 -183.5zM410 1108 q0 -66 23.5 -142.5t62.5 -148.5q151 78 224 159t73 175q0 76 -51.5 128t-131.5 52q-82 0 -141 -64.5t-59 -158.5z" />
<glyph unicode="'" horiz-adv-x="319" d="M182 905l21 264l41 230h100l-41 -230l-65 -264h-56z" />
<glyph unicode="(" horiz-adv-x="610" d="M135 285q0 303 129 600q129 282 359 530h69q-305 -342 -413 -745q-56 -199 -56 -408q0 -377 170 -733h-63q-86 170 -140.5 372.5t-54.5 383.5z" />
<glyph unicode=")" horiz-adv-x="610" d="M-119 -471q301 338 410 731q59 209 59 418q0 186 -44 379.5t-124 357.5h62q94 -186 144 -390t50 -392q0 -211 -68.5 -422t-201.5 -410q-92 -141 -217 -272h-70z" />
<glyph unicode="*" horiz-adv-x="922" d="M184 883q0 47 158 112l143 58v12l-149 61q-150 66 -150 107q0 16 11.5 27.5t25.5 11.5q41 0 154 -88l119 -99l10 5l-23 149q-8 78 -8 115q0 88 41 88q21 0 31 -22.5t10 -63.5q0 -58 -8 -117l-23 -149l11 -5l122 101q109 84 152 84q14 0 24.5 -9.5t10.5 -25.5 q0 -25 -38 -50.5t-110 -58.5l-151 -61v-12l135 -56q72 -28 118 -59t46 -55q0 -13 -10.5 -24t-24.5 -11q-23 -2 -57.5 18.5t-100.5 69.5l-116 98l-11 -6l19 -131q12 -80 12 -135q0 -88 -43 -88q-20 0 -30.5 23.5t-10.5 64.5q0 33 14 133l19 133l-12 6l-117 -96 q-66 -49 -98.5 -68.5t-57.5 -21.5q-14 0 -25.5 11t-11.5 24z" />
<glyph unicode="+" horiz-adv-x="1059" d="M113 670v90h399v416h88v-416h401v-90h-401v-416h-88v416h-399z" />
<glyph unicode="," horiz-adv-x="365" d="M8 -250l6 53q78 45 97 197h-48l23 166h115l-19 -141q-28 -230 -174 -275z" />
<glyph unicode="-" horiz-adv-x="539" d="M31 408l12 86h461l-15 -86h-458z" />
<glyph unicode="." horiz-adv-x="365" d="M63 0l21 166h117l-21 -166h-117z" />
<glyph unicode="/" horiz-adv-x="530" d="M-45 -18l596 1433h82l-596 -1433h-82z" />
<glyph unicode="0" d="M109 459q0 262 72.5 481t198.5 347t279 128q160 0 248 -124t88 -355q0 -223 -64.5 -444.5t-189.5 -365.5t-292 -144q-164 0 -252 122.5t-88 354.5zM209 461q0 -195 63.5 -294t180.5 -99q131 0 231 132t155.5 331.5t55.5 394.5q0 401 -242 401q-123 0 -225 -121 t-160.5 -320.5t-58.5 -424.5z" />
<glyph unicode="1" d="M285 1022l18 106l70 48q188 122 307 221h45l-203 -1397h-94l176 1225q-158 -111 -319 -203z" />
<glyph unicode="2" d="M70 0q141 158 333 391q172 209 259.5 334t117 205t29.5 162q0 106 -61.5 170.5t-172.5 64.5q-139 0 -313 -121l17 105q81 53 156 78.5t153 25.5q147 0 234 -87t87 -226q0 -94 -33.5 -185.5t-111.5 -205t-219 -281.5q-199 -240 -289 -342h602l-14 -88h-774z" />
<glyph unicode="3" d="M70 72l12 90q90 -47 163.5 -69.5t149.5 -22.5q166 0 265.5 93t99.5 245q0 122 -82 197t-219 75l10 82q158 0 262.5 80t104.5 217q0 119 -79 193.5t-196 74.5q-135 0 -276 -90l14 102q129 76 279 76q102 0 185 -45t129 -125t46 -178q0 -131 -73.5 -220t-215.5 -130 q101 -37 156 -119t55 -195q0 -120 -58.5 -216.5t-161.5 -150.5t-234 -54q-187 0 -336 90z" />
<glyph unicode="4" d="M88 475v37l735 901h47l-122 -856h223l-13 -82h-223l-67 -475h-95l70 475h-555zM225 557h430l90 633z" />
<glyph unicode="5" d="M53 84l35 84q143 -98 289 -98q110 0 201.5 51t144.5 141t53 199q0 149 -89 232t-245 83q-65 0 -143 -18l80 506l20 133h557l-14 -88h-469l-67 -455q34 8 86 8q174 -2 279.5 -110.5t105.5 -284.5q0 -129 -60.5 -239.5t-174.5 -178t-263 -67.5q-86 0 -173 26.5t-153 75.5z " />
<glyph unicode="6" d="M131 367q0 221 168 473l369 557h106q-31 -47 -96 -142q-240 -352 -365 -561q56 70 134.5 107t175.5 37q141 0 226 -92.5t85 -235.5t-63.5 -265t-169 -192.5t-226.5 -70.5q-158 0 -251 105.5t-93 279.5zM229 360q0 -133 66.5 -212.5t181.5 -79.5q101 0 183.5 59t130 160.5 t47.5 218.5q0 115 -63.5 180.5t-172.5 65.5q-106 0 -191 -52.5t-133.5 -141.5t-48.5 -198z" />
<glyph unicode="7" d="M242 1309l10 88h784v-4l-680 -1399h-98l637 1315h-653z" />
<glyph unicode="8" d="M94 352q0 156 92.5 265.5t257.5 132.5q-200 84 -200 282q0 107 53 195t144 138t204 50q98 0 177 -43t123 -118.5t44 -168.5q0 -129 -79 -228t-214 -122q107 -20 173.5 -106t66.5 -199q0 -123 -62.5 -226.5t-168 -162.5t-230.5 -59q-113 0 -199 47t-134 131t-48 192z M193 350q0 -127 82.5 -203.5t203.5 -76.5q99 0 180.5 47t130 129t48.5 178q0 123 -81 197.5t-214 74.5q-154 0 -252 -96t-98 -250zM338 1030q0 -106 73.5 -176t188.5 -70q84 0 151.5 39t105.5 105.5t38 146.5q0 111 -70.5 181.5t-183.5 70.5q-84 0 -153.5 -40t-109.5 -107.5 t-40 -149.5z" />
<glyph unicode="9" d="M178 895q0 139 60.5 258t166 190.5t232.5 71.5q158 0 251 -105.5t93 -279.5q0 -223 -174 -485l-363 -545h-106q158 231 260 387t199 315q-117 -143 -308 -143q-139 0 -225 92t-86 244zM274 893q0 -115 63.5 -181.5t172.5 -66.5q104 0 189 51.5t134.5 140.5t49.5 199 q0 135 -67.5 214t-184.5 79q-101 0 -182.5 -60.5t-128 -160.5t-46.5 -215z" />
<glyph unicode=":" horiz-adv-x="365" d="M63 0l21 166h117l-21 -166h-117zM164 754l22 166h115l-20 -166h-117z" />
<glyph unicode=";" horiz-adv-x="365" d="M8 -250l6 53q78 45 97 197h-48l23 166h115l-19 -141q-28 -230 -174 -275zM164 754l22 166h115l-20 -166h-117z" />
<glyph unicode="&#x3c;" horiz-adv-x="1059" d="M113 655v68l888 410v-99l-768 -344q48 -22 121.5 -55t163.5 -74q397 -180 483 -221v-98z" />
<glyph unicode="=" horiz-adv-x="1059" d="M113 422v88h888v-88h-888zM113 915v89h888v-89h-888z" />
<glyph unicode="&#x3e;" horiz-adv-x="1059" d="M113 242v98l764 346q-15 6 -332 150q-371 168 -432 198v99l888 -414v-68z" />
<glyph unicode="?" horiz-adv-x="643" d="M100 0l25 162h108l-22 -162h-111zM154 1221l16 108q104 86 238 86q122 0 202 -76.5t80 -201.5q0 -93 -40 -167.5t-161 -191.5q-127 -125 -183 -223t-73 -201h-63q10 119 66.5 231.5t195.5 254.5q96 98 131 159.5t35 133.5q0 86 -57.5 140t-147.5 54q-121 0 -239 -106z " />
<glyph unicode="@" horiz-adv-x="1798" d="M94 535q0 241 108.5 444t305.5 320.5t450 117.5q220 0 393 -82t271 -235.5t98 -360.5q0 -176 -61.5 -316t-170 -219t-245.5 -79q-80 0 -121 41t-41 108q0 37 9 70q-95 -106 -178 -162.5t-171 -56.5q-129 0 -205.5 100.5t-76.5 270.5q0 163 63.5 294.5t189.5 206t304 74.5 q123 0 274 -45l-114 -639q-11 -57 -11 -98q0 -45 21.5 -66.5t73.5 -21.5q100 0 187 66.5t139 190.5t52 283q0 185 -86 322t-240.5 211t-355.5 74q-223 0 -401 -103.5t-279.5 -289t-101.5 -420.5q0 -230 84 -400t236.5 -262t353.5 -92q196 0 343.5 44t262.5 132l39 -55 q-123 -95 -278.5 -143t-368.5 -48t-383 95.5t-269.5 281.5t-99.5 447zM549 504q0 -142 56.5 -222.5t150.5 -80.5q88 0 171 63.5t169 173.5l94 529q-31 12 -83 19t-103 7q-138 0 -241.5 -62.5t-158.5 -174t-55 -252.5z" />
<glyph unicode="A" horiz-adv-x="1051" d="M-51 0l631 1411h92l297 -1411h-92l-107 494h-506l-217 -494h-98zM299 573h457l-150 699z" />
<glyph unicode="B" horiz-adv-x="1047" d="M80 0l192 1397h168q195 0 307.5 -90t112.5 -248q0 -105 -57.5 -180.5t-159.5 -110.5q145 -33 234.5 -135.5t89.5 -235.5q0 -135 -72 -224t-187.5 -131t-248.5 -42h-379zM188 84h271q186 0 297.5 84t111.5 225q0 94 -49 168t-136 116t-200 42h-209zM287 799h98 q375 0 375 260q0 119 -83 186.5t-228 67.5h-93z" />
<glyph unicode="C" horiz-adv-x="1116" d="M86 563q0 238 120 432.5t324.5 307t450.5 112.5q80 0 149 -12l-16 -88q-92 10 -131 10q-231 0 -412.5 -106.5t-282 -280.5t-100.5 -371q0 -137 54.5 -249.5t153 -179t225.5 -66.5q194 0 415 143l-14 -111q-96 -57 -203.5 -89.5t-202.5 -32.5q-163 0 -283 79.5t-183.5 213 t-63.5 288.5z" />
<glyph unicode="D" horiz-adv-x="1292" d="M82 0l190 1397h191q213 0 384 -81t270.5 -241t99.5 -385q0 -221 -96.5 -376.5t-266.5 -234.5t-387 -79h-385zM190 88h281q205 0 349.5 76t219 212t74.5 314q0 203 -88 342t-235.5 208t-323.5 69h-111z" />
<glyph unicode="E" horiz-adv-x="1028" d="M80 0l192 1397h691l-11 -88h-594l-75 -551h548l-14 -86h-547l-80 -584h789l-12 -88h-887z" />
<glyph unicode="F" horiz-adv-x="809" d="M76 0l192 1397h619l-13 -88h-522l-76 -553h484l-10 -88h-486l-90 -668h-98z" />
<glyph unicode="G" horiz-adv-x="1233" d="M82 588q0 235 118.5 423.5t335 296t494.5 107.5q144 0 236 -24l-13 -91q-127 25 -227 25q-246 0 -436.5 -95t-297 -263t-106.5 -381q0 -156 61.5 -272.5t169 -179t245.5 -62.5q79 0 165 24.5t166 67.5l45 321h-272l10 84h369l-62 -458q-102 -64 -214.5 -96.5 t-219.5 -32.5q-162 0 -292 76.5t-202.5 215t-72.5 314.5z" />
<glyph unicode="H" horiz-adv-x="1391" d="M80 0l190 1397h99l-90 -641h895l83 641h99l-191 -1397h-98l94 668h-893l-90 -668h-98z" />
<glyph unicode="I" horiz-adv-x="401" d="M78 0l190 1397h99l-191 -1397h-98z" />
<glyph unicode="J" horiz-adv-x="416" d="M-293 -365q70 -16 117 -16q123 0 179 76t79 246l201 1456h98l-201 -1458q-28 -209 -107 -309.5t-237 -100.5q-55 0 -106 12z" />
<glyph unicode="K" horiz-adv-x="1051" d="M78 0l192 1397h95l-193 -1397h-94zM281 766l692 631h123l-699 -633l664 -764h-119z" />
<glyph unicode="L" horiz-adv-x="840" d="M80 0l192 1397h99l-183 -1309h603l-11 -88h-700z" />
<glyph unicode="M" horiz-adv-x="1604" d="M-27 0l455 1397h86l242 -1168l602 1168h84l12 -1397h-96l-4 1208l-631 -1222l-258 1235l-393 -1221h-99z" />
<glyph unicode="N" horiz-adv-x="1362" d="M78 0l192 1397h41l758 -1196l164 1196h94l-194 -1405h-41l-756 1196l-164 -1188h-94z" />
<glyph unicode="O" horiz-adv-x="1325" d="M111 561q0 199 74.5 396.5t224 327.5t356.5 130q139 0 246.5 -66.5t167 -194.5t59.5 -306q0 -234 -82 -432.5t-230.5 -316t-334.5 -117.5q-230 0 -355.5 153.5t-125.5 425.5zM213 541q0 -228 99.5 -349.5t283.5 -121.5q166 0 289 115.5t186.5 298t63.5 376.5 q0 211 -96.5 339t-274.5 128q-180 0 -305 -121t-185.5 -303t-60.5 -362z" />
<glyph unicode="P" horiz-adv-x="928" d="M80 0l151 1120l39 277h193q217 0 338 -90t121 -277q0 -108 -48.5 -199.5t-152 -146.5t-258.5 -55h-201l-84 -629h-98zM276 715h197q164 0 256 84t92 227q0 285 -358 285h-107z" />
<glyph unicode="Q" horiz-adv-x="1325" d="M111 565q0 199 74.5 395.5t224 325.5t358.5 129q139 0 245.5 -65.5t166 -194.5t59.5 -309q0 -228 -77 -419t-216 -309t-319 -132q49 -133 142 -213t214 -80q109 0 187.5 75.5t99.5 198.5h20q-6 -166 -93 -265t-241 -99q-145 0 -264 105.5t-176 279.5 q-190 24 -297.5 171.5t-107.5 405.5zM215 537q0 -228 103.5 -348.5t275.5 -120.5q164 0 287 112.5t189.5 294.5t66.5 385q0 209 -97.5 338t-275.5 129q-172 0 -297 -116.5t-188.5 -299t-63.5 -374.5z" />
<glyph unicode="R" horiz-adv-x="1038" d="M80 0l188 1397h310q84 0 167.5 -33t142 -113t58.5 -211q0 -145 -91 -242.5t-245 -117.5q64 -37 127 -160l275 -520h-107l-241 459q-62 119 -110 158.5t-128 39.5h-160l-88 -657h-98zM279 743h217q151 0 249.5 76t98.5 219q0 129 -76 201t-217 72h-195z" />
<glyph unicode="S" horiz-adv-x="850" d="M66 70l18 100q63 -47 134 -72.5t136 -25.5q125 0 203 74.5t78 195.5q0 92 -50 167t-175 169q-131 98 -186.5 183t-55.5 196q0 98 47 180t134 130t200 48q125 0 235 -59l-16 -96q-57 34 -109.5 49.5t-109.5 15.5q-125 0 -203 -77t-78 -189q0 -84 42 -148.5t159 -150.5 q145 -109 205.5 -202t60.5 -214q0 -102 -48 -185t-134 -130t-197 -47q-73 0 -151 24.5t-139 63.5z" />
<glyph unicode="T" horiz-adv-x="932" d="M121 1307l12 90h909l-12 -90h-405l-181 -1307h-98l180 1307h-405z" />
<glyph unicode="U" horiz-adv-x="1266" d="M127 399q0 68 23 226l106 772h98l-110 -789q-21 -151 -21 -211q0 -149 99.5 -237t265.5 -88q186 0 302 119.5t144 334.5l121 871h98l-120 -877q-33 -246 -173.5 -392t-373.5 -146q-133 0 -237.5 51t-163 146t-58.5 220z" />
<glyph unicode="V" horiz-adv-x="961" d="M131 1397h94l232 -1172l520 1172h98l-633 -1405h-30z" />
<glyph unicode="W" horiz-adv-x="1812" d="M129 1397h92l252 -1182l535 1182h26l244 -1180l553 1180h100l-663 -1411h-29l-244 1171l-530 -1171h-33z" />
<glyph unicode="X" horiz-adv-x="1264" d="M-53 0l665 731l-428 666h109l387 -592l534 592h125l-608 -670l467 -727h-113l-421 653l-590 -653h-127z" />
<glyph unicode="Y" horiz-adv-x="911" d="M123 1397h100l287 -588l424 588h110l-493 -680l-98 -717h-97l101 717z" />
<glyph unicode="Z" horiz-adv-x="1229" d="M-27 0l1133 1307h-911l12 90h1096l-1135 -1307h950l-10 -90h-1135z" />
<glyph unicode="[" horiz-adv-x="641" d="M55 -453l256 1850h406l-10 -74h-316l-235 -1702h315l-10 -74h-406z" />
<glyph unicode="\" horiz-adv-x="530" d="M104 1415h78l293 -1433h-78z" />
<glyph unicode="]" horiz-adv-x="641" d="M-88 -453l10 74h316l235 1702h-315l10 74h405l-256 -1850h-405z" />
<glyph unicode="^" horiz-adv-x="1024" d="M139 694l361 705h57l358 -705h-94l-293 590l-292 -590h-97z" />
<glyph unicode="_" horiz-adv-x="1024" d="M-18 -176h1060v-62h-1060v62z" />
<glyph unicode="`" horiz-adv-x="682" d="M195 1370h114l201 -311h-68z" />
<glyph unicode="a" horiz-adv-x="930" d="M74 360q0 166 68.5 298.5t199.5 208t315 75.5q99 0 209 -24l-123 -918h-88l17 127q-137 -143 -299 -143q-135 0 -217 103t-82 273zM164 365q0 -140 62.5 -222t166.5 -82q78 0 155 42t136 116l86 635q-57 10 -119 10q-153 0 -264 -67.5t-167 -181t-56 -250.5z" />
<glyph unicode="b" horiz-adv-x="940" d="M61 -4l187 1401h92l-82 -604q53 73 128 111t159 38q92 0 163.5 -51t112.5 -141.5t41 -202.5q0 -172 -68.5 -300t-197.5 -199t-305 -71q-139 0 -230 19zM158 66q18 -5 57 -8t74 -3q235 0 358 135.5t123 356.5q0 143 -69.5 230t-184.5 87q-55 0 -115.5 -29.5t-105.5 -77.5 t-55 -104z" />
<glyph unicode="c" horiz-adv-x="778" d="M74 393q0 144 65.5 269.5t189.5 202.5t292 77q65 0 155 -20l-12 -80q-92 20 -150 20q-135 0 -237.5 -66.5t-157.5 -176t-55 -232.5q0 -145 77.5 -237.5t219.5 -92.5q129 0 246 74l-13 -94q-119 -60 -252 -60q-116 0 -199 55.5t-126 149.5t-43 211z" />
<glyph unicode="d" horiz-adv-x="942" d="M74 397q0 158 72.5 281t200.5 192.5t286 69.5q92 0 158 -8l63 465h88l-192 -1393q-93 -16 -130.5 -21.5t-97.5 -5.5q-213 0 -330.5 113t-117.5 307zM166 401q0 -165 96 -256.5t266 -91.5q80 0 144 19l108 784q-67 10 -139 10q-149 0 -257 -63.5t-163 -170t-55 -231.5z " />
<glyph unicode="e" horiz-adv-x="879" d="M76 416q0 141 54 262t149.5 192.5t212.5 71.5q143 0 230 -104.5t87 -282.5q0 -47 -4 -61h-635q-4 -50 -4 -80q0 -170 80 -265.5t213 -95.5q71 0 140 26.5t146 84.5l-10 -92q-131 -95 -282 -95q-174 0 -275.5 119t-101.5 320zM184 561h537q0 144 -61.5 224.5t-172.5 80.5 q-104 0 -188 -82t-115 -223z" />
<glyph unicode="f" horiz-adv-x="500" d="M55 844l13 76h170l22 151q27 195 127 278t244 83q108 0 207 -43l-13 -82q-88 45 -194 45q-125 0 -194.5 -71t-90.5 -216l-22 -145h225l-12 -76h-224l-166 -1243h-88l166 1243h-170z" />
<glyph unicode="g" horiz-adv-x="840" d="M-20 -250q0 86 75.5 142.5t223.5 76.5q-91 25 -136 59.5t-45 94.5q0 117 191 156q-90 36 -139.5 108t-49.5 174q0 103 46.5 183.5t128 128t188.5 47.5h409l-10 -72h-235q59 -33 94 -95.5t35 -136.5q0 -147 -84 -243.5t-250 -120.5q-141 -23 -190.5 -47.5t-49.5 -71.5 t46 -67.5t182 -53.5l84 -18q118 -29 175.5 -82t57.5 -135q0 -60 -42 -116t-130 -94t-217 -38q-154 0 -256 60.5t-102 160.5zM63 -248q0 -69 81 -111t200 -42q129 0 212 48t83 124q0 63 -61.5 103t-208.5 67q-306 -50 -306 -189zM186 563q0 -104 59.5 -171.5t151.5 -67.5 q113 0 193 77.5t80 206.5q0 109 -65.5 173.5t-162.5 64.5q-69 0 -128.5 -37t-93.5 -101.5t-34 -144.5z" />
<glyph unicode="h" horiz-adv-x="924" d="M59 0l193 1397h88l-90 -649q180 194 368 194q89 0 149 -63.5t60 -180.5q0 -39 -12 -125l-80 -573h-88l82 590q10 78 10 102q0 86 -43 131t-110 45q-78 0 -161 -49t-187 -166l-91 -653h-88z" />
<glyph unicode="i" horiz-adv-x="356" d="M66 0l127 920h86l-125 -920h-88zM223 1159l21 158h90l-21 -158h-90z" />
<glyph unicode="j" horiz-adv-x="356" d="M-246 -444l10 77q41 -10 82 -10q93 0 137 54.5t62 187.5l148 1055h88l-146 -1057q-24 -182 -91 -253t-191 -71q-56 0 -99 17zM223 1159l21 158h90l-21 -158h-90z" />
<glyph unicode="k" horiz-adv-x="838" d="M61 0l191 1397h88l-127 -903l485 426h119l-493 -433l514 -487h-117l-508 479l-66 -479h-86z" />
<glyph unicode="l" horiz-adv-x="356" d="M61 0l191 1397h88l-193 -1397h-86z" />
<glyph unicode="m" horiz-adv-x="1454" d="M61 0l125 920h88l-24 -177q96 105 175 149t169 44q88 0 140 -53.5t61 -151.5q96 105 181 155t175 50q100 0 154.5 -61.5t54.5 -165.5q0 -37 -10 -115l-82 -594h-88l84 604q8 66 8 90q0 170 -144 170q-73 0 -155 -53t-180 -166q0 -2 -9 -84l-75 -561h-88l77 565 q11 72 11 127q0 172 -146 172q-71 0 -149 -51t-176 -164l-91 -649h-86z" />
<glyph unicode="n" horiz-adv-x="924" d="M61 0l125 920h88l-24 -177q178 193 360 193q103 0 160 -65.5t57 -184.5q0 -49 -10 -111l-82 -575h-88l82 575q10 66 10 109q0 88 -40 133t-111 45q-164 0 -350 -213l-91 -649h-86z" />
<glyph unicode="o" horiz-adv-x="905" d="M74 362q0 168 53 300.5t151.5 206t229.5 73.5q143 0 230 -107.5t87 -283.5q0 -162 -52 -292t-150.5 -206t-229.5 -76q-149 0 -234 111t-85 274zM164 356q0 -133 64.5 -217t166.5 -84q105 0 182.5 66.5t117.5 180.5t40 253q0 143 -64.5 226t-170.5 83q-109 0 -184.5 -74.5 t-113.5 -191.5t-38 -242z" />
<glyph unicode="p" horiz-adv-x="971" d="M31 563q0 15 22.5 60t64.5 99t97 101l43 299h86l-33 -245q107 65 230 65q155 0 252.5 -111.5t97.5 -308.5q0 -162 -67.5 -284.5t-194.5 -190t-303 -67.5q-60 0 -138 10l-59 -443h-88l166 1201q-37 -33 -133 -156q-31 -41 -33 -41q-10 0 -10 12zM201 63q71 -10 121 -10 q153 0 260.5 60.5t163 167t55.5 241.5q0 168 -81 258t-204 90q-55 0 -112.5 -18t-102.5 -53z" />
<glyph unicode="q" horiz-adv-x="930" d="M74 362q0 179 74.5 310t209 199.5t308.5 68.5q96 0 200 -12l-190 -1381h-86l67 510q-114 -80 -254 -80q-98 0 -172.5 52.5t-115.5 140.5t-41 192zM166 360q0 -98 38 -167.5t98 -103.5t126 -34q68 0 131.5 22.5t108.5 59.5l100 721q-74 6 -111 6q-231 0 -361 -135 t-130 -369z" />
<glyph unicode="r" horiz-adv-x="563" d="M61 0l127 920h88l-32 -228q102 135 172.5 189.5t146.5 54.5q45 0 90 -23l-30 -88q-39 21 -78 21q-78 0 -152 -69.5t-164 -194.5l-79 -582h-89z" />
<glyph unicode="s" horiz-adv-x="700" d="M27 88l20 86q139 -119 281 -119q88 0 137 46t49 114q0 61 -46 112.5t-171 133.5q-111 76 -151 131t-40 123q0 96 78 160.5t199 64.5q137 0 268 -84l-10 -88q-78 51 -137.5 72.5t-124.5 21.5q-80 0 -131 -41t-51 -102q0 -51 35.5 -91t140.5 -110q125 -82 177 -147.5 t52 -155.5q0 -109 -75.5 -173.5t-196.5 -64.5q-168 0 -303 111z" />
<glyph unicode="t" horiz-adv-x="575" d="M66 844l12 76h178l35 202h88l-35 -202h248l-14 -76h-248l-80 -479q-17 -115 -17 -162q0 -74 35 -111t97 -37q84 0 172 60l-11 -86q-88 -52 -174 -52q-92 0 -149.5 53.5t-57.5 162.5q0 73 19 172l78 479h-176z" />
<glyph unicode="u" horiz-adv-x="924" d="M88 225q0 33 10 99l82 596h88l-82 -601q-8 -59 -8 -88q0 -88 40 -132t112 -44q78 0 163 50.5t185 160.5l88 654h88l-125 -920h-88l23 174q-91 -96 -179 -143t-182 -47q-104 0 -159.5 65.5t-55.5 175.5z" />
<glyph unicode="v" horiz-adv-x="725" d="M63 920h91l153 -758l381 758h92l-477 -934h-41z" />
<glyph unicode="w" horiz-adv-x="1225" d="M63 920h87l143 -754l362 754h37l121 -754l377 754h88l-467 -934h-41l-123 743l-360 -743h-39z" />
<glyph unicode="x" horiz-adv-x="858" d="M-47 0l420 485l-236 435h96l199 -373l320 373h106l-383 -449l256 -471h-94l-223 412l-353 -412h-108z" />
<glyph unicode="y" horiz-adv-x="733" d="M-12 -471l243 483l-172 908h91l143 -781l391 781h92l-692 -1391h-96z" />
<glyph unicode="z" horiz-adv-x="844" d="M-31 0v12l713 828h-569l12 80h721v-13l-713 -827h627l-17 -80h-774z" />
<glyph unicode="{" horiz-adv-x="635" d="M113 422v82q114 16 158 83.5t44 207.5v274q0 125 30 195.5t94.5 101.5t178.5 31v-80q-86 0 -131 -22.5t-64.5 -75t-19.5 -148.5v-276q0 -148 -42 -222.5t-150 -109.5q100 -31 146 -105.5t46 -220.5v-274q0 -105 19.5 -159t64.5 -75.5t131 -21.5v-80q-118 0 -182.5 30.5 t-92.5 103.5t-28 206v268q0 139 -46 208t-156 79z" />
<glyph unicode="|" horiz-adv-x="420" d="M197 -473v1870h82v-1870h-82z" />
<glyph unicode="}" horiz-adv-x="635" d="M16 -393q86 0 131.5 22.5t64.5 76.5t19 157v274q0 146 46.5 220.5t146.5 105.5q-109 35 -151 109.5t-42 222.5v276q0 96 -19 148.5t-64.5 75t-131.5 22.5v80q117 0 182.5 -33t93 -103.5t27.5 -191.5v-274q0 -140 44.5 -207.5t158.5 -83.5v-82q-110 -10 -156.5 -79 t-46.5 -208v-268q0 -129 -25.5 -202t-91 -105.5t-186.5 -32.5v80z" />
<glyph unicode="~" horiz-adv-x="1059" d="M106 625v100q115 121 240 121q49 0 96 -19.5t119 -60.5q64 -37 110 -56.5t91 -19.5q63 0 114.5 31t118.5 102v-98q-118 -123 -239 -123q-51 0 -102.5 21.5t-121.5 60.5q-67 37 -108 55.5t-82 18.5q-63 0 -116.5 -31t-119.5 -102z" />
<glyph unicode="&#xa1;" horiz-adv-x="403" d="M-6 -455l192 1065h66l-139 -1065h-119zM184 780l25 162h108l-24 -162h-109z" />
<glyph unicode="&#xa2;" d="M154 393q0 146 64.5 270.5t187 200.5t290.5 76l117 379l59 -16l-116 -365q63 -6 100 -16l-12 -80l-47 8l-66 10l-250 -799q19 -4 62 -4q119 0 243 74l-12 -94q-102 -57 -246 -57q-36 0 -71 8l-113 -363l-55 19l110 354q-116 37 -180.5 143.5t-64.5 251.5zM244 389 q0 -115 46 -194.5t136 -116.5l244 782q-133 -6 -229.5 -71.5t-146.5 -171t-50 -228.5z" />
<glyph unicode="&#xa3;" d="M117 -18l229 657h-184l22 88h191q88 248 162.5 392.5t166 220t216.5 75.5q55 0 127 -22l-13 -93q-57 25 -116 25q-97 0 -171.5 -67.5t-137 -195.5t-134.5 -335h242l-23 -88h-248l-186 -539q62 17 135 17q49 0 164 -21q109 -22 176 -22q92 0 189 39l-15 -101 q-71 -30 -198 -30q-49 0 -164 20q-15 2 -75 12.5t-116 10.5q-65 0 -116.5 -10.5t-122.5 -32.5z" />
<glyph unicode="&#xa4;" horiz-adv-x="1124" d="M117 289l135 133q-98 117 -98 274q0 164 98 277l-135 137l61 61l135 -137q58 49 129.5 74t145.5 25q76 0 147.5 -25t128.5 -74l137 137l62 -61l-137 -137q49 -60 73.5 -130.5t24.5 -146.5q0 -153 -98 -274l137 -133l-62 -64l-137 137q-57 -51 -128.5 -75.5t-147.5 -24.5 q-74 0 -145.5 24.5t-129.5 75.5l-135 -137zM240 698q0 -96 47 -176t127 -126t174 -46q96 0 176 47t127 127t47 174q0 97 -47 176.5t-128 126t-175 46.5t-174 -46.5t-127 -126t-47 -176.5z" />
<glyph unicode="&#xa5;" d="M119 420l12 76h350l25 188h-350l12 76h311l-301 637h101l284 -609l426 609h109l-455 -637h322l-11 -76h-356l-27 -188h359l-12 -76h-357l-57 -420h-92l57 420h-350z" />
<glyph unicode="&#xa6;" horiz-adv-x="420" d="M197 291h82v-766h-82v766zM197 631v766h82v-766h-82z" />
<glyph unicode="&#xa7;" horiz-adv-x="1004" d="M55 -229q0 16 2 24l78 37q-2 -12 -2 -29q0 -96 55.5 -147t153.5 -51q119 0 197.5 66.5t78.5 164.5q0 76 -50 139.5t-179 157.5q-164 119 -226.5 204t-62.5 177q0 115 82 205t244 145q-64 60 -93.5 116t-29.5 120q0 84 44 156.5t127 115.5t196 43q123 0 194.5 -61.5 t71.5 -163.5q0 -10 -4 -51l-82 -31q10 31 10 57q0 80 -54 127t-138 47q-117 0 -196 -65.5t-79 -165.5q0 -64 43 -125t137 -131q189 -139 257.5 -232.5t68.5 -187.5q0 -108 -74.5 -198.5t-224.5 -155.5q62 -68 86.5 -122t24.5 -114q0 -80 -44 -151.5t-127 -116.5t-196 -45 q-131 0 -209 64.5t-80 177.5zM190 518q0 -57 31 -106.5t84 -95.5t164 -130l70 -53q129 57 198.5 126t69.5 165q0 57 -27.5 107.5t-95.5 113t-195 160.5q-149 -47 -224 -115.5t-75 -171.5z" />
<glyph unicode="&#xa8;" horiz-adv-x="682" d="M180 1098l27 180h90l-27 -180h-90zM494 1098l28 180h88l-26 -180h-90z" />
<glyph unicode="&#xa9;" horiz-adv-x="1622" d="M100 702q0 195 97.5 361t262.5 263t361 97q195 0 361 -97t263 -262t97 -362q0 -196 -96 -361t-261 -261t-362 -96q-194 0 -360 95t-264.5 260t-98.5 363zM156 702q0 -182 90 -334.5t243.5 -241.5t333.5 -89q181 0 333.5 90t240.5 242.5t88 332.5q0 181 -89 334.5 t-242 243.5t-331 90q-180 0 -333.5 -90t-243.5 -243.5t-90 -334.5zM418 702q0 121 51 218.5t149.5 152.5t231.5 55q127 0 262 -57v-88q-117 68 -250 68q-166 0 -258 -96.5t-92 -249.5q0 -156 96.5 -250.5t249.5 -94.5q139 0 256 66v-86q-127 -57 -268 -57q-131 0 -227.5 54 t-148.5 149.5t-52 215.5z" />
<glyph unicode="&#xaa;" horiz-adv-x="627" d="M127 1061q0 160 97.5 257t271.5 97q71 0 137 -16l-78 -553h-74l8 59q-75 -71 -172 -71q-88 0 -139 61t-51 166zM203 1067q0 -80 34.5 -126t92.5 -46q90 0 170 90l51 361q-19 6 -66 6q-133 0 -207.5 -80t-74.5 -205z" />
<glyph unicode="&#xab;" horiz-adv-x="907" d="M45 465l330 463h88l-332 -469l191 -451h-84zM483 465l330 463h88l-332 -469l193 -451h-84z" />
<glyph unicode="&#xac;" horiz-adv-x="1059" d="M92 909v88h875v-567h-88v479h-787z" />
<glyph unicode="&#xad;" horiz-adv-x="539" d="M31 408l12 86h461l-15 -86h-458z" />
<glyph unicode="&#xae;" horiz-adv-x="1622" d="M100 702q0 195 97.5 361t262.5 263t361 97q195 0 361 -97t263 -262t97 -362q0 -196 -96 -361t-261 -261t-362 -96q-194 0 -360 95t-264.5 260t-98.5 363zM156 702q0 -182 90 -334.5t243.5 -241.5t333.5 -89q181 0 333.5 90t240.5 242.5t88 332.5q0 181 -89 334.5 t-242 243.5t-331 90q-180 0 -333.5 -90t-243.5 -243.5t-90 -334.5zM551 307v805h272q135 0 207 -55.5t72 -159.5q0 -82 -58.5 -142.5t-158.5 -70.5q51 -16 83.5 -45t65.5 -78l176 -254h-100l-158 232q-45 71 -88 95.5t-119 24.5h-110v-352h-84zM635 723h151q105 0 165.5 43 t60.5 123t-52.5 119t-164.5 39h-160v-324z" />
<glyph unicode="&#xaf;" horiz-adv-x="1024" d="M-18 1523v62h1060v-62h-1060z" />
<glyph unicode="&#xb0;" horiz-adv-x="754" d="M172 1133q0 75 38 140.5t103.5 103.5t141.5 38q77 0 142 -39t102.5 -103.5t37.5 -139.5q0 -76 -37.5 -141.5t-103.5 -103.5t-141 -38q-76 0 -141.5 38t-103.5 103.5t-38 141.5zM238 1133q0 -91 63.5 -154.5t153.5 -63.5t153.5 63.5t63.5 154.5q0 90 -64.5 153.5 t-154.5 63.5q-86 0 -150.5 -63.5t-64.5 -153.5z" />
<glyph unicode="&#xb1;" horiz-adv-x="1059" d="M113 80v90h888v-90h-888zM113 713v90h399v397h88v-397h401v-90h-401v-398h-88v398h-399z" />
<glyph unicode="&#xb2;" horiz-adv-x="623" d="M170 1018q172 182 259.5 285.5t118 164t30.5 113.5q0 51 -29.5 81t-87.5 30q-86 0 -180 -70l10 72q84 59 181 59q81 0 130.5 -47t49.5 -121q0 -53 -27 -112.5t-100.5 -153.5t-212.5 -242h315l-10 -59h-447z" />
<glyph unicode="&#xb3;" horiz-adv-x="623" d="M181 1051l8 61q96 -53 176 -53q84 0 134 45t50 121q0 63 -46 98t-118 35l9 55q94 2 145 46t51 112q0 57 -36.5 89t-100.5 32q-90 0 -162 -47l13 69q71 39 159 39q90 0 147.5 -51t57.5 -129q0 -68 -39 -117t-112 -71q51 -21 79.5 -65t28.5 -99q0 -97 -70.5 -159 t-185.5 -62q-100 0 -188 51z" />
<glyph unicode="&#xb4;" horiz-adv-x="682" d="M340 1059l203 311h114l-249 -311h-68z" />
<glyph unicode="&#xb5;" horiz-adv-x="1010" d="M25 -406l182 1326h88l-78 -562q-4 -30 -4 -69q0 -99 47 -164.5t152 -65.5q67 0 132.5 38t111.5 106.5t59 156.5l78 560h88l-86 -635q-11 -66 -11 -111q0 -59 21.5 -86t64.5 -27q50 0 103 29l-10 -80q-41 -16 -69 -23t-58 -7q-60 0 -93.5 32.5t-37.5 96.5v16q0 35 2 43 q-52 -84 -132.5 -136t-171.5 -52q-81 0 -138.5 39.5t-78.5 115.5l-73 -541h-88z" />
<glyph unicode="&#xb6;" horiz-adv-x="1137" d="M147 1040q0 105 49.5 186t132.5 126t181 45h590l-15 -66h-182v-1636h-74v1636h-247v-1636h-74v993q-102 2 -184 48t-129.5 126t-47.5 178z" />
<glyph unicode="&#xb7;" horiz-adv-x="365" d="M143 635l21 164h117l-23 -164h-115z" />
<glyph unicode="&#xb8;" horiz-adv-x="682" d="M180 -369l17 60q18 -6 57 -6q65 0 102 27.5t37 82.5q0 72 -86 84l51 129h56l-35 -88q49 -12 73.5 -45t24.5 -78q0 -73 -54 -124.5t-165 -51.5q-41 0 -78 10z" />
<glyph unicode="&#xb9;" horiz-adv-x="623" d="M275 1561l272 174h54l-107 -717h-74l88 612l-198 -123z" />
<glyph unicode="&#xba;" horiz-adv-x="571" d="M127 1065q0 162 77 256t197 94q91 0 148 -65.5t57 -169.5q0 -158 -75.5 -252t-196.5 -94q-92 0 -149.5 62t-57.5 169zM203 1065q0 -76 35.5 -122t95.5 -46q88 0 142 78t54 203q0 79 -36.5 126.5t-98.5 47.5q-84 0 -138 -81t-54 -206z" />
<glyph unicode="&#xbb;" horiz-adv-x="907" d="M-8 8l332 471l-191 449h84l193 -455l-330 -465h-88zM430 8l334 471l-193 449h84l193 -455l-328 -465h-90z" />
<glyph unicode="&#xbc;" horiz-adv-x="1548" d="M129 -55l1082 1470h79l-1079 -1470h-82zM183 1223l272 174h54l-107 -717h-74l88 612l-198 -123zM792 248v20l453 467h39l-76 -432h137l-8 -55h-139l-41 -248h-72l41 248h-334zM905 303h231l52 289z" />
<glyph unicode="&#xbd;" horiz-adv-x="1548" d="M129 -55l1082 1470h79l-1079 -1470h-82zM183 1223l272 174h54l-107 -717h-74l88 612l-198 -123zM866 0q172 182 259.5 285.5t118 164t30.5 113.5q0 51 -29.5 81t-87.5 30q-86 0 -180 -70l10 72q84 59 180 59q82 0 131.5 -47t49.5 -121q0 -53 -27 -112.5t-100.5 -153.5 t-212.5 -242h315l-10 -59h-447z" />
<glyph unicode="&#xbe;" horiz-adv-x="1548" d="M115 713l8 61q96 -53 176 -53q84 0 134 45t50 121q0 63 -46 98t-118 35l9 55q94 2 145 46t51 112q0 57 -36.5 89t-100.5 32q-90 0 -162 -47l13 69q71 39 159 39q90 0 147.5 -51t57.5 -129q0 -68 -39 -117t-112 -71q51 -21 79.5 -65t28.5 -99q0 -97 -70.5 -159t-185.5 -62 q-100 0 -188 51zM205 -55l1082 1470h79l-1079 -1470h-82zM862 248v20l453 467h39l-76 -432h137l-8 -55h-139l-41 -248h-72l41 248h-334zM975 303h231l52 289z" />
<glyph unicode="&#xbf;" horiz-adv-x="643" d="M-63 -195q0 91 39.5 165.5t162.5 193.5q127 125 183.5 223t72.5 201h62q-8 -119 -64.5 -230.5t-197.5 -255.5q-97 -98 -130.5 -159.5t-33.5 -132.5q0 -86 57 -140.5t148 -54.5q116 0 239 106l-16 -108q-109 -86 -238 -86q-123 0 -203.5 77t-80.5 201zM395 780l23 162h108 l-22 -162h-109z" />
<glyph unicode="&#xc0;" horiz-adv-x="1051" d="M-51 0l631 1411h92l297 -1411h-92l-107 494h-506l-217 -494h-98zM299 573h457l-150 699zM449 1767h120l172 -276h-67z" />
<glyph unicode="&#xc1;" horiz-adv-x="1051" d="M-51 0l631 1411h92l297 -1411h-92l-107 494h-506l-217 -494h-98zM299 573h457l-150 699zM567 1491l174 276h121l-228 -276h-67z" />
<glyph unicode="&#xc2;" horiz-adv-x="1051" d="M-51 0l631 1411h92l297 -1411h-92l-107 494h-506l-217 -494h-98zM299 573h457l-150 699zM385 1491l242 285h109l133 -285h-64l-131 215l-217 -215h-72z" />
<glyph unicode="&#xc3;" horiz-adv-x="1051" d="M-51 0l631 1411h92l297 -1411h-92l-107 494h-506l-217 -494h-98zM299 573h457l-150 699zM348 1536q0 86 42 137t112 51q27 0 62.5 -14t87.5 -43q61 -31 96 -45t65 -14q37 0 58.5 32.5t25.5 77.5h60q-6 -88 -46 -136t-108 -48q-33 0 -72 15.5t-94 45.5q-51 27 -84 41.5 t-59 14.5q-35 0 -60.5 -32t-25.5 -83h-60z" />
<glyph unicode="&#xc4;" horiz-adv-x="1051" d="M-51 0l631 1411h92l297 -1411h-92l-107 494h-506l-217 -494h-98zM299 573h457l-150 699zM436 1518l29 172h86l-29 -172h-86zM749 1518l29 172h86l-29 -172h-86z" />
<glyph unicode="&#xc5;" horiz-adv-x="1051" d="M-51 0l631 1411h92l297 -1411h-92l-107 494h-506l-217 -494h-98zM299 573h457l-150 699zM467 1519q0 69 46 116t116 47q67 0 114.5 -48t47.5 -115q0 -68 -48.5 -114t-113.5 -46q-70 0 -116 46t-46 114zM522 1519q0 -45 31 -76t76 -31q43 0 75.5 31t32.5 76t-32.5 76.5 t-77.5 31.5t-75 -31.5t-30 -76.5z" />
<glyph unicode="&#xc6;" horiz-adv-x="1608" d="M-88 0l827 1397h805l-10 -88h-573l-74 -555h528l-14 -88h-529l-77 -578h766l-13 -88h-866l92 666h-362l-394 -666h-106zM459 748h327l78 567h-76z" />
<glyph unicode="&#xc7;" horiz-adv-x="1116" d="M86 563q0 238 120 432.5t324.5 307t450.5 112.5q80 0 149 -12l-16 -88q-92 10 -131 10q-231 0 -412.5 -106.5t-282 -280.5t-100.5 -371q0 -137 54.5 -249.5t153 -179t225.5 -66.5q194 0 415 143l-14 -111q-96 -57 -203.5 -89.5t-202.5 -32.5q-163 0 -283 79.5t-183.5 213 t-63.5 288.5zM381 -369l17 60q18 -6 57 -6q65 0 102 27.5t37 82.5q0 72 -86 84l51 129h56l-35 -88q49 -12 73.5 -45t24.5 -78q0 -73 -54 -124.5t-165 -51.5q-41 0 -78 10z" />
<glyph unicode="&#xc8;" horiz-adv-x="1028" d="M80 0l192 1397h691l-11 -88h-594l-75 -551h548l-14 -86h-547l-80 -584h789l-12 -88h-887zM430 1767h120l172 -276h-67z" />
<glyph unicode="&#xc9;" horiz-adv-x="1028" d="M80 0l192 1397h691l-11 -88h-594l-75 -551h548l-14 -86h-547l-80 -584h789l-12 -88h-887zM551 1491l174 276h121l-228 -276h-67z" />
<glyph unicode="&#xca;" horiz-adv-x="1028" d="M80 0l192 1397h691l-11 -88h-594l-75 -551h548l-14 -86h-547l-80 -584h789l-12 -88h-887zM383 1491l242 285h109l133 -285h-64l-131 215l-217 -215h-72z" />
<glyph unicode="&#xcb;" horiz-adv-x="1028" d="M80 0l192 1397h691l-11 -88h-594l-75 -551h548l-14 -86h-547l-80 -584h789l-12 -88h-887zM426 1518l29 172h86l-29 -172h-86zM739 1518l29 172h86l-29 -172h-86z" />
<glyph unicode="&#xcc;" horiz-adv-x="401" d="M78 0l190 1397h99l-191 -1397h-98zM118 1767h120l172 -276h-67z" />
<glyph unicode="&#xcd;" horiz-adv-x="401" d="M78 0l190 1397h99l-191 -1397h-98zM267 1491l174 276h121l-228 -276h-67z" />
<glyph unicode="&#xce;" horiz-adv-x="401" d="M78 0l190 1397h99l-191 -1397h-98zM83 1491l242 285h109l133 -285h-64l-131 215l-217 -215h-72z" />
<glyph unicode="&#xcf;" horiz-adv-x="401" d="M78 0l190 1397h99l-191 -1397h-98zM136 1518l29 172h86l-29 -172h-86zM449 1518l29 172h86l-29 -172h-86z" />
<glyph unicode="&#xd0;" horiz-adv-x="1292" d="M8 662l8 75h166l90 660h191q213 0 384 -82t270.5 -244t99.5 -391q0 -197 -92.5 -350.5t-252.5 -235.5q-90 -57 -196.5 -75.5t-253.5 -18.5h-340l90 662h-164zM190 88h209q353 0 535 157.5t182 444.5q0 199 -91 339t-237.5 210t-314.5 70h-117l-77 -572h356l-10 -75h-357z " />
<glyph unicode="&#xd1;" horiz-adv-x="1362" d="M78 0l192 1397h41l758 -1196l164 1196h94l-194 -1405h-41l-756 1196l-164 -1188h-94zM522 1536q0 86 42 137t112 51q27 0 62.5 -14t87.5 -43q61 -31 96 -45t65 -14q37 0 58.5 32.5t25.5 77.5h60q-6 -88 -46 -136t-108 -48q-33 0 -72 15.5t-94 45.5q-51 27 -84 41.5 t-59 14.5q-35 0 -60.5 -32t-25.5 -83h-60z" />
<glyph unicode="&#xd2;" horiz-adv-x="1309" d="M111 561q0 199 74.5 396.5t224 327.5t356.5 130q139 0 246.5 -66.5t167 -194.5t59.5 -306q0 -234 -82 -432.5t-230.5 -316t-334.5 -117.5q-230 0 -355.5 153.5t-125.5 425.5zM213 541q0 -228 99.5 -349.5t283.5 -121.5q166 0 289 115.5t186.5 298t63.5 376.5 q0 211 -96.5 339t-274.5 128q-180 0 -305 -121t-185.5 -303t-60.5 -362zM598 1767h120l172 -276h-67z" />
<glyph unicode="&#xd3;" horiz-adv-x="1309" d="M111 561q0 199 74.5 396.5t224 327.5t356.5 130q139 0 246.5 -66.5t167 -194.5t59.5 -306q0 -234 -82 -432.5t-230.5 -316t-334.5 -117.5q-230 0 -355.5 153.5t-125.5 425.5zM213 541q0 -228 99.5 -349.5t283.5 -121.5q166 0 289 115.5t186.5 298t63.5 376.5 q0 211 -96.5 339t-274.5 128q-180 0 -305 -121t-185.5 -303t-60.5 -362zM682 1491l174 276h121l-228 -276h-67z" />
<glyph unicode="&#xd4;" horiz-adv-x="1309" d="M111 561q0 199 74.5 396.5t224 327.5t356.5 130q139 0 246.5 -66.5t167 -194.5t59.5 -306q0 -234 -82 -432.5t-230.5 -316t-334.5 -117.5q-230 0 -355.5 153.5t-125.5 425.5zM213 541q0 -228 99.5 -349.5t283.5 -121.5q166 0 289 115.5t186.5 298t63.5 376.5 q0 211 -96.5 339t-274.5 128q-180 0 -305 -121t-185.5 -303t-60.5 -362zM538 1491l242 285h109l133 -285h-64l-131 215l-217 -215h-72z" />
<glyph unicode="&#xd5;" horiz-adv-x="1309" d="M111 561q0 199 74.5 396.5t224 327.5t356.5 130q139 0 246.5 -66.5t167 -194.5t59.5 -306q0 -234 -82 -432.5t-230.5 -316t-334.5 -117.5q-230 0 -355.5 153.5t-125.5 425.5zM213 541q0 -228 99.5 -349.5t283.5 -121.5q166 0 289 115.5t186.5 298t63.5 376.5 q0 211 -96.5 339t-274.5 128q-180 0 -305 -121t-185.5 -303t-60.5 -362zM493 1536q0 86 42 137t112 51q27 0 62.5 -14t87.5 -43q61 -31 96 -45t65 -14q37 0 58.5 32.5t25.5 77.5h60q-6 -88 -46 -136t-108 -48q-33 0 -72 15.5t-94 45.5q-51 27 -84 41.5t-59 14.5 q-35 0 -60.5 -32t-25.5 -83h-60z" />
<glyph unicode="&#xd6;" horiz-adv-x="1309" d="M111 561q0 199 74.5 396.5t224 327.5t356.5 130q139 0 246.5 -66.5t167 -194.5t59.5 -306q0 -234 -82 -432.5t-230.5 -316t-334.5 -117.5q-230 0 -355.5 153.5t-125.5 425.5zM213 541q0 -228 99.5 -349.5t283.5 -121.5q166 0 289 115.5t186.5 298t63.5 376.5 q0 211 -96.5 339t-274.5 128q-180 0 -305 -121t-185.5 -303t-60.5 -362zM582 1518l29 172h86l-29 -172h-86zM895 1518l29 172h86l-29 -172h-86z" />
<glyph unicode="&#xd7;" horiz-adv-x="1059" d="M127 340l373 375l-361 360l62 64l360 -361l377 373l61 -61l-374 -375l362 -363l-63 -61l-363 362l-373 -374z" />
<glyph unicode="&#xd8;" horiz-adv-x="1325" d="M111 561q0 201 75.5 398.5t224 326.5t355.5 129q182 0 305 -110l90 122l56 -38l-101 -138q123 -145 123 -401q0 -232 -82 -431.5t-229.5 -318t-335.5 -118.5q-186 0 -303 98l-109 -150l-57 39l117 162q-129 152 -129 430zM213 541q0 -207 92 -324l705 1010 q-95 100 -250 100q-178 0 -301 -124t-184.5 -306t-61.5 -356zM348 158q94 -88 248 -88q166 0 289 116.5t186.5 300t63.5 373.5q0 191 -84 305z" />
<glyph unicode="&#xd9;" horiz-adv-x="1266" d="M127 399q0 68 23 226l106 772h98l-110 -789q-21 -151 -21 -211q0 -149 99.5 -237t265.5 -88q186 0 302 119.5t144 334.5l121 871h98l-120 -877q-33 -246 -173.5 -392t-373.5 -146q-133 0 -237.5 51t-163 146t-58.5 220zM539 1767h120l172 -276h-67z" />
<glyph unicode="&#xda;" horiz-adv-x="1266" d="M127 399q0 68 23 226l106 772h98l-110 -789q-21 -151 -21 -211q0 -149 99.5 -237t265.5 -88q186 0 302 119.5t144 334.5l121 871h98l-120 -877q-33 -246 -173.5 -392t-373.5 -146q-133 0 -237.5 51t-163 146t-58.5 220zM697 1491l174 276h121l-228 -276h-67z" />
<glyph unicode="&#xdb;" horiz-adv-x="1266" d="M127 399q0 68 23 226l106 772h98l-110 -789q-21 -151 -21 -211q0 -149 99.5 -237t265.5 -88q186 0 302 119.5t144 334.5l121 871h98l-120 -877q-33 -246 -173.5 -392t-373.5 -146q-133 0 -237.5 51t-163 146t-58.5 220zM524 1491l242 285h109l133 -285h-64l-131 215 l-217 -215h-72z" />
<glyph unicode="&#xdc;" horiz-adv-x="1266" d="M127 399q0 68 23 226l106 772h98l-110 -789q-21 -151 -21 -211q0 -149 99.5 -237t265.5 -88q186 0 302 119.5t144 334.5l121 871h98l-120 -877q-33 -246 -173.5 -392t-373.5 -146q-133 0 -237.5 51t-163 146t-58.5 220zM553 1518l29 172h86l-29 -172h-86zM866 1518 l29 172h86l-29 -172h-86z" />
<glyph unicode="&#xdd;" horiz-adv-x="911" d="M123 1397h100l287 -588l424 588h110l-493 -680l-98 -717h-97l101 717zM531 1491l174 276h121l-228 -276h-67z" />
<glyph unicode="&#xde;" horiz-adv-x="928" d="M80 0l104 764q58 407 86 633h99l-43 -312h94q219 0 339 -89t120 -275q0 -109 -48.5 -200t-150.5 -147.5t-258 -56.5h-201l-43 -317h-98zM233 403h197q164 0 256 85t92 229q0 282 -358 282h-107z" />
<glyph unicode="&#xdf;" horiz-adv-x="973" d="M59 0l140 1012q26 192 126.5 297.5t254.5 105.5q98 0 169.5 -44t108.5 -114.5t37 -152.5q0 -119 -72.5 -206t-193.5 -116q110 -39 170.5 -126t60.5 -203q0 -134 -48 -241.5t-136 -168.5t-201 -61q-69 0 -106 12l10 74q41 -11 88 -11q88 0 157.5 50.5t108.5 137.5t39 195 q0 133 -71.5 214t-202.5 104l10 71q131 0 216 75t85 196q0 102 -64.5 170.5t-166.5 68.5q-121 0 -197 -88t-98 -256l-136 -995h-88z" />
<glyph unicode="&#xe0;" horiz-adv-x="936" d="M74 360q0 166 68.5 298.5t199.5 208t315 75.5q99 0 209 -24l-123 -918h-88l17 127q-137 -143 -299 -143q-135 0 -217 103t-82 273zM164 365q0 -140 62.5 -222t166.5 -82q78 0 155 42t136 116l86 635q-57 10 -119 10q-153 0 -264 -67.5t-167 -181t-56 -250.5zM422 1370 h114l201 -311h-68z" />
<glyph unicode="&#xe1;" horiz-adv-x="936" d="M74 360q0 166 68.5 298.5t199.5 208t315 75.5q99 0 209 -24l-123 -918h-88l17 127q-137 -143 -299 -143q-135 0 -217 103t-82 273zM164 365q0 -140 62.5 -222t166.5 -82q78 0 155 42t136 116l86 635q-57 10 -119 10q-153 0 -264 -67.5t-167 -181t-56 -250.5zM553 1059 l203 311h114l-249 -311h-68z" />
<glyph unicode="&#xe2;" horiz-adv-x="936" d="M74 360q0 166 68.5 298.5t199.5 208t315 75.5q99 0 209 -24l-123 -918h-88l17 127q-137 -143 -299 -143q-135 0 -217 103t-82 273zM164 365q0 -140 62.5 -222t166.5 -82q78 0 155 42t136 116l86 635q-57 10 -119 10q-153 0 -264 -67.5t-167 -181t-56 -250.5zM403 1059 l220 311h108l105 -311h-62l-106 244l-197 -244h-68z" />
<glyph unicode="&#xe3;" horiz-adv-x="936" d="M74 360q0 166 68.5 298.5t199.5 208t315 75.5q99 0 209 -24l-123 -918h-88l17 127q-137 -143 -299 -143q-135 0 -217 103t-82 273zM164 365q0 -140 62.5 -222t166.5 -82q78 0 155 42t136 116l86 635q-57 10 -119 10q-153 0 -264 -67.5t-167 -181t-56 -250.5zM314 1122 q0 86 37.5 137.5t105.5 51.5q31 0 66.5 -15.5t84.5 -46.5q48 -26 78.5 -40.5t57.5 -14.5q34 0 53.5 33t25.5 78h58q-10 -93 -44 -139t-100 -46q-32 0 -68 15.5t-85 46.5q-43 26 -75 40.5t-58 14.5q-33 0 -55.5 -30.5t-24.5 -84.5h-57z" />
<glyph unicode="&#xe4;" horiz-adv-x="936" d="M74 360q0 166 68.5 298.5t199.5 208t315 75.5q99 0 209 -24l-123 -918h-88l17 127q-137 -143 -299 -143q-135 0 -217 103t-82 273zM164 365q0 -140 62.5 -222t166.5 -82q78 0 155 42t136 116l86 635q-57 10 -119 10q-153 0 -264 -67.5t-167 -181t-56 -250.5zM432 1098 l27 180h90l-27 -180h-90zM746 1098l28 180h88l-26 -180h-90z" />
<glyph unicode="&#xe5;" horiz-adv-x="936" d="M74 360q0 166 68.5 298.5t199.5 208t315 75.5q99 0 209 -24l-123 -918h-88l17 127q-137 -143 -299 -143q-135 0 -217 103t-82 273zM164 365q0 -140 62.5 -222t166.5 -82q78 0 155 42t136 116l86 635q-57 10 -119 10q-153 0 -264 -67.5t-167 -181t-56 -250.5zM508 1217 q0 67 46 114t113 47q68 0 116 -47t48 -114q0 -68 -48 -115t-116 -47q-67 0 -113 47t-46 115zM559 1217q0 -46 31.5 -77.5t76.5 -31.5q47 0 79 31.5t32 77.5q0 45 -33 76.5t-78 31.5q-47 0 -77.5 -31.5t-30.5 -76.5z" />
<glyph unicode="&#xe6;" horiz-adv-x="1325" d="M31 168q0 133 143 227t404 123q4 37 8 57q12 78 12 115q0 76 -47 125t-125 49q-135 0 -307 -159l4 96q80 71 155.5 106t159.5 35t143.5 -45t80.5 -127q49 80 122.5 126t165.5 46q137 0 221 -103.5t84 -279.5q0 -45 -4 -78h-592q-20 -123 -20 -172q0 -108 72.5 -182 t185.5 -74q76 0 144.5 25.5t150.5 85.5l-10 -92q-62 -45 -137.5 -70t-153.5 -25q-107 0 -188.5 54.5t-116.5 144.5q-180 -199 -357 -199q-88 0 -143 53.5t-55 137.5zM123 176q0 -53 35 -87t94 -34q67 0 135 37t148 117l34 244q-207 -29 -326.5 -103t-119.5 -174zM670 549 h497v31q0 133 -59 209.5t-166 76.5q-106 0 -179 -84t-93 -233z" />
<glyph unicode="&#xe7;" horiz-adv-x="778" d="M74 393q0 144 65.5 269.5t189.5 202.5t292 77q65 0 155 -20l-12 -80q-92 20 -150 20q-135 0 -237.5 -66.5t-157.5 -176t-55 -232.5q0 -145 77.5 -237.5t219.5 -92.5q129 0 246 74l-13 -94q-119 -60 -252 -60q-116 0 -199 55.5t-126 149.5t-43 211zM211 -369l17 60 q18 -6 57 -6q65 0 102 27.5t37 82.5q0 72 -86 84l51 129h56l-35 -88q49 -12 73.5 -45t24.5 -78q0 -73 -54 -124.5t-165 -51.5q-41 0 -78 10z" />
<glyph unicode="&#xe8;" horiz-adv-x="879" d="M76 416q0 141 54 262t149.5 192.5t212.5 71.5q143 0 230 -104.5t87 -282.5q0 -47 -4 -61h-635q-4 -50 -4 -80q0 -170 80 -265.5t213 -95.5q71 0 140 26.5t146 84.5l-10 -92q-131 -95 -282 -95q-174 0 -275.5 119t-101.5 320zM184 561h537q0 144 -61.5 224.5t-172.5 80.5 q-104 0 -188 -82t-115 -223zM326 1370h114l201 -311h-68z" />
<glyph unicode="&#xe9;" horiz-adv-x="879" d="M76 416q0 141 54 262t149.5 192.5t212.5 71.5q143 0 230 -104.5t87 -282.5q0 -47 -4 -61h-635q-4 -50 -4 -80q0 -170 80 -265.5t213 -95.5q71 0 140 26.5t146 84.5l-10 -92q-131 -95 -282 -95q-174 0 -275.5 119t-101.5 320zM184 561h537q0 144 -61.5 224.5t-172.5 80.5 q-104 0 -188 -82t-115 -223zM426 1059l203 311h114l-249 -311h-68z" />
<glyph unicode="&#xea;" horiz-adv-x="879" d="M76 416q0 141 54 262t149.5 192.5t212.5 71.5q143 0 230 -104.5t87 -282.5q0 -47 -4 -61h-635q-4 -50 -4 -80q0 -170 80 -265.5t213 -95.5q71 0 140 26.5t146 84.5l-10 -92q-131 -95 -282 -95q-174 0 -275.5 119t-101.5 320zM184 561h537q0 144 -61.5 224.5t-172.5 80.5 q-104 0 -188 -82t-115 -223zM288 1059l220 311h108l105 -311h-62l-106 244l-197 -244h-68z" />
<glyph unicode="&#xeb;" horiz-adv-x="879" d="M76 416q0 141 54 262t149.5 192.5t212.5 71.5q143 0 230 -104.5t87 -282.5q0 -47 -4 -61h-635q-4 -50 -4 -80q0 -170 80 -265.5t213 -95.5q71 0 140 26.5t146 84.5l-10 -92q-131 -95 -282 -95q-174 0 -275.5 119t-101.5 320zM184 561h537q0 144 -61.5 224.5t-172.5 80.5 q-104 0 -188 -82t-115 -223zM291 1098l27 180h90l-27 -180h-90zM605 1098l28 180h88l-26 -180h-90z" />
<glyph unicode="&#xec;" horiz-adv-x="356" d="M46 1370h114l201 -311h-68zM66 0l127 920h86l-125 -920h-88z" />
<glyph unicode="&#xed;" horiz-adv-x="356" d="M66 0l127 920h86l-125 -920h-88zM179 1059l203 311h114l-249 -311h-68z" />
<glyph unicode="&#xee;" horiz-adv-x="356" d="M15 1059l220 311h108l105 -311h-62l-106 244l-197 -244h-68zM66 0l127 920h86l-125 -920h-88z" />
<glyph unicode="&#xef;" horiz-adv-x="356" d="M52 1098l27 180h90l-27 -180h-90zM66 0l127 920h86l-125 -920h-88zM366 1098l28 180h88l-26 -180h-90z" />
<glyph unicode="&#xf0;" horiz-adv-x="905" d="M74 362q0 179 57 310t155.5 200.5t221.5 69.5q74 0 129 -37t92 -98q-27 244 -145 401l-209 -118l-31 47l201 114q-47 45 -109 92l39 60q68 -39 139 -111l191 111l29 -49l-183 -103q86 -118 131 -273t45 -390q0 -174 -52 -312.5t-150.5 -218.5t-233.5 -80 q-139 0 -228 103.5t-89 281.5zM164 358q0 -139 67.5 -221t165.5 -82q97 0 173.5 66.5t120.5 184.5t44 265q0 119 -63.5 206t-169.5 87q-103 0 -179.5 -69.5t-117.5 -185t-41 -251.5z" />
<glyph unicode="&#xf1;" horiz-adv-x="924" d="M61 0l125 920h88l-24 -177q178 193 360 193q103 0 160 -65.5t57 -184.5q0 -49 -10 -111l-82 -575h-88l82 575q10 66 10 109q0 88 -40 133t-111 45q-164 0 -350 -213l-91 -649h-86zM287 1122q0 86 37.5 137.5t105.5 51.5q31 0 66.5 -15.5t84.5 -46.5q48 -26 78.5 -40.5 t57.5 -14.5q34 0 53.5 33t25.5 78h58q-10 -93 -44 -139t-100 -46q-32 0 -68 15.5t-85 46.5q-43 26 -75 40.5t-58 14.5q-33 0 -55.5 -30.5t-24.5 -84.5h-57z" />
<glyph unicode="&#xf2;" horiz-adv-x="905" d="M74 362q0 168 53 300.5t151.5 206t229.5 73.5q143 0 230 -107.5t87 -283.5q0 -162 -52 -292t-150.5 -206t-229.5 -76q-149 0 -234 111t-85 274zM164 356q0 -133 64.5 -217t166.5 -84q105 0 182.5 66.5t117.5 180.5t40 253q0 143 -64.5 226t-170.5 83q-109 0 -184.5 -74.5 t-113.5 -191.5t-38 -242zM316 1370h114l201 -311h-68z" />
<glyph unicode="&#xf3;" horiz-adv-x="905" d="M74 362q0 168 53 300.5t151.5 206t229.5 73.5q143 0 230 -107.5t87 -283.5q0 -162 -52 -292t-150.5 -206t-229.5 -76q-149 0 -234 111t-85 274zM164 356q0 -133 64.5 -217t166.5 -84q105 0 182.5 66.5t117.5 180.5t40 253q0 143 -64.5 226t-170.5 83q-109 0 -184.5 -74.5 t-113.5 -191.5t-38 -242zM449 1059l203 311h114l-249 -311h-68z" />
<glyph unicode="&#xf4;" horiz-adv-x="905" d="M74 362q0 168 53 300.5t151.5 206t229.5 73.5q143 0 230 -107.5t87 -283.5q0 -162 -52 -292t-150.5 -206t-229.5 -76q-149 0 -234 111t-85 274zM164 356q0 -133 64.5 -217t166.5 -84q105 0 182.5 66.5t117.5 180.5t40 253q0 143 -64.5 226t-170.5 83q-109 0 -184.5 -74.5 t-113.5 -191.5t-38 -242zM311 1059l220 311h108l105 -311h-62l-106 244l-197 -244h-68z" />
<glyph unicode="&#xf5;" horiz-adv-x="905" d="M74 362q0 168 53 300.5t151.5 206t229.5 73.5q143 0 230 -107.5t87 -283.5q0 -162 -52 -292t-150.5 -206t-229.5 -76q-149 0 -234 111t-85 274zM164 356q0 -133 64.5 -217t166.5 -84q105 0 182.5 66.5t117.5 180.5t40 253q0 143 -64.5 226t-170.5 83q-109 0 -184.5 -74.5 t-113.5 -191.5t-38 -242zM250 1122q0 86 37.5 137.5t105.5 51.5q31 0 66.5 -15.5t84.5 -46.5q48 -26 78.5 -40.5t57.5 -14.5q34 0 53.5 33t25.5 78h58q-10 -93 -44 -139t-100 -46q-32 0 -68 15.5t-85 46.5q-43 26 -75 40.5t-58 14.5q-33 0 -55.5 -30.5t-24.5 -84.5h-57z" />
<glyph unicode="&#xf6;" horiz-adv-x="905" d="M74 362q0 168 53 300.5t151.5 206t229.5 73.5q143 0 230 -107.5t87 -283.5q0 -162 -52 -292t-150.5 -206t-229.5 -76q-149 0 -234 111t-85 274zM164 356q0 -133 64.5 -217t166.5 -84q105 0 182.5 66.5t117.5 180.5t40 253q0 143 -64.5 226t-170.5 83q-109 0 -184.5 -74.5 t-113.5 -191.5t-38 -242zM319 1098l27 180h90l-27 -180h-90zM633 1098l28 180h88l-26 -180h-90z" />
<glyph unicode="&#xf7;" horiz-adv-x="1059" d="M113 670v90h888v-90h-888zM504 246v200h106v-200h-106zM504 983v199h106v-199h-106z" />
<glyph unicode="&#xf8;" horiz-adv-x="905" d="M57 -55l101 145q-41 51 -62.5 122t-21.5 150q0 168 53 300.5t151.5 206t229.5 73.5q115 0 199 -74l86 127l43 -30l-97 -138q86 -102 86 -276q0 -162 -52 -292t-150.5 -206t-229.5 -76q-121 0 -198 72l-95 -137zM164 356q0 -114 57 -188l430 631q-59 65 -151 65 q-109 0 -184.5 -74.5t-113.5 -191.5t-38 -242zM248 117q59 -62 147 -62q105 0 182.5 66.5t117.5 180.5t40 253q0 117 -55 195z" />
<glyph unicode="&#xf9;" horiz-adv-x="924" d="M88 225q0 33 10 99l82 596h88l-82 -601q-8 -59 -8 -88q0 -88 40 -132t112 -44q78 0 163 50.5t185 160.5l88 654h88l-125 -920h-88l23 174q-91 -96 -179 -143t-182 -47q-104 0 -159.5 65.5t-55.5 175.5zM332 1370h114l201 -311h-68z" />
<glyph unicode="&#xfa;" horiz-adv-x="924" d="M88 225q0 33 10 99l82 596h88l-82 -601q-8 -59 -8 -88q0 -88 40 -132t112 -44q78 0 163 50.5t185 160.5l88 654h88l-125 -920h-88l23 174q-91 -96 -179 -143t-182 -47q-104 0 -159.5 65.5t-55.5 175.5zM459 1059l203 311h114l-249 -311h-68z" />
<glyph unicode="&#xfb;" horiz-adv-x="924" d="M88 225q0 33 10 99l82 596h88l-82 -601q-8 -59 -8 -88q0 -88 40 -132t112 -44q78 0 163 50.5t185 160.5l88 654h88l-125 -920h-88l23 174q-91 -96 -179 -143t-182 -47q-104 0 -159.5 65.5t-55.5 175.5zM325 1059l220 311h108l105 -311h-62l-106 244l-197 -244h-68z" />
<glyph unicode="&#xfc;" horiz-adv-x="924" d="M88 225q0 33 10 99l82 596h88l-82 -601q-8 -59 -8 -88q0 -88 40 -132t112 -44q78 0 163 50.5t185 160.5l88 654h88l-125 -920h-88l23 174q-91 -96 -179 -143t-182 -47q-104 0 -159.5 65.5t-55.5 175.5zM352 1098l27 180h90l-27 -180h-90zM666 1098l28 180h88l-26 -180 h-90z" />
<glyph unicode="&#xfd;" horiz-adv-x="733" d="M-12 -471l243 483l-172 908h91l143 -781l391 781h92l-692 -1391h-96zM369 1059l203 311h114l-249 -311h-68z" />
<glyph unicode="&#xfe;" horiz-adv-x="963" d="M33 -453l254 1850h88l-70 -520q105 65 227 65q103 0 183 -50t125 -145.5t45 -224.5q0 -162 -66.5 -283.5t-193.5 -190t-308 -68.5q-59 0 -135 10l-59 -443h-90zM193 63q71 -10 112 -10q236 0 363 130t127 339q0 166 -82 257t-219 91q-48 0 -102 -18t-97 -53z" />
<glyph unicode="&#xff;" horiz-adv-x="733" d="M-12 -471l243 483l-172 908h91l143 -781l391 781h92l-692 -1391h-96zM235 1098l27 180h90l-27 -180h-90zM549 1098l28 180h88l-26 -180h-90z" />
<glyph unicode="&#x152;" horiz-adv-x="1933" d="M111 602q0 217 93 397.5t278.5 288t449.5 107.5l938 2l-12 -88h-572l-74 -551h529l-15 -86h-526l-80 -584h764l-12 -88h-1131q-206 0 -348.5 79t-212 215t-69.5 308zM215 604q0 -248 142.5 -382t387.5 -134h275l168 1221h-262q-252 0 -411 -107.5t-229.5 -268.5 t-70.5 -329z" />
<glyph unicode="&#x153;" horiz-adv-x="1454" d="M74 356q0 172 56 305.5t153.5 207t214.5 73.5q100 0 171.5 -65.5t88.5 -176.5q53 115 138 178.5t185 63.5q136 0 218.5 -98.5t82.5 -290.5l-2 -59h-602q-8 -56 -8 -132q0 -163 76 -236t184 -73q146 0 291 117l-8 -96q-133 -97 -289 -97q-119 0 -201 68t-116 195 q-64 -131 -145 -197t-189 -66q-133 0 -216 103.5t-83 275.5zM164 365q0 -142 60.5 -226t158.5 -84q90 0 160.5 73t108.5 194.5t38 267.5q0 129 -54 201.5t-147 72.5q-94 0 -168.5 -71.5t-115.5 -187.5t-41 -240zM788 561h506q0 152 -57 228.5t-162 76.5q-100 0 -183 -86 t-104 -219z" />
<glyph unicode="&#x178;" horiz-adv-x="911" d="M123 1397h100l287 -588l424 588h110l-493 -680l-98 -717h-97l101 717zM401 1518l29 172h86l-29 -172h-86zM714 1518l29 172h86l-29 -172h-86z" />
<glyph unicode="&#x2c6;" horiz-adv-x="682" d="M190 1059l220 311h108l105 -311h-62l-106 244l-197 -244h-68z" />
<glyph unicode="&#x2dc;" horiz-adv-x="682" d="M150 1122q0 86 37.5 137.5t105.5 51.5q31 0 66.5 -15.5t84.5 -46.5q48 -26 78.5 -40.5t57.5 -14.5q34 0 53.5 33t25.5 78h58q-10 -93 -44 -139t-100 -46q-32 0 -68 15.5t-85 46.5q-43 26 -75 40.5t-58 14.5q-33 0 -55.5 -30.5t-24.5 -84.5h-57z" />
<glyph unicode="&#x2000;" horiz-adv-x="888" />
<glyph unicode="&#x2001;" horiz-adv-x="1776" />
<glyph unicode="&#x2002;" horiz-adv-x="888" />
<glyph unicode="&#x2003;" horiz-adv-x="1776" />
<glyph unicode="&#x2004;" horiz-adv-x="592" />
<glyph unicode="&#x2005;" horiz-adv-x="444" />
<glyph unicode="&#x2006;" horiz-adv-x="296" />
<glyph unicode="&#x2007;" horiz-adv-x="296" />
<glyph unicode="&#x2008;" horiz-adv-x="222" />
<glyph unicode="&#x2009;" horiz-adv-x="355" />
<glyph unicode="&#x200a;" horiz-adv-x="98" />
<glyph unicode="&#x2010;" horiz-adv-x="539" d="M31 408l12 86h461l-15 -86h-458z" />
<glyph unicode="&#x2011;" horiz-adv-x="539" d="M31 408l12 86h461l-15 -86h-458z" />
<glyph unicode="&#x2012;" horiz-adv-x="539" d="M31 408l12 86h461l-15 -86h-458z" />
<glyph unicode="&#x2013;" horiz-adv-x="1024" d="M-27 457l11 69h1054l-10 -69h-1055z" />
<glyph unicode="&#x2014;" horiz-adv-x="2048" d="M-27 455l11 71h2078l-10 -71h-2079z" />
<glyph unicode="&#x2018;" horiz-adv-x="365" d="M176 989l19 141q32 230 176 275l-6 -53q-78 -45 -97 -197h47l-22 -166h-117z" />
<glyph unicode="&#x2019;" horiz-adv-x="365" d="M158 983l6 51q78 45 96 197h-47l23 166h116l-18 -140q-33 -231 -176 -274z" />
<glyph unicode="&#x201a;" horiz-adv-x="365" d="M-4 -250l8 53q41 25 63.5 72t32.5 125h-47l21 166h116l-18 -141q-29 -230 -176 -275z" />
<glyph unicode="&#x201c;" horiz-adv-x="692" d="M176 989l19 141q32 230 176 275l-6 -53q-78 -45 -97 -197h47l-22 -166h-117zM504 989l18 141q29 230 174 275l-6 -53q-78 -45 -96 -197h47l-23 -166h-114z" />
<glyph unicode="&#x201d;" horiz-adv-x="692" d="M158 983l6 51q78 45 96 197h-47l23 166h116l-18 -140q-33 -231 -176 -274zM483 983l9 51q38 25 60.5 73t35.5 124h-47l22 166h115l-19 -140q-28 -231 -176 -274z" />
<glyph unicode="&#x201e;" horiz-adv-x="692" d="M-4 -250l8 53q41 25 63.5 72t32.5 125h-47l21 166h116l-18 -141q-29 -230 -176 -275zM324 -250l6 53q78 45 96 197h-47l22 166h115l-18 -141q-29 -230 -174 -275z" />
<glyph unicode="&#x2022;" horiz-adv-x="801" d="M221 698q0 82 58.5 141.5t142.5 59.5t143.5 -58.5t59.5 -142.5t-59.5 -142t-143.5 -58t-142.5 58t-58.5 142z" />
<glyph unicode="&#x2026;" horiz-adv-x="2048" d="M205 0l22 166h121l-20 -166h-123zM887 0l22 166h121l-20 -166h-123zM1569 0l22 166h121l-20 -166h-123z" />
<glyph unicode="&#x202f;" horiz-adv-x="355" />
<glyph unicode="&#x2039;" horiz-adv-x="469" d="M45 465l330 463h88l-332 -469l191 -451h-84z" />
<glyph unicode="&#x203a;" horiz-adv-x="469" d="M-8 8l332 471l-191 449h84l193 -455l-330 -465h-88z" />
<glyph unicode="&#x205f;" horiz-adv-x="444" />
<glyph unicode="&#x20ac;" d="M61 535l17 79h110q7 95 25 170h-143l14 80h152q51 166 149 290t231.5 192.5t284.5 68.5q109 0 189 -22l-19 -93q-84 25 -172 25q-186 0 -337.5 -123t-223.5 -338h612l-28 -80h-609q-8 -30 -15 -80.5t-9 -89.5h590l-29 -79h-561q4 -209 94 -336t233 -127q164 0 338 118 l-14 -110q-168 -98 -336 -98q-115 0 -208 68.5t-148 193.5t-60 291h-127z" />
<glyph unicode="&#x2122;" horiz-adv-x="1720" d="M129 1327v70h627v-70h-275v-719h-75v719h-277zM897 608v789h100l269 -692l266 692h98v-789h-69v688l-263 -688h-65l-266 692v-692h-70z" />
<glyph unicode="&#x25fc;" horiz-adv-x="920" d="M0 0v920h920v-920h-920z" />
</font>
</defs>
</svg>
