<svg xmlns="http://www.w3.org/2000/svg" width="180" height="125" viewBox="0 0 180 125"><g fill="none"><path fill="#84BF41" d="M51.895 14C45.031 6.113 15.095.556 15.095.556s.746 16.753 3.94 28.618c3.632-1.23 7.037-1.981 9.352-1.612 7.754 1.223 13.033 8.495 11.811 16.24-.076.487-.177.963-.3 1.426a18.814 18.814 0 0 0 10.128-4.51c7.887-6.856 8.72-18.81 1.87-26.716"/><path fill="#00A79F" d="M23.314 38.854c-1.77-2.033-3.17-5.564-4.279-9.681C10.53 32.05.766 37.56.766 37.56s8.826 9.615 16.481 14.836c1.217-1.912 2.491-3.5 3.703-4.229a9.468 9.468 0 0 1 12.995 3.24c.3.496.538 1.012.736 1.535a14.167 14.167 0 0 0 5.218-7.716c-6.028.731-12.3-1.444-16.585-6.373"/><path fill="#009D49" d="M28.388 27.56c-2.317-.367-5.721.383-9.354 1.612 1.109 4.117 2.51 7.649 4.28 9.682 4.286 4.928 10.557 7.105 16.584 6.374.122-.465.223-.94.3-1.425 1.222-7.748-4.058-15.02-11.81-16.243"/><path fill="#677D6C" d="M23.955 55.611c-1.89-.3-4.238-1.53-6.707-3.214-3.274 5.146-6.12 12.712-6.12 12.712s15.093 1.978 19.578-.717c3.987-2.39 5.566-7.252 3.976-11.45a14.146 14.146 0 0 1-10.727 2.67"/><path fill="#00604F" d="M20.95 48.168c-1.211.73-2.486 2.318-3.702 4.228 2.469 1.686 4.817 2.916 6.707 3.215a14.14 14.14 0 0 0 10.727-2.669 9.412 9.412 0 0 0-.737-1.535 9.468 9.468 0 0 0-12.994-3.24"/><path fill="#55666D" d="M44.321 53.18h34.567v8.986H54.337v9.313h21.606v8.989H54.337v9.641h24.88v8.986H44.321zM84.448 76.268v-.13c0-13.054 10.15-23.746 24.026-23.746 8.252 0 13.227 2.23 18.007 6.297l-6.352 7.674c-3.535-2.95-6.676-4.657-11.978-4.657-7.333 0-13.161 6.494-13.161 14.301v.13c0 8.396 5.762 14.562 13.88 14.562 3.663 0 6.938-.919 9.49-2.753v-6.562h-10.145v-8.723h19.901V92.6c-4.713 4.001-11.194 7.281-19.574 7.281-14.271 0-24.094-10.036-24.094-23.614M136.097 53.18h10.085v20.071l18.589-20.071h12.179l-18.66 19.481 19.51 26.434h-12.111l-14.205-19.547-5.302 5.511v14.036h-10.085z"/><g fill="#55666D"><path d="M44.282 118.169v-.028c0-2.934 2.284-5.334 5.406-5.334 1.857 0 2.976.5 4.051 1.414l-1.43 1.724c-.795-.664-1.502-1.046-2.695-1.046-1.648 0-2.96 1.458-2.96 3.212v.03c0 1.885 1.297 3.27 3.124 3.27.824 0 1.56-.208 2.134-.62v-1.473H49.63v-1.96h4.48v4.479c-1.062.898-2.52 1.634-4.405 1.634-3.212 0-5.422-2.254-5.422-5.302zm16.955.56c-.133-1.002-.722-1.678-1.665-1.678-.926 0-1.53.66-1.708 1.678h3.373zm-5.567.663v-.03c0-2.253 1.605-4.11 3.902-4.11 2.637 0 3.845 2.048 3.845 4.288 0 .176-.014.381-.03.589h-5.493c.221 1.015.927 1.546 1.929 1.546.752 0 1.296-.237 1.915-.812l1.282 1.135c-.738.914-1.799 1.472-3.227 1.472-2.372 0-4.123-1.663-4.123-4.078zm8.794 2.858l.956-1.473c.855.617 1.754.942 2.489.942.648 0 .943-.235.943-.59v-.03c0-.485-.764-.648-1.634-.914-1.105-.323-2.357-.838-2.357-2.37v-.03c0-1.604 1.296-2.505 2.888-2.505 1 0 2.09.341 2.946.914l-.855 1.548c-.78-.457-1.56-.737-2.137-.737-.544 0-.824.236-.824.545v.03c0 .443.75.647 1.606.943 1.105.368 2.386.898 2.386 2.34v.032c0 1.752-1.31 2.547-3.02 2.547a5.532 5.532 0 0 1-3.387-1.192zm7.953-1.739v-5.112h2.24v4.406c0 1.06.5 1.604 1.355 1.604.854 0 1.4-.545 1.4-1.604v-4.406h2.237v7.897h-2.237v-1.12c-.516.663-1.179 1.265-2.314 1.265-1.693 0-2.68-1.119-2.68-2.93zm9.236-5.112h2.24v1.12c.515-.663 1.179-1.267 2.312-1.267 1.693 0 2.68 1.12 2.68 2.932v5.11h-2.238v-4.402c0-1.061-.502-1.608-1.356-1.608-.854 0-1.398.547-1.398 1.608v4.402h-2.24V115.4zm14.907 3.963v-.029c0-1.31-.868-2.18-1.915-2.18-1.046 0-1.93.854-1.93 2.18v.029c0 1.312.884 2.18 1.93 2.18 1.047 0 1.915-.868 1.915-2.18zm-6.083 0v-.029c0-2.637 1.724-4.08 3.595-4.08 1.193 0 1.929.544 2.458 1.178v-3.89h2.24v10.754h-2.24v-1.135c-.543.738-1.295 1.283-2.458 1.283-1.843 0-3.595-1.444-3.595-4.081zM104.484 115.4h2.372l1.767 5.286 1.782-5.286h2.327l-3.108 7.953h-2.032zM118.773 118.729c-.133-1.002-.722-1.678-1.663-1.678-.928 0-1.532.66-1.71 1.678h3.373zm-5.567.663v-.03c0-2.253 1.606-4.11 3.904-4.11 2.635 0 3.844 2.048 3.844 4.288 0 .176-.015.381-.03.589h-5.494c.221 1.015.928 1.546 1.93 1.546.75 0 1.296-.237 1.914-.812l1.282 1.135c-.737.914-1.798 1.472-3.227 1.472-2.371 0-4.123-1.663-4.123-4.078zm9.412-3.993h2.24v1.592c.456-1.091 1.193-1.797 2.517-1.74v2.343h-.117c-1.487 0-2.4.899-2.4 2.784v2.916h-2.24V115.4zm5.54 6.85l.955-1.472c.856.617 1.754.942 2.49.942.648 0 .943-.235.943-.59v-.03c0-.485-.764-.648-1.634-.914-1.105-.323-2.357-.838-2.357-2.37v-.03c0-1.604 1.296-2.505 2.888-2.505 1 0 2.09.341 2.946.914l-.856 1.548c-.78-.457-1.56-.737-2.136-.737-.545 0-.824.236-.824.545v.03c0 .443.75.647 1.604.943 1.107.368 2.388.898 2.388 2.34v.032c0 1.752-1.311 2.547-3.02 2.547a5.532 5.532 0 0 1-3.388-1.192zm8.115 1.046h2.239V115.4h-2.239v7.895zm-.06-8.765h2.358v-1.988h-2.357v1.988zm4.023 4.862v-.03c0-2.254 1.724-4.11 4.14-4.11 1.486 0 2.415.502 3.151 1.326l-1.37 1.474c-.5-.531-1.002-.87-1.797-.87-1.12 0-1.915.987-1.915 2.15v.03c0 1.207.78 2.179 2.004 2.179.75 0 1.265-.324 1.811-.838l1.311 1.326c-.766.838-1.65 1.442-3.226 1.442-2.373 0-4.109-1.825-4.109-4.079zm8.792-6.85h2.24v3.977c.515-.663 1.179-1.268 2.312-1.268 1.695 0 2.681 1.12 2.681 2.934v5.11h-2.238v-4.404c0-1.06-.502-1.607-1.356-1.607-.854 0-1.399.546-1.399 1.607v4.405h-2.24v-10.754zm14.363 6.187c-.134-1.002-.722-1.678-1.664-1.678-.928 0-1.532.66-1.71 1.678h3.374zm-5.566.663v-.03c0-2.253 1.604-4.11 3.902-4.11 2.637 0 3.844 2.048 3.844 4.288 0 .176-.014.381-.028.589h-5.494c.22 1.015.926 1.546 1.927 1.546.754 0 1.297-.237 1.917-.812l1.28 1.135c-.737.914-1.797 1.472-3.225 1.472-2.372 0-4.123-1.663-4.123-4.078zm9.411-3.993h2.238v1.592c.457-1.091 1.193-1.797 2.52-1.74v2.343h-.118c-1.488 0-2.402.899-2.402 2.784v2.916h-2.238V115.4zm6.526 5.656v-3.74h-.943V115.4h.943v-2.019h2.239v2.019h1.855v1.915h-1.855v3.373c0 .515.22.766.722.766.411 0 .78-.102 1.105-.28v1.798c-.473.278-1.017.455-1.768.455-1.37 0-2.298-.545-2.298-2.372z"/></g></g></svg>