<svg width="54" height="54" viewBox="0 0 14.287 14.287" xml:space="preserve" xmlns:xlink="http://www.w3.org/1999/xlink" xmlns="http://www.w3.org/2000/svg"><defs><radialGradient xlink:href="#a" id="j" cx="-9.808" cy="87.923" fx="-9.808" fy="87.923" r="7.925" gradientUnits="userSpaceOnUse" gradientTransform="translate(15.985 8.884) scale(.90146)"/><radialGradient xlink:href="#b" id="l" gradientUnits="userSpaceOnUse" gradientTransform="translate(22.63 4.723) scale(.86923)" cx="-9.808" cy="87.923" fx="-9.808" fy="87.923" r="7.925"/><radialGradient xlink:href="#c" id="o" gradientUnits="userSpaceOnUse" gradientTransform="matrix(.13293 0 0 .13293 3.929 80.972)" cx="-9.808" cy="87.923" fx="-9.808" fy="87.923" r="7.925"/><radialGradient xlink:href="#d" id="m" gradientUnits="userSpaceOnUse" gradientTransform="translate(22.63 18.574) scale(.86923)" cx="-9.808" cy="87.923" fx="-9.808" fy="87.923" r="7.925"/><radialGradient xlink:href="#e" id="n" gradientUnits="userSpaceOnUse" gradientTransform="translate(8.737 18.574) scale(.86923)" cx="-9.808" cy="87.923" fx="-9.808" fy="87.923" r="7.925"/><radialGradient xlink:href="#f" id="k" gradientUnits="userSpaceOnUse" gradientTransform="translate(8.652 4.638) scale(.86923)" cx="-9.808" cy="87.923" fx="-9.808" fy="87.923" r="7.925"/><radialGradient xlink:href="#g" id="p" gradientUnits="userSpaceOnUse" gradientTransform="matrix(.13293 0 0 .13293 12.818 80.882)" cx="-9.808" cy="87.923" fx="-9.808" fy="87.923" r="7.925"/><radialGradient xlink:href="#h" id="q" gradientUnits="userSpaceOnUse" gradientTransform="matrix(.13293 0 0 .13293 3.929 71.992)" cx="-9.808" cy="87.923" fx="-9.808" fy="87.923" r="7.925"/><radialGradient xlink:href="#i" id="r" gradientUnits="userSpaceOnUse" gradientTransform="matrix(.13293 0 0 .13293 12.879 72.022)" cx="-9.808" cy="87.923" fx="-9.808" fy="87.923" r="7.925"/><linearGradient id="f"><stop style="stop-color:#f07864;stop-opacity:1" offset="0"/><stop style="stop-color:#f07864;stop-opacity:1" offset=".204"/><stop style="stop-color:#00503c;stop-opacity:1" offset=".653"/><stop style="stop-color:#00503c;stop-opacity:0" offset="1"/></linearGradient><linearGradient id="e"><stop style="stop-color:#f07864;stop-opacity:1" offset="0"/><stop style="stop-color:#f07864;stop-opacity:1" offset=".204"/><stop style="stop-color:#00503c;stop-opacity:1" offset=".653"/><stop style="stop-color:#00503c;stop-opacity:0" offset="1"/></linearGradient><linearGradient id="b"><stop style="stop-color:#f07864;stop-opacity:1" offset="0"/><stop style="stop-color:#f07864;stop-opacity:1" offset=".204"/><stop style="stop-color:#00503c;stop-opacity:1" offset=".653"/><stop style="stop-color:#00503c;stop-opacity:0" offset="1"/></linearGradient><linearGradient id="i"><stop style="stop-color:#00b4a0;stop-opacity:1" offset="0"/><stop style="stop-color:#00b4a0;stop-opacity:1" offset=".189"/><stop style="stop-color:#00503c;stop-opacity:0" offset="1"/></linearGradient><linearGradient id="c"><stop style="stop-color:#00b4a0;stop-opacity:1" offset="0"/><stop style="stop-color:#00b4a0;stop-opacity:1" offset=".168"/><stop style="stop-color:#00503c;stop-opacity:0" offset="1"/></linearGradient><linearGradient id="g"><stop style="stop-color:#00b4a0;stop-opacity:1" offset="0"/><stop style="stop-color:#00b4a0;stop-opacity:1" offset=".166"/><stop style="stop-color:#00503c;stop-opacity:0" offset="1"/></linearGradient><linearGradient id="h"><stop style="stop-color:#00b4a0;stop-opacity:1" offset="0"/><stop style="stop-color:#00b4a0;stop-opacity:1" offset=".207"/><stop style="stop-color:#00503c;stop-opacity:0" offset="1"/></linearGradient><linearGradient id="d"><stop style="stop-color:#f07864;stop-opacity:1" offset="0"/><stop style="stop-color:#f07864;stop-opacity:1" offset=".204"/><stop style="stop-color:#00503c;stop-opacity:1" offset=".653"/><stop style="stop-color:#00503c;stop-opacity:0" offset="1"/></linearGradient><linearGradient id="a"><stop style="stop-color:#f07864;stop-opacity:1" offset="0"/><stop style="stop-color:#f07864;stop-opacity:1" offset=".253"/><stop style="stop-color:#956854;stop-opacity:1" offset=".382"/><stop style="stop-color:#00503c;stop-opacity:1" offset=".648"/><stop style="stop-color:#00503c;stop-opacity:1" offset="1"/></linearGradient><pattern patternUnits="userSpaceOnUse" width="104.902" height="104.741" patternTransform="translate(-25.556 -25.795)" id="s"><path style="fill:url(#j);fill-opacity:1;stroke-width:.264584;paint-order:markers stroke fill" d="M0 81h14.287v14.287H0z" transform="matrix(3.77953 0 0 3.77953 25.556 -280.347)"/><path style="fill:url(#k);fill-opacity:1;stroke-width:.264583;paint-order:markers stroke fill" d="M-6.762 74.175H7.015v13.777H-6.762z" transform="matrix(3.77953 0 0 3.77953 25.556 -280.347)"/><path style="fill:url(#l);fill-opacity:1;stroke-width:.264583;paint-order:markers stroke fill" d="M7.217 74.26h13.777v13.777H7.217z" transform="matrix(3.77953 0 0 3.77953 25.556 -280.347)"/><path style="fill:url(#m);fill-opacity:1;stroke-width:.264583;paint-order:markers stroke fill" d="M7.217 88.111h13.777v13.777H7.217z" transform="matrix(3.77953 0 0 3.77953 25.556 -280.347)"/><path style="fill:url(#n);fill-opacity:1;stroke-width:.264583;paint-order:markers stroke fill" d="M-6.677 88.111H7.1v13.777H-6.677z" transform="matrix(3.77953 0 0 3.77953 25.556 -280.347)"/><path style="opacity:1;fill:url(#o);fill-opacity:1;stroke-width:.264583;paint-order:markers stroke fill" d="M1.571 91.607h2.107v2.107H1.571z" transform="matrix(3.77953 0 0 3.77953 25.556 -280.347)"/><path style="opacity:1;fill:url(#p);fill-opacity:1;stroke-width:.264583;paint-order:markers stroke fill" d="M10.461 91.516h2.107v2.107h-2.107z" transform="matrix(3.77953 0 0 3.77953 25.556 -280.347)"/><path style="opacity:1;fill:url(#q);fill-opacity:1;stroke-width:.264583;paint-order:markers stroke fill" d="M1.571 82.626h2.107v2.107H1.571z" transform="matrix(3.77953 0 0 3.77953 25.556 -280.347)"/><path style="opacity:1;fill:url(#r);fill-opacity:1;stroke-width:.264583;paint-order:markers stroke fill" d="M10.522 82.656h2.107v2.107h-2.107z" transform="matrix(3.77953 0 0 3.77953 25.556 -280.347)"/></pattern></defs><path style="fill:none;stroke-width:.264583" d="M-106.582 112.092h384.036v216.02h-384.036z" transform="translate(0 -81)"/><path style="fill:none;stroke-width:.264583" d="M-17.95 83.037h198.027v111.39H-17.95z" transform="translate(0 -81)"/><path style="fill:url(#s)" d="M3.137.02c-.226 0-.506.236-1.694 1.423C.256 2.631.02 2.911.02 3.137v.271l.222-.277c.324-.405.373-.246.131.43-.195.545-.21.727-.193 2.355.021 2.11.152 3.946.343 4.832.078.356.209 1.046.293 1.531.187 1.07.75 2.93 1.256 4.157.206.497.493 1.218.639 1.601.146.383.349.883.451 1.11l.186.41-.356.404c-1.077 1.224-1.86 3.32-1.86 4.982 0 .511.055.704.368 1.327l.365.728-.365.732c-.312.625-.367.82-.367 1.329 0 1.662.782 3.756 1.86 4.98l.355.404-.186.41a25.07 25.07 0 0 0-.451 1.11 76.398 76.398 0 0 1-.639 1.601c-.506 1.227-1.069 3.087-1.256 4.157a48.377 48.377 0 0 1-.293 1.531c-.191.886-.322 2.722-.343 4.832-.017 1.628-.002 1.81.193 2.355.242.676.193.835-.13.43l-.223-.277v.271c0 .226.236.506 1.423 1.694 1.188 1.187 1.468 1.424 1.694 1.423h.271l-.28-.222c-.404-.324-.243-.373.433-.131.545.195.727.21 2.355.193 2.11-.021 3.946-.152 4.832-.343a48.49 48.49 0 0 1 1.531-.293c1.07-.187 2.93-.75 4.157-1.256a76.13 76.13 0 0 1 1.601-.639c.383-.146.883-.349 1.11-.451l.41-.186.404.356c1.224 1.077 3.32 1.86 4.982 1.86.511 0 .704-.055 1.327-.368l.728-.365.732.365c.625.312.82.367 1.329.367 1.662 0 3.756-.782 4.98-1.86l.404-.355.41.186c.227.102.727.305 1.11.451.383.146 1.104.433 1.601.639 1.227.506 3.087 1.069 4.157 1.256.485.084 1.175.215 1.531.293.886.191 2.722.322 4.832.343 1.628.017 1.81.002 2.355-.193.676-.242.835-.193.43.13l-.277.223h.271c.226 0 .506-.236 1.694-1.423 1.187-1.188 1.424-1.468 1.423-1.694v-.271l-.222.277c-.324.405-.373.246-.131-.43.195-.545.21-.727.193-2.355-.021-2.11-.152-3.946-.343-4.832a48.6 48.6 0 0 1-.293-1.531c-.187-1.07-.75-2.93-1.256-4.157a76.169 76.169 0 0 1-.639-1.601 25.144 25.144 0 0 0-.451-1.11l-.186-.41.356-.404c1.07-1.216 1.86-3.33 1.86-4.982 0-.511-.055-.704-.368-1.327l-.365-.728.365-.732c.312-.625.367-.82.367-1.329 0-1.651-.789-3.764-1.86-4.98l-.355-.404.186-.41c.102-.227.305-.727.451-1.11a76.39 76.39 0 0 1 .639-1.601c.506-1.227 1.069-3.087 1.256-4.157a48.27 48.27 0 0 1 .293-1.531c.191-.886.322-2.722.343-4.832.017-1.628.002-1.81-.193-2.355-.242-.676-.193-.835.13-.43l.223.277v-.271c0-.226-.236-.506-1.423-1.694C51.369.256 51.089.02 50.863.02h-.271l.277.222c.405.324.246.373-.43.131-.545-.195-.727-.21-2.355-.193-2.11.021-3.946.152-4.832.343a48.38 48.38 0 0 1-1.531.293c-1.07.187-2.93.75-4.157 1.256a76.13 76.13 0 0 1-1.601.639 25.14 25.14 0 0 0-1.11.451l-.41.186-.404-.356c-1.224-1.077-3.318-1.86-4.98-1.86-.51 0-.704.056-1.329.368l-.732.365-.728-.365c-.623-.313-.816-.367-1.327-.367-1.663 0-3.758.782-4.982 1.86l-.404.355-.41-.186a25.121 25.121 0 0 0-1.11-.451 76.401 76.401 0 0 1-1.601-.639c-1.227-.506-3.087-1.069-4.157-1.256a48.377 48.377 0 0 1-1.531-.293C9.862.332 8.026.201 5.916.18 4.288.163 4.106.178 3.561.373c-.676.242-.835.193-.43-.13L3.408.02h-.271zM4.71 1.744c.776-.01 3.459.129 4.178.227a24.75 24.75 0 0 1 1.533.271c.434.094 1.18.241 1.658.326 1.392.248 2.236.56 4.268 1.592 1.05.533 1.92.982 1.935.996.015.015-.073.276-.195.58-.258.642-.547.867-1.693 1.319-.643.253-2.673.719-4.795 1.101-.4.072-.931.235-1.182.362-.25.127-.468.232-.482.232-.015 0-.19-.263-.387-.582-1.072-1.727-3.14-4.356-4.486-5.703-.369-.369-.618-.685-.557-.707.022-.008.094-.013.205-.014zm44.578 0c.11.001.183.006.205.014.06.022-.188.338-.556.707-1.347 1.347-3.415 3.976-4.487 5.703-.198.32-.382.578-.408.576a4.684 4.684 0 0 1-.48-.23c-.24-.125-.763-.286-1.163-.358-2.122-.382-4.152-.848-4.795-1.101-1.146-.452-1.435-.677-1.693-1.319-.122-.303-.21-.565-.195-.58.015-.014.886-.463 1.935-.996 2.032-1.031 2.876-1.344 4.268-1.592a56.444 56.444 0 0 0 1.658-.326 24.753 24.753 0 0 1 1.533-.271c.72-.098 3.402-.236 4.178-.227zm-45.879.11.65.685c.358.377 1.006 1.167 1.444 1.754C6.257 5.303 8.1 7.977 8.1 8.061c0 .098-.227-.04-1.46-.885C4.694 5.84 3.31 4.792 2.54 4.06l-.686-.65.048-.593c.028-.345.105-.649.186-.73.081-.081.385-.158.73-.186l.592-.048zm47.18 0 .592.048c.345.028.649.105.73.186.081.081.158.385.186.73l.048.592-.685.65c-.798.755-2.27 1.868-4.15 3.14-1.288.87-1.41.944-1.41.86 0-.083 1.842-2.757 2.595-3.767.438-.587 1.086-1.377 1.443-1.754l.65-.685zM29.77 2.84c.626.01 1.324.173 2.012.482.76.341.82.433.524.785-.696.827-1.921 3.177-2.616 5.014-.144.383-.293.73-.328.772-.07.082-.526-1.512-.828-2.885-.234-1.065-.467-2.7-.467-3.274 0-.419.012-.437.418-.64.357-.178.8-.263 1.285-.254zm-5.535.004c.49-.007.935.079 1.297.26.384.191.399.215.399.63 0 .664-.255 2.331-.56 3.668-.4 1.746-.695 2.649-.788 2.414l-.422-1.066c-.702-1.78-1.805-3.854-2.473-4.646-.292-.348-.23-.442.528-.782.688-.309 1.39-.47 2.02-.478zM1.78 4.498c.081.012.364.242.688.565C3.79 6.383 5.785 7.976 7.635 9.19c.587.387 1.082.713 1.097.725.017.012-.078.233-.209.49-.13.258-.295.795-.367 1.194-.413 2.29-.845 4.146-1.13 4.851-.467 1.152-.67 1.414-1.26 1.631-.276.101-.525.196-.555.211-.03.015-.52-.903-1.09-2.041-1.052-2.104-1.37-2.969-1.592-4.346-.062-.383-.19-1.05-.285-1.484a24.12 24.12 0 0 1-.271-1.533c-.112-.822-.279-4.21-.215-4.383.003-.008.01-.01.021-.008zm50.442 0c.011-.002.018 0 .021.008.064.174-.1 3.561-.213 4.383-.055.408-.179 1.099-.273 1.533a34.269 34.269 0 0 0-.285 1.484c-.223 1.377-.54 2.243-1.59 4.344-.569 1.137-1.059 2.06-1.09 2.055a8.454 8.454 0 0 1-.568-.223c-.595-.249-.836-.567-1.278-1.687-.253-.643-.719-2.673-1.101-4.795-.072-.4-.237-.936-.367-1.194-.13-.257-.225-.478-.21-.49.017-.012.51-.338 1.098-.725 1.85-1.215 3.844-2.808 5.168-4.128.324-.323.607-.553.688-.565zm-31.395.727c.027-.003.182.235.348.529.165.294.528.925.806 1.404.889 1.53 2.283 5.073 2.07 5.262-.063.057-.45.38-.859.715-.408.335-1.035.955-1.392 1.379l-1.291 1.52c-.352.411-.7.843-.776.958-.075.115-.168.21-.205.21-.088 0-.687-1.31-.873-1.905-.46-1.484-.624-3.745-.386-5.387.192-1.327.565-2.867.707-2.914.306-.103 1.283-.955 1.523-1.33.153-.24.302-.439.328-.441zm12.348 0c.026.002.175.201.328.441.24.375 1.217 1.227 1.523 1.33.142.047.515 1.587.707 2.914.183 1.262.15 2.683-.095 4.086-.182 1.04-.345 1.568-.766 2.484-.182.396-.361.721-.398.721-.037 0-.13-.094-.205-.209a16.897 16.897 0 0 0-.776-.959c-.352-.412-.933-1.096-1.29-1.52a12.968 12.968 0 0 0-1.393-1.378 59.842 59.842 0 0 1-.86-.715c-.214-.19 1.17-3.713 2.067-5.256.28-.482.645-1.116.81-1.41.166-.294.321-.532.348-.53zm-6.172 1.779c.044-.01.091.158.365 1.187.13.486.336 1.222.461 1.637.125.415.256.908.291 1.094.062.327.056.336-.16.254-.15-.058-.343-.044-.592.043-.202.07-.388.124-.414.119a7.22 7.22 0 0 1-.371-.127c-.213-.077-.4-.088-.545-.033-.212.08-.217.07-.156-.256.035-.186.17-.698.303-1.139.131-.44.355-1.232.496-1.76.14-.527.277-.98.302-1.005a.047.047 0 0 1 .02-.014zM17.272 8.1c.044 0 .008.449-.083.998-.183 1.11-.228 3.48-.084 4.478.048.33.078.608.067.62-.011.01-.652-.635-1.424-1.436-1.139-1.183-1.564-1.556-2.258-1.985l-.853-.527.709-.328c.39-.18 1.143-.502 1.675-.713.533-.211 1.238-.547 1.569-.746.33-.2.637-.361.681-.361zm19.455 0c.044 0 .353.162.683.36.33.2 1.036.536 1.569.747.532.211 1.285.533 1.675.713l.71.328-.854.527c-.69.427-1.13.813-2.295 2.014-.924.953-1.416 1.403-1.373 1.254.037-.128.085-1.047.11-2.043.035-1.49.012-1.996-.132-2.855-.096-.575-.138-1.045-.093-1.045zm-25.475 3.152.582.293c.841.424 1.606.963 2.354 1.658.845.786 2.487 2.216 3.095 2.697.262.207.475.429.475.493 0 .063.25.611.556 1.216.306.605.534 1.137.506 1.182-.077.124-.13.107-.828-.285-.356-.2-.895-.462-1.197-.58-.42-.164-.635-.32-.91-.666-.478-.6-1.923-2.256-2.682-3.073a10.076 10.076 0 0 1-1.658-2.353l-.293-.582zm31.496 0-.293.582a10.076 10.076 0 0 1-1.658 2.354c-.786.845-2.216 2.487-2.697 3.095-.207.262-.429.475-.493.475-.063 0-.612.252-1.218.558-.607.307-1.116.557-1.131.557-.156 0-.043-.334.428-1.264.305-.605.556-1.153.556-1.216 0-.064.213-.286.475-.493.608-.48 2.25-1.91 3.096-2.697a10.076 10.076 0 0 1 2.353-1.658l.582-.293zm-32.5 1.385.527.853c.427.69.813 1.13 2.014 2.295.953.924 1.403 1.418 1.254 1.375-.128-.037-1.047-.087-2.043-.111-1.49-.036-1.996-.013-2.855.13-.575.097-1.045.14-1.045.094 0-.044.162-.353.36-.683.2-.33.536-1.036.747-1.569.211-.532.533-1.285.713-1.675l.328-.71zm33.504 0 .328.709c.18.39.502 1.143.713 1.675.211.533.55 1.243.752 1.579.203.336.356.642.34.68-.016.036-.491-.01-1.053-.104-.83-.138-1.36-.162-2.832-.127-.996.024-1.915.074-2.043.111-.149.043.301-.451 1.254-1.375 1.201-1.165 1.587-1.604 2.014-2.295l.527-.853zm-16.74.474c.701-.011 1.253.096 1.199.272-.142.457-.627 2.642-.828 3.724-.128.69-.269 1.485-.313 1.766l-.08.512-.068-.512c-.157-1.177-.876-4.663-1.133-5.49-.037-.12.056-.163.488-.219.25-.032.5-.049.735-.053zm-2.412.698a.04.04 0 0 1 .027.011c.091.096.572 2.18.791 3.428.08.46.187 1.776.236 2.926.05 1.15.136 2.48.192 2.957.055.477.086.882.068.9-.018.018-.56-.476-1.203-1.1a242.82 242.82 0 0 0-2.357-2.247C21.7 20.07 21 19.349 20.797 19.08l-.371-.49.303-.485c.405-.652 1.8-2.49 2.343-3.087.536-.59 1.344-1.222 1.528-1.21zm4.8 0c.184-.013.992.62 1.528 1.209.543.596 1.938 2.435 2.343 3.087l.303.485-.37.49c-.204.27-.904.99-1.558 1.604-.653.613-1.725 1.635-2.382 2.271-.658.636-1.196 1.095-1.196 1.02 0-.076.042-.472.092-.88.05-.407.133-1.7.184-2.874.05-1.175.157-2.513.238-2.973.22-1.248.7-3.332.791-3.428a.04.04 0 0 1 .027-.011zm-18.164 4.355c1.399-.033 2.948.144 4.06.49.597.186 1.905.785 1.905.873 0 .037-.094.13-.209.205-.115.076-.546.424-.959.776l-1.558 1.328A13.702 13.702 0 0 0 13 23.344c-.366.452-.688.82-.717.816a34.222 34.222 0 0 1-1.119-.404c-1.78-.662-3.09-1.243-4.006-1.776-.479-.278-1.11-.64-1.404-.806-.294-.166-.532-.321-.53-.348.003-.026.202-.175.442-.328.375-.24 1.227-1.217 1.33-1.523.047-.142 1.587-.515 2.914-.707.41-.06.86-.093 1.326-.104zm30.819 0c.716-.018 1.42.014 2.035.104 1.327.192 2.867.565 2.914.707.103.306.955 1.283 1.33 1.523.24.153.439.302.441.328.003.027-.235.182-.529.348-.294.165-.925.528-1.404.806-.94.547-2.29 1.14-4.047 1.782-.61.222-1.114.406-1.12.406-.005 0-.309-.372-.675-.824a13.704 13.704 0 0 0-1.475-1.508l-1.558-1.328c-.413-.352-.844-.7-.96-.776-.114-.075-.208-.168-.208-.205 0-.088 1.308-.687 1.904-.873.927-.288 2.158-.46 3.352-.49zM18.59 20.426l.49.37c.27.204.99.904 1.604 1.558.613.653 1.635 1.725 2.271 2.382 1.29 1.333 1.289 1.26.004 1.094-.332-.043-1.563-.12-2.738-.172-1.175-.051-2.513-.16-2.973-.24-1.248-.22-3.332-.7-3.428-.791-.108-.103.57-.983 1.198-1.555.596-.543 2.435-1.938 3.087-2.343l.485-.303zm16.82 0 .485.303c.652.405 2.49 1.8 3.087 2.343.629.572 1.306 1.452 1.198 1.555-.096.091-2.18.572-3.428.791-.46.08-1.798.188-2.973.238-1.175.05-2.467.134-2.875.184-.407.05-.803.092-.879.092-.075 0 .384-.538 1.02-1.196a256.69 256.69 0 0 0 2.271-2.382c.613-.654 1.335-1.354 1.604-1.557l.49-.371zM3.795 21.529c.085-.007.18.053.312.164.827.696 3.177 1.921 5.014 2.616.383.144.73.293.772.328.16.135-3.053.92-4.735 1.156-.546.077-1.186.139-1.424.139-.415 0-.439-.015-.63-.399-.414-.827-.33-2.093.218-3.316.213-.475.33-.675.473-.688zm46.41 0c.143.013.26.213.473.688.549 1.223.632 2.489.218 3.316l-.199.399-.562-.012c-.704-.015-1.966-.196-3.12-.45-1.395-.306-2.99-.763-2.908-.833.042-.035.389-.184.772-.328 1.837-.695 4.187-1.92 5.014-2.616.132-.11.227-.171.312-.164zm-23.191.55.068.323c.114.55.833 2.602.912 2.602.041 0 .074-.095.074-.211 0-.17.163-.296.86-.664.472-.25 1.1-.6 1.394-.78.295-.178.562-.298.594-.265.033.032-.087.3-.266.594-.178.294-.53.922-.779 1.394-.368.697-.493.86-.664.86-.45 0-.163.163.928.529.626.21 1.284.422 1.463.469l.324.084-.324.068c-.55.114-2.602.833-2.602.912 0 .041.095.074.211.074.17 0 .296.163.664.86.25.472.6 1.1.78 1.394.178.295.298.562.265.594-.032.033-.3-.087-.594-.266-.294-.178-.922-.53-1.394-.779-.697-.368-.86-.493-.86-.664 0-.45-.163-.163-.529.928h-.002c-.21.626-.42 1.284-.467 1.463l-.084.324-.068-.324c-.114-.55-.833-2.602-.912-2.602-.041 0-.074.095-.074.211 0 .17-.163.296-.86.664-.472.25-1.1.6-1.394.78-.295.178-.562.298-.594.265-.033-.032.087-.3.266-.594.178-.294.53-.922.779-1.394.368-.697.493-.86.664-.86.45 0 .163-.165-.928-.53-.626-.21-1.284-.42-1.463-.468l-.324-.084.324-.068c.55-.114 2.602-.833 2.602-.912 0-.041-.095-.074-.211-.074-.17 0-.296-.163-.664-.86-.25-.472-.6-1.1-.78-1.394-.178-.295-.298-.562-.265-.594.032-.033.3.087.594.266.294.178.922.53 1.394.779.697.368.86.493.86.664 0 .45.165.163.53-.928.21-.626.42-1.284.468-1.463l.084-.324zm13.644 3.702c.09 0 .13.118.178.496.086.666.086.78 0 1.444-.038.293-.094.53-.125.525-.031-.005-.35-.088-.707-.185-.808-.22-4.078-.883-4.83-.979l-.559-.072.512-.08c1.57-.247 4.713-.9 5.49-1.14a.145.145 0 0 1 .041-.009zm-27.318.006a.078.078 0 0 1 .043.002c.78.242 3.95.9 5.49 1.14l.512.08-.512.07c-.856.114-2.953.52-4.18.812-.638.15-1.228.294-1.31.32-.12.037-.163-.056-.219-.488-.12-.938-.029-1.882.176-1.936zm-2.172.06c.075.006.06.059.008.194-.057.15-.044.341.04.588.107.307.106.426 0 .738-.08.24-.096.446-.044.582.118.312.14.315-2.422-.426-.383-.11-.94-.267-1.238-.347-.298-.08-.52-.168-.494-.194.025-.025.478-.162 1.005-.302a74.94 74.94 0 0 0 1.76-.496c.44-.132.953-.268 1.139-.303.123-.023.2-.037.246-.033zm31.664 0c.045-.003.123.01.246.034.186.035.698.17 1.139.303.44.131 1.232.355 1.76.496.527.14.98.277 1.005.302.055.055.004.072-1.173.385a65.76 65.76 0 0 0-1.637.461c-.415.125-.908.256-1.094.291-.327.062-.335.057-.254-.158.057-.149.043-.345-.04-.594-.106-.312-.107-.43 0-.738.084-.247.097-.438.04-.588-.051-.135-.067-.188.008-.193zM3.734 28.069c.575 0 2.21.233 3.274.467 1.373.302 2.967.759 2.885.828-.042.035-.389.184-.772.328-1.825.69-4.187 1.92-5.002 2.606-.15.126-.298.228-.33.228-.094 0-.416-.569-.607-1.076-.43-1.14-.457-2.221-.077-2.986.19-.38.214-.395.63-.395zm20.24 0c.076 0-.383.537-1.019 1.194-.636.657-1.637 1.709-2.225 2.338-.587.629-1.297 1.325-1.578 1.546-.28.222-.536.403-.566.403-.215 0-2.967-2.035-3.69-2.729-.587-.563-1.174-1.353-1.076-1.447.096-.091 2.18-.572 3.428-.791.46-.08 1.798-.188 2.973-.238 1.175-.05 2.467-.134 2.875-.184.407-.05.803-.092.879-.092zm6.051 0c.076 0 .472.042.88.092.407.05 1.7.133 2.874.184 1.175.05 2.513.157 2.973.238 1.248.22 3.332.7 3.428.791.098.094-.49.884-1.076 1.447-.488.467-2.334 1.887-3.086 2.373-.302.195-.574.356-.604.356-.168 0-1.21-.95-2.144-1.95-.588-.628-1.59-1.68-2.225-2.337-.636-.657-1.095-1.194-1.02-1.194zm20.24 0c.416 0 .44.015.631.399.431.862.32 2.215-.28 3.406-.167.33-.344.61-.395.623-.051.013-.207-.077-.346-.2-.738-.648-3.162-1.911-4.996-2.605-.383-.144-.73-.293-.772-.328-.082-.07 1.512-.526 2.885-.828 1.065-.234 2.7-.467 3.274-.467zm-37.917 1.86c.036.001.06.008.072.021.057.064.38.45.715.86.335.408.955 1.035 1.379 1.392.424.358 1.107.94 1.52 1.291.411.352.843.7.958.776.115.075.21.168.21.205 0 .088-1.31.688-1.905.873-.256.08-.841.211-1.3.293-1.22.215-3.157.256-4.226.088-1.197-.189-2.733-.577-2.775-.702-.102-.306-.955-1.283-1.33-1.523-.24-.153-.439-.302-.441-.328-.003-.027.235-.182.529-.348.294-.165.925-.528 1.404-.806 1.435-.833 4.64-2.11 5.19-2.092zm29.304 0c.55-.019 3.755 1.259 5.19 2.092.479.278 1.11.64 1.404.806.294.166.532.321.53.348-.003.026-.202.175-.442.328-.375.24-1.227 1.217-1.33 1.523-.046.139-1.576.513-2.838.696-.946.136-2.244.175-2.955.088-.853-.105-2.103-.335-2.508-.461-.598-.187-1.904-.787-1.904-.875 0-.037.094-.13.209-.205.115-.076.547-.424.959-.776.412-.352 1.096-.933 1.52-1.29a12.968 12.968 0 0 0 1.378-1.393c.336-.41.658-.796.715-.86.012-.013.036-.02.072-.021zm-15.726.09c.004 0 .006.003.006.007 0 .076-.042.472-.092.88-.05.407-.132 1.7-.182 2.874-.092 2.18-.265 3.419-.771 5.52-.116.481-.254.888-.307.906-.14.047-1.238-.886-1.726-1.467-.645-.766-1.91-2.462-2.18-2.924l-.242-.412.367-.486c.202-.267.901-.987 1.555-1.6.653-.613 1.725-1.635 2.382-2.271.616-.596 1.128-1.037 1.19-1.027zm2.148 0c.062-.01.574.43 1.19 1.027.657.636 1.73 1.658 2.382 2.271.654.613 1.353 1.333 1.555 1.6l.367.486-.242.412c-.27.462-1.535 2.158-2.18 2.924a9.61 9.61 0 0 1-1.025 1c-.332.274-.639.496-.682.496-.102 0-.12-.062-.388-1.207-.474-2.023-.617-3.075-.71-5.248-.05-1.175-.13-2.467-.18-2.875-.051-.407-.093-.803-.093-.879 0-.004.002-.007.006-.007zm-1.064 4.597.068.512c.157 1.177.876 4.663 1.133 5.49.037.12-.05.16-.443.205-.27.031-.572.076-.674.1a.935.935 0 0 1-.418-.035 2.535 2.535 0 0 0-.588-.084c-.293-.008-.346-.038-.305-.172.246-.79.904-3.95 1.147-5.504l.08-.512zm-8.25.582c.02-.002.033-.001.039.004.043.043-.173.575-.48 1.184-.308.608-.561 1.159-.561 1.222 0 .064-.213.286-.475.493-.608.48-2.25 1.91-3.096 2.697-.36.335-.906.779-1.212.986-.307.208-.82.51-1.141.672l-.582.293.293-.582c.424-.841.963-1.606 1.658-2.353.786-.846 2.216-2.488 2.697-3.096.207-.262.429-.475.493-.475.063 0 .614-.253 1.222-.56.533-.27 1.006-.468 1.145-.485zm16.48 0c.14.017.613.216 1.145.485.608.307 1.159.56 1.222.56.064 0 .286.213.493.475.48.608 1.91 2.25 2.697 3.096.694.746 1.233 1.51 1.656 2.35.161.318.281.579.268.577a16.852 16.852 0 0 1-.674-.35 9.489 9.489 0 0 1-2.234-1.593c-.85-.79-2.491-2.219-3.096-2.697-.262-.207-.475-.429-.475-.493 0-.063-.253-.614-.56-1.222-.308-.609-.524-1.141-.48-1.184.005-.005.018-.006.038-.004zm-30.084.52c.015-.015.276.073.58.195.642.258.867.547 1.319 1.693.253.643.719 2.673 1.101 4.795.072.4.237.936.367 1.194.13.257.225.478.21.49-.017.012-.51.338-1.098.725-1.35.887-2.097 1.444-3.434 2.566a34.05 34.05 0 0 0-1.734 1.563c-.37.368-.687.617-.71.556-.063-.174.104-3.561.216-4.383a24.71 24.71 0 0 1 .27-1.533c.093-.434.24-1.18.325-1.658.248-1.392.56-2.236 1.592-4.268.533-1.05.982-1.92.996-1.935zm43.688 0c.014.015.463.886.996 1.935 1.031 2.032 1.344 2.876 1.592 4.268.085.479.232 1.224.326 1.658.266 1.237.365 2.14.449 4.041.043.97.053 1.812.022 1.87-.035.062-.283-.128-.616-.471-1.188-1.228-3.352-2.963-5.248-4.21a187.43 187.43 0 0 1-1.097-.724c-.017-.012.078-.233.209-.49.13-.258.295-.795.367-1.194.382-2.122.848-4.152 1.101-4.795.452-1.146.677-1.435 1.319-1.693.303-.122.565-.21.58-.195zm-40.662.992c.159-.003.532.04.963.111.86.145 1.364.167 2.855.131.996-.024 1.915-.074 2.043-.111.149-.043-.301.451-1.254 1.375-1.201 1.165-1.587 1.604-2.014 2.295l-.527.853-.328-.709c-.18-.39-.502-1.143-.713-1.675-.211-.533-.547-1.238-.746-1.569-.2-.33-.361-.639-.361-.683 0-.012.029-.017.082-.018zm37.636 0c.053 0 .082.006.082.018 0 .044-.162.353-.36.683-.2.33-.536 1.036-.747 1.569-.211.532-.53 1.283-.709 1.67-.178.386-.334.699-.346.697-.01-.003-.25-.384-.531-.848-.42-.693-.775-1.1-1.996-2.283-.952-.923-1.403-1.418-1.254-1.375.128.037 1.047.087 2.043.111 1.49.036 1.996.013 2.855-.13.431-.073.804-.115.963-.112zm-26.29.09c.036 0 .129.094.204.209.076.115.424.547.776.959.352.412.933 1.096 1.29 1.52.358.423.985 1.043 1.393 1.378.41.335.796.658.86.715.212.189-1.182 3.732-2.07 5.262-.279.479-.642 1.11-.807 1.404-.166.294-.321.532-.348.53-.026-.003-.175-.202-.328-.442-.24-.375-1.217-1.227-1.523-1.33-.142-.047-.515-1.587-.707-2.914-.238-1.642-.075-3.903.386-5.387.186-.596.785-1.904.873-1.904zm14.945 0c.088 0 .687 1.308.873 1.904.46 1.484.624 3.745.386 5.387-.192 1.327-.565 2.867-.707 2.914-.306.103-1.283.955-1.523 1.33-.153.24-.302.439-.328.441-.027.003-.182-.235-.348-.529-.165-.294-.53-.928-.81-1.41-.896-1.543-2.28-5.068-2.067-5.258.064-.057.45-.377.86-.713a12.966 12.966 0 0 0 1.392-1.379l1.291-1.52c.352-.411.7-.843.776-.958.075-.115.168-.21.205-.21zm-17.323 3.13c.012 0 .014.01.008.028-.037.128-.085 1.047-.11 2.043-.035 1.49-.012 1.996.132 2.855.116.696.14 1.044.074 1.041-.055-.002-.36-.164-.68-.36-.32-.197-1.018-.531-1.55-.743a40.893 40.893 0 0 1-1.678-.713l-.71-.328.854-.527c.69-.427 1.13-.813 2.295-2.014.808-.834 1.287-1.282 1.365-1.281zm19.7 0c.078 0 .557.449 1.365 1.282 1.165 1.201 1.604 1.587 2.295 2.014l.853.527-.709.328a40.7 40.7 0 0 1-1.675.713c-.533.211-1.238.547-1.569.746-.33.2-.639.361-.683.361-.045 0-.003-.47.093-1.045.145-.86.167-1.364.131-2.855-.024-.996-.074-1.915-.111-2.043-.006-.019-.002-.027.01-.027zm-9.846 2.776c.107 0 .213.025.367.078.247.085.438.098.588.041.216-.082.222-.074.16.254a15.91 15.91 0 0 1-.303 1.139 74.95 74.95 0 0 0-.496 1.76c-.14.527-.277.98-.302 1.005-.055.055-.072.004-.385-1.173a65.981 65.981 0 0 0-.461-1.64 15.076 15.076 0 0 1-.291-1.09c-.062-.328-.057-.336.158-.255.149.057.345.043.594-.04.156-.054.264-.079.37-.079zm-2.367 1.402c.07-.082.526 1.512.828 2.885.234 1.065.467 2.7.467 3.274 0 .417-.013.438-.41.636-.812.406-2.092.318-3.301-.224-.763-.343-.824-.433-.528-.785.696-.827 1.921-3.177 2.616-5.014.144-.383.293-.73.328-.772zm4.726 0c.035.042.184.389.328.772.695 1.837 1.92 4.187 2.616 5.014.183.218.214.314.134.41-.169.204-1.163.612-1.84.756H30.6c-.99.21-1.552.158-2.23-.207-.274-.147-.302-.204-.302-.59 0-.57.234-2.209.467-3.27.302-1.373.759-2.967.828-2.885zm-19.447 1.16c.012-.016.233.077.49.208.258.13.795.297 1.194.369 2.122.382 4.152.848 4.795 1.101 1.146.452 1.435.677 1.693 1.319.122.303.21.565.195.58-.015.014-.886.463-1.935.996-2.013 1.021-2.845 1.333-4.21 1.582-.46.084-1.23.234-1.716.334-1.394.286-1.993.357-3.531.414-.792.03-1.628.07-1.858.09-.23.02-.468.015-.53-.01-.064-.026.17-.326.56-.717 1.321-1.325 2.912-3.317 4.128-5.168.387-.587.713-1.082.725-1.097zm34.168 0c.012.017.338.51.725 1.098 1.215 1.85 2.808 3.844 4.129 5.168.493.495.629.683.525.723a.625.625 0 0 1-.248.039 96.29 96.29 0 0 0-1.735-.088c-1.759-.08-2.673-.185-3.902-.45a56.449 56.449 0 0 0-1.658-.325c-1.392-.248-2.236-.56-4.268-1.592-1.05-.533-1.92-.982-1.935-.996-.015-.015.073-.276.195-.58.258-.642.547-.867 1.693-1.319.643-.253 2.673-.719 4.795-1.101.4-.072.936-.239 1.194-.37.257-.13.478-.222.49-.206zm-36.016.665c.052.051-1.596 2.476-2.564 3.775a23.994 23.994 0 0 1-1.434 1.742c-.622.658-.65.674-1.068.662-.935-.027-1.035-.112-1.102-.94l-.046-.581.685-.65c.377-.358 1.167-1.006 1.754-1.444 1.299-.968 3.724-2.616 3.775-2.564zm37.864 0c.051-.052 2.476 1.596 3.775 2.564.587.438 1.377 1.086 1.754 1.443l.685.65-.048.593c-.028.345-.105.649-.186.73-.081.081-.385.158-.73.186l-.592.048-.65-.685c-.358-.377-1.006-1.167-1.444-1.754-.968-1.299-2.616-3.724-2.564-3.775z" transform="scale(.26458)"/></svg>