<?xml version="1.0" encoding="UTF-8" standalone="no"?>
<svg
   width="29"
   height="29"
   viewBox="0 0 7.6726481 7.6726481"
   xml:space="preserve"
   version="1.1"
   id="svg115"
   sodipodi:docname="logo-try.svg"
   inkscape:version="1.2.2 (b0a8486541, 2022-12-01)"
   xmlns:inkscape="http://www.inkscape.org/namespaces/inkscape"
   xmlns:sodipodi="http://sodipodi.sourceforge.net/DTD/sodipodi-0.dtd"
   xmlns:xlink="http://www.w3.org/1999/xlink"
   xmlns="http://www.w3.org/2000/svg"
   xmlns:svg="http://www.w3.org/2000/svg"><sodipodi:namedview
     id="namedview117"
     pagecolor="#ffffff"
     bordercolor="#666666"
     borderopacity="1.0"
     inkscape:showpageshadow="2"
     inkscape:pageopacity="0.0"
     inkscape:pagecheckerboard="0"
     inkscape:deskcolor="#d1d1d1"
     showgrid="false"
     inkscape:zoom="15.074074"
     inkscape:cx="20.697789"
     inkscape:cy="21.726044"
     inkscape:window-width="1920"
     inkscape:window-height="991"
     inkscape:window-x="-9"
     inkscape:window-y="-9"
     inkscape:window-maximized="1"
     inkscape:current-layer="svg115" /><defs
     id="defs105"><pattern
       inkscape:collect="always"
       xlink:href="#s"
       id="pattern1510"
       patternTransform="matrix(0.26458,0,0,0.26458,-6.7616063,-6.8248411)" /><radialGradient
       xlink:href="#a"
       id="j"
       cx="-9.8079996"
       cy="87.922997"
       fx="-9.8079996"
       fy="87.922997"
       r="7.9250002"
       gradientUnits="userSpaceOnUse"
       gradientTransform="matrix(0.90146,0,0,0.90146,15.985,8.884)" /><radialGradient
       xlink:href="#b"
       id="l"
       gradientUnits="userSpaceOnUse"
       gradientTransform="matrix(0.86923,0,0,0.86923,22.63,4.723)"
       cx="-9.8079996"
       cy="87.922997"
       fx="-9.8079996"
       fy="87.922997"
       r="7.9250002" /><radialGradient
       xlink:href="#c"
       id="o"
       gradientUnits="userSpaceOnUse"
       gradientTransform="matrix(0.13293,0,0,0.13293,3.929,80.972)"
       cx="-9.8079996"
       cy="87.922997"
       fx="-9.8079996"
       fy="87.922997"
       r="7.9250002" /><radialGradient
       xlink:href="#d"
       id="m"
       gradientUnits="userSpaceOnUse"
       gradientTransform="matrix(0.86923,0,0,0.86923,22.63,18.574)"
       cx="-9.8079996"
       cy="87.922997"
       fx="-9.8079996"
       fy="87.922997"
       r="7.9250002" /><radialGradient
       xlink:href="#e"
       id="n"
       gradientUnits="userSpaceOnUse"
       gradientTransform="matrix(0.86923,0,0,0.86923,8.737,18.574)"
       cx="-9.8079996"
       cy="87.922997"
       fx="-9.8079996"
       fy="87.922997"
       r="7.9250002" /><radialGradient
       xlink:href="#f"
       id="k"
       gradientUnits="userSpaceOnUse"
       gradientTransform="matrix(0.86923,0,0,0.86923,8.652,4.638)"
       cx="-9.8079996"
       cy="87.922997"
       fx="-9.8079996"
       fy="87.922997"
       r="7.9250002" /><radialGradient
       xlink:href="#g"
       id="p"
       gradientUnits="userSpaceOnUse"
       gradientTransform="matrix(0.13293,0,0,0.13293,12.818,80.882)"
       cx="-9.8079996"
       cy="87.922997"
       fx="-9.8079996"
       fy="87.922997"
       r="7.9250002" /><radialGradient
       xlink:href="#h"
       id="q"
       gradientUnits="userSpaceOnUse"
       gradientTransform="matrix(0.13293,0,0,0.13293,3.929,71.992)"
       cx="-9.8079996"
       cy="87.922997"
       fx="-9.8079996"
       fy="87.922997"
       r="7.9250002" /><radialGradient
       xlink:href="#i"
       id="r"
       gradientUnits="userSpaceOnUse"
       gradientTransform="matrix(0.13293,0,0,0.13293,12.879,72.022)"
       cx="-9.8079996"
       cy="87.922997"
       fx="-9.8079996"
       fy="87.922997"
       r="7.9250002" /><linearGradient
       id="f"><stop
         style="stop-color:#f07864;stop-opacity:1"
         offset="0"
         id="stop11" /><stop
         style="stop-color:#f07864;stop-opacity:1"
         offset=".204"
         id="stop13" /><stop
         style="stop-color:#00503c;stop-opacity:1"
         offset=".653"
         id="stop15" /><stop
         style="stop-color:#00503c;stop-opacity:0"
         offset="1"
         id="stop17" /></linearGradient><linearGradient
       id="e"><stop
         style="stop-color:#f07864;stop-opacity:1"
         offset="0"
         id="stop20" /><stop
         style="stop-color:#f07864;stop-opacity:1"
         offset=".204"
         id="stop22" /><stop
         style="stop-color:#00503c;stop-opacity:1"
         offset=".653"
         id="stop24" /><stop
         style="stop-color:#00503c;stop-opacity:0"
         offset="1"
         id="stop26" /></linearGradient><linearGradient
       id="b"><stop
         style="stop-color:#f07864;stop-opacity:1"
         offset="0"
         id="stop29" /><stop
         style="stop-color:#f07864;stop-opacity:1"
         offset=".204"
         id="stop31" /><stop
         style="stop-color:#00503c;stop-opacity:1"
         offset=".653"
         id="stop33" /><stop
         style="stop-color:#00503c;stop-opacity:0"
         offset="1"
         id="stop35" /></linearGradient><linearGradient
       id="i"><stop
         style="stop-color:#00b4a0;stop-opacity:1"
         offset="0"
         id="stop38" /><stop
         style="stop-color:#00b4a0;stop-opacity:1"
         offset=".189"
         id="stop40" /><stop
         style="stop-color:#00503c;stop-opacity:0"
         offset="1"
         id="stop42" /></linearGradient><linearGradient
       id="c"><stop
         style="stop-color:#00b4a0;stop-opacity:1"
         offset="0"
         id="stop45" /><stop
         style="stop-color:#00b4a0;stop-opacity:1"
         offset=".168"
         id="stop47" /><stop
         style="stop-color:#00503c;stop-opacity:0"
         offset="1"
         id="stop49" /></linearGradient><linearGradient
       id="g"><stop
         style="stop-color:#00b4a0;stop-opacity:1"
         offset="0"
         id="stop52" /><stop
         style="stop-color:#00b4a0;stop-opacity:1"
         offset=".166"
         id="stop54" /><stop
         style="stop-color:#00503c;stop-opacity:0"
         offset="1"
         id="stop56" /></linearGradient><linearGradient
       id="h"><stop
         style="stop-color:#00b4a0;stop-opacity:1"
         offset="0"
         id="stop59" /><stop
         style="stop-color:#00b4a0;stop-opacity:1"
         offset=".207"
         id="stop61" /><stop
         style="stop-color:#00503c;stop-opacity:0"
         offset="1"
         id="stop63" /></linearGradient><linearGradient
       id="d"><stop
         style="stop-color:#f07864;stop-opacity:1"
         offset="0"
         id="stop66" /><stop
         style="stop-color:#f07864;stop-opacity:1"
         offset=".204"
         id="stop68" /><stop
         style="stop-color:#00503c;stop-opacity:1"
         offset=".653"
         id="stop70" /><stop
         style="stop-color:#00503c;stop-opacity:0"
         offset="1"
         id="stop72" /></linearGradient><linearGradient
       id="a"><stop
         style="stop-color:#f07864;stop-opacity:1"
         offset="0"
         id="stop75" /><stop
         style="stop-color:#f07864;stop-opacity:1"
         offset=".253"
         id="stop77" /><stop
         style="stop-color:#956854;stop-opacity:1"
         offset=".382"
         id="stop79" /><stop
         style="stop-color:#00503c;stop-opacity:1"
         offset=".648"
         id="stop81" /><stop
         style="stop-color:#00503c;stop-opacity:1"
         offset="1"
         id="stop83" /></linearGradient><pattern
       patternUnits="userSpaceOnUse"
       width="104.902"
       height="104.741"
       patternTransform="translate(-25.556 -25.795)"
       id="s"><path
         style="fill:url(#j);fill-opacity:1;stroke-width:.264584;paint-order:markers stroke fill"
         d="M0 81h14.287v14.287H0z"
         transform="matrix(3.77953 0 0 3.77953 25.556 -280.347)"
         id="path86" /><path
         style="fill:url(#k);fill-opacity:1;stroke-width:.264583;paint-order:markers stroke fill"
         d="M-6.762 74.175H7.015v13.777H-6.762z"
         transform="matrix(3.77953 0 0 3.77953 25.556 -280.347)"
         id="path88" /><path
         style="fill:url(#l);fill-opacity:1;stroke-width:.264583;paint-order:markers stroke fill"
         d="M7.217 74.26h13.777v13.777H7.217z"
         transform="matrix(3.77953 0 0 3.77953 25.556 -280.347)"
         id="path90" /><path
         style="fill:url(#m);fill-opacity:1;stroke-width:.264583;paint-order:markers stroke fill"
         d="M7.217 88.111h13.777v13.777H7.217z"
         transform="matrix(3.77953 0 0 3.77953 25.556 -280.347)"
         id="path92" /><path
         style="fill:url(#n);fill-opacity:1;stroke-width:.264583;paint-order:markers stroke fill"
         d="M-6.677 88.111H7.1v13.777H-6.677z"
         transform="matrix(3.77953 0 0 3.77953 25.556 -280.347)"
         id="path94" /><path
         style="opacity:1;fill:url(#o);fill-opacity:1;stroke-width:.264583;paint-order:markers stroke fill"
         d="M1.571 91.607h2.107v2.107H1.571z"
         transform="matrix(3.77953 0 0 3.77953 25.556 -280.347)"
         id="path96" /><path
         style="opacity:1;fill:url(#p);fill-opacity:1;stroke-width:.264583;paint-order:markers stroke fill"
         d="M10.461 91.516h2.107v2.107h-2.107z"
         transform="matrix(3.77953 0 0 3.77953 25.556 -280.347)"
         id="path98" /><path
         style="opacity:1;fill:url(#q);fill-opacity:1;stroke-width:.264583;paint-order:markers stroke fill"
         d="M1.571 82.626h2.107v2.107H1.571z"
         transform="matrix(3.77953 0 0 3.77953 25.556 -280.347)"
         id="path100" /><path
         style="opacity:1;fill:url(#r);fill-opacity:1;stroke-width:.264583;paint-order:markers stroke fill"
         d="M10.522 82.656h2.107v2.107h-2.107z"
         transform="matrix(3.77953 0 0 3.77953 25.556 -280.347)"
         id="path102" /></pattern></defs><path
     style="fill:none;stroke-width:0.264583"
     d="m -106.582,31.092 h 384.036 v 216.02 h -384.036 z"
     id="path107" /><path
     style="fill:none;stroke-width:0.264583"
     d="m -17.95,2.037 h 198.027 v 111.39 H -17.95 Z"
     id="path109" /><path
     style="fill:#ffffff;stroke-width:0.309999;paint-order:markers stroke fill"
     d="M 0,0 H 7.672648 V 7.672648 H 0 Z"
     id="path111" /><path
     style="fill:url(#pattern1510);stroke-width:0.26458"
     d="M 0.45551166,0 C 0.42467893,0 0.36784441,0.04801653 0.20799734,0.20783485 0.04800817,0.36765317 1.2509133e-4,0.42447746 1.2509133e-4,0.45530464 c 0,0.021025 0.0206025087,0.0348049 0.0262859687,0.0177576 0.004973,-0.0146322 0.0475989,-0.0554037 0.05782912,-0.0554037 0.0038365,0 -0.0056835,0.0383564 -0.02088671,0.0856626 A 0.80136668,0.80122252 0 0 0 0.02868444,0.67734554 C 0.01788588,0.81287152 0.04530853,1.3484405 0.06917903,1.4706127 c 0.0071043,0.035657 0.01776079,0.094044 0.02358633,0.1298435 0.04973021,0.3020211 0.13427155,0.5881314 0.25064022,0.8489549 0.014777,0.033242 0.0431942,0.1042726 0.0632284,0.1581136 0.0201763,0.053983 0.0450414,0.114643 0.0552716,0.1346736 l 0.0188974,0.036367 -0.0453255,0.049295 C 0.37594333,2.8930668 0.29197033,3.0295871 0.25488581,3.1219266 a 1.7505031,1.7501882 0 0 0 -0.0564083,0.1765815 c -0.0224496,0.087225 -0.0265701,0.1200413 -0.0265701,0.2272972 v 0.1250134 l 0.0491619,0.09234 0.0487356,0.092197 -0.0511511,0.1007211 -0.0511511,0.100721 v 0.091345 c 0,0.2471856 0.1005971,0.5158225 0.26754849,0.7138551 0.037937,0.045033 0.0407788,0.051994 0.0315432,0.074014 -0.005683,0.013496 -0.0350953,0.087225 -0.065786,0.163796 C 0.37025984,5.1563784 0.32365564,5.2713055 0.29736962,5.3350907 0.21254412,5.5402262 0.12203514,5.8557435 0.10214306,6.0169823 0.09773836,6.0527794 0.0853769,6.1213968 0.07486247,6.1699819 0.05568082,6.2587696 0.04360349,6.407791 0.02939486,6.7311218 0.01944886,6.9555775 0.02754776,7.0588558 0.06321139,7.169663 0.07841465,7.216827 0.0877923,7.25561 0.08381391,7.25561 0.07969331,7.25561 0.06335349,7.241118 0.04772399,7.223222 0.0320945,7.205321 0.01504414,7.1906897 0.00964486,7.1906897 c -0.02060251,0 -0.00781474,0.047164 0.02443884,0.08964 0.05029855,0.0662 0.35095314,0.3601238 0.38604846,0.377313 l -2.8418e-4,2.841e-4 c 0.0619496,0.03054 0.0780054,0.010937 0.0284173,-0.034664 -0.0413471,-0.037789 -0.0375108,-0.048587 0.009946,-0.028838 0.12276258,0.051282 0.24723018,0.059666 0.62290632,0.041623 0.2242121,-0.010798 0.342428,-0.022444 0.4354945,-0.042477 0.03609,-0.00781 0.1032967,-0.019748 0.1491906,-0.026567 C 1.8954141,7.5324848 2.1628205,7.4515087 2.4359104,7.333598 2.4870614,7.311578 2.5622251,7.281178 2.6030039,7.266119 2.6439249,7.251058 2.6999069,7.22833 2.7276135,7.21597 l 0.050582,-0.022444 0.062092,0.051851 c 0.1966474,0.1643643 0.5009963,0.2721882 0.7313181,0.2588348 0.065218,-0.00381 0.080705,-0.00895 0.1709299,-0.055972 0.054561,-0.028554 0.1013075,-0.048442 0.103723,-0.044748 0.00242,0.00397 0.045326,0.027561 0.095198,0.05256 l 0.090793,0.045462 0.1159424,-5.906e-4 C 4.2772063,7.5002256 4.3958483,7.476488 4.5325353,7.4237846 4.6319953,7.3854264 4.772377,7.3001916 4.8356054,7.2401 l 0.051862,-0.049435 0.073601,0.032248 c 0.040353,0.017617 0.1108273,0.046595 0.1567211,0.063927 0.046036,0.017617 0.1442176,0.056824 0.2182446,0.086941 0.2202336,0.090209 0.5110846,0.1733143 0.6868451,0.1964705 0.03822,0.0051 0.098466,0.01534 0.1342715,0.023013 0.097187,0.021166 0.210288,0.032387 0.4315164,0.042761 0.3823543,0.017901 0.4776941,0.011931 0.6113974,-0.037789 0.02742,-0.010229 0.05243,-0.015909 0.055129,-0.013214 0.00753,0.00739 -0.046179,0.060518 -0.055414,0.054835 -0.00424,-0.00268 -0.00781,0.00199 -0.00781,0.00994 0,0.025429 0.026142,0.025853 0.067207,0.0014 0.049729,-0.029547 0.3796547,-0.3615446 0.4009677,-0.4034524 0.017335,-0.034095 0.01364,-0.057108 -0.00909,-0.057108 -0.00824,0 -0.012502,0.00338 -0.00981,0.00781 0.00568,0.00895 -0.047457,0.062933 -0.054703,0.055688 -0.00258,-0.00258 0.00526,-0.033665 0.01762,-0.069042 0.041915,-0.1213197 0.04547,-0.1591077 0.039074,-0.4043045 C 7.6354252,6.4767805 7.6214962,6.2864193 7.5991882,6.1793057 7.5889582,6.1308639 7.5764562,6.0596902 7.5713382,6.0214758 7.5478897,5.8450366 7.4647716,5.5549488 7.374831,5.3350386 A 11.913936,11.911792 0 0 1 7.2880154,5.1170275 4.1450834,4.1443377 0 0 0 7.2240766,4.9599083 L 7.1919624,4.886605 7.2414064,4.8347527 C 7.3015136,4.7715358 7.3864807,4.6307536 7.4247019,4.5314532 7.477556,4.3947908 7.5014289,4.2761701 7.5022812,4.1471789 L 7.5028719,4.0312574 7.4574069,3.9404804 C 7.4323979,3.8906174 7.4088119,3.8481404 7.4048319,3.8455844 7.4010219,3.8431644 7.4210289,3.7964314 7.4495879,3.74188 7.4966209,3.651672 7.5018729,3.6361869 7.5055699,3.570981 7.5189263,3.3407001 7.4110829,3.036406 7.2466891,2.839794 L 7.1948281,2.777713 7.2175601,2.72714 C 7.2299221,2.699438 7.2519461,2.644603 7.2667191,2.6049677 7.2813531,2.5656167 7.3117591,2.4904668 7.3340671,2.4380464 7.4561196,2.15151 7.5335566,1.8959427 7.5683677,1.6652361 c 0.00682,-0.045885 0.020745,-0.1228825 0.030691,-0.1713252 0.022732,-0.109955 0.036802,-0.3051465 0.044047,-0.60659935 0.0054,-0.21650054 0.00467,-0.23894617 -0.013501,-0.31395422 A 1.0409242,1.0407369 0 0 0 7.5957897,0.45814607 c -0.019891,-0.0477324 -0.00895,-0.051426 0.028844,-0.009944 0.034955,0.0380723 0.054987,0.037504 0.045185,-0.001421 C 7.6607076,0.40984521 7.6314375,0.37546651 7.4723012,0.21507995 7.3108911,0.05227835 7.2480892,0 7.2145567,0 c -0.031115,0 -0.028135,0.01420607 0.00995,0.04773241 0.017904,0.01562668 0.032678,0.0318216 0.032678,0.0357993 0,0.0039776 -0.03865,-0.0051143 -0.08582,-0.02031466 C 7.0605329,0.0275598 6.9570942,0.01946234 6.7328816,0.02940659 6.4093515,0.04361267 6.2603027,0.05568783 6.171499,0.07486603 6.1229035,0.08537851 6.0539934,0.0973116 6.0181878,0.10185757 c -0.1612656,0.0198885 -0.4768392,0.1102391 -0.682012,0.19504936 -0.063939,0.0262812 -0.172777,0.0700359 -0.241973,0.0970275 -0.069338,0.0269915 -0.1389604,0.0558299 -0.1548741,0.0642114 -0.040637,0.0208829 -0.044473,0.0198885 -0.098324,-0.0252868 C 4.644926,0.26764242 4.3752462,0.16706342 4.1290106,0.16706342 H 4.0376491 L 3.93691,0.21834734 3.8361708,0.26948921 3.7440989,0.22062031 3.6518848,0.17175142 H 3.5264227 c -0.1071331,0 -0.139955,0.00412 -0.2273381,0.0265654 a 1.7490822,1.7487676 0 0 0 -0.176187,0.056114 C 3.0305416,0.29165072 2.8937124,0.37589271 2.8284948,0.4352741 l -0.049304,0.0450333 -0.036374,-0.01861 A 1.8008016,1.8004777 0 0 0 2.6084031,0.40643575 C 2.5545524,0.38640519 2.4832251,0.35770892 2.4499769,0.3429346 2.1889644,0.2264448 1.9032289,0.14220279 1.6011534,0.09233947 A 5.2738169,5.2728682 0 0 1 1.4710024,0.06904151 C 1.3488082,0.04517531 0.81314284,0.01789965 0.67759253,0.02855421 0.62175264,0.03295809 0.55781381,0.04574356 0.50353682,0.06321703 0.45636415,0.07841754 0.4177167,0.08765149 0.4177167,0.08381583 c 0,-0.01022839 0.041205,-0.05256247 0.0558399,-0.05739253 C 0.49060697,0.02074087 0.47639834,0 0.45551166,0 Z m 0.21455032,0.25556725 c 0.10258627,-0.001421 0.46263292,0.0153425 0.56521922,0.0277018 0.064223,0.007813 0.1624046,0.0247186 0.2181025,0.0377882 0.05584,0.0129275 0.1408075,0.0292645 0.1892589,0.0360834 0.099887,0.014064 0.2313165,0.0438967 0.2844568,0.0643535 0.01975,0.007529 0.054419,0.0183258 0.076869,0.0241503 0.03197,0.008097 0.5785754,0.27730254 0.5933523,0.29207684 0.00185,0.001847 -0.010941,0.0399191 -0.028275,0.0846682 l -0.031686,0.0812588 -0.064365,0.034947 C 2.3114428,1.0265308 2.2406838,1.0465614 1.7494915,1.1420262 1.5742991,1.1761208 1.5330941,1.1869174 1.4751229,1.2150454 a 1.4052334,1.4049806 0 0 1 -0.060245,0.02827 1.0699098,1.0697173 0 0 1 -0.04632,-0.071883 C 1.2128316,0.91856469 0.90535683,0.52875004 0.71410873,0.34179812 0.66722025,0.2959125 0.6366717,0.25968702 0.64306558,0.25727198 a 0.13924457,0.13921952 0 0 1 0.0269964,-0.001705 z m 6.33335442,5.6808e-4 c 0.012078,0 0.019752,4.2618e-4 0.021878,0.001137 0.012787,0.003267 -0.00499,0.0255709 -0.078432,0.0984481 C 6.8336207,0.46794807 6.6115396,0.72948185 6.5152052,0.86401338 6.3881798,1.0413052 6.3414338,1.1097784 6.3016493,1.176689 6.2799103,1.213341 6.2595893,1.243031 6.2563243,1.242747 A 0.51577324,0.51568045 0 0 1 6.1986397,1.2156137 C 6.1423734,1.1864912 6.0656469,1.1647559 5.9857944,1.1550958 A 1.7757944,1.775475 0 0 1 5.8373143,1.1259734 5.0014375,5.0005377 0 0 0 5.6152331,1.0805139 1.8634617,1.8631265 0 0 1 5.4434509,1.0427258 C 5.3667243,1.0177231 5.2269114,0.95677902 5.17846,0.92694627 5.137397,0.90165948 5.1308611,0.89256755 5.1050014,0.82466254 A 0.79085231,0.79071004 0 0 1 5.076442,0.74198317 c 0,-0.004548 0.074169,-0.0453174 0.1648201,-0.0904927 0.090509,-0.0451756 0.2124192,-0.10640348 0.2708164,-0.13595213 0.1477697,-0.074866 0.368998,-0.14206073 0.520036,-0.15811359 a 1.4002604,1.4000085 0 0 0 0.1484801,-0.028128 C 6.281476,0.30457824 6.4227095,0.28156438 6.524159,0.27360899 a 9.6064543,9.6047261 0 0 1 0.4792574,-0.0174737 z m -6.53128065,0.0105126 0.0666384,0.0590973 C 0.60555475,0.38512662 0.71013023,0.5107083 0.83488203,0.68061297 0.91146653,0.78488554 1.151024,1.13677 1.151024,1.1451516 c 0,0.012359 -0.02245,-0.00142 -0.20034165,-0.1227405 C 0.6096753,0.78999973 0.41814296,0.6414042 0.32621313,0.5382681 l -0.05925,-0.0666265 0.00611,-0.0524204 c 0.0117931,-0.10086312 0.0206025,-0.12075162 0.0591079,-0.13098 0.0188975,-0.004972 0.0582554,-0.0120752 0.0870989,-0.0156267 l 0.052714,-0.005967 z m 6.72309715,2.8412e-4 0.056551,0.005682 c 0.031115,0.003267 0.071895,0.009944 0.090509,0.0150584 0.030691,0.008524 0.03481,0.0136378 0.043478,0.0532728 0.0054,0.0241503 0.012078,0.0639273 0.015343,0.0882197 l 0.00568,0.044465 -0.063086,0.0681892 C 7.2473738,0.64609218 7.0608143,0.79127827 6.7561816,0.99854486 6.5643651,1.1290987 6.5241542,1.1545276 6.5241542,1.1451516 c 0,-0.0152 0.2749373,-0.41510152 0.3790865,-0.55133775 0.1086962,-0.1422028 0.164962,-0.20826104 0.2289008,-0.26806861 z M 3.4523957,0.41339673 c 0.1030126,-2.8413e-4 0.1089802,7.1035e-4 0.1697931,0.0311113 0.034669,0.0173314 0.064933,0.0345207 0.067207,0.0383564 0.00497,0.007955 -0.017335,0.2072666 -0.037795,0.33753631 C 3.6331298,0.93944759 3.5914978,1.1234162 3.5492985,1.2757054 3.5308275,1.3420477 3.5127825,1.3994403 3.5089455,1.4034179 3.5052555,1.4073966 3.4801015,1.3551174 3.4532475,1.2874964 3.3424209,1.0087733 3.2024659,0.74056257 3.0946224,0.60077482 c -0.022592,-0.0294065 -0.041205,-0.0568243 -0.041205,-0.060802 0,-0.0142061 0.1261726,-0.074724 0.2088669,-0.10043695 0.070759,-0.0220194 0.099744,-0.0259971 0.1901114,-0.0261391 z m 0.7081581,2.8412e-4 c 0.016766,-4.2619e-4 0.037795,-2.8412e-4 0.065786,0 0.1001708,8.521e-4 0.1217679,0.004262 0.1997733,0.0305431 0.083263,0.027986 0.1795971,0.0755763 0.1912481,0.0943283 0.00284,0.004832 -0.010941,0.0286962 -0.031117,0.0529885 -0.05584,0.0676209 -0.2114244,0.33412686 -0.2655593,0.45530465 -0.02657,0.059665 -0.071043,0.1657848 -0.09875,0.2358208 -0.027707,0.070178 -0.052856,0.1274285 -0.05584,0.1274285 -0.00696,0 -0.083689,-0.2872469 -0.1139532,-0.42675042 C 4.0267077,0.8668546 3.9933177,0.63330671 3.9887717,0.53912047 l -0.00284,-0.0593814 0.063939,-0.0335263 c 0.04774,-0.0250027 0.060244,-0.0312534 0.1108265,-0.0325319 z M 7.4093569,0.6311758 c 0.0051,-1.4201e-4 0.00583,0.0970275 0.00199,0.23866203 -0.0071,0.26082347 -0.028274,0.45857207 -0.06536,0.61086117 -0.012787,0.05171 -0.027136,0.1268602 -0.032254,0.1672055 A 1.6504744,1.6501775 0 0 1 7.150757,2.1711141 C 7.118079,2.2350414 7.0569799,2.3570717 7.0150645,2.4424501 6.97301,2.5279707 6.9340757,2.5972963 6.9283923,2.5967281 6.9150365,2.5954502 6.7926998,2.5461547 6.7742283,2.5346476 6.7546215,2.5224303 6.6709319,2.3505369 6.6412355,2.2613227 6.6280193,2.2215459 6.6045781,2.1212508 6.5888056,2.0385715 A 5.005558,5.0046575 0 0 0 6.5466062,1.8357088 2.7888697,2.788368 0 0 1 6.5147766,1.6739016 0.83305191,0.83290204 0 0 0 6.4639095,1.4906432 c -0.01762,-0.040771 -0.030267,-0.076713 -0.028419,-0.07998 0.00215,-0.00341 0.038789,-0.027276 0.081131,-0.053273 C 6.6241806,1.2914744 6.894571,1.0969932 6.9826641,1.0224114 7.2227899,0.81869624 7.3337593,0.71868549 7.3653026,0.67777202 c 0.019607,-0.0252867 0.039498,-0.0463117 0.044047,-0.0465958 z M 0.260143,0.6411198 c 0.008951,0.001423 0.0400684,0.0284121 0.0821259,0.0720248 0.18400175,0.18965107 0.57033436,0.4943713 0.8294997,0.6541896 0.0395,0.024435 0.07218,0.04546 0.07218,0.046596 0,0.00142 -0.012362,0.02756 -0.02728,0.058245 -0.03268,0.067337 -0.044047,0.1078242 -0.061808,0.2194838 -0.00739,0.04688 -0.021881,0.1184787 -0.03197,0.1592501 -0.00995,0.040914 -0.028417,0.1301277 -0.041063,0.198743 -0.029838,0.1618072 -0.061239,0.2589767 -0.12489386,0.3848426 l -0.0518617,0.1022837 -0.0788579,0.030543 a 1.2065968,1.2063797 0 0 1 -0.083973,0.030543 c -0.007815,0 -0.296392,-0.5742095 -0.296392,-0.5898362 0,-0.00767 -0.008525,-0.037646 -0.0188975,-0.066768 C 0.40024009,1.8663939 0.372107,1.7456422 0.3576142,1.6423641 A 2.6483464,2.6478699 0 0 0 0.32152428,1.4528551 2.481395,2.4809486 0 0 1 0.28372933,1.2346498 C 0.26937861,1.1161712 0.24948653,0.66384977 0.25758545,0.64225657 c 4.2626e-4,-8.5371e-4 0.001421,-0.001278 0.002557,-9.9332e-4 z m 2.700492,0.11052329 c 0.00611,-1.4208e-4 0.1939478,0.32247781 0.2297536,0.39421851 0.053709,0.1079662 0.2162554,0.5138336 0.2395575,0.5982177 0.00242,0.00881 -0.017476,0.029549 -0.053282,0.05583 -0.126173,0.092055 -0.3833492,0.367085 -0.5554157,0.5938139 -0.022876,0.030259 -0.044047,0.054978 -0.047173,0.055119 -0.00298,2.841e-4 -0.024723,-0.040061 -0.047883,-0.089924 C 2.629574,2.1526462 2.5865219,1.9327362 2.5865219,1.651456 c 0,-0.1547041 0.00383,-0.201158 0.025007,-0.3202049 0.013641,-0.076571 0.035948,-0.1804171 0.049873,-0.2308487 l 0.025291,-0.091771 0.061381,-0.0403453 c 0.088094,-0.057961 0.13825,-0.10512509 0.1753346,-0.16450651 0.017903,-0.0285539 0.034669,-0.0521364 0.037227,-0.0521365 z m 1.751924,0 c 0.00355,0 0.01904,0.0214514 0.034385,0.0474484 0.033248,0.0563981 0.1055701,0.12458728 0.1815863,0.17146732 0.05314,0.032816 0.055698,0.0363673 0.074027,0.0980219 0.056266,0.1887987 0.083263,0.3784498 0.083263,0.5875631 0,0.296907 -0.053851,0.547218 -0.1592787,0.7419833 a 0.43151607,0.43143844 0 0 1 -0.030265,0.051284 c -0.00142,0 -0.016482,-0.019888 -0.033816,-0.044039 a 1.36005,1.3598053 0 0 0 -0.0736,-0.091061 C 4.7368558,2.2559244 4.7213684,2.2375986 4.6155141,2.1105963 4.5161958,1.9918335 4.4117624,1.8881292 4.3201167,1.8182353 a 5.2159878,5.2150494 0 0 1 -0.07289,-0.056398 c -0.010372,-0.00867 0.089088,-0.2822747 0.1759029,-0.4838589 0.0368,-0.085521 0.1040071,-0.2190576 0.1496168,-0.29690689 0.045468,-0.0777072 0.094061,-0.161381 0.1079856,-0.18553132 0.013782,-0.0242923 0.028133,-0.0440389 0.031827,-0.0438971 z M 3.8344657,1.0033749 c 0.00526,0.00383 0.017903,0.040061 0.030265,0.088504 0.014209,0.055119 0.041631,0.1525732 0.060813,0.2163585 0.050582,0.1687681 0.078005,0.2777287 0.071611,0.2841214 -0.00313,0.00299 -0.017335,0.00171 -0.031685,-0.00327 -0.017903,-0.00639 -0.038932,-0.00597 -0.067633,0.00185 V 1.59122 a 1.1537407,1.1535331 0 0 0 -0.055556,0.016053 c -0.00767,0.00284 -0.025007,-7.088e-4 -0.038364,-0.00767 -0.027139,-0.014346 -0.074311,-0.017755 -0.1121062,-0.0081 l -0.025149,0.00639 0.023302,-0.086799 c 0.012788,-0.047732 0.0395,-0.1412084 0.059108,-0.2075507 0.019466,-0.066342 0.044757,-0.1579716 0.056266,-0.2039993 0.011651,-0.045885 0.024012,-0.089214 0.027565,-0.096033 4.262e-4,-7.088e-4 8.538e-4,-7.088e-4 0.00156,-1.42e-4 z m -1.369996,0.1470329 c 0.00355,0 0.00383,0.00923 8.539e-4,0.020741 -0.00327,0.011507 -0.015061,0.077281 -0.026428,0.1463226 -0.025007,0.1520049 -0.029554,0.4794549 -0.00853,0.6151229 0.00682,0.044891 0.010656,0.083816 0.00824,0.086231 -0.00242,0.00242 -0.020602,-0.015627 -0.040494,-0.039919 C 2.3277827,1.8925331 2.0365058,1.6075592 1.9788188,1.5687766 A 2.5120856,2.5116337 0 0 0 1.860603,1.494621 L 1.800927,1.4602425 1.895841,1.4167721 A 7.728642,7.7272516 0 0 1 2.1383817,1.3132094 c 0.081131,-0.032958 0.1862751,-0.083248 0.2335899,-0.1115177 0.047315,-0.02827 0.088946,-0.051284 0.092356,-0.051284 z m 2.7453913,0.00284 c 0.00227,-0.00242 0.040921,0.018184 0.085962,0.04546 0.079995,0.048016 0.1481959,0.079838 0.2908509,0.135668 0.038365,0.014916 0.1182155,0.049295 0.1776079,0.076287 l 0.1079851,0.048727 -0.084683,0.051142 c -0.046603,0.027986 -0.1013078,0.063501 -0.121768,0.078986 -0.051861,0.039635 -0.2002,0.1853893 -0.3228202,0.3172217 -0.056834,0.061086 -0.1059964,0.1122279 -0.1089802,0.1136485 -0.00299,0.00142 -4.262e-4,-0.032106 0.00568,-0.074298 0.030552,-0.2061307 0.024869,-0.46184 -0.015342,-0.6855856 -0.01023,-0.056824 -0.016766,-0.105125 -0.014493,-0.1073979 z m -3.6047292,0.451327 0.07289,0.036652 c 0.1116802,0.056114 0.2387053,0.145186 0.3316297,0.2324113 0.116795,0.109955 0.3465485,0.3096924 0.4305215,0.3746142 0.038648,0.029833 0.074311,0.062933 0.078858,0.074156 0.042483,0.1011472 0.08582,0.1939129 0.1213416,0.2579823 0.023302,0.042192 0.040353,0.082111 0.037795,0.088788 -0.00554,0.014206 -0.025434,0.015911 -0.038079,0.00327 C 2.6268744,2.6593769 2.3763762,2.5363523 2.338155,2.5244192 2.3145687,2.51689 2.2938241,2.4988482 2.2659752,2.460776 2.2183763,2.3958542 1.9826551,2.1238079 1.8743853,2.0088808 A 1.5100931,1.5098214 0 0 1 1.6419322,1.6773111 l -0.036658,-0.072735 z m 4.4534108,0.00909 c 0.00113,0 0.00156,1.421e-4 0.00156,8.537e-4 0,0.01378 -0.076869,0.152005 -0.1240412,0.2226092 -0.025578,0.038357 -0.070049,0.09447 -0.099319,0.1250135 -0.02913,0.030685 -0.083833,0.091771 -0.1212014,0.13581 C 5.67803,2.1419902 5.6095444,2.2208337 5.5636507,2.27297 5.5177567,2.325106 5.4555227,2.3995461 5.4255427,2.4386128 5.3735447,2.5062328 5.3671507,2.5113478 5.2908502,2.542885 5.2024722,2.579679 5.1400967,2.610506 5.0677747,2.6531241 c -0.089088,0.052563 -0.09193,0.0331 -0.015772,-0.112228 0.033106,-0.063075 0.071469,-0.142771 0.085252,-0.1771497 0.020461,-0.051994 0.032396,-0.068331 0.071185,-0.096885 0.025718,-0.018894 0.083405,-0.066058 0.1278776,-0.1045567 C 5.3809329,2.1236657 5.4607856,2.0549085 5.5137836,2.009449 A 5.3424446,5.3414835 0 0 0 5.6797407,1.8601432 c 0.03822,-0.03651 0.10287,-0.088788 0.143649,-0.1163477 0.080989,-0.054409 0.2182446,-0.1299856 0.2351529,-0.1301277 z m -4.5976284,0.1865258 0.034385,0.059665 c 0.01904,0.032674 0.052572,0.085805 0.074169,0.1176263 0.038932,0.05725 0.2539082,0.2795755 0.388748,0.4017477 l 0.069622,0.062933 -0.04632,-0.00568 c -0.2387047,-0.030826 -0.4703054,-0.030258 -0.6682316,0.00213 -0.061097,0.00994 -0.1227626,0.021167 -0.1368291,0.024719 -0.014066,0.00355 -0.025575,0.00369 -0.025575,2.842e-4 0,-0.00355 0.02316,-0.045175 0.051435,-0.09234 0.028275,-0.047448 0.078431,-0.1525732 0.1115374,-0.2336899 0.033106,-0.081117 0.079568,-0.1903613 0.103581,-0.2424977 z M 6.2064545,1.81241 c 0.014634,-1.42e-4 0.065786,0.1078241 0.1429386,0.3015949 0.051152,0.1288491 0.084257,0.1973224 0.1378239,0.2849739 0.020176,0.032816 0.036802,0.061938 0.036942,0.064638 -1.418e-4,0.00568 -0.00568,0.00469 -0.1440754,-0.020315 C 6.1767581,2.4065081 5.9251234,2.404093 5.6888341,2.436625 l -0.04163,0.00582 0.032538,-0.034379 C 5.6975021,2.389172 5.7406971,2.350247 5.7753671,2.321267 5.8900307,2.22566 6.0970504,1.9959479 6.1480593,1.9078702 c 0.025578,-0.044039 0.050722,-0.086373 0.05584,-0.094044 a 0.00284173,0.00284121 0 0 1 0.00258,-0.00142 z M 3.8375917,1.863552 c 0.054987,8.538e-4 0.1633992,0.014206 0.1670934,0.020172 0.00227,0.00383 -0.00995,0.064638 -0.027564,0.1353838 -0.0422,0.1699047 -0.1119641,0.5232097 -0.1260306,0.6367162 -0.00611,0.049721 -0.012362,0.090493 -0.013782,0.090493 -0.00142,0 -0.00739,-0.036652 -0.013356,-0.081259 C 3.8091744,2.5535416 3.7367104,2.1856043 3.6976367,2.0243654 3.680018,1.9513462 3.6673723,1.8882712 3.6699298,1.8842935 c 0.00426,-0.00682 0.1241834,-0.021593 0.1676619,-0.020883 z m 0.3412912,0.094187 c 0.015203,0 0.1162266,0.083106 0.1878381,0.1548462 0.062518,0.062507 0.1197788,0.1339633 0.2952553,0.3682214 0.041631,0.055404 0.098892,0.1508685 0.098892,0.1645064 0,0.033242 -0.225491,0.2704836 -0.3896006,0.4098452 A 4.5065509,4.5057402 0 0 0 4.1317103,3.2828814 L 3.989624,3.4283516 3.994594,3.3678338 c 0.00284,-0.0331 0.00909,-0.095607 0.014209,-0.1389355 C 4.013913,3.1854283 4.022301,3.0351275 4.027274,2.8947715 4.032534,2.7544155 4.041059,2.6041153 4.046458,2.5606447 4.067487,2.3925868 4.1629688,1.9577389 4.1788829,1.957739 Z m -0.6871293,0.00341 c 0.00284,-1.42e-4 0.00497,2.842e-4 0.00639,0.00185 0.020887,0.023014 0.1129586,0.4624077 0.130151,0.6209474 0.00497,0.046028 0.011367,0.158824 0.014493,0.2505952 0.00625,0.1940549 0.019466,0.3940765 0.033533,0.5038894 0.0054,0.042476 0.00824,0.078844 0.00611,0.080975 -0.00213,0.00213 -0.064223,-0.057251 -0.1378237,-0.1316903 A 5.9974625,5.9963835 0 0 0 3.3041997,3.0581414 9.0820137,9.0803798 0 0 1 3.1335541,2.9038634 C 3.0586746,2.8334013 2.914315,2.6637808 2.914315,2.6458811 c 0,-0.018894 0.068628,-0.1324006 0.1139531,-0.1883725 0.022308,-0.02756 0.077721,-0.099869 0.1230468,-0.1609548 C 3.2646997,2.1436964 3.4504065,1.9627111 3.4917536,1.961149 Z m 2.5400768,0.6227943 c 0.1906796,0.00142 0.3842011,0.029833 0.5628036,0.083816 0.075164,0.02273 0.075306,0.02273 0.1109694,0.080832 0.048166,0.077991 0.099887,0.1328268 0.1648202,0.1750189 l 0.053993,0.034947 -0.035524,0.022446 c -0.270248,0.1721776 -0.4518342,0.2603973 -0.8090391,0.3923717 -0.088662,0.032674 -0.1619782,0.059381 -0.1626887,0.059381 -6.981e-4,0 -0.02401,-0.030117 -0.051861,-0.067195 C 5.837456,3.328625 5.7811902,3.2634191 5.7402694,3.2206588 5.6709313,3.148634 5.4191543,2.9297184 5.2870139,2.8267244 5.2554707,2.8021479 5.2284743,2.778992 5.2270535,2.7751564 5.2233592,2.76507 5.3942889,2.6856581 5.4776939,2.6589507 5.5170525,2.6461654 5.6149491,2.6245722 5.6955121,2.6106502 a 1.9045246,1.904182 0 0 1 0.3363183,-0.026707 z m -4.379668,0.0017 c 0.1530269,0 0.2026151,0.00355 0.3202625,0.023866 0.076585,0.013212 0.174482,0.035231 0.2178183,0.048869 0.080421,0.025145 0.26016,0.1048409 0.2594496,0.1147851 -1.421e-4,0.00312 -0.024865,0.024576 -0.055129,0.047448 C 2.1686461,2.9920831 1.8937091,3.2487868 1.8006426,3.375363 1.7776246,3.4066163 1.75688,3.4321872 1.7543224,3.4319031 1.7229214,3.4300563 1.254605,3.2435306 1.1464773,3.1896896 1.0745816,3.1540324 0.75218783,2.9658019 0.75218783,2.9596932 c 0,-0.00256 0.0235862,-0.01932 0.0521457,-0.03722 0.059392,-0.036936 0.10656466,-0.087367 0.16453585,-0.1753029 l 0.0403525,-0.061086 0.091788,-0.025571 A 3.1632671,3.162698 0 0 1 1.3319001,2.61065 C 1.4509684,2.589483 1.4974306,2.58579 1.6521626,2.585647 Z M 5.0267118,2.90528 5.0934928,2.945057 c 0.036943,0.021735 0.099176,0.06478 0.1385341,0.095607 0.039358,0.030969 0.113669,0.087225 0.1645362,0.1251555 0.1410917,0.1048408 0.3363178,0.3116813 0.3135844,0.3324221 -0.00995,0.00909 -0.2185287,0.058245 -0.3878958,0.091629 -0.1830071,0.035799 -0.2750791,0.044891 -0.5753074,0.05654 -0.1378237,0.0054 -0.3006546,0.015627 -0.3618938,0.023014 -0.061097,0.00739 -0.1173632,0.01378 -0.1248938,0.013922 -0.00739,0 0.061381,-0.076145 0.153169,-0.1693364 A 7.203775,7.202479 0 0 0 4.6618346,3.2502074 C 4.7524853,3.1450825 4.8860464,3.0149549 4.9708719,2.9488966 Z m -2.3816504,0.0081 c 0.032964,0 0.2711007,0.2210465 0.3896006,0.3618287 0.027991,0.0331 0.1280198,0.1385092 0.2223651,0.2341161 0.1602733,0.1626595 0.169651,0.1740244 0.143223,0.1740244 -0.01563,0 -0.02998,-0.0017 -0.032254,-0.00398 -0.00739,-0.00724 -0.3554998,-0.032244 -0.5281346,-0.037643 A 4.5086822,4.5078711 0 0 1 2.5848168,3.6272366 C 2.4256802,3.6099052 1.9866335,3.5179919 1.9638997,3.497109 1.9388926,3.4745213 2.1344033,3.2712325 2.2973763,3.1503388 2.3584734,3.1048793 2.4309374,3.0496177 2.45836,3.0274562 2.5119266,2.9838436 2.6274427,2.9133814 2.6450614,2.9133814 Z M 0.54403142,3.052601 c 0.005967,0 0.0160555,0.00625 0.0224498,0.013922 0.0341006,0.041197 0.34598012,0.224598 0.49176068,0.2893777 0.058682,0.026139 0.1619784,0.069326 0.2297536,0.096317 0.067775,0.026991 0.1200629,0.051994 0.1160844,0.055688 -0.00952,0.00895 -0.18116,0.056398 -0.3319135,0.092198 a 3.7823371,3.7816566 0 0 1 -0.42242279,0.073445 v 2.842e-4 c -0.0484516,0.00568 -0.10514386,0.012075 -0.12617262,0.014774 -0.0373687,0.00469 -0.0390737,0.00383 -0.0628021,-0.036652 C 0.40151886,3.550808 0.39484081,3.413009 0.4415872,3.258447 0.46829942,3.1703693 0.52683897,3.052601 0.54403142,3.052601 Z m 6.58541528,0.00455 c 0.00311,-9.933e-4 0.00554,-8.537e-4 0.00696,0 0.016906,0.01037 0.071043,0.126292 0.097613,0.2088293 0.020745,0.06478 0.025289,0.097027 0.026142,0.1809854 8.593e-4,0.092908 -0.0014,0.1068297 -0.024725,0.1572612 -0.01421,0.030543 -0.032393,0.062791 -0.040492,0.071883 -0.00824,0.00909 -0.019467,0.016053 -0.025009,0.015627 -0.1787441,-0.017758 -0.4021039,-0.05242 -0.5362331,-0.08339 -0.078147,-0.018042 -0.3350397,-0.085805 -0.3695667,-0.097596 -0.00767,-0.00256 0.061239,-0.035231 0.1531689,-0.072167 0.09193,-0.036936 0.2078725,-0.086657 0.2576027,-0.1100971 0.1034387,-0.049153 0.3546476,-0.1987429 0.4126184,-0.245765 0.016057,-0.013212 0.032393,-0.023014 0.041915,-0.025571 z M 3.8367391,3.138408 c 0.00185,-0.00185 0.00853,0.025287 0.014919,0.05995 0.010799,0.057535 0.072748,0.2496007 0.1077015,0.3331324 0.010941,0.026281 0.016482,0.031538 0.022734,0.021309 a 0.08297839,0.08296347 0 0 0 0.00838,-0.03651 c 0,-0.020599 0.015061,-0.031254 0.1231887,-0.087651 a 3.2060351,3.2054583 0 0 0 0.1837206,-0.102994 c 0.062234,-0.039635 0.1015917,-0.057108 0.1015917,-0.044891 0,0.00852 -0.044899,0.087083 -0.060529,0.1056932 -0.00639,0.00767 -0.03339,0.05583 -0.060244,0.1068297 -0.096619,0.1843948 -0.1005972,0.1900772 -0.1298669,0.1900772 -0.014635,0 -0.028844,0.00355 -0.031543,0.00796 -0.0044,0.0071 0.017335,0.018468 0.096619,0.049721 0.060671,0.024151 0.1878381,0.063359 0.2504981,0.077707 0.076443,0.017473 0.074737,0.020172 -0.027707,0.041056 -0.073601,0.014916 -0.3206887,0.1049829 -0.3182733,0.1159216 9.935e-4,0.00511 0.01563,0.011365 0.032112,0.013922 0.027707,0.00426 0.034953,0.013922 0.092356,0.1207517 0.034385,0.063785 0.084115,0.1524311 0.1108273,0.1971803 0.02657,0.044749 0.045894,0.083958 0.042626,0.087225 -0.00313,0.00312 -0.042343,-0.015911 -0.0871,-0.042618 -0.044757,-0.026566 -0.1337032,-0.076571 -0.1974999,-0.1108079 -0.106849,-0.057535 -0.1162267,-0.06478 -0.1204892,-0.092339 -0.00256,-0.016621 -0.00881,-0.031253 -0.013924,-0.032248 -0.010941,-0.00242 -0.1013075,0.2447707 -0.1162265,0.318216 -0.020887,0.1024258 -0.023444,0.1041306 -0.040779,0.027702 -0.014209,-0.062507 -0.053709,-0.189367 -0.077721,-0.250311 -0.031259,-0.079128 -0.042626,-0.1011473 -0.04973,-0.096743 -0.00426,0.0027 -0.00796,0.017047 -0.00796,0.031538 0,0.029265 -0.00568,0.033242 -0.1901115,0.1298436 -0.051151,0.02685 -0.099176,0.053983 -0.1068489,0.060234 -0.018613,0.015627 -0.097187,0.060518 -0.1057122,0.060518 -0.01222,0 0.00526,-0.039067 0.044899,-0.1012893 0.021313,-0.033526 0.067633,-0.1163477 0.1030126,-0.1839687 0.056408,-0.1079661 0.067065,-0.1230246 0.087667,-0.1231666 0.012788,0 0.029128,-0.00369 0.036374,-0.00838 0.00995,-0.00625 0.00497,-0.011791 -0.022023,-0.023014 C 3.4606367,3.9282633 3.2512015,3.8602162 3.192662,3.847857 L 3.132417,3.8353556 3.187831,3.823707 C 3.243529,3.812342 3.4901906,3.732646 3.5377895,3.7107687 c 0.031543,-0.01449 0.024865,-0.027418 -0.014209,-0.027418 -0.028559,0 -0.031543,-0.00426 -0.1014496,-0.1368044 C 3.3823469,3.4712533 3.3333269,3.382892 3.313009,3.350076 3.27564,3.289558 3.269957,3.27521 3.283597,3.27521 c 0.00426,0 0.034669,0.016621 0.067491,0.036936 0.032822,0.020173 0.1211996,0.069326 0.1965053,0.1089606 0.1324245,0.069894 0.1368292,0.073161 0.1368292,0.1018575 0,0.042618 0.01364,0.044607 0.03069,0.00469 0.031828,-0.073871 0.090225,-0.2531517 0.1037235,-0.3179314 0.00796,-0.037504 0.016056,-0.06961 0.017903,-0.071315 z m -2.2381432,0.5270453 -0.00639,0.025287 c -0.00966,0.038072 -0.00611,0.085663 0.00853,0.1152112 0.011367,0.022872 0.011367,0.030827 0,0.057961 a 0.16624096,0.16621105 0 0 0 -0.00909,0.1093869 c 0.00568,0.021309 0.00426,0.025571 -0.01023,0.025003 -0.01891,-8.523e-4 -0.1503398,-0.03651 -0.2958361,-0.080548 -0.051151,-0.015343 -0.1378237,-0.039635 -0.1932374,-0.053841 -0.055129,-0.014206 -0.0946295,-0.028696 -0.087951,-0.032106 0.00682,-0.00341 0.04973,-0.015627 0.095766,-0.027276 0.045894,-0.011507 0.1376817,-0.036936 0.204036,-0.05654 a 11.711321,11.709214 0 0 1 0.2074461,-0.058813 l 0.086957,-0.023582 z m 4.4795546,7.087e-4 0.086104,0.023014 c 0.047317,0.012785 0.1403812,0.039351 0.2067356,0.058813 a 6.8073543,6.8061297 0 0 0 0.2041783,0.05654 c 0.078858,0.019888 0.1226202,0.035515 0.101876,0.036367 -0.015203,7.088e-4 -0.2671226,0.069041 -0.4248385,0.1150692 -0.080705,0.023724 -0.1526007,0.04276 -0.1595627,0.04276 -0.00981,0 -0.011369,-0.011081 -0.00753,-0.049011 0.00371,-0.036083 8.592e-4,-0.057677 -0.010515,-0.079554 -0.014779,-0.028412 -0.014634,-0.032674 0,-0.07103 0.011369,-0.029549 0.01421,-0.054267 0.00966,-0.087225 z m -4.1931087,0.00299 c 0.00398,-0.00242 0.067065,0.00994 0.1400971,0.027418 0.1612679,0.039067 0.5292714,0.1115177 0.6408092,0.1264341 0.044615,0.00582 0.081273,0.012075 0.081273,0.013496 0,0.00142 -0.040779,0.00753 -0.090509,0.013638 -0.1136687,0.013921 -0.4668952,0.083673 -0.6371145,0.1258651 -0.1499011,0.03722 -0.134982,0.035231 -0.1396709,0.020599 C 1.8760904,3.983809 1.863871,3.8661828 1.863871,3.8364921 1.8634447,3.7910327 1.8783638,3.6732643 1.8850418,3.6691445 Z m 3.877961,0.00199 c 0.035948,-0.00284 0.035379,0.013353 0.035948,0.057677 4.264e-4,0.02344 0.00467,0.055972 0.00952,0.072167 0.00554,0.018468 0.00554,0.044039 0,0.068473 a 0.40821392,0.40814048 0 0 0 -0.00952,0.072735 C 5.7986667,3.960662 5.7963708,3.982966 5.7939608,3.991915 5.7885608,4.012087 5.7897208,4.01223 5.665799,3.979698 5.5275696,3.9433218 5.129444,3.8639098 5.0211743,3.8508402 c -0.048309,-0.00568 -0.08923,-0.012075 -0.090935,-0.01378 -0.00185,-0.00185 0.033532,-0.0081 0.078432,-0.014206 0.1217679,-0.016479 0.4900558,-0.089498 0.641946,-0.1272864 0.05584,-0.013922 0.090651,-0.02273 0.1122481,-0.024435 z m 1.4293882,0.3082718 0.03126,0.065206 C 7.243542,4.0858069 7.257328,4.1312664 7.261162,4.1680601 7.272955,4.2795778 7.234875,4.4442262 7.170795,4.5595795 7.153889,4.5898381 7.136125,4.6156935 7.131297,4.616972 7.126627,4.6182499 7.102314,4.6027659 7.077304,4.5823089 7.0109471,4.5284699 6.7530604,4.3770332 6.6453588,4.3287325 6.5207494,4.2726185 6.2782076,4.1753069 6.2632891,4.1753069 c -0.05854,0 0.1497587,-0.06208 0.3860479,-0.1149271 a 4.4444592,4.4436596 0 0 1 0.4850831,-0.075292 z m -6.71215633,0.00554 0.0593921,0.00299 c 0.0942032,0.00455 0.3277931,0.037646 0.44430385,0.063075 0.13938658,0.030259 0.42682718,0.1071138 0.42682718,0.1139327 0,0.00299 -0.057545,0.028128 -0.1277356,0.05583 -0.070048,0.027701 -0.1760449,0.072166 -0.2355791,0.098732 -0.12063123,0.053983 -0.38789555,0.2095396 -0.45481815,0.2649432 -0.0238703,0.019888 -0.0457519,0.036083 -0.0485933,0.036083 -0.007957,0 -0.0514353,-0.071457 -0.070759,-0.1164898 C 0.42894152,4.4006153 0.4145908,4.3307214 0.41388037,4.2204822 0.41345411,4.1143629 0.41373829,4.1119478 0.44656022,4.049015 Z M 3.4293778,3.9884932 3.2838814,4.1305539 A 4.5061246,4.505314 0 0 0 3.056117,4.3700722 C 2.9521099,4.4923865 2.8191171,4.6263498 2.7269031,4.7016419 2.6878294,4.7334635 2.6501765,4.7596027 2.6433564,4.7593186 2.6275848,4.7586083 2.5227251,4.6935445 2.4688744,4.6510683 A 13.151934,13.149568 0 0 0 2.3061856,4.5279016 2.2232242,2.2228243 0 0 1 2.1133745,4.3655262 C 2.0414788,4.2939276 1.9582163,4.1933486 1.9582163,4.1780061 c 0,-0.015911 0.4352103,-0.1116598 0.6032984,-0.1325427 0.043478,-0.0054 0.1938056,-0.014206 0.3341869,-0.019178 0.1403813,-0.00511 0.2907086,-0.013496 0.3340449,-0.01861 0.043478,-0.00511 0.1058543,-0.011365 0.1391025,-0.014206 z m 0.8400141,0.00114 c 0.012504,0 0.071896,0.00611 0.1318561,0.013638 0.059676,0.00739 0.2287589,0.0179 0.3756761,0.023298 0.2882931,0.01037 0.3402967,0.015627 0.5314028,0.051852 0.1231886,0.023298 0.4002569,0.086515 0.4075035,0.092908 0.00199,0.00185 -0.00796,0.021167 -0.022308,0.04276 -0.046179,0.069752 -0.2014787,0.2207623 -0.3063383,0.2980434 -0.056124,0.041197 -0.1321401,0.099016 -0.1692247,0.1284229 -0.037084,0.029407 -0.094061,0.068189 -0.1264568,0.086231 -0.032254,0.018184 -0.062376,0.032674 -0.067065,0.032674 -0.022307,0 -0.215687,-0.1772918 -0.3191258,-0.2926451 C 4.6415159,4.3957852 4.5120753,4.2594069 4.4178721,4.1636579 4.2755016,4.0190401 4.2503523,3.9896335 4.2693919,3.9896332 Z M 5.9255498,4.243494 a 0.00696223,0.00696098 0 0 1 0.00424,0 c 0.1270254,0.039493 0.4560971,0.1704729 0.5899422,0.2346843 0.078858,0.038072 0.4035255,0.2270131 0.4035255,0.2351105 0,0.00256 -0.018898,0.014632 -0.041915,0.026991 C 6.8242259,4.7703971 6.7479259,4.8492408 6.7053,4.922118 6.671768,4.979653 6.667504,4.983346 6.617917,4.997126 6.589358,5.005086 6.559662,5.013747 6.551847,5.016304 6.52201,5.026244 6.4027982,5.049546 6.2965175,5.066452 6.1592623,5.0883289 5.879068,5.0898919 5.7446548,5.069292 5.5450428,5.03861 5.3681452,4.9840587 5.2625751,4.9205575 l -0.041347,-0.025003 0.026428,-0.019178 c 0.030691,-0.022304 0.058966,-0.045744 0.276074,-0.229144 0.176755,-0.1494479 0.2429671,-0.2153641 0.3321977,-0.3310015 0.03481,-0.045317 0.057971,-0.069468 0.069622,-0.072735 z m -2.2387117,0.00142 -0.00611,0.046312 C 3.6660933,4.4047351 3.6480487,4.6587397 3.6430753,4.8248087 3.63455,5.1001224 3.6118161,5.2580939 3.5348055,5.5808556 3.5188919,5.6471981 3.5029782,5.7047327 3.499284,5.7087103 3.4893381,5.7196491 3.3931458,5.645067 3.3091727,5.5613936 3.2686782,5.5211904 3.1935145,5.4322605 3.1420793,5.363929 3.0907861,5.2955979 3.0355145,5.2222945 3.0191746,5.2009854 3.0028347,5.1796763 2.9705811,5.1313757 2.9478473,5.0935875 l -0.041347,-0.068473 0.043336,-0.055404 c 0.065928,-0.08481 0.1962211,-0.2186314 0.301223,-0.3091241 A 7.5098287,7.5084777 0 0 0 3.5161924,4.4119801 Z m -1.9289635,5.72e-4 c 0.00256,-2.841e-4 0.00426,0 0.00469,5.691e-4 0.00383,0.00426 0.029128,0.03722 0.056408,0.072877 0.069907,0.091629 0.1736295,0.1960438 0.2924137,0.2952022 A 6.6340088,6.6328154 0 0 1 2.315138,4.7875907 c 0.02586,0.023014 0.066781,0.056114 0.090935,0.073587 0.024297,0.017332 0.044189,0.032674 0.044189,0.034378 0,0.00156 -0.022023,0.014206 -0.048878,0.028412 C 2.259155,4.9979806 2.1380975,5.0354847 1.9398871,5.0661698 1.7851552,5.090178 1.5176067,5.090036 1.3638693,5.0656015 A 2.1989275,2.1985319 0 0 1 1.0666248,5.0006798 C 1.0079432,4.9833484 1.0038227,4.980081 0.97114282,4.9272344 0.92425434,4.8512319 0.85605292,4.778923 0.79964464,4.7456808 c -0.0260017,-0.015343 -0.047457,-0.030685 -0.047457,-0.034378 0,-0.00355 0.0196079,-0.017758 0.0439046,-0.031679 0.0241549,-0.01378 0.10770169,-0.062507 0.18556495,-0.1081086 C 1.0595205,4.5260549 1.1930816,4.4587181 1.2786175,4.4219244 1.4675923,4.3406656 1.7199376,4.2481841 1.7578746,4.2454849 Z m 2.2345911,0.017048 c 0.00867,-0.00341 0.051435,0.035231 0.1722086,0.15442 a 9.5383948,9.5366789 0 0 0 0.2905665,0.2746021 2.1923915,2.1919971 0 0 1 0.273374,0.2846897 l 0.03609,0.045317 -0.027423,0.052136 a 0.96647098,0.96629711 0 0 1 -0.073316,0.1129383 c -0.025291,0.0331 -0.088378,0.1164898 -0.1403813,0.1852471 -0.094487,0.1252978 -0.2097193,0.2460494 -0.2952552,0.3096927 -0.025007,0.018465 -0.048167,0.03381 -0.051719,0.03381 -0.00767,0 -0.066781,-0.2487485 -0.097897,-0.4116922 C 4.0437589,5.1200108 4.0372229,5.0539526 4.0274189,4.7738088 4.0223038,4.6308957 4.0122157,4.463122 4.0046851,4.4010414 A 2.3283681,2.3279492 0 0 1 3.9907607,4.266794 c 0,-0.00213 4.262e-4,-0.00369 0.0017,-0.00426 z M 3.83816,4.928797 c 0.0017,0.00185 0.0081,0.04276 0.013782,0.090919 0.013498,0.1119438 0.083831,0.4665274 0.1260305,0.6344435 0.035522,0.1419184 0.035237,0.1439072 -0.024723,0.1431968 a 0.372124,0.37205705 0 0 0 -0.06536,0.00568 l -0.04561,0.00952 a 0.1098327,0.10981294 0 0 1 -0.041915,-0.00554 0.31443696,0.3143804 0 0 0 -0.070475,-0.00909 C 3.6588465,5.7966363 3.6594145,5.7983521 3.6966415,5.6491883 3.7342945,5.4973254 3.8074688,5.1292462 3.8239508,5.007358 3.8300608,4.962467 3.8363128,4.927094 3.8381598,4.928799 Z M 2.6636747,4.99656 c 0.00568,-5.691e-4 0.00881,4.262e-4 0.011083,0.00284 0.00867,0.00852 0.00909,0.015627 0.00114,0.02827 A 2.403958,2.4035255 0 0 0 2.5446064,5.2873583 c -0.03268,0.07927 -0.036943,0.08481 -0.1051439,0.1370888 -0.039073,0.029832 -0.113669,0.091913 -0.1659567,0.1377986 -0.052146,0.046025 -0.1307194,0.1143589 -0.1747662,0.1518629 -0.044047,0.037504 -0.1051438,0.092055 -0.1358345,0.1211779 -0.063086,0.060234 -0.1609838,0.1277129 -0.2674064,0.1845372 -0.040069,0.021311 -0.076158,0.038782 -0.080279,0.038782 -0.011083,0 0.071185,-0.1504422 0.1292985,-0.236673 0.027564,-0.040774 0.079852,-0.1054094 0.1163686,-0.1436237 0.036516,-0.038358 0.103723,-0.11308 0.1491906,-0.1659267 0.04561,-0.05299 0.1143795,-0.1328272 0.153027,-0.177292 0.038505,-0.044607 0.085536,-0.1019996 0.1042913,-0.1277126 0.026996,-0.036936 0.045468,-0.050858 0.087667,-0.067337 0.029412,-0.011507 0.1108273,-0.050573 0.1810179,-0.086657 0.075874,-0.039067 0.1108273,-0.05512 0.1275941,-0.056824 z m 2.3411558,2.841e-4 c 0.013214,-0.00185 0.050582,0.014348 0.1339874,0.057393 a 2.4055209,2.4050882 0 0 0 0.1795971,0.085236 c 0.042626,0.015911 0.057971,0.028412 0.090367,0.072593 0.047317,0.064496 0.2820417,0.3356895 0.391306,0.4520372 0.043478,0.046171 0.1011655,0.116774 0.1283036,0.1568354 0.046888,0.069467 0.1317141,0.2184894 0.1317141,0.2315588 0,0.011367 -0.013356,0.00611 -0.083547,-0.031824 A 1.5007154,1.5004455 0 0 1 5.6652474,5.799061 C 5.5495893,5.6902426 5.2779204,5.4552743 5.213129,5.4076836 5.1690823,5.3754362 5.1567208,5.3596672 5.140665,5.317049 5.1301507,5.2886368 5.0919294,5.2076622 5.0558395,5.1372002 5.0069618,5.0417353 4.9927532,5.0065043 5.0005679,4.998833 a 0.00696223,0.00696098 0 0 1 0.00426,-0.00199 z m -4.26258871,0.078133 c 0.004264,0 0.0419154,0.012928 0.0829784,0.028696 0.0679173,0.025855 0.0770108,0.03239 0.10230212,0.073445 0.0298382,0.048443 0.0909352,0.1885146 0.11580029,0.2653693 0.00838,0.025853 0.025434,0.102852 0.037653,0.1714673 0.012362,0.068473 0.03268,0.1683423 0.045325,0.2218989 0.012788,0.053559 0.026002,0.1203258 0.029412,0.1484539 0.00966,0.079554 0.031259,0.1561246 0.061097,0.2147953 0.014919,0.029547 0.026996,0.055404 0.026996,0.057677 0,0.00215 -0.029838,0.021595 -0.066496,0.04333 -0.1460647,0.086657 -0.38178584,0.2595446 -0.56806098,0.41638 A 4.8188566,4.8179897 0 0 0 0.35619295,6.9452089 c -0.0730324,0.073445 -0.0951978,0.091487 -0.0986079,0.078701 -0.004547,-0.017756 0.007531,-0.3881101 0.016482,-0.5013324 A 2.4268339,2.4263973 0 0 1 0.32948075,6.1793593 C 0.34141595,6.1309176 0.35434585,6.0641478 0.35789805,6.0309059 0.37395375,5.8798951 0.44116065,5.6584226 0.5160401,5.5106795 0.545594,5.4522906 0.6068332,5.3304027 0.65201667,5.23991 0.69720007,5.149275 0.73769467,5.0751196 0.74224147,5.0751196 Z m 6.19496201,0.00171 c 0.00183,0.00199 0.030831,0.059665 0.064508,0.1285649 0.033672,0.068757 0.067917,0.1375148 0.076016,0.1528574 0.098466,0.1842527 0.128304,0.2486063 0.1594209,0.3435026 0.038365,0.1173422 0.070333,0.2531525 0.080137,0.3385307 0.00328,0.027985 0.016057,0.094897 0.028419,0.1485957 0.035519,0.1559827 0.049729,0.2693473 0.060386,0.4776082 0.0054,0.1071136 0.00881,0.2362472 0.0071,0.2865365 l -0.00285,0.091629 -0.050867,-0.058529 C 7.3154267,6.9351232 7.0149147,6.6708907 6.8957041,6.5781249 6.8132941,6.5137712 6.5825461,6.3531005 6.5078087,6.3077831 c -0.042199,-0.025569 -0.076727,-0.047873 -0.076727,-0.049865 0,-0.00199 0.014634,-0.036796 0.032678,-0.077424 0.021739,-0.04972 0.038789,-0.1099546 0.051152,-0.1836841 0.01037,-0.060376 0.026572,-0.1431974 0.036373,-0.1839691 0.00995,-0.040769 0.028419,-0.1306955 0.040776,-0.1994531 0.02799,-0.1541357 0.056976,-0.2433497 0.1233307,-0.3771712 l 0.051007,-0.1031361 0.083547,-0.029975 c 0.045894,-0.016479 0.085252,-0.028412 0.087099,-0.026423 z M 6.520323,5.2073808 c 0.00172,0.0017 -0.011933,0.02827 -0.030267,0.058529 A 1.7510714,1.7507564 0 0 0 6.3579162,5.5368194 c -0.014634,0.039491 -0.052714,0.1302697 -0.084684,0.2017264 -0.031829,0.071314 -0.05925,0.1314065 -0.06067,0.1331112 -0.0014,0.00172 -0.011938,-0.015061 -0.023017,-0.03722 C 6.1310056,5.7186574 6.0642249,5.6348417 5.9039517,5.4751654 5.8137265,5.385241 5.71995,5.2954585 5.6957951,5.2757121 c -0.024155,-0.019888 -0.044047,-0.038357 -0.044047,-0.041908 0,-0.00341 0.034386,-0.00128 0.076442,0.00497 0.2060251,0.030401 0.4620646,0.024434 0.6858507,-0.015769 0.056692,-0.010229 0.1045756,-0.017332 0.1062807,-0.015627 z m -5.3570795,0.00114 c 0.017335,0.00128 0.055414,0.00682 0.097897,0.01449 0.223786,0.040203 0.4795413,0.04617 0.6857084,0.015769 0.042199,-0.00625 0.075732,-0.00909 0.074453,-0.00611 -0.00142,0.00284 -0.054703,0.053983 -0.1185,0.1135065 -0.1368291,0.1272867 -0.2729477,0.2660797 -0.3125898,0.318216 -0.015487,0.020457 -0.051151,0.075292 -0.079,0.121746 L 1.4603451,5.870806 1.4154461,5.7723579 C 1.3907236,5.7180867 1.3486661,5.6189282 1.3219539,5.5520177 1.2665402,5.4133659 1.2379809,5.3545531 1.185551,5.2717316 1.1653747,5.2396259 1.150882,5.2114979 1.1534395,5.2090828 c 7.089e-4,-5.691e-4 0.00398,-9.933e-4 0.0098,-5.691e-4 z m 3.7336015,0.011365 0.025007,0.04134 c 0.037795,0.063075 0.097897,0.2237456 0.1173633,0.3135277 0.073459,0.3395256 0.061523,0.6794764 -0.03609,1.0266731 -0.010088,0.035942 -0.025434,0.069183 -0.034101,0.074298 -0.113669,0.066485 -0.1919585,0.1369465 -0.2279064,0.2045679 -0.012077,0.022728 -0.024013,0.041199 -0.02657,0.041199 -0.0081,0 -0.1970737,-0.3244669 -0.2351528,-0.4034524 C 4.4150301,6.3844985 4.2838844,6.0553437 4.2443844,5.9281994 4.2415444,5.9186797 4.2654134,5.894534 4.3171324,5.8547545 4.4327911,5.7655346 4.4990033,5.6991921 4.6484781,5.5223266 4.8317695,5.305258 4.8553557,5.2769879 4.8776633,5.2463028 Z m -2.12078,0.00582 c 0.00383,0.00142 0.026996,0.028412 0.051578,0.05995 0.09193,0.11791 0.2780629,0.3349793 0.3549316,0.4142488 0.043763,0.045177 0.1150899,0.109671 0.1585683,0.1431974 l 0.085962,0.066769 c 0.00639,0.00554 -0.08582,0.2711938 -0.1273093,0.3669428 -0.00895,0.020312 -0.030833,0.072451 -0.048593,0.1159214 -0.039926,0.097738 -0.097329,0.2074087 -0.1967895,0.3757505 -0.042199,0.071314 -0.0817,0.1349577 -0.087667,0.1412087 -0.00838,0.00867 -0.015914,0.00226 -0.033106,-0.027561 C 2.8991131,6.8220443 2.8341801,6.7579747 2.7594423,6.7106685 L 2.6908143,6.6674779 2.6683643,6.592754 C 2.5821172,6.3074964 2.5617989,5.9835982 2.6115291,5.6943625 2.6253114,5.613814 2.6470506,5.5156499 2.6598384,5.4762989 2.6866927,5.3929095 2.7659768,5.2220104 2.776065,5.225704 Z M 2.4432989,5.645779 2.4376189,5.687402 c -0.031543,0.2280075 -0.030265,0.4773242 0.00327,0.6773459 0.010656,0.063643 0.021739,0.1252972 0.024723,0.1368042 v 2.84e-4 c 0.00682,0.027276 -5.693e-4,0.025574 -0.061665,-0.013069 C 2.3250859,6.4390446 2.2394083,6.3974208 2.1145144,6.3478418 1.9079209,6.2657303 1.7989408,6.2128841 1.8144282,6.2023716 c 0.00781,-0.0051 0.050157,-0.029832 0.094203,-0.055404 0.088094,-0.051143 0.3178471,-0.2584084 0.4134712,-0.3729097 0.028985,-0.034804 0.067917,-0.077991 0.086815,-0.095749 z m 2.7905748,0.00467 c 0.00412,0 0.023444,0.019888 0.043194,0.044039 0.019608,0.024436 0.1094064,0.1179107 0.1992052,0.2082614 0.1595627,0.1602444 0.2438199,0.2267285 0.3596204,0.2852576 0.022163,0.011082 0.038929,0.02145 0.037227,0.023013 C 5.8631703,6.21912 5.5990358,6.3339027 5.538223,6.3563485 5.460644,6.385051 5.3429961,6.4414463 5.2844566,6.4782399 H 5.284172 c -0.054987,0.034519 -0.077579,0.045746 -0.077579,0.037644 0,-0.00397 0.00824,-0.053129 0.018471,-0.109387 A 2.1398195,2.1394346 0 0 0 5.254049,5.8737693 C 5.247799,5.7892432 5.239272,5.7042908 5.234868,5.6852551 5.230608,5.666076 5.230038,5.6504513 5.2340141,5.6504513 Z M 3.8394388,6.0622873 c 0.00952,0 0.017619,0.00354 0.031685,0.010798 0.022023,0.011367 0.043336,0.014207 0.079426,0.010513 0.034669,-0.00354 0.049304,-0.00183 0.049304,0.00583 0,0.014207 -0.060245,0.2342579 -0.074027,0.2706257 -0.00583,0.0152 -0.027423,0.092481 -0.048025,0.1717514 a 2.7422654,2.7417721 0 0 1 -0.040494,0.1473167 c -0.00185,0.00172 -0.00739,-0.012784 -0.012504,-0.032533 C 3.7779158,6.4668887 3.7634228,6.4136157 3.7401208,6.336903 A 6.6752138,6.6740129 0 0 1 3.6902488,6.1627366 l -0.023018,-0.086089 0.045752,0.00611 c 0.032964,0.0044 0.057687,0.00183 0.087099,-0.00937 0.019182,-0.00739 0.029838,-0.011082 0.039358,-0.011082 z m 0.3341869,0.1895092 c 0.00185,-5.907e-4 0.00284,0.00268 0.00284,0.00994 0,0.014916 0.097045,0.2574141 0.153169,0.3821433 0.048025,0.1068301 0.1984946,0.3628234 0.2557553,0.4352745 0.037511,0.047303 0.038363,0.050004 0.021313,0.062648 -0.061808,0.046595 -0.202615,0.098732 -0.3052014,0.1132228 -0.1118219,0.016054 -0.177892,0.00696 -0.2630017,-0.036082 l -0.057971,-0.029123 0.00568,-0.057676 c 0.016908,-0.1669216 0.04561,-0.3520264 0.075306,-0.4844272 0.046178,-0.2066984 0.09946,-0.3920877 0.1121061,-0.395923 z m -0.6626904,0.010513 c 4.262e-4,0 7.089e-4,0 8.538e-4,5.907e-4 0.011793,0.034519 0.079568,0.2915085 0.097613,0.3696419 0.02657,0.1145012 0.052714,0.2750296 0.06948,0.4233408 0.01563,0.1403559 0.016908,0.1373728 -0.066923,0.1744509 -0.092924,0.041199 -0.2291852,0.040484 -0.3594783,-0.00242 -0.072038,-0.023722 -0.1849964,-0.077992 -0.1945162,-0.093192 -0.00327,-0.00554 0.0081,-0.027416 0.025575,-0.048866 0.047173,-0.057961 0.1967895,-0.3091241 0.2458093,-0.4125447 0.023586,-0.04972 0.073316,-0.1656427 0.110259,-0.2575558 0.034669,-0.086089 0.06536,-0.1518629 0.071327,-0.1534254 z M 6.2594525,6.429941 c 0.00183,0 0.019183,0.025998 0.038365,0.057961 0.1433649,0.2397985 0.5261451,0.723373 0.6876975,0.8684169 l 0.062802,0.056398 -0.1483379,-0.00113 C 6.5724702,7.4087436 6.3931573,7.3909927 6.1703657,7.3385702 6.1058587,7.3235093 6.0389361,7.3111546 6.0216015,7.3111546 5.9768455,7.3111546 5.813019,7.2722326 5.694803,7.233447 5.608699,7.2051776 5.5441914,7.1747762 5.3594793,7.0761858 A 8.9967619,8.9951434 0 0 0 5.2065931,7.0000422 C 5.1378233,6.9665164 5.0801363,6.9373939 5.078005,6.9354051 5.076155,6.9335795 5.087955,6.8944911 5.104433,6.8486056 L 5.134129,6.7650739 5.2375678,6.7137918 C 5.3714132,6.6475901 5.4606433,6.6184676 5.6148067,6.5906235 a 4.4600887,4.4592863 0 0 0 0.1994896,-0.040629 c 0.040776,-0.00994 0.1236147,-0.026283 0.1840017,-0.036511 0.073743,-0.0125 0.1339874,-0.029263 0.1837176,-0.051142 0.040637,-0.017901 0.075306,-0.032388 0.077437,-0.032388 z m -4.8484105,0.0044 c 0.00327,-0.00199 0.039216,0.010513 0.079853,0.027985 0.048025,0.020741 0.1125323,0.038643 0.1837176,0.050858 0.060387,0.010229 0.1331348,0.02486 0.1618362,0.032103 0.028701,0.00739 0.1200629,0.026138 0.2028992,0.041907 0.1815863,0.034664 0.2627176,0.060518 0.3969891,0.1271443 l 0.1018759,0.050434 0.030833,0.083816 C 2.586097,6.8947611 2.598742,6.933827 2.597037,6.93539 2.594197,6.9382358 2.3113014,7.0802917 2.1395191,7.1652441 1.9988537,7.2345697 1.7416775,7.3111406 1.648611,7.3111406 c -0.017903,0 -0.083831,0.012645 -0.146633,0.027985 a 2.7848913,2.7843903 0 0 1 -0.2536241,0.046025 c -0.1533111,0.019888 -0.61736491,0.036935 -0.61665448,0.022589 2.8414e-4,-0.00467 0.0213129,-0.024291 0.0466042,-0.044039 C 0.71922442,7.3323064 0.81925324,7.2210718 1.023005,6.9809893 1.0976,6.8929114 1.2918322,6.6225697 1.3577603,6.5150298 c 0.026002,-0.042331 0.049872,-0.078702 0.053282,-0.08069 z M 1.1464773,6.524265 c 0.00526,0.0051 -0.1372554,0.2194837 -0.27024816,0.4064355 -0.14066543,0.1977489 -0.25504489,0.338673 -0.33248192,0.4101296 -0.0376529,0.034804 -0.0760161,0.062507 -0.0853938,0.061796 A 0.91432529,0.9141608 0 0 1 0.34610525,7.3848733 c -0.0448993,-0.00909 -0.0488777,-0.012215 -0.057687,-0.044039 a 0.69565449,0.69552935 0 0 1 -0.0156296,-0.090765 l -0.005683,-0.056256 0.0591079,-0.063075 C 0.38588938,7.066811 0.45210158,7.0102707 0.59432995,6.9015946 0.74920401,6.7832576 1.1390888,6.5167517 1.1464773,6.5242811 Z m 5.3808077,0.0014 c 0.00724,-0.00739 0.3566367,0.2308484 0.5443326,0.3712044 0.09804,0.073161 0.1965053,0.1562668 0.248651,0.2096816 l 0.086673,0.088504 -0.00568,0.041907 c -0.00301,0.023013 -0.00995,0.063501 -0.015203,0.089924 l -0.00938,0.048017 -0.048026,0.00937 v 2.846e-4 a 2.0076793,2.0073181 0 0 1 -0.089941,0.015055 l -0.041915,0.00554 -0.08852,-0.086231 C 7.0548554,7.266648 6.9714494,7.167918 6.8982754,7.0700379 6.7578941,6.882234 6.5198993,6.5330486 6.527146,6.5256615 Z"
     id="path113" /></svg>
