<?xml version="1.0" encoding="UTF-8" standalone="no"?>
<svg
   width="217px"
   height="29px"
   viewBox="0 0 217 29"
   version="1.1"
   id="svg12"
   sodipodi:docname="logo.svg"
   inkscape:version="1.2.2 (b0a8486541, 2022-12-01)"
   xmlns:inkscape="http://www.inkscape.org/namespaces/inkscape"
   xmlns:sodipodi="http://sodipodi.sourceforge.net/DTD/sodipodi-0.dtd"
   xmlns:xlink="http://www.w3.org/1999/xlink"
   xmlns="http://www.w3.org/2000/svg"
   xmlns:svg="http://www.w3.org/2000/svg"
   xmlns:rdf="http://www.w3.org/1999/02/22-rdf-syntax-ns#"
   xmlns:cc="http://creativecommons.org/ns#"
   xmlns:dc="http://purl.org/dc/elements/1.1/">
  <metadata
     id="metadata16">
    <rdf:RDF>
      <cc:Work
         rdf:about="">
        <dc:format>image/svg+xml</dc:format>
        <dc:type
           rdf:resource="http://purl.org/dc/dcmitype/StillImage" />
        <dc:title>logo</dc:title>
      </cc:Work>
    </rdf:RDF>
  </metadata>
  <sodipodi:namedview
     pagecolor="#ffffff"
     bordercolor="#666666"
     borderopacity="1"
     objecttolerance="10"
     gridtolerance="10"
     guidetolerance="10"
     inkscape:pageopacity="0"
     inkscape:pageshadow="2"
     inkscape:window-width="1920"
     inkscape:window-height="1001"
     id="namedview14"
     showgrid="false"
     inkscape:zoom="8.1290319"
     inkscape:cx="47.545637"
     inkscape:cy="1.2916667"
     inkscape:window-x="-9"
     inkscape:window-y="-9"
     inkscape:window-maximized="1"
     inkscape:current-layer="svg12"
     showguides="false"
     inkscape:showpageshadow="2"
     inkscape:pagecheckerboard="0"
     inkscape:deskcolor="#d1d1d1" />
  <!-- Generator: Sketch 51.3 (57544) - http://www.bohemiancoding.com/sketch -->
  <title
     id="title2">logo</title>
  <desc
     id="desc4">Created with Sketch.</desc>
  <defs
     id="defs6">
    <clipPath
       clipPathUnits="userSpaceOnUse"
       id="clipPath1127">
      <rect
         style="display:inline;fill:none;fill-opacity:1;stroke:#808080;stroke-width:0.09999999;stroke-linecap:round;stroke-linejoin:round;stroke-miterlimit:4;stroke-dasharray:none;stroke-opacity:1"
         id="rect1129"
         width="33.381001"
         height="33.381001"
         x="162.687"
         y="350.97299" />
    </clipPath>
    <clipPath
       clipPathUnits="userSpaceOnUse"
       id="clipPath931">
      <rect
         style="opacity:0.98999999;fill:none;fill-opacity:1;stroke:#000000;stroke-width:0.30000001;stroke-miterlimit:4;stroke-dasharray:none"
         id="rect933"
         width="28.299999"
         height="28.299999"
         x="-0.070999995"
         y="0.31000075" />
    </clipPath>
    <clipPath
       clipPathUnits="userSpaceOnUse"
       id="clipPath931-9">
      <rect
         style="opacity:0.98999999;fill:none;fill-opacity:1;stroke:#000000;stroke-width:0.30000001;stroke-miterlimit:4;stroke-dasharray:none"
         id="rect933-2"
         width="28.299999"
         height="28.299999"
         x="-0.070999995"
         y="0.31000075" />
    </clipPath>
    <clipPath
       clipPathUnits="userSpaceOnUse"
       id="clipPath931-1">
      <rect
         style="opacity:0.98999999;fill:none;fill-opacity:1;stroke:#000000;stroke-width:0.30000001;stroke-miterlimit:4;stroke-dasharray:none"
         id="rect933-4"
         width="28.299999"
         height="28.299999"
         x="-0.070999995"
         y="0.31000075" />
    </clipPath>
    <clipPath
       clipPathUnits="userSpaceOnUse"
       id="clipPath931-1-1">
      <rect
         style="opacity:0.98999999;fill:none;fill-opacity:1;stroke:#000000;stroke-width:0.30000001;stroke-miterlimit:4;stroke-dasharray:none"
         id="rect933-4-8"
         width="28.299999"
         height="28.299999"
         x="-0.070999995"
         y="0.31000075" />
    </clipPath>
    <pattern
       patternUnits="userSpaceOnUse"
       width="104.68955"
       height="104.91736"
       patternTransform="translate(-25.344204,-25.472481)"
       id="pattern5086">
      <g
         id="g23186"
         transform="matrix(3.7795276,0,0,3.7795276,25.344204,-280.66925)">
        <path
           id="rect6971"
           style="fill:url(#radialGradient8085);stroke-width:0.264584;paint-order:markers stroke fill"
           d="M 0,81 H 14.2875 V 95.2875 H 0 Z" />
        <path
           id="rect19225"
           style="fill:url(#radialGradient19227);stroke-width:0.264583;paint-order:markers stroke fill"
           d="m -6.7056541,74.260406 h 13.776699 v 13.7767 h -13.776699 z" />
        <path
           id="rect19225-8"
           style="opacity:1;fill:url(#radialGradient19227-2);stroke-width:0.264583;paint-order:markers stroke fill"
           d="M 0.94376874,81.940933 H 4.6176798 v 3.673911 H 0.94376874 Z" />
        <path
           id="rect20836"
           style="fill:url(#radialGradient20842);stroke-width:0.264583;paint-order:markers stroke fill"
           d="M 7.2167563,74.260406 H 20.993455 v 13.7767 H 7.2167563 Z" />
        <path
           id="rect20838"
           style="opacity:1;fill:url(#radialGradient20840);stroke-width:0.264583;paint-order:markers stroke fill"
           d="m 9.622674,81.940933 h 3.673911 v 3.673911 H 9.622674 Z" />
        <path
           id="rect20856"
           style="fill:url(#radialGradient20858);stroke-width:0.264583;paint-order:markers stroke fill"
           d="M 7.2167563,88.243088 H 20.993455 V 102.01979 H 7.2167563 Z" />
        <path
           id="rect20844"
           style="opacity:1;fill:url(#radialGradient20846);stroke-width:0.264583;paint-order:markers stroke fill"
           d="m 9.622674,90.55957 h 3.673911 v 3.673911 H 9.622674 Z" />
        <path
           id="rect20852"
           style="fill:url(#radialGradient20854);stroke-width:0.264583;paint-order:markers stroke fill"
           d="M -6.7056541,88.243088 H 7.0710449 V 102.01979 H -6.7056541 Z" />
        <path
           id="rect20848"
           style="opacity:1;fill:url(#radialGradient20850);stroke-width:0.264583;paint-order:markers stroke fill"
           d="m 1.1245793,90.55957 h 3.6739111 v 3.673911 H 1.1245793 Z" />
      </g>
    </pattern>
    <radialGradient
       inkscape:collect="always"
       xlink:href="#linearGradient8083"
       id="radialGradient8085"
       cx="-9.8075666"
       cy="87.923416"
       fx="-9.8075666"
       fy="87.923416"
       r="7.924634"
       gradientUnits="userSpaceOnUse"
       gradientTransform="matrix(0.90146119,0,0,0.90146119,15.98489,8.8842092)" />
    <linearGradient
       inkscape:collect="always"
       id="linearGradient8083">
      <stop
         style="stop-color:#e58d94;stop-opacity:1;"
         offset="0"
         id="stop8079" />
      <stop
         style="stop-color:#e58d94;stop-opacity:1;"
         offset="0.25290486"
         id="stop12820" />
      <stop
         style="stop-color:#a56e92;stop-opacity:1;"
         offset="0.39074549"
         id="stop17124" />
      <stop
         style="stop-color:#715692;stop-opacity:1;"
         offset="0.45244214"
         id="stop13258" />
      <stop
         style="stop-color:#162b91;stop-opacity:1;"
         offset="0.53984576"
         id="stop8087" />
      <stop
         style="stop-color:#162b91;stop-opacity:0.97872335;"
         offset="1"
         id="stop8081" />
    </linearGradient>
    <radialGradient
       inkscape:collect="always"
       xlink:href="#linearGradient19319"
       id="radialGradient19227"
       gradientUnits="userSpaceOnUse"
       cx="-9.8075666"
       cy="87.923416"
       fx="-9.8075666"
       fy="87.923416"
       r="7.924634"
       gradientTransform="matrix(0.86923247,0,0,0.86923247,8.7077522,4.7228724)" />
    <linearGradient
       inkscape:collect="always"
       id="linearGradient19319">
      <stop
         style="stop-color:#e58d94;stop-opacity:1;"
         offset="0"
         id="stop19307" />
      <stop
         style="stop-color:#e58d94;stop-opacity:1;"
         offset="0.20406169"
         id="stop19309" />
      <stop
         style="stop-color:#a56e92;stop-opacity:1;"
         offset="0.30591258"
         id="stop19311" />
      <stop
         style="stop-color:#715692;stop-opacity:1;"
         offset="0.46786633"
         id="stop19313" />
      <stop
         style="stop-color:#162b91;stop-opacity:1;"
         offset="0.65295631"
         id="stop19315" />
      <stop
         style="stop-color:#162b91;stop-opacity:0;"
         offset="1"
         id="stop19317" />
    </linearGradient>
    <radialGradient
       inkscape:collect="always"
       xlink:href="#linearGradient20106"
       id="radialGradient19227-2"
       gradientUnits="userSpaceOnUse"
       cx="-9.8075666"
       cy="87.923416"
       fx="-9.8075666"
       fy="87.923416"
       r="7.924634"
       gradientTransform="matrix(0.23180319,0,0,0.23180319,5.0541505,63.396971)" />
    <linearGradient
       inkscape:collect="always"
       id="linearGradient20106">
      <stop
         style="stop-color:#00dcc8;stop-opacity:1;"
         offset="0"
         id="stop20094" />
      <stop
         style="stop-color:#00dcc8;stop-opacity:1;"
         offset="0.26061696"
         id="stop20096" />
      <stop
         style="stop-color:#162b91;stop-opacity:0;"
         offset="1"
         id="stop20104" />
    </linearGradient>
    <radialGradient
       inkscape:collect="always"
       xlink:href="#linearGradient19319"
       id="radialGradient20842"
       gradientUnits="userSpaceOnUse"
       gradientTransform="matrix(0.86923247,0,0,0.86923247,22.630163,4.7228724)"
       cx="-9.8075666"
       cy="87.923416"
       fx="-9.8075666"
       fy="87.923416"
       r="7.924634" />
    <radialGradient
       inkscape:collect="always"
       xlink:href="#linearGradient20106"
       id="radialGradient20840"
       gradientUnits="userSpaceOnUse"
       gradientTransform="matrix(0.23180319,0,0,0.23180319,13.733056,63.396971)"
       cx="-9.8075666"
       cy="87.923416"
       fx="-9.8075666"
       fy="87.923416"
       r="7.924634" />
    <radialGradient
       inkscape:collect="always"
       xlink:href="#linearGradient19319"
       id="radialGradient20858"
       gradientUnits="userSpaceOnUse"
       gradientTransform="matrix(0.86923247,0,0,0.86923247,22.630163,18.705553)"
       cx="-9.8075666"
       cy="87.923416"
       fx="-9.8075666"
       fy="87.923416"
       r="7.924634" />
    <radialGradient
       inkscape:collect="always"
       xlink:href="#linearGradient20106"
       id="radialGradient20846"
       gradientUnits="userSpaceOnUse"
       gradientTransform="matrix(0.23180319,0,0,0.23180319,13.733056,72.015606)"
       cx="-9.8075666"
       cy="87.923416"
       fx="-9.8075666"
       fy="87.923416"
       r="7.924634" />
    <radialGradient
       inkscape:collect="always"
       xlink:href="#linearGradient19319"
       id="radialGradient20854"
       gradientUnits="userSpaceOnUse"
       gradientTransform="matrix(0.86923247,0,0,0.86923247,8.7077522,18.705553)"
       cx="-9.8075666"
       cy="87.923416"
       fx="-9.8075666"
       fy="87.923416"
       r="7.924634" />
    <radialGradient
       inkscape:collect="always"
       xlink:href="#linearGradient20106"
       id="radialGradient20850"
       gradientUnits="userSpaceOnUse"
       gradientTransform="matrix(0.23180319,0,0,0.23180319,5.2349613,72.015606)"
       cx="-9.8075666"
       cy="87.923416"
       fx="-9.8075666"
       fy="87.923416"
       r="7.924634" />
    <radialGradient
       inkscape:collect="always"
       xlink:href="#linearGradient8083-5"
       id="radialGradient8085-7"
       cx="-9.8075666"
       cy="87.923416"
       fx="-9.8075666"
       fy="87.923416"
       r="7.924634"
       gradientUnits="userSpaceOnUse"
       gradientTransform="matrix(1.7823601,0,0,1.7823601,31.968567,-142.09784)" />
    <linearGradient
       inkscape:collect="always"
       id="linearGradient8083-5">
      <stop
         style="stop-color:#f07864;stop-opacity:1;"
         offset="0"
         id="stop8079-0" />
      <stop
         style="stop-color:#f07864;stop-opacity:1;"
         offset="0.25290486"
         id="stop12820-3" />
      <stop
         style="stop-color:#956854;stop-opacity:1;"
         offset="0.38205129"
         id="stop16392" />
      <stop
         style="stop-color:#00503c;stop-opacity:1;"
         offset="0.64775944"
         id="stop8087-3" />
      <stop
         style="stop-color:#00503c;stop-opacity:1;"
         offset="1"
         id="stop8081-5" />
    </linearGradient>
    <radialGradient
       inkscape:collect="always"
       xlink:href="#linearGradient15652"
       id="radialGradient3209"
       gradientUnits="userSpaceOnUse"
       gradientTransform="matrix(1.7186378,0,0,1.7186378,17.469336,-150.49412)"
       cx="-9.8075666"
       cy="87.923416"
       fx="-9.8075666"
       fy="87.923416"
       r="7.924634" />
    <linearGradient
       inkscape:collect="always"
       id="linearGradient15652">
      <stop
         style="stop-color:#f07864;stop-opacity:1;"
         offset="0"
         id="stop15644" />
      <stop
         style="stop-color:#f07864;stop-opacity:1;"
         offset="0.20406169"
         id="stop15646" />
      <stop
         style="stop-color:#00503c;stop-opacity:1;"
         offset="0.65295631"
         id="stop15648" />
      <stop
         style="stop-color:#00503c;stop-opacity:0;"
         offset="1"
         id="stop15650" />
    </linearGradient>
    <radialGradient
       inkscape:collect="always"
       xlink:href="#linearGradient15652"
       id="radialGradient20842-0"
       gradientUnits="userSpaceOnUse"
       gradientTransform="matrix(1.7186378,0,0,1.7186378,45.107534,-150.32558)"
       cx="-9.8075666"
       cy="87.923416"
       fx="-9.8075666"
       fy="87.923416"
       r="7.924634" />
    <radialGradient
       inkscape:collect="always"
       xlink:href="#linearGradient15652"
       id="radialGradient3201"
       gradientUnits="userSpaceOnUse"
       gradientTransform="matrix(1.7186378,0,0,1.7186378,45.107534,-122.94018)"
       cx="-9.8075666"
       cy="87.923416"
       fx="-9.8075666"
       fy="87.923416"
       r="7.924634" />
    <radialGradient
       inkscape:collect="always"
       xlink:href="#linearGradient15652"
       id="radialGradient3205"
       gradientUnits="userSpaceOnUse"
       gradientTransform="matrix(1.7186378,0,0,1.7186378,17.637861,-122.94018)"
       cx="-9.8075666"
       cy="87.923416"
       fx="-9.8075666"
       fy="87.923416"
       r="7.924634" />
    <radialGradient
       inkscape:collect="always"
       xlink:href="#linearGradient11092"
       id="radialGradient3197"
       gradientUnits="userSpaceOnUse"
       gradientTransform="matrix(0.26283327,0,0,0.26283327,8.1310393,0.43358345)"
       cx="-9.8075666"
       cy="87.923416"
       fx="-9.8075666"
       fy="87.923416"
       r="7.924634" />
    <linearGradient
       inkscape:collect="always"
       id="linearGradient11092">
      <stop
         style="stop-color:#00b4a0;stop-opacity:1;"
         offset="0"
         id="stop11086" />
      <stop
         style="stop-color:#00b4a0;stop-opacity:1;"
         offset="0.16830927"
         id="stop11088" />
      <stop
         style="stop-color:#00503c;stop-opacity:0;"
         offset="1"
         id="stop11090" />
    </linearGradient>
    <radialGradient
       inkscape:collect="always"
       xlink:href="#linearGradient11084"
       id="radialGradient11068"
       gradientUnits="userSpaceOnUse"
       gradientTransform="matrix(0.26283327,0,0,0.26283327,25.707965,0.25483643)"
       cx="-9.8075666"
       cy="87.923416"
       fx="-9.8075666"
       fy="87.923416"
       r="7.924634" />
    <linearGradient
       inkscape:collect="always"
       id="linearGradient11084">
      <stop
         style="stop-color:#00b4a0;stop-opacity:1;"
         offset="0"
         id="stop11078" />
      <stop
         style="stop-color:#00b4a0;stop-opacity:1;"
         offset="0.16574517"
         id="stop11080" />
      <stop
         style="stop-color:#00503c;stop-opacity:0;"
         offset="1"
         id="stop11082" />
    </linearGradient>
    <radialGradient
       inkscape:collect="always"
       xlink:href="#linearGradient3185"
       id="radialGradient11072"
       gradientUnits="userSpaceOnUse"
       gradientTransform="matrix(0.26283327,0,0,0.26283327,8.1310393,-17.322089)"
       cx="-9.8075666"
       cy="87.923416"
       fx="-9.8075666"
       fy="87.923416"
       r="7.924634" />
    <linearGradient
       inkscape:collect="always"
       id="linearGradient3185">
      <stop
         style="stop-color:#00b4a0;stop-opacity:1;"
         offset="0"
         id="stop3179" />
      <stop
         style="stop-color:#00b4a0;stop-opacity:1;"
         offset="0.20677081"
         id="stop3181" />
      <stop
         style="stop-color:#00503c;stop-opacity:0;"
         offset="1"
         id="stop3183" />
    </linearGradient>
    <radialGradient
       inkscape:collect="always"
       xlink:href="#linearGradient11100"
       id="radialGradient11076"
       gradientUnits="userSpaceOnUse"
       gradientTransform="matrix(0.26283327,0,0,0.26283327,25.827129,-17.262506)"
       cx="-9.8075666"
       cy="87.923416"
       fx="-9.8075666"
       fy="87.923416"
       r="7.924634" />
    <linearGradient
       inkscape:collect="always"
       id="linearGradient11100">
      <stop
         style="stop-color:#00b4a0;stop-opacity:1;"
         offset="0"
         id="stop11094" />
      <stop
         style="stop-color:#00b4a0;stop-opacity:1;"
         offset="0.18882209"
         id="stop11096" />
      <stop
         style="stop-color:#00503c;stop-opacity:0;"
         offset="1"
         id="stop11098" />
    </linearGradient>
    <pattern
       patternUnits="userSpaceOnUse"
       width="54.877348"
       height="54.793087"
       patternTransform="translate(-13.005896,-13.005197)"
       id="pattern1071">
      <g
         id="g1069"
         transform="translate(13.005896,13.005197)">
        <rect
           style="fill:url(#radialGradient8085-7);fill-opacity:1;stroke-width:1;paint-order:markers stroke fill"
           id="rect6971-7"
           width="28.249105"
           height="28.249105"
           x="0.36340302"
           y="0.48878643" />
        <rect
           style="fill:url(#radialGradient3209);fill-opacity:1;stroke-width:0.999997;paint-order:markers stroke fill"
           id="rect3207"
           width="27.239153"
           height="27.239153"
           x="-13.005896"
           y="-13.005197" />
        <rect
           style="fill:url(#radialGradient20842-0);fill-opacity:1;stroke-width:0.999997;paint-order:markers stroke fill"
           id="rect20836-1"
           width="27.239153"
           height="27.239153"
           x="14.632299"
           y="-12.836669" />
        <rect
           style="fill:url(#radialGradient3201);fill-opacity:1;stroke-width:0.999997;paint-order:markers stroke fill"
           id="rect3199"
           width="27.239153"
           height="27.239153"
           x="14.632299"
           y="14.548738" />
        <rect
           style="fill:url(#radialGradient3205);fill-opacity:1;stroke-width:0.999997;paint-order:markers stroke fill"
           id="rect3203"
           width="27.239153"
           height="27.239153"
           x="-12.837377"
           y="14.548738" />
        <rect
           style="fill:url(#radialGradient3197);fill-opacity:1;stroke-width:0.999997;paint-order:markers stroke fill"
           id="rect3195"
           width="4.1657152"
           height="4.1657152"
           x="3.4704275"
           y="21.459917" />
        <rect
           style="fill:url(#radialGradient11068);fill-opacity:1;stroke-width:0.999997;paint-order:markers stroke fill"
           id="rect11066"
           width="4.1657152"
           height="4.1657152"
           x="21.047352"
           y="21.281164" />
        <rect
           style="fill:url(#radialGradient11072);fill-opacity:1;stroke-width:0.999997;paint-order:markers stroke fill"
           id="rect11070"
           width="4.1657152"
           height="4.1657152"
           x="3.4704275"
           y="3.7042575" />
        <rect
           style="fill:url(#radialGradient11076);fill-opacity:1;stroke-width:0.999997;paint-order:markers stroke fill"
           id="rect11074"
           width="4.1657152"
           height="4.1657152"
           x="21.166517"
           y="3.7638438" />
      </g>
    </pattern>
  </defs>
  <path
     id="rect1083"
     style="fill:url(#pattern1071)"
     d="M 1.6933594 0.01953125 C 1.5721535 0.01932193 1.4204035 0.14600755 0.78320312 0.78320312 C 0.14599676 1.420404 0.01932225 1.5721537 0.01953125 1.6933594 L 0.01953125 1.8378906 L 0.13867188 1.6894531 C 0.3127267 1.4723959 0.33891125 1.5572653 0.20898438 1.9199219 C 0.10430448 2.212736 0.096768759 2.3097564 0.10546875 3.1835938 C 0.11691174 4.3162445 0.1861956 5.301645 0.2890625 5.7773438 C 0.33042146 5.9686442 0.40180567 6.3391429 0.44726562 6.5996094 C 0.54758852 7.1739399 0.84928098 8.1715692 1.1210938 8.8300781 C 1.2313126 9.0970979 1.3846507 9.4838225 1.4628906 9.6894531 C 1.5411595 9.8950837 1.6500882 10.163569 1.7050781 10.285156 L 1.8046875 10.505859 L 1.6152344 10.722656 C 1.03689 11.379684 0.6171875 12.503873 0.6171875 13.396484 C 0.6171875 13.670712 0.64455817 13.773243 0.8125 14.107422 L 1.0097656 14.498047 L 0.8125 14.890625 C 0.64479817 15.225636 0.6171875 15.332143 0.6171875 15.605469 C 0.6171875 16.497538 1.037039 17.620482 1.6152344 18.277344 L 1.8046875 18.494141 L 1.7050781 18.714844 C 1.6500812 18.836431 1.5411305 19.104916 1.4628906 19.310547 C 1.3846387 19.516177 1.2313026 19.902902 1.1210938 20.169922 C 0.84928698 20.82843 0.54759852 21.82606 0.44726562 22.400391 C 0.40176867 22.660857 0.33044246 23.031366 0.2890625 23.222656 C 0.1861996 23.698361 0.11700874 24.683749 0.10546875 25.816406 C 0.096645759 26.690248 0.10406748 26.787259 0.20898438 27.080078 C 0.33890725 27.442757 0.3127227 27.527615 0.13867188 27.310547 L 0.01953125 27.162109 L 0.01953125 27.306641 C 0.01932725 27.427853 0.14600276 27.579596 0.78320312 28.216797 C 1.4204045 28.854009 1.5721535 28.980668 1.6933594 28.980469 L 1.8378906 28.980469 L 1.6894531 28.861328 C 1.4723903 28.687284 1.5572602 28.66109 1.9199219 28.791016 C 2.2127416 28.895697 2.3097516 28.903431 3.1835938 28.894531 C 4.3162446 28.883088 5.3016392 28.813804 5.7773438 28.710938 C 5.9686386 28.669595 6.3391426 28.598194 6.5996094 28.552734 C 7.1739398 28.452412 8.1715698 28.150718 8.8300781 27.878906 C 9.0970979 27.768686 9.4838223 27.615349 9.6894531 27.537109 C 9.8950779 27.458867 10.163564 27.349892 10.285156 27.294922 L 10.505859 27.195312 L 10.722656 27.384766 C 11.379684 27.96311 12.503873 28.382812 13.396484 28.382812 C 13.670712 28.382813 13.773243 28.355437 14.107422 28.1875 L 14.498047 27.990234 L 14.890625 28.1875 C 15.225636 28.355152 15.332143 28.382812 15.605469 28.382812 C 16.497533 28.382812 17.620482 27.962955 18.277344 27.384766 L 18.494141 27.195312 L 18.714844 27.294922 C 18.836431 27.349903 19.104916 27.458869 19.310547 27.537109 C 19.516172 27.615367 19.902902 27.768698 20.169922 27.878906 C 20.82843 28.150719 21.82606 28.452407 22.400391 28.552734 C 22.660852 28.598216 23.031366 28.669558 23.222656 28.710938 C 23.698361 28.813804 24.683749 28.882991 25.816406 28.894531 C 26.690248 28.90336 26.787264 28.895933 27.080078 28.791016 C 27.442724 28.661098 27.527615 28.687283 27.310547 28.861328 L 27.162109 28.980469 L 27.306641 28.980469 C 27.427847 28.980672 27.579596 28.853992 28.216797 28.216797 C 28.854008 27.579596 28.980667 27.427847 28.980469 27.306641 L 28.980469 27.162109 L 28.861328 27.310547 C 28.687283 27.527604 28.661067 27.442735 28.791016 27.080078 C 28.895697 26.787258 28.903431 26.690243 28.894531 25.816406 C 28.883088 24.683749 28.813825 23.698355 28.710938 23.222656 C 28.669601 23.031361 28.598244 22.660857 28.552734 22.400391 C 28.452412 21.826065 28.150719 20.82843 27.878906 20.169922 C 27.768687 19.902902 27.615349 19.516172 27.537109 19.310547 C 27.458861 19.104916 27.349892 18.836436 27.294922 18.714844 L 27.195312 18.494141 L 27.384766 18.277344 C 27.959503 17.624406 28.382812 16.490567 28.382812 15.603516 C 28.382813 15.329288 28.355442 15.226751 28.1875 14.892578 L 27.990234 14.501953 L 28.1875 14.109375 C 28.355181 13.77437 28.382812 13.667862 28.382812 13.394531 C 28.382812 12.508027 27.959354 11.375417 27.384766 10.722656 L 27.195312 10.505859 L 27.294922 10.285156 C 27.349902 10.163569 27.458869 9.8950837 27.537109 9.6894531 C 27.615361 9.4838225 27.768697 9.0970979 27.878906 8.8300781 C 28.150719 8.1715692 28.452401 7.1739399 28.552734 6.5996094 C 28.59821 6.3391429 28.669558 5.9686334 28.710938 5.7773438 C 28.81383 5.3016396 28.882991 4.3162445 28.894531 3.1835938 C 28.903354 2.309751 28.895933 2.2127414 28.791016 1.9199219 C 28.661066 1.5572439 28.687282 1.4723798 28.861328 1.6894531 L 28.980469 1.8378906 L 28.980469 1.6933594 C 28.980673 1.5721483 28.853998 1.420404 28.216797 0.78320312 C 27.579597 0.14599145 27.427842 0.01932193 27.306641 0.01953125 L 27.162109 0.01953125 L 27.310547 0.13867188 C 27.52761 0.31271695 27.442735 0.33892779 27.080078 0.20898438 C 26.787264 0.10429864 26.690249 0.096559359 25.816406 0.10546875 C 24.68375 0.11691146 23.69836 0.18619622 23.222656 0.2890625 C 23.03136 0.33042692 22.660862 0.40180607 22.400391 0.44726562 C 21.826066 0.54758252 20.82843 0.84928125 20.169922 1.1210938 C 19.902902 1.231313 19.516178 1.3846537 19.310547 1.4628906 C 19.104916 1.5411378 18.836431 1.6501082 18.714844 1.7050781 L 18.494141 1.8046875 L 18.277344 1.6152344 C 17.620483 1.037045 16.497533 0.6171875 15.605469 0.6171875 C 15.332137 0.6171875 15.225635 0.64484182 14.890625 0.8125 L 14.498047 1.0097656 L 14.107422 0.8125 C 13.773248 0.6445305 13.670712 0.6171875 13.396484 0.6171875 C 12.503872 0.6171875 11.37969 1.036884 10.722656 1.6152344 L 10.505859 1.8046875 L 10.285156 1.7050781 C 10.163569 1.6501027 9.8950779 1.5411275 9.6894531 1.4628906 C 9.4838223 1.3846326 9.0970929 1.2313022 8.8300781 1.1210938 C 8.1715638 0.84928122 7.1739338 0.54757715 6.5996094 0.44726562 C 6.3391426 0.40176316 5.9686336 0.33044306 5.7773438 0.2890625 C 5.3016402 0.18618012 4.3162446 0.11700804 3.1835938 0.10546875 C 2.3097506 0.096639829 2.2127356 0.10408933 1.9199219 0.20898438 C 1.5572592 0.33891167 1.4723853 0.31271693 1.6894531 0.13867188 L 1.8378906 0.01953125 L 1.6933594 0.01953125 z M 2.7714844 0.94726562 C 3.3427914 0.96059227 4.4485585 1.021266 4.7792969 1.0664062 C 4.9986347 1.0963494 5.3685167 1.1627077 5.6015625 1.2128906 C 5.8346133 1.2630571 6.2352478 1.3410978 6.4921875 1.3867188 C 7.2393558 1.5194262 7.6926521 1.6886869 8.7832031 2.2421875 C 9.3465416 2.5280995 9.8143656 2.7675006 9.8222656 2.7753906 C 9.8301766 2.783291 9.7824168 2.924816 9.7167969 3.0878906 C 9.578271 3.4322238 9.4237951 3.5524674 8.8085938 3.7949219 C 8.4635731 3.9308925 7.3732729 4.1814317 6.234375 4.3867188 C 6.0202752 4.4252976 5.7341852 4.5118782 5.5996094 4.5800781 C 5.4650505 4.6482353 5.3496969 4.7050781 5.3417969 4.7050781 C 5.3339559 4.7050781 5.2410615 4.5639236 5.1347656 4.3925781 C 4.5597212 3.4656439 3.4494498 2.0550417 2.7265625 1.3320312 C 2.5288057 1.1342849 2.3951544 0.96509369 2.4277344 0.953125 C 2.4510721 0.94458993 2.5810487 0.94282341 2.7714844 0.94726562 z M 26.228516 0.94726562 C 26.418951 0.94282147 26.548928 0.94459128 26.572266 0.953125 C 26.604861 0.96504538 26.471178 1.1342742 26.273438 1.3320312 C 25.55055 2.0550417 24.440278 3.4656385 23.865234 4.3925781 C 23.758933 4.5639343 23.662227 4.704195 23.648438 4.703125 C 23.634655 4.7018476 23.517118 4.6450049 23.388672 4.578125 C 23.260241 4.5112454 22.979913 4.4253617 22.765625 4.3867188 C 21.626502 4.1813995 20.536469 3.930914 20.191406 3.7949219 C 19.576205 3.5524675 19.421734 3.4322238 19.283203 3.0878906 C 19.217632 2.9248268 19.169834 2.7832806 19.177734 2.7753906 C 19.185629 2.7674902 19.653457 2.5281048 20.216797 2.2421875 C 21.307342 1.6886976 21.760639 1.5194262 22.507812 1.3867188 C 22.764753 1.3410767 23.165392 1.2630736 23.398438 1.2128906 C 23.631489 1.1627244 24.001375 1.0963552 24.220703 1.0664062 C 24.551441 1.0212822 25.657209 0.96059808 26.228516 0.94726562 z M 1.8398438 1.0039062 L 2.1875 1.3710938 C 2.3791228 1.5735469 2.7281059 1.9976753 2.9628906 2.3125 C 3.3671802 2.8546546 4.3554688 4.2891154 4.3554688 4.3339844 C 4.3554688 4.386813 4.233742 4.3148285 3.5722656 3.8613281 C 2.5268627 3.1446186 1.7850813 2.5798313 1.3710938 2.1875 L 1.0039062 1.8398438 L 1.0292969 1.5214844 C 1.0441649 1.3363187 1.0853763 1.1724872 1.1289062 1.1289062 C 1.1724812 1.0853361 1.3362976 1.0443249 1.5214844 1.0292969 L 1.8398438 1.0039062 z M 27.160156 1.0039062 L 27.478516 1.0292969 C 27.663681 1.0441852 27.827514 1.0853253 27.871094 1.1289062 C 27.914662 1.1724819 27.955673 1.3362972 27.970703 1.5214844 L 27.996094 1.8398438 L 27.628906 2.1875 C 27.200814 2.5926802 26.409807 3.1907246 25.400391 3.8730469 C 24.709219 4.3403759 24.644531 4.3789613 24.644531 4.3339844 C 24.644531 4.2891098 25.63282 2.8546546 26.037109 2.3125 C 26.271894 1.9976539 26.620904 1.5735577 26.8125 1.3710938 L 27.160156 1.0039062 z M 15.876953 1.5351562 C 16.239243 1.521516 16.656012 1.6087959 17.066406 1.7929688 C 17.474044 1.9759072 17.506716 2.0238712 17.347656 2.2128906 C 16.97455 2.6563008 16.315897 3.9185604 15.943359 4.9042969 C 15.865651 5.1099221 15.788421 5.2959784 15.769531 5.3183594 C 15.73231 5.362665 15.485974 4.5063728 15.324219 3.7695312 C 15.198795 3.198142 15.074219 2.3218521 15.074219 2.0136719 C 15.074219 1.7888055 15.080901 1.7767978 15.298828 1.6679688 C 15.462837 1.5860571 15.659579 1.5433404 15.876953 1.5351562 z M 13.126953 1.5371094 C 13.345978 1.5461294 13.546411 1.5906807 13.712891 1.6738281 C 13.91901 1.7767641 13.925781 1.7904962 13.925781 2.0136719 C 13.925781 2.3700542 13.789271 3.2647195 13.625 3.9824219 C 13.4106 4.9191511 13.253095 5.4032725 13.203125 5.2773438 C 13.181377 5.2225079 13.079267 4.9655393 12.976562 4.7050781 C 12.599683 3.7493331 12.008485 2.6365021 11.650391 2.2109375 C 11.493397 2.0243548 11.526932 1.9754725 11.933594 1.7929688 C 12.344051 1.6087657 12.761912 1.522076 13.126953 1.5371094 z M 0.953125 2.4277344 C 0.96506099 2.395113 1.1355346 2.5286606 1.3339844 2.7265625 C 2.0446077 3.4351623 3.1126797 4.2888446 4.1054688 4.9414062 C 4.4207714 5.1486523 4.6868125 5.3235881 4.6953125 5.3300781 C 4.7040125 5.3365562 4.6540143 5.455568 4.5839844 5.59375 C 4.5139594 5.731948 4.4253087 6.0202644 4.3867188 6.234375 C 4.165164 7.4635643 3.9324537 8.4595723 3.7792969 8.8378906 C 3.5291191 9.4558772 3.4207013 9.5961503 3.1035156 9.7128906 C 2.9558228 9.7672323 2.8208975 9.820025 2.8046875 9.828125 C 2.7883985 9.8363206 2.5263238 9.3433132 2.2207031 8.7324219 C 1.6558247 7.6032807 1.4846533 7.1393576 1.3652344 6.4003906 C 1.3320064 6.19476 1.2635606 5.8346138 1.2128906 5.6015625 C 1.1622577 5.3685221 1.0963562 4.9986298 1.0664062 4.7792969 C 1.0062253 4.338318 0.91899503 2.5210843 0.953125 2.4277344 z M 28.046875 2.4277344 C 28.081015 2.5210848 27.993784 4.3383179 27.933594 4.7792969 C 27.903677 4.9986351 27.837779 5.368522 27.787109 5.6015625 C 27.736459 5.8346137 27.668046 6.1947653 27.634766 6.4003906 C 27.515395 7.139116 27.345323 7.6029377 26.78125 8.7304688 C 26.476065 9.3405013 26.212162 9.8366644 26.195312 9.8339844 C 26.178599 9.8309198 26.041425 9.7759976 25.890625 9.7128906 C 25.57142 9.5793298 25.442069 9.4099423 25.205078 8.8085938 C 25.069102 8.4635731 24.818574 7.3732678 24.613281 6.234375 C 24.574702 6.0202698 24.486036 5.7319373 24.416016 5.59375 C 24.345998 5.4555733 24.296188 5.3365681 24.304688 5.3300781 C 24.313382 5.3236053 24.579235 5.148663 24.894531 4.9414062 C 25.88732 4.2888392 26.955387 3.4351622 27.666016 2.7265625 C 27.864465 2.5286444 28.034905 2.3951024 28.046875 2.4277344 z M 11.185547 2.8125 C 11.199765 2.8110133 11.284297 2.939997 11.373047 3.0976562 C 11.461793 3.2553048 11.6573 3.5943862 11.806641 3.8515625 C 12.283482 4.6727216 13.031811 6.5746379 12.917969 6.6757812 C 12.883523 6.7063792 12.676359 6.8786449 12.457031 7.0585938 C 12.237688 7.2385427 11.900902 7.5713534 11.708984 7.7988281 C 11.517062 8.0263029 11.204478 8.3940982 11.015625 8.6152344 C 10.82675 8.8363819 10.640079 9.0672163 10.599609 9.1289062 C 10.559152 9.1906121 10.508141 9.2402344 10.488281 9.2402344 C 10.440948 9.2402344 10.118951 8.5385715 10.019531 8.21875 C 9.7720125 7.42243 9.6869203 6.2093743 9.8144531 5.328125 C 9.91754 4.6157199 10.117439 3.7891118 10.193359 3.7636719 C 10.358044 3.7085086 10.8811 3.2500791 11.009766 3.0488281 C 11.092026 2.9201836 11.171327 2.81411 11.185547 2.8125 z M 17.814453 2.8125 C 17.828671 2.8139867 17.907974 2.9201836 17.990234 3.0488281 C 18.1189 3.2500684 18.641967 3.7085139 18.806641 3.7636719 C 18.882597 3.7891067 19.082461 4.6157199 19.185547 5.328125 C 19.283605 6.0053807 19.266071 6.7685897 19.134766 7.5214844 C 19.037406 8.0797296 18.950779 8.363405 18.724609 8.8554688 C 18.626943 9.0679584 18.529626 9.2402344 18.509766 9.2402344 C 18.489844 9.2402344 18.440861 9.1906122 18.400391 9.1289062 C 18.359917 9.0672165 18.173228 8.8363765 17.984375 8.6152344 C 17.7955 8.3940874 17.482938 8.0263029 17.291016 7.7988281 C 17.099098 7.5713534 16.762296 7.2385427 16.542969 7.0585938 C 16.32363 6.8786502 16.116491 6.7063742 16.082031 6.6757812 C 15.967148 6.5737201 16.710604 4.6815607 17.191406 3.8535156 C 17.341605 3.5948364 17.538203 3.2553101 17.626953 3.0976562 C 17.715695 2.9400024 17.800233 2.81089 17.814453 2.8125 z M 14.511719 3.7714844 C 14.534523 3.7965842 14.571156 3.9324752 14.697266 4.40625 C 14.766593 4.6667164 14.878413 5.0603709 14.945312 5.2832031 C 15.012231 5.5060406 15.080769 5.7712708 15.099609 5.8710938 C 15.132571 6.0468569 15.131577 6.0499233 15.015625 6.0058594 C 14.934646 5.9750574 14.830885 5.9828179 14.697266 6.0292969 C 14.588635 6.0671408 14.488399 6.09643 14.474609 6.09375 C 14.460917 6.09091 14.371321 6.0600086 14.275391 6.0253906 C 14.160932 5.9841167 14.061805 5.9784005 13.984375 6.0078125 C 13.870545 6.0510984 13.867491 6.0464001 13.900391 5.8710938 C 13.919139 5.7711578 13.99178 5.4962088 14.0625 5.2597656 C 14.133179 5.0233224 14.252625 4.5973595 14.328125 4.3144531 C 14.40365 4.0315467 14.476444 3.7891846 14.490234 3.7753906 C 14.497557 3.7680712 14.504117 3.7631178 14.511719 3.7714844 z M 9.2792969 4.3554688 C 9.3032569 4.3554688 9.283005 4.5958895 9.234375 4.890625 C 9.1360451 5.486542 9.1121032 6.7596962 9.1894531 7.2949219 C 9.2150831 7.4720853 9.2307094 7.6228463 9.2246094 7.6289062 C 9.2185504 7.6349657 8.8751561 7.2874249 8.4609375 6.8574219 C 7.849606 6.2227918 7.6222376 6.021072 7.25 5.7910156 L 6.7910156 5.5078125 L 7.171875 5.3320312 C 7.3812038 5.2353156 7.7847707 5.0645256 8.0703125 4.9511719 C 8.3558542 4.8378022 8.7347356 4.6577641 8.9121094 4.5507812 C 9.0894812 4.4437934 9.2553069 4.3554688 9.2792969 4.3554688 z M 19.720703 4.3554688 C 19.744791 4.3554688 19.910518 4.4437985 20.087891 4.5507812 C 20.265273 4.6577641 20.644141 4.8378183 20.929688 4.9511719 C 21.215229 5.0645417 21.618791 5.2353103 21.828125 5.3320312 L 22.208984 5.5078125 L 21.75 5.7910156 C 21.379432 6.0201381 21.144716 6.2282622 20.519531 6.8730469 C 20.023857 7.3842869 19.75822 7.6267589 19.78125 7.546875 C 19.801 7.4783315 19.828807 6.9838539 19.841797 6.4492188 C 19.861127 5.6492275 19.848694 5.3775452 19.771484 4.9160156 C 19.719864 4.607567 19.696603 4.3554688 19.720703 4.3554688 z M 6.046875 6.046875 L 6.3613281 6.2050781 C 6.8129177 6.4327676 7.2218013 6.7225914 7.6230469 7.0957031 C 8.0768105 7.5176394 8.9584806 8.2847511 9.2851562 8.5429688 C 9.4256621 8.6540145 9.5390625 8.7723447 9.5390625 8.8066406 C 9.5390625 8.8409097 9.6737588 9.134252 9.8378906 9.4589844 C 10.002033 9.7837222 10.124405 10.06954 10.109375 10.09375 C 10.068118 10.16048 10.041048 10.152033 9.6660156 9.9414062 C 9.4746618 9.8339296 9.1857763 9.6941913 9.0234375 9.6308594 C 8.7976957 9.5428171 8.681019 9.4573371 8.5332031 9.2714844 C 8.2767934 8.949092 7.5032337 8.0613153 7.0957031 7.6230469 C 6.7225915 7.2217954 6.4327729 6.8129178 6.2050781 6.3613281 L 6.046875 6.046875 z M 22.953125 6.046875 L 22.794922 6.3613281 C 22.567221 6.8129178 22.277404 7.2218008 21.904297 7.6230469 C 21.48236 8.0768049 20.71526 8.9584756 20.457031 9.2851562 C 20.345953 9.4256782 20.227659 9.5390625 20.193359 9.5390625 C 20.15909 9.5390625 19.86453 9.6753522 19.539062 9.8398438 C 19.213595 10.004352 18.939741 10.138672 18.931641 10.138672 C 18.848005 10.138672 18.909812 9.958143 19.162109 9.4589844 C 19.326247 9.134252 19.460938 8.8409366 19.460938 8.8066406 C 19.460938 8.7723716 19.574327 8.654052 19.714844 8.5429688 C 20.041524 8.2847457 20.923195 7.5176394 21.376953 7.0957031 C 21.778205 6.7225914 22.187087 6.432773 22.638672 6.2050781 L 22.953125 6.046875 z M 5.5078125 6.7910156 L 5.7910156 7.25 C 6.0201384 7.6205676 6.2282625 7.8552848 6.8730469 8.4804688 C 7.3842874 8.9761446 7.6267349 9.241775 7.546875 9.21875 C 7.4783311 9.198994 6.9838592 9.1711911 6.4492188 9.1582031 C 5.6492335 9.1388541 5.3775452 9.1513097 4.9160156 9.2285156 C 4.6075719 9.2801476 4.3554688 9.3033949 4.3554688 9.2792969 C 4.3554688 9.2552146 4.4437984 9.0895035 4.5507812 8.9121094 C 4.6577701 8.7347314 4.837819 8.3558542 4.9511719 8.0703125 C 5.0645478 7.7847655 5.2353113 7.3812089 5.3320312 7.171875 L 5.5078125 6.7910156 z M 23.492188 6.7910156 L 23.667969 7.171875 C 23.764685 7.3812035 23.935474 7.7847709 24.048828 8.0703125 C 24.162198 8.3558595 24.344355 8.737612 24.453125 8.9179688 C 24.561894 9.0983255 24.643266 9.2633451 24.634766 9.2832031 C 24.626114 9.3031041 24.371901 9.2767454 24.070312 9.2265625 C 23.624594 9.1524256 23.340912 9.1412643 22.550781 9.1601562 C 22.016146 9.1729352 21.521685 9.199053 21.453125 9.21875 C 21.373246 9.2418018 21.615735 8.9761446 22.126953 8.4804688 C 22.771743 7.8552848 22.979857 7.6205676 23.208984 7.25 L 23.492188 6.7910156 z M 14.505859 7.0449219 C 14.882351 7.0387412 15.179618 7.0972615 15.150391 7.1914062 C 15.074295 7.4365925 14.812855 8.6102429 14.705078 9.1914062 C 14.636412 9.5615392 14.560619 9.9878717 14.537109 10.138672 L 14.496094 10.412109 L 14.458984 10.138672 C 14.374526 9.5070044 13.987367 7.635219 13.849609 7.1914062 C 13.829541 7.1267379 13.881174 7.1041677 14.113281 7.0742188 C 14.247485 7.0569004 14.380362 7.0469821 14.505859 7.0449219 z M 13.1875 7.4238281 C 13.206312 7.4188074 13.219639 7.418494 13.226562 7.4257812 C 13.275521 7.4773056 13.5329 8.5962101 13.650391 9.265625 C 13.693722 9.5123785 13.750994 10.219046 13.777344 10.835938 C 13.803673 11.45283 13.850909 12.167779 13.880859 12.423828 C 13.910719 12.679878 13.925716 12.89655 13.916016 12.90625 C 13.906313 12.915959 13.61652 12.650708 13.271484 12.316406 C 12.926443 11.982105 12.356649 11.438353 12.005859 11.109375 C 11.65507 10.780397 11.279057 10.394553 11.169922 10.25 L 10.972656 9.9863281 L 11.134766 9.7265625 C 11.352241 9.3764866 12.101197 8.3886532 12.392578 8.0683594 C 12.660921 7.773389 13.055817 7.4589734 13.1875 7.4238281 z M 15.8125 7.4238281 C 15.94419 7.4589684 16.339075 7.773389 16.607422 8.0683594 C 16.898803 8.3886532 17.647759 9.3764866 17.865234 9.7265625 L 18.027344 9.9863281 L 17.830078 10.25 C 17.720938 10.394559 17.344817 10.780397 16.994141 11.109375 C 16.643464 11.438353 16.067571 11.986765 15.714844 12.328125 C 15.362117 12.66949 15.074219 12.917473 15.074219 12.876953 C 15.074219 12.836464 15.096047 12.622927 15.123047 12.404297 C 15.150087 12.185673 15.193603 11.491927 15.220703 10.861328 C 15.247823 10.230729 15.306299 9.5123785 15.349609 9.265625 C 15.467165 8.5959954 15.724488 7.4773052 15.773438 7.4257812 C 15.780363 7.4184927 15.793687 7.4188081 15.8125 7.4238281 z M 6.0390625 9.7578125 C 6.7895264 9.7400281 7.6215135 9.8339023 8.21875 10.019531 C 8.5385657 10.118935 9.2402344 10.440941 9.2402344 10.488281 C 9.2402344 10.508203 9.1905962 10.559139 9.1289062 10.599609 C 9.0672163 10.640083 8.834648 10.826751 8.6132812 11.015625 C 8.3919245 11.204494 8.0160356 11.525789 7.7773438 11.728516 C 7.538652 11.931258 7.1828289 12.29627 6.9863281 12.539062 C 6.7897893 12.781849 6.6168025 12.978662 6.6015625 12.976562 C 6.5864115 12.974395 6.3152967 12.875164 6 12.757812 C 5.044722 12.402321 4.343513 12.092316 3.8515625 11.806641 C 3.5943808 11.657306 3.2553101 11.461787 3.0976562 11.373047 C 2.9400024 11.284294 2.8109 11.199767 2.8125 11.185547 C 2.813987 11.171303 2.9201783 11.092026 3.0488281 11.009766 C 3.2500629 10.8811 3.7085119 10.358033 3.7636719 10.193359 C 3.7891068 10.117409 4.6157247 9.9175609 5.328125 9.8144531 C 5.5484385 9.7825711 5.7889079 9.7637406 6.0390625 9.7578125 z M 22.960938 9.7578125 C 23.211091 9.7637422 23.451563 9.7825697 23.671875 9.8144531 C 24.38428 9.9175448 25.210888 10.117429 25.236328 10.193359 C 25.291486 10.358044 25.749926 10.8811 25.951172 11.009766 C 26.079822 11.092026 26.1859 11.171327 26.1875 11.185547 C 26.188986 11.199765 26.059998 11.284297 25.902344 11.373047 C 25.744695 11.461792 25.405614 11.657301 25.148438 11.806641 C 24.643579 12.099815 23.919899 12.417219 22.976562 12.761719 C 22.649179 12.881262 22.380153 12.980469 22.376953 12.980469 C 22.373883 12.980469 22.210173 12.78185 22.013672 12.539062 C 21.817149 12.296276 21.461348 11.931242 21.222656 11.728516 C 20.983963 11.525773 20.608081 11.204483 20.386719 11.015625 C 20.165357 10.82675 19.932784 10.640079 19.871094 10.599609 C 19.809387 10.559157 19.759766 10.508141 19.759766 10.488281 C 19.759766 10.440948 20.461428 10.118951 20.78125 10.019531 C 21.378486 9.8338898 22.210476 9.7400234 22.960938 9.7578125 z M 9.9863281 10.972656 L 10.25 11.169922 C 10.394553 11.279063 10.780396 11.655182 11.109375 12.005859 C 11.438353 12.356541 11.98676 12.932429 12.328125 13.285156 C 13.020596 14.000449 13.021642 13.960614 12.332031 13.871094 C 12.153815 13.847964 11.491932 13.806827 10.861328 13.779297 C 10.230729 13.751791 9.5123838 13.693761 9.265625 13.650391 C 8.5955827 13.532706 7.4772512 13.275512 7.4257812 13.226562 C 7.3674733 13.171158 7.7312396 12.699262 8.0683594 12.392578 C 8.3886531 12.101197 9.3764919 11.352241 9.7265625 11.134766 L 9.9863281 10.972656 z M 19.013672 10.972656 L 19.273438 11.134766 C 19.623513 11.352241 20.611342 12.101196 20.931641 12.392578 C 21.268749 12.699256 21.632519 13.171143 21.574219 13.226562 C 21.522705 13.275505 20.404004 13.532819 19.734375 13.650391 C 19.487616 13.693722 18.769271 13.752197 18.138672 13.779297 C 17.508078 13.806417 16.814333 13.849953 16.595703 13.876953 C 16.377083 13.903893 16.163567 13.925781 16.123047 13.925781 C 16.082558 13.925781 16.330515 13.637883 16.671875 13.285156 C 17.013241 12.932429 17.561647 12.356541 17.890625 12.005859 C 18.219603 11.655182 18.605447 11.279058 18.75 11.169922 L 19.013672 10.972656 z M 2.0449219 11.5625 C 2.0908465 11.558563 2.1420082 11.592696 2.2128906 11.652344 C 2.6563002 12.025449 3.9185659 12.684103 4.9042969 13.056641 C 5.1099217 13.134349 5.2959794 13.211579 5.3183594 13.230469 C 5.4048293 13.303113 3.6800238 13.724861 2.7773438 13.851562 C 2.484449 13.892662 2.1411247 13.925781 2.0136719 13.925781 C 1.7905121 13.925781 1.776759 13.918988 1.6738281 13.712891 C 1.4521073 13.268938 1.49825 12.590326 1.7929688 11.933594 C 1.9073055 11.678823 1.9683808 11.569062 2.0449219 11.5625 z M 26.955078 11.5625 C 27.03162 11.569063 27.092698 11.678827 27.207031 11.933594 C 27.501751 12.590331 27.547894 13.268938 27.326172 13.712891 L 27.21875 13.927734 L 26.916016 13.919922 C 26.538235 13.912145 25.860963 13.815679 25.242188 13.679688 C 24.492873 13.515003 23.637091 13.267929 23.681641 13.230469 C 23.70406 13.211625 23.890072 13.134361 24.095703 13.056641 C 25.08144 12.684109 26.3437 12.02545 26.787109 11.652344 C 26.857992 11.5927 26.909153 11.558562 26.955078 11.5625 z M 14.507812 11.857422 L 14.542969 12.033203 C 14.604015 12.327826 14.990913 13.427734 15.033203 13.427734 C 15.055153 13.427734 15.074219 13.376533 15.074219 13.314453 C 15.074219 13.222948 15.161175 13.156602 15.535156 12.958984 C 15.788769 12.824962 16.125141 12.636966 16.283203 12.541016 C 16.441275 12.445067 16.584123 12.380998 16.601562 12.398438 C 16.619005 12.415885 16.554934 12.558735 16.458984 12.716797 C 16.36302 12.874864 16.175038 13.211231 16.041016 13.464844 C 15.843388 13.838809 15.777047 13.925781 15.685547 13.925781 C 15.443597 13.925781 15.595953 14.014533 16.181641 14.210938 C 16.517504 14.323571 16.870827 14.435708 16.966797 14.460938 L 17.142578 14.507812 L 16.966797 14.542969 C 16.672169 14.604015 15.572266 14.990913 15.572266 15.033203 C 15.572266 15.055153 15.623477 15.074219 15.685547 15.074219 C 15.777052 15.074219 15.843393 15.161175 16.041016 15.535156 C 16.175032 15.788763 16.363014 16.125142 16.458984 16.283203 C 16.554928 16.441249 16.619002 16.584123 16.601562 16.601562 C 16.58412 16.619005 16.441244 16.554934 16.283203 16.458984 C 16.125136 16.363025 15.788769 16.175043 15.535156 16.041016 C 15.161196 15.843393 15.074219 15.777057 15.074219 15.685547 C 15.074219 15.443602 14.985467 15.595953 14.789062 16.181641 C 14.676418 16.517504 14.564292 16.870827 14.539062 16.966797 L 14.492188 17.142578 L 14.457031 16.966797 C 14.395985 16.672168 14.009087 15.572266 13.966797 15.572266 C 13.944847 15.572266 13.925781 15.623477 13.925781 15.685547 C 13.925781 15.777056 13.838824 15.843399 13.464844 16.041016 C 13.211231 16.175038 12.874859 16.363014 12.716797 16.458984 C 12.55873 16.554934 12.415877 16.619002 12.398438 16.601562 C 12.380989 16.584114 12.445046 16.441244 12.541016 16.283203 C 12.63698 16.125136 12.824957 15.788769 12.958984 15.535156 C 13.156607 15.161196 13.222953 15.074219 13.314453 15.074219 C 13.556409 15.074219 13.404047 14.985461 12.818359 14.789062 C 12.482496 14.676418 12.129173 14.564282 12.033203 14.539062 L 11.857422 14.492188 L 12.033203 14.457031 C 12.327831 14.39598 13.427734 14.009087 13.427734 13.966797 C 13.427734 13.944847 13.376523 13.925781 13.314453 13.925781 C 13.222949 13.925781 13.156602 13.838825 12.958984 13.464844 C 12.824963 13.211231 12.636986 12.874864 12.541016 12.716797 C 12.445066 12.55873 12.380998 12.415877 12.398438 12.398438 C 12.415886 12.38099 12.558735 12.445066 12.716797 12.541016 C 12.874859 12.636981 13.211231 12.824957 13.464844 12.958984 C 13.838834 13.156591 13.925781 13.222953 13.925781 13.314453 C 13.925781 13.556403 14.014538 13.404041 14.210938 12.818359 C 14.323582 12.482496 14.435708 12.129153 14.460938 12.033203 L 14.507812 11.857422 z M 7.1914062 13.849609 C 7.6104608 13.979676 9.3121407 14.334059 10.138672 14.462891 L 10.412109 14.503906 L 10.138672 14.541016 C 9.6793753 14.602427 8.5531467 14.822483 7.8945312 14.978516 C 7.5518136 15.0597 7.2355262 15.136601 7.1914062 15.150391 C 7.1267343 15.170459 7.1041687 15.118826 7.0742188 14.886719 C 7.0049668 14.349904 7.0658804 13.810649 7.1914062 13.849609 z M 21.808594 13.849609 C 21.873266 13.829547 21.895831 13.881174 21.925781 14.113281 C 21.971818 14.470437 21.971781 14.530658 21.925781 14.886719 C 21.905421 15.044368 21.874272 15.170669 21.857422 15.167969 C 21.840693 15.165499 21.670432 15.120639 21.478516 15.068359 C 21.044878 14.95024 19.290406 14.594489 18.886719 14.542969 L 18.587891 14.505859 L 18.861328 14.462891 C 19.70431 14.330291 21.391295 13.97915 21.808594 13.849609 z M 6.0214844 13.886719 C 6.0390362 13.897759 6.0298425 13.926389 6.0078125 13.984375 C 5.9771125 14.064995 5.9838369 14.168503 6.0292969 14.300781 C 6.0860358 14.465853 6.0858668 14.529892 6.0292969 14.697266 C 5.9858169 14.825475 5.9761563 14.936696 6.0039062 15.009766 L 6.0058594 15.009766 C 6.0694053 15.176903 6.0805217 15.178825 4.7050781 14.78125 C 4.4994473 14.721814 4.2007255 14.63701 4.0410156 14.59375 C 3.8813328 14.550457 3.7616006 14.504024 3.7753906 14.490234 C 3.7892476 14.476381 4.0315474 14.403625 4.3144531 14.328125 C 4.5973648 14.252594 5.0233219 14.13321 5.2597656 14.0625 C 5.4962034 13.991806 5.7711538 13.919231 5.8710938 13.900391 C 5.9590912 13.883885 6.0039325 13.875679 6.0214844 13.886719 z M 22.978516 13.886719 C 22.996073 13.875679 23.04091 13.883886 23.128906 13.900391 C 23.228847 13.919133 23.503797 13.99179 23.740234 14.0625 C 23.976678 14.133185 24.402635 14.252625 24.685547 14.328125 C 24.968459 14.403628 25.210819 14.476444 25.224609 14.490234 C 25.253887 14.519517 25.225455 14.52912 24.59375 14.697266 C 24.333289 14.766599 23.939629 14.878413 23.716797 14.945312 C 23.493965 15.012233 23.228746 15.080769 23.128906 15.099609 C 22.953325 15.132552 22.948338 15.130906 22.992188 15.015625 C 23.022617 14.935773 23.015783 14.830697 22.970703 14.697266 C 22.914122 14.529892 22.913963 14.465842 22.970703 14.300781 C 23.016103 14.168503 23.024791 14.064985 22.994141 13.984375 C 22.97209 13.92639 22.960958 13.897759 22.978516 13.886719 z M 2.0136719 15.074219 C 2.3218576 15.074219 3.1981368 15.198773 3.7695312 15.324219 C 4.5063625 15.485984 5.3626893 15.732341 5.3183594 15.769531 C 5.2959524 15.788359 5.1099277 15.865669 4.9042969 15.943359 C 3.9245399 16.313642 2.6561646 16.975683 2.21875 17.34375 C 2.1382991 17.411439 2.0600387 17.466797 2.0429688 17.466797 C 1.9923458 17.466797 1.8193408 17.160802 1.7167969 16.888672 C 1.4862641 16.277024 1.4715085 15.695559 1.6757812 15.285156 C 1.7771921 15.081384 1.7908181 15.074219 2.0136719 15.074219 z M 12.876953 15.074219 C 12.917443 15.074219 12.669485 15.362293 12.328125 15.714844 C 11.98676 16.067388 11.450062 16.63113 11.134766 16.96875 C 10.819463 17.306369 10.43791 17.680198 10.287109 17.798828 C 10.136332 17.917454 10.000585 18.01365 9.984375 18.013672 C 9.8692661 18.01379 8.3919009 16.922932 8.0039062 16.550781 C 7.6887975 16.248548 7.3729713 15.823617 7.4257812 15.773438 C 7.4772902 15.72449 8.5960017 15.467181 9.265625 15.349609 C 9.5123838 15.306278 10.230729 15.247803 10.861328 15.220703 C 11.491932 15.193583 12.185672 15.150047 12.404297 15.123047 C 12.622916 15.096107 12.836433 15.074219 12.876953 15.074219 z M 16.123047 15.074219 C 16.163542 15.074219 16.377073 15.096047 16.595703 15.123047 C 16.814327 15.150057 17.508078 15.193603 18.138672 15.220703 C 18.769271 15.247823 19.487616 15.306299 19.734375 15.349609 C 20.404004 15.467165 21.522689 15.724488 21.574219 15.773438 C 21.627031 15.82362 21.311203 16.248543 20.996094 16.550781 C 20.734688 16.801507 19.743843 17.563076 19.339844 17.824219 C 19.177939 17.928895 19.031835 18.013693 19.015625 18.013672 C 18.925618 18.013581 18.366352 17.505344 17.865234 16.96875 C 17.549938 16.631126 17.013241 16.067394 16.671875 15.714844 C 16.33051 15.362299 16.082527 15.074219 16.123047 15.074219 z M 26.986328 15.074219 C 27.209493 15.074219 27.223246 15.081007 27.326172 15.287109 C 27.557291 15.7499 27.496032 16.476102 27.173828 17.115234 C 27.084476 17.292445 26.990321 17.442119 26.962891 17.449219 C 26.935465 17.456154 26.852034 17.40945 26.777344 17.34375 C 26.381255 16.99537 25.080092 16.315387 24.095703 15.943359 C 23.890077 15.865631 23.704021 15.788371 23.681641 15.769531 C 23.637341 15.73231 24.493632 15.485973 25.230469 15.324219 C 25.801858 15.198795 26.678147 15.074219 26.986328 15.074219 z M 6.6367188 16.070312 C 6.6564033 16.070967 6.6694611 16.074916 6.6757812 16.082031 C 6.7063792 16.116472 6.8786449 16.323642 7.0585938 16.542969 C 7.2385426 16.762308 7.5713534 17.099098 7.7988281 17.291016 C 8.026303 17.482932 8.3940986 17.7955 8.6152344 17.984375 C 8.8363872 18.173249 9.0671963 18.359921 9.1289062 18.400391 C 9.1905522 18.440834 9.2402344 18.491859 9.2402344 18.511719 C 9.2402344 18.559057 8.5385667 18.881069 8.21875 18.980469 C 8.0816631 19.023068 7.7682431 19.093139 7.5214844 19.136719 C 6.867554 19.252289 5.8254456 19.273824 5.2519531 19.183594 C 4.6090148 19.082445 3.7860519 18.873481 3.7636719 18.806641 C 3.7088039 18.642047 3.2503369 18.119088 3.0488281 17.990234 C 2.9201783 17.90798 2.8141 17.828673 2.8125 17.814453 C 2.811008 17.800235 2.9399974 17.715703 3.0976562 17.626953 C 3.2553101 17.538208 3.5943858 17.342699 3.8515625 17.193359 C 4.6213992 16.74632 6.3414509 16.060491 6.6367188 16.070312 z M 22.363281 16.070312 C 22.658557 16.060496 24.378602 16.746325 25.148438 17.193359 C 25.405614 17.342699 25.744706 17.538213 25.902344 17.626953 C 26.059998 17.715706 26.1891 17.800233 26.1875 17.814453 C 26.186008 17.828697 26.0798 17.907974 25.951172 17.990234 C 25.749937 18.1189 25.291488 18.641967 25.236328 18.806641 C 25.211483 18.880826 24.390425 19.081788 23.712891 19.179688 C 23.20529 19.252997 22.508475 19.273422 22.126953 19.226562 C 21.669095 19.1703 20.99848 19.048299 20.78125 18.980469 C 20.460328 18.880281 19.759766 18.558899 19.759766 18.511719 C 19.759766 18.491801 19.809384 18.440861 19.871094 18.400391 C 19.932783 18.359923 20.163624 18.173249 20.384766 17.984375 C 20.605912 17.7955 20.973697 17.482932 21.201172 17.291016 C 21.428647 17.099092 21.761452 16.762296 21.941406 16.542969 C 22.121345 16.323625 22.293629 16.116491 22.324219 16.082031 C 22.33054 16.074917 22.343596 16.070967 22.363281 16.070312 z M 13.925781 16.123047 C 13.925781 16.163542 13.903953 16.377073 13.876953 16.595703 C 13.849933 16.814322 13.805917 17.508079 13.779297 18.138672 C 13.729973 19.308855 13.63709 19.973984 13.365234 21.101562 C 13.302975 21.359818 13.229402 21.578291 13.201172 21.587891 C 13.125968 21.612961 12.537569 21.112407 12.275391 20.800781 C 11.929528 20.389686 11.250629 19.478162 11.105469 19.230469 L 10.974609 19.009766 L 11.171875 18.748047 C 11.280189 18.604589 11.655182 18.219603 12.005859 17.890625 C 12.356541 17.561647 12.932429 17.013241 13.285156 16.671875 C 13.637884 16.33051 13.925781 16.082527 13.925781 16.123047 z M 15.074219 16.123047 C 15.074219 16.082557 15.362122 16.330515 15.714844 16.671875 C 16.067576 17.013235 16.643458 17.561647 16.994141 17.890625 C 17.344817 18.219604 17.719805 18.604594 17.828125 18.748047 L 18.025391 19.009766 L 17.894531 19.230469 C 17.749366 19.478162 17.070467 20.389692 16.724609 20.800781 C 16.600242 20.948602 16.353905 21.189034 16.175781 21.335938 C 15.997684 21.482846 15.833517 21.603516 15.810547 21.603516 C 15.755727 21.603516 15.743432 21.56955 15.599609 20.955078 C 15.345466 19.869153 15.270353 19.305023 15.220703 18.138672 C 15.193843 17.508078 15.150097 16.814333 15.123047 16.595703 C 15.096107 16.377084 15.074219 16.163567 15.074219 16.123047 z M 14.503906 18.587891 L 14.541016 18.861328 C 14.625473 19.493 15.012632 21.364781 15.150391 21.808594 C 15.170362 21.872926 15.123096 21.893709 14.912109 21.917969 C 14.767568 21.934609 14.605611 21.960096 14.550781 21.972656 C 14.495956 21.985326 14.394742 21.975715 14.326172 21.953125 C 14.257634 21.930575 14.11442 21.910903 14.009766 21.908203 C 13.852511 21.904103 13.825276 21.888486 13.847656 21.816406 C 13.979408 21.392704 14.332883 19.695309 14.462891 18.861328 L 14.503906 18.587891 z M 10.097656 18.902344 C 10.120617 18.92531 10.004862 19.210628 9.8398438 19.537109 C 9.6748269 19.863597 9.5390625 20.159059 9.5390625 20.193359 C 9.5390625 20.227634 9.4256731 20.345953 9.2851562 20.457031 C 8.9584806 20.71526 8.0768105 21.48236 7.6230469 21.904297 C 7.4298731 22.083924 7.1371531 22.322247 6.9726562 22.433594 C 6.8081544 22.544951 6.533489 22.708122 6.3613281 22.794922 L 6.046875 22.953125 L 6.2050781 22.638672 C 6.4327729 22.187077 6.7225915 21.778199 7.0957031 21.376953 C 7.5176447 20.923195 8.284745 20.041518 8.5429688 19.714844 C 8.6540136 19.574343 8.7723407 19.460938 8.8066406 19.460938 C 8.8409106 19.460938 9.136408 19.325179 9.4628906 19.160156 C 9.7893723 18.995144 10.074686 18.879374 10.097656 18.902344 z M 18.902344 18.902344 C 18.92531 18.879378 19.210628 18.995133 19.537109 19.160156 C 19.863597 19.325174 20.159059 19.460938 20.193359 19.460938 C 20.227634 19.460937 20.345953 19.574327 20.457031 19.714844 C 20.71526 20.041519 21.48236 20.923196 21.904297 21.376953 C 22.277049 21.777818 22.565988 22.188494 22.792969 22.638672 C 22.879362 22.810023 22.9448 22.947802 22.9375 22.947266 C 22.930255 22.946552 22.768089 22.862144 22.576172 22.759766 C 22.090457 22.500668 21.785257 22.283548 21.376953 21.904297 C 20.920592 21.480412 20.039683 20.713805 19.714844 20.457031 C 19.574322 20.345947 19.460938 20.227659 19.460938 20.193359 C 19.460938 20.15909 19.325174 19.863596 19.160156 19.537109 C 18.995148 19.210627 18.879374 18.925314 18.902344 18.902344 z M 2.7753906 19.177734 C 2.7832906 19.169823 2.9248158 19.217583 3.0878906 19.283203 C 3.4322233 19.421734 3.5524731 19.576205 3.7949219 20.191406 C 3.9308977 20.536427 4.181432 21.626732 4.3867188 22.765625 C 4.4253027 22.97973 4.5139544 23.268068 4.5839844 23.40625 C 4.6540013 23.544426 4.7038125 23.663422 4.6953125 23.669922 C 4.6866125 23.6764 4.4207714 23.851337 4.1054688 24.058594 C 3.3812025 24.534657 2.9809772 24.833392 2.2636719 25.435547 C 1.9493842 25.699385 1.5315212 26.076464 1.3339844 26.273438 C 1.1355296 26.471328 0.96509499 26.604896 0.953125 26.572266 C 0.91900603 26.47892 1.0062263 24.661682 1.0664062 24.220703 C 1.0963492 24.001365 1.1627107 23.631483 1.2128906 23.398438 C 1.2630356 23.165392 1.3410988 22.764752 1.3867188 22.507812 C 1.5194206 21.760639 1.6886921 21.307343 2.2421875 20.216797 C 2.5280992 19.653453 2.7674906 19.185634 2.7753906 19.177734 z M 26.224609 19.177734 C 26.232509 19.185629 26.471901 19.653458 26.757812 20.216797 C 27.311308 21.307343 27.480595 21.760644 27.613281 22.507812 C 27.658923 22.764752 27.736979 23.165392 27.787109 23.398438 C 27.929996 24.06226 27.984427 24.545622 28.029297 25.566406 C 28.052217 26.087334 28.056132 26.539393 28.039062 26.570312 C 28.020729 26.603851 27.889485 26.50082 27.710938 26.316406 C 27.073039 25.657565 25.911917 24.7276 24.894531 24.058594 C 24.579235 23.851261 24.313187 23.676422 24.304688 23.669922 C 24.295988 23.66345 24.345996 23.544432 24.416016 23.40625 C 24.486041 23.268057 24.574691 22.979731 24.613281 22.765625 C 24.818563 21.626727 25.069108 20.536421 25.205078 20.191406 C 25.447533 19.576206 25.567776 19.421734 25.912109 19.283203 C 26.075173 19.217632 26.216709 19.169834 26.224609 19.177734 z M 4.5195312 19.716797 C 4.6211771 19.725864 4.7617938 19.745694 4.9160156 19.771484 C 5.3775452 19.848914 5.6492385 19.861277 6.4492188 19.841797 C 6.9838592 19.828847 7.4783151 19.80111 7.546875 19.78125 C 7.6267539 19.758204 7.3842654 20.023856 6.8730469 20.519531 C 6.2282575 21.144716 6.0201384 21.379432 5.7910156 21.75 L 5.5078125 22.208984 L 5.3320312 21.828125 C 5.2353213 21.618801 5.0645248 21.215235 4.9511719 20.929688 C 4.837802 20.644152 4.6577641 20.265263 4.5507812 20.087891 C 4.4437974 19.910524 4.3554688 19.744803 4.3554688 19.720703 C 4.3554688 19.708663 4.4178854 19.707729 4.5195312 19.716797 z M 24.480469 19.716797 C 24.582116 19.707732 24.644531 19.708653 24.644531 19.720703 C 24.644531 19.74479 24.556202 19.910497 24.449219 20.087891 C 24.342236 20.265268 24.162182 20.644146 24.048828 20.929688 C 23.935464 21.215235 23.765712 21.616914 23.669922 21.824219 C 23.57413 22.031535 23.490475 22.200319 23.484375 22.199219 C 23.478353 22.198028 23.35002 21.993164 23.199219 21.744141 C 22.974009 21.372232 22.782112 21.15457 22.126953 20.519531 C 21.61588 20.024146 21.373285 19.75822 21.453125 19.78125 C 21.521668 19.801 22.016141 19.828807 22.550781 19.841797 C 23.350767 19.861127 23.622455 19.848684 24.083984 19.771484 C 24.238206 19.745674 24.378821 19.725862 24.480469 19.716797 z M 10.488281 19.759766 C 10.508208 19.759766 10.559139 19.809414 10.599609 19.871094 C 10.640083 19.932784 10.826729 20.163629 11.015625 20.384766 C 11.2045 20.605912 11.517067 20.973703 11.708984 21.201172 C 11.900907 21.428647 12.237698 21.761457 12.457031 21.941406 C 12.67637 22.12135 12.883509 22.293629 12.917969 22.324219 C 13.031806 22.425357 12.283482 24.327273 11.806641 25.148438 C 11.6573 25.405609 11.461797 25.744684 11.373047 25.902344 C 11.284305 26.059998 11.199767 26.1891 11.185547 26.1875 C 11.171308 26.186013 11.092026 26.079817 11.009766 25.951172 C 10.881094 25.749932 10.358038 25.291478 10.193359 25.236328 C 10.117408 25.210888 9.917545 24.384285 9.8144531 23.671875 C 9.6869253 22.790631 9.7720275 21.57757 10.019531 20.78125 C 10.118931 20.461434 10.440941 19.759766 10.488281 19.759766 z M 18.511719 19.759766 C 18.559052 19.759766 18.881049 20.461433 18.980469 20.78125 C 19.227988 21.577569 19.313081 22.790625 19.185547 23.671875 C 19.082455 24.38428 18.882561 25.210888 18.806641 25.236328 C 18.641956 25.291491 18.118878 25.749921 17.990234 25.951172 C 17.907979 26.079816 17.828673 26.1859 17.814453 26.1875 C 17.80023 26.188987 17.715703 26.059982 17.626953 25.902344 C 17.538208 25.744696 17.343548 25.405164 17.193359 25.146484 C 16.712557 24.318439 15.967153 22.426269 16.082031 22.324219 C 16.116472 22.293615 16.323641 22.121355 16.542969 21.941406 C 16.762307 21.761462 17.099098 21.428647 17.291016 21.201172 C 17.482938 20.973703 17.795495 20.605906 17.984375 20.384766 C 18.17325 20.163618 18.359921 19.932804 18.400391 19.871094 C 18.440843 19.809387 18.491859 19.759766 18.511719 19.759766 z M 9.2128906 21.439453 C 9.2188936 21.439491 9.2216287 21.443143 9.21875 21.453125 C 9.19899 21.521668 9.1711931 22.016141 9.1582031 22.550781 C 9.1388731 23.350766 9.1513057 23.622455 9.2285156 24.083984 C 9.2909956 24.457204 9.3051712 24.644178 9.2695312 24.642578 C 9.2400983 24.641279 9.0758887 24.552789 8.9042969 24.447266 C 8.732683 24.341737 8.3582203 24.162364 8.0722656 24.048828 C 7.7863048 23.935297 7.3812148 23.764679 7.171875 23.667969 L 6.7910156 23.492188 L 7.25 23.207031 C 7.6205616 22.977908 7.8552853 22.771742 8.4804688 22.126953 C 8.9141839 21.679623 9.1708695 21.439185 9.2128906 21.439453 z M 19.787109 21.439453 C 19.82912 21.43918 20.085815 21.679641 20.519531 22.126953 C 21.144716 22.771742 21.379432 22.977914 21.75 23.207031 L 22.208984 23.492188 L 21.828125 23.667969 C 21.618796 23.76469 21.215229 23.935474 20.929688 24.048828 C 20.644141 24.162198 20.265284 24.342231 20.087891 24.449219 C 19.910507 24.556203 19.744803 24.644531 19.720703 24.644531 C 19.696623 24.644531 19.719904 24.392433 19.771484 24.083984 C 19.848914 23.622455 19.861277 23.350766 19.841797 22.550781 C 19.828847 22.016141 19.80111 21.521685 19.78125 21.453125 C 19.778369 21.44314 19.781108 21.439492 19.787109 21.439453 z M 14.501953 22.927734 C 14.559309 22.927764 14.616688 22.942333 14.699219 22.970703 C 14.831502 23.016103 14.935015 23.022837 15.015625 22.992188 C 15.131585 22.948113 15.132619 22.952913 15.099609 23.128906 C 15.080867 23.228847 15.00821 23.503791 14.9375 23.740234 C 14.866815 23.976672 14.747375 24.40264 14.671875 24.685547 C 14.59635 24.968459 14.523556 25.210819 14.509766 25.224609 C 14.480483 25.253887 14.470875 25.225449 14.302734 24.59375 C 14.233401 24.333283 14.121587 23.937677 14.054688 23.714844 C 13.987767 23.492006 13.919231 23.228746 13.900391 23.128906 C 13.867449 22.95332 13.869095 22.948338 13.984375 22.992188 C 14.064227 23.022567 14.169297 23.015783 14.302734 22.970703 C 14.386418 22.942412 14.444597 22.927705 14.501953 22.927734 z M 13.230469 23.681641 C 13.26769 23.63734 13.514026 24.493633 13.675781 25.230469 C 13.801205 25.801864 13.925781 26.678142 13.925781 26.986328 C 13.925781 27.210529 13.920187 27.221668 13.707031 27.328125 C 13.271393 27.545682 12.584566 27.500247 11.935547 27.208984 C 11.525966 27.025182 11.493187 26.976274 11.652344 26.787109 C 12.025455 26.3437 12.684103 25.081439 13.056641 24.095703 C 13.134349 23.890083 13.211629 23.704021 13.230469 23.681641 z M 15.769531 23.681641 C 15.788375 23.704054 15.865669 23.890072 15.943359 24.095703 C 16.315896 25.081434 16.974551 26.343694 17.347656 26.787109 C 17.446076 26.904107 17.462802 26.954229 17.419922 27.005859 C 17.329095 27.115295 16.794581 27.335199 16.431641 27.412109 C 15.90073 27.524615 15.598508 27.496676 15.234375 27.300781 C 15.087779 27.221879 15.074219 27.191879 15.074219 26.984375 C 15.074219 26.6784 15.199159 25.800071 15.324219 25.230469 C 15.485979 24.493627 15.732341 23.637361 15.769531 23.681641 z M 5.3300781 24.304688 C 5.3365561 24.295983 5.4555681 24.346016 5.59375 24.416016 C 5.7319429 24.486019 6.0202692 24.574691 6.234375 24.613281 C 7.3732669 24.818558 8.4635731 25.069107 8.8085938 25.205078 C 9.4237941 25.447533 9.578272 25.567782 9.7167969 25.912109 C 9.7823738 26.075173 9.8301656 26.216709 9.8222656 26.224609 C 9.8143656 26.232509 9.3465476 26.471895 8.7832031 26.757812 C 7.7029841 27.306058 7.2559258 27.473823 6.5234375 27.607422 C 6.2766837 27.652452 5.8620292 27.733599 5.6015625 27.787109 C 4.8533112 27.940901 4.5326664 27.979176 3.7070312 28.009766 L 3.7070312 28.007812 C 3.2820627 28.023592 2.8343114 28.046071 2.7109375 28.056641 C 2.5875746 28.067461 2.4586812 28.066094 2.4257812 28.052734 C 2.3909483 28.038575 2.5155496 27.87762 2.7246094 27.667969 C 3.4339507 26.956605 4.2885759 25.887711 4.9414062 24.894531 C 5.148641 24.579229 5.3235781 24.313187 5.3300781 24.304688 z M 23.669922 24.304688 C 23.676395 24.313382 23.851337 24.579229 24.058594 24.894531 C 24.711166 25.88732 25.564843 26.955387 26.273438 27.666016 C 26.538335 27.931596 26.612531 28.033218 26.556641 28.054688 C 26.515082 28.070457 26.453915 28.080472 26.421875 28.076172 C 26.389844 28.072042 25.971987 28.051197 25.492188 28.029297 C 24.547895 27.986059 24.057843 27.929048 23.398438 27.787109 C 23.165392 27.736948 22.764752 27.658901 22.507812 27.613281 C 21.760644 27.480578 21.307338 27.311303 20.216797 26.757812 C 19.653453 26.471901 19.185634 26.232509 19.177734 26.224609 C 19.169823 26.216708 19.217583 26.075184 19.283203 25.912109 C 19.421729 25.567782 19.576205 25.447527 20.191406 25.205078 C 20.536426 25.069107 21.626727 24.818568 22.765625 24.613281 C 22.97973 24.574696 23.268068 24.486036 23.40625 24.416016 C 23.544432 24.345999 23.663422 24.296188 23.669922 24.304688 z M 4.3398438 24.660156 C 4.3675217 24.687829 3.4826641 25.990477 2.9628906 26.6875 C 2.7281059 27.002346 2.3819062 27.423824 2.1933594 27.623047 C 1.8595777 27.975785 1.8435134 27.985016 1.6191406 27.978516 C 1.1170821 27.96373 1.0649368 27.916657 1.0292969 27.472656 L 1.0039062 27.160156 L 1.3710938 26.8125 C 1.5735475 26.620882 1.9976543 26.271889 2.3125 26.037109 C 3.0095233 25.517331 4.3122038 24.632466 4.3398438 24.660156 z M 24.660156 24.660156 C 24.687834 24.632483 25.990472 25.517331 26.6875 26.037109 C 27.002347 26.271889 27.426436 26.620888 27.628906 26.8125 L 27.996094 27.160156 L 27.970703 27.478516 C 27.955813 27.663681 27.914624 27.827514 27.871094 27.871094 C 27.827519 27.914693 27.663697 27.955673 27.478516 27.970703 L 27.160156 27.996094 L 26.8125 27.628906 C 26.620878 27.426453 26.271889 27.002346 26.037109 26.6875 C 25.51733 25.990477 24.632456 24.687856 24.660156 24.660156 z " />
  <g
     id="g3566">
    <g
       aria-label="Praxis fr Kunsttherapie PTM"
       id="text11946-6"
       style="font-size:6.73297px;line-height:1;font-family:'Gill Sans Nova';-inkscape-font-specification:'Gill Sans Nova';text-align:end;letter-spacing:0px;word-spacing:0px;text-anchor:end;fill:#00503c;stroke-width:0.999997">
      <path
         d="m 35.89307,6.3544845 q 0,0.6575166 -0.417523,0.9796998 -0.417523,0.3188956 -1.18353,0.3188956 H 33.657513 V 9.6453552 H 32.999997 V 5.0526016 h 1.40051 q 0.700255,0 1.094765,0.3484838 0.397798,0.3451962 0.397798,0.9533991 z m -0.68053,-0.016438 q 0,-0.3419086 -0.213693,-0.5227257 -0.210405,-0.1841047 -0.733131,-0.1841047 h -0.608203 v 1.443249 h 0.608203 q 0.535876,0 0.739707,-0.1841046 0.207117,-0.1873923 0.207117,-0.552314 z"
         id="path3568" />
      <path
         d="m 38.690803,6.9035109 -0.318895,0.5260133 q -0.134791,-0.1282157 -0.295883,-0.2104053 -0.161091,-0.085477 -0.282732,-0.085477 -0.154516,0 -0.322183,0.1117778 -0.167667,0.1117779 -0.279445,0.3188956 -0.111778,0.2038302 -0.111778,0.473412 v 1.6076281 h -0.59834 V 6.6207788 h 0.59834 v 0.69368 q 0.249857,-0.4109479 0.46355,-0.5819022 0.21698,-0.1709543 0.440536,-0.1709543 0.180817,0 0.364922,0.09534 0.184104,0.092052 0.341908,0.2465687 z"
         id="path3570" />
      <path
         d="m 41.048,7.5380144 v 1.522151 q 0,0.1413661 0.115066,0.1413661 0.09863,0 0.315608,-0.1610916 v 0.4306734 q -0.351772,0.2334184 -0.627929,0.2334184 -0.335333,0 -0.40766,-0.3090328 -0.391223,0.3090328 -0.815321,0.3090328 -0.318895,0 -0.532588,-0.2169805 -0.210406,-0.220268 -0.210406,-0.5227257 0,-0.2958825 0.187393,-0.496425 0.19068,-0.2038302 0.460261,-0.3221832 0.269582,-0.118353 0.706831,-0.259719 L 40.44966,7.8207466 V 7.6530799 q 0,-0.276157 -0.134791,-0.4010852 -0.134791,-0.1249281 -0.410948,-0.1249281 -0.256431,0 -0.503,0.1249281 -0.246569,0.1249282 -0.453686,0.3747845 V 6.9725501 q 0.348483,-0.4109478 1.002712,-0.4109478 0.512863,0 0.805458,0.2662942 Q 41.048,7.0941907 41.048,7.5380144 Z m -1.124353,1.7424191 q 0.263006,0 0.526013,-0.2465687 V 8.1495049 q -0.519438,0.1709543 -0.739706,0.3320459 -0.216981,0.1610916 -0.216981,0.3747845 0,0.1841046 0.118353,0.3057452 0.121641,0.118353 0.312321,0.118353 z"
         id="path3572" />
      <path
         d="m 44.042989,6.6207788 h 0.766007 L 43.563002,8.1100539 44.89776,9.6453552 H 44.131753 L 43.181642,8.5604528 42.284132,9.6453552 H 41.531275 L 42.80357,8.1100539 41.531275,6.6207788 h 0.752857 l 0.89751,1.0388762 z"
         id="path3574" />
      <path
         d="m 45.989237,5.7002555 q 0,0.1413661 -0.105202,0.2498563 -0.105203,0.1052027 -0.253144,0.1052027 -0.147941,0 -0.249856,-0.1084903 -0.09863,-0.1117778 -0.09863,-0.2465687 0,-0.1347909 0.09863,-0.2432812 0.101915,-0.1084902 0.249856,-0.1084902 0.147941,0 0.253144,0.1052026 0.105202,0.1052027 0.105202,0.2465688 z M 45.335008,9.6453552 V 6.6207788 h 0.598341 v 3.0245764 z"
         id="path3576" />
      <path
         d="m 47.633029,6.5616023 q 0.463549,0 0.917236,0.2498563 V 7.4097987 Q 48.274108,7.242132 48.070278,7.1665175 47.869735,7.0876156 47.67248,7.0876156 q -0.193967,0 -0.289307,0.069039 -0.09205,0.065752 -0.09205,0.157804 0,0.088765 0.03616,0.1512288 0.03616,0.059177 0.164379,0.1545164 0.128216,0.092052 0.397797,0.2465688 0.36821,0.2169804 0.588478,0.4339609 0.220268,0.2136929 0.220268,0.5424512 0,0.197255 -0.105203,0.3977976 -0.105202,0.197255 -0.341908,0.3320459 -0.233419,0.1315033 -0.591765,0.1315033 -0.256432,0 -0.470125,-0.055889 Q 46.9788,9.5927539 46.650042,9.4283747 V 8.7840084 q 0.21698,0.1676668 0.483274,0.2827322 0.269582,0.1150654 0.479987,0.1150654 0.236706,0 0.348484,-0.078902 0.115066,-0.08219 0.115066,-0.2038301 0,-0.1019151 -0.04274,-0.1676668 -0.04274,-0.069039 -0.19068,-0.1676667 Q 47.698781,8.4618253 47.356872,8.2579951 47.021539,8.0508774 46.844009,7.8470473 46.669767,7.6399295 46.669767,7.3506222 q 0,-0.3451962 0.27287,-0.5654643 0.272869,-0.2235556 0.690392,-0.2235556 z"
         id="path3578" />
      <path
         d="m 52.827411,5.0591768 v 0.5588891 q -0.134791,-0.052601 -0.348484,-0.052601 -0.282732,0 -0.417523,0.1906798 -0.13479,0.1873922 -0.13479,0.6312159 v 0.2334185 h 0.539163 V 7.1599424 H 51.926614 V 9.6453552 H 51.318411 V 7.1599424 H 50.894312 V 6.6207788 h 0.424099 V 6.3807852 q 0,-0.6542291 0.289307,-1.0158632 0.292595,-0.3649217 0.77587,-0.3649217 0.23013,0 0.443823,0.059177 z"
         id="path3580" />
      <path
         d="m 54.208195,9.2081067 q 0.207118,0 0.39451,-0.1117779 0.19068,-0.1117778 0.332046,-0.3123204 V 6.6207788 h 0.59834 v 3.0245764 h -0.59834 V 9.260708 q -0.197255,0.2104053 -0.443824,0.3287583 -0.243281,0.1150654 -0.479987,0.1150654 -1.022438,0 -1.022438,-1.364347 V 6.6207788 h 0.59834 v 1.8048831 q 0,0.4240982 0.157804,0.6049153 0.157804,0.1775295 0.463549,0.1775295 z M 53.675606,5.3156083 q 0.141366,0 0.243282,0.1052026 0.105202,0.1052027 0.105202,0.2465687 0,0.1413661 -0.105202,0.2432812 -0.101916,0.098628 -0.243282,0.098628 -0.141366,0 -0.246568,-0.098628 -0.105203,-0.1019151 -0.105203,-0.2432812 0,-0.141366 0.105203,-0.2465687 0.105202,-0.1052026 0.246568,-0.1052026 z m 1.196681,0 q 0.141366,0 0.243281,0.1052026 0.101915,0.1052027 0.101915,0.2465687 0,0.1413661 -0.101915,0.2432812 -0.101915,0.098628 -0.243281,0.098628 -0.141366,0 -0.246569,-0.098628 -0.101915,-0.1019151 -0.101915,-0.2432812 0,-0.141366 0.101915,-0.2465687 0.105203,-0.1052026 0.246569,-0.1052026 z"
         id="path3582" />
      <path
         d="m 58.577394,6.9035109 -0.318896,0.5260133 q -0.134791,-0.1282157 -0.295882,-0.2104053 -0.161092,-0.085477 -0.282733,-0.085477 -0.154516,0 -0.322183,0.1117778 -0.167666,0.1117779 -0.279444,0.3188956 -0.111778,0.2038302 -0.111778,0.473412 v 1.6076281 h -0.59834 V 6.6207788 h 0.59834 v 0.69368 q 0.249856,-0.4109479 0.463549,-0.5819022 0.216981,-0.1709543 0.440536,-0.1709543 0.180817,0 0.364922,0.09534 0.184105,0.092052 0.341909,0.2465687 z"
         id="path3584" />
      <path
         d="m 63.544932,5.0526016 h 0.821896 l -1.992276,2.17638 2.482126,2.4163736 H 63.95588 L 61.611833,7.3769229 V 9.6453552 H 60.947741 V 5.0526016 h 0.664092 v 2.1007656 z"
         id="path3586" />
      <path
         d="m 66.145409,9.2081067 q 0.207118,0 0.39451,-0.1117779 0.19068,-0.1117778 0.332046,-0.3123204 V 6.6207788 h 0.59834 v 3.0245764 h -0.59834 V 9.260708 q -0.197255,0.2104053 -0.443824,0.3287583 -0.243281,0.1150654 -0.479987,0.1150654 -1.022439,0 -1.022439,-1.364347 V 6.6207788 h 0.598341 v 1.8048831 q 0,0.4240982 0.157804,0.6049153 0.157804,0.1775295 0.463549,0.1775295 z"
         id="path3588" />
      <path
         d="m 70.889392,7.8207466 v 1.8246086 h -0.59834 V 7.8338969 q 0,-0.772582 -0.618066,-0.772582 -0.210405,0 -0.404372,0.1150654 -0.19068,0.1117778 -0.325471,0.3090328 v 2.1599421 h -0.59834 V 6.6207788 h 0.59834 V 7.005426 q 0.19068,-0.2136929 0.440536,-0.3287583 0.253144,-0.1150654 0.483275,-0.1150654 0.483274,0 0.752856,0.3320458 0.269582,0.3287584 0.269582,0.9270985 z"
         id="path3590" />
      <path
         d="m 72.55291,6.5616023 q 0.463549,0 0.917236,0.2498563 V 7.4097987 Q 73.193989,7.242132 72.990158,7.1665175 q -0.200542,-0.078902 -0.397797,-0.078902 -0.193968,0 -0.289307,0.069039 -0.09205,0.065752 -0.09205,0.157804 0,0.088765 0.03616,0.1512288 0.03616,0.059177 0.164379,0.1545164 0.128216,0.092052 0.397797,0.2465688 0.36821,0.2169804 0.588478,0.4339609 0.220268,0.2136929 0.220268,0.5424512 0,0.197255 -0.105203,0.3977976 -0.105203,0.197255 -0.341909,0.3320459 -0.233418,0.1315033 -0.591764,0.1315033 -0.256432,0 -0.470125,-0.055889 -0.210405,-0.055889 -0.539164,-0.2202681 V 8.7840084 q 0.216981,0.1676668 0.483275,0.2827322 0.269582,0.1150654 0.479987,0.1150654 0.236706,0 0.348484,-0.078902 0.115066,-0.08219 0.115066,-0.2038301 0,-0.1019151 -0.04274,-0.1676668 -0.04274,-0.069039 -0.19068,-0.1676667 Q 72.618662,8.4618253 72.276753,8.2579951 71.941419,8.0508774 71.76389,7.8470473 71.589648,7.6399295 71.589648,7.3506222 q 0,-0.3451962 0.272869,-0.5654643 0.27287,-0.2235556 0.690393,-0.2235556 z"
         id="path3592" />
      <path
         d="M 75.008733,6.6207788 H 75.96542 V 7.1599424 H 75.008733 V 8.567028 q 0,0.2761569 0.08219,0.4372485 0.08548,0.157804 0.341908,0.157804 0.351772,0 0.687105,-0.2169805 v 0.5588892 q -0.154516,0.09534 -0.374784,0.1479412 -0.216981,0.052601 -0.401085,0.052601 -0.463549,0 -0.700255,-0.2630066 Q 74.410393,9.1752308 74.410393,8.567028 V 7.1599424 H 73.88438 V 7.1007659 L 74.995583,5.996138 h 0.01315 z"
         id="path3594" />
      <path
         d="m 77.346204,6.6207788 h 0.956687 V 7.1599424 H 77.346204 V 8.567028 q 0,0.2761569 0.08219,0.4372485 0.08548,0.157804 0.341908,0.157804 0.351772,0 0.687105,-0.2169805 v 0.5588892 q -0.154516,0.09534 -0.374784,0.1479412 -0.216981,0.052601 -0.401085,0.052601 -0.463549,0 -0.700255,-0.2630066 Q 76.747864,9.1752308 76.747864,8.567028 V 7.1599424 H 76.221851 V 7.1007659 L 77.333054,5.996138 h 0.01315 z"
         id="path3596" />
      <path
         d="M 81.54116,7.7549949 V 9.6453552 H 80.94282 V 7.7681453 q 0,-0.7068304 -0.58519,-0.7068304 -0.216981,0 -0.387935,0.09534 -0.170954,0.092052 -0.374784,0.3221831 V 9.6453552 H 78.99657 V 5.0526016 h 0.598341 v 1.9659747 q 0.184104,-0.2202681 0.424098,-0.3386211 0.243281,-0.1183529 0.506288,-0.1183529 0.499712,0 0.756144,0.3188955 0.259719,0.315608 0.259719,0.8744971 z"
         id="path3598" />
      <path
         d="m 84.920796,8.1232042 v 0.062464 H 82.79373 q 0.03288,0.4306734 0.292595,0.6903925 0.259719,0.2564315 0.683817,0.2564315 0.289307,0 0.572039,-0.092052 0.282732,-0.09534 0.526014,-0.276157 v 0.5851898 q -0.289308,0.1939674 -0.568752,0.276157 -0.279445,0.078902 -0.611491,0.078902 -0.40766,0 -0.752856,-0.1939674 -0.341909,-0.1939674 -0.545739,-0.5523139 -0.200543,-0.3616342 -0.200543,-0.8481965 0,-0.4372485 0.174242,-0.7890199 0.174242,-0.355059 0.493138,-0.5556016 0.322183,-0.2038301 0.746281,-0.2038301 0.374785,0 0.673955,0.1873922 0.302457,0.1841046 0.473412,0.5391636 0.170954,0.3517714 0.170954,0.8350461 z M 83.5959,7.0810404 q -0.315608,0 -0.539164,0.2169805 -0.223555,0.2136929 -0.249856,0.5293009 h 1.522151 Q 84.309306,7.4788379 84.118626,7.281583 83.931233,7.0810404 83.5959,7.0810404 Z"
         id="path3600" />
      <path
         d="m 87.777707,6.9035109 -0.318895,0.5260133 q -0.134791,-0.1282157 -0.295883,-0.2104053 -0.161091,-0.085477 -0.282732,-0.085477 -0.154516,0 -0.322183,0.1117778 -0.167667,0.1117779 -0.279445,0.3188956 -0.111778,0.2038302 -0.111778,0.473412 v 1.6076281 h -0.59834 V 6.6207788 h 0.59834 v 0.69368 q 0.249857,-0.4109479 0.46355,-0.5819022 0.21698,-0.1709543 0.440536,-0.1709543 0.180817,0 0.364922,0.09534 0.184104,0.092052 0.341908,0.2465687 z"
         id="path3602" />
      <path
         d="m 90.134905,7.5380144 v 1.522151 q 0,0.1413661 0.115066,0.1413661 0.09863,0 0.315608,-0.1610916 v 0.4306734 q -0.351772,0.2334184 -0.627929,0.2334184 -0.335333,0 -0.40766,-0.3090328 -0.391223,0.3090328 -0.815321,0.3090328 -0.318895,0 -0.532588,-0.2169805 -0.210406,-0.220268 -0.210406,-0.5227257 0,-0.2958825 0.187393,-0.496425 0.19068,-0.2038302 0.460261,-0.3221832 0.269582,-0.118353 0.706831,-0.259719 l 0.210405,-0.065752 V 7.6530799 q 0,-0.276157 -0.134791,-0.4010852 -0.134791,-0.1249281 -0.410948,-0.1249281 -0.256431,0 -0.503,0.1249281 -0.246569,0.1249282 -0.453686,0.3747845 V 6.9725501 q 0.348483,-0.4109478 1.002712,-0.4109478 0.512863,0 0.805458,0.2662942 0.292595,0.2662942 0.292595,0.7101179 z m -1.124353,1.7424191 q 0.263006,0 0.526013,-0.2465687 V 8.1495049 q -0.519438,0.1709543 -0.739706,0.3320459 -0.216981,0.1610916 -0.216981,0.3747845 0,0.1841046 0.118353,0.3057452 0.121641,0.118353 0.312321,0.118353 z"
         id="path3604" />
      <path
         d="m 92.242246,9.7045317 q -0.180817,0 -0.302457,-0.023013 -0.121641,-0.023013 -0.351772,-0.1117778 v 1.6240662 h -0.59834 V 6.6207788 h 1.124354 q 0.756144,0 1.193392,0.3945099 0.437249,0.39451 0.437249,1.1210659 0,0.4372485 -0.193967,0.7988827 -0.19068,0.3616341 -0.532589,0.5654643 -0.338621,0.2038301 -0.77587,0.2038301 z M 92.18307,9.181806 q 0.417523,0 0.68053,-0.2893073 0.266294,-0.2893073 0.266294,-0.7561441 0,-0.4766996 -0.263007,-0.7331311 Q 92.607168,7.1467921 92.08773,7.1467921 h -0.499713 v 1.8936478 q 0.108491,0.059176 0.266295,0.1019151 0.157804,0.039451 0.328758,0.039451 z"
         id="path3606" />
      <path
         d="m 95.076142,5.7002555 q 0,0.1413661 -0.105203,0.2498563 -0.105202,0.1052027 -0.253144,0.1052027 -0.147941,0 -0.249856,-0.1084903 -0.09863,-0.1117778 -0.09863,-0.2465687 0,-0.1347909 0.09863,-0.2432812 0.101915,-0.1084902 0.249856,-0.1084902 0.147942,0 0.253144,0.1052026 0.105203,0.1052027 0.105203,0.2465688 z M 94.421913,9.6453552 V 6.6207788 h 0.59834 v 3.0245764 z"
         id="path3608" />
      <path
         d="m 98.436051,8.1232042 v 0.062464 h -2.127066 q 0.03287,0.4306734 0.292595,0.6903925 0.259719,0.2564315 0.683817,0.2564315 0.289307,0 0.572039,-0.092052 0.282732,-0.09534 0.526014,-0.276157 v 0.5851898 q -0.289308,0.1939674 -0.568752,0.276157 -0.279445,0.078902 -0.611491,0.078902 -0.40766,0 -0.752856,-0.1939674 -0.341909,-0.1939674 -0.545739,-0.5523139 -0.200543,-0.3616342 -0.200543,-0.8481965 0,-0.4372485 0.174242,-0.7890199 0.174242,-0.355059 0.493138,-0.5556016 0.322183,-0.2038301 0.746281,-0.2038301 0.374785,0 0.673955,0.1873922 0.302457,0.1841046 0.473412,0.5391636 0.170954,0.3517714 0.170954,0.8350461 z M 97.111155,7.0810404 q -0.315608,0 -0.539164,0.2169805 -0.223555,0.2136929 -0.249856,0.5293009 h 1.522151 Q 97.82456,7.4788379 97.633881,7.281583 97.446488,7.0810404 97.111155,7.0810404 Z"
         id="path3610" />
      <path
         d="m 103.95591,6.3544845 q 0,0.6575166 -0.41753,0.9796998 -0.41752,0.3188956 -1.18353,0.3188956 h -0.6345 v 1.9922753 h -0.65752 V 5.0526016 h 1.40051 q 0.70026,0 1.09477,0.3484838 0.3978,0.3451962 0.3978,0.9533991 z m -0.68053,-0.016438 q 0,-0.3419086 -0.2137,-0.5227257 -0.2104,-0.1841047 -0.73313,-0.1841047 h -0.6082 v 1.443249 h 0.6082 q 0.53588,0 0.73971,-0.1841046 0.20712,-0.1873923 0.20712,-0.552314 z"
         id="path3612" />
      <path
         d="m 106.4972,5.6312162 v 4.014139 h -0.6608 v -4.014139 h -1.57476 V 5.0526016 h 3.83661 v 0.5786146 z"
         id="path3614" />
      <path
         d="m 112.38855,5.0526016 h 0.61149 v 4.5927536 h -0.6608 V 6.0717524 l -1.41366,1.7752949 h -0.12164 l -1.42681,-1.7752949 v 3.5736028 h -0.65752 V 5.0526016 h 0.61806 l 1.52873,1.8870727 z"
         id="path3616" />
    </g>
    <g
       aria-label="farbenweg.ch"
       id="text11946-3-6"
       style="font-weight:500;font-size:15.2765px;line-height:1;font-family:'Gill Sans Nova';-inkscape-font-specification:'Gill Sans Nova Medium';text-align:end;letter-spacing:0px;word-spacing:0px;text-anchor:end;fill:#00503c;stroke-width:0.999997">
      <path
         d="m 37.386034,12.695153 v 1.268069 q -0.305829,-0.119348 -0.790679,-0.119348 -0.641493,0 -0.947322,0.432635 -0.305828,0.425177 -0.305828,1.432172 v 0.529606 h 1.223314 V 17.4616 h -1.223314 v 5.639177 H 33.962248 V 17.4616 h -0.962241 v -1.223313 h 0.962241 v -0.544524 q 0,-1.484387 0.656412,-2.304902 0.663871,-0.827974 1.760378,-0.827974 0.522146,0 1.006996,0.134266 z"
         id="path3619" />
      <path
         d="m 42.197236,18.319411 v 3.453623 q 0,0.320747 0.261073,0.320747 0.223777,0 0.716086,-0.365502 v 0.977159 q -0.798138,0.529605 -1.424713,0.529605 -0.760841,0 -0.924944,-0.701168 -0.887648,0.701168 -1.849889,0.701168 -0.723545,0 -1.208395,-0.492309 -0.47739,-0.499769 -0.47739,-1.186018 0,-0.67133 0.425176,-1.126343 0.432635,-0.462472 1.044292,-0.731004 0.611656,-0.268533 1.603734,-0.58928 l 0.47739,-0.149184 v -0.380421 q 0,-0.626575 -0.305828,-0.910026 -0.305828,-0.28345 -0.932404,-0.28345 -0.581819,0 -1.141262,0.28345 -0.559442,0.283451 -1.029373,0.850352 v -1.484386 q 0.790678,-0.932404 2.275065,-0.932404 1.163639,0 1.827511,0.604198 0.663871,0.604197 0.663871,1.611193 z m -2.551056,3.953391 q 0.596738,0 1.193476,-0.559442 v -2.006532 q -1.178558,0.38788 -1.678326,0.753382 -0.492309,0.365502 -0.492309,0.850352 0,0.417717 0.268532,0.693708 0.275992,0.268532 0.708627,0.268532 z"
         id="path3621" />
      <path
         d="m 49.208911,16.87978 -0.723545,1.193477 q -0.305829,-0.29091 -0.671331,-0.477391 -0.365502,-0.19394 -0.641494,-0.19394 -0.350583,0 -0.731004,0.253614 -0.380421,0.253614 -0.634034,0.723545 -0.253614,0.462472 -0.253614,1.074129 v 3.647563 h -1.35758 v -6.86249 h 1.35758 v 1.573897 Q 46.12079,16.87978 46.60564,16.4919 q 0.492309,-0.38788 0.999537,-0.38788 0.410257,0 0.827974,0.216318 0.417717,0.208858 0.77576,0.559442 z"
         id="path3623" />
      <path
         d="m 52.841555,23.249961 q -1.402335,0 -2.655485,-0.529605 V 12.680235 h 1.357579 v 4.050361 q 0.842893,-0.626576 1.894644,-0.626576 0.857811,0 1.529142,0.455013 0.67133,0.447554 1.044292,1.245692 0.380421,0.790678 0.380421,1.797674 0,1.148721 -0.462473,1.976695 -0.455013,0.820515 -1.268068,1.245691 -0.805597,0.425176 -1.820052,0.425176 z m 0.05221,-1.186017 q 0.932404,0 1.521683,-0.641494 0.596738,-0.641493 0.596738,-1.775296 0,-1.081588 -0.537064,-1.715623 -0.529605,-0.634034 -1.402335,-0.634034 -0.805597,0 -1.529142,0.671331 v 3.878798 q 0.372962,0.104429 0.663871,0.164103 0.29837,0.05222 0.686249,0.05222 z"
         id="path3625" />
      <path
         d="m 63.687273,19.647154 v 0.141725 h -4.82612 q 0.07459,0.977159 0.663871,1.566438 0.589279,0.58182 1.55152,0.58182 0.656412,0 1.297905,-0.208858 0.641494,-0.216318 1.193477,-0.626576 v 1.327743 q -0.656412,0.440095 -1.290447,0.626575 -0.634034,0.179022 -1.387416,0.179022 -0.924945,0 -1.708164,-0.440095 -0.775759,-0.440094 -1.238231,-1.25315 -0.455013,-0.820515 -0.455013,-1.924481 0,-0.992077 0.395339,-1.790215 0.395339,-0.805596 1.118884,-1.260609 0.731004,-0.462473 1.693245,-0.462473 0.850352,0 1.529142,0.425176 0.686249,0.417717 1.074129,1.223314 0.387879,0.798137 0.387879,1.894644 z m -3.006069,-2.364575 q -0.716086,0 -1.223313,0.492309 -0.507228,0.484849 -0.566901,1.200935 h 3.453622 q -0.04475,-0.790678 -0.47739,-1.238232 -0.425176,-0.455012 -1.186018,-0.455012 z"
         id="path3627" />
      <path
         d="m 71.019695,18.960905 v 4.139872 h -1.35758 v -4.110035 q 0,-1.752919 -1.402335,-1.752919 -0.47739,0 -0.917485,0.261073 -0.432635,0.253614 -0.738463,0.701168 v 4.900713 h -1.35758 v -6.86249 h 1.35758 v 0.872729 q 0.432635,-0.48485 0.999536,-0.745923 0.574361,-0.261073 1.096507,-0.261073 1.096506,0 1.708163,0.753383 0.611657,0.745922 0.611657,2.103502 z"
         id="path3629" />
      <path
         d="m 76.703623,16.238287 h 1.006996 l 1.738,4.162249 1.790215,-4.162249 h 1.454549 l -3.028447,6.996756 H 79.23976 l -2.036369,-4.796284 -1.999073,4.796284 H 74.764223 L 71.70594,16.238287 h 1.454549 l 1.797674,4.162249 z"
         id="path3631" />
      <path
         d="m 89.138159,19.647154 v 0.141725 h -4.826121 q 0.07459,0.977159 0.663872,1.566438 0.589279,0.58182 1.551519,0.58182 0.656412,0 1.297906,-0.208858 0.641494,-0.216318 1.193477,-0.626576 v 1.327743 q -0.656413,0.440095 -1.290447,0.626575 -0.634034,0.179022 -1.387416,0.179022 -0.924945,0 -1.708164,-0.440095 -0.775759,-0.440094 -1.238232,-1.25315 -0.455013,-0.820515 -0.455013,-1.924481 0,-0.992077 0.39534,-1.790215 0.395339,-0.805596 1.118884,-1.260609 0.731004,-0.462473 1.693245,-0.462473 0.850352,0 1.529141,0.425176 0.686249,0.417717 1.074129,1.223314 0.38788,0.798137 0.38788,1.894644 z M 86.13209,17.282579 q -0.716086,0 -1.223313,0.492309 -0.507228,0.484849 -0.566902,1.200935 h 3.453623 q -0.04475,-0.790678 -0.477391,-1.238232 -0.425176,-0.455012 -1.186017,-0.455012 z"
         id="path3633" />
      <path
         d="m 95.448668,18.789343 q 0,0.932403 -0.559442,1.484386 -0.551983,0.551983 -1.499305,0.731004 -0.141725,0.0373 -0.537064,0.10443 -0.395339,0.06713 -0.611657,0.201399 -0.216318,0.126807 -0.216318,0.335665 0,0.261073 0.469932,0.48485 0.47739,0.223777 1.305365,0.343124 2.304901,0.380421 2.304901,1.999074 0,1.006996 -0.887648,1.581356 -0.880189,0.574361 -2.349657,0.574361 -1.558978,0 -2.364575,-0.58182 -0.798138,-0.58182 -0.798138,-1.491846 0,-0.708626 0.380421,-1.193476 0.380421,-0.477391 1.342661,-0.701168 -0.686249,-0.417717 -0.686249,-0.87273 0,-0.701167 1.089047,-1.021914 -1.514223,-0.626575 -1.514223,-2.140798 0,-1.081588 0.805597,-1.730541 0.813056,-0.656412 2.297442,-0.656412 h 2.715159 v 1.05921 h -1.402335 q 0.716086,0.544524 0.716086,1.491846 z m -2.565974,1.133802 q 0.596738,0 0.969699,-0.335665 0.372962,-0.335665 0.372962,-0.96224 0,-0.507228 -0.380421,-0.857812 -0.38042,-0.350583 -0.96224,-0.350583 -0.58182,0 -0.962241,0.358043 -0.38042,0.358043 -0.38042,0.895107 0,0.58182 0.402798,0.917485 0.402798,0.335665 0.939863,0.335665 z m 0,5.624259 q 0.917485,0 1.409794,-0.261073 0.499768,-0.261073 0.499768,-0.745923 0,-0.522146 -0.619116,-0.805597 -0.619116,-0.283451 -1.626112,-0.283451 -0.656412,0 -1.111425,0.283451 -0.447553,0.283451 -0.447553,0.768301 0,0.507227 0.48485,0.775759 0.492309,0.268533 1.409794,0.268533 z"
         id="path3635" />
      <path
         d="m 98.820237,22.369772 q 0,0.380421 -0.275991,0.656412 -0.275992,0.275992 -0.656412,0.275992 -0.365502,0 -0.641494,-0.268532 -0.275991,-0.268533 -0.275991,-0.648953 0,-0.417717 0.275991,-0.671331 0.275992,-0.261073 0.641494,-0.261073 0.365502,0 0.648953,0.268532 0.28345,0.261073 0.28345,0.648953 z"
         id="path3637" />
      <path
         d="m 105.50371,16.581411 v 1.44709 q -0.52215,-0.335665 -0.9697,-0.484849 -0.4401,-0.156644 -0.93987,-0.156644 -0.65641,0 -1.12634,0.320747 -0.46247,0.320746 -0.70863,0.842892 -0.24615,0.514687 -0.24615,1.111425 0,0.902567 0.55198,1.596275 0.55198,0.693708 1.78276,0.693708 0.49231,0 0.90256,-0.119347 0.41772,-0.119348 0.90257,-0.335665 v 1.342661 q -1.007,0.395339 -1.99907,0.395339 -1.23823,0 -2.03637,-0.522146 -0.79068,-0.529605 -1.14126,-1.320284 -0.35059,-0.798137 -0.35059,-1.618652 0,-1.118884 0.43264,-1.946859 0.43263,-0.835433 1.19347,-1.275528 0.7683,-0.447554 1.74546,-0.447554 0.50723,0 0.96224,0.111889 0.46248,0.104429 1.0443,0.365502 z"
         id="path3639" />
      <path
         d="m 113.00023,18.81172 v 4.289057 h -1.35758 v -4.25922 q 0,-1.603734 -1.32774,-1.603734 -0.49231,0 -0.88019,0.216318 -0.38788,0.208858 -0.85035,0.731004 v 4.915632 h -1.35758 V 12.680235 h 1.35758 v 4.460618 q 0.41772,-0.499768 0.96224,-0.7683 0.55198,-0.268533 1.14872,-0.268533 1.13381,0 1.71563,0.723546 0.58927,0.716086 0.58927,1.984154 z"
         id="path3641" />
    </g>
  </g>
</svg>
