<svg width="54" height="54" viewBox="0 0 14.287 14.287" xml:space="preserve" xmlns:xlink="http://www.w3.org/1999/xlink" xmlns="http://www.w3.org/2000/svg"><defs><radialGradient xlink:href="#d" id="i" gradientUnits="userSpaceOnUse" gradientTransform="matrix(.8761 0 0 .8761 77.249 -41.059)" cx="-9.808" cy="87.923" fx="-9.808" fy="87.923" r="7.925"/><radialGradient xlink:href="#c" id="j" gradientUnits="userSpaceOnUse" gradientTransform="matrix(3.28529 0 0 3.28529 110.876 -209.971)" cx="-9.808" cy="87.923" fx="-9.808" fy="87.923" r="7.925"/><radialGradient xlink:href="#c" id="l" gradientUnits="userSpaceOnUse" gradientTransform="matrix(3.28529 0 0 3.28529 58.255 -209.971)" cx="-9.808" cy="87.923" fx="-9.808" fy="87.923" r="7.925"/><radialGradient xlink:href="#b" id="e" cx="-9.808" cy="87.923" fx="-9.808" fy="87.923" r="7.925" gradientUnits="userSpaceOnUse" gradientTransform="matrix(3.4071 0 0 3.4071 85.76 -247.091)"/><radialGradient xlink:href="#c" id="f" gradientUnits="userSpaceOnUse" cx="-9.808" cy="87.923" fx="-9.808" fy="87.923" r="7.925" gradientTransform="matrix(3.28529 0 0 3.28529 58.255 -262.819)"/><radialGradient xlink:href="#d" id="g" gradientUnits="userSpaceOnUse" cx="-9.808" cy="87.923" fx="-9.808" fy="87.923" r="7.925" gradientTransform="matrix(.8761 0 0 .8761 44.447 -41.059)"/><radialGradient xlink:href="#d" id="m" gradientUnits="userSpaceOnUse" gradientTransform="matrix(.8761 0 0 .8761 45.13 -8.484)" cx="-9.808" cy="87.923" fx="-9.808" fy="87.923" r="7.925"/><radialGradient xlink:href="#c" id="h" gradientUnits="userSpaceOnUse" gradientTransform="matrix(3.28529 0 0 3.28529 110.876 -262.819)" cx="-9.808" cy="87.923" fx="-9.808" fy="87.923" r="7.925"/><radialGradient xlink:href="#d" id="k" gradientUnits="userSpaceOnUse" gradientTransform="matrix(.8761 0 0 .8761 77.249 -8.484)" cx="-9.808" cy="87.923" fx="-9.808" fy="87.923" r="7.925"/><linearGradient id="c"><stop style="stop-color:#e58d94;stop-opacity:1" offset="0"/><stop style="stop-color:#e58d94;stop-opacity:1" offset=".204"/><stop style="stop-color:#a56e92;stop-opacity:1" offset=".306"/><stop style="stop-color:#715692;stop-opacity:1" offset=".468"/><stop style="stop-color:#162b91;stop-opacity:1" offset=".653"/><stop style="stop-color:#162b91;stop-opacity:0" offset="1"/></linearGradient><linearGradient id="b"><stop style="stop-color:#e58d94;stop-opacity:1" offset="0"/><stop style="stop-color:#e58d94;stop-opacity:1" offset=".253"/><stop style="stop-color:#a56e92;stop-opacity:1" offset=".391"/><stop style="stop-color:#715692;stop-opacity:1" offset=".452"/><stop style="stop-color:#162b91;stop-opacity:1" offset=".54"/><stop style="stop-color:#162b91;stop-opacity:.97872335" offset="1"/></linearGradient><linearGradient id="d"><stop style="stop-color:#00dcc8;stop-opacity:1" offset="0"/><stop style="stop-color:#00dcc8;stop-opacity:1" offset=".261"/><stop style="stop-color:#162b91;stop-opacity:0" offset="1"/></linearGradient><pattern xlink:href="#a" id="n" patternTransform="translate(-25.364 -25.492)"/><pattern patternUnits="userSpaceOnUse" width="104.69" height="104.917" patternTransform="translate(-25.344 -25.472)" id="a"><path style="fill:url(#e);stroke-width:1;paint-order:markers stroke fill" d="M25.344 25.472h54v54h-54z"/><path style="fill:url(#f);stroke-width:.999999;paint-order:markers stroke fill" d="M0 0h52.07v52.07H0z"/><path style="fill:url(#g);stroke-width:.999999;paint-order:markers stroke fill" d="M28.911 29.029h13.886v13.885H28.91z"/><path style="fill:url(#h);stroke-width:.999999;paint-order:markers stroke fill" d="M52.62 0h52.07v52.07H52.62z"/><path style="fill:url(#i);stroke-width:.999999;paint-order:markers stroke fill" d="M61.713 29.029H75.6v13.885H61.713z"/><path style="fill:url(#j);stroke-width:.999999;paint-order:markers stroke fill" d="M52.62 52.848h52.07v52.07H52.62z"/><path style="fill:url(#k);stroke-width:.999999;paint-order:markers stroke fill" d="M61.713 61.603H75.6V75.49H61.713z"/><path style="fill:url(#l);stroke-width:.999999;paint-order:markers stroke fill" d="M0 52.848h52.07v52.07H0z"/><path style="fill:url(#m);stroke-width:.999999;paint-order:markers stroke fill" d="M29.595 61.603H43.48V75.49H29.595z"/></pattern><pattern patternUnits="userSpaceOnUse" width="53.961" height="53.961" patternTransform="translate(.02 .02)" id="o"><path style="fill:url(#n)" d="M3.117 0c-.226 0-.506.237-1.693 1.424C.237 2.61 0 2.89 0 3.117v.272l.223-.278c.324-.404.373-.246.13.43-.195.546-.21.727-.193 2.355.021 2.11.152 3.946.344 4.833.077.356.208 1.045.293 1.53.187 1.07.75 2.93 1.256 4.157.205.498.493 1.218.638 1.602.146.383.35.882.452 1.109l.185.41-.355.404c-1.078 1.225-1.86 3.32-1.86 4.983 0 .51.055.703.367 1.326l.366.729-.366.732c-.312.624-.367.819-.367 1.328 0 1.662.782 3.757 1.86 4.98l.355.405-.185.41a25.07 25.07 0 0 0-.452 1.11 76.398 76.398 0 0 1-.638 1.6c-.507 1.228-1.07 3.087-1.256 4.157a48.377 48.377 0 0 1-.293 1.531c-.192.887-.322 2.722-.344 4.832-.016 1.629-.002 1.81.194 2.356.242.676.193.834-.131.43L0 50.572v.272c0 .226.237.506 1.424 1.693 1.187 1.187 1.467 1.424 1.693 1.424h.272l-.28-.223c-.404-.324-.244-.373.432-.13.546.195.727.21 2.355.193 2.11-.022 3.946-.152 4.833-.344a48.482 48.482 0 0 1 1.53-.293c1.07-.187 2.93-.75 4.157-1.256a76.13 76.13 0 0 1 1.602-.638c.383-.146.882-.35 1.109-.452l.41-.185.404.355c1.225 1.078 3.32 1.86 4.983 1.86.51 0 .703-.055 1.326-.368l.729-.365.732.365c.624.313.819.368 1.328.368 1.662 0 3.757-.782 4.98-1.86l.405-.355.41.185c.227.103.726.306 1.11.452.382.145 1.103.433 1.6.638 1.228.507 3.087 1.07 4.157 1.256.485.085 1.175.216 1.531.293.887.192 2.722.322 4.832.344 1.629.016 1.81.002 2.356-.194.676-.242.834-.193.43.131l-.278.223h.272c.226 0 .506-.237 1.693-1.424 1.187-1.187 1.424-1.467 1.424-1.693v-.272l-.223.278c-.324.404-.373.246-.13-.43.195-.546.21-.727.193-2.356-.022-2.11-.152-3.945-.344-4.832a48.591 48.591 0 0 1-.293-1.53c-.187-1.07-.75-2.93-1.256-4.157a76.169 76.169 0 0 1-.638-1.602 25.149 25.149 0 0 0-.452-1.109l-.185-.41.355-.404c1.071-1.217 1.86-3.33 1.86-4.983 0-.51-.055-.703-.368-1.326l-.365-.729.365-.732c.313-.624.368-.819.368-1.328 0-1.652-.79-3.764-1.86-4.98l-.355-.405.185-.41c.103-.227.306-.726.452-1.11a76.39 76.39 0 0 1 .638-1.601c.507-1.227 1.07-3.086 1.256-4.156a48.28 48.28 0 0 1 .293-1.531c.192-.887.322-2.722.344-4.833.016-1.628.002-1.81-.194-2.355-.242-.676-.193-.834.131-.43l.223.278v-.272c0-.226-.237-.506-1.424-1.693C51.35.237 51.07 0 50.844 0h-.272l.278.223c.404.324.246.373-.43.13-.546-.195-.727-.21-2.356-.193-2.11.021-3.945.152-4.832.344a48.38 48.38 0 0 1-1.53.293c-1.07.187-2.93.75-4.157 1.256a76.13 76.13 0 0 1-1.602.638 25.14 25.14 0 0 0-1.109.452l-.41.185-.404-.355c-1.224-1.078-3.319-1.86-4.98-1.86-.51 0-.705.055-1.33.367l-.731.366-.729-.366c-.623-.312-.815-.367-1.326-.367-1.663 0-3.758.782-4.983 1.86l-.404.355-.41-.185a25.121 25.121 0 0 0-1.11-.452 76.401 76.401 0 0 1-1.601-.638C15.189 1.546 13.33.983 12.26.797a48.377 48.377 0 0 1-1.531-.293C9.842.312 8.007.182 5.896.16 4.268.144 4.086.158 3.541.354c-.676.242-.834.193-.43-.131L3.39 0zm1.574 1.725c.776-.01 3.46.128 4.178.226a24.75 24.75 0 0 1 1.533.272c.435.093 1.18.24 1.659.326 1.392.247 2.235.56 4.267 1.592 1.05.532 1.92.981 1.936.996.014.014-.073.276-.196.58-.258.641-.547.866-1.693 1.318-.643.254-2.673.72-4.795 1.102-.399.072-.93.234-1.182.361-.25.127-.467.232-.482.232-.015 0-.189-.262-.387-.582-1.071-1.727-3.14-4.356-4.486-5.703-.368-.368-.617-.684-.557-.707.022-.008.095-.012.205-.013zm44.579 0c.11.001.183.005.205.013.06.022-.189.339-.557.707-1.347 1.347-3.415 3.976-4.486 5.703-.198.32-.383.579-.409.577a4.684 4.684 0 0 1-.48-.23c-.24-.125-.763-.286-1.162-.358-2.123-.383-4.152-.848-4.795-1.102-1.146-.452-1.435-.677-1.693-1.318-.123-.304-.21-.566-.196-.58.015-.015.886-.464 1.936-.996 2.032-1.032 2.875-1.345 4.267-1.592a56.443 56.443 0 0 0 1.659-.326 24.753 24.753 0 0 1 1.533-.272c.719-.098 3.402-.236 4.178-.226zm-45.88.109.651.686c.357.377 1.006 1.167 1.443 1.753.754 1.01 2.596 3.684 2.596 3.768 0 .098-.226-.04-1.459-.885-1.948-1.335-3.33-2.384-4.101-3.115l-.686-.65.049-.592c.028-.345.104-.65.185-.73.082-.082.386-.158.73-.186zm47.18 0 .592.049c.345.028.65.104.73.185.082.082.158.386.186.73l.049.593-.686.65c-.797.755-2.27 1.867-4.15 3.139-1.288.87-1.41.945-1.41.861 0-.084 1.842-2.757 2.596-3.768.437-.586 1.086-1.376 1.443-1.753zm-20.818.986c.625.011 1.323.174 2.012.483.76.34.82.433.523.785-.695.826-1.921 3.177-2.615 5.014-.145.383-.293.73-.328.771-.07.083-.527-1.512-.828-2.885-.234-1.064-.467-2.699-.467-3.273 0-.42.012-.438.418-.64.356-.179.799-.263 1.285-.255zm-5.535.004c.49-.007.935.08 1.297.26.384.192.398.215.398.63 0 .665-.254 2.332-.56 3.669-.4 1.745-.694 2.649-.788 2.414l-.421-1.067c-.703-1.78-1.806-3.853-2.473-4.646-.293-.348-.23-.441.527-.781.689-.31 1.39-.47 2.02-.479zM1.76 4.48c.08.012.364.241.687.564 1.324 1.32 3.318 2.913 5.168 4.129.588.386 1.082.712 1.098.724.016.013-.079.233-.21.49-.13.258-.294.795-.366 1.194-.413 2.29-.846 4.147-1.131 4.852-.466 1.151-.669 1.413-1.26 1.63-.275.102-.524.196-.555.211-.03.016-.52-.902-1.09-2.04-1.052-2.104-1.369-2.97-1.591-4.346-.062-.383-.191-1.05-.285-1.485a24.12 24.12 0 0 1-.272-1.533c-.112-.821-.278-4.209-.215-4.383.003-.007.01-.01.022-.007zm50.441 0c.012-.002.019 0 .022.007.063.174-.101 3.562-.213 4.383-.056.409-.18 1.1-.274 1.533a34.276 34.276 0 0 0-.285 1.485c-.222 1.376-.539 2.243-1.59 4.343-.568 1.137-1.058 2.06-1.09 2.055a8.45 8.45 0 0 1-.568-.223c-.595-.248-.836-.567-1.277-1.687-.254-.643-.72-2.673-1.102-4.795-.072-.399-.237-.936-.367-1.193-.13-.258-.225-.478-.209-.49.016-.013.51-.339 1.098-.725 1.85-1.216 3.844-2.809 5.168-4.129.323-.323.606-.552.687-.564zm-31.394.726c.026-.003.182.236.347.53.166.293.529.925.807 1.404.888 1.53 2.282 5.073 2.07 5.261-.064.057-.45.38-.86.715-.408.336-1.034.955-1.392 1.38-.357.423-.939 1.107-1.29 1.519-.353.412-.7.844-.776.959-.075.115-.168.209-.205.209-.088 0-.688-1.309-.873-1.905-.461-1.483-.625-3.744-.387-5.386.192-1.328.566-2.867.707-2.914.307-.103 1.284-.956 1.524-1.33.153-.24.301-.44.328-.442zm12.347 0c.027.003.175.202.328.441.24.375 1.217 1.228 1.524 1.33.141.048.515 1.587.707 2.915.183 1.261.149 2.683-.096 4.086-.181 1.04-.344 1.567-.765 2.484-.182.396-.362.72-.399.72-.037 0-.13-.093-.205-.208a16.897 16.897 0 0 0-.775-.96c-.352-.411-.934-1.095-1.291-1.519a12.968 12.968 0 0 0-1.393-1.379 59.842 59.842 0 0 1-.86-.715c-.213-.19 1.171-3.713 2.067-5.255.28-.482.645-1.117.81-1.41.166-.294.322-.533.348-.53zm-6.172 1.78c.045-.011.092.157.366 1.187.129.485.336 1.221.46 1.637.125.415.256.907.292 1.093.061.328.055.336-.16.254-.151-.057-.343-.043-.592.043-.203.07-.389.125-.414.12a7.234 7.234 0 0 1-.371-.128c-.214-.077-.401-.088-.545-.033-.212.08-.218.071-.157-.256.035-.186.171-.698.303-1.138.132-.44.355-1.233.496-1.76.14-.527.277-.98.303-1.006a.047.047 0 0 1 .02-.014zm-9.73 1.095c.045 0 .009.449-.082.998-.183 1.11-.228 3.481-.084 4.479.048.33.078.607.066.619-.01.011-.652-.635-1.423-1.436-1.14-1.182-1.565-1.555-2.258-1.984l-.854-.527.71-.329c.39-.18 1.143-.501 1.675-.712.532-.212 1.238-.547 1.568-.747.33-.199.637-.36.682-.36zm19.455 0c.045 0 .353.162.684.361.33.2 1.036.535 1.568.747.532.21 1.286.532 1.676.712l.709.329-.854.527c-.69.427-1.13.812-2.295 2.014-.923.952-1.416 1.402-1.373 1.253.037-.127.085-1.046.11-2.043.036-1.49.013-1.995-.131-2.855-.096-.575-.139-1.045-.094-1.045zm-25.475 3.152.582.293c.842.425 1.606.963 2.354 1.659.845.786 2.487 2.216 3.096 2.697.261.207.474.428.474.492s.251.612.557 1.217c.306.605.534 1.136.506 1.181-.077.125-.13.108-.828-.285-.357-.2-.895-.462-1.198-.58-.42-.164-.634-.32-.91-.666-.478-.6-1.922-2.255-2.681-3.072a10.076 10.076 0 0 1-1.659-2.354zm31.497 0-.293.582a10.076 10.076 0 0 1-1.659 2.354c-.786.845-2.216 2.487-2.697 3.096-.207.261-.428.474-.492.474s-.612.252-1.219.559c-.606.306-1.116.557-1.13.557-.157 0-.043-.334.427-1.264.306-.605.557-1.153.557-1.217 0-.064.212-.285.474-.492.609-.481 2.25-1.911 3.096-2.697a10.076 10.076 0 0 1 2.353-1.659zm-32.5 1.385.527.854c.427.69.812 1.13 2.014 2.295.952.923 1.402 1.418 1.253 1.375-.127-.037-1.046-.088-2.043-.112-1.49-.036-1.995-.013-2.855.131-.575.096-1.045.139-1.045.094 0-.045.162-.353.361-.684.2-.33.535-1.036.747-1.568.21-.532.532-1.286.712-1.676zm33.503 0 .329.71c.18.39.501 1.143.712 1.675.212.532.55 1.242.752 1.578.203.336.356.643.34.68-.016.037-.49-.01-1.052-.104-.831-.138-1.36-.162-2.833-.127-.996.024-1.915.075-2.042.112-.15.043.3-.452 1.253-1.375 1.202-1.165 1.587-1.605 2.014-2.295zm-16.74.475c.702-.012 1.254.096 1.2.271-.142.457-.628 2.642-.829 3.725-.128.69-.268 1.485-.312 1.766l-.08.511-.069-.511c-.157-1.177-.876-4.664-1.132-5.49-.038-.121.055-.164.488-.22.25-.032.5-.048.734-.052zm-2.412.697a.04.04 0 0 1 .027.012c.092.096.573 2.18.791 3.428.081.46.188 1.776.237 2.925.049 1.15.135 2.48.191 2.957.056.477.087.883.069.9-.019.019-.56-.476-1.204-1.099a242.82 242.82 0 0 0-2.357-2.248c-.654-.613-1.353-1.334-1.557-1.603l-.37-.49.302-.485c.405-.652 1.8-2.491 2.344-3.088.535-.589 1.343-1.222 1.527-1.209zm4.8 0c.185-.013.993.62 1.528 1.209.543.597 1.939 2.436 2.344 3.088l.303.484-.371.49c-.204.27-.904.991-1.557 1.604-.653.613-1.726 1.636-2.383 2.272-.657.636-1.195 1.095-1.195 1.02 0-.076.041-.472.092-.88.05-.407.133-1.7.183-2.875.05-1.175.158-2.513.239-2.972.219-1.248.7-3.332.79-3.428a.04.04 0 0 1 .028-.012zm-18.163 4.356c1.398-.034 2.948.144 4.06.49.596.185 1.905.785 1.905.873 0 .037-.094.13-.21.205a17.04 17.04 0 0 0-.958.775l-1.559 1.328a13.702 13.702 0 0 0-1.475 1.508c-.366.453-.688.82-.716.817a34.103 34.103 0 0 1-1.12-.405c-1.78-.662-3.089-1.243-4.005-1.775-.48-.278-1.11-.641-1.405-.807-.293-.165-.532-.32-.529-.347.003-.027.202-.175.441-.328.375-.24 1.228-1.217 1.33-1.524.048-.141 1.587-.515 2.915-.707.41-.06.86-.092 1.326-.103zm30.818 0c.716-.018 1.42.014 2.035.103 1.328.192 2.867.566 2.914.707.103.307.955 1.284 1.33 1.524.24.153.44.301.442.328.003.026-.236.182-.53.347-.293.166-.925.529-1.404.807-.94.546-2.289 1.14-4.047 1.781-.61.223-1.113.406-1.119.406-.005 0-.31-.371-.676-.824a13.704 13.704 0 0 0-1.474-1.508c-.445-.377-1.146-.976-1.559-1.328-.412-.352-.844-.7-.959-.775-.115-.075-.209-.168-.209-.205 0-.088 1.309-.688 1.905-.873.927-.288 2.157-.46 3.351-.49zM18.57 20.406l.49.371c.27.204.991.904 1.604 1.557.613.653 1.636 1.726 2.272 2.383 1.29 1.333 1.288 1.26.003 1.094-.332-.044-1.563-.121-2.738-.172-1.175-.052-2.513-.16-2.972-.24-1.249-.22-3.332-.7-3.428-.792-.109-.103.569-.983 1.197-1.554.597-.543 2.436-1.939 3.088-2.344zm16.82 0 .485.303c.652.405 2.491 1.8 3.088 2.344.628.571 1.306 1.451 1.197 1.554-.096.092-2.18.572-3.428.791-.46.081-1.797.188-2.972.239-1.175.05-2.468.133-2.875.183-.408.05-.804.092-.88.092-.075 0 .384-.538 1.02-1.195a256.69 256.69 0 0 0 2.272-2.383c.613-.653 1.334-1.353 1.603-1.557zM3.776 21.51c.086-.008.18.053.313.164.826.695 3.177 1.921 5.014 2.615.383.145.73.293.771.328.161.136-3.052.92-4.734 1.156-.546.077-1.187.14-1.424.14-.416 0-.44-.015-.631-.4-.413-.826-.33-2.092.219-3.316.213-.474.33-.675.472-.687zm46.41 0c.143.012.26.213.473.687.55 1.224.632 2.49.219 3.317l-.2.398-.562-.012c-.704-.014-1.966-.195-3.119-.449-1.396-.307-2.991-.764-2.908-.834.042-.035.388-.183.771-.328 1.837-.694 4.188-1.92 5.014-2.615.132-.111.227-.172.313-.164zm-23.19.549.068.324c.113.549.833 2.601.912 2.601.04 0 .074-.095.074-.21 0-.171.162-.296.86-.665.472-.25 1.1-.6 1.394-.779.294-.179.561-.298.593-.266.033.033-.086.3-.265.594-.179.295-.53.922-.78 1.395-.368.697-.493.86-.663.86-.451 0-.164.162.927.528.626.21 1.284.422 1.463.47l.324.083-.324.068c-.549.114-2.601.834-2.601.913 0 .04.095.074.21.074.171 0 .296.162.665.86.25.472.6 1.1.779 1.394.179.294.298.561.265.593-.032.033-.299-.086-.593-.265-.295-.179-.922-.53-1.395-.78-.697-.368-.86-.493-.86-.664 0-.45-.163-.163-.528.928h-.002c-.21.626-.42 1.284-.467 1.463l-.084.324-.069-.324c-.113-.549-.833-2.601-.912-2.601-.04 0-.074.095-.074.21 0 .171-.163.296-.86.665-.472.25-1.1.6-1.394.779-.294.179-.561.298-.594.265-.032-.032.087-.299.266-.593.179-.295.53-.922.78-1.395.368-.697.493-.86.663-.86.451 0 .164-.164-.927-.53-.626-.21-1.284-.42-1.463-.467l-.324-.084.324-.069c.549-.113 2.601-.833 2.601-.912 0-.04-.095-.074-.21-.074-.171 0-.296-.162-.665-.86-.25-.472-.6-1.1-.779-1.394-.179-.294-.298-.561-.266-.594.033-.032.3.087.594.266.295.179.922.53 1.395.78.696.368.86.493.86.663 0 .451.164.164.53-.927.21-.626.42-1.284.467-1.463zm13.644 3.703c.09-.001.129.117.177.496.086.665.086.78 0 1.443-.038.294-.093.53-.125.526-.03-.005-.349-.089-.707-.186-.808-.22-4.078-.883-4.83-.978l-.558-.073.511-.08c1.571-.247 4.713-.9 5.49-1.14a.142.142 0 0 1 .042-.008zm-27.319.006a.077.077 0 0 1 .043.002c.781.242 3.95.9 5.49 1.14l.512.08-.511.069c-.856.114-2.953.521-4.18.812-.639.151-1.229.295-1.31.32-.121.038-.164-.055-.22-.488-.12-.937-.028-1.881.176-1.935zm-2.172.06c.076.006.06.058.008.194-.057.15-.043.341.041.587.106.308.106.427 0 .739-.08.239-.096.446-.045.582.119.311.141.315-2.422-.426-.383-.11-.94-.267-1.238-.348-.297-.08-.52-.167-.494-.193.026-.026.479-.162 1.006-.303a74.94 74.94 0 0 0 1.76-.496c.44-.132.952-.268 1.138-.303.123-.023.201-.036.246-.033zm31.665 0c.045-.003.123.01.246.033.186.035.698.171 1.138.303.44.132 1.233.356 1.76.496.527.14.98.277 1.006.303.054.054.003.071-1.174.385a65.76 65.76 0 0 0-1.637.46c-.415.125-.907.257-1.093.292-.328.061-.336.056-.254-.159.056-.148.043-.345-.041-.593-.106-.312-.106-.431 0-.739.084-.246.098-.437.04-.587-.05-.136-.067-.188.008-.194zm-39.098 2.22c.574 0 2.209.234 3.273.468 1.373.301 2.968.758 2.885.828-.042.035-.388.183-.771.328-1.826.69-4.187 1.92-5.002 2.605-.15.126-.299.229-.33.229-.095 0-.417-.57-.608-1.076-.43-1.14-.457-2.222-.076-2.987.189-.38.214-.394.629-.394zm20.24 0c.076 0-.383.537-1.02 1.194-.635.657-1.637 1.709-2.224 2.338-.588.63-1.297 1.326-1.578 1.547-.281.221-.536.402-.567.402-.214 0-2.966-2.035-3.689-2.728-.587-.563-1.175-1.354-1.076-1.447.096-.092 2.18-.572 3.428-.791.46-.081 1.797-.188 2.972-.239 1.175-.05 2.468-.133 2.875-.183.407-.05.804-.092.88-.092zm6.05 0c.076 0 .472.042.88.093.407.05 1.7.133 2.875.183 1.175.05 2.513.158 2.972.239 1.248.219 3.332.7 3.428.79.099.094-.489.885-1.076 1.448-.487.467-2.333 1.886-3.086 2.373-.302.195-.573.355-.603.355-.168 0-1.211-.95-2.145-1.949-.587-.629-1.589-1.68-2.225-2.338-.636-.657-1.095-1.193-1.02-1.193zm20.241 0c.416 0 .44.015.631.4.43.862.319 2.215-.281 3.406-.167.33-.344.61-.395.623-.05.012-.206-.077-.346-.2-.738-.649-3.162-1.912-4.996-2.605-.383-.145-.73-.293-.771-.328-.083-.07 1.512-.527 2.885-.828 1.064-.234 2.699-.467 3.273-.467zm-37.918 1.86c.037.001.06.008.072.022.057.064.38.45.715.86.336.408.955 1.034 1.38 1.392.423.357 1.107.939 1.519 1.29.412.353.844.7.959.776.115.075.209.168.209.205 0 .088-1.309.688-1.905.873-.255.08-.84.212-1.3.293-1.219.215-3.157.256-4.225.088-1.198-.188-2.734-.577-2.775-.701-.103-.307-.955-1.284-1.33-1.524-.24-.153-.44-.301-.442-.328-.003-.026.236-.182.53-.347.293-.166.925-.529 1.404-.807 1.434-.833 4.639-2.11 5.19-2.092zm29.305 0c.55-.018 3.755 1.26 5.19 2.092.478.278 1.11.641 1.404.807.293.165.532.32.529.347-.003.027-.202.175-.442.328-.374.24-1.227 1.217-1.33 1.524-.046.138-1.575.513-2.838.695-.945.137-2.244.175-2.955.088-.853-.105-2.103-.334-2.507-.46-.598-.188-1.905-.788-1.905-.876 0-.037.094-.13.21-.205.114-.075.546-.423.958-.775.412-.352 1.096-.934 1.52-1.291a12.968 12.968 0 0 0 1.379-1.393c.335-.409.658-.795.715-.86.011-.013.035-.02.072-.02zm-15.727.09c.004 0 .006.003.006.008 0 .075-.041.471-.092.879-.05.407-.132 1.7-.181 2.875-.092 2.18-.265 3.418-.772 5.52-.116.48-.254.888-.306.906-.14.046-1.238-.887-1.727-1.467-.644-.766-1.91-2.463-2.18-2.924l-.242-.412.367-.487c.202-.267.902-.986 1.555-1.6.653-.612 1.726-1.635 2.383-2.27.616-.597 1.128-1.037 1.19-1.028zm2.149 0c.061-.01.573.431 1.19 1.027.656.636 1.729 1.659 2.382 2.272.653.613 1.353 1.332 1.555 1.6l.367.486-.242.412c-.27.461-1.536 2.158-2.18 2.924a9.61 9.61 0 0 1-1.025 1c-.332.273-.64.496-.682.496-.102 0-.12-.062-.389-1.207-.473-2.023-.616-3.075-.709-5.248-.05-1.175-.131-2.468-.181-2.875-.05-.408-.092-.804-.092-.88 0-.004.002-.006.006-.007zm-1.065 4.598.069.511c.157 1.177.876 4.664 1.132 5.49.038.12-.05.16-.443.206-.27.03-.572.076-.674.1a.936.936 0 0 1-.418-.036 2.535 2.535 0 0 0-.588-.084c-.293-.007-.346-.037-.304-.172.245-.79.904-3.95 1.146-5.504zm-8.25.582c.02-.003.034-.002.04.004.042.042-.174.575-.481 1.183-.308.609-.56 1.159-.56 1.223 0 .064-.214.285-.475.492-.609.481-2.25 1.911-3.096 2.697-.36.335-.906.78-1.213.987-.306.207-.82.51-1.14.672l-.583.293.293-.583c.425-.84.963-1.605 1.659-2.353.786-.845 2.216-2.487 2.697-3.096.207-.262.428-.474.492-.474s.614-.253 1.223-.56c.532-.27 1.005-.468 1.144-.485zm16.48 0c.14.017.613.215 1.145.484.609.308 1.159.56 1.223.56.064 0 .285.213.492.475.481.609 1.911 2.25 2.697 3.096.695.747 1.234 1.51 1.657 2.35.16.319.28.579.267.578a16.815 16.815 0 0 1-.674-.35 9.489 9.489 0 0 1-2.234-1.594c-.85-.79-2.49-2.219-3.096-2.697-.262-.207-.474-.428-.474-.492s-.253-.614-.56-1.223c-.308-.608-.524-1.14-.481-1.183.005-.006.019-.007.039-.004zm-30.083.52c.014-.015.276.072.58.195.641.258.866.547 1.318 1.693.254.643.72 2.673 1.102 4.795.072.399.236.936.367 1.193.13.258.225.478.209.49-.016.013-.51.339-1.098.725-1.35.887-2.097 1.445-3.433 2.566a34.05 34.05 0 0 0-1.735 1.563c-.37.369-.686.617-.709.557-.063-.174.103-3.562.215-4.383a24.71 24.71 0 0 1 .27-1.533c.093-.435.24-1.18.326-1.659.247-1.392.56-2.235 1.592-4.267.532-1.05.981-1.921.996-1.936zm43.687 0c.015.014.464.885.996 1.935 1.032 2.032 1.345 2.875 1.592 4.267.085.48.233 1.224.326 1.659.267 1.236.366 2.139.45 4.04.042.971.053 1.812.021 1.87-.034.062-.283-.127-.615-.471-1.189-1.228-3.353-2.962-5.248-4.209a187.43 187.43 0 0 1-1.098-.725c-.016-.012.079-.232.209-.49.13-.257.295-.794.367-1.193.383-2.122.848-4.152 1.102-4.795.452-1.146.677-1.435 1.318-1.693.304-.123.565-.21.58-.196zm-40.662.991c.16-.002.532.04.963.112.86.144 1.365.167 2.855.13.997-.023 1.916-.074 2.043-.11.15-.044-.301.45-1.253 1.374-1.202 1.165-1.587 1.605-2.014 2.295l-.527.854-.329-.71c-.18-.39-.501-1.143-.712-1.675-.212-.532-.547-1.238-.747-1.568-.199-.33-.36-.64-.36-.684 0-.011.028-.017.081-.018zm37.637 0c.053.001.082.007.082.018 0 .045-.162.353-.361.684-.2.33-.535 1.036-.747 1.568-.21.532-.53 1.284-.709 1.67-.178.386-.334.7-.345.697-.011-.002-.25-.384-.532-.847-.42-.693-.775-1.1-1.996-2.284-.952-.923-1.402-1.418-1.254-1.375.128.037 1.047.087 2.043.112 1.491.036 1.996.013 2.856-.131.431-.072.804-.114.963-.112zm-26.291.09c.037 0 .13.094.205.21.075.114.423.546.775.958.352.412.934 1.096 1.291 1.52.358.424.984 1.043 1.393 1.379.409.335.795.658.86.715.211.188-1.183 3.731-2.071 5.261-.278.48-.641 1.11-.807 1.405-.165.293-.32.532-.347.529-.027-.003-.175-.202-.328-.442-.24-.374-1.217-1.227-1.524-1.33-.141-.047-.515-1.586-.707-2.914-.238-1.642-.074-3.903.387-5.386.185-.596.785-1.905.873-1.905zm14.945 0c.088 0 .688 1.309.873 1.905.461 1.483.625 3.744.387 5.386-.192 1.328-.566 2.867-.707 2.914-.307.103-1.284.955-1.524 1.33-.153.24-.301.44-.328.442-.026.003-.182-.236-.347-.53-.166-.293-.531-.928-.81-1.41-.897-1.542-2.281-5.067-2.067-5.257.064-.057.45-.378.86-.713a12.966 12.966 0 0 0 1.392-1.38c.357-.423.939-1.107 1.29-1.519.353-.412.7-.844.776-.959.075-.115.168-.209.205-.209zM17.131 39.91c.011 0 .013.009.008.027-.037.128-.086 1.047-.11 2.043-.036 1.491-.013 1.996.131 2.856.116.695.14 1.044.074 1.041-.054-.002-.36-.165-.68-.361-.32-.197-1.017-.531-1.55-.743a40.893 40.893 0 0 1-1.678-.712l-.709-.329.854-.527c.69-.427 1.13-.812 2.295-2.014.808-.833 1.287-1.281 1.365-1.28zm19.7 0c.077 0 .556.448 1.364 1.281 1.165 1.202 1.605 1.587 2.295 2.014l.854.527-.71.329a40.7 40.7 0 0 1-1.675.712c-.532.212-1.238.547-1.568.747-.33.199-.64.36-.684.36-.045 0-.002-.47.094-1.044.144-.86.167-1.365.13-2.856-.023-.996-.074-1.915-.11-2.042-.006-.02-.002-.028.01-.028zm-9.847 2.776c.107 0 .214.025.368.078.246.084.437.098.587.04.217-.081.222-.073.16.255-.034.186-.17.698-.302 1.138a74.95 74.95 0 0 0-.496 1.76c-.14.527-.277.98-.303 1.006-.055.054-.071.003-.385-1.174a65.981 65.981 0 0 0-.46-1.639 15.076 15.076 0 0 1-.292-1.091c-.061-.328-.056-.336.159-.254.148.056.345.043.593-.041.156-.053.265-.079.371-.078zm-2.367 1.402c.07-.083.527 1.512.828 2.885.234 1.064.467 2.699.467 3.273 0 .418-.013.438-.41.637-.812.405-2.092.318-3.3-.225-.764-.342-.825-.433-.528-.785.695-.826 1.921-3.177 2.615-5.014.145-.383.293-.73.328-.771zm4.727 0c.035.042.183.388.328.771.694 1.837 1.92 4.188 2.615 5.014.184.218.215.314.135.41-.17.204-1.164.613-1.84.756h-.002c-.99.21-1.552.158-2.23-.207-.274-.147-.301-.203-.301-.59 0-.57.234-2.208.467-3.27.301-1.372.758-2.967.828-2.884zm-19.448 1.16c.013-.016.233.077.49.207.258.13.795.297 1.194.37 2.122.382 4.152.847 4.795 1.1 1.146.453 1.435.678 1.693 1.32.123.303.21.564.196.58-.015.014-.886.463-1.936.995-2.013 1.022-2.844 1.333-4.209 1.582-.46.084-1.231.235-1.717.334-1.394.287-1.993.357-3.53.414-.793.03-1.628.07-1.858.09-.23.02-.468.015-.53-.01-.065-.026.17-.326.559-.716 1.322-1.326 2.913-3.318 4.129-5.168.386-.588.712-1.082.724-1.098zm34.168 0c.013.016.339.51.725 1.098 1.216 1.85 2.809 3.844 4.129 5.168.494.494.63.682.525.722a.625.625 0 0 1-.248.04c-.06-.008-.84-.048-1.734-.089-1.76-.08-2.674-.184-3.902-.449a56.439 56.439 0 0 0-1.659-.326c-1.392-.247-2.235-.56-4.267-1.592-1.05-.532-1.921-.981-1.936-.996-.014-.014.073-.276.196-.58.258-.641.547-.866 1.693-1.318.643-.254 2.673-.72 4.795-1.102.399-.072.936-.238 1.193-.369.258-.13.478-.223.49-.207zm-36.015.664c.051.052-1.596 2.477-2.565 3.776a23.994 23.994 0 0 1-1.433 1.742c-.622.657-.65.674-1.069.662-.935-.028-1.035-.112-1.101-.94l-.047-.582.686-.65c.377-.357 1.167-1.006 1.753-1.443 1.3-.969 3.724-2.616 3.776-2.565zm37.863 0c.052-.051 2.477 1.596 3.776 2.565.586.437 1.376 1.086 1.753 1.443l.686.65-.049.592c-.028.345-.104.65-.185.73-.082.082-.386.158-.73.186l-.593.049-.65-.686c-.357-.377-1.006-1.167-1.443-1.753-.969-1.3-2.616-3.724-2.565-3.776z"/></pattern></defs><path style="fill:none;stroke-width:.264583" d="M-106.582 112.092h384.036v216.02h-384.036z" transform="translate(0 -81)"/><path style="fill:none;stroke-width:.264583" d="M-17.95 83.037h198.027v111.39H-17.95z" transform="translate(0 -81)"/><path style="fill:url(#o)" transform="scale(.26458)" d="M.02.02h53.96v53.96H.02z"/></svg>