<?xml version="1.0" encoding="UTF-8" standalone="no"?>
<!-- Generator: Adobe Illustrator 27.5.0, SVG Export Plug-In . SVG Version: 6.00 Build 0)  -->

<svg
   version="1.0"
   id="Rheumaliga_Basel_rgb"
   x="0px"
   y="0px"
   viewBox="0 0 202.5 35.5"
   style="enable-background:new 0 0 202.5 35.5;"
   xml:space="preserve"
   sodipodi:docname="BLBS_de_logo.svg"
   inkscape:export-filename="BLBS_de_logo.png"
   inkscape:export-xdpi="948.14813"
   inkscape:export-ydpi="948.14813"
   inkscape:version="1.2.2 (b0a8486541, 2022-12-01)"
   xmlns:inkscape="http://www.inkscape.org/namespaces/inkscape"
   xmlns:sodipodi="http://sodipodi.sourceforge.net/DTD/sodipodi-0.dtd"
   xmlns="http://www.w3.org/2000/svg"
   xmlns:svg="http://www.w3.org/2000/svg"><defs
   id="defs91" /><sodipodi:namedview
   id="namedview89"
   pagecolor="#ffffff"
   bordercolor="#666666"
   borderopacity="1.0"
   inkscape:showpageshadow="2"
   inkscape:pageopacity="0.0"
   inkscape:pagecheckerboard="0"
   inkscape:deskcolor="#d1d1d1"
   showgrid="false"
   inkscape:zoom="7.4864198"
   inkscape:cx="87.291392"
   inkscape:cy="17.832289"
   inkscape:window-width="1920"
   inkscape:window-height="1001"
   inkscape:window-x="-9"
   inkscape:window-y="-9"
   inkscape:window-maximized="1"
   inkscape:current-layer="Rheumaliga_Basel_rgb" />
<style
   type="text/css"
   id="style2">
	.st0{fill:#FFFFFF;}
	.st1{fill:#FF3333;}
</style>
<g
   id="Rheumaliga_beider_Basel">
	<g
   id="g78">
		<g
   id="g76">
			<g
   id="g46">
				<path
   d="M7.23,11.86c0.26,1.25,0.34,1.47,0.65,1.81H5.43c-0.31-0.29-0.33-0.34-0.6-1.61l-0.08-0.4      c-0.13-0.62-0.23-1.07-0.49-1.38C3.89,9.82,3.38,9.8,2.99,9.8H2.31v3.86H0V4.49h4.2c0.66,0,1.5,0,2.13,0.43      c0.88,0.6,0.9,1.59,0.9,1.92c0,1.95-1.39,2.21-1.9,2.3c1.18,0.23,1.47,0.83,1.77,2.2L7.23,11.86z M2.31,8.6h0.7      c0.47,0,1.05,0,1.4-0.27C4.6,8.18,4.89,7.83,4.89,7.1c0-0.25-0.03-0.48-0.12-0.69c-0.3-0.69-0.91-0.69-1.65-0.7H2.31V8.6z"
   id="path4" />
				<path
   d="M14.87,13.67h-2.11V9.61c0-0.65,0.01-1.48-0.9-1.48c-0.19,0-0.35,0.04-0.48,0.09c-0.56,0.25-0.57,0.69-0.6,1.04v4.41      H8.7V4.49h2.09v3.41c0.34-0.29,1.01-0.86,2.16-0.86c0.3,0,0.64,0.04,0.95,0.17c0.95,0.42,0.96,1.34,0.98,2.04V13.67z"
   id="path6" />
				<path
   d="M22.65,11.59c-0.04,0.4-0.12,1.2-0.96,1.74c-0.69,0.43-1.68,0.51-2.21,0.51c-1.14,0-1.94-0.3-2.39-0.7      c-0.87-0.78-0.87-2.11-0.87-2.61c0-0.87,0.01-3.52,3.35-3.52c0.47,0,0.94,0.05,1.39,0.2c1.13,0.39,1.44,1.08,1.6,1.92      c0.12,0.62,0.09,1.12,0.08,1.44h-4.29c-0.01,0.99,0.03,2.29,1.17,2.29c0.33,0,0.61-0.13,0.78-0.31c0.27-0.3,0.29-0.75,0.3-0.95      H22.65z M20.57,9.66c0-0.6-0.06-1.68-1.03-1.68c-1.08,0-1.14,1.3-1.17,1.68H20.57z"
   id="path8" />
				<path
   d="M30.06,13.67h-2.09v-0.74c-0.23,0.22-0.96,0.87-2.18,0.87c-0.39,0-0.68-0.06-0.92-0.17c-0.95-0.39-0.98-1.29-0.99-1.99      V7.17h2.09v3.94c0,0.75,0,1.61,0.94,1.61c0.34,0,0.66-0.14,0.84-0.36c0.21-0.25,0.21-0.55,0.22-0.79V7.17h2.09V13.67z"
   id="path10" />
				<path
   d="M31.68,7.17h2.09v0.75c0.35-0.31,0.98-0.88,2.09-0.88c1.26,0,1.61,0.75,1.7,1c0.75-0.73,1.5-1,2.22-1      c0.35,0,0.6,0.05,0.83,0.14c0.96,0.38,0.99,1.26,1,1.83v4.65h-2.09V9.43c-0.01-0.46-0.03-0.71-0.14-0.92      c-0.03-0.05-0.21-0.38-0.68-0.38c-0.16,0-0.33,0.04-0.47,0.12c-0.52,0.25-0.53,0.68-0.55,1.03v4.39h-2.09V9.45      c0-0.49,0.01-1.33-0.83-1.33c-0.18,0-0.38,0.05-0.55,0.14c-0.46,0.29-0.47,0.7-0.46,1.27v4.12h-2.09V7.17z"
   id="path12" />
				<path
   d="M47.05,9.13c0-0.31-0.01-0.58-0.13-0.79c-0.22-0.36-0.65-0.36-0.77-0.36c-0.46,0-0.7,0.21-0.81,0.35      c-0.21,0.26-0.22,0.62-0.23,0.88H43.1c0-0.3-0.01-0.7,0.21-1.09C43.81,7.2,45.11,7,46.28,7c0.39,0,0.78,0.03,1.18,0.09      c0.4,0.06,0.82,0.18,1.12,0.44c0.57,0.49,0.56,1.2,0.56,1.7v3.12c0,0.35,0,0.58,0.05,0.83c0.05,0.27,0.13,0.34,0.22,0.4v0.08      h-1.73c-0.49,0.01-0.73-0.04-0.72-0.74c-0.22,0.23-0.87,0.91-2.16,0.91c-0.53,0-1.09-0.14-1.44-0.55      c-0.26-0.29-0.46-0.77-0.46-1.4c0-0.26,0.01-1.04,0.79-1.57c0.49-0.33,1.17-0.43,2.31-0.56l1.03-0.1V9.13z M47.05,10.49      c-0.64,0.05-0.81,0.06-1.05,0.13c-0.51,0.12-0.96,0.4-0.96,1.09c0,0.14,0.01,0.29,0.05,0.43c0.14,0.46,0.47,0.58,0.83,0.58      c0.16,0,0.52-0.01,0.79-0.26c0.33-0.3,0.34-0.71,0.34-1.03V10.49z"
   id="path14" />
				<path
   d="M52.79,13.67h-2.11V4.49h2.11V13.67z"
   id="path16" />
				<path
   d="M56.5,6.18h-2.12V4.55h2.12V6.18z M56.49,13.67h-2.11v-6.5h2.11V13.67z"
   id="path18" />
				<path
   d="M64.25,7.17v5.79c0,1.65-0.17,2.81-1.85,3.3c-0.48,0.14-1,0.21-1.61,0.21c-1.16,0-1.95-0.26-2.38-0.64      c-0.57-0.51-0.56-1.16-0.55-1.61h2.05c0.03,0.43,0.03,0.57,0.1,0.75c0.18,0.42,0.55,0.57,0.94,0.57c0.17,0,0.66-0.01,0.97-0.53      c0.21-0.36,0.22-0.86,0.23-1.34v-0.82c-0.16,0.18-0.29,0.32-0.55,0.48c-0.38,0.22-0.9,0.35-1.43,0.35      c-0.31,0-0.74-0.04-1.14-0.23c-0.87-0.43-1.22-1.27-1.22-2.92c0-0.77,0.04-1.81,0.58-2.56c0.62-0.85,1.52-0.92,1.99-0.92      c1.1,0,1.56,0.6,1.77,0.87V7.17H64.25z M62.17,9.51c0-0.42-0.04-0.71-0.2-0.95c-0.13-0.19-0.39-0.43-0.82-0.43      c-1.2,0-1.2,1.52-1.2,2.29c0,1.13,0.08,2.26,1.09,2.26c0.38,0,0.69-0.18,0.88-0.44c0.2-0.29,0.22-0.6,0.23-0.91V9.51z"
   id="path20" />
				<path
   d="M69.65,9.13c0-0.31-0.01-0.58-0.13-0.79c-0.22-0.36-0.65-0.36-0.77-0.36c-0.46,0-0.7,0.21-0.81,0.35      c-0.21,0.26-0.22,0.62-0.23,0.88H65.7c0-0.3-0.01-0.7,0.21-1.09C66.42,7.2,67.72,7,68.89,7c0.39,0,0.78,0.03,1.18,0.09      s0.82,0.18,1.12,0.44c0.57,0.49,0.56,1.2,0.56,1.7v3.12c0,0.35,0,0.58,0.05,0.83c0.05,0.27,0.13,0.34,0.22,0.4v0.08h-1.73      c-0.49,0.01-0.73-0.04-0.72-0.74c-0.22,0.23-0.87,0.91-2.16,0.91c-0.53,0-1.09-0.14-1.44-0.55c-0.26-0.29-0.46-0.77-0.46-1.4      c0-0.26,0.01-1.04,0.79-1.57c0.49-0.33,1.17-0.43,2.31-0.56l1.03-0.1V9.13z M69.65,10.49c-0.64,0.05-0.81,0.06-1.05,0.13      c-0.51,0.12-0.96,0.4-0.96,1.09c0,0.14,0.01,0.29,0.05,0.43c0.14,0.46,0.47,0.58,0.83,0.58c0.16,0,0.52-0.01,0.79-0.26      c0.32-0.3,0.34-0.71,0.34-1.03V10.49z"
   id="path22" />
				<path
   d="M79.08,13.67h-2.09V4.49h2.09v3.5c0.26-0.27,0.91-0.95,2.09-0.95c0.35,0,0.7,0.06,1.01,0.22      c0.92,0.46,1.22,1.34,1.22,3.02c0,0.61-0.04,1.05-0.1,1.42c-0.08,0.44-0.19,0.87-0.45,1.22c-0.44,0.61-1.14,0.88-1.91,0.88      c-0.74,0-1.26-0.26-1.57-0.55c-0.12-0.12-0.19-0.21-0.29-0.34V13.67z M79.08,11.17c0,0.34,0,0.73,0.2,1.05      c0.19,0.32,0.53,0.48,0.87,0.48c0.34,0,0.64-0.16,0.82-0.42c0.33-0.43,0.33-1.29,0.33-1.98c0-1.21-0.09-2.18-1.03-2.18      c-0.21,0-0.39,0.05-0.53,0.13c-0.64,0.31-0.64,0.94-0.65,1.39V11.17z"
   id="path24" />
				<path
   d="M90.94,11.59c-0.04,0.4-0.12,1.2-0.96,1.74c-0.69,0.43-1.68,0.51-2.21,0.51c-1.14,0-1.94-0.3-2.39-0.7      c-0.87-0.78-0.87-2.11-0.87-2.61C84.5,9.65,84.51,7,87.85,7c0.47,0,0.94,0.05,1.39,0.2c1.13,0.39,1.44,1.08,1.6,1.92      c0.12,0.62,0.09,1.12,0.08,1.44h-4.29c-0.01,0.99,0.03,2.29,1.17,2.29c0.33,0,0.61-0.13,0.78-0.31c0.27-0.3,0.29-0.75,0.3-0.95      H90.94z M88.86,9.66c0-0.6-0.06-1.68-1.03-1.68c-1.08,0-1.14,1.3-1.17,1.68H88.86z"
   id="path26" />
				<path
   d="M94.33,6.18h-2.12V4.55h2.12V6.18z M94.32,13.67h-2.11v-6.5h2.11V13.67z"
   id="path28" />
				<path
   d="M102.09,13.67h-2.08v-0.79c-0.22,0.22-0.43,0.43-0.7,0.58c-0.39,0.23-0.9,0.34-1.35,0.34c-0.25,0-0.65-0.03-1.04-0.22      c-0.99-0.47-1.13-1.42-1.2-1.92c-0.05-0.38-0.06-0.75-0.06-1.13c0-1.98,0.47-2.85,1.39-3.26c0.36-0.16,0.75-0.22,1.16-0.22      c1.01,0,1.4,0.4,1.81,0.81V4.49h2.08V13.67z M100,9.44c0-0.75-0.39-1.31-1.05-1.31c-0.17,0-0.33,0.04-0.46,0.1      c-0.33,0.16-0.71,0.46-0.71,2.16c0,0.18,0.01,0.88,0.1,1.35c0.04,0.19,0.19,0.96,1,0.96c0.39,0,0.73-0.21,0.9-0.47      c0.19-0.31,0.21-0.74,0.22-1.13V9.44z"
   id="path30" />
				<path
   d="M109.85,11.59c-0.04,0.4-0.12,1.2-0.96,1.74c-0.69,0.43-1.68,0.51-2.21,0.51c-1.14,0-1.94-0.3-2.39-0.7      c-0.87-0.78-0.87-2.11-0.87-2.61c0-0.87,0.01-3.52,3.35-3.52c0.47,0,0.94,0.05,1.39,0.2c1.13,0.39,1.44,1.08,1.6,1.92      c0.12,0.62,0.09,1.12,0.08,1.44h-4.29c-0.01,0.99,0.03,2.29,1.17,2.29c0.33,0,0.61-0.13,0.78-0.31c0.27-0.3,0.29-0.75,0.3-0.95      H109.85z M107.77,9.66c0-0.6-0.06-1.68-1.03-1.68c-1.08,0-1.14,1.3-1.17,1.68H107.77z"
   id="path32" />
				<path
   d="M113.22,13.67h-2.11v-6.5h2.11v1.16c0.12-0.27,0.22-0.51,0.49-0.78c0.33-0.31,0.73-0.48,1.13-0.48      c0.25,0,0.38,0.05,0.55,0.12V8.9c-0.21-0.12-0.55-0.3-0.96-0.3c-0.09,0-0.31,0.01-0.57,0.13c-0.62,0.31-0.64,0.87-0.64,1.27      V13.67z"
   id="path34" />
				<path
   d="M123.46,4.49c1.16,0,1.96,0.04,2.52,0.38c0.75,0.46,0.94,1.21,0.94,1.82c0,0.86-0.39,1.53-1.18,1.91      c-0.1,0.04-0.19,0.08-0.31,0.12c0.14,0.03,0.27,0.04,0.4,0.08c0.14,0.03,1.6,0.39,1.6,2.25c0,0.42-0.07,0.82-0.23,1.2      c-0.65,1.4-2.13,1.42-3.37,1.43H120V4.49H123.46z M122.3,8.3h0.7c0.4,0,0.88,0,1.2-0.22c0.08-0.05,0.49-0.34,0.49-1.12      c0-0.33-0.06-0.53-0.13-0.68c-0.31-0.6-0.87-0.6-1.68-0.6h-0.58V8.3z M122.3,9.44v3.03l0.52,0.01c0.52,0,0.81,0,1.1-0.05      c0.51-0.09,1.13-0.4,1.13-1.51c0-0.19,0-0.94-0.68-1.29c-0.35-0.18-0.82-0.19-1.44-0.19H122.3z"
   id="path36" />
				<path
   d="M132.54,9.13c0-0.31-0.01-0.58-0.13-0.79c-0.22-0.36-0.65-0.36-0.77-0.36c-0.46,0-0.7,0.21-0.81,0.35      c-0.21,0.26-0.22,0.62-0.23,0.88h-2.02c0-0.3-0.01-0.7,0.21-1.09C129.3,7.2,130.6,7,131.77,7c0.39,0,0.78,0.03,1.18,0.09      c0.4,0.06,0.82,0.18,1.12,0.44c0.57,0.49,0.56,1.2,0.56,1.7v3.12c0,0.35,0,0.58,0.05,0.83c0.05,0.27,0.13,0.34,0.22,0.4v0.08      h-1.73c-0.49,0.01-0.73-0.04-0.72-0.74c-0.22,0.23-0.87,0.91-2.16,0.91c-0.53,0-1.09-0.14-1.44-0.55      c-0.26-0.29-0.46-0.77-0.46-1.4c0-0.26,0.01-1.04,0.79-1.57c0.49-0.33,1.17-0.43,2.31-0.56l1.03-0.1V9.13z M132.54,10.49      c-0.64,0.05-0.81,0.06-1.05,0.13c-0.51,0.12-0.96,0.4-0.96,1.09c0,0.14,0.01,0.29,0.05,0.43c0.14,0.46,0.47,0.58,0.83,0.58      c0.16,0,0.52-0.01,0.79-0.26c0.33-0.3,0.34-0.71,0.34-1.03V10.49z"
   id="path38" />
				<path
   d="M138,11.01c-0.49-0.13-1.04-0.26-1.44-0.61c-0.46-0.4-0.56-0.91-0.56-1.3c0-0.36,0.06-0.73,0.25-1.05      c0.51-0.86,1.55-1.05,2.48-1.05c0.38,0,0.75,0.03,1.12,0.09c0.33,0.06,0.65,0.16,0.92,0.34c0.69,0.46,0.69,1.1,0.7,1.52      l-1.83-0.03c0.01-0.3-0.01-0.99-0.88-0.99c-0.56,0-0.88,0.33-0.88,0.72c0,0.53,0.52,0.68,1.1,0.84l0.52,0.12      c0.52,0.13,1.07,0.26,1.46,0.58c0.53,0.43,0.65,1.01,0.65,1.44c0,0.36-0.08,0.73-0.25,1.05c-0.46,0.83-1.38,1.14-2.68,1.14      c-0.39,0-0.78-0.03-1.17-0.1c-0.32-0.05-0.65-0.16-0.94-0.34c-0.79-0.52-0.74-1.35-0.73-1.68l1.94,0.04      c0,0.2-0.01,0.57,0.25,0.85c0.16,0.13,0.42,0.26,0.81,0.26c0.68,0,0.91-0.39,0.91-0.78c0-0.62-0.51-0.75-1.07-0.9L138,11.01z"
   id="path40" />
				<path
   d="M149.05,11.59c-0.04,0.4-0.12,1.2-0.96,1.74c-0.69,0.43-1.68,0.51-2.21,0.51c-1.14,0-1.94-0.3-2.39-0.7      c-0.87-0.78-0.87-2.11-0.87-2.61c0-0.87,0.01-3.52,3.35-3.52c0.47,0,0.94,0.05,1.39,0.2c1.13,0.39,1.44,1.08,1.6,1.92      c0.12,0.62,0.09,1.12,0.08,1.44h-4.29c-0.01,0.99,0.03,2.29,1.17,2.29c0.33,0,0.61-0.13,0.78-0.31c0.27-0.3,0.29-0.75,0.3-0.95      H149.05z M146.97,9.66c0-0.6-0.07-1.68-1.03-1.68c-1.08,0-1.14,1.3-1.17,1.68H146.97z"
   id="path42" />
				<path
   d="M152.43,13.67h-2.11V4.49h2.11V13.67z"
   id="path44" />
			</g>
			<g
   id="g74">
				<path
   d="M65.45,20.49c0.66,0.01,1.5,0.04,2.08,0.49c0.38,0.3,0.75,0.86,0.75,1.7c0,0.53-0.16,0.91-0.29,1.12      c-0.31,0.53-0.73,0.75-1.04,0.91c0.12,0.01,0.23,0.04,0.34,0.08c0.36,0.12,1.61,0.61,1.61,2.3c0,0.87-0.39,1.6-0.95,2.03      c-0.69,0.52-1.48,0.53-2.15,0.55h-3.24v-9.18H65.45z M63.8,24.44h1.1c0.56,0,1.12-0.01,1.52-0.26c0.46-0.27,0.65-0.79,0.65-1.34      c0-0.26-0.01-1.07-0.82-1.39c-0.31-0.13-0.62-0.13-1.53-0.14H63.8V24.44z M63.8,25.27v3.58h1.73c0.48,0,1.12,0,1.57-0.39      c0.25-0.2,0.57-0.64,0.57-1.4c0-0.31-0.04-1.2-0.96-1.6c-0.42-0.18-0.91-0.2-1.89-0.18H63.8z"
   id="path48" />
				<path
   d="M75.42,27.67c-0.09,1.65-1.53,2.12-2.65,2.12c-0.39,0-1.4-0.04-2.09-0.78c-0.31-0.35-0.74-1.07-0.74-2.42      c0-2.14,0.87-3.57,2.9-3.57c2.04,0,2.68,1.4,2.61,3.37h-4.33c-0.01,0.81,0.01,2.68,1.69,2.68c0.39,0,1.43-0.14,1.51-1.39H75.42z       M74.35,25.71c-0.01-0.4-0.05-1.96-1.48-1.96c-0.94,0-1.63,0.66-1.7,1.96H74.35z"
   id="path50" />
				<path
   d="M83.37,29.66h-1.2l-1.21-4.15c-0.12-0.43-0.13-0.47-0.25-0.92c-0.07,0.29-0.1,0.43-0.18,0.69l-1.38,4.38h-1.18      l-1.89-6.5h1.18l1.2,4.54c0.12,0.39,0.13,0.44,0.22,0.9c0.1-0.44,0.13-0.49,0.25-0.94l1.4-4.5h1.03l1.2,4.24      c0.14,0.57,0.16,0.64,0.29,1.2c0.06-0.34,0.09-0.44,0.17-0.75l1.3-4.68h0.98L83.37,29.66z"
   id="path52" />
				<path
   d="M91.57,29.66h-1.1V28.9c-0.31,0.27-1.01,0.9-2.15,0.9c-0.38,0-0.72-0.06-0.99-0.21c-0.95-0.47-0.98-1.43-0.99-2.17      v-4.25h1.11v3.74c0,0.7,0.03,1.13,0.17,1.46c0.21,0.46,0.62,0.7,1.17,0.7c0.46,0,1.03-0.2,1.31-0.49      c0.33-0.33,0.35-0.69,0.36-1.01v-4.39h1.1V29.66z"
   id="path54" />
				<path
   d="M94.72,26.63c-0.58-0.18-1.59-0.49-1.59-1.69c0-1.27,0.96-1.92,2.31-1.92c0.62,0,1.24,0.17,1.62,0.47      c0.62,0.51,0.61,1.25,0.61,1.52h-1.07c0.01-0.16,0.04-0.34-0.04-0.57c-0.17-0.49-0.6-0.73-1.18-0.73      c-0.75,0-1.24,0.43-1.24,0.95c0,0.68,0.68,0.88,1.35,1.1l0.44,0.13c0.46,0.14,0.91,0.29,1.26,0.58c0.1,0.08,0.6,0.51,0.6,1.35      c0,0.44-0.17,1.96-2.42,1.96c-1.04,0-2.51-0.26-2.43-2.14h1.1c-0.03,0.51,0.03,1.42,1.42,1.42c0.17,0,1.24,0,1.24-1.03      c0-0.81-0.65-1-1.29-1.18L94.72,26.63z"
   id="path56" />
				<path
   d="M100.57,26.63c-0.58-0.18-1.59-0.49-1.59-1.69c0-1.27,0.96-1.92,2.31-1.92c0.62,0,1.24,0.17,1.62,0.47      c0.62,0.51,0.61,1.25,0.61,1.52h-1.07c0.01-0.16,0.04-0.34-0.04-0.57c-0.17-0.49-0.6-0.73-1.18-0.73      c-0.75,0-1.24,0.43-1.24,0.95c0,0.68,0.68,0.88,1.35,1.1l0.44,0.13c0.46,0.14,0.91,0.29,1.26,0.58c0.1,0.08,0.6,0.51,0.6,1.35      c0,0.44-0.17,1.96-2.42,1.96c-1.04,0-2.51-0.26-2.43-2.14h1.1c-0.03,0.51,0.03,1.42,1.42,1.42c0.17,0,1.24,0,1.24-1.03      c0-0.81-0.65-1-1.29-1.18L100.57,26.63z"
   id="path58" />
				<path
   d="M106.49,23.84l-0.03,3.73c0.01,0.74,0.01,1.39,0.84,1.39c0.33,0,0.56-0.08,0.75-0.16v0.75      c-0.26,0.09-0.65,0.22-1.22,0.22c-0.94,0-1.22-0.47-1.3-0.58c-0.21-0.34-0.22-0.86-0.21-1.47l0.03-3.89h-0.99v-0.68h0.99v-1.42      l1.13-0.2v1.61h1.22v0.68H106.49z"
   id="path60" />
				<path
   d="M114.02,29.66h-1.1v-9.18h1.1v3.58c0.25-0.27,0.9-1.04,2.13-1.04c0.34,0,0.75,0.06,1.12,0.29      c0.99,0.57,1.21,1.81,1.21,2.98c0,0.6-0.08,1.73-0.56,2.47c-0.36,0.56-1.04,1.04-2.03,1.04c-1.14,0-1.66-0.64-1.87-0.88V29.66z       M114.02,27.09c0,0.35,0,0.52,0.05,0.75c0.19,0.98,1.09,1.22,1.56,1.22c0.47,0,0.94-0.22,1.22-0.6c0.47-0.62,0.47-1.77,0.47-2.2      c0-1.01-0.12-2.52-1.53-2.52c-0.55,0-1.09,0.26-1.39,0.64c-0.38,0.48-0.38,1.03-0.38,1.5V27.09z"
   id="path62" />
				<path
   d="M125.12,27.67c-0.09,1.65-1.53,2.12-2.65,2.12c-0.39,0-1.4-0.04-2.09-0.78c-0.31-0.35-0.74-1.07-0.74-2.42      c0-2.14,0.87-3.57,2.9-3.57c2.04,0,2.68,1.4,2.61,3.37h-4.33c-0.01,0.81,0.01,2.68,1.69,2.68c0.39,0,1.43-0.14,1.51-1.39H125.12      z M124.04,25.71c-0.01-0.4-0.05-1.96-1.48-1.96c-0.94,0-1.63,0.66-1.7,1.96H124.04z"
   id="path64" />
				<path
   d="M133.09,29.66h-1.2l-1.21-4.15c-0.12-0.43-0.13-0.47-0.25-0.92c-0.06,0.29-0.1,0.43-0.18,0.69l-1.38,4.38h-1.18      l-1.89-6.5H127l1.2,4.54c0.12,0.39,0.13,0.44,0.22,0.9c0.1-0.44,0.13-0.49,0.25-0.94l1.4-4.5h1.03l1.2,4.24      c0.14,0.57,0.16,0.64,0.29,1.2c0.06-0.34,0.09-0.44,0.17-0.75l1.3-4.68h0.97L133.09,29.66z"
   id="path66" />
				<path
   d="M141.19,27.67c-0.09,1.65-1.53,2.12-2.65,2.12c-0.39,0-1.4-0.04-2.09-0.78c-0.31-0.35-0.74-1.07-0.74-2.42      c0-2.14,0.87-3.57,2.9-3.57c2.04,0,2.68,1.4,2.61,3.37h-4.33c-0.01,0.81,0.01,2.68,1.69,2.68c0.39,0,1.43-0.14,1.51-1.39H141.19      z M140.11,25.71c-0.01-0.4-0.05-1.96-1.48-1.96c-0.94,0-1.63,0.66-1.7,1.96H140.11z"
   id="path68" />
				<path
   d="M147.97,23.16v5.5c0.01,0.86,0.03,2-0.6,2.76c-0.57,0.69-1.48,0.94-2.38,0.94c-1.59,0-2.11-0.69-2.21-0.82      c-0.36-0.48-0.35-1.12-0.35-1.34h1.07c0.03,0.36,0.07,0.95,0.74,1.27c0.17,0.08,0.42,0.16,0.83,0.16c0.21,0,0.91,0,1.39-0.62      c0.4-0.49,0.4-1.08,0.42-1.59l0.01-0.61c-0.29,0.3-0.85,0.86-2.04,0.86c-0.39,0-0.81-0.08-1.18-0.29      c-0.92-0.52-1.27-1.6-1.27-2.92c0-0.87,0.16-1.72,0.57-2.34c0.46-0.66,1.18-1.09,2.09-1.09c1.03,0,1.52,0.51,1.83,0.82v-0.68      H147.97z M146.89,25.49c0-0.49-0.07-0.86-0.31-1.18c-0.26-0.34-0.71-0.56-1.22-0.56c-0.33,0-0.64,0.09-0.9,0.25      c-0.77,0.49-0.9,1.51-0.9,2.31c0,0.32,0.03,0.65,0.06,0.97c0.07,0.39,0.25,1.65,1.62,1.65c0.44,0,0.88-0.16,1.18-0.43      c0.42-0.39,0.43-0.81,0.46-1.22V25.49z"
   id="path70" />
				<path
   d="M151.29,23.84l-0.03,3.73c0.01,0.74,0.01,1.39,0.84,1.39c0.33,0,0.56-0.08,0.75-0.16v0.75      c-0.26,0.09-0.65,0.22-1.22,0.22c-0.94,0-1.22-0.47-1.3-0.58c-0.21-0.34-0.22-0.86-0.21-1.47l0.03-3.89h-0.99v-0.68h0.99v-1.42      l1.13-0.2v1.61h1.22v0.68H151.29z"
   id="path72" />
			</g>
		</g>
	</g>
</g>
<path
   id="weisser_Kreis"
   class="st0"
   d="M184.75,0.46c-9.55,0-17.29,7.74-17.29,17.29c0,9.55,7.74,17.29,17.29,17.29  c9.55,0,17.29-7.74,17.29-17.29C202.04,8.2,194.3,0.46,184.75,0.46z" />
<g
   id="g86">
	<path
   class="st1"
   d="M184.75,0C174.95,0,167,7.95,167,17.75c0,9.8,7.95,17.75,17.75,17.75c9.8,0,17.75-7.95,17.75-17.75   C202.5,7.95,194.56,0,184.75,0z M191.04,18.94c-0.06,0.11-0.28,0.41-0.43,0.61c-0.06,0.08-0.3,0.41-0.44,0.49   c-0.09,0.05-0.3-0.04-0.24-0.14c0.07-0.13,0.21-0.71,0.21-0.79c0.03-0.25,0.03-0.22,0.02-0.28c0-0.05-0.23,0.09-0.29,0   c-0.06-0.09,0.04-0.29,0.05-0.45c0.02-0.22-0.02-0.51,0.07-0.74c0.07-0.17,0.06-0.24,0.1-0.4c0.04-0.16-0.04-0.16-0.28-0.88   c-0.36-1.05-0.78-1.15-0.93-1.82c-0.16-0.67-0.23-1.47-0.33-1.94c-0.09-0.4-0.21-1.2-0.28-1.44c-0.01-0.05-0.04-0.03-0.04,0.04   c-0.02,0.39-0.1,1.75-0.06,2.13c0.04,0.45,0.52,2.48,0.58,2.88c0.06,0.4,0.12,0.43,0.04,1.05c-0.08,0.62-0.28,2.53-0.72,4.04   c-0.2,0.68-0.51,1.18-0.73,1.74c-0.22,0.56-0.26,0.6-0.2,1.01c0.06,0.42,0.07,0.17,0.03,0.77c-0.04,0.6,0,0.6,0.06,1.22   c0.06,0.65,0.13,0.89-0.11,1.58c-0.24,0.69-1.03,2.94-1.11,3.26c-0.08,0.33-0.25,0.25-0.27,0.71c-0.02,0.45,0.06,0.25,0.09,0.49   c0.02,0.24-0.04,0.25-0.02,0.38c0.02,0.13,0.04,0.06,0.17,0.22c0.1,0.13-0.02,0.3,0.26,0.58c0.28,0.29,0.22,0.27,0.17,0.47   c-0.06,0.24-0.19,0.28-0.47,0.3c-0.64,0.05-0.85,0.11-1.09,0.06c-0.21-0.05-0.26-0.16-0.3-0.42c-0.04-0.25-0.03-0.26-0.03-0.37   c0-0.11-0.03-0.07-0.11-0.19c-0.08-0.13-0.04-0.8-0.02-0.96c0.02-0.16-0.02-0.49,0.14-0.66c0.16-0.16,0.12-0.2,0.13-0.37   c0.03-0.28-0.06-1.6-0.1-2.22c-0.02-0.37-0.14-0.86-0.15-1.02c-0.02-0.32-0.13-0.77,0.06-1.33c0.2-0.56,0.48-1.16,0.48-1.45   c0-0.15,0-0.23-0.02-0.55c-0.02-0.31-0.17-0.98-0.17-1.13c0.02-0.4,0.08-0.34,0.14-0.7c0.06-0.36,0.16-4.4,0.14-4.56   c-0.02-0.16-0.16,0.02-0.16,0.02s0.02,0.45-0.77,2.03c-0.19,0.37-1,2.33-1.12,2.56c-0.12,0.24-0.53,1.54-0.6,1.73   c-0.06,0.16,0.19,0.49,0.37,0.92c0.18,0.44,0.4,0.71,0.42,1.36c0.02,0.65-0.04,2.4,0.02,2.67c0.06,0.27,0.11,0.52,0.27,0.78   c0.16,0.25,0.3,0.57,0.2,0.79c-0.1,0.22-0.48,0.25-0.63,0.33c-0.16,0.07-0.82,0.71-0.92,1c-0.1,0.29-0.22,0.4-0.4,0.49   c-0.18,0.09-0.79,0.33-1.06,0.38c-0.28,0.05-0.37,0.03-0.59-0.15c-0.22-0.18,0.05-0.31,0.23-0.6c0.08-0.13,0.1-0.37,0.2-0.51   c0.12-0.17,0.44-0.37,0.52-0.48c0.14-0.2,0.37-0.55,0.49-0.64c0.12-0.09,0.32-0.45,0.36-0.63c0.08-0.41,0.03-0.39-0.09-0.74   c-0.11-0.31-0.77-1.36-1.19-2.46c-0.11-0.29-0.21-1.13-0.27-1.69c-0.06-0.56-0.34-0.65-0.34-0.94c0-0.29,0.22-0.56,0.24-0.85   c0.02-0.29,0.12-2.68,0.3-3.44c0.18-0.76,0.86-3,1.1-3.55c0.06-0.15,0.27-1.36,0.25-2.07c-0.02-0.71,0.02-1.73-0.14-2.38   c-0.12-0.47-0.19-0.81-0.21-0.99c-0.01-0.07-0.02,0-0.02,0l-0.2,1.15c0,0-0.15,0.42-0.23,1.03c-0.08,0.62-0.02,0.96-0.56,1.81   c-0.42,0.67-0.76,1.63-0.72,1.81c0.04,0.18,0.06,0.17,0.14,0.46c0.08,0.29,0.02,0.43,0.05,0.72c0.04,0.39,0.01,0.13,0.04,0.4   c0.02,0.17-0.13,0.17-0.23,0.15c-0.1-0.02-0.17,0.1-0.11,0.42c0.03,0.16,0.12,0.48,0.14,0.54c0.04,0.13-0.09,0.24-0.18,0.19   c-0.13-0.06-0.35-0.25-0.47-0.38c-0.09-0.1-0.15-0.27-0.3-0.46c-0.08-0.1-0.34-0.92-0.34-1.23c0-0.31,0.1-0.29,0.2-0.73   c0.1-0.43,0.06-2.16,0.24-3.26c0.18-1.11,0.75-1.56,0.87-2.34c0.12-0.78-0.06-3.08,0.44-3.84c0.4-0.61,0.63-0.58,1.21-0.77   c0.42-0.14,1.02-0.39,1.24-0.49c0.45-0.2,1.05-0.38,1.05-1.03c0-0.65-0.03-0.83-0.21-0.96c-0.18-0.13-0.23,0-0.32-0.39   c-0.09-0.39-0.05-0.52-0.02-0.57c0.04-0.05,0.04-0.07,0.11-0.06c0.1,0,0.08-0.06,0.06-0.31c-0.03-0.38-0.04-0.74,0.3-1.03   c0.34-0.29,0.78-0.47,1.21-0.47c0.44,0,0.91,0.14,1.19,0.4c0.28,0.25,0.4,0.46,0.43,0.69c0.05,0.37,0.01,0.83,0.01,0.83   c0.09-0.03,0.17-0.01,0.18,0.12c0.02,0.22-0.03,0.37-0.12,0.57c-0.1,0.2-0.13,0.16-0.27,0.23c-0.14,0.07-0.13,0.27-0.15,0.43   c-0.02,0.16-0.05,1.12,0.01,1.27c0.06,0.14,0.62,0.33,1.31,0.53c0.7,0.2,1.29,0.43,1.57,0.62c0.28,0.18,0.38,0.33,0.47,0.58   c0.1,0.25,0.12,0.45,0.18,0.71c0.06,0.25-0.02,0.2,0.12,0.71c0.14,0.51,0.16,1.32,0.14,1.76c-0.02,0.44,0.04,0.69,0.1,0.91   c0.06,0.22,0.42,0.94,0.54,1.43c0.12,0.49,0.25,1.1,0.28,1.79c0.02,0.69,0.14,1.25,0.22,1.63c0.08,0.38,0.3,1.16,0.3,1.25   C191.39,18,191.1,18.83,191.04,18.94z M198.93,18.69l-0.05-0.27c-0.09-0.42-0.16-0.72-0.33-0.93c-0.25-0.31-0.6-0.32-0.86-0.32   h-0.46v2.6h-1.56v-6.18h2.83c0.45,0,1.01,0,1.44,0.29c0.59,0.4,0.6,1.07,0.6,1.3c0,1.31-0.94,1.49-1.28,1.55   c0.8,0.16,0.99,0.56,1.19,1.48l0.09,0.35c0.18,0.84,0.23,0.99,0.44,1.22h-1.64C199.12,19.58,199.11,19.55,198.93,18.69z"
   id="path82" />
	<path
   class="st1"
   d="M197.78,14.42h-0.54v1.94h0.47c0.31,0,0.71,0,0.95-0.18c0.12-0.1,0.31-0.33,0.31-0.82   c0-0.17-0.02-0.32-0.08-0.46C198.69,14.43,198.27,14.43,197.78,14.42z"
   id="path84" />
</g>
</svg>
