<?xml version="1.0" encoding="UTF-8" standalone="no"?>
<svg
   xmlns:dc="http://purl.org/dc/elements/1.1/"
   xmlns:cc="http://creativecommons.org/ns#"
   xmlns:rdf="http://www.w3.org/1999/02/22-rdf-syntax-ns#"
   xmlns:svg="http://www.w3.org/2000/svg"
   xmlns="http://www.w3.org/2000/svg"
   xmlns:xlink="http://www.w3.org/1999/xlink"
   xmlns:sodipodi="http://sodipodi.sourceforge.net/DTD/sodipodi-0.dtd"
   xmlns:inkscape="http://www.inkscape.org/namespaces/inkscape"
   width="217px"
   height="29px"
   viewBox="0 0 217 29"
   version="1.1"
   id="svg12"
   sodipodi:docname="logo.svg"
   inkscape:version="0.92.3 (2405546, 2018-03-11)"
   inkscape:export-filename="C:\Users\monika\farbenweg\site-farbenweg\static\images\logo.png"
   inkscape:export-xdpi="599.992"
   inkscape:export-ydpi="599.992">
  <metadata
     id="metadata16">
    <rdf:RDF>
      <cc:Work
         rdf:about="">
        <dc:format>image/svg+xml</dc:format>
        <dc:type
           rdf:resource="http://purl.org/dc/dcmitype/StillImage" />
        <dc:title>logo</dc:title>
      </cc:Work>
    </rdf:RDF>
  </metadata>
  <sodipodi:namedview
     pagecolor="#ffffff"
     bordercolor="#666666"
     borderopacity="1"
     objecttolerance="10"
     gridtolerance="10"
     guidetolerance="10"
     inkscape:pageopacity="0"
     inkscape:pageshadow="2"
     inkscape:window-width="1920"
     inkscape:window-height="1001"
     id="namedview14"
     showgrid="false"
     inkscape:zoom="11.496188"
     inkscape:cx="12.005679"
     inkscape:cy="-1.2415219"
     inkscape:window-x="-9"
     inkscape:window-y="-9"
     inkscape:window-maximized="1"
     inkscape:current-layer="svg12"
     showguides="false"
     inkscape:pagecheckerboard="true" />
  <!-- Generator: Sketch 51.3 (57544) - http://www.bohemiancoding.com/sketch -->
  <title
     id="title2">logo</title>
  <desc
     id="desc4">Created with Sketch.</desc>
  <defs
     id="defs6">
    <linearGradient
       inkscape:collect="always"
       id="linearGradient1031">
      <stop
         style="stop-color:#000000;stop-opacity:1"
         offset="0"
         id="stop1027" />
      <stop
         style="stop-color:#000000;stop-opacity:0.99511003"
         offset="1"
         id="stop1029" />
    </linearGradient>
    <linearGradient
       id="linearGradient1009"
       inkscape:collect="always">
      <stop
         id="stop1005"
         offset="0"
         style="stop-color:#ff7474;stop-opacity:1" />
      <stop
         id="stop1007"
         offset="1"
         style="stop-color:#000000;stop-opacity:0.99511003" />
    </linearGradient>
    <linearGradient
       inkscape:collect="always"
       id="linearGradient991">
      <stop
         style="stop-color:#162b91;stop-opacity:1"
         offset="0"
         id="stop987" />
      <stop
         style="stop-color:#000000;stop-opacity:0.99511003"
         offset="1"
         id="stop989" />
    </linearGradient>
    <linearGradient
       inkscape:collect="always"
       id="linearGradient983">
      <stop
         style="stop-color:#162b91;stop-opacity:0"
         offset="0"
         id="stop979" />
      <stop
         style="stop-color:#162b91;stop-opacity:1"
         offset="1"
         id="stop981" />
    </linearGradient>
    <linearGradient
       id="linearGradient947"
       inkscape:collect="always">
      <stop
         id="stop943"
         offset="0"
         style="stop-color:#ff7474;stop-opacity:1" />
      <stop
         id="stop945"
         offset="1"
         style="stop-color:#ffaaaa;stop-opacity:0;" />
    </linearGradient>
    <linearGradient
       inkscape:collect="always"
       id="linearGradient931">
      <stop
         style="stop-color:#ffaaaa;stop-opacity:1;"
         offset="0"
         id="stop927" />
      <stop
         style="stop-color:#ffaaaa;stop-opacity:0;"
         offset="1"
         id="stop929" />
    </linearGradient>
    <clipPath
       clipPathUnits="userSpaceOnUse"
       id="clipPath1127">
      <rect
         style="display:inline;fill:none;fill-opacity:1;stroke:#808080;stroke-width:0.09999999;stroke-linecap:round;stroke-linejoin:round;stroke-miterlimit:4;stroke-dasharray:none;stroke-opacity:1"
         id="rect1129"
         width="33.381001"
         height="33.381001"
         x="162.687"
         y="350.97299" />
    </clipPath>
    <clipPath
       clipPathUnits="userSpaceOnUse"
       id="clipPath931">
      <rect
         style="opacity:0.98999999;fill:none;fill-opacity:1;stroke:#000000;stroke-width:0.30000001;stroke-miterlimit:4;stroke-dasharray:none"
         id="rect933"
         width="28.299999"
         height="28.299999"
         x="-0.070999995"
         y="0.31000075" />
    </clipPath>
    <clipPath
       clipPathUnits="userSpaceOnUse"
       id="clipPath931-9">
      <rect
         style="opacity:0.98999999;fill:none;fill-opacity:1;stroke:#000000;stroke-width:0.30000001;stroke-miterlimit:4;stroke-dasharray:none"
         id="rect933-2"
         width="28.299999"
         height="28.299999"
         x="-0.070999995"
         y="0.31000075" />
    </clipPath>
    <clipPath
       clipPathUnits="userSpaceOnUse"
       id="clipPath931-1">
      <rect
         style="opacity:0.98999999;fill:none;fill-opacity:1;stroke:#000000;stroke-width:0.30000001;stroke-miterlimit:4;stroke-dasharray:none"
         id="rect933-4"
         width="28.299999"
         height="28.299999"
         x="-0.070999995"
         y="0.31000075" />
    </clipPath>
    <clipPath
       clipPathUnits="userSpaceOnUse"
       id="clipPath931-1-1">
      <rect
         style="opacity:0.98999999;fill:none;fill-opacity:1;stroke:#000000;stroke-width:0.30000001;stroke-miterlimit:4;stroke-dasharray:none"
         id="rect933-4-8"
         width="28.299999"
         height="28.299999"
         x="-0.070999995"
         y="0.31000075" />
    </clipPath>
    <radialGradient
       inkscape:collect="always"
       xlink:href="#linearGradient1009"
       id="radialGradient1003-8-9"
       cx="39.886032"
       cy="65.180832"
       fx="39.886032"
       fy="65.180832"
       r="8.8545637"
       gradientTransform="matrix(1.0223072,-0.03708011,0.0301729,0.9268374,-2.8072434,-0.98773384)"
       gradientUnits="userSpaceOnUse" />
    <radialGradient
       inkscape:collect="always"
       xlink:href="#linearGradient991"
       id="radialGradient995-7-1"
       cx="32.489628"
       cy="48.642868"
       fx="32.489628"
       fy="48.642868"
       r="4.2759953"
       gradientTransform="matrix(1.706974,-0.1956862,0.14124221,1.2378102,-29.936958,-5.6666746)"
       gradientUnits="userSpaceOnUse" />
    <radialGradient
       inkscape:collect="always"
       xlink:href="#linearGradient1009"
       id="radialGradient1035-8-6"
       cx="39.573723"
       cy="59.588112"
       fx="39.573723"
       fy="59.588112"
       r="6.5018568"
       gradientTransform="matrix(0.44663591,-1.1205791,0.91097794,0.40454333,-32.513885,78.443768)"
       gradientUnits="userSpaceOnUse" />
    <linearGradient
       inkscape:collect="always"
       xlink:href="#linearGradient983"
       id="linearGradient4984"
       gradientUnits="userSpaceOnUse"
       x1="23.517952"
       y1="-1.1444203"
       x2="22.942295"
       y2="17.738516"
       gradientTransform="matrix(1.044481,0,0,1.024734,0.07416,-0.31763972)" />
    <linearGradient
       inkscape:collect="always"
       xlink:href="#linearGradient947"
       id="linearGradient4986"
       gradientUnits="userSpaceOnUse"
       x1="0.04743693"
       y1="17.023939"
       x2="41.363289"
       y2="5.7382669"
       gradientTransform="matrix(1.044481,0,0,1.024734,0.07416,-0.31763972)" />
    <linearGradient
       inkscape:collect="always"
       xlink:href="#linearGradient931"
       id="linearGradient4988"
       gradientUnits="userSpaceOnUse"
       x1="14.639366"
       y1="6.5214276"
       x2="34.103988"
       y2="6.5214276"
       gradientTransform="matrix(1.044481,0,0,1.024734,0.07416,-0.31763972)" />
    <linearGradient
       inkscape:collect="always"
       xlink:href="#linearGradient1031"
       id="linearGradient4990"
       gradientUnits="userSpaceOnUse"
       x1="44.777443"
       y1="70.820595"
       x2="60.013905"
       y2="71.552963" />
  </defs>
  <path
     style="display:inline;opacity:1;fill:url(#linearGradient4984);fill-opacity:1;stroke:none;stroke-width:0;stroke-linecap:butt;stroke-linejoin:miter;stroke-miterlimit:4;stroke-dasharray:none;stroke-opacity:1"
     d="M 29.074794,16.030581 C 31.581884,11.32995 12.478436,7.787156 26.284661,1.263506 8.8095182,5.3655927 22.276488,12.944323 21.007136,15.38978 18.78171,19.677171 14.85187,20.677094 5.1723215,27.119161 c 7.7362265,-0.867356 8.4616195,2.87337 12.2017095,1.25092 0.628326,-0.272567 0.321324,-0.756711 1.220971,-1.629034 1.847869,-1.728678 3.841045,-3.231136 5.685639,-4.889003 1.844594,-1.657868 3.540607,-3.471146 4.794153,-5.821463 z"
     id="path4524-5-8-9-0-6-7-2-8-9-0-0-1-0"
     inkscape:connector-curvature="0"
     sodipodi:nodetypes="scscscss"
     inkscape:export-filename="C:\Users\monika\farbenweg\blog-lithium\static\images\logo01.png"
     inkscape:export-xdpi="599.992"
     inkscape:export-ydpi="599.992" />
  <path
     style="display:inline;fill:url(#linearGradient4986);fill-opacity:1;stroke:none;stroke-width:0;stroke-linecap:round;stroke-linejoin:miter;stroke-miterlimit:4;stroke-dasharray:none;stroke-opacity:1"
     d="m 0.12719718,27.282664 c 0.77788567,0.07363 1.03414922,-0.02201 2.60382112,0.200578 1.5696721,0.22254 2.7108118,1.251559 4.073094,0.953281 0.9445874,-0.206822 0.3957341,-0.727098 2.2697932,-1.77635 1.8740585,-1.049253 4.3426905,-2.482601 6.7209985,-4.018995 1.621561,-1.128153 10.583622,-5.989733 8.789829,-8.250307 -4.558008,-6.0184436 -8.342868,-4.9414258 -9.123299,-8.626458 -1.183944,2.4264043 2.532178,5.280432 3.320946,7.873955 1.228406,4.039094 -10.2440317,7.482356 -18.65867303,12.483376"
     id="path4524-5-8-4-6-1-1-1-1-3-7-2-7-7-1"
     inkscape:connector-curvature="0"
     sodipodi:nodetypes="cssscccsc"
     inkscape:export-filename="C:\Users\monika\farbenweg\blog-lithium\static\images\logo01.png"
     inkscape:export-xdpi="599.992"
     inkscape:export-ydpi="599.992" />
  <path
     style="display:inline;fill:url(#linearGradient4988);fill-opacity:1;stroke:#ffff00;stroke-width:0;stroke-linecap:butt;stroke-linejoin:miter;stroke-miterlimit:4;stroke-dasharray:none;stroke-opacity:1"
     d="m 15.366219,6.355875 c 0.109993,2.4440399 6.204371,4.913727 9.249685,8.076077 C 20.803914,9.338487 18.614774,7.6657818 18.605172,6.7179565 18.578694,4.1072517 23.903749,2.1206653 35.695127,-1.7017742 20.04831,1.4853633 15.266594,4.1421432 15.366219,6.355875 Z"
     id="path4524-5-8-4-2-0-2-5-0-1-8-9-1-9-4-81"
     inkscape:connector-curvature="0"
     sodipodi:nodetypes="scscs"
     inkscape:export-filename="C:\Users\monika\farbenweg\blog-lithium\static\images\logo01.png"
     inkscape:export-xdpi="599.992"
     inkscape:export-ydpi="599.992" />
  <g
     transform="matrix(1.0157327,0,0,0.88082998,-76.823848,-308.30064)"
     id="g1081-2-7-4-2-1"
     style="display:inline;fill:#000000;fill-opacity:1;stroke-width:3.99578094">
    <g
       style="fill:#000000;fill-opacity:1;stroke-width:8.55381966"
       transform="matrix(0.45121061,0,0,0.48361995,68.236003,334.45486)"
       inkscape:export-ydpi="599.992"
       inkscape:export-xdpi="599.992"
       inkscape:export-filename="C:\Users\monika\farbenweg\blog-lithium\static\images\logo01.png"
       id="g856-8-5-7-2-1-1-0-1-3-2">
      <path
         style="fill:#000000;fill-opacity:1;stroke:#000000;stroke-width:0;stroke-linecap:butt;stroke-linejoin:miter;stroke-miterlimit:4;stroke-dasharray:none;stroke-opacity:1"
         d="m 37.60348,48.370783 c 5.326257,7.181083 12.186522,11.770491 15.72752,11.680558 3.540998,-0.08994 1.751015,4.869637 -1.685691,4.003635 C 48.208603,63.188974 40.125072,60.58814 37.9907,55.330229"
         id="path4607-8-4-0-7-6-4-4-9-9-7-7-8-6"
         inkscape:connector-curvature="0"
         sodipodi:nodetypes="czzc" />
      <path
         style="fill:url(#linearGradient4990);fill-opacity:1;stroke:#000000;stroke-width:0;stroke-linecap:butt;stroke-linejoin:miter;stroke-miterlimit:4;stroke-dasharray:none;stroke-opacity:1"
         d="m 38.74539,64.699832 c 2.96911,3.762299 6.926111,5.1548 10.742231,6.600206 2.800479,1.06072 4.840247,1.420709 8.699708,1.437422 2.136277,0.0093 2.433522,4.080215 0.707551,4.87843 -5.543672,2.563799 -16.90226,-1.762894 -20.26283,-3.726534"
         id="path4607-1-8-1-6-0-8-5-3-6-3-7-8"
         inkscape:connector-curvature="0"
         sodipodi:nodetypes="cassc" />
      <path
         style="fill:url(#radialGradient1003-8-9);fill-opacity:1;stroke:#000000;stroke-width:0;stroke-linecap:butt;stroke-linejoin:miter;stroke-miterlimit:4;stroke-dasharray:none;stroke-opacity:1"
         d="m 25.320883,89.445994 c 1.712411,-0.867853 12.110286,-27.875212 12.640515,-43.801752 1.911496,3.134568 3.886673,7.073736 4.264431,11.339793 0.377759,4.266057 -0.841903,8.859003 -1.675509,13.301128 -1.667214,8.88425 -5.434785,17.165214 -10.013222,21.021205 -1.31848,0.930137 -2.824426,2.450937 -4.176018,1.765475 -1.07836,-0.546893 -2.749574,-2.060937 -1.040197,-3.625849 z"
         id="path4601-8-2-9-08-5-5-0-4-5-6-2-3"
         inkscape:connector-curvature="0"
         sodipodi:nodetypes="ccsscac" />
      <ellipse
         style="fill:url(#radialGradient995-7-1);fill-opacity:1;stroke:#000000;stroke-width:0;stroke-linecap:round;stroke-linejoin:round;stroke-miterlimit:4;stroke-dasharray:none;stroke-opacity:1"
         id="path4603-1-0-9-1-6-5-9-0-3-9-1-9"
         transform="rotate(-8.1226391)"
         cy="50.389256"
         cx="32.278233"
         ry="5.3393188"
         rx="4.2759948" />
      <path
         style="fill:url(#radialGradient1035-8-6);fill-opacity:1;stroke:#000000;stroke-width:0;stroke-linecap:butt;stroke-linejoin:miter;stroke-miterlimit:4;stroke-dasharray:none;stroke-opacity:1"
         d="m 38.946992,52.244332 c -3.358898,4.025398 -5.26204,6.849428 -6.730255,9.334887 -1.468214,2.485459 -2.501502,4.632346 -4.120692,7.303455 -3.23838,5.342219 1.175816,5.797417 2.40261,3.785848 3.289371,-5.393575 8.283743,-11.66018 9.436575,-14.7232"
         id="path4607-8-9-9-3-7-3-4-0-4-1-4-3-2-9"
         inkscape:connector-curvature="0"
         sodipodi:nodetypes="csssc" />
    </g>
  </g>
  <g
     aria-label="farbenweg.ch"
     transform="scale(1.0095892,0.99050187)"
     style="font-style:normal;font-weight:normal;font-size:12.81412697px;line-height:1;font-family:sans-serif;letter-spacing:0px;word-spacing:0px;fill:#162b91;fill-opacity:1;stroke:none;stroke-width:1.00000012"
     id="text4798">
    <path
       d="m 40.395449,19.868649 h -1.789118 v 6.149267 H 37.042509 V 19.868649 H 35.83651 v -0.7289 l 1.205999,-0.477098 v -0.477098 q 0,-1.298768 0.609625,-1.921646 0.609626,-0.629505 1.862009,-0.629505 0.821669,0 1.616833,0.271681 l -0.410835,1.179493 q -0.576494,-0.185538 -1.099976,-0.185538 -0.53011,0 -0.775285,0.331318 -0.238549,0.324692 -0.238549,0.980702 v 0.477098 h 1.789118 z"
       style="font-style:normal;font-variant:normal;font-weight:600;font-stretch:normal;font-size:13.57079506px;font-family:'Open Sans';-inkscape-font-specification:'Open Sans, Semi-Bold';font-variant-ligatures:normal;font-variant-caps:normal;font-variant-numeric:normal;font-feature-settings:normal;text-align:start;writing-mode:lr-tb;text-anchor:start;fill:#162b91;fill-opacity:1;stroke-width:1.00000012"
       id="path4855" />
    <path
       d="m 46.233277,26.017916 -0.311439,-1.02046 h -0.05301 q -0.530109,0.669262 -1.066845,0.914438 -0.536736,0.238549 -1.378284,0.238549 -1.080097,0 -1.689723,-0.58312 -0.602999,-0.58312 -0.602999,-1.649965 0,-1.133108 0.841548,-1.709602 0.841549,-0.576494 2.564403,-0.629505 l 1.265636,-0.03976 v -0.390955 q 0,-0.702395 -0.331318,-1.046966 -0.324692,-0.351197 -1.013834,-0.351197 -0.563241,0 -1.080097,0.165659 -0.516857,0.165659 -0.993955,0.390955 L 41.879755,19.19276 q 0.596373,-0.311439 1.305394,-0.470472 0.709021,-0.165659 1.338526,-0.165659 1.398163,0 2.107184,0.609626 0.715647,0.609625 0.715647,1.915019 v 4.936642 z m -2.319228,-1.060219 q 0.848175,0 1.358405,-0.470472 0.516856,-0.477098 0.516856,-1.331899 v -0.636131 l -0.940943,0.03976 q -1.099977,0.03976 -1.603581,0.371077 -0.496977,0.324692 -0.496977,1.000581 0,0.490351 0.29156,0.762032 0.29156,0.265054 0.87468,0.265054 z"
       style="font-style:normal;font-variant:normal;font-weight:600;font-stretch:normal;font-size:13.57079506px;font-family:'Open Sans';-inkscape-font-specification:'Open Sans, Semi-Bold';font-variant-ligatures:normal;font-variant-caps:normal;font-variant-numeric:normal;font-feature-settings:normal;text-align:start;writing-mode:lr-tb;text-anchor:start;fill:#162b91;fill-opacity:1;stroke-width:1.00000012"
       id="path4857" />
    <path
       d="m 53.237345,18.556629 q 0.470472,0 0.775285,0.06626 l -0.152407,1.451174 q -0.331318,-0.07952 -0.689142,-0.07952 -0.934317,0 -1.517437,0.609626 -0.576494,0.609625 -0.576494,1.583701 v 3.830039 h -1.557196 v -7.32876 h 1.219251 l 0.205418,1.292141 h 0.07952 q 0.36445,-0.65601 0.94757,-1.040339 0.589747,-0.384329 1.265636,-0.384329 z"
       style="font-style:normal;font-variant:normal;font-weight:600;font-stretch:normal;font-size:13.57079506px;font-family:'Open Sans';-inkscape-font-specification:'Open Sans, Semi-Bold';font-variant-ligatures:normal;font-variant-caps:normal;font-variant-numeric:normal;font-feature-settings:normal;text-align:start;writing-mode:lr-tb;text-anchor:start;fill:#162b91;fill-opacity:1;stroke-width:1.00000012"
       id="path4859" />
    <path
       d="m 59.121556,18.556629 q 1.371658,0 2.13369,0.993955 0.768658,0.993954 0.768658,2.789699 0,1.802371 -0.775285,2.809579 -0.775284,1.000581 -2.153568,1.000581 -1.391537,0 -2.160195,-1.000581 H 56.828834 L 56.5439,26.017916 H 55.37766 V 15.707292 h 1.557196 v 2.451755 q 0,0.271681 -0.02651,0.808417 -0.02651,0.536735 -0.03976,0.682515 h 0.06626 q 0.742153,-1.09335 2.1867,-1.09335 z m -0.404208,1.272262 q -0.940944,0 -1.358405,0.556615 -0.410834,0.549988 -0.424087,1.848755 v 0.106022 q 0,1.338526 0.424087,1.941525 0.424088,0.596373 1.384911,0.596373 0.828295,0 1.252383,-0.65601 0.430713,-0.65601 0.430713,-1.89514 0,-2.49814 -1.709602,-2.49814 z"
       style="font-style:normal;font-variant:normal;font-weight:600;font-stretch:normal;font-size:13.57079506px;font-family:'Open Sans';-inkscape-font-specification:'Open Sans, Semi-Bold';font-variant-ligatures:normal;font-variant-caps:normal;font-variant-numeric:normal;font-feature-settings:normal;text-align:start;writing-mode:lr-tb;text-anchor:start;fill:#162b91;fill-opacity:1;stroke-width:1.00000012"
       id="path4861" />
    <path
       d="m 67.033437,26.150443 q -1.709602,0 -2.677052,-0.993955 -0.960823,-1.000581 -0.960823,-2.749941 0,-1.795745 0.89456,-2.822831 0.894559,-1.027087 2.458381,-1.027087 1.451174,0 2.292722,0.881307 0.841548,0.881306 0.841548,2.425249 v 0.841548 h -4.88363 q 0.03313,1.066845 0.576493,1.643339 0.543362,0.569867 1.530691,0.569867 0.649383,0 1.205998,-0.119274 0.563241,-0.125901 1.205998,-0.410835 v 1.265636 q -0.569867,0.271681 -1.152987,0.384329 -0.58312,0.112648 -1.331899,0.112648 z m -0.284934,-6.414321 q -0.742153,0 -1.192746,0.470472 -0.443966,0.470472 -0.530109,1.371657 h 3.326435 q -0.01325,-0.907812 -0.43734,-1.371657 -0.424087,-0.470472 -1.16624,-0.470472 z"
       style="font-style:normal;font-variant:normal;font-weight:600;font-stretch:normal;font-size:13.57079506px;font-family:'Open Sans';-inkscape-font-specification:'Open Sans, Semi-Bold';font-variant-ligatures:normal;font-variant-caps:normal;font-variant-numeric:normal;font-feature-settings:normal;text-align:start;writing-mode:lr-tb;text-anchor:start;fill:#162b91;fill-opacity:1;stroke-width:1.00000012"
       id="path4863" />
    <path
       d="m 78.099466,26.017916 h -1.563822 v -4.505928 q 0,-0.848175 -0.344571,-1.265636 -0.337944,-0.417461 -1.080097,-0.417461 -0.987329,0 -1.444548,0.58312 -0.457219,0.58312 -0.457219,1.954778 v 3.651127 h -1.557196 v -7.32876 h 1.219251 l 0.21867,0.960823 h 0.07952 q 0.331318,-0.523483 0.940944,-0.808416 0.609625,-0.284934 1.351778,-0.284934 2.637293,0 2.637293,2.683678 z"
       style="font-style:normal;font-variant:normal;font-weight:600;font-stretch:normal;font-size:13.57079506px;font-family:'Open Sans';-inkscape-font-specification:'Open Sans, Semi-Bold';font-variant-ligatures:normal;font-variant-caps:normal;font-variant-numeric:normal;font-feature-settings:normal;text-align:start;writing-mode:lr-tb;text-anchor:start;fill:#162b91;fill-opacity:1;stroke-width:1.00000012"
       id="path4865" />
    <path
       d="m 86.276399,26.017916 -0.94757,-3.419204 Q 85.156544,22.05535 84.705951,20.074067 h -0.05964 q -0.384329,1.789118 -0.609625,2.537897 l -0.974076,3.405952 h -1.722855 l -2.054173,-7.32876 h 1.590328 l 0.934317,3.611369 q 0.318066,1.338526 0.450593,2.292722 h 0.03976 q 0.06626,-0.483724 0.198791,-1.106603 0.139154,-0.629504 0.238549,-0.940943 l 1.11323,-3.856545 h 1.709602 l 1.080097,3.856545 q 0.0994,0.324691 0.245176,0.993954 0.152406,0.669263 0.178912,1.04034 h 0.05301 q 0.0994,-0.815043 0.463845,-2.27947 l 0.94757,-3.611369 h 1.563822 l -2.067425,7.32876 z"
       style="font-style:normal;font-variant:normal;font-weight:600;font-stretch:normal;font-size:13.57079506px;font-family:'Open Sans';-inkscape-font-specification:'Open Sans, Semi-Bold';font-variant-ligatures:normal;font-variant-caps:normal;font-variant-numeric:normal;font-feature-settings:normal;text-align:start;writing-mode:lr-tb;text-anchor:start;fill:#162b91;fill-opacity:1;stroke-width:1.00000012"
       id="path4867" />
    <path
       d="m 94.546101,26.150443 q -1.709602,0 -2.677051,-0.993955 -0.960823,-1.000581 -0.960823,-2.749941 0,-1.795745 0.894559,-2.822831 0.89456,-1.027087 2.458382,-1.027087 1.451174,0 2.292722,0.881307 0.841548,0.881306 0.841548,2.425249 v 0.841548 h -4.883631 q 0.03313,1.066845 0.576494,1.643339 0.543362,0.569867 1.53069,0.569867 0.649384,0 1.205999,-0.119274 0.563241,-0.125901 1.205998,-0.410835 v 1.265636 q -0.569867,0.271681 -1.152987,0.384329 -0.58312,0.112648 -1.3319,0.112648 z m -0.284933,-6.414321 q -0.742153,0 -1.192746,0.470472 -0.443966,0.470472 -0.530109,1.371657 h 3.326435 q -0.01325,-0.907812 -0.43734,-1.371657 -0.424087,-0.470472 -1.16624,-0.470472 z"
       style="font-style:normal;font-variant:normal;font-weight:600;font-stretch:normal;font-size:13.57079506px;font-family:'Open Sans';-inkscape-font-specification:'Open Sans, Semi-Bold';font-variant-ligatures:normal;font-variant-caps:normal;font-variant-numeric:normal;font-feature-settings:normal;text-align:start;writing-mode:lr-tb;text-anchor:start;fill:#162b91;fill-opacity:1;stroke-width:1.00000012"
       id="path4869" />
    <path
       d="m 105.3537,18.689156 v 0.854801 l -1.25238,0.231923 q 0.17229,0.231923 0.28493,0.569867 0.11265,0.337945 0.11265,0.715648 0,1.133108 -0.78191,1.782492 -0.78191,0.649384 -2.15357,0.649384 -0.3512,0 -0.63613,-0.05301 -0.5036,0.311439 -0.5036,0.7289 0,0.251802 0.23192,0.377703 0.23855,0.125901 0.86805,0.125901 h 1.27889 q 1.21263,0 1.84213,0.516856 0.62951,0.516857 0.62951,1.490932 0,1.245757 -1.02709,1.921646 -1.02709,0.675889 -2.96861,0.675889 -1.49756,0 -2.286097,-0.530109 -0.788538,-0.530109 -0.788538,-1.510811 0,-0.675889 0.424088,-1.139735 0.430713,-0.457219 1.199372,-0.636131 -0.31144,-0.132527 -0.516857,-0.424087 -0.198791,-0.298187 -0.198791,-0.622879 0,-0.410834 0.231923,-0.695768 0.231923,-0.284934 0.68914,-0.563241 -0.569865,-0.245175 -0.927689,-0.795164 -0.351198,-0.556614 -0.351198,-1.298767 0,-1.192746 0.74878,-1.848756 0.755407,-0.65601 2.146937,-0.65601 0.31144,0 0.64939,0.04639 0.34457,0.03976 0.51686,0.08614 z m -5.758308,8.468494 q 0,0.503604 0.450588,0.775285 0.45722,0.271681 1.27889,0.271681 1.27227,0 1.89514,-0.36445 0.62288,-0.36445 0.62288,-0.967449 0,-0.477098 -0.34457,-0.682516 -0.33794,-0.198791 -1.26564,-0.198791 h -1.17949 q -0.66926,0 -1.066843,0.311439 -0.390955,0.318066 -0.390955,0.854801 z m 0.669258,-6.096255 q 0,0.689142 0.3512,1.060218 0.35783,0.371077 1.02046,0.371077 1.35178,0 1.35178,-1.444548 0,-0.715647 -0.33794,-1.099976 -0.33132,-0.390956 -1.01384,-0.390956 -0.67589,0 -1.02708,0.384329 -0.34458,0.384329 -0.34458,1.119856 z"
       style="font-style:normal;font-variant:normal;font-weight:600;font-stretch:normal;font-size:13.57079506px;font-family:'Open Sans';-inkscape-font-specification:'Open Sans, Semi-Bold';font-variant-ligatures:normal;font-variant-caps:normal;font-variant-numeric:normal;font-feature-settings:normal;text-align:start;writing-mode:lr-tb;text-anchor:start;fill:#162b91;fill-opacity:1;stroke-width:1.00000012"
       id="path4871" />
    <path
       d="m 106.48681,25.18962 q 0,-0.483724 0.2518,-0.742153 0.2518,-0.258428 0.7289,-0.258428 0.48373,0 0.73553,0.271681 0.2518,0.265055 0.2518,0.7289 0,0.470472 -0.25843,0.748779 -0.2518,0.271681 -0.7289,0.271681 -0.4771,0 -0.7289,-0.271681 -0.2518,-0.271681 -0.2518,-0.748779 z"
       style="font-style:normal;font-variant:normal;font-weight:600;font-stretch:normal;font-size:13.57079506px;font-family:'Open Sans';-inkscape-font-specification:'Open Sans, Semi-Bold';font-variant-ligatures:normal;font-variant-caps:normal;font-variant-numeric:normal;font-feature-settings:normal;text-align:start;writing-mode:lr-tb;text-anchor:start;fill:#162b91;fill-opacity:1;stroke-width:1.00000012"
       id="path4873" />
    <path
       d="m 113.41137,26.150443 q -1.66322,0 -2.53128,-0.967449 -0.86142,-0.974076 -0.86142,-2.7897 0,-1.848756 0.90118,-2.84271 0.90781,-0.993955 2.61742,-0.993955 1.15961,0 2.0873,0.430714 l -0.47047,1.252383 q -0.98733,-0.38433 -1.63009,-0.38433 -1.90176,0 -1.90176,2.524645 0,1.232504 0.47047,1.855383 0.4771,0.616252 1.39154,0.616252 1.04033,0 1.96803,-0.516857 v 1.358405 q -0.41747,0.245175 -0.89456,0.351197 -0.47048,0.106022 -1.14636,0.106022 z"
       style="font-style:normal;font-variant:normal;font-weight:600;font-stretch:normal;font-size:13.57079506px;font-family:'Open Sans';-inkscape-font-specification:'Open Sans, Semi-Bold';font-variant-ligatures:normal;font-variant-caps:normal;font-variant-numeric:normal;font-feature-settings:normal;text-align:start;writing-mode:lr-tb;text-anchor:start;fill:#162b91;fill-opacity:1;stroke-width:1.00000012"
       id="path4875" />
    <path
       d="m 123.63584,26.017916 h -1.56382 v -4.505928 q 0,-0.848175 -0.34457,-1.265636 -0.33794,-0.417461 -1.0801,-0.417461 -0.9807,0 -1.44454,0.589746 -0.45722,0.583121 -0.45722,1.961404 v 3.637875 h -1.5572 V 15.707292 h 1.5572 v 2.617414 q 0,0.629505 -0.0795,1.345152 h 0.0994 q 0.31806,-0.530109 0.8813,-0.821669 0.56987,-0.29156 1.32527,-0.29156 2.6638,0 2.6638,2.683678 z"
       style="font-style:normal;font-variant:normal;font-weight:600;font-stretch:normal;font-size:13.57079506px;font-family:'Open Sans';-inkscape-font-specification:'Open Sans, Semi-Bold';font-variant-ligatures:normal;font-variant-caps:normal;font-variant-numeric:normal;font-feature-settings:normal;text-align:start;writing-mode:lr-tb;text-anchor:start;fill:#162b91;fill-opacity:1;stroke-width:1.00000012"
       id="path4877" />
  </g>
  <g
     aria-label="Praxis für Kunsttherapie PTM"
     transform="scale(1.0100651,0.9900352)"
     style="font-style:normal;font-variant:normal;font-weight:bold;font-stretch:normal;font-size:7.47874355px;line-height:1;font-family:'Open Sans';-inkscape-font-specification:'Open Sans, Bold';font-variant-ligatures:normal;font-variant-caps:normal;font-variant-numeric:normal;font-feature-settings:normal;text-align:start;letter-spacing:0px;word-spacing:0px;writing-mode:lr-tb;text-anchor:start;fill:#000000;fill-opacity:1;stroke:none;stroke-width:1"
     id="text4802">
    <path
       d="m 27.355472,6.0257947 h 0.372477 q 0.522197,0 0.78147,-0.2044969 0.259273,-0.2081486 0.259273,-0.6025355 0,-0.3980386 -0.219104,-0.5879286 -0.215452,-0.18989 -0.679222,-0.18989 h -0.514894 z m 2.556211,-0.8472014 q 0,0.8618083 -0.540456,1.3182746 -0.536804,0.4564663 -1.530075,0.4564663 h -0.48568 V 8.8522339 H 26.223436 V 3.5134043 h 1.705358 q 0.97136,0 1.475299,0.4199489 0.50759,0.4162973 0.50759,1.2452401 z"
       style="font-style:normal;font-variant:normal;font-weight:bold;font-stretch:normal;font-size:7.47874355px;font-family:'Open Sans';-inkscape-font-specification:'Open Sans, Bold';font-variant-ligatures:normal;font-variant-caps:normal;font-variant-numeric:normal;font-feature-settings:normal;text-align:start;writing-mode:lr-tb;text-anchor:start;fill:#000000;fill-opacity:1;stroke-width:1"
       id="path4804" />
    <path
       d="m 33.117903,4.6929131 q 0.226407,0 0.376128,0.032866 l -0.08399,1.0443949 q -0.135114,-0.036517 -0.328656,-0.036517 -0.533152,0 -0.832594,0.2738797 -0.29579,0.2738798 -0.29579,0.7668634 V 8.8522339 H 30.839223 V 4.7695995 h 0.84355 l 0.164328,0.6865253 h 0.05478 q 0.18989,-0.3432627 0.511242,-0.5514113 0.325004,-0.2118004 0.704784,-0.2118004 z"
       style="font-style:normal;font-variant:normal;font-weight:bold;font-stretch:normal;font-size:7.47874355px;font-family:'Open Sans';-inkscape-font-specification:'Open Sans, Bold';font-variant-ligatures:normal;font-variant-caps:normal;font-variant-numeric:normal;font-feature-settings:normal;text-align:start;writing-mode:lr-tb;text-anchor:start;fill:#000000;fill-opacity:1;stroke-width:1"
       id="path4806" />
    <path
       d="m 36.835364,8.8522339 -0.215452,-0.555063 h -0.02921 q -0.281183,0.3542178 -0.580625,0.4929836 -0.29579,0.135114 -0.774167,0.135114 -0.587929,0 -0.927539,-0.3359592 -0.33596,-0.3359592 -0.33596,-0.9567533 0,-0.650008 0.452815,-0.9567533 0.456466,-0.3103971 1.373051,-0.3432627 l 0.708435,-0.02191 V 6.1316949 q 0,-0.6207942 -0.635401,-0.6207942 -0.489332,0 -1.150295,0.2957902 L 34.352187,5.0544344 q 0.704784,-0.3688247 1.562941,-0.3688247 0.821639,0 1.259847,0.3578695 0.438207,0.3578696 0.438207,1.0882157 v 2.720539 z m -0.328656,-1.8915963 -0.430904,0.014607 q -0.48568,0.014607 -0.723043,0.1752831 -0.237362,0.1606761 -0.237362,0.4893318 0,0.4710732 0.540456,0.4710732 0.387083,0 0.617142,-0.2227555 0.233711,-0.2227555 0.233711,-0.5915803 z"
       style="font-style:normal;font-variant:normal;font-weight:bold;font-stretch:normal;font-size:7.47874355px;font-family:'Open Sans';-inkscape-font-specification:'Open Sans, Bold';font-variant-ligatures:normal;font-variant-caps:normal;font-variant-numeric:normal;font-feature-settings:normal;text-align:start;writing-mode:lr-tb;text-anchor:start;fill:#000000;fill-opacity:1;stroke-width:1"
       id="path4808" />
    <path
       d="M 39.59242,6.7670959 38.277797,4.7695995 h 1.263499 l 0.792425,1.3000159 0.799729,-1.3000159 h 1.263499 l -1.32923,1.9974964 1.391309,2.085138 h -1.26715 L 40.333721,7.4536212 39.471913,8.8522339 h -1.263499 z"
       style="font-style:normal;font-variant:normal;font-weight:bold;font-stretch:normal;font-size:7.47874355px;font-family:'Open Sans';-inkscape-font-specification:'Open Sans, Bold';font-variant-ligatures:normal;font-variant-caps:normal;font-variant-numeric:normal;font-feature-settings:normal;text-align:start;writing-mode:lr-tb;text-anchor:start;fill:#000000;fill-opacity:1;stroke-width:1"
       id="path4810" />
    <path
       d="m 43.032351,3.7142494 q 0,-0.5441078 0.606187,-0.5441078 0.606187,0 0.606187,0.5441078 0,0.2592729 -0.153373,0.4053421 -0.14972,0.1424175 -0.452814,0.1424175 -0.606187,0 -0.606187,-0.5477596 z m 1.16125,5.1379845 H 43.079823 V 4.7695995 h 1.113778 z"
       style="font-style:normal;font-variant:normal;font-weight:bold;font-stretch:normal;font-size:7.47874355px;font-family:'Open Sans';-inkscape-font-specification:'Open Sans, Bold';font-variant-ligatures:normal;font-variant-caps:normal;font-variant-numeric:normal;font-feature-settings:normal;text-align:start;writing-mode:lr-tb;text-anchor:start;fill:#000000;fill-opacity:1;stroke-width:1"
       id="path4812" />
    <path
       d="m 48.206852,7.6398594 q 0,0.6280976 -0.438208,0.9567534 -0.434556,0.3286557 -1.303668,0.3286557 -0.445511,0 -0.75956,-0.062079 Q 45.391368,8.8047614 45.117488,8.687906 V 7.76767 q 0.310397,0.1460692 0.69748,0.2446659 0.390735,0.098597 0.686526,0.098597 0.606187,0 0.606187,-0.3505661 0,-0.1314622 -0.08034,-0.2118003 -0.08034,-0.08399 -0.277532,-0.1862383 Q 46.552618,7.2564278 46.223962,7.117662 45.752889,6.9204686 45.530133,6.752489 45.31103,6.5845094 45.208781,6.3690573 q -0.0986,-0.2191038 -0.0986,-0.5368043 0,-0.5441078 0.419949,-0.839898 0.423601,-0.2994419 1.197768,-0.2994419 0.737649,0 1.43513,0.3213523 L 47.827072,5.817646 Q 47.520326,5.6861838 47.25375,5.602194 q -0.266576,-0.08399 -0.544108,-0.08399 -0.492983,0 -0.492983,0.2665763 0,0.1497209 0.157024,0.2592728 0.160676,0.1095519 0.697481,0.325004 0.478376,0.1935417 0.701132,0.3615213 0.222755,0.1679796 0.328655,0.3870834 0.105901,0.2191038 0.105901,0.5221974 z"
       style="font-style:normal;font-variant:normal;font-weight:bold;font-stretch:normal;font-size:7.47874355px;font-family:'Open Sans';-inkscape-font-specification:'Open Sans, Bold';font-variant-ligatures:normal;font-variant-caps:normal;font-variant-numeric:normal;font-feature-settings:normal;text-align:start;writing-mode:lr-tb;text-anchor:start;fill:#000000;fill-opacity:1;stroke-width:1"
       id="path4814" />
    <path
       d="M 53.282758,5.6058457 H 52.318701 V 8.8522339 H 51.204923 V 5.6058457 H 50.591432 V 5.0690413 L 51.204923,4.7695995 V 4.4701576 q 0,-0.6974805 0.343263,-1.0188328 0.343262,-0.3213522 1.09917,-0.3213522 0.576974,0 1.026137,0.1716313 l -0.284835,0.8179876 q -0.335959,-0.1059002 -0.620794,-0.1059002 -0.237363,0 -0.343263,0.1424175 -0.1059,0.1387657 -0.1059,0.3578695 v 0.2556212 h 0.964057 z"
       style="font-style:normal;font-variant:normal;font-weight:bold;font-stretch:normal;font-size:7.47874355px;font-family:'Open Sans';-inkscape-font-specification:'Open Sans, Bold';font-variant-ligatures:normal;font-variant-caps:normal;font-variant-numeric:normal;font-feature-settings:normal;text-align:start;writing-mode:lr-tb;text-anchor:start;fill:#000000;fill-opacity:1;stroke-width:1"
       id="path4816" />
    <path
       d="M 56.810329,8.8522339 56.660608,8.3300365 h -0.05843 q -0.178935,0.2848349 -0.507591,0.4418593 -0.328655,0.1533727 -0.748604,0.1533727 -0.719391,0 -1.084564,-0.3834317 -0.365173,-0.3870834 -0.365173,-1.110126 V 4.7695995 h 1.113778 v 2.3845798 q 0,0.4418594 0.157024,0.6646149 0.157024,0.2191038 0.500287,0.2191038 0.467421,0 0.67557,-0.310397 0.208149,-0.3140488 0.208149,-1.0370914 V 4.7695995 h 1.113777 v 4.0826344 z m -2.285984,-5.130681 q 0,-0.2373625 0.135114,-0.365173 0.138766,-0.1278106 0.372477,-0.1278106 0.241014,0 0.376128,0.135114 0.138766,0.135114 0.138766,0.3578696 0,0.2191038 -0.138766,0.3542178 -0.138766,0.1314623 -0.376128,0.1314623 -0.233711,0 -0.372477,-0.1278106 -0.135114,-0.1278105 -0.135114,-0.3578695 z m 1.471648,0 q 0,-0.2556211 0.146069,-0.3724765 0.149721,-0.1205071 0.368825,-0.1205071 0.237362,0 0.376128,0.1314623 0.142417,0.1314623 0.142417,0.3615213 0,0.2227555 -0.142417,0.3542178 -0.142418,0.1314623 -0.376128,0.1314623 -0.219104,0 -0.368825,-0.1168554 -0.146069,-0.1205071 -0.146069,-0.3688247 z"
       style="font-style:normal;font-variant:normal;font-weight:bold;font-stretch:normal;font-size:7.47874355px;font-family:'Open Sans';-inkscape-font-specification:'Open Sans, Bold';font-variant-ligatures:normal;font-variant-caps:normal;font-variant-numeric:normal;font-feature-settings:normal;text-align:start;writing-mode:lr-tb;text-anchor:start;fill:#000000;fill-opacity:1;stroke-width:1"
       id="path4818" />
    <path
       d="m 61.119369,4.6929131 q 0.226407,0 0.376128,0.032866 l -0.08399,1.0443949 q -0.135114,-0.036517 -0.328655,-0.036517 -0.533153,0 -0.832595,0.2738797 -0.29579,0.2738798 -0.29579,0.7668634 V 8.8522339 H 58.840689 V 4.7695995 h 0.84355 l 0.164328,0.6865253 h 0.05478 q 0.18989,-0.3432627 0.511242,-0.5514113 0.325004,-0.2118004 0.704784,-0.2118004 z"
       style="font-style:normal;font-variant:normal;font-weight:bold;font-stretch:normal;font-size:7.47874355px;font-family:'Open Sans';-inkscape-font-specification:'Open Sans, Bold';font-variant-ligatures:normal;font-variant-caps:normal;font-variant-numeric:normal;font-feature-settings:normal;text-align:start;writing-mode:lr-tb;text-anchor:start;fill:#000000;fill-opacity:1;stroke-width:1"
       id="path4820" />
    <path
       d="M 68.5689,8.8522339 H 67.283491 L 65.884878,6.6027681 65.406501,6.9460307 V 8.8522339 H 64.274465 V 3.5134043 h 1.132036 v 2.4430075 l 0.445512,-0.6280976 1.446085,-1.8149099 h 1.256195 L 66.69191,5.8760737 Z"
       style="font-style:normal;font-variant:normal;font-weight:bold;font-stretch:normal;font-size:7.47874355px;font-family:'Open Sans';-inkscape-font-specification:'Open Sans, Bold';font-variant-ligatures:normal;font-variant-caps:normal;font-variant-numeric:normal;font-feature-settings:normal;text-align:start;writing-mode:lr-tb;text-anchor:start;fill:#000000;fill-opacity:1;stroke-width:1"
       id="path4822" />
    <path
       d="M 72.045348,8.8522339 71.895627,8.3300365 H 71.8372 q -0.178935,0.2848349 -0.507591,0.4418593 -0.328656,0.1533727 -0.748605,0.1533727 -0.71939,0 -1.084563,-0.3834317 -0.365173,-0.3870834 -0.365173,-1.110126 V 4.7695995 h 1.113777 v 2.3845798 q 0,0.4418594 0.157025,0.6646149 0.157024,0.2191038 0.500287,0.2191038 0.467421,0 0.67557,-0.310397 0.208148,-0.3140488 0.208148,-1.0370914 V 4.7695995 h 1.113778 v 4.0826344 z"
       style="font-style:normal;font-variant:normal;font-weight:bold;font-stretch:normal;font-size:7.47874355px;font-family:'Open Sans';-inkscape-font-specification:'Open Sans, Bold';font-variant-ligatures:normal;font-variant-caps:normal;font-variant-numeric:normal;font-feature-settings:normal;text-align:start;writing-mode:lr-tb;text-anchor:start;fill:#000000;fill-opacity:1;stroke-width:1"
       id="path4824" />
    <path
       d="M 77.844295,8.8522339 H 76.730517 V 6.467654 q 0,-0.4418593 -0.157024,-0.6609631 -0.157025,-0.2227556 -0.500288,-0.2227556 -0.467421,0 -0.67557,0.3140488 -0.208148,0.3103971 -0.208148,1.0334397 V 8.8522339 H 74.075709 V 4.7695995 h 0.850853 l 0.149721,0.5221974 h 0.06208 q 0.186238,-0.2957902 0.511242,-0.4455111 0.328655,-0.1533727 0.744953,-0.1533727 0.712087,0 1.080912,0.3870834 0.368825,0.3834317 0.368825,1.110126 z"
       style="font-style:normal;font-variant:normal;font-weight:bold;font-stretch:normal;font-size:7.47874355px;font-family:'Open Sans';-inkscape-font-specification:'Open Sans, Bold';font-variant-ligatures:normal;font-variant-caps:normal;font-variant-numeric:normal;font-feature-settings:normal;text-align:start;writing-mode:lr-tb;text-anchor:start;fill:#000000;fill-opacity:1;stroke-width:1"
       id="path4826" />
    <path
       d="m 81.84659,7.6398594 q 0,0.6280976 -0.438208,0.9567534 -0.434556,0.3286557 -1.303668,0.3286557 -0.445511,0 -0.759559,-0.062079 Q 79.031106,8.8047614 78.757226,8.687906 V 7.76767 q 0.310397,0.1460692 0.69748,0.2446659 0.390736,0.098597 0.686526,0.098597 0.606187,0 0.606187,-0.3505661 0,-0.1314622 -0.08034,-0.2118003 -0.08034,-0.08399 -0.277532,-0.1862383 Q 80.192356,7.2564278 79.8637,7.117662 79.392627,6.9204686 79.169871,6.752489 78.950768,6.5845094 78.848519,6.3690573 q -0.0986,-0.2191038 -0.0986,-0.5368043 0,-0.5441078 0.419948,-0.839898 0.423601,-0.2994419 1.197768,-0.2994419 0.73765,0 1.43513,0.3213523 L 81.46681,5.817646 q -0.306746,-0.1314622 -0.573322,-0.215452 -0.266576,-0.08399 -0.544108,-0.08399 -0.492983,0 -0.492983,0.2665763 0,0.1497209 0.157024,0.2592728 0.160676,0.1095519 0.697481,0.325004 0.478376,0.1935417 0.701132,0.3615213 0.222755,0.1679796 0.328656,0.3870834 0.1059,0.2191038 0.1059,0.5221974 z"
       style="font-style:normal;font-variant:normal;font-weight:bold;font-stretch:normal;font-size:7.47874355px;font-family:'Open Sans';-inkscape-font-specification:'Open Sans, Bold';font-variant-ligatures:normal;font-variant-caps:normal;font-variant-numeric:normal;font-feature-settings:normal;text-align:start;writing-mode:lr-tb;text-anchor:start;fill:#000000;fill-opacity:1;stroke-width:1"
       id="path4828" />
    <path
       d="m 84.442971,8.037898 q 0.292138,0 0.701132,-0.1278105 v 0.8289427 q -0.416297,0.1862383 -1.022484,0.1862383 -0.668267,0 -0.975012,-0.3359592 -0.303094,-0.3396109 -0.303094,-1.015181 V 5.6058457 H 82.31036 V 5.1347725 L 82.923851,4.762296 83.245203,3.9004877 h 0.712088 v 0.8691118 h 1.142991 v 0.8362462 h -1.142991 v 1.9682826 q 0,0.2373625 0.131462,0.3505661 0.135114,0.1132036 0.354218,0.1132036 z"
       style="font-style:normal;font-variant:normal;font-weight:bold;font-stretch:normal;font-size:7.47874355px;font-family:'Open Sans';-inkscape-font-specification:'Open Sans, Bold';font-variant-ligatures:normal;font-variant-caps:normal;font-variant-numeric:normal;font-feature-settings:normal;text-align:start;writing-mode:lr-tb;text-anchor:start;fill:#000000;fill-opacity:1;stroke-width:1"
       id="path4830" />
    <path
       d="m 87.685708,8.037898 q 0.292138,0 0.701132,-0.1278105 v 0.8289427 q -0.416297,0.1862383 -1.022485,0.1862383 -0.668266,0 -0.975012,-0.3359592 Q 86.08625,8.2496984 86.08625,7.5741283 V 5.6058457 H 85.553097 V 5.1347725 L 86.166588,4.762296 86.48794,3.9004877 h 0.712088 v 0.8691118 h 1.142991 v 0.8362462 h -1.142991 v 1.9682826 q 0,0.2373625 0.131462,0.3505661 0.135114,0.1132036 0.354218,0.1132036 z"
       style="font-style:normal;font-variant:normal;font-weight:bold;font-stretch:normal;font-size:7.47874355px;font-family:'Open Sans';-inkscape-font-specification:'Open Sans, Bold';font-variant-ligatures:normal;font-variant-caps:normal;font-variant-numeric:normal;font-feature-settings:normal;text-align:start;writing-mode:lr-tb;text-anchor:start;fill:#000000;fill-opacity:1;stroke-width:1"
       id="path4832" />
    <path
       d="M 92.977065,8.8522339 H 91.863287 V 6.467654 q 0,-0.8837187 -0.657311,-0.8837187 -0.467421,0 -0.67557,0.3177005 -0.208149,0.3177006 -0.208149,1.029788 V 8.8522339 H 89.20848 V 3.1701416 h 1.113777 v 1.1575985 q 0,0.135114 -0.02556,0.6354011 l -0.02556,0.3286557 h 0.05843 q 0.372476,-0.5988838 1.18316,-0.5988838 0.719391,0 1.091868,0.3870834 0.372476,0.3870834 0.372476,1.110126 z"
       style="font-style:normal;font-variant:normal;font-weight:bold;font-stretch:normal;font-size:7.47874355px;font-family:'Open Sans';-inkscape-font-specification:'Open Sans, Bold';font-variant-ligatures:normal;font-variant-caps:normal;font-variant-numeric:normal;font-feature-settings:normal;text-align:start;writing-mode:lr-tb;text-anchor:start;fill:#000000;fill-opacity:1;stroke-width:1"
       id="path4834" />
    <path
       d="m 95.821762,5.4853386 q -0.354218,0 -0.555063,0.2264073 -0.200845,0.2227555 -0.230059,0.635401 h 1.56294 Q 96.592277,5.9345014 96.384128,5.7117459 96.17598,5.4853386 95.821762,5.4853386 Z m 0.157024,3.4399299 q -0.985967,0 -1.54103,-0.5441078 -0.555063,-0.5441078 -0.555063,-1.5410302 0,-1.0261362 0.511242,-1.5848509 0.514894,-0.5623665 1.420523,-0.5623665 0.86546,0 1.347489,0.4929836 0.482028,0.4929836 0.482028,1.3620954 v 0.5404561 h -2.632897 q 0.01826,0.4747249 0.281183,0.7413012 0.262924,0.2665763 0.737649,0.2665763 0.368825,0 0.697481,-0.076686 0.328656,-0.076686 0.686525,-0.2446659 v 0.8618083 q -0.292138,0.1460692 -0.624446,0.2154521 -0.332307,0.073035 -0.810684,0.073035 z"
       style="font-style:normal;font-variant:normal;font-weight:bold;font-stretch:normal;font-size:7.47874355px;font-family:'Open Sans';-inkscape-font-specification:'Open Sans, Bold';font-variant-ligatures:normal;font-variant-caps:normal;font-variant-numeric:normal;font-feature-settings:normal;text-align:start;writing-mode:lr-tb;text-anchor:start;fill:#000000;fill-opacity:1;stroke-width:1"
       id="path4836" />
    <path
       d="m 100.83559,4.6929131 q 0.2264,0 0.37612,0.032866 l -0.084,1.0443949 q -0.13511,-0.036517 -0.32865,-0.036517 -0.53315,0 -0.832596,0.2738797 -0.29579,0.2738798 -0.29579,0.7668634 V 8.8522339 H 98.556906 V 4.7695995 h 0.84355 l 0.164328,0.6865253 h 0.05478 q 0.18989,-0.3432627 0.51124,-0.5514113 0.32501,-0.2118004 0.70479,-0.2118004 z"
       style="font-style:normal;font-variant:normal;font-weight:bold;font-stretch:normal;font-size:7.47874355px;font-family:'Open Sans';-inkscape-font-specification:'Open Sans, Bold';font-variant-ligatures:normal;font-variant-caps:normal;font-variant-numeric:normal;font-feature-settings:normal;text-align:start;writing-mode:lr-tb;text-anchor:start;fill:#000000;fill-opacity:1;stroke-width:1"
       id="path4838" />
    <path
       d="m 104.55305,8.8522339 -0.21546,-0.555063 h -0.0292 q -0.28118,0.3542178 -0.58062,0.4929836 -0.29579,0.135114 -0.77417,0.135114 -0.58793,0 -0.92754,-0.3359592 -0.33596,-0.3359592 -0.33596,-0.9567533 0,-0.650008 0.45281,-0.9567533 0.45647,-0.3103971 1.37306,-0.3432627 l 0.70843,-0.02191 V 6.1316949 q 0,-0.6207942 -0.6354,-0.6207942 -0.48933,0 -1.1503,0.2957902 l -0.36882,-0.7522565 q 0.70478,-0.3688247 1.56294,-0.3688247 0.82164,0 1.25985,0.3578695 0.43821,0.3578696 0.43821,1.0882157 v 2.720539 z m -0.32866,-1.8915963 -0.4309,0.014607 q -0.48568,0.014607 -0.72305,0.1752831 -0.23736,0.1606761 -0.23736,0.4893318 0,0.4710732 0.54046,0.4710732 0.38708,0 0.61714,-0.2227555 0.23371,-0.2227555 0.23371,-0.5915803 z"
       style="font-style:normal;font-variant:normal;font-weight:bold;font-stretch:normal;font-size:7.47874355px;font-family:'Open Sans';-inkscape-font-specification:'Open Sans, Bold';font-variant-ligatures:normal;font-variant-caps:normal;font-variant-numeric:normal;font-feature-settings:normal;text-align:start;writing-mode:lr-tb;text-anchor:start;fill:#000000;fill-opacity:1;stroke-width:1"
       id="path4840" />
    <path
       d="m 108.71602,8.9252685 q -0.71939,0 -1.12838,-0.5221974 h -0.0584 q 0.0584,0.5112422 0.0584,0.5915803 v 1.6542336 h -1.11378 V 4.7695995 h 0.90563 l 0.15702,0.5295009 h 0.0511 q 0.39073,-0.6061873 1.1576,-0.6061873 0.72304,0 1.13203,0.5587148 0.409,0.5587147 0.409,1.5519853 0,0.6536597 -0.19354,1.1356881 -0.18989,0.4820284 -0.54411,0.7339978 -0.35422,0.2519694 -0.8326,0.2519694 z m -0.32865,-3.3413332 q -0.41265,0 -0.60254,0.2556211 -0.18989,0.2519694 -0.19719,0.8362463 v 0.1205071 q 0,0.6573114 0.19354,0.9421464 0.19719,0.2848349 0.62079,0.2848349 0.74861,0 0.74861,-1.2342848 0,-0.6025355 -0.18624,-0.9019774 -0.18259,-0.3030936 -0.57697,-0.3030936 z"
       style="font-style:normal;font-variant:normal;font-weight:bold;font-stretch:normal;font-size:7.47874355px;font-family:'Open Sans';-inkscape-font-specification:'Open Sans, Bold';font-variant-ligatures:normal;font-variant-caps:normal;font-variant-numeric:normal;font-feature-settings:normal;text-align:start;writing-mode:lr-tb;text-anchor:start;fill:#000000;fill-opacity:1;stroke-width:1"
       id="path4842" />
    <path
       d="m 111.15903,3.7142494 q 0,-0.5441078 0.60619,-0.5441078 0.60619,0 0.60619,0.5441078 0,0.2592729 -0.15338,0.4053421 -0.14972,0.1424175 -0.45281,0.1424175 -0.60619,0 -0.60619,-0.5477596 z m 1.16125,5.1379845 H 111.2065 V 4.7695995 h 1.11378 z"
       style="font-style:normal;font-variant:normal;font-weight:bold;font-stretch:normal;font-size:7.47874355px;font-family:'Open Sans';-inkscape-font-specification:'Open Sans, Bold';font-variant-ligatures:normal;font-variant-caps:normal;font-variant-numeric:normal;font-feature-settings:normal;text-align:start;writing-mode:lr-tb;text-anchor:start;fill:#000000;fill-opacity:1;stroke-width:1"
       id="path4844" />
    <path
       d="m 115.17593,5.4853386 q -0.35421,0 -0.55506,0.2264073 -0.20084,0.2227555 -0.23006,0.635401 h 1.56294 q -0.007,-0.4126455 -0.21545,-0.635401 -0.20815,-0.2264073 -0.56237,-0.2264073 z m 0.15703,3.4399299 q -0.98597,0 -1.54103,-0.5441078 -0.55507,-0.5441078 -0.55507,-1.5410302 0,-1.0261362 0.51125,-1.5848509 0.51489,-0.5623665 1.42052,-0.5623665 0.86546,0 1.34749,0.4929836 0.48203,0.4929836 0.48203,1.3620954 v 0.5404561 h -2.6329 q 0.0183,0.4747249 0.28118,0.7413012 0.26293,0.2665763 0.73765,0.2665763 0.36883,0 0.69748,-0.076686 0.32866,-0.076686 0.68653,-0.2446659 v 0.8618083 q -0.29214,0.1460692 -0.62445,0.2154521 -0.33231,0.073035 -0.81068,0.073035 z"
       style="font-style:normal;font-variant:normal;font-weight:bold;font-stretch:normal;font-size:7.47874355px;font-family:'Open Sans';-inkscape-font-specification:'Open Sans, Bold';font-variant-ligatures:normal;font-variant-caps:normal;font-variant-numeric:normal;font-feature-settings:normal;text-align:start;writing-mode:lr-tb;text-anchor:start;fill:#000000;fill-opacity:1;stroke-width:1"
       id="path4846" />
    <path
       d="m 121.07347,6.0257947 h 0.37248 q 0.5222,0 0.78147,-0.2044969 0.25927,-0.2081486 0.25927,-0.6025355 0,-0.3980386 -0.2191,-0.5879286 -0.21545,-0.18989 -0.67922,-0.18989 h -0.5149 z m 2.55622,-0.8472014 q 0,0.8618083 -0.54046,1.3182746 -0.5368,0.4564663 -1.53008,0.4564663 h -0.48568 v 1.8988997 h -1.13203 V 3.5134043 h 1.70536 q 0.97136,0 1.4753,0.4199489 0.50759,0.4162973 0.50759,1.2452401 z"
       style="font-style:normal;font-variant:normal;font-weight:bold;font-stretch:normal;font-size:7.47874355px;font-family:'Open Sans';-inkscape-font-specification:'Open Sans, Bold';font-variant-ligatures:normal;font-variant-caps:normal;font-variant-numeric:normal;font-feature-settings:normal;text-align:start;writing-mode:lr-tb;text-anchor:start;fill:#000000;fill-opacity:1;stroke-width:1"
       id="path4848" />
    <path
       d="m 126.70444,8.8522339 h -1.13203 V 4.4555507 h -1.44974 V 3.5134043 h 4.03151 v 0.9421464 h -1.44974 z"
       style="font-style:normal;font-variant:normal;font-weight:bold;font-stretch:normal;font-size:7.47874355px;font-family:'Open Sans';-inkscape-font-specification:'Open Sans, Bold';font-variant-ligatures:normal;font-variant-caps:normal;font-variant-numeric:normal;font-feature-settings:normal;text-align:start;writing-mode:lr-tb;text-anchor:start;fill:#000000;fill-opacity:1;stroke-width:1"
       id="path4850" />
    <path
       d="m 131.24355,8.8522339 -1.28541,-4.1885346 h -0.0329 q 0.0694,1.2781056 0.0694,1.705358 v 2.4831766 h -1.01152 V 3.5134043 h 1.54103 l 1.26349,4.0826344 h 0.0219 l 1.34019,-4.0826344 h 1.54103 v 5.3388296 h -1.05535 V 6.3252366 q 0,-0.1789348 0.004,-0.4126456 0.007,-0.2337107 0.0511,-1.2415883 h -0.0329 l -1.3767,4.1812312 z"
       style="font-style:normal;font-variant:normal;font-weight:bold;font-stretch:normal;font-size:7.47874355px;font-family:'Open Sans';-inkscape-font-specification:'Open Sans, Bold';font-variant-ligatures:normal;font-variant-caps:normal;font-variant-numeric:normal;font-feature-settings:normal;text-align:start;writing-mode:lr-tb;text-anchor:start;fill:#000000;fill-opacity:1;stroke-width:1"
       id="path4852" />
  </g>
</svg>
